solid SINISTRO
facet normal 0.0 0.0 -1.0
  outer loop
    vertex 38.59830093383789 49.91094970703124 0.0
    vertex 38.5 37.97534942626953 0.0
    vertex 38.5 48.975349426269524 0.0
  endloop
endfacet
facet normal 0.0 0.0 -1.0
  outer loop
    vertex 38.5 37.97534942626953 0.0
    vertex 38.59830093383789 49.91094970703124 0.0
    vertex 38.59830093383789 37.03974914550781 0.0
  endloop
endfacet
facet normal 0.0 0.0 -1.0
  outer loop
    vertex 38.59830093383789 37.03974914550781 0.0
    vertex 38.59830093383789 49.91094970703124 0.0
    vertex 38.88899993896484 50.80566024780273 0.0
  endloop
endfacet
facet normal 0.0 0.0 -1.0
  outer loop
    vertex 38.59830093383789 37.03974914550781 0.0
    vertex 38.88899993896484 50.80566024780273 0.0
    vertex 38.88899993896484 36.14503860473632 0.0
  endloop
endfacet
facet normal 0.0 0.0 -1.0
  outer loop
    vertex 38.88899993896484 36.14503860473632 0.0
    vertex 38.88899993896484 50.80566024780273 0.0
    vertex 39.35940170288085 51.62038040161133 0.0
  endloop
endfacet
facet normal 0.0 0.0 -1.0
  outer loop
    vertex 38.88899993896484 36.14503860473632 0.0
    vertex 39.35940170288085 51.62038040161133 0.0
    vertex 39.35940170288085 35.330318450927734 0.0
  endloop
endfacet
facet normal 0.0 0.0 -1.0
  outer loop
    vertex 39.35940170288085 35.330318450927734 0.0
    vertex 39.35940170288085 51.62038040161133 0.0
    vertex 39.988899230957024 52.319499969482415 0.0
  endloop
endfacet
facet normal 0.0 0.0 -1.0
  outer loop
    vertex 39.35940170288085 35.330318450927734 0.0
    vertex 39.988899230957024 52.319499969482415 0.0
    vertex 39.988899230957024 34.63119888305663 0.0
  endloop
endfacet
facet normal 0.0 0.0 -1.0
  outer loop
    vertex 39.988899230957024 34.63119888305663 0.0
    vertex 39.988899230957024 52.319499969482415 0.0
    vertex 40.75 52.872459411621094 0.0
  endloop
endfacet
facet normal 0.0 0.0 -1.0
  outer loop
    vertex 39.988899230957024 34.63119888305663 0.0
    vertex 40.75 52.872459411621094 0.0
    vertex 40.75 34.07823944091796 0.0
  endloop
endfacet
facet normal 0.0 0.0 -1.0
  outer loop
    vertex 40.75 34.07823944091796 0.0
    vertex 40.75 52.872459411621094 0.0
    vertex 41.60940170288086 53.25510025024414 0.0
  endloop
endfacet
facet normal 0.0 0.0 -1.0
  outer loop
    vertex 40.75 34.07823944091796 0.0
    vertex 41.60940170288086 53.25510025024414 0.0
    vertex 41.60940170288086 33.695598602294915 0.0
  endloop
endfacet
facet normal 0.0 0.0 -1.0
  outer loop
    vertex 41.60940170288086 33.695598602294915 0.0
    vertex 41.60940170288086 53.25510025024414 0.0
    vertex 42.529598236083984 53.450698852539055 0.0
  endloop
endfacet
facet normal 0.0 0.0 -1.0
  outer loop
    vertex 41.60940170288086 33.695598602294915 0.0
    vertex 42.529598236083984 53.450698852539055 0.0
    vertex 42.529598236083984 33.49999999999999 0.0
  endloop
endfacet
facet normal 0.0 0.0 -1.0
  outer loop
    vertex 42.529598236083984 33.49999999999999 0.0
    vertex 42.529598236083984 53.450698852539055 0.0
    vertex 74.47039794921874 53.450698852539055 0.0
  endloop
endfacet
facet normal 0.0 0.0 -1.0
  outer loop
    vertex 42.529598236083984 33.49999999999999 0.0
    vertex 74.47039794921874 53.450698852539055 0.0
    vertex 74.47039794921874 33.49999999999999 0.0
  endloop
endfacet
facet normal 0.0 0.0 -1.0
  outer loop
    vertex 74.47039794921874 33.49999999999999 0.0
    vertex 74.47039794921874 53.450698852539055 0.0
    vertex 75.3906021118164 53.25510025024414 0.0
  endloop
endfacet
facet normal 0.0 0.0 -1.0
  outer loop
    vertex 74.47039794921874 33.49999999999999 0.0
    vertex 75.3906021118164 53.25510025024414 0.0
    vertex 75.3906021118164 33.695598602294915 0.0
  endloop
endfacet
facet normal 0.0 0.0 -1.0
  outer loop
    vertex 75.3906021118164 33.695598602294915 0.0
    vertex 75.3906021118164 53.25510025024414 0.0
    vertex 76.25 52.872459411621094 0.0
  endloop
endfacet
facet normal 0.0 0.0 -1.0
  outer loop
    vertex 75.3906021118164 33.695598602294915 0.0
    vertex 76.25 52.872459411621094 0.0
    vertex 76.25 34.07823944091796 0.0
  endloop
endfacet
facet normal 0.0 0.0 -1.0
  outer loop
    vertex 76.25 34.07823944091796 0.0
    vertex 76.25 52.872459411621094 0.0
    vertex 77.01110076904295 52.319499969482415 0.0
  endloop
endfacet
facet normal 0.0 0.0 -1.0
  outer loop
    vertex 76.25 34.07823944091796 0.0
    vertex 77.01110076904295 52.319499969482415 0.0
    vertex 77.01110076904295 34.63119888305663 0.0
  endloop
endfacet
facet normal 0.0 0.0 -1.0
  outer loop
    vertex 77.01110076904295 34.63119888305663 0.0
    vertex 77.01110076904295 52.319499969482415 0.0
    vertex 77.64060211181639 51.62038040161133 0.0
  endloop
endfacet
facet normal 0.0 0.0 -1.0
  outer loop
    vertex 77.01110076904295 34.63119888305663 0.0
    vertex 77.64060211181639 51.62038040161133 0.0
    vertex 77.64060211181639 35.330318450927734 0.0
  endloop
endfacet
facet normal 0.0 0.0 -1.0
  outer loop
    vertex 77.64060211181639 35.330318450927734 0.0
    vertex 77.64060211181639 51.62038040161133 0.0
    vertex 78.11100006103516 50.80566024780273 0.0
  endloop
endfacet
facet normal 0.0 0.0 -1.0
  outer loop
    vertex 77.64060211181639 35.330318450927734 0.0
    vertex 78.11100006103516 50.80566024780273 0.0
    vertex 78.11100006103516 36.14503860473632 0.0
  endloop
endfacet
facet normal 0.0 0.0 -1.0
  outer loop
    vertex 78.11100006103516 36.14503860473632 0.0
    vertex 78.11100006103516 50.80566024780273 0.0
    vertex 78.40170288085938 49.91094970703124 0.0
  endloop
endfacet
facet normal 0.0 0.0 -1.0
  outer loop
    vertex 78.11100006103516 36.14503860473632 0.0
    vertex 78.40170288085938 49.91094970703124 0.0
    vertex 78.40170288085938 37.03974914550781 0.0
  endloop
endfacet
facet normal 0.0 0.0 -1.0
  outer loop
    vertex 78.40170288085938 37.03974914550781 0.0
    vertex 78.40170288085938 49.91094970703124 0.0
    vertex 78.49999999999999 48.975349426269524 0.0
  endloop
endfacet
facet normal 0.0 0.0 -1.0
  outer loop
    vertex 78.40170288085938 37.03974914550781 0.0
    vertex 78.49999999999999 48.975349426269524 0.0
    vertex 78.49999999999999 37.97534942626953 0.0
  endloop
endfacet
facet normal -0.9945257201202693 -0.10449206677666974 1.5021101128971864e-18
  outer loop
    vertex 38.5 37.97534942626953 4.999999999999999
    vertex 38.59830093383789 37.03974914550781 0.0
    vertex 38.59830093383789 37.03974914550781 4.999999999999999
  endloop
endfacet
facet normal -1.0 0.0 0.0
  outer loop
    vertex 38.5 48.975349426269524 4.999999999999999
    vertex 38.5 37.97534942626953 0.0
    vertex 38.5 37.97534942626953 4.999999999999999
  endloop
endfacet
facet normal -1.0 0.0 0.0
  outer loop
    vertex 38.5 37.97534942626953 0.0
    vertex 38.5 48.975349426269524 4.999999999999999
    vertex 38.5 48.975349426269524 0.0
  endloop
endfacet
facet normal -0.9945257201202693 -0.10449206677666972 1.5021101128971866e-18
  outer loop
    vertex 38.5 37.97534942626953 0.0
    vertex 38.59830093383789 37.03974914550781 0.0
    vertex 38.5 37.97534942626953 4.999999999999999
  endloop
endfacet
facet normal -0.9510596627584974 -0.3090073103887569 6.2830292804527484e-18
  outer loop
    vertex 38.59830093383789 37.03974914550781 0.0
    vertex 38.88899993896484 36.14503860473632 0.0
    vertex 38.59830093383789 37.03974914550781 4.999999999999999
  endloop
endfacet
facet normal -0.9510596627584974 -0.3090073103887569 6.2830292804527484e-18
  outer loop
    vertex 38.59830093383789 37.03974914550781 4.999999999999999
    vertex 38.88899993896484 36.14503860473632 0.0
    vertex 38.88899993896484 36.14503860473632 4.999999999999999
  endloop
endfacet
facet normal -0.8660148799533977 -0.5000182273670654 0.0
  outer loop
    vertex 38.88899993896484 36.14503860473632 0.0
    vertex 39.35940170288085 35.330318450927734 0.0
    vertex 38.88899993896484 36.14503860473632 4.999999999999999
  endloop
endfacet
facet normal -0.8660148799533979 -0.5000182273670651 -1.3799547942458619e-17
  outer loop
    vertex 38.88899993896484 36.14503860473632 4.999999999999999
    vertex 39.35940170288085 35.330318450927734 0.0
    vertex 39.35940170288085 35.330318450927734 4.999999999999999
  endloop
endfacet
facet normal -0.7431408919820622 -0.6691349749221789 -8.04071506786175e-18
  outer loop
    vertex 39.35940170288085 35.330318450927734 0.0
    vertex 39.988899230957024 34.63119888305663 0.0
    vertex 39.35940170288085 35.330318450927734 4.999999999999999
  endloop
endfacet
facet normal -0.7431408919820622 -0.6691349749221789 8.04071506786175e-18
  outer loop
    vertex 39.35940170288085 35.330318450927734 4.999999999999999
    vertex 39.988899230957024 34.63119888305663 0.0
    vertex 39.988899230957024 34.63119888305663 4.999999999999999
  endloop
endfacet
facet normal -0.5877764620719254 -0.8090233807710445 -7.385895869351757e-18
  outer loop
    vertex 39.988899230957024 34.63119888305663 4.999999999999999
    vertex 39.988899230957024 34.63119888305663 0.0
    vertex 40.75 34.07823944091796 0.0
  endloop
endfacet
facet normal -0.5877764620719254 -0.8090233807710445 0.0
  outer loop
    vertex 39.988899230957024 34.63119888305663 4.999999999999999
    vertex 40.75 34.07823944091796 0.0
    vertex 40.75 34.07823944091796 4.999999999999999
  endloop
endfacet
facet normal -0.40674600087401325 -0.9135412912249765 0.0
  outer loop
    vertex 40.75 34.07823944091796 4.999999999999999
    vertex 40.75 34.07823944091796 0.0
    vertex 41.60940170288086 33.695598602294915 0.0
  endloop
endfacet
facet normal -0.4067460008740132 -0.9135412912249765 6.541271739751916e-18
  outer loop
    vertex 40.75 34.07823944091796 4.999999999999999
    vertex 41.60940170288086 33.695598602294915 0.0
    vertex 41.60940170288086 33.695598602294915 4.999999999999999
  endloop
endfacet
facet normal -0.2079165635264895 -0.9781465649949068 -3.054493336438947e-18
  outer loop
    vertex 41.60940170288086 33.695598602294915 4.999999999999999
    vertex 41.60940170288086 33.695598602294915 0.0
    vertex 42.529598236083984 33.49999999999999 0.0
  endloop
endfacet
facet normal -0.2079165635264895 -0.9781465649949068 6.108986672877893e-18
  outer loop
    vertex 41.60940170288086 33.695598602294915 4.999999999999999
    vertex 42.529598236083984 33.49999999999999 0.0
    vertex 42.529598236083984 33.49999999999999 4.999999999999999
  endloop
endfacet
facet normal 0.0 -1.0 0.0
  outer loop
    vertex 74.47039794921874 33.49999999999999 4.999999999999999
    vertex 42.529598236083984 33.49999999999999 0.0
    vertex 74.47039794921874 33.49999999999999 0.0
  endloop
endfacet
facet normal 0.0 -1.0 0.0
  outer loop
    vertex 42.529598236083984 33.49999999999999 0.0
    vertex 74.47039794921874 33.49999999999999 4.999999999999999
    vertex 42.529598236083984 33.49999999999999 4.999999999999999
  endloop
endfacet
facet normal 0.20791491421353386 -0.9781469155743318 -6.10888756381978e-18
  outer loop
    vertex 74.47039794921874 33.49999999999999 4.999999999999999
    vertex 74.47039794921874 33.49999999999999 0.0
    vertex 75.3906021118164 33.695598602294915 0.0
  endloop
endfacet
facet normal 0.20791491421353397 -0.9781469155743318 3.054443781909891e-18
  outer loop
    vertex 74.47039794921874 33.49999999999999 4.999999999999999
    vertex 75.3906021118164 33.695598602294915 0.0
    vertex 75.3906021118164 33.695598602294915 4.999999999999999
  endloop
endfacet
facet normal 0.4067475076371011 -0.9135406203508448 -1.3082650013940826e-17
  outer loop
    vertex 75.3906021118164 33.695598602294915 4.999999999999999
    vertex 75.3906021118164 33.695598602294915 0.0
    vertex 76.25 34.07823944091796 0.0
  endloop
endfacet
facet normal 0.40674750763710127 -0.9135406203508448 0.0
  outer loop
    vertex 75.3906021118164 33.695598602294915 4.999999999999999
    vertex 76.25 34.07823944091796 0.0
    vertex 76.25 34.07823944091796 4.999999999999999
  endloop
endfacet
facet normal 0.5877764620719282 -0.8090233807710426 -7.385895869351848e-18
  outer loop
    vertex 76.25 34.07823944091796 4.999999999999999
    vertex 76.25 34.07823944091796 0.0
    vertex 77.01110076904295 34.63119888305663 0.0
  endloop
endfacet
facet normal 0.5877764620719282 -0.8090233807710426 0.0
  outer loop
    vertex 76.25 34.07823944091796 4.999999999999999
    vertex 77.01110076904295 34.63119888305663 0.0
    vertex 77.01110076904295 34.63119888305663 4.999999999999999
  endloop
endfacet
facet normal 0.7431388756399647 -0.6691372142636884 8.04069325122851e-18
  outer loop
    vertex 77.64060211181639 35.330318450927734 0.0
    vertex 77.01110076904295 34.63119888305663 4.999999999999999
    vertex 77.01110076904295 34.63119888305663 0.0
  endloop
endfacet
facet normal 0.7431388756399646 -0.6691372142636883 -0.0
  outer loop
    vertex 77.64060211181639 35.330318450927734 4.999999999999999
    vertex 77.01110076904295 34.63119888305663 4.999999999999999
    vertex 77.64060211181639 35.330318450927734 0.0
  endloop
endfacet
facet normal 0.8660166358046533 -0.5000151862789679 6.899787960569527e-18
  outer loop
    vertex 78.11100006103516 36.14503860473632 0.0
    vertex 77.64060211181639 35.330318450927734 4.999999999999999
    vertex 77.64060211181639 35.330318450927734 0.0
  endloop
endfacet
facet normal 0.866016635804653 -0.500015186278968 6.899787960569527e-18
  outer loop
    vertex 78.11100006103516 36.14503860473632 4.999999999999999
    vertex 77.64060211181639 35.330318450927734 4.999999999999999
    vertex 78.11100006103516 36.14503860473632 0.0
  endloop
endfacet
facet normal 0.9510584710670101 -0.3090109781410385 -0.0
  outer loop
    vertex 78.40170288085938 37.03974914550781 0.0
    vertex 78.11100006103516 36.14503860473632 4.999999999999999
    vertex 78.11100006103516 36.14503860473632 0.0
  endloop
endfacet
facet normal 0.9510584710670101 -0.30901097814103834 -0.0
  outer loop
    vertex 78.40170288085938 37.03974914550781 4.999999999999999
    vertex 78.11100006103516 36.14503860473632 4.999999999999999
    vertex 78.40170288085938 37.03974914550781 0.0
  endloop
endfacet
facet normal 0.994526141503203 -0.10448805609614495 -0.0
  outer loop
    vertex 78.49999999999999 37.97534942626953 0.0
    vertex 78.40170288085938 37.03974914550781 4.999999999999999
    vertex 78.40170288085938 37.03974914550781 0.0
  endloop
endfacet
facet normal 0.994526141503203 -0.10448805609614496 -0.0
  outer loop
    vertex 78.49999999999999 37.97534942626953 4.999999999999999
    vertex 78.40170288085938 37.03974914550781 4.999999999999999
    vertex 78.49999999999999 37.97534942626953 0.0
  endloop
endfacet
facet normal 1.0 -0.0 -0.0
  outer loop
    vertex 78.49999999999999 48.975349426269524 0.0
    vertex 78.49999999999999 37.97534942626953 4.999999999999999
    vertex 78.49999999999999 37.97534942626953 0.0
  endloop
endfacet
facet normal 1.0 -0.0 -0.0
  outer loop
    vertex 78.49999999999999 37.97534942626953 4.999999999999999
    vertex 78.49999999999999 48.975349426269524 0.0
    vertex 78.49999999999999 48.975349426269524 4.999999999999999
  endloop
endfacet
facet normal 0.994526141503203 0.10448805609614495 -0.0
  outer loop
    vertex 78.40170288085938 49.91094970703124 4.999999999999999
    vertex 78.49999999999999 48.975349426269524 0.0
    vertex 78.40170288085938 49.91094970703124 0.0
  endloop
endfacet
facet normal 0.994526141503203 0.10448805609614495 1.5021107493448447e-18
  outer loop
    vertex 78.40170288085938 49.91094970703124 4.999999999999999
    vertex 78.49999999999999 48.975349426269524 4.999999999999999
    vertex 78.49999999999999 48.975349426269524 0.0
  endloop
endfacet
facet normal 0.9510584710670095 0.30901097814104006 1.8849064223179296e-17
  outer loop
    vertex 78.11100006103516 50.80566024780273 4.999999999999999
    vertex 78.40170288085938 49.91094970703124 0.0
    vertex 78.11100006103516 50.80566024780273 0.0
  endloop
endfacet
facet normal 0.9510584710670095 0.3090109781410402 -0.0
  outer loop
    vertex 78.11100006103516 50.80566024780273 4.999999999999999
    vertex 78.40170288085938 49.91094970703124 4.999999999999999
    vertex 78.40170288085938 49.91094970703124 0.0
  endloop
endfacet
facet normal 0.8660166358046545 0.5000151862789655 -6.899787960569444e-18
  outer loop
    vertex 77.64060211181639 51.62038040161133 4.999999999999999
    vertex 78.11100006103516 50.80566024780273 0.0
    vertex 77.64060211181639 51.62038040161133 0.0
  endloop
endfacet
facet normal 0.8660166358046545 0.5000151862789655 6.899787960569444e-18
  outer loop
    vertex 77.64060211181639 51.62038040161133 4.999999999999999
    vertex 78.11100006103516 50.80566024780273 4.999999999999999
    vertex 78.11100006103516 50.80566024780273 0.0
  endloop
endfacet
facet normal 0.743138875639962 0.6691372142636914 8.040693251228609e-18
  outer loop
    vertex 77.01110076904295 52.319499969482415 4.999999999999999
    vertex 77.64060211181639 51.62038040161133 0.0
    vertex 77.01110076904295 52.319499969482415 0.0
  endloop
endfacet
facet normal 0.743138875639962 0.6691372142636914 8.040693251228609e-18
  outer loop
    vertex 77.01110076904295 52.319499969482415 4.999999999999999
    vertex 77.64060211181639 51.62038040161133 4.999999999999999
    vertex 77.64060211181639 51.62038040161133 0.0
  endloop
endfacet
facet normal 0.5877764620719322 0.8090233807710397 -0.0
  outer loop
    vertex 76.25 52.872459411621094 4.999999999999999
    vertex 77.01110076904295 52.319499969482415 0.0
    vertex 76.25 52.872459411621094 0.0
  endloop
endfacet
facet normal 0.5877764620719322 0.8090233807710395 -7.38589586935182e-18
  outer loop
    vertex 77.01110076904295 52.319499969482415 4.999999999999999
    vertex 77.01110076904295 52.319499969482415 0.0
    vertex 76.25 52.872459411621094 4.999999999999999
  endloop
endfacet
facet normal 0.4067475076371011 0.9135406203508448 -1.3082650013940826e-17
  outer loop
    vertex 75.3906021118164 53.25510025024414 4.999999999999999
    vertex 76.25 52.872459411621094 0.0
    vertex 75.3906021118164 53.25510025024414 0.0
  endloop
endfacet
facet normal 0.40674750763710116 0.9135406203508448 -6.541325006970414e-18
  outer loop
    vertex 76.25 52.872459411621094 4.999999999999999
    vertex 76.25 52.872459411621094 0.0
    vertex 75.3906021118164 53.25510025024414 4.999999999999999
  endloop
endfacet
facet normal 0.20791491421352823 0.9781469155743331 6.1088875638197885e-18
  outer loop
    vertex 74.47039794921874 53.450698852539055 4.999999999999999
    vertex 75.3906021118164 53.25510025024414 0.0
    vertex 74.47039794921874 53.450698852539055 0.0
  endloop
endfacet
facet normal 0.20791491421352826 0.9781469155743331 6.108887563819791e-18
  outer loop
    vertex 75.3906021118164 53.25510025024414 4.999999999999999
    vertex 75.3906021118164 53.25510025024414 0.0
    vertex 74.47039794921874 53.450698852539055 4.999999999999999
  endloop
endfacet
facet normal -0.0 1.0 -0.0
  outer loop
    vertex 42.529598236083984 53.450698852539055 4.999999999999999
    vertex 74.47039794921874 53.450698852539055 0.0
    vertex 42.529598236083984 53.450698852539055 0.0
  endloop
endfacet
facet normal -0.0 1.0 -0.0
  outer loop
    vertex 74.47039794921874 53.450698852539055 0.0
    vertex 42.529598236083984 53.450698852539055 4.999999999999999
    vertex 74.47039794921874 53.450698852539055 4.999999999999999
  endloop
endfacet
facet normal -0.2079165635264838 0.978146564994908 -0.0
  outer loop
    vertex 41.60940170288086 53.25510025024414 4.999999999999999
    vertex 42.529598236083984 53.450698852539055 0.0
    vertex 41.60940170288086 53.25510025024414 0.0
  endloop
endfacet
facet normal -0.20791656352648374 0.978146564994908 6.108986672877902e-18
  outer loop
    vertex 42.529598236083984 53.450698852539055 4.999999999999999
    vertex 42.529598236083984 53.450698852539055 0.0
    vertex 41.60940170288086 53.25510025024414 4.999999999999999
  endloop
endfacet
facet normal -0.40674600087401325 0.9135412912249765 -0.0
  outer loop
    vertex 40.75 52.872459411621094 4.999999999999999
    vertex 41.60940170288086 53.25510025024414 0.0
    vertex 40.75 52.872459411621094 0.0
  endloop
endfacet
facet normal -0.4067460008740132 0.9135412912249765 6.541271739751916e-18
  outer loop
    vertex 41.60940170288086 53.25510025024414 4.999999999999999
    vertex 41.60940170288086 53.25510025024414 0.0
    vertex 40.75 52.872459411621094 4.999999999999999
  endloop
endfacet
facet normal -0.5877764620719292 0.8090233807710417 -0.0
  outer loop
    vertex 39.988899230957024 52.319499969482415 4.999999999999999
    vertex 40.75 52.872459411621094 0.0
    vertex 39.988899230957024 52.319499969482415 0.0
  endloop
endfacet
facet normal -0.5877764620719294 0.8090233807710417 -0.0
  outer loop
    vertex 40.75 52.872459411621094 4.999999999999999
    vertex 40.75 52.872459411621094 0.0
    vertex 39.988899230957024 52.319499969482415 4.999999999999999
  endloop
endfacet
facet normal -0.7431408919820596 0.6691349749221818 -1.60814301357237e-17
  outer loop
    vertex 39.988899230957024 52.319499969482415 0.0
    vertex 39.35940170288085 51.62038040161133 0.0
    vertex 39.35940170288085 51.62038040161133 4.999999999999999
  endloop
endfacet
facet normal -0.7431408919820596 0.6691349749221819 0.0
  outer loop
    vertex 39.988899230957024 52.319499969482415 0.0
    vertex 39.35940170288085 51.62038040161133 4.999999999999999
    vertex 39.988899230957024 52.319499969482415 4.999999999999999
  endloop
endfacet
facet normal -0.8660148799533992 0.5000182273670627 -6.899773971229227e-18
  outer loop
    vertex 39.35940170288085 51.62038040161133 0.0
    vertex 38.88899993896484 50.80566024780273 0.0
    vertex 38.88899993896484 50.80566024780273 4.999999999999999
  endloop
endfacet
facet normal -0.8660148799533992 0.5000182273670628 1.3799547942458454e-17
  outer loop
    vertex 39.35940170288085 51.62038040161133 0.0
    vertex 38.88899993896484 50.80566024780273 4.999999999999999
    vertex 39.35940170288085 51.62038040161133 4.999999999999999
  endloop
endfacet
facet normal -0.9510596627584967 0.30900731038875867 0.0
  outer loop
    vertex 38.88899993896484 50.80566024780273 0.0
    vertex 38.59830093383789 49.91094970703124 0.0
    vertex 38.59830093383789 49.91094970703124 4.999999999999999
  endloop
endfacet
facet normal -0.9510596627584967 0.3090073103887586 -1.2566058560905648e-17
  outer loop
    vertex 38.88899993896484 50.80566024780273 0.0
    vertex 38.59830093383789 49.91094970703124 4.999999999999999
    vertex 38.88899993896484 50.80566024780273 4.999999999999999
  endloop
endfacet
facet normal -0.9945257201202693 0.10449206677666971 0.0
  outer loop
    vertex 38.59830093383789 49.91094970703124 0.0
    vertex 38.5 48.975349426269524 0.0
    vertex 38.5 48.975349426269524 4.999999999999999
  endloop
endfacet
facet normal -0.9945257201202693 0.10449206677666974 -3.004220225794372e-18
  outer loop
    vertex 38.59830093383789 49.91094970703124 0.0
    vertex 38.5 48.975349426269524 4.999999999999999
    vertex 38.59830093383789 49.91094970703124 4.999999999999999
  endloop
endfacet
facet normal -2.2812880596002485e-32 4.13116622214141e-32 1.0
  outer loop
    vertex 38.59830093383789 37.03974914550781 4.999999999999999
    vertex 38.5 48.975349426269524 4.999999999999999
    vertex 38.5 37.97534942626953 4.999999999999999
  endloop
endfacet
facet normal -2.2812880596002485e-32 4.13116622214141e-32 1.0
  outer loop
    vertex 38.5 48.975349426269524 4.999999999999999
    vertex 38.59830093383789 37.03974914550781 4.999999999999999
    vertex 38.59830093383789 49.91094970703124 4.999999999999999
  endloop
endfacet
facet normal -2.2812880596002485e-32 4.13116622214141e-32 1.0
  outer loop
    vertex 38.59830093383789 49.91094970703124 4.999999999999999
    vertex 38.59830093383789 37.03974914550781 4.999999999999999
    vertex 38.88899993896484 36.14503860473632 4.999999999999999
  endloop
endfacet
facet normal -2.2812880596002485e-32 4.13116622214141e-32 1.0
  outer loop
    vertex 38.59830093383789 49.91094970703124 4.999999999999999
    vertex 38.88899993896484 36.14503860473632 4.999999999999999
    vertex 38.88899993896484 50.80566024780273 4.999999999999999
  endloop
endfacet
facet normal -2.2812880596002485e-32 4.13116622214141e-32 1.0
  outer loop
    vertex 38.88899993896484 50.80566024780273 4.999999999999999
    vertex 38.88899993896484 36.14503860473632 4.999999999999999
    vertex 39.35940170288085 35.330318450927734 4.999999999999999
  endloop
endfacet
facet normal -2.2812880596002485e-32 4.13116622214141e-32 1.0
  outer loop
    vertex 38.88899993896484 50.80566024780273 4.999999999999999
    vertex 39.35940170288085 35.330318450927734 4.999999999999999
    vertex 39.35940170288085 51.62038040161133 4.999999999999999
  endloop
endfacet
facet normal -2.2812880596002485e-32 4.13116622214141e-32 1.0
  outer loop
    vertex 39.35940170288085 51.62038040161133 4.999999999999999
    vertex 39.35940170288085 35.330318450927734 4.999999999999999
    vertex 39.988899230957024 34.63119888305663 4.999999999999999
  endloop
endfacet
facet normal -2.2812880596002485e-32 4.13116622214141e-32 1.0
  outer loop
    vertex 39.35940170288085 51.62038040161133 4.999999999999999
    vertex 39.988899230957024 34.63119888305663 4.999999999999999
    vertex 39.988899230957024 52.319499969482415 4.999999999999999
  endloop
endfacet
facet normal -2.2812880596002485e-32 4.13116622214141e-32 1.0
  outer loop
    vertex 39.988899230957024 52.319499969482415 4.999999999999999
    vertex 39.988899230957024 34.63119888305663 4.999999999999999
    vertex 40.75 34.07823944091796 4.999999999999999
  endloop
endfacet
facet normal -2.2812880596002485e-32 4.13116622214141e-32 1.0
  outer loop
    vertex 39.988899230957024 52.319499969482415 4.999999999999999
    vertex 40.75 34.07823944091796 4.999999999999999
    vertex 40.75 52.872459411621094 4.999999999999999
  endloop
endfacet
facet normal -2.2812880596002485e-32 4.13116622214141e-32 1.0
  outer loop
    vertex 40.75 52.872459411621094 4.999999999999999
    vertex 40.75 34.07823944091796 4.999999999999999
    vertex 41.60940170288086 33.695598602294915 4.999999999999999
  endloop
endfacet
facet normal -2.2812880596002485e-32 4.13116622214141e-32 1.0
  outer loop
    vertex 40.75 52.872459411621094 4.999999999999999
    vertex 41.60940170288086 33.695598602294915 4.999999999999999
    vertex 41.60940170288086 53.25510025024414 4.999999999999999
  endloop
endfacet
facet normal -2.2812880596002485e-32 4.13116622214141e-32 1.0
  outer loop
    vertex 41.60940170288086 53.25510025024414 4.999999999999999
    vertex 41.60940170288086 33.695598602294915 4.999999999999999
    vertex 42.529598236083984 33.49999999999999 4.999999999999999
  endloop
endfacet
facet normal -2.2812880596002485e-32 4.13116622214141e-32 1.0
  outer loop
    vertex 41.60940170288086 53.25510025024414 4.999999999999999
    vertex 42.529598236083984 33.49999999999999 4.999999999999999
    vertex 42.34999847412109 40.425350189208984 4.999999999999999
  endloop
endfacet
facet normal -2.2812880596002485e-32 4.13116622214141e-32 1.0
  outer loop
    vertex 42.34999847412109 40.425350189208984 4.999999999999999
    vertex 42.529598236083984 33.49999999999999 4.999999999999999
    vertex 42.41559982299804 39.80162048339844 4.999999999999999
  endloop
endfacet
facet normal -2.2812880596002485e-32 4.13116622214141e-32 1.0
  outer loop
    vertex 42.41559982299804 39.80162048339844 4.999999999999999
    vertex 42.529598236083984 33.49999999999999 4.999999999999999
    vertex 42.60940170288085 39.20513916015625 4.999999999999999
  endloop
endfacet
facet normal -2.2812880596002485e-32 4.13116622214141e-32 1.0
  outer loop
    vertex 42.60940170288085 39.20513916015625 4.999999999999999
    vertex 42.529598236083984 33.49999999999999 4.999999999999999
    vertex 42.92290115356445 38.66199111938476 4.999999999999999
  endloop
endfacet
facet normal -2.2812880596002485e-32 4.13116622214141e-32 1.0
  outer loop
    vertex 42.92290115356445 38.66199111938476 4.999999999999999
    vertex 42.529598236083984 33.49999999999999 4.999999999999999
    vertex 43.34260177612305 38.19591903686523 4.999999999999999
  endloop
endfacet
facet normal -2.2812880596002485e-32 4.13116622214141e-32 1.0
  outer loop
    vertex 43.34260177612305 38.19591903686523 4.999999999999999
    vertex 42.529598236083984 33.49999999999999 4.999999999999999
    vertex 43.849998474121094 37.8272705078125 4.999999999999999
  endloop
endfacet
facet normal -2.2812880596002485e-32 4.13116622214141e-32 1.0
  outer loop
    vertex 43.849998474121094 37.8272705078125 4.999999999999999
    vertex 42.529598236083984 33.49999999999999 4.999999999999999
    vertex 44.42290115356445 37.57218170166015 4.999999999999999
  endloop
endfacet
facet normal -2.2812880596002485e-32 4.13116622214141e-32 1.0
  outer loop
    vertex 44.42290115356445 37.57218170166015 4.999999999999999
    vertex 42.529598236083984 33.49999999999999 4.999999999999999
    vertex 45.036399841308594 37.441780090332024 4.999999999999999
  endloop
endfacet
facet normal -2.2812880596002485e-32 4.13116622214141e-32 1.0
  outer loop
    vertex 45.036399841308594 37.441780090332024 4.999999999999999
    vertex 42.529598236083984 33.49999999999999 4.999999999999999
    vertex 74.47039794921874 33.49999999999999 4.999999999999999
  endloop
endfacet
facet normal -2.2812880596002485e-32 4.13116622214141e-32 1.0
  outer loop
    vertex 45.036399841308594 37.441780090332024 4.999999999999999
    vertex 74.47039794921874 33.49999999999999 4.999999999999999
    vertex 71.9636001586914 37.441780090332024 4.999999999999999
  endloop
endfacet
facet normal -2.2812880596002485e-32 4.13116622214141e-32 1.0
  outer loop
    vertex 71.9636001586914 37.441780090332024 4.999999999999999
    vertex 74.47039794921874 33.49999999999999 4.999999999999999
    vertex 72.5771026611328 37.57218170166015 4.999999999999999
  endloop
endfacet
facet normal -2.2812880596002485e-32 4.13116622214141e-32 1.0
  outer loop
    vertex 72.5771026611328 37.57218170166015 4.999999999999999
    vertex 74.47039794921874 33.49999999999999 4.999999999999999
    vertex 73.1500015258789 37.8272705078125 4.999999999999999
  endloop
endfacet
facet normal -2.2812880596002485e-32 4.13116622214141e-32 1.0
  outer loop
    vertex 73.1500015258789 37.8272705078125 4.999999999999999
    vertex 74.47039794921874 33.49999999999999 4.999999999999999
    vertex 73.65740203857422 38.19591903686523 4.999999999999999
  endloop
endfacet
facet normal -2.2812880596002485e-32 4.13116622214141e-32 1.0
  outer loop
    vertex 73.65740203857422 38.19591903686523 4.999999999999999
    vertex 74.47039794921874 33.49999999999999 4.999999999999999
    vertex 74.0771026611328 38.66199111938476 4.999999999999999
  endloop
endfacet
facet normal -2.2812880596002485e-32 4.13116622214141e-32 1.0
  outer loop
    vertex 74.0771026611328 38.66199111938476 4.999999999999999
    vertex 74.47039794921874 33.49999999999999 4.999999999999999
    vertex 74.3906021118164 39.20513916015625 4.999999999999999
  endloop
endfacet
facet normal -2.2812880596002485e-32 4.13116622214141e-32 1.0
  outer loop
    vertex 74.3906021118164 39.20513916015625 4.999999999999999
    vertex 74.47039794921874 33.49999999999999 4.999999999999999
    vertex 74.58439636230467 39.80162048339844 4.999999999999999
  endloop
endfacet
facet normal -2.2812880596002485e-32 4.13116622214141e-32 1.0
  outer loop
    vertex 74.58439636230467 39.80162048339844 4.999999999999999
    vertex 74.47039794921874 33.49999999999999 4.999999999999999
    vertex 75.3906021118164 33.695598602294915 4.999999999999999
  endloop
endfacet
facet normal -2.2812880596002485e-32 4.13116622214141e-32 1.0
  outer loop
    vertex 74.58439636230467 39.80162048339844 4.999999999999999
    vertex 75.3906021118164 33.695598602294915 4.999999999999999
    vertex 74.65000152587889 40.425350189208984 4.999999999999999
  endloop
endfacet
facet normal -2.2812880596002485e-32 4.13116622214141e-32 1.0
  outer loop
    vertex 74.65000152587889 40.425350189208984 4.999999999999999
    vertex 75.3906021118164 33.695598602294915 4.999999999999999
    vertex 74.65000152587889 41.82535171508788 4.999999999999999
  endloop
endfacet
facet normal -2.2812880596002485e-32 4.13116622214141e-32 1.0
  outer loop
    vertex 74.65000152587889 41.82535171508788 4.999999999999999
    vertex 75.3906021118164 33.695598602294915 4.999999999999999
    vertex 74.65000152587889 45.12535095214844 4.999999999999999
  endloop
endfacet
facet normal -2.2812880596002485e-32 4.13116622214141e-32 1.0
  outer loop
    vertex 74.65000152587889 45.12535095214844 4.999999999999999
    vertex 75.3906021118164 33.695598602294915 4.999999999999999
    vertex 74.65000152587889 46.52534866333008 4.999999999999999
  endloop
endfacet
facet normal -2.2812880596002485e-32 4.13116622214141e-32 1.0
  outer loop
    vertex 41.60940170288086 53.25510025024414 4.999999999999999
    vertex 42.34999847412109 46.52534866333008 4.999999999999999
    vertex 42.529598236083984 53.450698852539055 4.999999999999999
  endloop
endfacet
facet normal -2.2812880596002485e-32 4.13116622214141e-32 1.0
  outer loop
    vertex 42.34999847412109 46.52534866333008 4.999999999999999
    vertex 41.60940170288086 53.25510025024414 4.999999999999999
    vertex 42.34999847412109 40.425350189208984 4.999999999999999
  endloop
endfacet
facet normal -2.2812880596002485e-32 4.13116622214141e-32 1.0
  outer loop
    vertex 42.529598236083984 53.450698852539055 4.999999999999999
    vertex 42.34999847412109 46.52534866333008 4.999999999999999
    vertex 42.41559982299804 47.149078369140625 4.999999999999999
  endloop
endfacet
facet normal -2.2812880596002485e-32 4.13116622214141e-32 1.0
  outer loop
    vertex 42.529598236083984 53.450698852539055 4.999999999999999
    vertex 42.41559982299804 47.149078369140625 4.999999999999999
    vertex 42.60940170288085 47.74555969238281 4.999999999999999
  endloop
endfacet
facet normal -2.2812880596002485e-32 4.13116622214141e-32 1.0
  outer loop
    vertex 42.529598236083984 53.450698852539055 4.999999999999999
    vertex 42.60940170288085 47.74555969238281 4.999999999999999
    vertex 42.92290115356445 48.28871154785156 4.999999999999999
  endloop
endfacet
facet normal -2.2812880596002485e-32 4.13116622214141e-32 1.0
  outer loop
    vertex 42.529598236083984 53.450698852539055 4.999999999999999
    vertex 42.92290115356445 48.28871154785156 4.999999999999999
    vertex 43.34260177612305 48.75477981567382 4.999999999999999
  endloop
endfacet
facet normal -2.2812880596002485e-32 4.13116622214141e-32 1.0
  outer loop
    vertex 42.529598236083984 53.450698852539055 4.999999999999999
    vertex 43.34260177612305 48.75477981567382 4.999999999999999
    vertex 43.849998474121094 49.123428344726555 4.999999999999999
  endloop
endfacet
facet normal -2.2812880596002485e-32 4.13116622214141e-32 1.0
  outer loop
    vertex 42.529598236083984 53.450698852539055 4.999999999999999
    vertex 43.849998474121094 49.123428344726555 4.999999999999999
    vertex 44.42290115356445 49.378520965576165 4.999999999999999
  endloop
endfacet
facet normal -2.2812880596002485e-32 4.13116622214141e-32 1.0
  outer loop
    vertex 42.529598236083984 53.450698852539055 4.999999999999999
    vertex 44.42290115356445 49.378520965576165 4.999999999999999
    vertex 45.036399841308594 49.508918762207024 4.999999999999999
  endloop
endfacet
facet normal -2.2812880596002485e-32 4.13116622214141e-32 1.0
  outer loop
    vertex 42.529598236083984 53.450698852539055 4.999999999999999
    vertex 45.036399841308594 49.508918762207024 4.999999999999999
    vertex 74.47039794921874 53.450698852539055 4.999999999999999
  endloop
endfacet
facet normal -2.2812880596002485e-32 4.13116622214141e-32 1.0
  outer loop
    vertex 74.47039794921874 53.450698852539055 4.999999999999999
    vertex 45.036399841308594 49.508918762207024 4.999999999999999
    vertex 47.54999923706054 49.508918762207024 4.999999999999999
  endloop
endfacet
facet normal -2.2812880596002485e-32 4.13116622214141e-32 1.0
  outer loop
    vertex 74.47039794921874 53.450698852539055 4.999999999999999
    vertex 47.54999923706054 49.508918762207024 4.999999999999999
    vertex 51.849998474121094 49.508918762207024 4.999999999999999
  endloop
endfacet
facet normal -2.2812880596002485e-32 4.13116622214141e-32 1.0
  outer loop
    vertex 51.849998474121094 49.508918762207024 4.999999999999999
    vertex 47.54999923706054 49.508918762207024 4.999999999999999
    vertex 51.849998474121094 45.12535095214844 4.999999999999999
  endloop
endfacet
facet normal -2.2812880596002485e-32 4.13116622214141e-32 1.0
  outer loop
    vertex 74.47039794921874 53.450698852539055 4.999999999999999
    vertex 51.849998474121094 49.508918762207024 4.999999999999999
    vertex 71.9636001586914 49.508918762207024 4.999999999999999
  endloop
endfacet
facet normal -2.2812880596002485e-32 4.13116622214141e-32 1.0
  outer loop
    vertex 74.47039794921874 53.450698852539055 4.999999999999999
    vertex 71.9636001586914 49.508918762207024 4.999999999999999
    vertex 72.5771026611328 49.378520965576165 4.999999999999999
  endloop
endfacet
facet normal -2.2812880596002485e-32 4.13116622214141e-32 1.0
  outer loop
    vertex 74.47039794921874 53.450698852539055 4.999999999999999
    vertex 72.5771026611328 49.378520965576165 4.999999999999999
    vertex 73.1500015258789 49.123428344726555 4.999999999999999
  endloop
endfacet
facet normal -2.2812880596002485e-32 4.13116622214141e-32 1.0
  outer loop
    vertex 74.47039794921874 53.450698852539055 4.999999999999999
    vertex 73.1500015258789 49.123428344726555 4.999999999999999
    vertex 73.65740203857422 48.75477981567382 4.999999999999999
  endloop
endfacet
facet normal -2.2812880596002485e-32 4.13116622214141e-32 1.0
  outer loop
    vertex 74.47039794921874 53.450698852539055 4.999999999999999
    vertex 73.65740203857422 48.75477981567382 4.999999999999999
    vertex 74.0771026611328 48.28871154785156 4.999999999999999
  endloop
endfacet
facet normal -2.2812880596002485e-32 4.13116622214141e-32 1.0
  outer loop
    vertex 74.47039794921874 53.450698852539055 4.999999999999999
    vertex 74.0771026611328 48.28871154785156 4.999999999999999
    vertex 74.3906021118164 47.74555969238281 4.999999999999999
  endloop
endfacet
facet normal -2.2812880596002485e-32 4.13116622214141e-32 1.0
  outer loop
    vertex 74.47039794921874 53.450698852539055 4.999999999999999
    vertex 74.3906021118164 47.74555969238281 4.999999999999999
    vertex 74.58439636230467 47.149078369140625 4.999999999999999
  endloop
endfacet
facet normal -2.2812880596002485e-32 4.13116622214141e-32 1.0
  outer loop
    vertex 74.47039794921874 53.450698852539055 4.999999999999999
    vertex 74.58439636230467 47.149078369140625 4.999999999999999
    vertex 75.3906021118164 53.25510025024414 4.999999999999999
  endloop
endfacet
facet normal -2.2812880596002485e-32 4.13116622214141e-32 1.0
  outer loop
    vertex 75.3906021118164 53.25510025024414 4.999999999999999
    vertex 74.58439636230467 47.149078369140625 4.999999999999999
    vertex 74.65000152587889 46.52534866333008 4.999999999999999
  endloop
endfacet
facet normal -2.2812880596002485e-32 4.13116622214141e-32 1.0
  outer loop
    vertex 75.3906021118164 53.25510025024414 4.999999999999999
    vertex 74.65000152587889 46.52534866333008 4.999999999999999
    vertex 75.3906021118164 33.695598602294915 4.999999999999999
  endloop
endfacet
facet normal -2.2812880596002485e-32 4.13116622214141e-32 1.0
  outer loop
    vertex 75.3906021118164 53.25510025024414 4.999999999999999
    vertex 75.3906021118164 33.695598602294915 4.999999999999999
    vertex 76.25 34.07823944091796 4.999999999999999
  endloop
endfacet
facet normal -2.2812880596002485e-32 4.13116622214141e-32 1.0
  outer loop
    vertex 75.3906021118164 53.25510025024414 4.999999999999999
    vertex 76.25 34.07823944091796 4.999999999999999
    vertex 76.25 52.872459411621094 4.999999999999999
  endloop
endfacet
facet normal -2.2812880596002485e-32 4.13116622214141e-32 1.0
  outer loop
    vertex 76.25 52.872459411621094 4.999999999999999
    vertex 76.25 34.07823944091796 4.999999999999999
    vertex 77.01110076904295 34.63119888305663 4.999999999999999
  endloop
endfacet
facet normal -2.2812880596002485e-32 4.13116622214141e-32 1.0
  outer loop
    vertex 76.25 52.872459411621094 4.999999999999999
    vertex 77.01110076904295 34.63119888305663 4.999999999999999
    vertex 77.01110076904295 52.319499969482415 4.999999999999999
  endloop
endfacet
facet normal -2.2812880596002485e-32 4.13116622214141e-32 1.0
  outer loop
    vertex 77.01110076904295 52.319499969482415 4.999999999999999
    vertex 77.01110076904295 34.63119888305663 4.999999999999999
    vertex 77.64060211181639 35.330318450927734 4.999999999999999
  endloop
endfacet
facet normal -2.2812880596002485e-32 4.13116622214141e-32 1.0
  outer loop
    vertex 77.01110076904295 52.319499969482415 4.999999999999999
    vertex 77.64060211181639 35.330318450927734 4.999999999999999
    vertex 77.64060211181639 51.62038040161133 4.999999999999999
  endloop
endfacet
facet normal -2.2812880596002485e-32 4.13116622214141e-32 1.0
  outer loop
    vertex 77.64060211181639 51.62038040161133 4.999999999999999
    vertex 77.64060211181639 35.330318450927734 4.999999999999999
    vertex 78.11100006103516 36.14503860473632 4.999999999999999
  endloop
endfacet
facet normal -2.2812880596002485e-32 4.13116622214141e-32 1.0
  outer loop
    vertex 77.64060211181639 51.62038040161133 4.999999999999999
    vertex 78.11100006103516 36.14503860473632 4.999999999999999
    vertex 78.11100006103516 50.80566024780273 4.999999999999999
  endloop
endfacet
facet normal -2.2812880596002485e-32 4.13116622214141e-32 1.0
  outer loop
    vertex 78.11100006103516 50.80566024780273 4.999999999999999
    vertex 78.11100006103516 36.14503860473632 4.999999999999999
    vertex 78.40170288085938 37.03974914550781 4.999999999999999
  endloop
endfacet
facet normal -2.2812880596002485e-32 4.13116622214141e-32 1.0
  outer loop
    vertex 78.11100006103516 50.80566024780273 4.999999999999999
    vertex 78.40170288085938 37.03974914550781 4.999999999999999
    vertex 78.40170288085938 49.91094970703124 4.999999999999999
  endloop
endfacet
facet normal -2.2812880596002485e-32 4.13116622214141e-32 1.0
  outer loop
    vertex 78.40170288085938 49.91094970703124 4.999999999999999
    vertex 78.40170288085938 37.03974914550781 4.999999999999999
    vertex 78.49999999999999 37.97534942626953 4.999999999999999
  endloop
endfacet
facet normal -2.2812880596002485e-32 4.13116622214141e-32 1.0
  outer loop
    vertex 78.40170288085938 49.91094970703124 4.999999999999999
    vertex 78.49999999999999 37.97534942626953 4.999999999999999
    vertex 78.49999999999999 48.975349426269524 4.999999999999999
  endloop
endfacet
facet normal -2.2812880596002485e-32 4.13116622214141e-32 1.0
  outer loop
    vertex 74.65000152587889 41.82535171508788 4.999999999999999
    vertex 44.599998474121094 45.12535095214844 4.999999999999999
    vertex 44.599998474121094 41.82535171508788 4.999999999999999
  endloop
endfacet
facet normal -2.2812880596002485e-32 4.13116622214141e-32 1.0
  outer loop
    vertex 44.599998474121094 45.12535095214844 4.999999999999999
    vertex 74.65000152587889 41.82535171508788 4.999999999999999
    vertex 47.54999923706054 45.12535095214844 4.999999999999999
  endloop
endfacet
facet normal -2.2812880596002485e-32 4.13116622214141e-32 1.0
  outer loop
    vertex 47.54999923706054 45.12535095214844 4.999999999999999
    vertex 74.65000152587889 41.82535171508788 4.999999999999999
    vertex 51.849998474121094 45.12535095214844 4.999999999999999
  endloop
endfacet
facet normal -2.2812880596002485e-32 4.13116622214141e-32 1.0
  outer loop
    vertex 47.54999923706054 45.12535095214844 4.999999999999999
    vertex 51.849998474121094 45.12535095214844 4.999999999999999
    vertex 47.54999923706054 49.508918762207024 4.999999999999999
  endloop
endfacet
facet normal -2.2812880596002485e-32 4.13116622214141e-32 1.0
  outer loop
    vertex 51.849998474121094 45.12535095214844 4.999999999999999
    vertex 74.65000152587889 41.82535171508788 4.999999999999999
    vertex 74.65000152587889 45.12535095214844 4.999999999999999
  endloop
endfacet
facet normal -1.0 0.0 0.0
  outer loop
    vertex 42.34999847412109 46.52534866333008 11.0
    vertex 42.34999847412109 40.425350189208984 4.999999999999999
    vertex 42.34999847412109 40.425350189208984 11.0
  endloop
endfacet
facet normal -1.0 0.0 0.0
  outer loop
    vertex 42.34999847412109 40.425350189208984 4.999999999999999
    vertex 42.34999847412109 46.52534866333008 11.0
    vertex 42.34999847412109 46.52534866333008 4.999999999999999
  endloop
endfacet
facet normal -0.9945144811628477 -0.1045989806709039 0.0
  outer loop
    vertex 42.34999847412109 40.425350189208984 4.999999999999999
    vertex 42.41559982299804 39.80162048339844 4.999999999999999
    vertex 42.34999847412109 40.425350189208984 11.0
  endloop
endfacet
facet normal -0.9945144811628477 -0.1045989806709039 1.173524618216251e-18
  outer loop
    vertex 42.34999847412109 40.425350189208984 11.0
    vertex 42.41559982299804 39.80162048339844 4.999999999999999
    vertex 42.41559982299804 39.80162048339844 11.0
  endloop
endfacet
facet normal -0.9510596326393941 -0.309007403089021 -2.4542454508696667e-18
  outer loop
    vertex 42.41559982299804 39.80162048339844 4.999999999999999
    vertex 42.60940170288085 39.20513916015625 4.999999999999999
    vertex 42.41559982299804 39.80162048339844 11.0
  endloop
endfacet
facet normal -0.9510596326393941 -0.30900740308902097 4.908490901739334e-18
  outer loop
    vertex 42.41559982299804 39.80162048339844 11.0
    vertex 42.60940170288085 39.20513916015625 4.999999999999999
    vertex 42.60940170288085 39.20513916015625 11.0
  endloop
endfacet
facet normal -0.8660856179149221 -0.4998956915606774 -5.390863477238065e-18
  outer loop
    vertex 42.60940170288085 39.20513916015625 4.999999999999999
    vertex 42.92290115356445 38.66199111938476 4.999999999999999
    vertex 42.60940170288085 39.20513916015625 11.0
  endloop
endfacet
facet normal -0.8660856179149219 -0.4998956915606774 0.0
  outer loop
    vertex 42.60940170288085 39.20513916015625 11.0
    vertex 42.92290115356445 38.66199111938476 4.999999999999999
    vertex 42.92290115356445 38.66199111938476 11.0
  endloop
endfacet
facet normal -0.7431072165592392 -0.6691723729335963 0.0
  outer loop
    vertex 42.92290115356445 38.66199111938476 4.999999999999999
    vertex 43.34260177612305 38.19591903686523 4.999999999999999
    vertex 42.92290115356445 38.66199111938476 11.0
  endloop
endfacet
facet normal -0.7431072165592392 -0.6691723729335963 0.0
  outer loop
    vertex 42.92290115356445 38.66199111938476 11.0
    vertex 43.34260177612305 38.19591903686523 4.999999999999999
    vertex 43.34260177612305 38.19591903686523 11.0
  endloop
endfacet
facet normal -0.5877886432694376 -0.8090145306751134 -5.7702547886176535e-18
  outer loop
    vertex 43.34260177612305 38.19591903686523 11.0
    vertex 43.34260177612305 38.19591903686523 4.999999999999999
    vertex 43.849998474121094 37.8272705078125 4.999999999999999
  endloop
endfacet
facet normal -0.5877886432694375 -0.8090145306751134 0.0
  outer loop
    vertex 43.34260177612305 38.19591903686523 11.0
    vertex 43.849998474121094 37.8272705078125 4.999999999999999
    vertex 43.849998474121094 37.8272705078125 11.0
  endloop
endfacet
facet normal -0.40675806763141237 -0.9135359185148438 0.0
  outer loop
    vertex 43.849998474121094 37.8272705078125 11.0
    vertex 43.849998474121094 37.8272705078125 4.999999999999999
    vertex 44.42290115356445 37.57218170166015 4.999999999999999
  endloop
endfacet
facet normal -0.4067580676314125 -0.9135359185148438 -5.110905630863016e-18
  outer loop
    vertex 43.849998474121094 37.8272705078125 11.0
    vertex 44.42290115356445 37.57218170166015 4.999999999999999
    vertex 44.42290115356445 37.57218170166015 11.0
  endloop
endfacet
facet normal -0.20790931060522436 -0.9781481066605714 -2.3860596030747816e-18
  outer loop
    vertex 44.42290115356445 37.57218170166015 11.0
    vertex 44.42290115356445 37.57218170166015 4.999999999999999
    vertex 45.036399841308594 37.441780090332024 4.999999999999999
  endloop
endfacet
facet normal -0.20790931060522438 -0.9781481066605714 -4.772119206149563e-18
  outer loop
    vertex 44.42290115356445 37.57218170166015 11.0
    vertex 45.036399841308594 37.441780090332024 4.999999999999999
    vertex 45.036399841308594 37.441780090332024 11.0
  endloop
endfacet
facet normal 0.0 -1.0 0.0
  outer loop
    vertex 71.9636001586914 37.441780090332024 11.0
    vertex 45.036399841308594 37.441780090332024 4.999999999999999
    vertex 71.9636001586914 37.441780090332024 4.999999999999999
  endloop
endfacet
facet normal 0.0 -1.0 0.0
  outer loop
    vertex 45.036399841308594 37.441780090332024 4.999999999999999
    vertex 71.9636001586914 37.441780090332024 11.0
    vertex 45.036399841308594 37.441780090332024 11.0
  endloop
endfacet
facet normal 0.20790807372658365 -0.9781483695632794 4.7720611438282464e-18
  outer loop
    vertex 71.9636001586914 37.441780090332024 11.0
    vertex 71.9636001586914 37.441780090332024 4.999999999999999
    vertex 72.5771026611328 37.57218170166015 4.999999999999999
  endloop
endfacet
facet normal 0.20790807372658357 -0.9781483695632794 2.3860305719141232e-18
  outer loop
    vertex 71.9636001586914 37.441780090332024 11.0
    vertex 72.5771026611328 37.57218170166015 4.999999999999999
    vertex 72.5771026611328 37.57218170166015 11.0
  endloop
endfacet
facet normal 0.40676032794569456 -0.9135349120912191 0.0
  outer loop
    vertex 72.5771026611328 37.57218170166015 11.0
    vertex 72.5771026611328 37.57218170166015 4.999999999999999
    vertex 73.1500015258789 37.8272705078125 4.999999999999999
  endloop
endfacet
facet normal 0.4067603279456945 -0.9135349120912191 -5.110968063261084e-18
  outer loop
    vertex 72.5771026611328 37.57218170166015 11.0
    vertex 73.1500015258789 37.8272705078125 4.999999999999999
    vertex 73.1500015258789 37.8272705078125 11.0
  endloop
endfacet
facet normal 0.5877857509603447 -0.8090166320712968 5.770183013898905e-18
  outer loop
    vertex 73.1500015258789 37.8272705078125 11.0
    vertex 73.1500015258789 37.8272705078125 4.999999999999999
    vertex 73.65740203857422 38.19591903686523 4.999999999999999
  endloop
endfacet
facet normal 0.5877857509603446 -0.8090166320712967 1.1540366027797812e-17
  outer loop
    vertex 73.1500015258789 37.8272705078125 11.0
    vertex 73.65740203857422 38.19591903686523 4.999999999999999
    vertex 73.65740203857422 38.19591903686523 11.0
  endloop
endfacet
facet normal 0.7431072165592438 -0.6691723729335912 1.2563459279810388e-17
  outer loop
    vertex 74.0771026611328 38.66199111938476 4.999999999999999
    vertex 73.65740203857422 38.19591903686523 11.0
    vertex 73.65740203857422 38.19591903686523 4.999999999999999
  endloop
endfacet
facet normal 0.7431072165592437 -0.6691723729335913 -6.281729639905193e-18
  outer loop
    vertex 74.0771026611328 38.66199111938476 11.0
    vertex 73.65740203857422 38.19591903686523 11.0
    vertex 74.0771026611328 38.66199111938476 4.999999999999999
  endloop
endfacet
facet normal 0.8660856179149181 -0.49989569156068414 -0.0
  outer loop
    vertex 74.3906021118164 39.20513916015625 4.999999999999999
    vertex 74.0771026611328 38.66199111938476 11.0
    vertex 74.0771026611328 38.66199111938476 4.999999999999999
  endloop
endfacet
facet normal 0.8660856179149181 -0.49989569156068414 -0.0
  outer loop
    vertex 74.3906021118164 39.20513916015625 11.0
    vertex 74.0771026611328 38.66199111938476 11.0
    vertex 74.3906021118164 39.20513916015625 4.999999999999999
  endloop
endfacet
facet normal 0.95106320760202 -0.30899639989125616 -0.0
  outer loop
    vertex 74.58439636230467 39.80162048339844 4.999999999999999
    vertex 74.3906021118164 39.20513916015625 11.0
    vertex 74.3906021118164 39.20513916015625 4.999999999999999
  endloop
endfacet
facet normal 0.95106320760202 -0.3089963998912561 2.454254676196303e-18
  outer loop
    vertex 74.58439636230467 39.80162048339844 11.0
    vertex 74.3906021118164 39.20513916015625 11.0
    vertex 74.58439636230467 39.80162048339844 4.999999999999999
  endloop
endfacet
facet normal 0.9945138484224876 -0.1046049965149543 1.1735238715841969e-18
  outer loop
    vertex 74.65000152587889 40.425350189208984 4.999999999999999
    vertex 74.58439636230467 39.80162048339844 11.0
    vertex 74.58439636230467 39.80162048339844 4.999999999999999
  endloop
endfacet
facet normal 0.9945138484224876 -0.10460499651495435 -1.1735238715841975e-18
  outer loop
    vertex 74.65000152587889 40.425350189208984 11.0
    vertex 74.58439636230467 39.80162048339844 11.0
    vertex 74.65000152587889 40.425350189208984 4.999999999999999
  endloop
endfacet
facet normal 1.0 -0.0 -0.0
  outer loop
    vertex 74.65000152587889 41.82535171508788 4.999999999999999
    vertex 74.65000152587889 40.425350189208984 11.0
    vertex 74.65000152587889 40.425350189208984 4.999999999999999
  endloop
endfacet
facet normal 1.0 -0.0 -0.0
  outer loop
    vertex 74.65000152587889 40.425350189208984 11.0
    vertex 74.65000152587889 41.82535171508788 4.999999999999999
    vertex 74.65000152587889 41.82535171508788 11.0
  endloop
endfacet
facet normal -0.0 1.0 -0.0
  outer loop
    vertex 44.599998474121094 41.82535171508788 11.0
    vertex 74.65000152587889 41.82535171508788 4.999999999999999
    vertex 44.599998474121094 41.82535171508788 4.999999999999999
  endloop
endfacet
facet normal -0.0 1.0 -0.0
  outer loop
    vertex 74.65000152587889 41.82535171508788 4.999999999999999
    vertex 44.599998474121094 41.82535171508788 11.0
    vertex 74.65000152587889 41.82535171508788 11.0
  endloop
endfacet
facet normal 1.0 -0.0 -0.0
  outer loop
    vertex 44.599998474121094 45.12535095214844 4.999999999999999
    vertex 44.599998474121094 41.82535171508788 11.0
    vertex 44.599998474121094 41.82535171508788 4.999999999999999
  endloop
endfacet
facet normal 1.0 -0.0 -0.0
  outer loop
    vertex 44.599998474121094 41.82535171508788 11.0
    vertex 44.599998474121094 45.12535095214844 4.999999999999999
    vertex 44.599998474121094 45.12535095214844 11.0
  endloop
endfacet
facet normal 0.0 -1.0 0.0
  outer loop
    vertex 47.54999923706054 45.12535095214844 11.0
    vertex 44.599998474121094 45.12535095214844 4.999999999999999
    vertex 47.54999923706054 45.12535095214844 4.999999999999999
  endloop
endfacet
facet normal 0.0 -1.0 0.0
  outer loop
    vertex 44.599998474121094 45.12535095214844 4.999999999999999
    vertex 47.54999923706054 45.12535095214844 11.0
    vertex 44.599998474121094 45.12535095214844 11.0
  endloop
endfacet
facet normal 1.0 -0.0 -0.0
  outer loop
    vertex 47.54999923706054 49.508918762207024 4.999999999999999
    vertex 47.54999923706054 45.12535095214844 11.0
    vertex 47.54999923706054 45.12535095214844 4.999999999999999
  endloop
endfacet
facet normal 1.0 -0.0 -0.0
  outer loop
    vertex 47.54999923706054 45.12535095214844 11.0
    vertex 47.54999923706054 49.508918762207024 4.999999999999999
    vertex 47.54999923706054 49.508918762207024 11.0
  endloop
endfacet
facet normal -0.0 1.0 -0.0
  outer loop
    vertex 45.036399841308594 49.508918762207024 11.0
    vertex 47.54999923706054 49.508918762207024 4.999999999999999
    vertex 45.036399841308594 49.508918762207024 4.999999999999999
  endloop
endfacet
facet normal -0.0 1.0 -0.0
  outer loop
    vertex 47.54999923706054 49.508918762207024 4.999999999999999
    vertex 45.036399841308594 49.508918762207024 11.0
    vertex 47.54999923706054 49.508918762207024 11.0
  endloop
endfacet
facet normal -0.207903491434218 0.9781493435306606 -2.3860626202515607e-18
  outer loop
    vertex 44.42290115356445 49.378520965576165 11.0
    vertex 45.036399841308594 49.508918762207024 4.999999999999999
    vertex 44.42290115356445 49.378520965576165 4.999999999999999
  endloop
endfacet
facet normal -0.207903491434218 0.9781493435306606 -0.0
  outer loop
    vertex 45.036399841308594 49.508918762207024 11.0
    vertex 45.036399841308594 49.508918762207024 4.999999999999999
    vertex 44.42290115356445 49.378520965576165 11.0
  endloop
endfacet
facet normal -0.40676314401574964 0.913533658203365 -0.0
  outer loop
    vertex 43.849998474121094 49.123428344726555 11.0
    vertex 44.42290115356445 49.378520965576165 4.999999999999999
    vertex 43.849998474121094 49.123428344726555 4.999999999999999
  endloop
endfacet
facet normal -0.4067631440157496 0.9135336582033652 5.110892985231432e-18
  outer loop
    vertex 44.42290115356445 49.378520965576165 11.0
    vertex 44.42290115356445 49.378520965576165 4.999999999999999
    vertex 43.849998474121094 49.123428344726555 11.0
  endloop
endfacet
facet normal -0.5877886432694432 0.8090145306751092 -0.0
  outer loop
    vertex 43.34260177612305 48.75477981567382 11.0
    vertex 43.849998474121094 49.123428344726555 4.999999999999999
    vertex 43.34260177612305 48.75477981567382 4.999999999999999
  endloop
endfacet
facet normal -0.5877886432694434 0.8090145306751092 -5.770254788617625e-18
  outer loop
    vertex 43.849998474121094 49.123428344726555 11.0
    vertex 43.849998474121094 49.123428344726555 4.999999999999999
    vertex 43.34260177612305 48.75477981567382 11.0
  endloop
endfacet
facet normal -0.7431044929962921 0.6691753974024476 0.0
  outer loop
    vertex 43.34260177612305 48.75477981567382 4.999999999999999
    vertex 42.92290115356445 48.28871154785156 4.999999999999999
    vertex 42.92290115356445 48.28871154785156 11.0
  endloop
endfacet
facet normal -0.7431044929962921 0.6691753974024477 6.281809446762712e-18
  outer loop
    vertex 43.34260177612305 48.75477981567382 4.999999999999999
    vertex 42.92290115356445 48.28871154785156 11.0
    vertex 43.34260177612305 48.75477981567382 11.0
  endloop
endfacet
facet normal -0.8660871379655137 0.49989305801411704 0.0
  outer loop
    vertex 42.92290115356445 48.28871154785156 4.999999999999999
    vertex 42.60940170288085 47.74555969238281 4.999999999999999
    vertex 42.60940170288085 47.74555969238281 11.0
  endloop
endfacet
facet normal -0.8660871379655137 0.49989305801411715 0.0
  outer loop
    vertex 42.92290115356445 48.28871154785156 4.999999999999999
    vertex 42.60940170288085 47.74555969238281 11.0
    vertex 42.92290115356445 48.28871154785156 11.0
  endloop
endfacet
facet normal -0.9510596326393943 0.30900740308902097 -4.908490901739334e-18
  outer loop
    vertex 42.60940170288085 47.74555969238281 4.999999999999999
    vertex 42.41559982299804 47.149078369140625 4.999999999999999
    vertex 42.41559982299804 47.149078369140625 11.0
  endloop
endfacet
facet normal -0.9510596326393941 0.30900740308902097 2.454245450869667e-18
  outer loop
    vertex 42.60940170288085 47.74555969238281 4.999999999999999
    vertex 42.41559982299804 47.149078369140625 11.0
    vertex 42.60940170288085 47.74555969238281 11.0
  endloop
endfacet
facet normal -0.9945144811628477 0.10459898067090387 -1.1735246182162506e-18
  outer loop
    vertex 42.41559982299804 47.149078369140625 4.999999999999999
    vertex 42.34999847412109 46.52534866333008 4.999999999999999
    vertex 42.34999847412109 46.52534866333008 11.0
  endloop
endfacet
facet normal -0.9945144811628477 0.10459898067090388 -1.1735246182162508e-18
  outer loop
    vertex 42.41559982299804 47.149078369140625 4.999999999999999
    vertex 42.34999847412109 46.52534866333008 11.0
    vertex 42.41559982299804 47.149078369140625 11.0
  endloop
endfacet
facet normal -1.0 0.0 0.0
  outer loop
    vertex 51.849998474121094 49.508918762207024 11.0
    vertex 51.849998474121094 45.12535095214844 4.999999999999999
    vertex 51.849998474121094 45.12535095214844 11.0
  endloop
endfacet
facet normal -1.0 0.0 0.0
  outer loop
    vertex 51.849998474121094 45.12535095214844 4.999999999999999
    vertex 51.849998474121094 49.508918762207024 11.0
    vertex 51.849998474121094 49.508918762207024 4.999999999999999
  endloop
endfacet
facet normal 0.0 -1.0 0.0
  outer loop
    vertex 74.65000152587889 45.12535095214844 11.0
    vertex 51.849998474121094 45.12535095214844 4.999999999999999
    vertex 74.65000152587889 45.12535095214844 4.999999999999999
  endloop
endfacet
facet normal 0.0 -1.0 0.0
  outer loop
    vertex 51.849998474121094 45.12535095214844 4.999999999999999
    vertex 74.65000152587889 45.12535095214844 11.0
    vertex 51.849998474121094 45.12535095214844 11.0
  endloop
endfacet
facet normal 1.0 -0.0 -0.0
  outer loop
    vertex 74.65000152587889 46.52534866333008 4.999999999999999
    vertex 74.65000152587889 45.12535095214844 11.0
    vertex 74.65000152587889 45.12535095214844 4.999999999999999
  endloop
endfacet
facet normal 1.0 -0.0 -0.0
  outer loop
    vertex 74.65000152587889 45.12535095214844 11.0
    vertex 74.65000152587889 46.52534866333008 4.999999999999999
    vertex 74.65000152587889 46.52534866333008 11.0
  endloop
endfacet
facet normal 0.9945138484224876 0.10460499651495435 -0.0
  outer loop
    vertex 74.58439636230467 47.149078369140625 11.0
    vertex 74.65000152587889 46.52534866333008 4.999999999999999
    vertex 74.58439636230467 47.149078369140625 4.999999999999999
  endloop
endfacet
facet normal 0.9945138484224876 0.10460499651495431 -0.0
  outer loop
    vertex 74.58439636230467 47.149078369140625 11.0
    vertex 74.65000152587889 46.52534866333008 11.0
    vertex 74.65000152587889 46.52534866333008 4.999999999999999
  endloop
endfacet
facet normal 0.95106320760202 0.3089963998912561 2.454254676196303e-18
  outer loop
    vertex 74.3906021118164 47.74555969238281 11.0
    vertex 74.58439636230467 47.149078369140625 4.999999999999999
    vertex 74.3906021118164 47.74555969238281 4.999999999999999
  endloop
endfacet
facet normal 0.95106320760202 0.30899639989125616 -0.0
  outer loop
    vertex 74.3906021118164 47.74555969238281 11.0
    vertex 74.58439636230467 47.149078369140625 11.0
    vertex 74.58439636230467 47.149078369140625 4.999999999999999
  endloop
endfacet
facet normal 0.8660871379655098 0.499893058014124 -0.0
  outer loop
    vertex 74.0771026611328 48.28871154785156 11.0
    vertex 74.3906021118164 47.74555969238281 4.999999999999999
    vertex 74.0771026611328 48.28871154785156 4.999999999999999
  endloop
endfacet
facet normal 0.8660871379655098 0.49989305801412376 -0.0
  outer loop
    vertex 74.0771026611328 48.28871154785156 11.0
    vertex 74.3906021118164 47.74555969238281 11.0
    vertex 74.3906021118164 47.74555969238281 4.999999999999999
  endloop
endfacet
facet normal 0.7431044929962967 0.6691753974024426 6.281809446762749e-18
  outer loop
    vertex 73.65740203857422 48.75477981567382 11.0
    vertex 74.0771026611328 48.28871154785156 4.999999999999999
    vertex 73.65740203857422 48.75477981567382 4.999999999999999
  endloop
endfacet
facet normal 0.7431044929962967 0.6691753974024427 -0.0
  outer loop
    vertex 73.65740203857422 48.75477981567382 11.0
    vertex 74.0771026611328 48.28871154785156 11.0
    vertex 74.0771026611328 48.28871154785156 4.999999999999999
  endloop
endfacet
facet normal 0.5877857509603505 0.8090166320712924 -0.0
  outer loop
    vertex 73.1500015258789 49.123428344726555 11.0
    vertex 73.65740203857422 48.75477981567382 4.999999999999999
    vertex 73.1500015258789 49.123428344726555 4.999999999999999
  endloop
endfacet
facet normal 0.5877857509603505 0.8090166320712924 -0.0
  outer loop
    vertex 73.65740203857422 48.75477981567382 11.0
    vertex 73.65740203857422 48.75477981567382 4.999999999999999
    vertex 73.1500015258789 49.123428344726555 11.0
  endloop
endfacet
facet normal 0.4067654043470554 0.9135326517571096 5.110955417334484e-18
  outer loop
    vertex 72.5771026611328 49.378520965576165 11.0
    vertex 73.1500015258789 49.123428344726555 4.999999999999999
    vertex 72.5771026611328 49.378520965576165 4.999999999999999
  endloop
endfacet
facet normal 0.4067654043470553 0.9135326517571096 -0.0
  outer loop
    vertex 73.1500015258789 49.123428344726555 11.0
    vertex 73.1500015258789 49.123428344726555 4.999999999999999
    vertex 72.5771026611328 49.378520965576165 11.0
  endloop
endfacet
facet normal 0.2079022545870682 0.9781496064189843 -0.0
  outer loop
    vertex 71.9636001586914 49.508918762207024 11.0
    vertex 72.5771026611328 49.378520965576165 4.999999999999999
    vertex 71.9636001586914 49.508918762207024 4.999999999999999
  endloop
endfacet
facet normal 0.2079022545870683 0.9781496064189843 -0.0
  outer loop
    vertex 72.5771026611328 49.378520965576165 11.0
    vertex 72.5771026611328 49.378520965576165 4.999999999999999
    vertex 71.9636001586914 49.508918762207024 11.0
  endloop
endfacet
facet normal -0.0 1.0 -0.0
  outer loop
    vertex 51.849998474121094 49.508918762207024 11.0
    vertex 71.9636001586914 49.508918762207024 4.999999999999999
    vertex 51.849998474121094 49.508918762207024 4.999999999999999
  endloop
endfacet
facet normal -0.0 1.0 -0.0
  outer loop
    vertex 71.9636001586914 49.508918762207024 4.999999999999999
    vertex 51.849998474121094 49.508918762207024 11.0
    vertex 71.9636001586914 49.508918762207024 11.0
  endloop
endfacet
facet normal -0.0 -0.0 1.0
  outer loop
    vertex 42.41559982299804 39.80162048339844 11.0
    vertex 42.34999847412109 46.52534866333008 11.0
    vertex 42.34999847412109 40.425350189208984 11.0
  endloop
endfacet
facet normal -0.0 -0.0 1.0
  outer loop
    vertex 42.34999847412109 46.52534866333008 11.0
    vertex 42.41559982299804 39.80162048339844 11.0
    vertex 42.41559982299804 47.149078369140625 11.0
  endloop
endfacet
facet normal -0.0 -0.0 1.0
  outer loop
    vertex 42.41559982299804 47.149078369140625 11.0
    vertex 42.41559982299804 39.80162048339844 11.0
    vertex 42.60940170288085 39.20513916015625 11.0
  endloop
endfacet
facet normal -0.0 -0.0 1.0
  outer loop
    vertex 42.41559982299804 47.149078369140625 11.0
    vertex 42.60940170288085 39.20513916015625 11.0
    vertex 42.60940170288085 47.74555969238281 11.0
  endloop
endfacet
facet normal -0.0 -0.0 1.0
  outer loop
    vertex 42.60940170288085 47.74555969238281 11.0
    vertex 42.60940170288085 39.20513916015625 11.0
    vertex 42.92290115356445 38.66199111938476 11.0
  endloop
endfacet
facet normal -0.0 -0.0 1.0
  outer loop
    vertex 42.60940170288085 47.74555969238281 11.0
    vertex 42.92290115356445 38.66199111938476 11.0
    vertex 42.92290115356445 48.28871154785156 11.0
  endloop
endfacet
facet normal -0.0 -0.0 1.0
  outer loop
    vertex 42.92290115356445 48.28871154785156 11.0
    vertex 42.92290115356445 38.66199111938476 11.0
    vertex 43.34260177612305 38.19591903686523 11.0
  endloop
endfacet
facet normal -0.0 -0.0 1.0
  outer loop
    vertex 42.92290115356445 48.28871154785156 11.0
    vertex 43.34260177612305 38.19591903686523 11.0
    vertex 43.34260177612305 48.75477981567382 11.0
  endloop
endfacet
facet normal -0.0 -0.0 1.0
  outer loop
    vertex 43.34260177612305 48.75477981567382 11.0
    vertex 43.34260177612305 38.19591903686523 11.0
    vertex 43.849998474121094 37.8272705078125 11.0
  endloop
endfacet
facet normal -0.0 -0.0 1.0
  outer loop
    vertex 43.34260177612305 48.75477981567382 11.0
    vertex 43.849998474121094 37.8272705078125 11.0
    vertex 43.849998474121094 49.123428344726555 11.0
  endloop
endfacet
facet normal -0.0 -0.0 1.0
  outer loop
    vertex 43.849998474121094 49.123428344726555 11.0
    vertex 43.849998474121094 37.8272705078125 11.0
    vertex 44.42290115356445 37.57218170166015 11.0
  endloop
endfacet
facet normal -0.0 -0.0 1.0
  outer loop
    vertex 43.849998474121094 49.123428344726555 11.0
    vertex 44.42290115356445 37.57218170166015 11.0
    vertex 44.42290115356445 49.378520965576165 11.0
  endloop
endfacet
facet normal -0.0 -0.0 1.0
  outer loop
    vertex 44.42290115356445 49.378520965576165 11.0
    vertex 44.42290115356445 37.57218170166015 11.0
    vertex 44.599998474121094 41.82535171508788 11.0
  endloop
endfacet
facet normal -0.0 -0.0 1.0
  outer loop
    vertex 44.599998474121094 41.82535171508788 11.0
    vertex 44.42290115356445 37.57218170166015 11.0
    vertex 45.036399841308594 37.441780090332024 11.0
  endloop
endfacet
facet normal -0.0 -0.0 1.0
  outer loop
    vertex 44.599998474121094 41.82535171508788 11.0
    vertex 45.036399841308594 37.441780090332024 11.0
    vertex 74.65000152587889 41.82535171508788 11.0
  endloop
endfacet
facet normal -0.0 -0.0 1.0
  outer loop
    vertex 74.65000152587889 41.82535171508788 11.0
    vertex 45.036399841308594 37.441780090332024 11.0
    vertex 71.9636001586914 37.441780090332024 11.0
  endloop
endfacet
facet normal -0.0 -0.0 1.0
  outer loop
    vertex 74.65000152587889 41.82535171508788 11.0
    vertex 71.9636001586914 37.441780090332024 11.0
    vertex 72.5771026611328 37.57218170166015 11.0
  endloop
endfacet
facet normal -0.0 -0.0 1.0
  outer loop
    vertex 74.65000152587889 41.82535171508788 11.0
    vertex 72.5771026611328 37.57218170166015 11.0
    vertex 73.1500015258789 37.8272705078125 11.0
  endloop
endfacet
facet normal -0.0 -0.0 1.0
  outer loop
    vertex 74.65000152587889 41.82535171508788 11.0
    vertex 73.1500015258789 37.8272705078125 11.0
    vertex 73.65740203857422 38.19591903686523 11.0
  endloop
endfacet
facet normal -0.0 -0.0 1.0
  outer loop
    vertex 74.65000152587889 41.82535171508788 11.0
    vertex 73.65740203857422 38.19591903686523 11.0
    vertex 74.0771026611328 38.66199111938476 11.0
  endloop
endfacet
facet normal -0.0 -0.0 1.0
  outer loop
    vertex 74.65000152587889 41.82535171508788 11.0
    vertex 74.0771026611328 38.66199111938476 11.0
    vertex 74.3906021118164 39.20513916015625 11.0
  endloop
endfacet
facet normal -0.0 -0.0 1.0
  outer loop
    vertex 74.65000152587889 41.82535171508788 11.0
    vertex 74.3906021118164 39.20513916015625 11.0
    vertex 74.58439636230467 39.80162048339844 11.0
  endloop
endfacet
facet normal -0.0 -0.0 1.0
  outer loop
    vertex 74.65000152587889 41.82535171508788 11.0
    vertex 74.58439636230467 39.80162048339844 11.0
    vertex 74.65000152587889 40.425350189208984 11.0
  endloop
endfacet
facet normal -0.0 -0.0 1.0
  outer loop
    vertex 44.42290115356445 49.378520965576165 11.0
    vertex 44.599998474121094 45.12535095214844 11.0
    vertex 45.036399841308594 49.508918762207024 11.0
  endloop
endfacet
facet normal -0.0 -0.0 1.0
  outer loop
    vertex 44.599998474121094 45.12535095214844 11.0
    vertex 44.42290115356445 49.378520965576165 11.0
    vertex 44.599998474121094 41.82535171508788 11.0
  endloop
endfacet
facet normal -0.0 -0.0 1.0
  outer loop
    vertex 45.036399841308594 49.508918762207024 11.0
    vertex 44.599998474121094 45.12535095214844 11.0
    vertex 47.54999923706054 45.12535095214844 11.0
  endloop
endfacet
facet normal -0.0 -0.0 1.0
  outer loop
    vertex 45.036399841308594 49.508918762207024 11.0
    vertex 47.54999923706054 45.12535095214844 11.0
    vertex 47.54999923706054 49.508918762207024 11.0
  endloop
endfacet
facet normal -0.0 -0.0 1.0
  outer loop
    vertex 74.65000152587889 45.12535095214844 11.0
    vertex 51.849998474121094 49.508918762207024 11.0
    vertex 51.849998474121094 45.12535095214844 11.0
  endloop
endfacet
facet normal -0.0 -0.0 1.0
  outer loop
    vertex 51.849998474121094 49.508918762207024 11.0
    vertex 74.65000152587889 45.12535095214844 11.0
    vertex 71.9636001586914 49.508918762207024 11.0
  endloop
endfacet
facet normal -0.0 -0.0 1.0
  outer loop
    vertex 71.9636001586914 49.508918762207024 11.0
    vertex 74.65000152587889 45.12535095214844 11.0
    vertex 72.5771026611328 49.378520965576165 11.0
  endloop
endfacet
facet normal -0.0 -0.0 1.0
  outer loop
    vertex 72.5771026611328 49.378520965576165 11.0
    vertex 74.65000152587889 45.12535095214844 11.0
    vertex 73.1500015258789 49.123428344726555 11.0
  endloop
endfacet
facet normal -0.0 -0.0 1.0
  outer loop
    vertex 73.1500015258789 49.123428344726555 11.0
    vertex 74.65000152587889 45.12535095214844 11.0
    vertex 73.65740203857422 48.75477981567382 11.0
  endloop
endfacet
facet normal -0.0 -0.0 1.0
  outer loop
    vertex 73.65740203857422 48.75477981567382 11.0
    vertex 74.65000152587889 45.12535095214844 11.0
    vertex 74.0771026611328 48.28871154785156 11.0
  endloop
endfacet
facet normal -0.0 -0.0 1.0
  outer loop
    vertex 74.0771026611328 48.28871154785156 11.0
    vertex 74.65000152587889 45.12535095214844 11.0
    vertex 74.3906021118164 47.74555969238281 11.0
  endloop
endfacet
facet normal -0.0 -0.0 1.0
  outer loop
    vertex 74.3906021118164 47.74555969238281 11.0
    vertex 74.65000152587889 45.12535095214844 11.0
    vertex 74.58439636230467 47.149078369140625 11.0
  endloop
endfacet
facet normal -0.0 -0.0 1.0
  outer loop
    vertex 74.58439636230467 47.149078369140625 11.0
    vertex 74.65000152587889 45.12535095214844 11.0
    vertex 74.65000152587889 46.52534866333008 11.0
  endloop
endfacet
endsolid Untitled-5aa171a4
