999
dxfrw 0.6.3
  0
SECTION
  2
HEADER
  9
$ACADVER
  1
AC1021
  9
$DWGCODEPAGE
  3
ANSI_1252
  9
$INSBASE
 10
0
 20
0
 30
0
  9
$EXTMIN
 10
6.14951103404464
 20
7.319652027235785
 30
0
  9
$EXTMAX
 10
356.1496180340448
 20
387.3196790272359
 30
0
  9
$LIMMIN
 10
0
 20
0
  9
$LIMMAX
 10
420
 20
297
  9
$ORTHOMODE
 70
    0
  9
$REGENMODE
 70
    1
  9
$FILLMODE
 70
    1
  9
$QTEXTMODE
 70
    0
  9
$MIRRTEXT
 70
    0
  9
$LTSCALE
 40
1
  9
$ATTMODE
 70
    0
  9
$TEXTSIZE
 40
2.5
  9
$TRACEWID
 40
15.68
  9
$TEXTSTYLE
  7
STANDARD
  9
$CLAYER
  8
0
  9
$CELTYPE
  6
BYLAYER
  9
$CECOLOR
 62
  256
  9
$CELTSCALE
 40
1
  9
$DISPSILH
 70
    0
  9
$DIMSCALE
 40
2.5
  9
$DIMASZ
 40
2.5
  9
$DIMEXO
 40
0.625
  9
$DIMDLI
 40
3.75
  9
$DIMRND
 40
0
  9
$DIMDLE
 40
0
  9
$DIMEXE
 40
1.25
  9
$DIMTP
 40
0
  9
$DIMTM
 40
0
  9
$DIMTXT
 40
2.5
  9
$DIMCEN
 40
2.5
  9
$DIMTSZ
 40
0
  9
$DIMTOL
 70
    0
  9
$DIMLIM
 70
    0
  9
$DIMTIH
 70
    0
  9
$DIMTOH
 70
    0
  9
$DIMSE1
 70
    0
  9
$DIMSE2
 70
    0
  9
$DIMTAD
 70
    1
  9
$DIMZIN
 70
    8
  9
$DIMBLK
  1

  9
$DIMASO
 70
    1
  9
$DIMSHO
 70
    1
  9
$DIMPOST
  1

  9
$DIMAPOST
  1

  9
$DIMALT
 70
    0
  9
$DIMALTD
 70
    3
  9
$DIMALTF
 40
0.03937
  9
$DIMLFAC
 40
1
  9
$DIMTOFL
 70
    1
  9
$DIMTVP
 40
0
  9
$DIMTIX
 70
    0
  9
$DIMSOXD
 70
    0
  9
$DIMSAH
 70
    0
  9
$DIMBLK1
  1

  9
$DIMBLK2
  1

  9
$DIMSTYLE
  2
STANDARD
  9
$DIMCLRD
 70
    0
  9
$DIMCLRE
 70
    0
  9
$DIMCLRT
 70
    0
  9
$DIMTFAC
 40
1
  9
$DIMGAP
 40
0.625
  9
$DIMJUST
 70
    0
  9
$DIMSD1
 70
    0
  9
$DIMSD2
 70
    0
  9
$DIMTOLJ
 70
    0
  9
$DIMTZIN
 70
    8
  9
$DIMALTZ
 70
    0
  9
$DIMALTTZ
 70
    0
  9
$DIMUPT
 70
    0
  9
$DIMDEC
 70
    2
  9
$DIMTDEC
 70
    2
  9
$DIMALTU
 70
    2
  9
$DIMALTTD
 70
    3
  9
$DIMTXSTY
  7
standard
  9
$DIMAUNIT
 70
    0
  9
$DIMADEC
 70
    0
  9
$DIMALTRND
 40
0
  9
$DIMAZIN
 70
    0
  9
$DIMDSEP
 70
   44
  9
$DIMATFIT
 70
    3
  9
$DIMFRAC
 70
    0
  9
$DIMLDRBLK
  1
STANDARD
  9
$DIMLUNIT
 70
    2
  9
$DIMLWD
 70
   -2
  9
$DIMLWE
 70
   -2
  9
$DIMTMOVE
 70
    0
  9
$DIMFXL
 40
1
  9
$DIMFXLON
 70
    0
  9
$DIMJOGANG
 40
0.7854
  9
$DIMTFILL
 70
    0
  9
$DIMTFILLCLR
 70
    0
  9
$DIMARCSYM
 70
    0
  9
$DIMLTYPE
  6

  9
$DIMLTEX1
  6

  9
$DIMLTEX2
  6

  9
$LUNITS
 70
    2
  9
$LUPREC
 70
    4
  9
$SKETCHINC
 40
1
  9
$FILLETRAD
 40
0
  9
$AUNITS
 70
    0
  9
$AUPREC
 70
    2
  9
$MENU
  1
.
  9
$ELEVATION
 40
0
  9
$PELEVATION
 40
0
  9
$THICKNESS
 40
0
  9
$LIMCHECK
 70
    0
  9
$CHAMFERA
 40
0
  9
$CHAMFERB
 40
0
  9
$CHAMFERC
 40
0
  9
$CHAMFERD
 40
0
  9
$SKPOLY
 70
    0
  9
$USRTIMER
 70
    1
  9
$ANGBASE
 50
0
  9
$ANGDIR
 70
    0
  9
$PDMODE
 70
   34
  9
$PDSIZE
 40
0
  9
$PLINEWID
 40
0
  9
$SPLFRAME
 70
    0
  9
$SPLINETYPE
 70
    2
  9
$SPLINESEGS
 70
    8
  9
$HANDSEED
  5
20000
  9
$SURFTAB1
 70
    6
  9
$SURFTAB2
 70
    6
  9
$SURFTYPE
 70
    6
  9
$SURFU
 70
    6
  9
$SURFV
 70
    6
  9
$UCSBASE
  2

  9
$UCSNAME
  2

  9
$UCSORG
 10
0
 20
0
 30
0
  9
$UCSXDIR
 10
1
 20
0
 30
0
  9
$UCSYDIR
 10
0
 20
1
 30
0
  9
$UCSORTHOREF
  2

  9
$UCSORTHOVIEW
 70
    0
  9
$UCSORGTOP
 10
0
 20
0
 30
0
  9
$UCSORGBOTTOM
 10
0
 20
0
 30
0
  9
$UCSORGLEFT
 10
0
 20
0
 30
0
  9
$UCSORGRIGHT
 10
0
 20
0
 30
0
  9
$UCSORGFRONT
 10
0
 20
0
 30
0
  9
$UCSORGBACK
 10
0
 20
0
 30
0
  9
$PUCSBASE
  2

  9
$PUCSNAME
  2

  9
$PUCSORG
 10
0
 20
0
 30
0
  9
$PUCSXDIR
 10
1
 20
0
 30
0
  9
$PUCSYDIR
 10
0
 20
1
 30
0
  9
$PUCSORTHOREF
  2

  9
$PUCSORTHOVIEW
 70
    0
  9
$PUCSORGTOP
 10
0
 20
0
 30
0
  9
$PUCSORGBOTTOM
 10
0
 20
0
 30
0
  9
$PUCSORGLEFT
 10
0
 20
0
 30
0
  9
$PUCSORGRIGHT
 10
0
 20
0
 30
0
  9
$PUCSORGFRONT
 10
0
 20
0
 30
0
  9
$PUCSORGBACK
 10
0
 20
0
 30
0
  9
$USERI1
 70
    0
  9
$USERI2
 70
    0
  9
$USERI3
 70
    0
  9
$USERI4
 70
    0
  9
$USERI5
 70
    0
  9
$USERR1
 40
0
  9
$USERR2
 40
0
  9
$USERR3
 40
0
  9
$USERR4
 40
0
  9
$USERR5
 40
0
  9
$WORLDVIEW
 70
    1
  9
$SHADEDGE
 70
    3
  9
$SHADEDIF
 70
   70
  9
$TILEMODE
 70
    1
  9
$MAXACTVP
 70
   64
  9
$PINSBASE
 10
0
 20
0
 30
0
  9
$PLIMCHECK
 70
    0
  9
$PEXTMIN
 10
0
 20
0
 30
0
  9
$PEXTMAX
 10
0
 20
0
 30
0
  9
$GRIDMODE
 70
    1
  9
$SNAPSTYLE
 70
    0
  9
$GRIDUNIT
 10
0
 20
0
  9
$PLIMMIN
 10
0
 20
0
  9
$PLIMMAX
 10
1189
 20
841
  9
$UNITMODE
 70
    0
  9
$VISRETAIN
 70
    1
  9
$PLINEGEN
 70
    0
  9
$PSLTSCALE
 70
    1
  9
$TREEDEPTH
 70
 3020
  9
$CMLSTYLE
  2
Standard
  9
$CMLJUST
 70
    0
  9
$CMLSCALE
 40
20
  9
$PROXYGRAPHICS
 70
    1
  9
$MEASUREMENT
 70
    1
  9
$CELWEIGHT
370
   -1
  9
$ENDCAPS
280
    0
  9
$JOINSTYLE
280
    0
  9
$LWDISPLAY
290
    0
  9
$INSUNITS
 70
    0
  9
$HYPERLINKBASE
  1

  9
$STYLESHEET
  1

  9
$XEDIT
290
    1
  9
$CEPSNTYPE
380
    0
  9
$PSTYLEMODE
290
    1
  9
$EXTNAMES
290
    1
  9
$PSVPSCALE
 40
1
  9
$OLESTARTUP
290
    0
  9
$SORTENTS
280
  127
  9
$INDEXCTL
280
    0
  9
$HIDETEXT
280
    1
  9
$XCLIPFRAME
290
    0
  9
$HALOGAP
280
    0
  9
$OBSCOLOR
 70
  257
  9
$OBSLTYPE
280
    0
  9
$INTERSECTIONDISPLAY
280
    0
  9
$INTERSECTIONCOLOR
 70
  257
  9
$DIMASSOC
280
    1
  9
$PROJECTNAME
  1

  9
$CAMERADISPLAY
290
    0
  9
$LENSLENGTH
 40
50
  9
$CAMERAHEIGHT
 40
0
  9
$STEPSPERSEC
 40
2
  9
$STEPSIZE
 40
50
  9
$3DDWFPREC
 40
2
  9
$PSOLWIDTH
 40
5
  9
$PSOLHEIGHT
 40
80
  9
$LOFTANG1
 40
1.570796326794897
  9
$LOFTANG2
 40
1.570796326794897
  9
$LOFTMAG1
 40
0
  9
$LOFTMAG2
 40
0
  9
$LOFTPARAM
 70
    7
  9
$LOFTNORMALS
280
    1
  9
$LATITUDE
 40
1
  9
$LONGITUDE
 40
1
  9
$NORTHDIRECTION
 40
0
  9
$TIMEZONE
 70
-8000
  9
$LIGHTGLYPHDISPLAY
280
    1
  9
$TILEMODELIGHTSYNCH
280
    1
  9
$SOLIDHIST
280
    1
  9
$SHOWHIST
280
    1
  9
$DWFFRAME
280
    2
  9
$DGNFRAME
280
    0
  9
$REALWORLDSCALE
290
    1
  9
$INTERFERECOLOR
 62
    1
  9
$CSHADOW
280
    0
  9
$SHADOWPLANELOCATION
 40
0
  0
ENDSEC
  0
SECTION
  2
CLASSES
  0
ENDSEC
  0
SECTION
  2
TABLES
  0
TABLE
  2
VPORT
  5
8
330
0
100
AcDbSymbolTable
 70
    1
  0
VPORT
  5
31
330
2
100
AcDbSymbolTableRecord
100
AcDbViewportTableRecord
  2
*ACTIVE
 70
    0
 10
0
 20
0
 11
1
 21
1
 12
428.243900698084
 22
232.3696678005784
 13
0
 23
0
 14
10
 24
10
 15
10
 25
10
 16
0
 26
0
 36
1
 17
0
 27
0
 37
0
 40
668.928984046198
 41
1.831491712707182
 42
50
 43
0
 44
0
 50
0
 51
0
 71
    0
 72
  100
 73
    1
 74
    3
 75
    0
 76
    1
 77
    0
 78
    0
281
    0
 65
    1
110
0
120
0
130
0
111
1
121
0
131
0
112
0
122
1
132
0
 79
    0
146
0
348
10020
 60
    7
 61
    5
292
1
282
    1
141
0
142
0
 63
  250
421
3358443
  0
ENDTAB
  0
TABLE
  2
LTYPE
  5
5
330
0
100
AcDbSymbolTable
 70
    4
  0
LTYPE
  5
14
330
5
100
AcDbSymbolTableRecord
100
AcDbLinetypeTableRecord
  2
ByBlock
 70
    0
  3

 72
   65
 73
    0
 40
0
  0
LTYPE
  5
15
330
5
100
AcDbSymbolTableRecord
100
AcDbLinetypeTableRecord
  2
ByLayer
 70
    0
  3

 72
   65
 73
    0
 40
0
  0
LTYPE
  5
16
330
5
100
AcDbSymbolTableRecord
100
AcDbLinetypeTableRecord
  2
Continuous
 70
    0
  3
Solid line
 72
   65
 73
    0
 40
0
  0
LTYPE
  5
32
330
5
100
AcDbSymbolTableRecord
100
AcDbLinetypeTableRecord
  2
DOT
 70
    0
  3
Dot . . . . . . . . . . . . . . . . . . . . . .
 72
   65
 73
    2
 40
6.35
 49
0
 74
    0
 49
-6.35
 74
    0
  0
LTYPE
  5
33
330
5
100
AcDbSymbolTableRecord
100
AcDbLinetypeTableRecord
  2
DOTTINY
 70
    0
  3
Dot (.15x) .....................................
 72
   65
 73
    2
 40
0.9525
 49
0
 74
    0
 49
-0.9525
 74
    0
  0
LTYPE
  5
34
330
5
100
AcDbSymbolTableRecord
100
AcDbLinetypeTableRecord
  2
DOT2
 70
    0
  3
Dot (.5x) .....................................
 72
   65
 73
    2
 40
3.175
 49
0
 74
    0
 49
-3.175
 74
    0
  0
LTYPE
  5
35
330
5
100
AcDbSymbolTableRecord
100
AcDbLinetypeTableRecord
  2
DOTX2
 70
    0
  3
Dot (2x) .  .  .  .  .  .  .  .  .  .  .  .  .
 72
   65
 73
    2
 40
12.7
 49
0
 74
    0
 49
-12.7
 74
    0
  0
LTYPE
  5
36
330
5
100
AcDbSymbolTableRecord
100
AcDbLinetypeTableRecord
  2
DASHED
 70
    0
  3
Dashed _ _ _ _ _ _ _ _ _ _ _ _ _ _ _ _ _
 72
   65
 73
    2
 40
19.05
 49
12.7
 74
    0
 49
-6.35
 74
    0
  0
LTYPE
  5
37
330
5
100
AcDbSymbolTableRecord
100
AcDbLinetypeTableRecord
  2
DASHEDTINY
 70
    0
  3
Dashed (.15x) _ _ _ _ _ _ _ _ _ _ _ _ _ _ _ _ _
 72
   65
 73
    2
 40
2.8575
 49
1.905
 74
    0
 49
-0.9525
 74
    0
  0
LTYPE
  5
38
330
5
100
AcDbSymbolTableRecord
100
AcDbLinetypeTableRecord
  2
DASHED2
 70
    0
  3
Dashed (.5x) _ _ _ _ _ _ _ _ _ _ _ _ _ _ _ _ _
 72
   65
 73
    2
 40
9.524999999999999
 49
6.35
 74
    0
 49
-3.175
 74
    0
  0
LTYPE
  5
39
330
5
100
AcDbSymbolTableRecord
100
AcDbLinetypeTableRecord
  2
DASHEDX2
 70
    0
  3
Dashed (2x) ____  ____  ____  ____  ____  ___
 72
   65
 73
    2
 40
38.09999999999999
 49
25.4
 74
    0
 49
-12.7
 74
    0
  0
LTYPE
  5
3A
330
5
100
AcDbSymbolTableRecord
100
AcDbLinetypeTableRecord
  2
DASHDOT
 70
    0
  3
Dash dot __ . __ . __ . __ . __ . __ . __ . __
 72
   65
 73
    4
 40
25.4
 49
12.7
 74
    0
 49
-6.35
 74
    0
 49
0
 74
    0
 49
-6.35
 74
    0
  0
LTYPE
  5
3B
330
5
100
AcDbSymbolTableRecord
100
AcDbLinetypeTableRecord
  2
DASHDOTTINY
 70
    0
  3
Dash dot (.15x) _._._._._._._._._._._._._._._.
 72
   65
 73
    4
 40
3.81
 49
1.905
 74
    0
 49
-0.9525
 74
    0
 49
0
 74
    0
 49
-0.9525
 74
    0
  0
LTYPE
  5
3C
330
5
100
AcDbSymbolTableRecord
100
AcDbLinetypeTableRecord
  2
DASHDOT2
 70
    0
  3
Dash dot (.5x) _._._._._._._._._._._._._._._.
 72
   65
 73
    4
 40
12.7
 49
6.35
 74
    0
 49
-3.175
 74
    0
 49
0
 74
    0
 49
-3.175
 74
    0
  0
LTYPE
  5
3D
330
5
100
AcDbSymbolTableRecord
100
AcDbLinetypeTableRecord
  2
DASHDOTX2
 70
    0
  3
Dash dot (2x) ____  .  ____  .  ____  .  ___
 72
   65
 73
    4
 40
50.8
 49
25.4
 74
    0
 49
-12.7
 74
    0
 49
0
 74
    0
 49
-12.7
 74
    0
  0
LTYPE
  5
3E
330
5
100
AcDbSymbolTableRecord
100
AcDbLinetypeTableRecord
  2
DIVIDE
 70
    0
  3
Divide ____ . . ____ . . ____ . . ____ . . ____
 72
   65
 73
    6
 40
31.75
 49
12.7
 74
    0
 49
-6.35
 74
    0
 49
0
 74
    0
 49
-6.35
 74
    0
 49
0
 74
    0
 49
-6.35
 74
    0
  0
LTYPE
  5
3F
330
5
100
AcDbSymbolTableRecord
100
AcDbLinetypeTableRecord
  2
DIVIDETINY
 70
    0
  3
Divide (.15x) __..__..__..__..__..__..__..__.._
 72
   65
 73
    6
 40
4.7625
 49
1.905
 74
    0
 49
-0.9525
 74
    0
 49
0
 74
    0
 49
-0.9525
 74
    0
 49
0
 74
    0
 49
-0.9525
 74
    0
  0
LTYPE
  5
40
330
5
100
AcDbSymbolTableRecord
100
AcDbLinetypeTableRecord
  2
DIVIDE2
 70
    0
  3
Divide (.5x) __..__..__..__..__..__..__..__.._
 72
   65
 73
    6
 40
15.875
 49
6.35
 74
    0
 49
-3.175
 74
    0
 49
0
 74
    0
 49
-3.175
 74
    0
 49
0
 74
    0
 49
-3.175
 74
    0
  0
LTYPE
  5
41
330
5
100
AcDbSymbolTableRecord
100
AcDbLinetypeTableRecord
  2
DIVIDEX2
 70
    0
  3
Divide (2x) ________  .  .  ________  .  .  _
 72
   65
 73
    6
 40
63.5
 49
25.4
 74
    0
 49
-12.7
 74
    0
 49
0
 74
    0
 49
-12.7
 74
    0
 49
0
 74
    0
 49
-12.7
 74
    0
  0
LTYPE
  5
42
330
5
100
AcDbSymbolTableRecord
100
AcDbLinetypeTableRecord
  2
BORDER
 70
    0
  3
Border __ __ . __ __ . __ __ . __ __ . __ __ .
 72
   65
 73
    6
 40
44.45
 49
12.7
 74
    0
 49
-6.35
 74
    0
 49
12.7
 74
    0
 49
-6.35
 74
    0
 49
0
 74
    0
 49
-6.35
 74
    0
  0
LTYPE
  5
43
330
5
100
AcDbSymbolTableRecord
100
AcDbLinetypeTableRecord
  2
BORDERTINY
 70
    0
  3
Border (.15x) __.__.__.__.__.__.__.__.__.__.__.
 72
   65
 73
    6
 40
6.6675
 49
1.905
 74
    0
 49
-0.9525
 74
    0
 49
1.905
 74
    0
 49
-0.9525
 74
    0
 49
0
 74
    0
 49
-0.9525
 74
    0
  0
LTYPE
  5
44
330
5
100
AcDbSymbolTableRecord
100
AcDbLinetypeTableRecord
  2
BORDER2
 70
    0
  3
Border (.5x) __.__.__.__.__.__.__.__.__.__.__.
 72
   65
 73
    6
 40
22.225
 49
6.35
 74
    0
 49
-3.175
 74
    0
 49
6.35
 74
    0
 49
-3.175
 74
    0
 49
0
 74
    0
 49
-3.175
 74
    0
  0
LTYPE
  5
45
330
5
100
AcDbSymbolTableRecord
100
AcDbLinetypeTableRecord
  2
BORDERX2
 70
    0
  3
Border (2x) ____  ____  .  ____  ____  .  ___
 72
   65
 73
    6
 40
88.89999999999999
 49
25.4
 74
    0
 49
-12.7
 74
    0
 49
25.4
 74
    0
 49
-12.7
 74
    0
 49
0
 74
    0
 49
-12.7
 74
    0
  0
LTYPE
  5
46
330
5
100
AcDbSymbolTableRecord
100
AcDbLinetypeTableRecord
  2
CENTER
 70
    0
  3
Center ____ _ ____ _ ____ _ ____ _ ____ _ ____
 72
   65
 73
    4
 40
50.8
 49
31.75
 74
    0
 49
-6.35
 74
    0
 49
6.35
 74
    0
 49
-6.35
 74
    0
  0
LTYPE
  5
47
330
5
100
AcDbSymbolTableRecord
100
AcDbLinetypeTableRecord
  2
CENTERTINY
 70
    0
  3
Center (.15x) ___ _ ___ _ ___ _ ___ _ ___ _ ___
 72
   65
 73
    4
 40
7.619999999999999
 49
4.7625
 74
    0
 49
-0.9525
 74
    0
 49
0.9525
 74
    0
 49
-0.9525
 74
    0
  0
LTYPE
  5
48
330
5
100
AcDbSymbolTableRecord
100
AcDbLinetypeTableRecord
  2
CENTER2
 70
    0
  3
Center (.5x) ___ _ ___ _ ___ _ ___ _ ___ _ ___
 72
   65
 73
    4
 40
28.575
 49
19.05
 74
    0
 49
-3.175
 74
    0
 49
3.175
 74
    0
 49
-3.175
 74
    0
  0
LTYPE
  5
49
330
5
100
AcDbSymbolTableRecord
100
AcDbLinetypeTableRecord
  2
CENTERX2
 70
    0
  3
Center (2x) ________  __  ________  __  _____
 72
   65
 73
    4
 40
101.6
 49
63.5
 74
    0
 49
-12.7
 74
    0
 49
12.7
 74
    0
 49
-12.7
 74
    0
  0
ENDTAB
  0
TABLE
  2
LAYER
  5
2
330
0
100
AcDbSymbolTable
 70
    1
  0
LAYER
  5
10
330
2
100
AcDbSymbolTableRecord
100
AcDbLayerTableRecord
  2
0
 70
    0
 62
    7
  6
CONTINUOUS
370
   -3
390
F
  0
ENDTAB
  0
TABLE
  2
STYLE
  5
3
330
0
100
AcDbSymbolTable
 70
    3
  0
STYLE
  5
4A
330
2
100
AcDbSymbolTableRecord
100
AcDbTextStyleTableRecord
  2
Standard
 70
    0
 40
0
 41
1
 50
0
 71
    0
 42
1
  3
txt
  4

  0
ENDTAB
  0
TABLE
  2
VIEW
  5
6
330
0
100
AcDbSymbolTable
 70
    0
  0
ENDTAB
  0
TABLE
  2
UCS
  5
7
330
0
100
AcDbSymbolTable
 70
    0
  0
ENDTAB
  0
TABLE
  2
APPID
  5
9
330
0
100
AcDbSymbolTable
 70
    1
  0
APPID
  5
12
330
9
100
AcDbSymbolTableRecord
100
AcDbRegAppTableRecord
  2
ACAD
 70
    0
  0
APPID
  5
4B
330
9
100
AcDbSymbolTableRecord
100
AcDbRegAppTableRecord
  2
LibreCad
 70
    0
  0
ENDTAB
  0
TABLE
  2
DIMSTYLE
  5
A
330
0
100
AcDbSymbolTable
 70
    1
100
AcDbDimStyleTable
 71
    1
  0
DIMSTYLE
105
4C
330
A
100
AcDbSymbolTableRecord
100
AcDbDimStyleTableRecord
  2
Standard
 70
    0
 40
2.5
 41
2.5
 42
0.625
 43
0.38
 44
1.25
 45
0
 46
0
 47
0
 48
0
 49
1
140
2.5
141
0.09
142
0
143
25.4
144
1
145
0
146
1
147
0.625
148
0
 71
    0
 72
    0
 73
    0
 74
    1
 75
    0
 76
    0
 77
    0
 78
    8
 79
    0
170
    0
171
    2
172
    0
173
    0
174
    0
175
    0
176
    0
177
    0
178
    0
179
    0
271
    2
272
    4
273
    2
274
    2
275
    0
276
    0
277
    2
278
   44
279
    0
280
    0
281
    0
282
    0
283
    1
284
    0
285
    0
286
    0
288
    0
289
    3
340
standard
341

371
   -2
372
   -2
  0
ENDTAB
  0
TABLE
  2
BLOCK_RECORD
  5
1
330
0
100
AcDbSymbolTable
 70
    2
  0
BLOCK_RECORD
  5
1F
330
1
100
AcDbSymbolTableRecord
100
AcDbBlockTableRecord
  2
*Model_Space
 70
    0
280
    1
281
    0
  0
BLOCK_RECORD
  5
1E
330
1
100
AcDbSymbolTableRecord
100
AcDbBlockTableRecord
  2
*Paper_Space
 70
    0
280
    1
281
    0
  0
ENDTAB
  0
ENDSEC
  0
SECTION
  2
BLOCKS
  0
BLOCK
  5
20
330
1F
100
AcDbEntity
  8
0
100
AcDbBlockBegin
  2
*Model_Space
 70
    0
 10
0
 20
0
 30
0
  3
*Model_Space
  1

  0
ENDBLK
  5
21
330
1F
100
AcDbEntity
  8
0
100
AcDbBlockEnd
  0
BLOCK
  5
1C
330
1B
100
AcDbEntity
  8
0
100
AcDbBlockBegin
  2
*Paper_Space
 70
    0
 10
0
 20
0
 30
0
  3
*Paper_Space
  1

  0
ENDBLK
  5
1D
330
1F
100
AcDbEntity
  8
0
100
AcDbBlockEnd
  0
ENDSEC
  0
SECTION
  2
ENTITIES
  0
LWPOLYLINE
  5
4D
100
AcDbEntity
  8
0
  6
ByLayer
 62
    0
370
   -1
100
AcDbPolyline
 90
    4
 70
    1
 43
0
 10
124.1495360340447
 20
15.31965202723578
 10
116.1495350340447
 20
15.31965202723578
 42
-0.9999999999999999
 10
116.1495350340447
 20
23.31965202723578
 10
124.1495350340447
 20
23.31965202723578
 42
-0.9999999131120491
  0
LWPOLYLINE
  5
4E
100
AcDbEntity
  8
0
  6
ByLayer
 62
    0
370
   -1
100
AcDbPolyline
 90
    4
 70
    1
 43
0
 10
84.1495350340447
 20
23.31965202723578
 42
-0.9999999131120491
 10
84.1495360340447
 20
15.31965202723578
 10
76.1495350340447
 20
15.31965202723578
 42
-0.9999999999999999
 10
76.1495350340447
 20
23.31965202723578
  0
LWPOLYLINE
  5
4F
100
AcDbEntity
  8
0
  6
ByLayer
 62
    0
370
   -1
100
AcDbPolyline
 90
    4
 70
    1
 43
0
 10
44.14953603404469
 20
15.31965202723578
 10
36.14953503404469
 20
15.31965202723578
 42
-0.9999999999999999
 10
36.14953503404469
 20
23.31965202723578
 10
44.14953503404465
 20
23.31965202723578
 42
-0.9999999131120499
  0
LWPOLYLINE
  5
50
100
AcDbEntity
  8
0
  6
ByLayer
 62
    0
370
   -1
100
AcDbPolyline
 90
    4
 70
    1
 43
0
 10
76.1495350340447
 20
118.3196520272358
 10
84.1495350340447
 20
118.3196520272357
 42
-0.9999999131120491
 10
84.1495360340447
 20
110.3196520272358
 10
76.1495350340447
 20
110.3196520272358
 42
-0.9999999999999999
  0
LWPOLYLINE
  5
51
100
AcDbEntity
  8
0
  6
ByLayer
 62
    0
370
   -1
100
AcDbPolyline
 90
    4
 70
    1
 43
0
 10
116.1495350340447
 20
118.3196520272358
 10
124.1495350340447
 20
118.3196520272357
 42
-0.9999999131120491
 10
124.1495360340447
 20
110.3196520272358
 10
116.1495350340447
 20
110.3196520272358
 42
-0.9999999999999999
  0
LWPOLYLINE
  5
52
100
AcDbEntity
  8
0
  6
ByLayer
 62
    0
370
   -1
100
AcDbPolyline
 90
    4
 70
    1
 43
0
 10
115.1495340340447
 20
170.3196490272359
 10
115.1495340340447
 20
178.3196490272359
 42
-0.9999999789265744
 10
123.1495340340447
 20
178.3196490272359
 10
123.1495340340447
 20
170.3196480272359
 42
-0.9999999131120526
  0
LWPOLYLINE
  5
53
100
AcDbEntity
  8
0
  6
ByLayer
 62
    0
370
   -1
100
AcDbPolyline
 90
    4
 70
    1
 43
0
 10
123.1495340340447
 20
238.3196490272358
 10
123.1495340340447
 20
230.3196480272359
 42
-0.9999999131120491
 10
115.1495340340447
 20
230.3196490272358
 10
115.1495340340447
 20
238.3196490272359
 42
-0.999999978926578
  0
LWPOLYLINE
  5
54
100
AcDbEntity
  8
0
  6
ByLayer
 62
    0
370
   -1
100
AcDbPolyline
 90
    4
 70
    1
 43
0
 10
123.1495340340447
 20
298.3196490272358
 10
123.1495340340447
 20
290.319648027236
 42
-0.9999999131120455
 10
115.1495340340447
 20
290.3196490272358
 10
115.1495340340447
 20
298.3196490272358
 42
-0.9999999789265815
  0
LWPOLYLINE
  5
55
100
AcDbEntity
  8
0
  6
ByLayer
 62
    0
370
   -1
100
AcDbPolyline
 90
    4
 70
    1
 43
0
 10
123.1495340340447
 20
358.3196490272356
 10
123.1495340340447
 20
350.3196480272358
 42
-0.9999999131120526
 10
115.1495340340447
 20
350.3196490272358
 10
115.1495340340447
 20
358.3196490272356
 42
-0.9999999789265815
  0
LWPOLYLINE
  5
56
100
AcDbEntity
  8
0
  6
ByLayer
 62
    0
370
   -1
100
AcDbPolyline
 90
   16
 70
    1
 43
0
 10
281.0730310340424
 20
30.41970423145553
 42
-0.2679482664649833
 10
281.5060430340425
 20
30.66970323145554
 10
285.9739930340425
 20
30.66970323145546
 42
-0.2679491924310336
 10
286.4070050340428
 20
30.41970323145551
 42
1.303223041599652
 10
287.0900190340425
 20
31.10271523145549
 42
-0.2679482664649832
 10
286.8400210340425
 20
31.53572723145553
 10
286.8400180340424
 20
33.10359723145553
 42
-0.2679491924309682
 10
287.0900180340424
 20
33.53661023145548
 42
1.30322304160048
 10
286.4070070340426
 20
34.21962423145529
 42
-0.2679482617890339
 10
285.9739950340425
 20
33.9696262314556
 10
281.5060450340424
 20
33.9696232314557
 42
-0.2679491924309955
 10
281.0730320340426
 20
34.21962323145549
 42
1.303223041600578
 10
280.3900180340425
 20
33.53661123145536
 42
-0.2679482664649746
 10
280.6400170340425
 20
33.10359923145549
 10
280.6400200340426
 20
31.53573223145553
 42
-0.2679491924310191
 10
280.3900200340426
 20
31.10271823145558
 42
1.3032230416003
  0
LWPOLYLINE
  5
57
100
AcDbEntity
  8
0
  6
ByLayer
 62
    0
370
   -1
100
AcDbPolyline
 90
   16
 70
    1
 43
0
 10
302.2730310340424
 20
34.21962323145559
 42
1.303223041600148
 10
301.5900170340424
 20
33.53661123145545
 42
-0.2679482664649839
 10
301.8400160340426
 20
33.10359923145549
 10
301.8400190340424
 20
31.53573223145553
 42
-0.2679491924310029
 10
301.5900190340424
 20
31.10271823145559
 42
1.303223041599793
 10
302.2730310340423
 20
30.41970423145553
 42
-0.2679482664650064
 10
302.7060430340424
 20
30.66970323145567
 10
307.1739920340425
 20
30.66970323145549
 42
-0.2679491924310274
 10
307.6070050340422
 20
30.41970323145568
 42
1.303223041600265
 10
308.2900190340424
 20
31.10271523145556
 42
-0.2679482664650603
 10
308.0400210340424
 20
31.53572723145553
 10
308.0400180340424
 20
33.10359723145553
 42
-0.2679491924309284
 10
308.2900180340424
 20
33.53661023145546
 42
1.303223041600228
 10
307.6070060340429
 20
34.21962423145547
 42
-0.2679482664649833
 10
307.1739940340426
 20
33.96962623145559
 10
302.7060440340424
 20
33.96962323145549
 42
-0.2679491924309679
  0
CIRCLE
  5
58
100
AcDbEntity
  8
0
  6
ByLayer
 62
    0
370
   -1
100
AcDbCircle
 10
294.3400190340425
 20
32.31966523145552
 40
1.6
  0
LWPOLYLINE
  5
59
100
AcDbEntity
  8
0
  6
ByLayer
 62
    0
370
   -1
100
AcDbPolyline
 90
   16
 70
    1
 43
0
 10
214.6591870340468
 20
33.10359174968291
 42
-0.2679491924310058
 10
214.9091870340469
 20
33.53660474968287
 42
1.303223041600101
 10
214.2261750340468
 20
34.21961874968294
 42
-0.2679482664649742
 10
213.7931630340469
 20
33.9696207496829
 10
209.3252130340469
 20
33.96961774968293
 42
-0.2679491924309965
 10
208.8922000340469
 20
34.21961774968293
 42
1.303223041600063
 10
208.2091860340468
 20
33.53660574968293
 42
-0.2679482664650315
 10
208.4591850340469
 20
33.10359374968292
 10
208.4591880340469
 20
31.53572674968289
 42
-0.2679491924309877
 10
208.2091880340469
 20
31.10271274968298
 42
1.303223041600012
 10
208.8922000340469
 20
30.41969874968294
 42
-0.2679482664650026
 10
209.3252120340468
 20
30.66969774968291
 10
213.7931610340469
 20
30.669697749683
 42
-0.2679491924310091
 10
214.2261740340468
 20
30.4196977496829
 42
1.303223041599964
 10
214.9091880340469
 20
31.10270974968288
 42
-0.267948266465017
 10
214.6591900340468
 20
31.53572174968291
  0
LWPOLYLINE
  5
5A
100
AcDbEntity
  8
0
  6
ByLayer
 62
    0
370
   -1
100
AcDbPolyline
 90
   16
 70
    1
 43
0
 10
187.0091890340469
 20
31.1027127496829
 42
1.303223041600092
 10
187.6922000340468
 20
30.41969874968283
 42
-0.2679482664650014
 10
188.1252120340469
 20
30.66969774968291
 10
192.5931620340469
 20
30.669697749683
 42
-0.2679491924310093
 10
193.0261740340469
 20
30.419697749683
 42
1.303223041599915
 10
193.709188034047
 20
31.10270974968292
 42
-0.2679482664649922
 10
193.4591900340469
 20
31.53572174968291
 10
193.4591870340468
 20
33.10359174968291
 42
-0.2679491924310061
 10
193.7091870340469
 20
33.53660474968294
 42
1.303223041599852
 10
193.0261760340469
 20
34.21961874968299
 42
-0.2679482617889911
 10
192.5931640340469
 20
33.96962074968296
 10
188.1252140340469
 20
33.96961774968296
 42
-0.2679491924309853
 10
187.6922010340469
 20
34.21961774968293
 42
1.303223041599985
 10
187.0091870340469
 20
33.53660574968295
 42
-0.2679482664650205
 10
187.2591860340469
 20
33.10359374968292
 10
187.2591890340469
 20
31.53572674968285
 42
-0.2679491924309915
  0
CIRCLE
  5
5B
100
AcDbEntity
  8
0
  6
ByLayer
 62
    0
370
   -1
100
AcDbCircle
 10
200.9591880340469
 20
32.31965974968287
 40
1.6
  0
LWPOLYLINE
  5
5C
100
AcDbEntity
  8
0
  6
ByLayer
 62
  256
370
   -1
100
AcDbPolyline
 90
  211
 70
    0
 43
0
 10
9.649563034044736
 20
51.77010002723578
 10
11.09019303404468
 20
51.77010002723578
 42
0.3333698242440126
 10
11.57021103404471
 20
52.1301630272358
 10
108.1239000340447
 20
384.2196070272357
 10
116.8995300340446
 20
384.2196070272357
 10
116.8995300340446
 20
381.2196350272358
 10
115.6245360340446
 20
381.2196350272358
 10
115.6245360340446
 20
377.2196070272358
 10
116.8995300340446
 20
377.2196070272358
 10
116.8995300340446
 20
374.2196070272357
 10
120.0995410340447
 20
374.2196070272357
 10
120.0995410340447
 20
377.2196070272358
 10
121.3745360340446
 20
377.2196070272358
 10
121.3745360340446
 20
381.2196350272358
 10
120.0995410340447
 20
381.2196350272358
 10
120.0995410340447
 20
384.2196070272357
 10
127.6335120340447
 20
384.219604027236
 42
-0.2679482664650028
 10
128.0665240340447
 20
383.9696050272358
 42
1.303223029819995
 10
128.7495360340446
 20
384.6526190272361
 42
-0.2679491924310173
 10
128.4995360340447
 20
385.085632027236
 10
128.4995360340446
 20
387.3196790272359
 10
139.1495350340447
 20
387.3196790272359
 10
139.1495350340447
 20
376.7856790272359
 42
-0.267949192431051
 10
138.8995350340447
 20
376.3526660272361
 42
1.303223041599862
 10
139.5825470340446
 20
375.6696510272361
 42
-0.2679482664649964
 10
140.0155590340446
 20
375.9196500272359
 10
141.6495870340447
 20
375.9196500272357
 42
-0.4142135623730118
 10
142.1495870340446
 20
375.4196500272361
 10
142.1495870340447
 20
370.4196530272357
 42
-0.4142135623730617
 10
141.6495870340446
 20
369.9196530272361
 10
140.0155610340447
 20
369.9196560272358
 42
-0.2679491924310084
 10
139.5825480340447
 20
370.1696560272358
 42
1.303223041600042
 10
138.8995330340447
 20
369.4866440272361
 42
-0.2679482664650343
 10
139.1495320340447
 20
369.0536320272359
 10
139.1495350340447
 20
363.9196670272358
 10
136.1495630340446
 20
363.9196670272358
 10
136.1495630340446
 20
365.1946620272357
 10
132.1495350340447
 20
365.1946620272357
 10
132.1495350340447
 20
363.9196670272358
 10
129.1495350340447
 20
363.9196670272358
 10
129.1495350340447
 20
360.7196560272359
 10
132.1495350340447
 20
360.7196560272359
 10
132.1495350340447
 20
359.4446620272358
 10
136.1495630340446
 20
359.4446620272358
 10
136.1495630340446
 20
360.7196560272359
 10
139.1495350340447
 20
360.7196560272359
 10
139.1495350340447
 20
355.585662027236
 42
-0.2679491924309696
 10
138.8995350340447
 20
355.1526490272357
 42
1.303223041599734
 10
139.5825470340448
 20
354.4696350272358
 42
-0.2679482664649916
 10
140.0155590340447
 20
354.7196340272358
 10
141.6495870340447
 20
354.7196340272358
 42
-0.4142135623730284
 10
142.1495870340446
 20
354.2196340272358
 10
142.1495870340447
 20
349.2196370272358
 42
-0.4142135623730284
 10
141.6495870340446
 20
348.7196370272358
 10
140.0155610340447
 20
348.7196400272356
 42
-0.2679491924310393
 10
139.5825480340445
 20
348.9696400272356
 42
1.303223041600202
 10
138.8995330340447
 20
348.2866280272362
 42
-0.2679482664650273
 10
139.1495320340447
 20
347.8536160272359
 10
139.1495350340447
 20
216.7856820272359
 42
-0.2679491924309829
 10
138.8995350340447
 20
216.3526690272356
 42
1.303223041599856
 10
139.5825470340446
 20
215.6696550272358
 42
-0.2679482664650073
 10
140.0155590340447
 20
215.9196540272358
 10
141.6495870340447
 20
215.9196540272358
 42
-0.4142135623729619
 10
142.1495870340447
 20
215.4196540272358
 10
142.1495870340447
 20
210.4196560272358
 42
-0.4142135623730284
 10
141.6495870340447
 20
209.9196560272358
 10
140.0155610340447
 20
209.9196590272358
 42
-0.2679491924309994
 10
139.5825480340446
 20
210.1696590272358
 42
1.303223041599867
 10
138.8995330340447
 20
209.4866470272357
 42
-0.2679482664650786
 10
139.1495320340447
 20
209.0536360272358
 10
139.1495350340447
 20
203.9196710272358
 10
136.1495630340447
 20
203.9196710272358
 10
136.1495630340447
 20
205.1946650272359
 10
132.1495350340447
 20
205.1946650272359
 10
132.1495350340447
 20
203.9196710272358
 10
129.1495350340447
 20
203.9196710272358
 10
129.1495350340447
 20
200.7196600272358
 10
132.1495350340447
 20
200.7196600272358
 10
132.1495350340447
 20
199.4446650272358
 10
136.1495630340447
 20
199.4446650272358
 10
136.1495630340447
 20
200.7196600272358
 10
139.1495350340447
 20
200.7196600272358
 10
139.1495350340447
 20
195.5856660272359
 42
-0.2679491924309991
 10
138.8995350340447
 20
195.1526530272358
 42
1.303223041599919
 10
139.5825470340447
 20
194.4696390272359
 42
-0.267948266465009
 10
140.0155590340447
 20
194.719638027236
 10
141.6495870340447
 20
194.7196380272359
 42
-0.4142135623730284
 10
142.1495870340447
 20
194.2196380272359
 10
142.1495870340447
 20
189.2196400272359
 42
-0.4142135623729951
 10
141.6495870340446
 20
188.7196400272359
 10
140.0155610340447
 20
188.7196430272358
 42
-0.2679491924309951
 10
139.5825480340447
 20
188.9696430272358
 42
1.303223041599953
 10
138.8995330340447
 20
188.2866310272358
 42
-0.2679482664650946
 10
139.1495320340447
 20
187.8536200272358
 10
139.1495350340447
 20
96.78567802723582
 42
-0.2679491924310134
 10
138.8995350340447
 20
96.35266502723589
 42
1.303223041599729
 10
139.5825470340446
 20
95.66965102723572
 42
-0.2679482664649307
 10
140.0155590340447
 20
95.91965002723582
 10
141.6495870340447
 20
95.9196500272358
 42
-0.4142135623729868
 10
142.1495870340446
 20
95.41965002723582
 10
142.1495870340447
 20
90.41965302723582
 42
-0.4142135623729951
 10
141.6495870340446
 20
89.91965302723582
 10
140.0155610340447
 20
89.9196560272359
 42
-0.2679491924310155
 10
139.5825480340446
 20
90.16965602723582
 42
1.303223041599712
 10
138.8995330340447
 20
89.48664402723583
 42
-0.2679482664650227
 10
139.1495320340447
 20
89.05363202723572
 10
139.1495350340447
 20
83.91966702723577
 10
136.1495630340447
 20
83.91966702723577
 10
136.1495630340447
 20
85.19466102723577
 10
132.1495350340447
 20
85.19466102723577
 10
132.1495350340447
 20
83.91966702723577
 10
129.1495350340447
 20
83.91966702723577
 10
129.1495350340447
 20
80.71965602723587
 10
132.1495350340447
 20
80.71965602723587
 10
132.1495350340447
 20
79.44466102723588
 10
136.1495630340447
 20
79.44466102723588
 10
136.1495630340447
 20
80.71965602723587
 10
139.1495350340447
 20
80.71965602723587
 10
139.1495350340447
 20
75.58566202723578
 42
-0.2679491924309872
 10
138.8995350340447
 20
75.15264902723584
 42
1.303223041600282
 10
139.5825470340449
 20
74.46963502723575
 42
-0.2679482664649988
 10
140.0155590340447
 20
74.71963402723581
 10
141.6495870340447
 20
74.71963402723581
 42
-0.4142135623729785
 10
142.1495870340446
 20
74.21963402723578
 10
142.1495870340447
 20
69.21963602723581
 42
-0.4142135623729785
 10
141.6495870340446
 20
68.71963602723578
 10
140.0155610340447
 20
68.7196390272358
 42
-0.2679491924309917
 10
139.5825480340446
 20
68.96963902723583
 42
1.303223041600012
 10
138.8995330340447
 20
68.28662702723578
 42
-0.2679482664650072
 10
139.1495320340447
 20
67.85361602723582
 10
139.1495320340447
 20
57.85361602723575
 10
139.1495350340447
 20
46.78567802723578
 42
-0.2679491924310215
 10
138.8995350340447
 20
46.35266502723581
 42
1.303223041600013
 10
139.5825470340446
 20
45.66965102723578
 42
-0.2679482664649971
 10
140.0155590340446
 20
45.91965002723585
 10
355.6496100340447
 20
45.91965002723581
 42
-0.4142135623730284
 10
356.1496180340448
 20
45.41965002723581
 10
356.1496180340446
 20
40.4196530272358
 42
-0.4142135623730326
 10
355.6496180340446
 20
39.91965302723592
 10
354.0155920340447
 20
39.9196560272358
 42
-0.2679491924309955
 10
353.5825790340447
 20
40.1696560272359
 42
1.303223041599835
 10
352.8995640340447
 20
39.48664402723594
 42
-0.267948266465036
 10
353.1495630340447
 20
39.05363202723581
 10
353.1495660340447
 20
33.91966702723576
 10
350.1495940340447
 20
33.91966702723576
 10
350.1495940340447
 20
35.19466102723576
 10
346.1495660340447
 20
35.19466102723576
 10
346.1495660340447
 20
33.91966702723576
 10
343.1495660340447
 20
33.91966702723576
 10
343.1495660340447
 20
30.71965602723575
 10
346.1495660340447
 20
30.71965602723575
 10
346.1495660340447
 20
29.44466102723576
 10
350.1495940340447
 20
29.44466102723576
 10
350.1495940340447
 20
30.71965602723575
 10
353.1495660340447
 20
30.71965602723575
 10
353.1495660340447
 20
25.58566202723577
 42
-0.2679491924309881
 10
352.8995660340447
 20
25.15264902723578
 42
1.303223029819821
 10
353.5825780340446
 20
24.46963502723581
 42
-0.2679482664649969
 10
354.0155900340447
 20
24.71963402723577
 10
355.6496180340446
 20
24.71963402723576
 42
-0.414213562373018
 10
356.1496180340446
 20
24.21963402723577
 10
356.1496180340446
 20
19.2196360272358
 42
-0.414213562373018
 10
355.6496180340446
 20
18.71963602723581
 10
355.6496180340446
 20
18.71963602723574
 10
140.0155610340447
 20
18.71963902723579
 42
-0.267949192431002
 10
139.5825480340446
 20
18.96963902723577
 42
1.303223041599926
 10
138.8995330340447
 20
18.28662702723578
 42
-0.2679482664650527
 10
139.1495320340447
 20
17.85361602723579
 10
139.1495350340447
 20
9.319652027235785
 10
37.14953703404468
 20
9.319652027235785
 10
35.14953303404469
 20
7.319652027235785
 10
9.149565034044731
 20
7.319652027235785
 10
9.149566034044728
 20
17.85361602723575
 42
-0.2679482804949962
 10
9.399564034044714
 20
18.28662802723577
 42
1.303223041599969
 10
8.716550034044655
 20
18.96963902723576
 42
-0.2679491924310053
 10
8.283538034044636
 20
18.71963902723576
 10
6.64951103404464
 20
18.7196360272358
 42
-0.4142135623729946
 10
6.149511034044666
 20
19.21963602723577
 10
6.14951103404464
 20
24.21963402723581
 42
-0.4142135623730034
 10
6.649511034044668
 20
24.71963402723577
 10
8.283540034044702
 20
24.71963402723581
 42
-0.2679482664650081
 10
8.716552034044678
 20
24.46963502723577
 42
1.30322304160005
 10
9.399563034044771
 20
25.1526490272358
 42
-0.2679491924309956
 10
9.149563034044679
 20
25.58566202723581
 10
9.149563034044736
 20
30.71965602723575
 10
12.14953503404469
 20
30.71965602723575
 10
12.14953503404469
 20
29.44466102723576
 10
16.14956303404474
 20
29.44466102723576
 10
16.14956303404474
 20
30.71965602723575
 10
19.14956303404474
 20
30.71965602723575
 10
19.14956303404474
 20
33.91966702723576
 10
16.14956303404474
 20
33.91966702723576
 10
16.14956303404474
 20
35.19466102723576
 10
12.14953503404469
 20
35.19466102723576
 10
12.14953503404469
 20
33.91966702723576
 10
9.149563034044736
 20
33.91966702723576
 10
9.149566034044726
 20
39.05363202723575
 42
-0.2679482664650084
 10
9.39956403404465
 20
39.4866440272358
 42
1.303223041600027
 10
8.716550034044653
 20
40.16965602723576
 42
-0.2679491924310043
 10
8.283538034044636
 20
39.91965602723576
 10
6.64951103404464
 20
39.9196530272358
 42
-0.4142135623729998
 10
6.149511034044667
 20
40.41965302723577
 10
6.14951103404464
 20
45.41965002723581
 42
-0.4142135623729951
 10
6.649511034044668
 20
45.91965002723578
 10
8.283540034044702
 20
45.91965002723581
 42
-0.2679482664650005
 10
8.716552034044721
 20
45.66965102723575
 42
1.303223041599982
 10
9.399563034044652
 20
46.35266502723577
 42
-0.2679491924310026
 10
9.149563034044677
 20
46.78567802723578
 10
9.149563034044736
 20
51.27010002723578
 10
9.149563034044736
 20
51.77014102723579
 10
9.648952034044687
 20
51.77010002723578
  0
ENDSEC
  0
SECTION
  2
OBJECTS
  0
DICTIONARY
  5
C
330
0
100
AcDbDictionary
281
    1
  3
ACAD_GROUP
350
D
  0
DICTIONARY
  5
D
330
C
100
AcDbDictionary
281
    1
  0
ENDSEC
  0
EOF
