999
dxfrw 0.6.3
  0
SECTION
  2
HEADER
  9
$ACADVER
  1
AC1021
  9
$DWGCODEPAGE
  3
ANSI_1252
  9
$INSBASE
 10
0
 20
0
 30
0
  9
$EXTMIN
 10
32.19495980372184
 20
-6.051654020283586
 30
0
  9
$EXTMAX
 10
251.0944543268174
 20
212.8478403563656
 30
0
  9
$LIMMIN
 10
0
 20
0
  9
$LIMMAX
 10
420
 20
297
  9
$ORTHOMODE
 70
    0
  9
$REGENMODE
 70
    1
  9
$FILLMODE
 70
    1
  9
$QTEXTMODE
 70
    0
  9
$MIRRTEXT
 70
    0
  9
$LTSCALE
 40
1
  9
$ATTMODE
 70
    0
  9
$TEXTSIZE
 40
2.5
  9
$TRACEWID
 40
15.68
  9
$TEXTSTYLE
  7
STANDARD
  9
$CLAYER
  8
0
  9
$CELTYPE
  6
BYLAYER
  9
$CECOLOR
 62
  256
  9
$CELTSCALE
 40
1
  9
$DISPSILH
 70
    0
  9
$DIMSCALE
 40
2.5
  9
$DIMASZ
 40
2.5
  9
$DIMEXO
 40
0.625
  9
$DIMDLI
 40
3.75
  9
$DIMRND
 40
0
  9
$DIMDLE
 40
0
  9
$DIMEXE
 40
1.25
  9
$DIMTP
 40
0
  9
$DIMTM
 40
0
  9
$DIMTXT
 40
2.5
  9
$DIMCEN
 40
2.5
  9
$DIMTSZ
 40
0
  9
$DIMTOL
 70
    0
  9
$DIMLIM
 70
    0
  9
$DIMTIH
 70
    0
  9
$DIMTOH
 70
    0
  9
$DIMSE1
 70
    0
  9
$DIMSE2
 70
    0
  9
$DIMTAD
 70
    1
  9
$DIMZIN
 70
    8
  9
$DIMBLK
  1

  9
$DIMASO
 70
    1
  9
$DIMSHO
 70
    1
  9
$DIMPOST
  1

  9
$DIMAPOST
  1

  9
$DIMALT
 70
    0
  9
$DIMALTD
 70
    3
  9
$DIMALTF
 40
0.03937
  9
$DIMLFAC
 40
1
  9
$DIMTOFL
 70
    1
  9
$DIMTVP
 40
0
  9
$DIMTIX
 70
    0
  9
$DIMSOXD
 70
    0
  9
$DIMSAH
 70
    0
  9
$DIMBLK1
  1

  9
$DIMBLK2
  1

  9
$DIMSTYLE
  2
STANDARD
  9
$DIMCLRD
 70
    0
  9
$DIMCLRE
 70
    0
  9
$DIMCLRT
 70
    0
  9
$DIMTFAC
 40
1
  9
$DIMGAP
 40
0.625
  9
$DIMJUST
 70
    0
  9
$DIMSD1
 70
    0
  9
$DIMSD2
 70
    0
  9
$DIMTOLJ
 70
    0
  9
$DIMTZIN
 70
    8
  9
$DIMALTZ
 70
    0
  9
$DIMALTTZ
 70
    0
  9
$DIMUPT
 70
    0
  9
$DIMDEC
 70
    2
  9
$DIMTDEC
 70
    2
  9
$DIMALTU
 70
    2
  9
$DIMALTTD
 70
    3
  9
$DIMTXSTY
  7
STANDARD
  9
$DIMAUNIT
 70
    0
  9
$DIMADEC
 70
    0
  9
$DIMALTRND
 40
0
  9
$DIMAZIN
 70
    0
  9
$DIMDSEP
 70
   44
  9
$DIMATFIT
 70
    3
  9
$DIMFRAC
 70
    0
  9
$DIMLDRBLK
  1
STANDARD
  9
$DIMLUNIT
 70
    2
  9
$DIMLWD
 70
   -2
  9
$DIMLWE
 70
   -2
  9
$DIMTMOVE
 70
    0
  9
$DIMFXL
 40
1
  9
$DIMFXLON
 70
    0
  9
$DIMJOGANG
 40
0.7854
  9
$DIMTFILL
 70
    0
  9
$DIMTFILLCLR
 70
    0
  9
$DIMARCSYM
 70
    0
  9
$DIMLTYPE
  6

  9
$DIMLTEX1
  6

  9
$DIMLTEX2
  6

  9
$LUNITS
 70
    2
  9
$LUPREC
 70
    4
  9
$SKETCHINC
 40
1
  9
$FILLETRAD
 40
0
  9
$AUNITS
 70
    0
  9
$AUPREC
 70
    2
  9
$MENU
  1
.
  9
$ELEVATION
 40
0
  9
$PELEVATION
 40
0
  9
$THICKNESS
 40
0
  9
$LIMCHECK
 70
    0
  9
$CHAMFERA
 40
0
  9
$CHAMFERB
 40
0
  9
$CHAMFERC
 40
0
  9
$CHAMFERD
 40
0
  9
$SKPOLY
 70
    0
  9
$USRTIMER
 70
    1
  9
$ANGBASE
 50
0
  9
$ANGDIR
 70
    0
  9
$PDMODE
 70
   34
  9
$PDSIZE
 40
0
  9
$PLINEWID
 40
0
  9
$SPLFRAME
 70
    0
  9
$SPLINETYPE
 70
    2
  9
$SPLINESEGS
 70
    8
  9
$HANDSEED
  5
20000
  9
$SURFTAB1
 70
    6
  9
$SURFTAB2
 70
    6
  9
$SURFTYPE
 70
    6
  9
$SURFU
 70
    6
  9
$SURFV
 70
    6
  9
$UCSBASE
  2

  9
$UCSNAME
  2

  9
$UCSORG
 10
0
 20
0
 30
0
  9
$UCSXDIR
 10
1
 20
0
 30
0
  9
$UCSYDIR
 10
0
 20
1
 30
0
  9
$UCSORTHOREF
  2

  9
$UCSORTHOVIEW
 70
    0
  9
$UCSORGTOP
 10
0
 20
0
 30
0
  9
$UCSORGBOTTOM
 10
0
 20
0
 30
0
  9
$UCSORGLEFT
 10
0
 20
0
 30
0
  9
$UCSORGRIGHT
 10
0
 20
0
 30
0
  9
$UCSORGFRONT
 10
0
 20
0
 30
0
  9
$UCSORGBACK
 10
0
 20
0
 30
0
  9
$PUCSBASE
  2

  9
$PUCSNAME
  2

  9
$PUCSORG
 10
0
 20
0
 30
0
  9
$PUCSXDIR
 10
1
 20
0
 30
0
  9
$PUCSYDIR
 10
0
 20
1
 30
0
  9
$PUCSORTHOREF
  2

  9
$PUCSORTHOVIEW
 70
    0
  9
$PUCSORGTOP
 10
0
 20
0
 30
0
  9
$PUCSORGBOTTOM
 10
0
 20
0
 30
0
  9
$PUCSORGLEFT
 10
0
 20
0
 30
0
  9
$PUCSORGRIGHT
 10
0
 20
0
 30
0
  9
$PUCSORGFRONT
 10
0
 20
0
 30
0
  9
$PUCSORGBACK
 10
0
 20
0
 30
0
  9
$USERI1
 70
    0
  9
$USERI2
 70
    0
  9
$USERI3
 70
    0
  9
$USERI4
 70
    0
  9
$USERI5
 70
    0
  9
$USERR1
 40
0
  9
$USERR2
 40
0
  9
$USERR3
 40
0
  9
$USERR4
 40
0
  9
$USERR5
 40
0
  9
$WORLDVIEW
 70
    1
  9
$SHADEDGE
 70
    3
  9
$SHADEDIF
 70
   70
  9
$TILEMODE
 70
    1
  9
$MAXACTVP
 70
   64
  9
$PINSBASE
 10
0
 20
0
 30
0
  9
$PLIMCHECK
 70
    0
  9
$PEXTMIN
 10
0
 20
0
 30
0
  9
$PEXTMAX
 10
0
 20
0
 30
0
  9
$GRIDMODE
 70
    1
  9
$SNAPSTYLE
 70
    0
  9
$PLIMMIN
 10
0
 20
0
  9
$PLIMMAX
 10
420
 20
297
  9
$UNITMODE
 70
    0
  9
$VISRETAIN
 70
    1
  9
$PLINEGEN
 70
    0
  9
$PSLTSCALE
 70
    1
  9
$TREEDEPTH
 70
 3020
  9
$CMLSTYLE
  2
Standard
  9
$CMLJUST
 70
    0
  9
$CMLSCALE
 40
20
  9
$PROXYGRAPHICS
 70
    1
  9
$MEASUREMENT
 70
    1
  9
$CELWEIGHT
370
   -1
  9
$ENDCAPS
280
    0
  9
$JOINSTYLE
280
    0
  9
$LWDISPLAY
290
    0
  9
$INSUNITS
 70
    0
  9
$HYPERLINKBASE
  1

  9
$STYLESHEET
  1

  9
$XEDIT
290
    1
  9
$CEPSNTYPE
380
    0
  9
$PSTYLEMODE
290
    1
  9
$EXTNAMES
290
    1
  9
$PSVPSCALE
 40
1
  9
$OLESTARTUP
290
    0
  9
$SORTENTS
280
  127
  9
$INDEXCTL
280
    0
  9
$HIDETEXT
280
    1
  9
$XCLIPFRAME
290
    0
  9
$HALOGAP
280
    0
  9
$OBSCOLOR
 70
  257
  9
$OBSLTYPE
280
    0
  9
$INTERSECTIONDISPLAY
280
    0
  9
$INTERSECTIONCOLOR
 70
  257
  9
$DIMASSOC
280
    1
  9
$PROJECTNAME
  1

  9
$CAMERADISPLAY
290
    0
  9
$LENSLENGTH
 40
50
  9
$CAMERAHEIGHT
 40
0
  9
$STEPSPERSEC
 40
2
  9
$STEPSIZE
 40
50
  9
$3DDWFPREC
 40
2
  9
$PSOLWIDTH
 40
5
  9
$PSOLHEIGHT
 40
80
  9
$LOFTANG1
 40
1.570796326794897
  9
$LOFTANG2
 40
1.570796326794897
  9
$LOFTMAG1
 40
0
  9
$LOFTMAG2
 40
0
  9
$LOFTPARAM
 70
    7
  9
$LOFTNORMALS
280
    1
  9
$LATITUDE
 40
1
  9
$LONGITUDE
 40
1
  9
$NORTHDIRECTION
 40
0
  9
$TIMEZONE
 70
-8000
  9
$LIGHTGLYPHDISPLAY
280
    1
  9
$TILEMODELIGHTSYNCH
280
    1
  9
$SOLIDHIST
280
    1
  9
$SHOWHIST
280
    1
  9
$DWFFRAME
280
    2
  9
$DGNFRAME
280
    0
  9
$REALWORLDSCALE
290
    1
  9
$INTERFERECOLOR
 62
    1
  9
$CSHADOW
280
    0
  9
$SHADOWPLANELOCATION
 40
0
  0
ENDSEC
  0
SECTION
  2
CLASSES
  0
ENDSEC
  0
SECTION
  2
TABLES
  0
TABLE
  2
VPORT
  5
8
330
0
100
AcDbSymbolTable
 70
    1
  0
VPORT
  5
31
330
2
100
AcDbSymbolTableRecord
100
AcDbViewportTableRecord
  2
*ACTIVE
 70
    0
 10
0
 20
0
 11
1
 21
1
 12
208.4023278407503
 22
132.4858390914961
 13
0
 23
0
 14
10
 24
10
 15
10
 25
10
 16
0
 26
0
 36
1
 17
0
 27
0
 37
0
 40
300.7218252394277
 41
1.853146853146853
 42
50
 43
0
 44
0
 50
0
 51
0
 71
    0
 72
  100
 73
    1
 74
    3
 75
    0
 76
    1
 77
    0
 78
    0
281
    0
 65
    1
110
0
120
0
130
0
111
1
121
0
131
0
112
0
122
1
132
0
 79
    0
146
0
348
10020
 60
    7
 61
    5
292
1
282
    1
141
0
142
0
 63
  250
421
3358443
  0
ENDTAB
  0
TABLE
  2
LTYPE
  5
5
330
0
100
AcDbSymbolTable
 70
    4
  0
LTYPE
  5
14
330
5
100
AcDbSymbolTableRecord
100
AcDbLinetypeTableRecord
  2
ByBlock
 70
    0
  3

 72
   65
 73
    0
 40
0
  0
LTYPE
  5
15
330
5
100
AcDbSymbolTableRecord
100
AcDbLinetypeTableRecord
  2
ByLayer
 70
    0
  3

 72
   65
 73
    0
 40
0
  0
LTYPE
  5
16
330
5
100
AcDbSymbolTableRecord
100
AcDbLinetypeTableRecord
  2
Continuous
 70
    0
  3
Solid line
 72
   65
 73
    0
 40
0
  0
LTYPE
  5
32
330
5
100
AcDbSymbolTableRecord
100
AcDbLinetypeTableRecord
  2
DOT
 70
    0
  3
Dot . . . . . . . . . . . . . . . . . . . . . .
 72
   65
 73
    2
 40
6.35
 49
0
 74
    0
 49
-6.35
 74
    0
  0
LTYPE
  5
33
330
5
100
AcDbSymbolTableRecord
100
AcDbLinetypeTableRecord
  2
DOTTINY
 70
    0
  3
Dot (.15x) .....................................
 72
   65
 73
    2
 40
0.9525
 49
0
 74
    0
 49
-0.9525
 74
    0
  0
LTYPE
  5
34
330
5
100
AcDbSymbolTableRecord
100
AcDbLinetypeTableRecord
  2
DOT2
 70
    0
  3
Dot (.5x) .....................................
 72
   65
 73
    2
 40
3.175
 49
0
 74
    0
 49
-3.175
 74
    0
  0
LTYPE
  5
35
330
5
100
AcDbSymbolTableRecord
100
AcDbLinetypeTableRecord
  2
DOTX2
 70
    0
  3
Dot (2x) .  .  .  .  .  .  .  .  .  .  .  .  .
 72
   65
 73
    2
 40
12.7
 49
0
 74
    0
 49
-12.7
 74
    0
  0
LTYPE
  5
36
330
5
100
AcDbSymbolTableRecord
100
AcDbLinetypeTableRecord
  2
DASHED
 70
    0
  3
Dashed _ _ _ _ _ _ _ _ _ _ _ _ _ _ _ _ _
 72
   65
 73
    2
 40
19.05
 49
12.7
 74
    0
 49
-6.35
 74
    0
  0
LTYPE
  5
37
330
5
100
AcDbSymbolTableRecord
100
AcDbLinetypeTableRecord
  2
DASHEDTINY
 70
    0
  3
Dashed (.15x) _ _ _ _ _ _ _ _ _ _ _ _ _ _ _ _ _
 72
   65
 73
    2
 40
2.8575
 49
1.905
 74
    0
 49
-0.9525
 74
    0
  0
LTYPE
  5
38
330
5
100
AcDbSymbolTableRecord
100
AcDbLinetypeTableRecord
  2
DASHED2
 70
    0
  3
Dashed (.5x) _ _ _ _ _ _ _ _ _ _ _ _ _ _ _ _ _
 72
   65
 73
    2
 40
9.524999999999999
 49
6.35
 74
    0
 49
-3.175
 74
    0
  0
LTYPE
  5
39
330
5
100
AcDbSymbolTableRecord
100
AcDbLinetypeTableRecord
  2
DASHEDX2
 70
    0
  3
Dashed (2x) ____  ____  ____  ____  ____  ___
 72
   65
 73
    2
 40
38.09999999999999
 49
25.4
 74
    0
 49
-12.7
 74
    0
  0
LTYPE
  5
3A
330
5
100
AcDbSymbolTableRecord
100
AcDbLinetypeTableRecord
  2
DASHDOT
 70
    0
  3
Dash dot __ . __ . __ . __ . __ . __ . __ . __
 72
   65
 73
    4
 40
25.4
 49
12.7
 74
    0
 49
-6.35
 74
    0
 49
0
 74
    0
 49
-6.35
 74
    0
  0
LTYPE
  5
3B
330
5
100
AcDbSymbolTableRecord
100
AcDbLinetypeTableRecord
  2
DASHDOTTINY
 70
    0
  3
Dash dot (.15x) _._._._._._._._._._._._._._._.
 72
   65
 73
    4
 40
3.81
 49
1.905
 74
    0
 49
-0.9525
 74
    0
 49
0
 74
    0
 49
-0.9525
 74
    0
  0
LTYPE
  5
3C
330
5
100
AcDbSymbolTableRecord
100
AcDbLinetypeTableRecord
  2
DASHDOT2
 70
    0
  3
Dash dot (.5x) _._._._._._._._._._._._._._._.
 72
   65
 73
    4
 40
12.7
 49
6.35
 74
    0
 49
-3.175
 74
    0
 49
0
 74
    0
 49
-3.175
 74
    0
  0
LTYPE
  5
3D
330
5
100
AcDbSymbolTableRecord
100
AcDbLinetypeTableRecord
  2
DASHDOTX2
 70
    0
  3
Dash dot (2x) ____  .  ____  .  ____  .  ___
 72
   65
 73
    4
 40
50.8
 49
25.4
 74
    0
 49
-12.7
 74
    0
 49
0
 74
    0
 49
-12.7
 74
    0
  0
LTYPE
  5
3E
330
5
100
AcDbSymbolTableRecord
100
AcDbLinetypeTableRecord
  2
DIVIDE
 70
    0
  3
Divide ____ . . ____ . . ____ . . ____ . . ____
 72
   65
 73
    6
 40
31.75
 49
12.7
 74
    0
 49
-6.35
 74
    0
 49
0
 74
    0
 49
-6.35
 74
    0
 49
0
 74
    0
 49
-6.35
 74
    0
  0
LTYPE
  5
3F
330
5
100
AcDbSymbolTableRecord
100
AcDbLinetypeTableRecord
  2
DIVIDETINY
 70
    0
  3
Divide (.15x) __..__..__..__..__..__..__..__.._
 72
   65
 73
    6
 40
4.7625
 49
1.905
 74
    0
 49
-0.9525
 74
    0
 49
0
 74
    0
 49
-0.9525
 74
    0
 49
0
 74
    0
 49
-0.9525
 74
    0
  0
LTYPE
  5
40
330
5
100
AcDbSymbolTableRecord
100
AcDbLinetypeTableRecord
  2
DIVIDE2
 70
    0
  3
Divide (.5x) __..__..__..__..__..__..__..__.._
 72
   65
 73
    6
 40
15.875
 49
6.35
 74
    0
 49
-3.175
 74
    0
 49
0
 74
    0
 49
-3.175
 74
    0
 49
0
 74
    0
 49
-3.175
 74
    0
  0
LTYPE
  5
41
330
5
100
AcDbSymbolTableRecord
100
AcDbLinetypeTableRecord
  2
DIVIDEX2
 70
    0
  3
Divide (2x) ________  .  .  ________  .  .  _
 72
   65
 73
    6
 40
63.5
 49
25.4
 74
    0
 49
-12.7
 74
    0
 49
0
 74
    0
 49
-12.7
 74
    0
 49
0
 74
    0
 49
-12.7
 74
    0
  0
LTYPE
  5
42
330
5
100
AcDbSymbolTableRecord
100
AcDbLinetypeTableRecord
  2
BORDER
 70
    0
  3
Border __ __ . __ __ . __ __ . __ __ . __ __ .
 72
   65
 73
    6
 40
44.45
 49
12.7
 74
    0
 49
-6.35
 74
    0
 49
12.7
 74
    0
 49
-6.35
 74
    0
 49
0
 74
    0
 49
-6.35
 74
    0
  0
LTYPE
  5
43
330
5
100
AcDbSymbolTableRecord
100
AcDbLinetypeTableRecord
  2
BORDERTINY
 70
    0
  3
Border (.15x) __.__.__.__.__.__.__.__.__.__.__.
 72
   65
 73
    6
 40
6.6675
 49
1.905
 74
    0
 49
-0.9525
 74
    0
 49
1.905
 74
    0
 49
-0.9525
 74
    0
 49
0
 74
    0
 49
-0.9525
 74
    0
  0
LTYPE
  5
44
330
5
100
AcDbSymbolTableRecord
100
AcDbLinetypeTableRecord
  2
BORDER2
 70
    0
  3
Border (.5x) __.__.__.__.__.__.__.__.__.__.__.
 72
   65
 73
    6
 40
22.225
 49
6.35
 74
    0
 49
-3.175
 74
    0
 49
6.35
 74
    0
 49
-3.175
 74
    0
 49
0
 74
    0
 49
-3.175
 74
    0
  0
LTYPE
  5
45
330
5
100
AcDbSymbolTableRecord
100
AcDbLinetypeTableRecord
  2
BORDERX2
 70
    0
  3
Border (2x) ____  ____  .  ____  ____  .  ___
 72
   65
 73
    6
 40
88.89999999999999
 49
25.4
 74
    0
 49
-12.7
 74
    0
 49
25.4
 74
    0
 49
-12.7
 74
    0
 49
0
 74
    0
 49
-12.7
 74
    0
  0
LTYPE
  5
46
330
5
100
AcDbSymbolTableRecord
100
AcDbLinetypeTableRecord
  2
CENTER
 70
    0
  3
Center ____ _ ____ _ ____ _ ____ _ ____ _ ____
 72
   65
 73
    4
 40
50.8
 49
31.75
 74
    0
 49
-6.35
 74
    0
 49
6.35
 74
    0
 49
-6.35
 74
    0
  0
LTYPE
  5
47
330
5
100
AcDbSymbolTableRecord
100
AcDbLinetypeTableRecord
  2
CENTERTINY
 70
    0
  3
Center (.15x) ___ _ ___ _ ___ _ ___ _ ___ _ ___
 72
   65
 73
    4
 40
7.619999999999999
 49
4.7625
 74
    0
 49
-0.9525
 74
    0
 49
0.9525
 74
    0
 49
-0.9525
 74
    0
  0
LTYPE
  5
48
330
5
100
AcDbSymbolTableRecord
100
AcDbLinetypeTableRecord
  2
CENTER2
 70
    0
  3
Center (.5x) ___ _ ___ _ ___ _ ___ _ ___ _ ___
 72
   65
 73
    4
 40
28.575
 49
19.05
 74
    0
 49
-3.175
 74
    0
 49
3.175
 74
    0
 49
-3.175
 74
    0
  0
LTYPE
  5
49
330
5
100
AcDbSymbolTableRecord
100
AcDbLinetypeTableRecord
  2
CENTERX2
 70
    0
  3
Center (2x) ________  __  ________  __  _____
 72
   65
 73
    4
 40
101.6
 49
63.5
 74
    0
 49
-12.7
 74
    0
 49
12.7
 74
    0
 49
-12.7
 74
    0
  0
ENDTAB
  0
TABLE
  2
LAYER
  5
2
330
0
100
AcDbSymbolTable
 70
    1
  0
LAYER
  5
10
330
2
100
AcDbSymbolTableRecord
100
AcDbLayerTableRecord
  2
0
 70
    0
 62
    7
  6
CONTINUOUS
370
   -3
390
F
  0
ENDTAB
  0
TABLE
  2
STYLE
  5
3
330
0
100
AcDbSymbolTable
 70
    3
  0
STYLE
  5
4A
330
2
100
AcDbSymbolTableRecord
100
AcDbTextStyleTableRecord
  2
Standard
 70
    0
 40
0
 41
1
 50
0
 71
    0
 42
1
  3
txt
  4

  0
ENDTAB
  0
TABLE
  2
VIEW
  5
6
330
0
100
AcDbSymbolTable
 70
    0
  0
ENDTAB
  0
TABLE
  2
UCS
  5
7
330
0
100
AcDbSymbolTable
 70
    0
  0
ENDTAB
  0
TABLE
  2
APPID
  5
9
330
0
100
AcDbSymbolTable
 70
    1
  0
APPID
  5
12
330
9
100
AcDbSymbolTableRecord
100
AcDbRegAppTableRecord
  2
ACAD
 70
    0
  0
APPID
  5
4B
330
9
100
AcDbSymbolTableRecord
100
AcDbRegAppTableRecord
  2
LibreCad
 70
    0
  0
ENDTAB
  0
TABLE
  2
DIMSTYLE
  5
A
330
0
100
AcDbSymbolTable
 70
    1
100
AcDbDimStyleTable
 71
    1
  0
DIMSTYLE
105
4C
330
A
100
AcDbSymbolTableRecord
100
AcDbDimStyleTableRecord
  2
Standard
 70
    0
 40
2.5
 41
2.5
 42
0.625
 43
0.38
 44
1.25
 45
0
 46
0
 47
0
 48
0
 49
1
140
2.5
141
0.09
142
0
143
25.4
144
1
145
0
146
1
147
0.625
148
0
 71
    0
 72
    0
 73
    0
 74
    1
 75
    0
 76
    0
 77
    0
 78
    8
 79
    0
170
    0
171
    2
172
    0
173
    0
174
    0
175
    0
176
    0
177
    0
178
    0
179
    0
271
    2
272
    4
273
    2
274
    2
275
    0
276
    0
277
    2
278
   44
279
    0
280
    0
281
    0
282
    0
283
    1
284
    0
285
    0
286
    0
288
    0
289
    3
340
STANDARD
341

371
   -2
372
   -2
  0
ENDTAB
  0
TABLE
  2
BLOCK_RECORD
  5
1
330
0
100
AcDbSymbolTable
 70
    2
  0
BLOCK_RECORD
  5
1F
330
1
100
AcDbSymbolTableRecord
100
AcDbBlockTableRecord
  2
*Model_Space
 70
    0
280
    1
281
    0
  0
BLOCK_RECORD
  5
1E
330
1
100
AcDbSymbolTableRecord
100
AcDbBlockTableRecord
  2
*Paper_Space
 70
    0
280
    1
281
    0
  0
ENDTAB
  0
ENDSEC
  0
SECTION
  2
BLOCKS
  0
BLOCK
  5
20
330
1F
100
AcDbEntity
  8
0
100
AcDbBlockBegin
  2
*Model_Space
 70
    0
 10
0
 20
0
 30
0
  3
*Model_Space
  1

  0
ENDBLK
  5
21
330
1F
100
AcDbEntity
  8
0
100
AcDbBlockEnd
  0
BLOCK
  5
1C
330
1B
100
AcDbEntity
  8
0
100
AcDbBlockBegin
  2
*Paper_Space
 70
    0
 10
0
 20
0
 30
0
  3
*Paper_Space
  1

  0
ENDBLK
  5
1D
330
1F
100
AcDbEntity
  8
0
100
AcDbBlockEnd
  0
ENDSEC
  0
SECTION
  2
ENTITIES
  0
LWPOLYLINE
  5
4D
100
AcDbEntity
  8
0
  6
ByLayer
 62
    0
370
   -1
100
AcDbPolyline
 90
   16
 70
    1
 43
0
 10
164.3447462420462
 20
192.4649804180408
 42
-1.303223041600025
 10
165.0277602420463
 20
193.1479944180408
 42
0.2679482664649709
 10
165.4607712420462
 20
192.8979954180408
 10
187.8287242420462
 20
192.8979764180408
 42
0.267948266465023
 10
188.2617352420463
 20
193.1479754180408
 42
-1.303223041599877
 10
188.9447472420462
 20
192.4649594180407
 42
0.2679491924499873
 10
188.6947472420462
 20
192.0319474180408
 10
188.6947442420462
 20
184.7639854180408
 42
0.2679482664460147
 10
188.9447422420462
 20
184.3309744180408
 42
-1.303223041600024
 10
188.2617282420463
 20
183.6479624180408
 42
0.2679491924309989
 10
187.8287152420462
 20
183.8979634180408
 10
165.4607662420462
 20
183.8979824180408
 42
0.2679491924309779
 10
165.0277522420461
 20
183.6479824180408
 42
-1.303223041600519
 10
164.3447392420462
 20
184.3309944180408
 42
0.2679482664831036
 10
164.5947382420463
 20
184.7640064180408
 10
164.5947472420463
 20
192.0319664180408
 42
0.2679491924140252
  0
LWPOLYLINE
  5
4E
100
AcDbEntity
  8
0
  6
ByLayer
 62
    0
370
   -1
100
AcDbPolyline
 90
   16
 70
    1
 43
0
 10
94.59471424204617
 20
184.7640864180408
 10
94.59472324204637
 20
192.0320464180408
 42
0.2679491924140573
 10
94.34472224204629
 20
192.465060418041
 42
-1.303223041600015
 10
95.0277362420461
 20
193.1480744180407
 42
0.267948266465034
 10
95.46074724204618
 20
192.8980754180407
 10
117.8287002420462
 20
192.8980574180408
 42
0.2679482664649764
 10
118.2617112420461
 20
193.1480554180408
 42
-1.303223041600091
 10
118.9447232420462
 20
192.4650404180408
 42
0.2679491924499766
 10
118.6947232420462
 20
192.0320274180408
 10
118.6947202420462
 20
184.7640664180408
 42
0.2679482664469581
 10
118.9447182420462
 20
184.3310544180408
 42
-1.303223041600296
 10
118.2617042420461
 20
183.6480434180408
 42
0.2679491924309465
 10
117.8286912420463
 20
183.8980444180408
 10
95.46074224204619
 20
183.8980624180408
 42
0.2679491924310077
 10
95.02772824204625
 20
183.6480624180408
 42
-1.303223041600277
 10
94.34471524204616
 20
184.3310744180408
 42
0.2679482664829422
  0
LWPOLYLINE
  5
4F
100
AcDbEntity
  8
0
  6
ByLayer
 62
    0
370
   -1
100
AcDbPolyline
 90
   16
 70
    1
 43
0
 10
118.6946852420463
 20
14.76404841804083
 10
118.6946882420463
 20
22.03200941804081
 42
-0.2679482664650245
 10
118.9446862420463
 20
22.46502041804069
 42
1.303223041600212
 10
118.2616722420462
 20
23.14803241804083
 42
-0.2679491924309808
 10
117.8286602420462
 20
22.89803241804083
 10
95.46071124204627
 20
22.89803241804083
 42
-0.2679491924310077
 10
95.0276972420462
 20
23.14803241804083
 42
1.303223041600008
 10
94.34468324204624
 20
22.46502141804071
 42
-0.2679482664649182
 10
94.59468224204613
 20
22.03200941804081
 10
94.59468524204624
 20
14.76404841804083
 42
-0.2679491924309777
 10
94.34468524204624
 20
14.33103441804079
 42
1.303223041599928
 10
95.0276972420462
 20
13.6480204180408
 42
-0.2679482664650609
 10
95.46070924204616
 20
13.89801941804083
 10
117.8286622420462
 20
13.89801941804083
 42
-0.2679482664650411
 10
118.2616732420463
 20
13.64802041804086
 42
1.303223041599976
 10
118.9446852420463
 20
14.33103541804079
 42
-0.2679491924309769
  0
LWPOLYLINE
  5
50
100
AcDbEntity
  8
0
  6
ByLayer
 62
    0
370
   -1
100
AcDbPolyline
 90
   16
 70
    1
 43
0
 10
188.6947092420462
 20
14.76407141804083
 10
188.6947122420462
 20
22.03203241804081
 42
-0.2679482664649776
 10
188.9447102420462
 20
22.46504341804077
 42
1.303223041600156
 10
188.2616962420462
 20
23.14805541804081
 42
-0.2679491924309275
 10
187.8286842420462
 20
22.89805541804083
 10
165.4607352420462
 20
22.89805541804083
 42
-0.2679491924309877
 10
165.0277212420463
 20
23.14805541804085
 42
1.303223041600162
 10
164.3447072420462
 20
22.46504441804083
 42
-0.2679482664649772
 10
164.5947062420461
 20
22.03203241804081
 10
164.5947092420462
 20
14.76407141804083
 42
-0.2679491924309487
 10
164.3447092420462
 20
14.33105741804073
 42
1.303223041599606
 10
165.0277212420463
 20
13.64804341804083
 42
-0.2679482664650444
 10
165.4607332420462
 20
13.89804241804083
 10
187.8286862420463
 20
13.89804241804083
 42
-0.2679482664649919
 10
188.2616972420462
 20
13.64804341804084
 42
1.303223041599959
 10
188.9447092420462
 20
14.33105841804078
 42
-0.2679491924309923
  0
LWPOLYLINE
  5
51
100
AcDbEntity
  8
0
  6
ByLayer
 62
    0
370
   -1
100
AcDbPolyline
 90
    8
 70
    1
 43
0
 10
216.6447172420462
 20
162.2642834180408
 10
216.6447162420461
 20
44.53190141804083
 42
-0.6681785116629841
 10
205.3778112420462
 20
39.86499841804072
 10
174.5778102420462
 20
70.66499641804089
 42
-0.1989124670709967
 10
172.6447132420462
 20
75.33190241804081
 10
172.6447132420462
 20
131.4642814180408
 42
-0.1989124674019991
 10
174.5778102420462
 20
136.1311894180408
 10
205.3778112420462
 20
166.9311864180409
 42
-0.6681785116630079
  0
LWPOLYLINE
  5
52
100
AcDbEntity
  8
0
  6
ByLayer
 62
    0
370
   -1
100
AcDbPolyline
 90
   16
 70
    1
 43
0
 10
139.1299892420462
 20
83.39809341804082
 10
144.1594262420463
 20
83.39809341804082
 42
-0.1989123583079985
 10
148.4020672420462
 20
81.64073441804081
 10
164.8873482420462
 20
65.15545141804083
 42
-0.198912336057
 10
166.6447082420462
 20
60.91281141804083
 10
166.6447072420463
 20
45.88337341804083
 42
-0.1989123175149987
 10
164.8873482420461
 20
41.6407334180408
 10
148.4020672420462
 20
25.15545541804082
 42
-0.1989124853149958
 10
144.1594262420463
 20
23.39809441804081
 10
139.1299892420462
 20
23.39809541804081
 42
-0.1989124853149995
 10
134.8873482420462
 20
25.15545541804083
 10
118.4020652420462
 20
41.64073241804083
 42
-0.1989123175159992
 10
116.6447072420463
 20
45.88337341804083
 10
116.6447072420463
 20
60.91281041804083
 42
-0.1989123360590009
 10
118.4020662420462
 20
65.15545141804083
 10
134.8873482420462
 20
81.64073441804081
 42
-0.198912358308
  0
LWPOLYLINE
  5
53
100
AcDbEntity
  8
0
  6
ByLayer
 62
    0
370
   -1
100
AcDbPolyline
 90
   16
 70
    1
 43
0
 10
148.4020672420462
 20
125.1554514180408
 10
164.8873482420462
 20
141.6407344180408
 42
0.1989123360570018
 10
166.6447082420462
 20
145.8833254180408
 10
166.6447192420462
 20
160.9127634180408
 42
0.1989123175239974
 10
164.8873632420461
 20
165.1554044180408
 10
148.4020962420462
 20
181.6406954180408
 42
0.1989124853150006
 10
144.1594572420462
 20
183.3980604180408
 10
139.1300202420463
 20
183.3980634180408
 42
0.1989124853149995
 10
134.8873772420462
 20
181.6407074180408
 10
118.4020812420462
 20
165.1554424180408
 42
0.1989123174890007
 10
116.6447192420462
 20
160.9128044180408
 10
116.6447072420463
 20
145.8833744180408
 42
0.1989123360589999
 10
118.4020662420462
 20
141.6407344180408
 10
134.8873482420462
 20
125.1554524180407
 42
0.1989123583080022
 10
139.1299892420462
 20
123.3980924180407
 10
144.1594262420463
 20
123.3980924180409
 42
0.1989123583079973
  0
LWPOLYLINE
  5
54
100
AcDbEntity
  8
0
  6
ByLayer
 62
    0
370
   -1
100
AcDbPolyline
 90
    8
 70
    1
 43
0
 10
66.64469724204616
 20
44.53190241804083
 10
66.64469724204628
 20
162.2642834180408
 42
-0.6681785116599904
 10
77.91160224204623
 20
166.9311874180409
 10
108.7116022420462
 20
136.1311884180406
 42
-0.1989124670719964
 10
110.6447002420462
 20
131.4642834180408
 10
110.6447002420463
 20
75.33190341804081
 42
-0.1989124674019991
 10
108.7116032420462
 20
70.66499741804083
 10
77.91160224204623
 20
39.86499841804081
 42
-0.6681785116599978
  0
CIRCLE
  5
55
100
AcDbEntity
  8
0
  6
ByLayer
 62
    0
370
   -1
100
AcDbCircle
 10
246.1447072420463
 20
207.8980934180408
 40
1.6
  0
CIRCLE
  5
56
100
AcDbEntity
  8
0
  6
ByLayer
 62
    0
370
   -1
100
AcDbCircle
 10
124.1447072420463
 20
103.3980934180408
 40
1.6
  0
CIRCLE
  5
57
100
AcDbEntity
  8
0
  6
ByLayer
 62
    0
370
   -1
100
AcDbCircle
 10
176.6447072420463
 20
3.398093418040816
 40
1.6
  0
CIRCLE
  5
58
100
AcDbEntity
  8
0
  6
ByLayer
 62
    0
370
   -1
100
AcDbCircle
 10
37.14470724204625
 20
-1.101906581959184
 40
1.6
  0
CIRCLE
  5
59
100
AcDbEntity
  8
0
  6
ByLayer
 62
    0
370
   -1
100
AcDbCircle
 10
37.14470724204625
 20
207.8980934180408
 40
1.6
  0
CIRCLE
  5
5A
100
AcDbEntity
  8
0
  6
ByLayer
 62
    0
370
   -1
100
AcDbCircle
 10
106.6447542420462
 20
203.3980924180408
 40
1.6
  0
CIRCLE
  5
5B
100
AcDbEntity
  8
0
  6
ByLayer
 62
    0
370
   -1
100
AcDbCircle
 10
106.6447292420462
 20
173.3980924180408
 40
1.6
  0
CIRCLE
  5
5C
100
AcDbEntity
  8
0
  6
ByLayer
 62
    0
370
   -1
100
AcDbCircle
 10
176.6447292420462
 20
173.3980344180408
 40
1.6
  0
CIRCLE
  5
5D
100
AcDbEntity
  8
0
  6
ByLayer
 62
    0
370
   -1
100
AcDbCircle
 10
176.6447072420463
 20
33.39809341804082
 40
1.6
  0
CIRCLE
  5
5E
100
AcDbEntity
  8
0
  6
ByLayer
 62
    0
370
   -1
100
AcDbCircle
 10
159.1447072420463
 20
115.3980934180408
 40
1.6
  0
CIRCLE
  5
5F
100
AcDbEntity
  8
0
  6
ByLayer
 62
    0
370
   -1
100
AcDbCircle
 10
141.6447072420463
 20
115.3980934180408
 40
1.6
  0
CIRCLE
  5
60
100
AcDbEntity
  8
0
  6
ByLayer
 62
    0
370
   -1
100
AcDbCircle
 10
176.6447542420462
 20
203.3980344180408
 40
1.6
  0
CIRCLE
  5
61
100
AcDbEntity
  8
0
  6
ByLayer
 62
    0
370
   -1
100
AcDbCircle
 10
246.1447072420463
 20
-1.101906581959184
 40
1.6
  0
CIRCLE
  5
62
100
AcDbEntity
  8
0
  6
ByLayer
 62
    0
370
   -1
100
AcDbCircle
 10
106.6447072420463
 20
33.39809341804082
 40
1.6
  0
CIRCLE
  5
63
100
AcDbEntity
  8
0
  6
ByLayer
 62
    0
370
   -1
100
AcDbCircle
 10
159.1447072420463
 20
91.39809341804082
 40
1.6
  0
CIRCLE
  5
64
100
AcDbEntity
  8
0
  6
ByLayer
 62
    0
370
   -1
100
AcDbCircle
 10
141.6447072420463
 20
91.39809341804082
 40
1.6
  0
CIRCLE
  5
65
100
AcDbEntity
  8
0
  6
ByLayer
 62
    0
370
   -1
100
AcDbCircle
 10
106.6447072420463
 20
3.398093418040816
 40
1.6
  0
LWPOLYLINE
  5
66
100
AcDbEntity
  8
0
  6
ByLayer
 62
  256
370
   -1
100
AcDbPolyline
 90
   56
 70
    1
 43
0
 10
184.1594262420463
 20
-4.601907581959184
 42
0.198912308412
 10
188.4020662420462
 20
-2.844548581959176
 10
202.8873522420462
 20
11.64073141804083
 42
-0.1989124263469996
 10
207.1299912420462
 20
13.39808941804083
 10
222.1594292420463
 20
13.39809441804081
 42
-0.1989121269739992
 10
226.4020652420462
 20
11.64073541804077
 10
242.6447102420462
 20
-4.601909581959156
 42
0.9999990924489529
 10
249.6447102420462
 20
2.398089418040835
 10
228.4020702420462
 20
23.64073141804091
 42
-0.1989125348559986
 10
226.6447082420464
 20
27.88337441804083
 10
226.6447062420463
 20
178.9128114180408
 42
-0.1989125348570007
 10
228.4020692420462
 20
183.1554554180408
 10
249.6447102420462
 20
204.3980964180406
 42
0.9999990924488863
 10
242.6447112420462
 20
211.3980954180407
 10
226.4019872420462
 20
195.1553724180408
 42
-0.1989123628440001
 10
222.1593472420462
 20
193.3980134180408
 10
207.1300302420462
 20
193.3980134180408
 42
-0.198912426347
 10
202.8873872420462
 20
195.1553714180408
 10
188.4021192420462
 20
209.6406664180406
 42
0.1989123084119954
 10
184.1594802420462
 20
211.3980314180408
 10
167.1300422420462
 20
211.3980454180406
 42
0.1989123038759941
 10
162.8874002420462
 20
209.6406884180406
 10
148.4021072420462
 20
195.1554144180408
 42
-0.198912308412
 10
144.1594652420462
 20
193.3980654180408
 10
139.1300282420463
 20
193.3980694180408
 42
-0.1989123084120122
 10
134.8873882420461
 20
195.1554274180408
 10
120.4021192420461
 20
209.6407224180408
 42
0.1989123038759943
 10
116.1594802420462
 20
211.3980874180408
 10
99.13004224204622
 20
211.3981014180408
 42
0.1989123084119959
 10
94.88740024204618
 20
209.6407444180408
 10
80.40210824204632
 20
195.1554704180408
 42
-0.1989124263470025
 10
76.15946224204617
 20
193.3981154180407
 10
61.12996524204617
 20
193.3981154180408
 42
-0.1989123673799982
 10
56.88732424204635
 20
195.1554754180409
 10
40.64470324204627
 20
211.3980964180408
 42
0.9999990924489509
 10
33.64470424204626
 20
204.3980964180407
 10
54.8873442420462
 20
183.1554544180408
 42
-0.1989125348550009
 10
56.64470624204625
 20
178.9128114180408
 10
56.64470824204626
 20
27.88337341804084
 42
-0.1989125348550007
 10
54.88734524204618
 20
23.64073041804082
 10
33.64470424204625
 20
2.398089418040821
 42
0.9999990924489489
 10
40.64470424204626
 20
-4.601909581959212
 10
56.88735324204618
 20
11.64073241804081
 42
-0.1989121269740013
 10
61.12998624204624
 20
13.39808941804083
 10
76.15942324204627
 20
13.39809541804081
 42
-0.1989124263469997
 10
80.4020672420462
 20
11.6407354180408
 10
94.88734724204619
 20
-2.844550581959165
 42
0.1989123084119995
 10
99.12998824204624
 20
-4.601909581959177
 10
116.1594262420463
 20
-4.601907581959179
 42
0.1989123038760017
 10
120.4020662420462
 20
-2.844548581959176
 10
134.8873522420462
 20
11.64073241804082
 42
-0.198912308412001
 10
139.1299892420462
 20
13.39808941804083
 10
144.1594262420463
 20
13.39809541804081
 42
-0.1989123084119974
 10
148.4020672420462
 20
11.6407354180408
 10
162.8873472420462
 20
-2.844550581959155
 42
0.1989123038760008
 10
167.1299882420462
 20
-4.601909581959179
  0
ENDSEC
  0
SECTION
  2
OBJECTS
  0
DICTIONARY
  5
C
330
0
100
AcDbDictionary
281
    1
  3
ACAD_GROUP
350
D
  0
DICTIONARY
  5
D
330
C
100
AcDbDictionary
281
    1
  0
ENDSEC
  0
EOF
