999
dxfrw 0.6.3
  0
SECTION
  2
HEADER
  9
$ACADVER
  1
AC1021
  9
$DWGCODEPAGE
  3
ANSI_1252
  9
$INSBASE
 10
0
 20
0
 30
0
  9
$EXTMIN
 10
-96.32765459810078
 20
-116.2370977247424
 30
0
  9
$EXTMAX
 10
871.5616609999998
 20
489.4656135199399
 30
0
  9
$LIMMIN
 10
0
 20
0
  9
$LIMMAX
 10
420
 20
297
  9
$ORTHOMODE
 70
    0
  9
$REGENMODE
 70
    1
  9
$FILLMODE
 70
    1
  9
$QTEXTMODE
 70
    0
  9
$MIRRTEXT
 70
    0
  9
$LTSCALE
 40
1
  9
$ATTMODE
 70
    0
  9
$TEXTSIZE
 40
2.5
  9
$TRACEWID
 40
15.68
  9
$TEXTSTYLE
  7
STANDARD
  9
$CLAYER
  8
0
  9
$CELTYPE
  6
BYLAYER
  9
$CECOLOR
 62
  256
  9
$CELTSCALE
 40
1
  9
$DISPSILH
 70
    0
  9
$DIMSCALE
 40
2.5
  9
$DIMASZ
 40
2.5
  9
$DIMEXO
 40
0.625
  9
$DIMDLI
 40
3.75
  9
$DIMRND
 40
0
  9
$DIMDLE
 40
0
  9
$DIMEXE
 40
1.25
  9
$DIMTP
 40
0
  9
$DIMTM
 40
0
  9
$DIMTXT
 40
2.5
  9
$DIMCEN
 40
2.5
  9
$DIMTSZ
 40
0
  9
$DIMTOL
 70
    0
  9
$DIMLIM
 70
    0
  9
$DIMTIH
 70
    0
  9
$DIMTOH
 70
    0
  9
$DIMSE1
 70
    0
  9
$DIMSE2
 70
    0
  9
$DIMTAD
 70
    1
  9
$DIMZIN
 70
    8
  9
$DIMBLK
  1

  9
$DIMASO
 70
    1
  9
$DIMSHO
 70
    1
  9
$DIMPOST
  1

  9
$DIMAPOST
  1

  9
$DIMALT
 70
    0
  9
$DIMALTD
 70
    3
  9
$DIMALTF
 40
0.03937
  9
$DIMLFAC
 40
1
  9
$DIMTOFL
 70
    1
  9
$DIMTVP
 40
0
  9
$DIMTIX
 70
    0
  9
$DIMSOXD
 70
    0
  9
$DIMSAH
 70
    0
  9
$DIMBLK1
  1

  9
$DIMBLK2
  1

  9
$DIMSTYLE
  2
Standard
  9
$DIMCLRD
 70
    0
  9
$DIMCLRE
 70
    0
  9
$DIMCLRT
 70
    0
  9
$DIMTFAC
 40
1
  9
$DIMGAP
 40
0.625
  9
$DIMJUST
 70
    0
  9
$DIMSD1
 70
    0
  9
$DIMSD2
 70
    0
  9
$DIMTOLJ
 70
    0
  9
$DIMTZIN
 70
    8
  9
$DIMALTZ
 70
    0
  9
$DIMALTTZ
 70
    0
  9
$DIMUPT
 70
    0
  9
$DIMDEC
 70
    4
  9
$DIMTDEC
 70
    2
  9
$DIMALTU
 70
    2
  9
$DIMALTTD
 70
    3
  9
$DIMTXSTY
  7
standard
  9
$DIMAUNIT
 70
    0
  9
$DIMADEC
 70
    0
  9
$DIMALTRND
 40
0
  9
$DIMAZIN
 70
    0
  9
$DIMDSEP
 70
   44
  9
$DIMATFIT
 70
    3
  9
$DIMFRAC
 70
    0
  9
$DIMLDRBLK
  1
STANDARD
  9
$DIMLUNIT
 70
    2
  9
$DIMLWD
 70
   -2
  9
$DIMLWE
 70
   -2
  9
$DIMTMOVE
 70
    0
  9
$DIMFXL
 40
1
  9
$DIMFXLON
 70
    0
  9
$DIMJOGANG
 40
0.7854
  9
$DIMTFILL
 70
    0
  9
$DIMTFILLCLR
 70
    0
  9
$DIMARCSYM
 70
    0
  9
$DIMLTYPE
  6

  9
$DIMLTEX1
  6

  9
$DIMLTEX2
  6

  9
$LUNITS
 70
    2
  9
$LUPREC
 70
    4
  9
$SKETCHINC
 40
1
  9
$FILLETRAD
 40
0
  9
$AUNITS
 70
    0
  9
$AUPREC
 70
    2
  9
$MENU
  1
.
  9
$ELEVATION
 40
0
  9
$PELEVATION
 40
0
  9
$THICKNESS
 40
0
  9
$LIMCHECK
 70
    0
  9
$CHAMFERA
 40
0
  9
$CHAMFERB
 40
0
  9
$CHAMFERC
 40
0
  9
$CHAMFERD
 40
0
  9
$SKPOLY
 70
    0
  9
$USRTIMER
 70
    1
  9
$ANGBASE
 50
0
  9
$ANGDIR
 70
    0
  9
$PDMODE
 70
   34
  9
$PDSIZE
 40
0
  9
$PLINEWID
 40
0
  9
$SPLFRAME
 70
    0
  9
$SPLINETYPE
 70
    2
  9
$SPLINESEGS
 70
   64
  9
$HANDSEED
  5
20000
  9
$SURFTAB1
 70
    6
  9
$SURFTAB2
 70
    6
  9
$SURFTYPE
 70
    6
  9
$SURFU
 70
    6
  9
$SURFV
 70
    6
  9
$UCSBASE
  2

  9
$UCSNAME
  2

  9
$UCSORG
 10
0
 20
0
 30
0
  9
$UCSXDIR
 10
1
 20
0
 30
0
  9
$UCSYDIR
 10
0
 20
1
 30
0
  9
$UCSORTHOREF
  2

  9
$UCSORTHOVIEW
 70
    0
  9
$UCSORGTOP
 10
0
 20
0
 30
0
  9
$UCSORGBOTTOM
 10
0
 20
0
 30
0
  9
$UCSORGLEFT
 10
0
 20
0
 30
0
  9
$UCSORGRIGHT
 10
0
 20
0
 30
0
  9
$UCSORGFRONT
 10
0
 20
0
 30
0
  9
$UCSORGBACK
 10
0
 20
0
 30
0
  9
$PUCSBASE
  2

  9
$PUCSNAME
  2

  9
$PUCSORG
 10
0
 20
0
 30
0
  9
$PUCSXDIR
 10
1
 20
0
 30
0
  9
$PUCSYDIR
 10
0
 20
1
 30
0
  9
$PUCSORTHOREF
  2

  9
$PUCSORTHOVIEW
 70
    0
  9
$PUCSORGTOP
 10
0
 20
0
 30
0
  9
$PUCSORGBOTTOM
 10
0
 20
0
 30
0
  9
$PUCSORGLEFT
 10
0
 20
0
 30
0
  9
$PUCSORGRIGHT
 10
0
 20
0
 30
0
  9
$PUCSORGFRONT
 10
0
 20
0
 30
0
  9
$PUCSORGBACK
 10
0
 20
0
 30
0
  9
$USERI1
 70
    0
  9
$USERI2
 70
    0
  9
$USERI3
 70
    0
  9
$USERI4
 70
    0
  9
$USERI5
 70
    0
  9
$USERR1
 40
0
  9
$USERR2
 40
0
  9
$USERR3
 40
0
  9
$USERR4
 40
0
  9
$USERR5
 40
0
  9
$WORLDVIEW
 70
    1
  9
$SHADEDGE
 70
    3
  9
$SHADEDIF
 70
   70
  9
$TILEMODE
 70
    1
  9
$MAXACTVP
 70
   64
  9
$PINSBASE
 10
0
 20
0
 30
0
  9
$PLIMCHECK
 70
    0
  9
$PEXTMIN
 10
0
 20
0
 30
0
  9
$PEXTMAX
 10
0
 20
0
 30
0
  9
$GRIDMODE
 70
    0
  9
$SNAPSTYLE
 70
    0
  9
$GRIDUNIT
 10
0
 20
0
  9
$PLIMMIN
 10
0
 20
0
  9
$PLIMMAX
 10
1189
 20
841
  9
$UNITMODE
 70
    0
  9
$VISRETAIN
 70
    1
  9
$PLINEGEN
 70
    0
  9
$PSLTSCALE
 70
    1
  9
$TREEDEPTH
 70
 3020
  9
$CMLSTYLE
  2
Standard
  9
$CMLJUST
 70
    0
  9
$CMLSCALE
 40
20
  9
$PROXYGRAPHICS
 70
    1
  9
$MEASUREMENT
 70
    1
  9
$CELWEIGHT
370
   -1
  9
$ENDCAPS
280
    0
  9
$JOINSTYLE
280
    0
  9
$LWDISPLAY
290
    0
  9
$INSUNITS
 70
    4
  9
$HYPERLINKBASE
  1

  9
$STYLESHEET
  1

  9
$XEDIT
290
    1
  9
$CEPSNTYPE
380
    0
  9
$PSTYLEMODE
290
    1
  9
$EXTNAMES
290
    1
  9
$PSVPSCALE
 40
1
  9
$OLESTARTUP
290
    0
  9
$SORTENTS
280
  127
  9
$INDEXCTL
280
    0
  9
$HIDETEXT
280
    1
  9
$XCLIPFRAME
290
    0
  9
$HALOGAP
280
    0
  9
$OBSCOLOR
 70
  257
  9
$OBSLTYPE
280
    0
  9
$INTERSECTIONDISPLAY
280
    0
  9
$INTERSECTIONCOLOR
 70
  257
  9
$DIMASSOC
280
    1
  9
$PROJECTNAME
  1

  9
$CAMERADISPLAY
290
    0
  9
$LENSLENGTH
 40
50
  9
$CAMERAHEIGHT
 40
0
  9
$STEPSPERSEC
 40
2
  9
$STEPSIZE
 40
50
  9
$3DDWFPREC
 40
2
  9
$PSOLWIDTH
 40
5
  9
$PSOLHEIGHT
 40
80
  9
$LOFTANG1
 40
1.570796326794897
  9
$LOFTANG2
 40
1.570796326794897
  9
$LOFTMAG1
 40
0
  9
$LOFTMAG2
 40
0
  9
$LOFTPARAM
 70
    7
  9
$LOFTNORMALS
280
    1
  9
$LATITUDE
 40
1
  9
$LONGITUDE
 40
1
  9
$NORTHDIRECTION
 40
0
  9
$TIMEZONE
 70
-8000
  9
$LIGHTGLYPHDISPLAY
280
    1
  9
$TILEMODELIGHTSYNCH
280
    1
  9
$SOLIDHIST
280
    1
  9
$SHOWHIST
280
    1
  9
$DWFFRAME
280
    2
  9
$DGNFRAME
280
    0
  9
$REALWORLDSCALE
290
    1
  9
$INTERFERECOLOR
 62
    1
  9
$CSHADOW
280
    0
  9
$SHADOWPLANELOCATION
 40
0
  0
ENDSEC
  0
SECTION
  2
CLASSES
  0
ENDSEC
  0
SECTION
  2
TABLES
  0
TABLE
  2
VPORT
  5
8
330
0
100
AcDbSymbolTable
 70
    1
  0
VPORT
  5
31
330
2
100
AcDbSymbolTableRecord
100
AcDbViewportTableRecord
  2
*ACTIVE
 70
    0
 10
0
 20
0
 11
1
 21
1
 12
484.0104753971738
 22
269.2562476579236
 13
0
 23
0
 14
10
 24
10
 15
10
 25
10
 16
0
 26
0
 36
1
 17
0
 27
0
 37
0
 40
581.6260334604693
 41
1.853146853146853
 42
50
 43
0
 44
0
 50
0
 51
0
 71
    0
 72
  100
 73
    1
 74
    3
 75
    0
 76
    0
 77
    0
 78
    0
281
    0
 65
    1
110
0
120
0
130
0
111
1
121
0
131
0
112
0
122
1
132
0
 79
    0
146
0
348
10020
 60
    7
 61
    5
292
1
282
    1
141
0
142
0
 63
  250
421
3358443
  0
ENDTAB
  0
TABLE
  2
LTYPE
  5
5
330
0
100
AcDbSymbolTable
 70
    4
  0
LTYPE
  5
14
330
5
100
AcDbSymbolTableRecord
100
AcDbLinetypeTableRecord
  2
ByBlock
 70
    0
  3

 72
   65
 73
    0
 40
0
  0
LTYPE
  5
15
330
5
100
AcDbSymbolTableRecord
100
AcDbLinetypeTableRecord
  2
ByLayer
 70
    0
  3

 72
   65
 73
    0
 40
0
  0
LTYPE
  5
16
330
5
100
AcDbSymbolTableRecord
100
AcDbLinetypeTableRecord
  2
Continuous
 70
    0
  3
Solid line
 72
   65
 73
    0
 40
0
  0
LTYPE
  5
32
330
5
100
AcDbSymbolTableRecord
100
AcDbLinetypeTableRecord
  2
DOT
 70
    0
  3
Dot . . . . . . . . . . . . . . . . . . . . . .
 72
   65
 73
    2
 40
6.35
 49
0
 74
    0
 49
-6.35
 74
    0
  0
LTYPE
  5
33
330
5
100
AcDbSymbolTableRecord
100
AcDbLinetypeTableRecord
  2
DOTTINY
 70
    0
  3
Dot (.15x) .....................................
 72
   65
 73
    2
 40
0.9525
 49
0
 74
    0
 49
-0.9525
 74
    0
  0
LTYPE
  5
34
330
5
100
AcDbSymbolTableRecord
100
AcDbLinetypeTableRecord
  2
DOT2
 70
    0
  3
Dot (.5x) .....................................
 72
   65
 73
    2
 40
3.175
 49
0
 74
    0
 49
-3.175
 74
    0
  0
LTYPE
  5
35
330
5
100
AcDbSymbolTableRecord
100
AcDbLinetypeTableRecord
  2
DOTX2
 70
    0
  3
Dot (2x) .  .  .  .  .  .  .  .  .  .  .  .  .
 72
   65
 73
    2
 40
12.7
 49
0
 74
    0
 49
-12.7
 74
    0
  0
LTYPE
  5
36
330
5
100
AcDbSymbolTableRecord
100
AcDbLinetypeTableRecord
  2
DASHED
 70
    0
  3
Dashed _ _ _ _ _ _ _ _ _ _ _ _ _ _ _ _ _
 72
   65
 73
    2
 40
19.05
 49
12.7
 74
    0
 49
-6.35
 74
    0
  0
LTYPE
  5
37
330
5
100
AcDbSymbolTableRecord
100
AcDbLinetypeTableRecord
  2
DASHEDTINY
 70
    0
  3
Dashed (.15x) _ _ _ _ _ _ _ _ _ _ _ _ _ _ _ _ _
 72
   65
 73
    2
 40
2.8575
 49
1.905
 74
    0
 49
-0.9525
 74
    0
  0
LTYPE
  5
38
330
5
100
AcDbSymbolTableRecord
100
AcDbLinetypeTableRecord
  2
DASHED2
 70
    0
  3
Dashed (.5x) _ _ _ _ _ _ _ _ _ _ _ _ _ _ _ _ _
 72
   65
 73
    2
 40
9.524999999999999
 49
6.35
 74
    0
 49
-3.175
 74
    0
  0
LTYPE
  5
39
330
5
100
AcDbSymbolTableRecord
100
AcDbLinetypeTableRecord
  2
DASHEDX2
 70
    0
  3
Dashed (2x) ____  ____  ____  ____  ____  ___
 72
   65
 73
    2
 40
38.09999999999999
 49
25.4
 74
    0
 49
-12.7
 74
    0
  0
LTYPE
  5
3A
330
5
100
AcDbSymbolTableRecord
100
AcDbLinetypeTableRecord
  2
DASHDOT
 70
    0
  3
Dash dot __ . __ . __ . __ . __ . __ . __ . __
 72
   65
 73
    4
 40
25.4
 49
12.7
 74
    0
 49
-6.35
 74
    0
 49
0
 74
    0
 49
-6.35
 74
    0
  0
LTYPE
  5
3B
330
5
100
AcDbSymbolTableRecord
100
AcDbLinetypeTableRecord
  2
DASHDOTTINY
 70
    0
  3
Dash dot (.15x) _._._._._._._._._._._._._._._.
 72
   65
 73
    4
 40
3.81
 49
1.905
 74
    0
 49
-0.9525
 74
    0
 49
0
 74
    0
 49
-0.9525
 74
    0
  0
LTYPE
  5
3C
330
5
100
AcDbSymbolTableRecord
100
AcDbLinetypeTableRecord
  2
DASHDOT2
 70
    0
  3
Dash dot (.5x) _._._._._._._._._._._._._._._.
 72
   65
 73
    4
 40
12.7
 49
6.35
 74
    0
 49
-3.175
 74
    0
 49
0
 74
    0
 49
-3.175
 74
    0
  0
LTYPE
  5
3D
330
5
100
AcDbSymbolTableRecord
100
AcDbLinetypeTableRecord
  2
DASHDOTX2
 70
    0
  3
Dash dot (2x) ____  .  ____  .  ____  .  ___
 72
   65
 73
    4
 40
50.8
 49
25.4
 74
    0
 49
-12.7
 74
    0
 49
0
 74
    0
 49
-12.7
 74
    0
  0
LTYPE
  5
3E
330
5
100
AcDbSymbolTableRecord
100
AcDbLinetypeTableRecord
  2
DIVIDE
 70
    0
  3
Divide ____ . . ____ . . ____ . . ____ . . ____
 72
   65
 73
    6
 40
31.75
 49
12.7
 74
    0
 49
-6.35
 74
    0
 49
0
 74
    0
 49
-6.35
 74
    0
 49
0
 74
    0
 49
-6.35
 74
    0
  0
LTYPE
  5
3F
330
5
100
AcDbSymbolTableRecord
100
AcDbLinetypeTableRecord
  2
DIVIDETINY
 70
    0
  3
Divide (.15x) __..__..__..__..__..__..__..__.._
 72
   65
 73
    6
 40
4.7625
 49
1.905
 74
    0
 49
-0.9525
 74
    0
 49
0
 74
    0
 49
-0.9525
 74
    0
 49
0
 74
    0
 49
-0.9525
 74
    0
  0
LTYPE
  5
40
330
5
100
AcDbSymbolTableRecord
100
AcDbLinetypeTableRecord
  2
DIVIDE2
 70
    0
  3
Divide (.5x) __..__..__..__..__..__..__..__.._
 72
   65
 73
    6
 40
15.875
 49
6.35
 74
    0
 49
-3.175
 74
    0
 49
0
 74
    0
 49
-3.175
 74
    0
 49
0
 74
    0
 49
-3.175
 74
    0
  0
LTYPE
  5
41
330
5
100
AcDbSymbolTableRecord
100
AcDbLinetypeTableRecord
  2
DIVIDEX2
 70
    0
  3
Divide (2x) ________  .  .  ________  .  .  _
 72
   65
 73
    6
 40
63.5
 49
25.4
 74
    0
 49
-12.7
 74
    0
 49
0
 74
    0
 49
-12.7
 74
    0
 49
0
 74
    0
 49
-12.7
 74
    0
  0
LTYPE
  5
42
330
5
100
AcDbSymbolTableRecord
100
AcDbLinetypeTableRecord
  2
BORDER
 70
    0
  3
Border __ __ . __ __ . __ __ . __ __ . __ __ .
 72
   65
 73
    6
 40
44.45
 49
12.7
 74
    0
 49
-6.35
 74
    0
 49
12.7
 74
    0
 49
-6.35
 74
    0
 49
0
 74
    0
 49
-6.35
 74
    0
  0
LTYPE
  5
43
330
5
100
AcDbSymbolTableRecord
100
AcDbLinetypeTableRecord
  2
BORDERTINY
 70
    0
  3
Border (.15x) __.__.__.__.__.__.__.__.__.__.__.
 72
   65
 73
    6
 40
6.6675
 49
1.905
 74
    0
 49
-0.9525
 74
    0
 49
1.905
 74
    0
 49
-0.9525
 74
    0
 49
0
 74
    0
 49
-0.9525
 74
    0
  0
LTYPE
  5
44
330
5
100
AcDbSymbolTableRecord
100
AcDbLinetypeTableRecord
  2
BORDER2
 70
    0
  3
Border (.5x) __.__.__.__.__.__.__.__.__.__.__.
 72
   65
 73
    6
 40
22.225
 49
6.35
 74
    0
 49
-3.175
 74
    0
 49
6.35
 74
    0
 49
-3.175
 74
    0
 49
0
 74
    0
 49
-3.175
 74
    0
  0
LTYPE
  5
45
330
5
100
AcDbSymbolTableRecord
100
AcDbLinetypeTableRecord
  2
BORDERX2
 70
    0
  3
Border (2x) ____  ____  .  ____  ____  .  ___
 72
   65
 73
    6
 40
88.89999999999999
 49
25.4
 74
    0
 49
-12.7
 74
    0
 49
25.4
 74
    0
 49
-12.7
 74
    0
 49
0
 74
    0
 49
-12.7
 74
    0
  0
LTYPE
  5
46
330
5
100
AcDbSymbolTableRecord
100
AcDbLinetypeTableRecord
  2
CENTER
 70
    0
  3
Center ____ _ ____ _ ____ _ ____ _ ____ _ ____
 72
   65
 73
    4
 40
50.8
 49
31.75
 74
    0
 49
-6.35
 74
    0
 49
6.35
 74
    0
 49
-6.35
 74
    0
  0
LTYPE
  5
47
330
5
100
AcDbSymbolTableRecord
100
AcDbLinetypeTableRecord
  2
CENTERTINY
 70
    0
  3
Center (.15x) ___ _ ___ _ ___ _ ___ _ ___ _ ___
 72
   65
 73
    4
 40
7.619999999999999
 49
4.7625
 74
    0
 49
-0.9525
 74
    0
 49
0.9525
 74
    0
 49
-0.9525
 74
    0
  0
LTYPE
  5
48
330
5
100
AcDbSymbolTableRecord
100
AcDbLinetypeTableRecord
  2
CENTER2
 70
    0
  3
Center (.5x) ___ _ ___ _ ___ _ ___ _ ___ _ ___
 72
   65
 73
    4
 40
28.575
 49
19.05
 74
    0
 49
-3.175
 74
    0
 49
3.175
 74
    0
 49
-3.175
 74
    0
  0
LTYPE
  5
49
330
5
100
AcDbSymbolTableRecord
100
AcDbLinetypeTableRecord
  2
CENTERX2
 70
    0
  3
Center (2x) ________  __  ________  __  _____
 72
   65
 73
    4
 40
101.6
 49
63.5
 74
    0
 49
-12.7
 74
    0
 49
12.7
 74
    0
 49
-12.7
 74
    0
  0
ENDTAB
  0
TABLE
  2
LAYER
  5
2
330
0
100
AcDbSymbolTable
 70
    1
  0
LAYER
  5
10
330
2
100
AcDbSymbolTableRecord
100
AcDbLayerTableRecord
  2
0
 70
    0
 62
    7
  6
CONTINUOUS
370
   -3
390
F
  0
ENDTAB
  0
TABLE
  2
STYLE
  5
3
330
0
100
AcDbSymbolTable
 70
    3
  0
STYLE
  5
4A
330
2
100
AcDbSymbolTableRecord
100
AcDbTextStyleTableRecord
  2
Standard
 70
    0
 40
0
 41
1
 50
0
 71
    0
 42
1
  3
txt
  4

  0
ENDTAB
  0
TABLE
  2
VIEW
  5
6
330
0
100
AcDbSymbolTable
 70
    0
  0
ENDTAB
  0
TABLE
  2
UCS
  5
7
330
0
100
AcDbSymbolTable
 70
    0
  0
ENDTAB
  0
TABLE
  2
APPID
  5
9
330
0
100
AcDbSymbolTable
 70
    1
  0
APPID
  5
12
330
9
100
AcDbSymbolTableRecord
100
AcDbRegAppTableRecord
  2
ACAD
 70
    0
  0
APPID
  5
4B
330
9
100
AcDbSymbolTableRecord
100
AcDbRegAppTableRecord
  2
LibreCad
 70
    0
  0
ENDTAB
  0
TABLE
  2
DIMSTYLE
  5
A
330
0
100
AcDbSymbolTable
 70
    1
100
AcDbDimStyleTable
 71
    1
  0
DIMSTYLE
105
4C
330
A
100
AcDbSymbolTableRecord
100
AcDbDimStyleTableRecord
  2
Standard
 70
    0
 40
2.5
 41
2.5
 42
0.625
 43
0.38
 44
1.25
 45
0
 46
0
 47
0
 48
0
 49
1
140
2.5
141
0.09
142
0
143
25.4
144
1
145
0
146
1
147
0.625
148
0
 71
    0
 72
    0
 73
    0
 74
    1
 75
    0
 76
    0
 77
    0
 78
    8
 79
    0
170
    0
171
    2
172
    0
173
    0
174
    0
175
    0
176
    0
177
    0
178
    0
179
    0
271
    4
272
    4
273
    2
274
    2
275
    0
276
    0
277
    2
278
   44
279
    0
280
    0
281
    0
282
    0
283
    1
284
    0
285
    0
286
    0
288
    0
289
    3
340
standard
341

371
   -2
372
   -2
  0
ENDTAB
  0
TABLE
  2
BLOCK_RECORD
  5
1
330
0
100
AcDbSymbolTable
 70
    2
  0
BLOCK_RECORD
  5
1F
330
1
100
AcDbSymbolTableRecord
100
AcDbBlockTableRecord
  2
*Model_Space
 70
    0
280
    1
281
    0
  0
BLOCK_RECORD
  5
1E
330
1
100
AcDbSymbolTableRecord
100
AcDbBlockTableRecord
  2
*Paper_Space
 70
    0
280
    1
281
    0
  0
BLOCK_RECORD
  5
4D
330
1
100
AcDbSymbolTableRecord
100
AcDbBlockTableRecord
  2
front_frame
 70
    0
280
    1
281
    0
  0
BLOCK_RECORD
  5
50
330
1
100
AcDbSymbolTableRecord
100
AcDbBlockTableRecord
  2
print_bed
 70
    0
280
    1
281
    0
  0
BLOCK_RECORD
  5
53
330
1
100
AcDbSymbolTableRecord
100
AcDbBlockTableRecord
  2
print_bed_adapter
 70
    0
280
    1
281
    0
  0
BLOCK_RECORD
  5
56
330
1
100
AcDbSymbolTableRecord
100
AcDbBlockTableRecord
  2
print_bed_bearing_clamp
 70
    0
280
    1
281
    0
  0
BLOCK_RECORD
  5
59
330
1
100
AcDbSymbolTableRecord
100
AcDbBlockTableRecord
  2
NEMA17_fixing_plate
 70
    0
280
    1
281
    0
  0
BLOCK_RECORD
  5
5C
330
1
100
AcDbSymbolTableRecord
100
AcDbBlockTableRecord
  2
NEMA17_fixing_plate_support
 70
    0
280
    1
281
    0
  0
BLOCK_RECORD
  5
5F
330
1
100
AcDbSymbolTableRecord
100
AcDbBlockTableRecord
  2
base_frame_reinforcement
 70
    0
280
    1
281
    0
  0
BLOCK_RECORD
  5
62
330
1
100
AcDbSymbolTableRecord
100
AcDbBlockTableRecord
  2
NEMA17_fixing_plate_Y_axis
 70
    0
280
    1
281
    0
  0
BLOCK_RECORD
  5
65
330
1
100
AcDbSymbolTableRecord
100
AcDbBlockTableRecord
  2
Z_axis_top
 70
    0
280
    1
281
    0
  0
BLOCK_RECORD
  5
68
330
1
100
AcDbSymbolTableRecord
100
AcDbBlockTableRecord
  2
Y_axis_base
 70
    0
280
    1
281
    0
  0
BLOCK_RECORD
  5
6B
330
1
100
AcDbSymbolTableRecord
100
AcDbBlockTableRecord
  2
Y_axis_idler
 70
    0
280
    1
281
    0
  0
BLOCK_RECORD
  5
6E
330
1
100
AcDbSymbolTableRecord
100
AcDbBlockTableRecord
  2
spool_holder_bracket
 70
    0
280
    1
281
    0
  0
BLOCK_RECORD
  5
71
330
1
100
AcDbSymbolTableRecord
100
AcDbBlockTableRecord
  2
Z_axis_top_rod_end
 70
    0
280
    1
281
    0
  0
BLOCK_RECORD
  5
74
330
1
100
AcDbSymbolTableRecord
100
AcDbBlockTableRecord
  2
Y_axis_rod_end
 70
    0
280
    1
281
    0
  0
BLOCK_RECORD
  5
77
330
1
100
AcDbSymbolTableRecord
100
AcDbBlockTableRecord
  2
right_frame
 70
    0
280
    1
281
    0
  0
BLOCK_RECORD
  5
7A
330
1
100
AcDbSymbolTableRecord
100
AcDbBlockTableRecord
  2
left_frame
 70
    0
280
    1
281
    0
  0
ENDTAB
  0
ENDSEC
  0
SECTION
  2
BLOCKS
  0
BLOCK
  5
20
330
1F
100
AcDbEntity
  8
0
100
AcDbBlockBegin
  2
*Model_Space
 70
    0
 10
0
 20
0
 30
0
  3
*Model_Space
  1

  0
ENDBLK
  5
21
330
1F
100
AcDbEntity
  8
0
100
AcDbBlockEnd
  0
BLOCK
  5
1C
330
1B
100
AcDbEntity
  8
0
100
AcDbBlockBegin
  2
*Paper_Space
 70
    0
 10
0
 20
0
 30
0
  3
*Paper_Space
  1

  0
ENDBLK
  5
1D
330
1F
100
AcDbEntity
  8
0
100
AcDbBlockEnd
  0
BLOCK
  5
4E
330
4D
100
AcDbEntity
  8
0
100
AcDbBlockBegin
  2
front_frame
 70
    0
 10
0
 20
0
  3
front_frame
  1

  0
LWPOLYLINE
  5
7D
100
AcDbEntity
  8
0
  6
ByLayer
 62
    0
370
   -1
100
AcDbPolyline
 90
    6
 70
    1
 43
0
 10
209.1782498133474
 20
-331.8059843654614
 42
0.5773502691899945
 10
206.5801738133474
 20
-336.3059843654614
 10
223.2811848133474
 20
-365.2329843654613
 42
0.5773502691899968
 10
228.4773378133474
 20
-365.2329843654614
 10
245.1783488133474
 20
-336.3059843654614
 42
0.5773502691899944
 10
242.5802728133474
 20
-331.8059843654614
  0
LWPOLYLINE
  5
7E
100
AcDbEntity
  8
0
  6
ByLayer
 62
    0
370
   -1
100
AcDbPolyline
 90
    6
 70
    1
 43
0
 10
195.1792948133474
 20
-362.2329843654613
 42
-0.5773502691899944
 10
192.5812188133474
 20
-366.7329843654613
 10
159.1791958133474
 20
-366.7329843654613
 42
-0.5773502691899961
 10
156.5811198133474
 20
-362.2329843654613
 10
173.2821308133474
 20
-333.3059843654613
 42
-0.5773502691899971
 10
178.4782838133474
 20
-333.3059843654614
  0
LWPOLYLINE
  5
7F
100
AcDbEntity
  8
0
  6
ByLayer
 62
    0
370
   -1
100
AcDbPolyline
 90
    6
 70
    1
 43
0
 10
109.1782498133474
 20
-331.8059843654614
 42
0.5773502691899954
 10
106.5801738133474
 20
-336.3059843654614
 10
123.2811848133474
 20
-365.2329843654613
 42
0.5773502691899977
 10
128.4773378133474
 20
-365.2329843654614
 10
145.1783488133474
 20
-336.3059843654614
 42
0.5773502691899944
 10
142.5802728133474
 20
-331.8059843654614
  0
LWPOLYLINE
  5
80
100
AcDbEntity
  8
0
  6
ByLayer
 62
    0
370
   -1
100
AcDbPolyline
 90
    6
 70
    1
 43
0
 10
95.17929481334738
 20
-362.2329843654613
 42
-0.5773502691899962
 10
92.58121881334738
 20
-366.7329843654613
 10
59.17919581334739
 20
-366.7329843654613
 42
-0.5773502691899961
 10
56.58111981334739
 20
-362.2329843654613
 10
73.28213081334741
 20
-333.3059843654613
 42
-0.5773502691899971
 10
78.47828381334737
 20
-333.3059843654614
  0
LWPOLYLINE
  5
81
100
AcDbEntity
  8
0
  6
ByLayer
 62
    0
370
   -1
100
AcDbPolyline
 90
    6
 70
    1
 43
0
 10
23.28118481334741
 20
-365.2329843654613
 42
0.5773502691899968
 10
28.47733781334737
 20
-365.2329843654614
 10
45.17834881334738
 20
-336.3059843654614
 42
0.5773502691899962
 10
42.58027281334738
 20
-331.8059843654614
 10
9.178249813347396
 20
-331.8059843654614
 42
0.5773502691899965
 10
6.580173813347393
 20
-336.3059843654614
  0
LWPOLYLINE
  5
82
100
AcDbEntity
  8
0
  6
ByLayer
 62
    0
370
   -1
100
AcDbPolyline
 90
    6
 70
    1
 43
0
 10
-21.11979318665261
 20
-366.7329843654613
 42
-0.4142135580070034
 10
-24.11979318665261
 20
-363.7329843654613
 10
-24.11979318665261
 20
-340.0021363654614
 42
-0.7673269938990083
 10
-18.52171718665263
 20
-338.5021363654615
 10
-4.820705186652619
 20
-362.2329843654613
 42
-0.5773502691899965
 10
-7.41878118665262
 20
-366.7329843654613
  0
LWPOLYLINE
  5
83
100
AcDbEntity
  8
0
  6
ByLayer
 62
    0
370
   -1
100
AcDbPolyline
 90
    6
 70
    1
 43
0
 10
-18.58806718665256
 20
-284.1863173654614
 42
0.5773502691899873
 10
-18.58806718665256
 20
-280.6789133654614
 10
-38.11379218665259
 20
-269.4057313654613
 42
0.5773502691900785
 10
-41.15129218665255
 20
-271.1594323654614
 10
-41.15129218665255
 20
-293.7057983654614
 42
0.5773502691900048
 10
-38.11379218665259
 20
-295.4594993654613
  0
LWPOLYLINE
  5
84
100
AcDbEntity
  8
0
  6
ByLayer
 62
    0
370
   -1
100
AcDbPolyline
 90
    6
 70
    1
 43
0
 10
-40.13879218665258
 20
-236.6399333654614
 42
-0.5773502691900055
 10
-40.13879218665257
 20
-233.1325293654614
 10
-20.61306718665253
 20
-221.8593473654614
 42
-0.5773502691899965
 10
-17.57556718665263
 20
-223.6130483654614
 10
-17.57556718665263
 20
-246.1594133654614
 42
-0.5773502691900125
 10
-20.61306718665254
 20
-247.9131153654614
  0
LWPOLYLINE
  5
85
100
AcDbEntity
  8
0
  6
ByLayer
 62
    0
370
   -1
100
AcDbPolyline
 90
    6
 70
    1
 43
0
 10
-18.58806718665256
 20
-194.1399523654614
 42
0.5773502691899897
 10
-18.58806718665256
 20
-190.6325483654614
 10
-38.1137921866526
 20
-179.3593663654614
 42
0.5773502691900754
 10
-41.15129218665255
 20
-181.1130673654614
 10
-41.15129218665255
 20
-203.6594323654614
 42
0.5773502691900708
 10
-38.1137921866526
 20
-205.4131343654614
  0
LWPOLYLINE
  5
86
100
AcDbEntity
  8
0
  6
ByLayer
 62
    0
370
   -1
100
AcDbPolyline
 90
    6
 70
    1
 43
0
 10
-17.57556718665263
 20
-161.1508643654614
 42
-0.5773502691900074
 10
-20.61306718665255
 20
-162.9045663654613
 10
-40.13879218665257
 20
-151.6313843654614
 42
-0.5773502691899985
 10
-40.13879218665258
 20
-148.1239803654613
 10
-20.61306718665254
 20
-136.8507983654613
 42
-0.5773502691899941
 10
-17.57556718665263
 20
-138.6044993654614
  0
LWPOLYLINE
  5
87
100
AcDbEntity
  8
0
  6
ByLayer
 62
    0
370
   -1
100
AcDbPolyline
 90
    6
 70
    1
 43
0
 10
-41.15129218665261
 20
-118.6508833654614
 42
0.5773502691900007
 10
-38.11379218665259
 20
-120.4045853654612
 10
-18.58806718665256
 20
-109.1314033654614
 42
0.5773502691899802
 10
-18.58806718665256
 20
-105.6239993654615
 10
-38.11379218665259
 20
-94.35081736546128
 42
0.5773502691900192
 10
-41.15129218665261
 20
-96.10451836546137
  0
LWPOLYLINE
  5
88
100
AcDbEntity
  8
0
  6
ByLayer
 62
    0
370
   -1
100
AcDbPolyline
 90
    6
 70
    1
 43
0
 10
-21.11979318665261
 20
-18.02234136546137
 42
0.4142135580070034
 10
-24.11979318665261
 20
-21.02234136546137
 10
-24.11979318665261
 20
-44.75319036546135
 42
0.7673269938989964
 10
-18.52171718665262
 20
-46.25319036546135
 10
-4.820705186652629
 20
-22.52234136546137
 42
0.5773502691899965
 10
-7.41878118665262
 20
-18.02234136546137
  0
LWPOLYLINE
  5
89
100
AcDbEntity
  8
0
  6
ByLayer
 62
    0
370
   -1
100
AcDbPolyline
 90
    6
 70
    1
 43
0
 10
23.2811848133474
 20
-19.52234136546137
 42
-0.577350269189997
 10
28.47733781334738
 20
-19.52234136546137
 10
45.17834881334737
 20
-48.44934136546134
 42
-0.5773502691899965
 10
42.58027281334738
 20
-52.94934136546134
 10
9.178249813347394
 20
-52.94934136546134
 42
-0.5773502691899957
 10
6.580173813347404
 20
-48.44934136546134
  0
LWPOLYLINE
  5
8A
100
AcDbEntity
  8
0
  6
ByLayer
 62
    0
370
   -1
100
AcDbPolyline
 90
    6
 70
    1
 43
0
 10
95.17934281334736
 20
-22.52234136546137
 42
0.5773502691899728
 10
92.58126681334737
 20
-18.02234136546137
 10
59.17924381334738
 20
-18.02234136546137
 42
0.5773502691899959
 10
56.58116781334739
 20
-22.52234136546137
 10
73.28217881334739
 20
-51.44934136546122
 42
0.5773502691899962
 10
78.47833181334735
 20
-51.44934136546134
  0
LWPOLYLINE
  5
8B
100
AcDbEntity
  8
0
  6
ByLayer
 62
    0
370
   -1
100
AcDbPolyline
 90
    6
 70
    1
 43
0
 10
123.2811848133474
 20
-19.52234136546137
 42
-0.5773502691899971
 10
128.4773378133474
 20
-19.52234136546137
 10
145.1783488133474
 20
-48.44934136546134
 42
-0.577350269189995
 10
142.5802728133474
 20
-52.94934136546134
 10
109.1782498133474
 20
-52.94934136546134
 42
-0.5773502691899943
 10
106.5801738133474
 20
-48.44934136546135
  0
LWPOLYLINE
  5
8C
100
AcDbEntity
  8
0
  6
ByLayer
 62
    0
370
   -1
100
AcDbPolyline
 90
    6
 70
    1
 43
0
 10
195.1792948133474
 20
-22.52234136546137
 42
0.577350269189995
 10
192.5812188133474
 20
-18.02234136546137
 10
159.1791958133474
 20
-18.02234136546137
 42
0.5773502691899979
 10
156.5811198133474
 20
-22.52234136546137
 10
173.2821308133474
 20
-51.44934136546134
 42
0.5773502691899968
 10
178.4782838133474
 20
-51.44934136546134
  0
LWPOLYLINE
  5
8D
100
AcDbEntity
  8
0
  6
ByLayer
 62
    0
370
   -1
100
AcDbPolyline
 90
    6
 70
    1
 43
0
 10
245.1783488133474
 20
-48.44934136546134
 42
-0.577350269189995
 10
242.5802728133474
 20
-52.94934136546134
 10
209.1782498133474
 20
-52.94934136546134
 42
-0.5773502691899952
 10
206.5801738133474
 20
-48.44934136546134
 10
223.2811848133474
 20
-19.52234136546137
 42
-0.5773502691899971
 10
228.4773378133474
 20
-19.52234136546137
  0
LWPOLYLINE
  5
8E
100
AcDbEntity
  8
0
  6
ByLayer
 62
    0
370
   -1
100
AcDbPolyline
 90
    4
 70
    1
 43
0
 10
318.5413228133474
 20
-86.37766436546137
 10
318.5413228133474
 20
-78.37766336546137
 42
1.00000005161913
 10
310.5413218133475
 20
-78.37766336546137
 10
310.5413228133474
 20
-86.37766436546137
 42
0.9999996154461669
  0
LWPOLYLINE
  5
8F
100
AcDbEntity
  8
0
  6
ByLayer
 62
    0
370
   -1
100
AcDbPolyline
 90
    4
 70
    1
 43
0
 10
310.5413218133474
 20
-18.37766336546137
 10
310.5413228133474
 20
-26.37766436546137
 42
0.9999996154461678
 10
318.5413228133474
 20
-26.37766436546137
 10
318.5413228133474
 20
-18.37766336546137
 42
1.000000051619132
  0
LWPOLYLINE
  5
90
100
AcDbEntity
  8
0
  6
ByLayer
 62
    0
370
   -1
100
AcDbPolyline
 90
    4
 70
    1
 43
0
 10
310.5413218133474
 20
-298.3776613654613
 10
310.5413228133474
 20
-306.3776623654613
 42
1.000000051619141
 10
318.5413228133474
 20
-306.3776623654613
 10
318.5413228133474
 20
-298.3776613654613
 42
0.9999996160240635
  0
LWPOLYLINE
  5
91
100
AcDbEntity
  8
0
  6
ByLayer
 62
    0
370
   -1
100
AcDbPolyline
 90
    4
 70
    1
 43
0
 10
310.5413218133474
 20
-358.3776613654613
 10
310.5413228133474
 20
-366.3776623654613
 42
1.000000051619141
 10
318.5413228133474
 20
-366.3776623654613
 10
318.5413228133474
 20
-358.3776613654613
 42
0.9999996160240635
  0
LWPOLYLINE
  5
92
100
AcDbEntity
  8
0
  6
ByLayer
 62
    0
370
   -1
100
AcDbPolyline
 90
   16
 70
    1
 43
0
 10
315.4913228133474
 20
-316.3357123654613
 42
0.2679482664649657
 10
315.2413248133474
 20
-316.7687243654614
 10
315.2413218133474
 20
-318.3365953654613
 42
0.2679491924309749
 10
315.4913218133474
 20
-318.7696083654614
 42
-1.303223041599781
 10
314.8083098133475
 20
-319.4526223654614
 42
0.2679482664649776
 10
314.3752978133474
 20
-319.2026233654614
 10
288.7073488133474
 20
-319.2026203654614
 42
0.2679491924310196
 10
288.2743358133474
 20
-319.4526203654614
 42
-1.303223041600095
 10
287.5913218133475
 20
-318.7696083654614
 42
0.2679482664660238
 10
287.8413208133475
 20
-318.3365963654613
 10
287.8413238133475
 20
-316.7687293654614
 42
0.2679491924309823
 10
287.5913238133475
 20
-316.3357173654613
 42
-1.303223041600049
 10
288.2743348133477
 20
-315.6527033654613
 42
0.2679482664649676
 10
288.7073468133474
 20
-315.9027013654614
 10
314.3752958133474
 20
-315.9027013654614
 42
0.2679491924309708
 10
314.8083088133475
 20
-315.6527013654614
 42
-1.303223041600094
  0
LWPOLYLINE
  5
93
100
AcDbEntity
  8
0
  6
ByLayer
 62
    0
370
   -1
100
AcDbPolyline
 90
   16
 70
    1
 43
0
 10
288.2743358133474
 20
-69.10262136546132
 42
-1.303223041600162
 10
287.5913218133475
 20
-68.41960936546134
 42
0.2679482664649995
 10
287.8413208133475
 20
-67.98659736546135
 10
287.8413238133475
 20
-66.41873036546137
 42
0.2679491924309634
 10
287.5913238133475
 20
-65.98571736546124
 42
-1.303223041599982
 10
288.2743348133477
 20
-65.30270336546118
 42
0.2679482664649809
 10
288.7073468133474
 20
-65.55270136546123
 10
314.3752958133474
 20
-65.55270136546135
 42
0.2679491924309907
 10
314.8083088133475
 20
-65.30270136546135
 42
-1.303223041600184
 10
315.4913228133474
 20
-65.98571336546135
 42
0.2679482664650179
 10
315.2413248133474
 20
-66.41872536546133
 10
315.2413218133474
 20
-67.98659536546135
 42
0.26794919243097
 10
315.4913218133474
 20
-68.41960936546135
 42
-1.303223041599873
 10
314.8083098133476
 20
-69.10262336546128
 42
0.2679482664650191
 10
314.3752978133474
 20
-68.85262436546131
 10
288.7073488133474
 20
-68.85262136546133
 42
0.267949192431026
  0
LWPOLYLINE
  5
94
100
AcDbEntity
  8
0
  6
ByLayer
 62
    0
370
   -1
100
AcDbPolyline
 90
   16
 70
    1
 43
0
 10
288.7072788133474
 20
-44.94766236546143
 42
-0.2679491924311514
 10
288.2742648133473
 20
-44.69766236546144
 42
1.303223041599209
 10
287.5912508133474
 20
-45.38067336546128
 42
-0.2679482664649379
 10
287.8412498133473
 20
-45.81368536546135
 10
287.8412528133474
 20
-47.38155336546133
 42
-0.2679491924309848
 10
287.5912528133474
 20
-47.81456636546164
 42
1.303223041599882
 10
288.2742648133475
 20
-48.49758036546152
 42
-0.2679482664650285
 10
288.7072768133474
 20
-48.24758136546146
 10
293.1752268133474
 20
-48.24758136546141
 42
-0.2679491924309189
 10
293.6082388133475
 20
-48.49758136546154
 42
1.303223041600906
 10
294.2912528133475
 20
-47.81456936546159
 42
-0.2679482617890234
 10
294.0412548133475
 20
-47.38155736546138
 10
294.0412518133475
 20
-45.81368736546135
 42
-0.2679491924309728
 10
294.2912518133475
 20
-45.38067536546131
 42
1.303223041600221
 10
293.6082398133475
 20
-44.69766136546141
 42
-0.2679482664650133
 10
293.1752278133474
 20
-44.94765936546143
  0
LWPOLYLINE
  5
95
100
AcDbEntity
  8
0
  6
ByLayer
 62
    0
370
   -1
100
AcDbPolyline
 90
   16
 70
    1
 43
0
 10
315.2412538133474
 20
-47.38155736546138
 10
315.2412508133474
 20
-45.81368736546135
 42
-0.2679491924309728
 10
315.4912508133474
 20
-45.38067536546133
 42
1.303223041599824
 10
314.8082398133473
 20
-44.69766136546139
 42
-0.2679482664649857
 10
314.3752278133475
 20
-44.94765936546138
 10
309.9072778133475
 20
-44.94766236546137
 42
-0.2679491924309907
 10
309.4742648133474
 20
-44.69766236546138
 42
1.303223041600133
 10
308.7912508133475
 20
-45.38067336546134
 42
-0.2679482664649058
 10
309.0412498133473
 20
-45.81368536546135
 10
309.0412528133475
 20
-47.38155336546133
 42
-0.2679491924309634
 10
308.7912528133475
 20
-47.81456636546145
 42
1.303223041600327
 10
309.4742638133473
 20
-48.49758036546134
 42
-0.2679482664650052
 10
309.9072758133474
 20
-48.24758136546136
 10
314.3752258133475
 20
-48.24758136546136
 42
-0.2679491924309984
 10
314.8082378133474
 20
-48.49758136546136
 42
1.303223041600168
 10
315.4912518133474
 20
-47.81456936546132
 42
-0.2679482664650084
  0
LWPOLYLINE
  5
96
100
AcDbEntity
  8
0
  6
ByLayer
 62
    0
370
   -1
100
AcDbPolyline
 90
   16
 70
    1
 43
0
 10
276.5462778133474
 20
-34.91163536546132
 10
276.5462748133474
 20
-30.44368536546135
 42
-0.2679491924729838
 10
276.7962748133474
 20
-30.01067336546146
 42
1.303223029820115
 10
276.1132628133474
 20
-29.32765936546137
 42
-0.2679482664649807
 10
275.6802508133475
 20
-29.57765736546126
 10
274.1123838133474
 20
-29.57766036546137
 42
-0.2679491924309972
 10
273.6793698133474
 20
-29.32766036546138
 42
1.303223041600166
 10
272.9963558133475
 20
-30.01067236546134
 42
-0.2679482664229707
 10
273.2463548133474
 20
-30.44368436546135
 10
273.2463558133475
 20
-34.91163336546133
 42
-0.2679491924740199
 10
272.9963558133475
 20
-35.34464736546145
 42
1.303223041599914
 10
273.6793678133474
 20
-36.02766136546136
 42
-0.2679482664649871
 10
274.1123798133474
 20
-35.77766236546135
 10
275.6802498133475
 20
-35.77765836546136
 42
-0.2679491924310153
 10
276.1132628133473
 20
-36.02765836546138
 42
1.303223041599751
 10
276.7962758133474
 20
-35.34464736546123
 42
-0.2679482664229981
  0
LWPOLYLINE
  5
97
100
AcDbEntity
  8
0
  6
ByLayer
 62
    0
370
   -1
100
AcDbPolyline
 90
   16
 70
    1
 43
0
 10
276.5462718133474
 20
-9.243685365461362
 42
-0.2679491924729812
 10
276.7962718133474
 20
-8.810673365461428
 42
1.303223041599797
 10
276.1132598133474
 20
-8.127659365461341
 42
-0.2679482664649795
 10
275.6802478133475
 20
-8.377657365461332
 10
274.1123808133474
 20
-8.377660365461326
 42
-0.2679491924309898
 10
273.6793668133474
 20
-8.127661365461318
 42
1.303223029819964
 10
272.9963528133475
 20
-8.810672365461263
 42
-0.2679482664230185
 10
273.2463518133475
 20
-9.243684365461364
 10
273.2463528133475
 20
-13.71163436546134
 42
-0.2679491924740395
 10
272.9963528133475
 20
-14.14464736546124
 42
1.303223029820064
 10
273.6793648133474
 20
-14.8276613654614
 42
-0.2679482664649826
 10
274.1123768133474
 20
-14.57766236546137
 10
275.6802468133475
 20
-14.57765936546143
 42
-0.2679491924309582
 10
276.1132598133474
 20
-14.82765936546145
 42
1.30322302982007
 10
276.7962728133474
 20
-14.14464736546135
 42
-0.2679482664229833
 10
276.5462748133474
 20
-13.71163536546134
  0
LWPOLYLINE
  5
98
100
AcDbEntity
  8
0
  6
ByLayer
 62
    0
370
   -1
100
AcDbPolyline
 90
   16
 70
    1
 43
0
 10
288.7072718133475
 20
4.09233763453865
 42
-0.2679491924309872
 10
288.2742578133476
 20
4.342337634538891
 42
1.303223041599443
 10
287.5912438133474
 20
3.659326634538638
 42
-0.2679482664650902
 10
287.8412428133475
 20
3.226314634538666
 10
287.8412458133474
 20
1.658446634538633
 42
-0.2679491924310081
 10
287.5912458133474
 20
1.225433634538602
 42
1.303223041599729
 10
288.2742578133472
 20
0.5424196345387833
 42
-0.2679482664650511
 10
288.7072698133475
 20
0.7924186345386616
 10
293.1752198133474
 20
0.7924186345386616
 42
-0.2679491924310051
 10
293.6082318133474
 20
0.542418634538659
 42
1.303223041599949
 10
294.2912458133475
 20
1.225430634538603
 42
-0.2679482664649914
 10
294.0412478133475
 20
1.658442634538643
 10
294.0412448133475
 20
3.226312634538671
 42
-0.2679491924309855
 10
294.2912448133475
 20
3.659324634539027
 42
1.303223041598934
 10
293.6082328133474
 20
4.342338634538761
 42
-0.2679482664650385
 10
293.1752208133474
 20
4.092340634538527
  0
LWPOLYLINE
  5
99
100
AcDbEntity
  8
0
  6
ByLayer
 62
    0
370
   -1
100
AcDbPolyline
 90
   16
 70
    1
 43
0
 10
309.4742578133474
 20
4.342337634538655
 42
1.303223041599976
 10
308.7912438133475
 20
3.659326634538636
 42
-0.2679482664650205
 10
309.0412428133476
 20
3.226314634538666
 10
309.0412458133475
 20
1.658446634538633
 42
-0.2679491924310115
 10
308.7912458133475
 20
1.225433634538684
 42
1.30322304159984
 10
309.4742568133476
 20
0.5424196345386678
 42
-0.2679482617890059
 10
309.9072688133474
 20
0.7924186345387754
 10
314.3752188133475
 20
0.7924186345386616
 42
-0.2679491924310051
 10
314.8082308133474
 20
0.5424186345386801
 42
1.303223041600171
 10
315.4912448133474
 20
1.225430634538645
 42
-0.2679482664649697
 10
315.2412468133474
 20
1.658442634538643
 10
315.2412438133474
 20
3.226312634538671
 42
-0.2679491924310081
 10
315.4912438133474
 20
3.659324634538712
 42
1.303223041601284
 10
314.8082328133473
 20
4.342338634538672
 42
-0.267948266464954
 10
314.3752208133475
 20
4.092340634538642
 10
309.9072708133474
 20
4.09233763453865
 42
-0.2679491924310315
  0
LWPOLYLINE
  5
9A
100
AcDbEntity
  8
0
  6
ByLayer
 62
    0
370
   -1
100
AcDbPolyline
 90
   16
 70
    1
 43
0
 10
287.8413238133475
 20
-337.3737283654614
 42
0.2679491924309777
 10
287.5913238133475
 20
-336.9407153654614
 42
-1.303223041599867
 10
288.2743348133475
 20
-336.2577013654613
 42
0.2679482664649909
 10
288.7073468133474
 20
-336.5076993654613
 10
293.1752968133475
 20
-336.5076993654613
 42
0.2679491924309894
 10
293.6083088133474
 20
-336.2576993654613
 42
-1.303223041600144
 10
294.2913228133474
 20
-336.9407113654614
 42
0.2679482664650255
 10
294.0413248133474
 20
-337.3737233654614
 10
294.0413218133474
 20
-338.9415933654614
 42
0.2679491924309691
 10
294.2913218133474
 20
-339.3746073654613
 42
-1.303223041600667
 10
293.6083108133473
 20
-340.0576213654613
 42
0.2679482617889328
 10
293.1752988133475
 20
-339.8076223654613
 10
288.7073488133474
 20
-339.8076193654613
 42
0.267949192430986
 10
288.2743358133474
 20
-340.0576193654612
 42
-1.303223041600685
 10
287.5913218133475
 20
-339.3746073654612
 42
0.2679482664659809
 10
287.8413208133475
 20
-338.9415953654614
  0
LWPOLYLINE
  5
9B
100
AcDbEntity
  8
0
  6
ByLayer
 62
    0
370
   -1
100
AcDbPolyline
 90
   16
 70
    1
 43
0
 10
314.3752978133474
 20
-339.8076223654614
 10
309.9073478133474
 20
-339.8076193654614
 42
0.2679491924309851
 10
309.4743348133476
 20
-340.0576193654614
 42
-1.303223041600116
 10
308.7913208133474
 20
-339.3746073654613
 42
0.2679482664659962
 10
309.0413198133475
 20
-338.9415953654614
 10
309.0413228133474
 20
-337.3737283654614
 42
0.2679491924309739
 10
308.7913228133474
 20
-336.9407153654615
 42
-1.30322304160021
 10
309.4743348133473
 20
-336.2577013654614
 42
0.2679482664650185
 10
309.9073468133474
 20
-336.5076993654613
 10
314.3752958133474
 20
-336.5076993654613
 42
0.2679491924309708
 10
314.8083088133475
 20
-336.2576993654613
 42
-1.303223041600172
 10
315.4913228133474
 20
-336.9407113654614
 42
0.2679482664650255
 10
315.2413248133474
 20
-337.3737233654614
 10
315.2413218133474
 20
-338.9415933654614
 42
0.2679491924309774
 10
315.4913218133474
 20
-339.3746073654614
 42
-1.303223041599886
 10
314.8083098133475
 20
-340.0576213654614
 42
0.2679482664649998
  0
LWPOLYLINE
  5
9C
100
AcDbEntity
  8
0
  6
ByLayer
 62
    0
370
   -1
100
AcDbPolyline
 90
   16
 70
    1
 43
0
 10
276.5462828133475
 20
-349.8436933654614
 10
276.5462798133474
 20
-354.3116433654614
 42
0.2679491924309625
 10
276.7962798133474
 20
-354.7446563654614
 42
-1.303223041599819
 10
276.1132678133474
 20
-355.4276703654614
 42
0.267948266465018
 10
275.6802558133475
 20
-355.1776713654614
 10
274.1123888133475
 20
-355.1776683654614
 42
0.2679491924309972
 10
273.6793758133474
 20
-355.4276683654614
 42
-1.303223041599972
 10
272.9963618133474
 20
-354.7446573654613
 42
0.2679482664649471
 10
273.2463608133473
 20
-354.3116453654613
 10
273.2463608133475
 20
-349.8436953654614
 42
0.2679491924309705
 10
272.9963608133475
 20
-349.4106823654613
 42
-1.303223041599791
 10
273.6793718133475
 20
-348.7276683654613
 42
0.2679482664649952
 10
274.1123838133474
 20
-348.9776663654613
 10
275.6802548133475
 20
-348.9776693654614
 42
0.2679491924309853
 10
276.1132668133474
 20
-348.7276693654613
 42
-1.303223041600106
 10
276.7962808133474
 20
-349.4106813654614
 42
0.267948266464988
  0
LWPOLYLINE
  5
9D
100
AcDbEntity
  8
0
  6
ByLayer
 62
    0
370
   -1
100
AcDbPolyline
 90
   16
 70
    1
 43
0
 10
276.1132678133474
 20
-376.6276703654614
 42
0.267948266465018
 10
275.6802558133475
 20
-376.3776713654614
 10
274.1123888133475
 20
-376.3776683654614
 42
0.2679491924309708
 10
273.6793758133474
 20
-376.6276683654614
 42
-1.303223041600001
 10
272.9963618133474
 20
-375.9446563654613
 42
0.267948266464954
 10
273.2463608133473
 20
-375.5116443654614
 10
273.2463608133475
 20
-371.0436943654614
 42
0.2679491924310017
 10
272.9963608133475
 20
-370.6106823654612
 42
-1.303223041599896
 10
273.6793718133475
 20
-369.9276683654613
 42
0.2679482664649909
 10
274.1123838133474
 20
-370.1776663654614
 10
275.6802548133475
 20
-370.1776693654614
 42
0.2679491924309853
 10
276.1132668133474
 20
-369.9276693654613
 42
-1.303223041600105
 10
276.7962808133474
 20
-370.6106803654613
 42
0.2679482664650114
 10
276.5462828133475
 20
-371.0436923654614
 10
276.5462798133474
 20
-375.5116423654613
 42
0.2679491924309744
 10
276.7962798133474
 20
-375.9446563654614
 42
-1.303223041599819
  0
LWPOLYLINE
  5
9E
100
AcDbEntity
  8
0
  6
ByLayer
 62
    0
370
   -1
100
AcDbPolyline
 90
   16
 70
    1
 43
0
 10
293.1752968133475
 20
-385.5476993654614
 42
0.2679491924309894
 10
293.6083088133474
 20
-385.2976993654614
 42
-1.303223041600266
 10
294.2913228133474
 20
-385.9807113654613
 42
0.2679482664650337
 10
294.0413248133474
 20
-386.4137233654614
 10
294.0413218133474
 20
-387.9815933654614
 42
0.2679491924309734
 10
294.2913218133473
 20
-388.4146073654613
 42
-1.303223041600429
 10
293.6083108133473
 20
-389.0976213654614
 42
0.2679482617889549
 10
293.1752988133475
 20
-388.8476223654613
 10
288.7073488133474
 20
-388.8476193654614
 42
0.2679491924310053
 10
288.2743358133473
 20
-389.0976193654612
 42
-1.303223041600361
 10
287.5913218133475
 20
-388.4146073654613
 42
0.2679482664659628
 10
287.8413208133475
 20
-387.9815953654614
 10
287.8413238133475
 20
-386.4137283654613
 42
0.2679491924309891
 10
287.5913238133475
 20
-385.9807153654613
 42
-1.303223041599896
 10
288.2743348133475
 20
-385.2977013654613
 42
0.2679482664649647
 10
288.7073468133474
 20
-385.5476993654614
  0
LWPOLYLINE
  5
9F
100
AcDbEntity
  8
0
  6
ByLayer
 62
    0
370
   -1
100
AcDbPolyline
 90
   16
 70
    1
 43
0
 10
303.1912818133475
 20
-264.2687273654614
 10
303.1912788133475
 20
-268.7366773654613
 42
0.2679491924309591
 10
303.4412788133475
 20
-269.1696913654614
 42
-1.303223041599801
 10
302.7582668133473
 20
-269.8527053654615
 42
0.2679482664650555
 10
302.3252548133474
 20
-269.6027063654614
 10
300.7573878133475
 20
-269.6027033654614
 42
0.2679491924310012
 10
300.3243748133474
 20
-269.8527033654614
 42
-1.3032230416002
 10
299.6413608133474
 20
-269.1696913654616
 42
0.2679482664660847
 10
299.8913598133475
 20
-268.7366793654613
 10
299.8913598133474
 20
-264.2687293654614
 42
0.267949192431024
 10
299.6413598133474
 20
-263.8357173654614
 42
-1.303223041600077
 10
300.3243708133474
 20
-263.1527033654613
 42
0.2679482664660009
 10
300.7573828133475
 20
-263.4027013654613
 10
302.3252538133474
 20
-263.4027043654613
 42
0.267949192430967
 10
302.7582658133474
 20
-263.1527043654613
 42
-1.303223041599934
 10
303.4412798133475
 20
-263.8357153654613
 42
0.2679482664649657
  0
LWPOLYLINE
  5
A0
100
AcDbEntity
  8
0
  6
ByLayer
 62
    0
370
   -1
100
AcDbPolyline
 90
   16
 70
    1
 43
0
 10
303.1912818133475
 20
-243.0687283654614
 10
303.1912788133475
 20
-247.5366783654614
 42
0.2679491924310199
 10
303.4412788133475
 20
-247.9696913654615
 42
-1.303223041599849
 10
302.7582668133473
 20
-248.6527053654615
 42
0.2679482664650008
 10
302.3252548133474
 20
-248.4027063654614
 10
300.7573878133475
 20
-248.4027033654613
 42
0.2679491924310012
 10
300.3243748133474
 20
-248.6527033654613
 42
-1.303223041599995
 10
299.6413608133474
 20
-247.9696923654614
 42
0.2679482664660495
 10
299.8913598133475
 20
-247.5366803654614
 10
299.8913598133474
 20
-243.0687303654614
 42
0.2679491924310272
 10
299.6413598133474
 20
-242.6357173654614
 42
-1.303223041600039
 10
300.3243708133473
 20
-241.9527033654614
 42
0.2679482664650357
 10
300.7573828133475
 20
-242.2027013654614
 10
302.3252538133474
 20
-242.2027043654614
 42
0.2679491924309194
 10
302.7582658133472
 20
-241.9527043654614
 42
-1.303223041599797
 10
303.4412798133475
 20
-242.6357163654613
 42
0.2679482664650261
  0
LWPOLYLINE
  5
A1
100
AcDbEntity
  8
0
  6
ByLayer
 62
    0
370
   -1
100
AcDbPolyline
 90
   16
 70
    1
 43
0
 10
302.7582868133475
 20
-136.1026223654613
 42
-1.303223041600019
 10
303.4413008133474
 20
-136.7856333654614
 42
0.267948266464988
 10
303.1913028133474
 20
-137.2186453654614
 10
303.1912998133474
 20
-141.6865953654614
 42
0.2679491924309739
 10
303.4412998133474
 20
-142.1196093654614
 42
-1.303223041598571
 10
302.7582878133476
 20
-142.8026233654614
 42
0.2679482664650892
 10
302.3252758133474
 20
-142.5526243654614
 10
300.7574088133474
 20
-142.5526213654613
 42
0.267949192430986
 10
300.3243958133473
 20
-142.8026213654614
 42
-1.303223041600077
 10
299.6413818133474
 20
-142.1196093654611
 42
0.2679482664649342
 10
299.8913808133473
 20
-141.6865973654614
 10
299.8913808133474
 20
-137.2186473654614
 42
0.2679491924309747
 10
299.6413808133474
 20
-136.7856353654614
 42
-1.303223041599858
 10
300.3243918133475
 20
-136.1026213654613
 42
0.2679482664649909
 10
300.7574038133474
 20
-136.3526193654614
 10
302.3252748133474
 20
-136.3526223654613
 42
0.267949192430962
  0
LWPOLYLINE
  5
A2
100
AcDbEntity
  8
0
  6
ByLayer
 62
    0
370
   -1
100
AcDbPolyline
 90
   16
 70
    1
 43
0
 10
303.4413008133474
 20
-115.5856343654614
 42
0.2679482664650139
 10
303.1913028133474
 20
-116.0186463654613
 10
303.1912998133474
 20
-120.4865963654614
 42
0.2679491924309704
 10
303.4412998133474
 20
-120.9196093654614
 42
-1.303223041599256
 10
302.7582878133476
 20
-121.6026233654613
 42
0.2679482664649598
 10
302.3252758133474
 20
-121.3526243654613
 10
300.7574088133474
 20
-121.3526213654613
 42
0.2679491924310408
 10
300.3243958133473
 20
-121.6026213654613
 42
-1.30322304159994
 10
299.6413818133474
 20
-120.919610365461
 42
0.2679482664649342
 10
299.8913808133473
 20
-120.4865983654613
 10
299.8913808133474
 20
-116.0186483654614
 42
0.2679491924309815
 10
299.6413808133474
 20
-115.5856353654615
 42
-1.303223041600166
 10
300.3243918133475
 20
-114.9026213654612
 42
0.2679482664650128
 10
300.7574038133474
 20
-115.1526193654613
 10
302.3252748133474
 20
-115.1526223654612
 42
0.2679491924309472
 10
302.7582868133474
 20
-114.9026223654612
 42
-1.30322304160027
  0
LWPOLYLINE
  5
A3
100
AcDbEntity
  8
0
  6
ByLayer
 62
    0
370
   -1
100
AcDbPolyline
 90
   16
 70
    1
 43
0
 10
237.8412528133474
 20
-316.7686833654614
 10
237.8412558133474
 20
-318.3365513654613
 42
-0.2679491924309667
 10
237.5912558133474
 20
-318.7695643654613
 42
1.303223041600097
 10
238.2742678133475
 20
-319.4525783654614
 42
-0.267948266465018
 10
238.7072798133474
 20
-319.2025793654614
 10
243.1752288133474
 20
-319.2025793654614
 42
-0.267949192430986
 10
243.6082418133475
 20
-319.4525793654614
 42
1.30322304160012
 10
244.2912558133474
 20
-318.7695673654613
 42
-0.2679482664650212
 10
244.0412578133474
 20
-318.3365553654614
 10
244.0412548133475
 20
-316.7686853654614
 42
-0.2679491924309692
 10
244.2912548133475
 20
-316.3356733654614
 42
1.303223041599786
 10
243.6082428133475
 20
-315.6526593654614
 42
-0.2679482664649352
 10
243.1752308133474
 20
-315.9026573654614
 10
238.7072808133474
 20
-315.9026603654614
 42
-0.2679491924309698
 10
238.2742678133476
 20
-315.6526603654614
 42
1.303223041600173
 10
237.5912538133474
 20
-316.3356713654613
 42
-0.2679482664660391
  0
LWPOLYLINE
  5
A4
100
AcDbEntity
  8
0
  6
ByLayer
 62
    0
370
   -1
100
AcDbPolyline
 90
   16
 70
    1
 43
0
 10
259.0412518133475
 20
-316.7686833654614
 10
259.0412548133475
 20
-318.3365513654613
 42
-0.2679491924309667
 10
258.7912548133475
 20
-318.7695643654613
 42
1.303223041599858
 10
259.4742668133474
 20
-319.4525783654614
 42
-0.2679482664649736
 10
259.9072788133475
 20
-319.2025793654614
 10
264.3752288133475
 20
-319.2025793654614
 42
-0.2679491924309741
 10
264.8082408133474
 20
-319.4525793654614
 42
1.303223041600144
 10
265.4912548133474
 20
-318.7695673654613
 42
-0.2679482617889701
 10
265.2412568133476
 20
-318.3365553654614
 10
265.2412538133474
 20
-316.7686853654614
 42
-0.26794919243096
 10
265.4912538133474
 20
-316.3356733654613
 42
1.303223041600553
 10
264.8082428133474
 20
-315.6526593654614
 42
-0.2679482664649799
 10
264.3752308133475
 20
-315.9026573654614
 10
259.9072808133475
 20
-315.9026603654614
 42
-0.2679491924310384
 10
259.4742668133474
 20
-315.6526603654614
 42
1.303223041600171
 10
258.7912528133475
 20
-316.3356713654614
 42
-0.267948266464875
  0
LWPOLYLINE
  5
A5
100
AcDbEntity
  8
0
  6
ByLayer
 62
    0
370
   -1
100
AcDbPolyline
 90
   16
 70
    1
 43
0
 10
139.4743268133475
 20
-315.6527033654614
 42
0.2679482664650069
 10
139.9073388133475
 20
-315.9027013654614
 10
144.3752888133474
 20
-315.9027013654614
 42
0.2679491924309136
 10
144.8083008133473
 20
-315.6527013654614
 42
-1.303223041599658
 10
145.4913148133475
 20
-316.3357123654613
 42
0.2679482664650073
 10
145.2413168133475
 20
-316.7687243654614
 10
145.2413138133475
 20
-318.3365953654613
 42
0.2679491924309749
 10
145.4913138133475
 20
-318.7696083654614
 42
-1.303223041599762
 10
144.8083028133474
 20
-319.4526223654614
 42
0.2679482664650186
 10
144.3752908133474
 20
-319.2026233654614
 10
139.9073408133474
 20
-319.2026203654614
 42
0.2679491924310295
 10
139.4743268133476
 20
-319.4526203654614
 42
-1.303223041599758
 10
138.7913128133474
 20
-318.7696083654616
 42
0.2679482664660999
 10
139.0413118133475
 20
-318.3365963654613
 10
139.0413148133474
 20
-316.7687293654614
 42
0.2679491924309602
 10
138.7913148133474
 20
-316.3357173654613
 42
-1.303223041600553
  0
LWPOLYLINE
  5
A6
100
AcDbEntity
  8
0
  6
ByLayer
 62
    0
370
   -1
100
AcDbPolyline
 90
   16
 70
    1
 43
0
 10
123.6083018133474
 20
-315.6527013654614
 42
-1.303223041600005
 10
124.2913158133474
 20
-316.3357123654613
 42
0.2679482664650449
 10
124.0413178133474
 20
-316.7687243654614
 10
124.0413148133474
 20
-318.3365953654613
 42
0.2679491924309814
 10
124.2913148133474
 20
-318.7696083654614
 42
-1.303223041599708
 10
123.6083028133474
 20
-319.4526223654614
 42
0.2679482664650294
 10
123.1752908133475
 20
-319.2026233654614
 10
118.7073408133474
 20
-319.2026203654614
 42
0.2679491924310348
 10
118.2743278133474
 20
-319.4526203654614
 42
-1.303223041600059
 10
117.5913138133475
 20
-318.7696083654614
 42
0.2679482664660349
 10
117.8413128133476
 20
-318.3365963654613
 10
117.8413158133475
 20
-316.7687293654614
 42
0.2679491924309759
 10
117.5913158133475
 20
-316.3357173654613
 42
-1.303223041599802
 10
118.2743278133474
 20
-315.6527033654614
 42
0.2679482664650106
 10
118.7073398133474
 20
-315.9027013654614
 10
123.1752888133474
 20
-315.9027013654614
 42
0.267949192430997
  0
LWPOLYLINE
  5
A7
100
AcDbEntity
  8
0
  6
ByLayer
 62
    0
370
   -1
100
AcDbPolyline
 90
   16
 70
    1
 43
0
 10
-36.39169318665256
 20
-319.4526223654614
 42
0.2679482664650091
 10
-36.82470518665259
 20
-319.2026233654614
 10
-41.29265518665257
 20
-319.2026203654614
 42
0.2679491924309872
 10
-41.72566818665248
 20
-319.4526203654614
 42
-1.303223041600149
 10
-42.40868218665262
 20
-318.7696083654614
 42
0.2679482664650447
 10
-42.1586831866526
 20
-318.3365963654613
 10
-42.1586801866526
 20
-316.7687293654614
 42
0.2679491924309865
 10
-42.40868018665263
 20
-316.3357173654613
 42
-1.303223041599916
 10
-41.72566918665269
 20
-315.6527033654614
 42
0.2679482664659935
 10
-41.29265718665256
 20
-315.9027013654614
 10
-36.82470718665259
 20
-315.9027013654614
 42
0.2679491924310086
 10
-36.39169518665256
 20
-315.6527013654614
 42
-1.303223041599939
 10
-35.70868118665253
 20
-316.3357123654613
 42
0.2679482664649954
 10
-35.95867918665256
 20
-316.7687243654614
 10
-35.95868218665255
 20
-318.3365953654613
 42
0.2679491924310045
 10
-35.70868218665254
 20
-318.7696083654614
 42
-1.303223041600007
  0
LWPOLYLINE
  5
A8
100
AcDbEntity
  8
0
  6
ByLayer
 62
    0
370
   -1
100
AcDbPolyline
 90
   16
 70
    1
 43
0
 10
-20.95868118665261
 20
-316.7687293654614
 42
0.2679491924309743
 10
-21.2086811866526
 20
-316.3357173654613
 42
-1.303223041600206
 10
-20.52566918665265
 20
-315.6527033654614
 42
0.2679482664650204
 10
-20.09265718665257
 20
-315.9027013654614
 10
-15.62470818665259
 20
-315.9027013654614
 42
0.2679491924309717
 10
-15.19169518665252
 20
-315.6527013654614
 42
-1.303223041599999
 10
-14.50868118665254
 20
-316.3357123654613
 42
0.2679482664650428
 10
-14.75867918665257
 20
-316.7687243654614
 10
-14.75868218665256
 20
-318.3365953654613
 42
0.2679491924309788
 10
-14.50868218665255
 20
-318.7696083654614
 42
-1.303223041599719
 10
-15.19169418665249
 20
-319.4526223654614
 42
0.2679482664649858
 10
-15.6247061866526
 20
-319.2026233654614
 10
-20.09265618665257
 20
-319.2026203654614
 42
0.267949192430987
 10
-20.52566918665244
 20
-319.4526203654614
 42
-1.303223041600083
 10
-21.20868318665261
 20
-318.7696083654614
 42
0.2679482664660254
 10
-20.95868418665249
 20
-318.3365963654613
  0
LWPOLYLINE
  5
A9
100
AcDbEntity
  8
0
  6
ByLayer
 62
    0
370
   -1
100
AcDbPolyline
 90
   16
 70
    1
 43
0
 10
-42.4086821866526
 20
-259.8763693654614
 42
0.2679482664650037
 10
-42.1586831866526
 20
-259.4433573654613
 10
-42.1586801866526
 20
-257.8754903654614
 42
0.2679491924309944
 10
-42.40868018665262
 20
-257.4424773654613
 42
-1.303223041599883
 10
-41.72566918665271
 20
-256.7594633654613
 42
0.2679482664649771
 10
-41.29265718665256
 20
-257.0094613654613
 10
-36.82470718665259
 20
-257.0094613654613
 42
0.2679491924310067
 10
-36.39169518665254
 20
-256.7594613654613
 42
-1.303223041599581
 10
-35.70868118665253
 20
-257.4424733654614
 42
0.2679482664649794
 10
-35.95867918665256
 20
-257.8754853654614
 10
-35.95868218665255
 20
-259.4433553654613
 42
0.2679491924309855
 10
-35.70868218665253
 20
-259.8763693654614
 42
-1.303223041599989
 10
-36.39169318665247
 20
-260.5593833654614
 42
0.2679482617889361
 10
-36.82470518665259
 20
-260.3093843654614
 10
-41.29265518665257
 20
-260.3093813654614
 42
0.2679491924309853
 10
-41.72566818665247
 20
-260.5593813654614
 42
-1.303223041599961
  0
LWPOLYLINE
  5
AA
100
AcDbEntity
  8
0
  6
ByLayer
 62
    0
370
   -1
100
AcDbPolyline
 90
   16
 70
    1
 43
0
 10
-15.19169418665254
 20
-260.5593833654614
 42
0.2679482664649657
 10
-15.6247061866526
 20
-260.3093843654615
 10
-20.09265618665257
 20
-260.3093813654614
 42
0.2679491924309456
 10
-20.52566918665238
 20
-260.5593813654613
 42
-1.303223041600159
 10
-21.20868318665257
 20
-259.8763693654615
 42
0.2679482664660695
 10
-20.95868418665249
 20
-259.4433573654613
 10
-20.95868118665261
 20
-257.8754903654614
 42
0.2679491924310167
 10
-21.20868118665259
 20
-257.4424773654613
 42
-1.303223041600098
 10
-20.52566918665251
 20
-256.7594633654613
 42
0.2679482664650037
 10
-20.09265718665257
 20
-257.0094613654613
 10
-15.62470818665259
 20
-257.0094613654613
 42
0.267949192431001
 10
-15.19169518665253
 20
-256.7594613654613
 42
-1.303223041600109
 10
-14.50868118665258
 20
-257.4424733654614
 42
0.2679482664650288
 10
-14.75867918665257
 20
-257.8754853654614
 10
-14.75868218665256
 20
-259.4433553654613
 42
0.2679491924310372
 10
-14.50868218665258
 20
-259.8763693654615
 42
-1.30322304159992
  0
LWPOLYLINE
  5
AB
100
AcDbEntity
  8
0
  6
ByLayer
 62
    0
370
   -1
100
AcDbPolyline
 90
   16
 70
    1
 43
0
 10
-41.72566818665247
 20
-130.5276503654613
 42
-1.303223041599944
 10
-42.40868218665265
 20
-129.8446383654614
 42
0.2679482664649793
 10
-42.1586831866526
 20
-129.4116263654614
 10
-42.1586801866526
 20
-127.8437593654614
 42
0.2679491924310286
 10
-42.4086801866526
 20
-127.4107463654612
 42
-1.303223041599383
 10
-41.72566918665268
 20
-126.7277323654613
 42
0.2679482664649933
 10
-41.29265718665256
 20
-126.9777303654613
 10
-36.82470718665259
 20
-126.9777303654613
 42
0.2679491924310269
 10
-36.3916951866524
 20
-126.7277303654612
 42
-1.303223041600033
 10
-35.70868118665256
 20
-127.4107423654614
 42
0.2679482664650073
 10
-35.95867918665256
 20
-127.8437543654613
 10
-35.95868218665255
 20
-129.4116243654614
 42
0.2679491924309948
 10
-35.70868218665256
 20
-129.8446383654614
 42
-1.303223041600024
 10
-36.39169318665245
 20
-130.5276523654613
 42
0.2679482617890437
 10
-36.82470518665259
 20
-130.2776533654614
 10
-41.29265518665257
 20
-130.2776503654613
 42
0.2679491924309853
  0
LWPOLYLINE
  5
AC
100
AcDbEntity
  8
0
  6
ByLayer
 62
    0
370
   -1
100
AcDbPolyline
 90
   16
 70
    1
 43
0
 10
-21.2086831866526
 20
-129.8446383654614
 42
0.2679482664649976
 10
-20.9586841866526
 20
-129.4116263654614
 10
-20.95868118665261
 20
-127.8437593654614
 42
0.2679491924309815
 10
-21.20868118665261
 20
-127.4107463654611
 42
-1.303223041599733
 10
-20.52566918665276
 20
-126.7277323654612
 42
0.2679482664650209
 10
-20.09265718665257
 20
-126.9777303654612
 10
-15.62470818665259
 20
-126.9777303654613
 42
0.2679491924309946
 10
-15.19169518665253
 20
-126.7277303654613
 42
-1.30322304160014
 10
-14.50868118665256
 20
-127.4107423654614
 42
0.2679482664650067
 10
-14.75867918665257
 20
-127.8437543654613
 10
-14.75868218665256
 20
-129.4116243654614
 42
0.2679491924309691
 10
-14.50868218665257
 20
-129.8446383654614
 42
-1.303223041599807
 10
-15.19169418665253
 20
-130.5276523654613
 42
0.2679482664649933
 10
-15.6247061866526
 20
-130.2776533654613
 10
-20.09265618665257
 20
-130.2776503654613
 42
0.2679491924309558
 10
-20.52566918665242
 20
-130.5276503654613
 42
-1.303223041600144
  0
LWPOLYLINE
  5
AD
100
AcDbEntity
  8
0
  6
ByLayer
 62
    0
370
   -1
100
AcDbPolyline
 90
   16
 70
    1
 43
0
 10
-35.70868118665256
 20
-65.98571236546137
 42
0.2679482664649807
 10
-35.95867918665255
 20
-66.41872436546133
 10
-35.95868218665255
 20
-67.98659436546136
 42
0.2679491924310385
 10
-35.70868218665255
 20
-68.41960736546149
 42
-1.303223041600094
 10
-36.39169318665252
 20
-69.10262136546133
 42
0.2679482664650141
 10
-36.82470518665259
 20
-68.85262236546133
 10
-41.29265518665257
 20
-68.85261936546134
 42
0.2679491924309917
 10
-41.72566818665247
 20
-69.10261936546134
 42
-1.303223041600182
 10
-42.4086821866526
 20
-68.41960836546137
 42
0.2679482664649704
 10
-42.1586831866526
 20
-67.98659636546135
 10
-42.1586801866526
 20
-66.41872836546138
 42
0.2679491924309859
 10
-42.4086801866526
 20
-65.98571636546153
 42
-1.30322304160011
 10
-41.72566918665269
 20
-65.30270236546146
 42
0.2679482664650023
 10
-41.29265718665256
 20
-65.55270036546123
 10
-36.82470718665259
 20
-65.55270036546135
 42
0.2679491924310298
 10
-36.39169518665239
 20
-65.30270036546123
 42
-1.303223041600024
  0
LWPOLYLINE
  5
AE
100
AcDbEntity
  8
0
  6
ByLayer
 62
    0
370
   -1
100
AcDbPolyline
 90
   16
 70
    1
 43
0
 10
-20.52566918665253
 20
-69.10261936546134
 42
-1.303223041599934
 10
-21.2086831866526
 20
-68.41960836546137
 42
0.2679482664649976
 10
-20.9586841866526
 20
-67.98659636546135
 10
-20.95868118665261
 20
-66.41872836546138
 42
0.2679491924309904
 10
-21.20868118665261
 20
-65.98571636546141
 42
-1.303223041600156
 10
-20.52566918665276
 20
-65.30270236546146
 42
0.2679482664650276
 10
-20.09265718665257
 20
-65.55270036546135
 10
-15.62470818665259
 20
-65.55270036546135
 42
0.2679491924309946
 10
-15.19169518665253
 20
-65.30270036546135
 42
-1.303223041600142
 10
-14.50868118665256
 20
-65.98571236546137
 42
0.2679482664650092
 10
-14.75867918665257
 20
-66.41872436546133
 10
-14.75868218665256
 20
-67.98659436546136
 42
0.2679491924309802
 10
-14.50868218665256
 20
-68.41960736546137
 42
-1.303223041599883
 10
-15.19169418665252
 20
-69.10262136546133
 42
0.2679482664650019
 10
-15.6247061866526
 20
-68.85262236546133
 10
-20.09265618665257
 20
-68.85261936546134
 42
0.2679491924309617
  0
LWPOLYLINE
  5
AF
100
AcDbEntity
  8
0
  6
ByLayer
 62
    0
370
   -1
100
AcDbPolyline
 90
   16
 70
    1
 43
0
 10
117.5913138133475
 20
-68.41960836546137
 42
0.2679482664649976
 10
117.8413128133475
 20
-67.98659636546135
 10
117.8413158133475
 20
-66.41872836546138
 42
0.2679491924309923
 10
117.5913158133475
 20
-65.98571636546147
 42
-1.30322304160011
 10
118.2743278133474
 20
-65.30270236546134
 42
0.2679482664649833
 10
118.7073398133474
 20
-65.55270036546135
 10
123.1752888133474
 20
-65.55270036546135
 42
0.267949192430997
 10
123.6083018133474
 20
-65.30270036546135
 42
-1.303223041600136
 10
124.2913158133474
 20
-65.98571236546138
 42
0.2679482664650047
 10
124.0413178133474
 20
-66.41872436546133
 10
124.0413148133474
 20
-67.98659436546136
 42
0.2679491924309809
 10
124.2913148133474
 20
-68.41960736546136
 42
-1.303223041599888
 10
123.6083028133474
 20
-69.10262136546133
 42
0.2679482664649983
 10
123.1752908133475
 20
-68.85262236546133
 10
118.7073408133474
 20
-68.85261936546134
 42
0.2679491924310215
 10
118.2743278133474
 20
-69.10261936546134
 42
-1.303223041600081
  0
LWPOLYLINE
  5
B0
100
AcDbEntity
  8
0
  6
ByLayer
 62
    0
370
   -1
100
AcDbPolyline
 90
   16
 70
    1
 43
0
 10
144.8083028133474
 20
-69.10262136546133
 42
0.2679482664649978
 10
144.3752908133474
 20
-68.85262236546133
 10
139.9073408133474
 20
-68.85261936546134
 42
0.2679491924310017
 10
139.4743268133475
 20
-69.10261936546134
 42
-1.303223041599927
 10
138.7913128133474
 20
-68.41960836546137
 42
0.2679482664649976
 10
139.0413118133474
 20
-67.98659636546135
 10
139.0413148133474
 20
-66.41872836546138
 42
0.2679491924309954
 10
138.7913148133474
 20
-65.98571636546141
 42
-1.303223041600195
 10
139.4743268133473
 20
-65.30270236546146
 42
0.2679482664650223
 10
139.9073388133475
 20
-65.55270036546135
 10
144.3752888133474
 20
-65.55270036546135
 42
0.2679491924310077
 10
144.8083008133474
 20
-65.30270036546135
 42
-1.303223041599982
 10
145.4913148133475
 20
-65.98571236546131
 42
0.267948266464988
 10
145.2413168133475
 20
-66.41872436546133
 10
145.2413138133475
 20
-67.98659436546136
 42
0.2679491924309973
 10
145.4913138133475
 20
-68.41960736546149
 42
-1.303223041599988
  0
LWPOLYLINE
  5
B1
100
AcDbEntity
  8
0
  6
ByLayer
 62
    0
370
   -1
100
AcDbPolyline
 90
   16
 70
    1
 43
0
 10
244.2912558133474
 20
-68.41956836546137
 42
-0.2679482664649841
 10
244.0412578133474
 20
-67.98655636546134
 10
244.0412548133475
 20
-66.41868636546137
 42
-0.2679491924309828
 10
244.2912548133475
 20
-65.98567336546107
 42
1.3032230415999
 10
243.6082428133475
 20
-65.30265936546122
 42
-0.2679482664649595
 10
243.1752308133474
 20
-65.55265736546134
 10
238.7072808133474
 20
-65.55266036546122
 42
-0.2679491924309546
 10
238.2742678133476
 20
-65.30266036546116
 42
1.303223041599954
 10
237.5912538133474
 20
-65.98567236546147
 42
-0.2679482664650802
 10
237.8412528133475
 20
-66.41868436546137
 10
237.8412558133474
 20
-67.98655136546135
 42
-0.2679491924309605
 10
237.5912558133474
 20
-68.41956536546128
 42
1.303223029820042
 10
238.2742678133474
 20
-69.10257936546125
 42
-0.2679482664650064
 10
238.7072798133474
 20
-68.85258036546131
 10
243.1752288133474
 20
-68.85258036546132
 42
-0.2679491924310003
 10
243.6082418133475
 20
-69.10258036546131
 42
1.303223041600047
  0
LWPOLYLINE
  5
B2
100
AcDbEntity
  8
0
  6
ByLayer
 62
    0
370
   -1
100
AcDbPolyline
 90
   16
 70
    1
 43
0
 10
264.3752288133475
 20
-68.85258036546132
 42
-0.2679491924309874
 10
264.8082408133474
 20
-69.10258036546134
 42
1.303223041600152
 10
265.4912548133474
 20
-68.41956836546134
 42
-0.2679482664649694
 10
265.2412568133476
 20
-67.98655636546134
 10
265.2412538133474
 20
-66.41868636546137
 42
-0.2679491924309667
 10
265.4912538133474
 20
-65.98567336546127
 42
1.303223041600319
 10
264.8082428133474
 20
-65.30265936546132
 42
-0.267948266464929
 10
264.3752308133475
 20
-65.55265736546123
 10
259.9072808133475
 20
-65.55266036546134
 42
-0.2679491924310186
 10
259.4742668133474
 20
-65.30266036546136
 42
1.303223041600069
 10
258.7912528133475
 20
-65.98567236546155
 42
-0.2679482664649465
 10
259.0412518133473
 20
-66.41868436546137
 10
259.0412548133475
 20
-67.98655136546135
 42
-0.26794919243097
 10
258.7912548133475
 20
-68.41956536546135
 42
1.303223041599873
 10
259.4742668133473
 20
-69.1025793654613
 42
-0.2679482664650126
 10
259.9072788133475
 20
-68.85258036546132
  0
LWPOLYLINE
  5
B3
100
AcDbEntity
  8
0
  6
ByLayer
 62
    0
370
   -1
100
AcDbPolyline
 90
   16
 70
    1
 43
0
 10
314.3752958133474
 20
-385.5476993654614
 42
0.2679491924309708
 10
314.8083088133475
 20
-385.2976993654614
 42
-1.30322304160019
 10
315.4913228133474
 20
-385.9807113654613
 42
0.2679482664650449
 10
315.2413248133474
 20
-386.4137233654614
 10
315.2413218133474
 20
-387.9815933654614
 42
0.2679491924310353
 10
315.4913218133474
 20
-388.4146073654616
 42
-1.303223041599324
 10
314.8083098133474
 20
-389.0976213654615
 42
0.2679482664650028
 10
314.3752978133474
 20
-388.8476223654613
 10
309.9073478133474
 20
-388.8476193654614
 42
0.2679491924309851
 10
309.4743348133476
 20
-389.0976193654614
 42
-1.303223041600154
 10
308.7913208133474
 20
-388.4146073654613
 42
0.2679482664660005
 10
309.0413198133475
 20
-387.9815953654614
 10
309.0413228133474
 20
-386.4137283654613
 42
0.2679491924310567
 10
308.7913228133474
 20
-385.9807153654613
 42
-1.303223041599962
 10
309.4743348133475
 20
-385.2977013654614
 42
0.2679482664649909
 10
309.9073468133474
 20
-385.5476993654614
  0
LWPOLYLINE
  5
B4
100
AcDbEntity
  8
0
  6
ByLayer
 62
    0
370
   -1
100
AcDbPolyline
 90
   63
 70
    0
 43
0
 10
326.5413228133474
 20
-17.37766136546132
 10
326.5413228133474
 20
2.622334634538629
 42
0.4142137003890035
 10
321.5413228133474
 20
7.622329634538643
 10
270.1913228133475
 20
7.622329634538644
 42
-0.3419984508480001
 10
262.4453558133474
 20
1.622335634538631
 10
-30.71271218665255
 20
1.622333634538633
 42
-0.3419983241319998
 10
-38.4586621866526
 20
7.622329634538648
 10
-53.45867818665256
 20
7.622329634538643
 10
-53.45867818665256
 20
-2.377660365461325
 10
-51.22465818665258
 20
-2.377660365461325
 42
0.2679491924309934
 10
-50.79164518665256
 20
-2.127660365461326
 42
-1.303223041599765
 10
-50.1086311866526
 20
-2.810672365461573
 42
0.2679482664650014
 10
-50.35862918665261
 20
-3.243684365461363
 10
-50.3586321866526
 20
-26.60265636546136
 10
-47.35866118665258
 20
-26.60265636546136
 10
-47.35866118665258
 20
-25.32766136546137
 10
-43.3586321866526
 20
-25.32766136546137
 10
-43.3586321866526
 20
-26.60265636546136
 10
-40.3586321866526
 20
-26.60265636546136
 10
-40.3586321866526
 20
-29.80266736546137
 10
-43.3586321866526
 20
-29.80266736546137
 10
-43.3586321866526
 20
-31.07766136546137
 10
-47.35866118665258
 20
-31.07766136546137
 10
-47.35866118665258
 20
-29.80266736546137
 10
-50.3586321866526
 20
-29.80266736546137
 10
-50.3586321866526
 20
-53.16163736546137
 42
0.2679491924310053
 10
-50.1086321866526
 20
-53.59465136546134
 42
-1.303223041599986
 10
-50.7916441866525
 20
-54.27766536546135
 42
0.2679482664650179
 10
-51.22465618665258
 20
-54.02766636546134
 10
-53.45867818665256
 20
-54.02766336546135
 10
-53.45867818665256
 20
-330.7276623654614
 10
-51.22465818665258
 20
-330.7276623654614
 42
0.267949192430946
 10
-50.79164518665256
 20
-330.4776623654614
 42
-1.303223041600074
 10
-50.10863118665258
 20
-331.1606743654614
 42
0.2679482664649926
 10
-50.35862918665261
 20
-331.5936863654614
 10
-50.3586321866526
 20
-354.9526583654614
 10
-47.35866118665258
 20
-354.9526583654614
 10
-47.35866118665258
 20
-353.6776643654614
 10
-43.3586321866526
 20
-353.6776643654614
 10
-43.3586321866526
 20
-354.9526583654614
 10
-40.3586321866526
 20
-354.9526583654614
 10
-40.3586321866526
 20
-358.1526693654613
 10
-43.3586321866526
 20
-358.1526693654613
 10
-43.3586321866526
 20
-359.4276643654614
 10
-47.35866118665258
 20
-359.4276643654614
 10
-47.35866118665258
 20
-358.1526693654613
 10
-50.3586321866526
 20
-358.1526693654613
 10
-50.3586321866526
 20
-381.5116393654613
 42
0.2679491924310008
 10
-50.10863218665259
 20
-381.9446533654614
 42
-1.303223041599977
 10
-50.79164418665255
 20
-382.6276673654614
 42
0.2679482664650129
 10
-51.22465618665258
 20
-382.3776683654614
 10
-53.45867818665256
 20
-382.3776653654614
 10
-53.45867818665256
 20
-392.3776553654614
 10
-38.45866318665266
 20
-392.3776553654614
 42
-0.3419983241320019
 10
-30.71271218665255
 20
-386.3776753654614
 10
262.4453558133474
 20
-386.3776583654613
 42
-0.3419984508480038
 10
270.1913228133475
 20
-392.3776553654614
 10
321.5413228133474
 20
-392.3776553654614
 42
0.4142137003890055
 10
326.5413228133474
 20
-387.3776603654613
 10
326.5413228133474
 20
-367.3776643654613
 10
324.5413228133474
 20
-365.3776603654613
 10
324.5414618133474
 20
-19.37752836546137
 10
326.5414618133474
 20
-17.37752436546133
  0
LWPOLYLINE
  5
B5
100
AcDbEntity
  8
0
  6
ByLayer
 62
    0
370
   -1
100
AcDbPolyline
 90
    2
 70
    0
 43
0
 10
-53.45867818665256
 20
-330.7276623654614
 10
-53.45867818665256
 20
-330.7187503654613
  0
LWPOLYLINE
  5
B6
100
AcDbEntity
  8
0
  6
ByLayer
 62
    0
370
   -1
100
AcDbPolyline
 90
   16
 70
    1
 43
0
 10
308.5413218133474
 20
-185.6517523654614
 42
0.2914636959410068
 10
307.3866228133475
 20
-183.8391673654613
 10
294.5715758133474
 20
-177.8628543654614
 42
-0.2914637668749982
 10
293.4168778133475
 20
-176.0502673654614
 10
293.4169018133474
 20
-80.37766036546132
 42
0.4135115436419991
 10
285.4361038133475
 20
-72.37766036546132
 10
4.541319813347389
 20
-72.37766036546132
 42
0.4142134452329966
 10
-3.458679186652499
 20
-80.37766236546138
 10
-3.458666186652645
 20
-304.3776633654613
 42
0.4142134449210034
 10
4.54131981334739
 20
-312.3776513654614
 10
285.4360478133474
 20
-312.3776633654613
 42
0.4135115436420043
 10
293.4168458133474
 20
-304.3776633654613
 10
293.4168698133475
 20
-208.6066253654614
 42
-0.2930389507939934
 10
294.5821048133474
 20
-206.7891633654613
 10
307.3760858133475
 20
-200.9128583654614
 42
0.2930390217879921
 10
308.5413218133472
 20
-199.0953963654614
  0
CIRCLE
  5
B7
100
AcDbEntity
  8
0
  6
ByLayer
 62
    0
370
   -1
100
AcDbCircle
 10
251.5412548133475
 20
-317.5526183654613
 40
1.6
  0
CIRCLE
  5
B8
100
AcDbEntity
  8
0
  6
ByLayer
 62
    0
370
   -1
100
AcDbCircle
 10
131.5413148133474
 20
-317.5526623654613
 40
1.6
  0
CIRCLE
  5
B9
100
AcDbEntity
  8
0
  6
ByLayer
 62
    0
370
   -1
100
AcDbCircle
 10
301.5412518133475
 20
-46.59762036546134
 40
1.6
  0
CIRCLE
  5
BA
100
AcDbEntity
  8
0
  6
ByLayer
 62
    0
370
   -1
100
AcDbCircle
 10
301.5413418133475
 20
-128.8526213654613
 40
1.6
  0
CIRCLE
  5
BB
100
AcDbEntity
  8
0
  6
ByLayer
 62
    0
370
   -1
100
AcDbCircle
 10
301.5412448133475
 20
2.442379634538624
 40
1.6
  0
CIRCLE
  5
BC
100
AcDbEntity
  8
0
  6
ByLayer
 62
    0
370
   -1
100
AcDbCircle
 10
301.5413228133474
 20
-338.1576603654614
 40
1.6
  0
CIRCLE
  5
BD
100
AcDbEntity
  8
0
  6
ByLayer
 62
    0
370
   -1
100
AcDbCircle
 10
-28.45868118665261
 20
-171.1319663654614
 40
1.6
  0
CIRCLE
  5
BE
100
AcDbEntity
  8
0
  6
ByLayer
 62
    0
370
   -1
100
AcDbCircle
 10
274.8963148133474
 20
-22.07765936546137
 40
1.6
  0
CIRCLE
  5
BF
100
AcDbEntity
  8
0
  6
ByLayer
 62
    0
370
   -1
100
AcDbCircle
 10
301.5413228133474
 20
-387.1976613654614
 40
1.6
  0
CIRCLE
  5
C0
100
AcDbEntity
  8
0
  6
ByLayer
 62
    0
370
   -1
100
AcDbCircle
 10
-28.45868118665261
 20
-67.20266136546137
 40
1.6
  0
CIRCLE
  5
C1
100
AcDbEntity
  8
0
  6
ByLayer
 62
    0
370
   -1
100
AcDbCircle
 10
274.8963218133474
 20
-362.6776683654614
 40
1.6
  0
CIRCLE
  5
C2
100
AcDbEntity
  8
0
  6
ByLayer
 62
    0
370
   -1
100
AcDbCircle
 10
-28.45868118665261
 20
-317.5526623654613
 40
1.6
  0
CIRCLE
  5
C3
100
AcDbEntity
  8
0
  6
ByLayer
 62
    0
370
   -1
100
AcDbCircle
 10
251.5412548133475
 20
-67.20261936546136
 40
1.6
  0
CIRCLE
  5
C4
100
AcDbEntity
  8
0
  6
ByLayer
 62
    0
370
   -1
100
AcDbCircle
 10
131.5413148133474
 20
-67.20266136546137
 40
1.6
  0
CIRCLE
  5
C5
100
AcDbEntity
  8
0
  6
ByLayer
 62
    0
370
   -1
100
AcDbCircle
 10
-28.45868118665261
 20
-258.6594233654614
 40
1.6
  0
CIRCLE
  5
C6
100
AcDbEntity
  8
0
  6
ByLayer
 62
    0
370
   -1
100
AcDbCircle
 10
301.5413208133474
 20
-255.9027033654613
 40
1.6
  0
CIRCLE
  5
C7
100
AcDbEntity
  8
0
  6
ByLayer
 62
    0
370
   -1
100
AcDbCircle
 10
-28.45868118665261
 20
-128.6276923654614
 40
1.6
  0
CIRCLE
  5
C8
100
AcDbEntity
  8
0
  6
ByLayer
 62
    0
370
   -1
100
AcDbCircle
 10
-28.45868118665261
 20
-213.6362413654614
 40
1.6
  0
ENDBLK
  5
4F
330
4D
100
AcDbEntity
  8
0
100
AcDbBlockEnd
  0
BLOCK
  5
51
330
50
100
AcDbEntity
  8
0
100
AcDbBlockBegin
  2
print_bed
 70
    0
 10
0
 20
0
  3
print_bed
  1

  0
LWPOLYLINE
  5
C9
100
AcDbEntity
  8
0
  6
ByLayer
 62
    0
370
   -1
100
AcDbPolyline
 90
   16
 70
    1
 43
0
 10
164.3447462420462
 20
192.4649804180408
 42
-1.303223041599954
 10
165.0277602420463
 20
193.1479944180408
 42
0.2679482664649862
 10
165.4607712420462
 20
192.8979954180408
 10
187.8287242420462
 20
192.8979764180408
 42
0.2679482664650211
 10
188.2617352420463
 20
193.1479754180408
 42
-1.303223041599849
 10
188.9447472420462
 20
192.4649594180407
 42
0.2679491924499873
 10
188.6947472420462
 20
192.0319474180408
 10
188.6947442420462
 20
184.7639854180408
 42
0.2679482664460071
 10
188.9447422420462
 20
184.3309744180408
 42
-1.303223041600029
 10
188.2617282420463
 20
183.6479624180408
 42
0.267949192430997
 10
187.8287152420462
 20
183.8979634180408
 10
165.4607662420462
 20
183.8979824180408
 42
0.2679491924309896
 10
165.0277522420461
 20
183.6479824180408
 42
-1.303223041600551
 10
164.3447392420462
 20
184.3309944180408
 42
0.2679482664831014
 10
164.5947382420463
 20
184.7640064180408
 10
164.5947472420463
 20
192.0319664180408
 42
0.2679491924140273
  0
LWPOLYLINE
  5
CA
100
AcDbEntity
  8
0
  6
ByLayer
 62
    0
370
   -1
100
AcDbPolyline
 90
   16
 70
    1
 43
0
 10
94.59471424204617
 20
184.7640864180408
 10
94.59472324204637
 20
192.0320464180408
 42
0.2679491924140578
 10
94.34472224204626
 20
192.465060418041
 42
-1.303223041599856
 10
95.0277362420461
 20
193.1480744180407
 42
0.2679482664650209
 10
95.46074724204618
 20
192.8980754180407
 10
117.8287002420462
 20
192.8980574180408
 42
0.2679482664649704
 10
118.2617112420461
 20
193.1480554180408
 42
-1.303223041600096
 10
118.9447232420462
 20
192.4650404180408
 42
0.2679491924499796
 10
118.6947232420462
 20
192.0320274180408
 10
118.6947202420462
 20
184.7640664180408
 42
0.2679482664469571
 10
118.9447182420462
 20
184.3310544180408
 42
-1.303223041600248
 10
118.2617042420461
 20
183.6480434180408
 42
0.2679491924309584
 10
117.8286912420463
 20
183.8980444180408
 10
95.46074224204619
 20
183.8980624180408
 42
0.2679491924310038
 10
95.02772824204624
 20
183.6480624180408
 42
-1.303223041600144
 10
94.34471524204616
 20
184.3310744180408
 42
0.2679482664829584
  0
LWPOLYLINE
  5
CB
100
AcDbEntity
  8
0
  6
ByLayer
 62
    0
370
   -1
100
AcDbPolyline
 90
   16
 70
    1
 43
0
 10
118.6946852420463
 20
14.76404841804083
 10
118.6946882420463
 20
22.03200941804081
 42
-0.2679482664650273
 10
118.9446862420463
 20
22.46502041804069
 42
1.303223041600215
 10
118.2616722420462
 20
23.14803241804083
 42
-0.2679491924309781
 10
117.8286602420462
 20
22.89803241804083
 10
95.46071124204627
 20
22.89803241804083
 42
-0.267949192431012
 10
95.0276972420462
 20
23.14803241804083
 42
1.303223041600005
 10
94.34468324204624
 20
22.46502141804072
 42
-0.2679482664649201
 10
94.59468224204613
 20
22.03200941804081
 10
94.59468524204624
 20
14.76404841804083
 42
-0.2679491924309739
 10
94.34468524204624
 20
14.33103441804079
 42
1.303223041599905
 10
95.0276972420462
 20
13.6480204180408
 42
-0.2679482664650616
 10
95.46070924204616
 20
13.89801941804083
 10
117.8286622420462
 20
13.89801941804083
 42
-0.2679482664650342
 10
118.2616732420463
 20
13.64802041804083
 42
1.303223041599934
 10
118.9446852420463
 20
14.33103541804078
 42
-0.2679491924309819
  0
LWPOLYLINE
  5
CC
100
AcDbEntity
  8
0
  6
ByLayer
 62
    0
370
   -1
100
AcDbPolyline
 90
   16
 70
    1
 43
0
 10
188.6947092420462
 20
14.76407141804083
 10
188.6947122420462
 20
22.03203241804081
 42
-0.2679482664649974
 10
188.9447102420462
 20
22.46504341804081
 42
1.303223041600081
 10
188.2616962420462
 20
23.14805541804083
 42
-0.2679491924309294
 10
187.8286842420462
 20
22.89805541804083
 10
165.4607352420462
 20
22.89805541804083
 42
-0.2679491924309905
 10
165.0277212420463
 20
23.14805541804083
 42
1.303223041600234
 10
164.3447072420462
 20
22.4650444180408
 42
-0.2679482664649582
 10
164.5947062420461
 20
22.03203241804081
 10
164.5947092420462
 20
14.76407141804083
 42
-0.2679491924309515
 10
164.3447092420462
 20
14.33105741804073
 42
1.303223041599662
 10
165.0277212420463
 20
13.64804341804083
 42
-0.2679482664650354
 10
165.4607332420462
 20
13.89804241804083
 10
187.8286862420463
 20
13.89804241804083
 42
-0.2679482664649864
 10
188.2616972420462
 20
13.64804341804083
 42
1.303223041599934
 10
188.9447092420462
 20
14.33105841804078
 42
-0.2679491924309819
  0
LWPOLYLINE
  5
CD
100
AcDbEntity
  8
0
  6
ByLayer
 62
    0
370
   -1
100
AcDbPolyline
 90
    8
 70
    1
 43
0
 10
216.6447172420462
 20
162.2642834180408
 10
216.6447162420461
 20
44.53190141804083
 42
-0.6681785116629857
 10
205.3778112420462
 20
39.86499841804073
 10
174.5778102420462
 20
70.66499641804083
 42
-0.1989124670709992
 10
172.6447132420462
 20
75.33190241804081
 10
172.6447132420462
 20
131.4642814180408
 42
-0.1989124674019995
 10
174.5778102420462
 20
136.1311894180408
 10
205.3778112420462
 20
166.9311864180409
 42
-0.6681785116630073
  0
LWPOLYLINE
  5
CE
100
AcDbEntity
  8
0
  6
ByLayer
 62
    0
370
   -1
100
AcDbPolyline
 90
   16
 70
    1
 43
0
 10
139.1299892420462
 20
83.39809341804082
 10
144.1594262420463
 20
83.39809341804082
 42
-0.1989123583079985
 10
148.4020672420462
 20
81.64073441804081
 10
164.8873482420462
 20
65.15545141804083
 42
-0.1989123360570001
 10
166.6447082420462
 20
60.91281141804083
 10
166.6447072420463
 20
45.88337341804083
 42
-0.198912317514998
 10
164.8873482420461
 20
41.64073341804081
 10
148.4020672420462
 20
25.15545541804082
 42
-0.1989124853149963
 10
144.1594262420463
 20
23.39809441804081
 10
139.1299892420462
 20
23.39809541804081
 42
-0.1989124853149997
 10
134.8873482420462
 20
25.15545541804082
 10
118.4020652420462
 20
41.64073241804081
 42
-0.1989123175160007
 10
116.6447072420463
 20
45.88337341804083
 10
116.6447072420463
 20
60.91281041804081
 42
-0.1989123360590015
 10
118.4020662420462
 20
65.15545141804083
 10
134.8873482420462
 20
81.64073441804081
 42
-0.198912358308
  0
LWPOLYLINE
  5
CF
100
AcDbEntity
  8
0
  6
ByLayer
 62
    0
370
   -1
100
AcDbPolyline
 90
   16
 70
    1
 43
0
 10
148.4020672420462
 20
125.1554514180408
 10
164.8873482420462
 20
141.6407344180408
 42
0.1989123360570016
 10
166.6447082420462
 20
145.8833254180408
 10
166.6447192420462
 20
160.9127634180408
 42
0.1989123175239974
 10
164.8873632420461
 20
165.1554044180408
 10
148.4020962420462
 20
181.6406954180408
 42
0.1989124853150013
 10
144.1594572420462
 20
183.3980604180408
 10
139.1300202420463
 20
183.3980634180408
 42
0.1989124853149997
 10
134.8873772420462
 20
181.6407074180408
 10
118.4020812420462
 20
165.1554424180408
 42
0.1989123174890006
 10
116.6447192420462
 20
160.9128044180408
 10
116.6447072420463
 20
145.8833744180408
 42
0.1989123360589999
 10
118.4020662420462
 20
141.6407344180408
 10
134.8873482420462
 20
125.1554524180407
 42
0.1989123583080026
 10
139.1299892420462
 20
123.3980924180407
 10
144.1594262420463
 20
123.3980924180409
 42
0.1989123583079973
  0
LWPOLYLINE
  5
D0
100
AcDbEntity
  8
0
  6
ByLayer
 62
    0
370
   -1
100
AcDbPolyline
 90
    8
 70
    1
 43
0
 10
66.64469724204616
 20
44.53190241804083
 10
66.64469724204628
 20
162.2642834180408
 42
-0.6681785116599899
 10
77.91160224204623
 20
166.9311874180409
 10
108.7116022420462
 20
136.1311884180406
 42
-0.1989124670719964
 10
110.6447002420462
 20
131.4642834180408
 10
110.6447002420463
 20
75.33190341804081
 42
-0.1989124674019991
 10
108.7116032420462
 20
70.66499741804083
 10
77.91160224204623
 20
39.86499841804081
 42
-0.6681785116599978
  0
LWPOLYLINE
  5
D1
100
AcDbEntity
  8
0
  6
ByLayer
 62
    0
370
   -1
100
AcDbPolyline
 90
   62
 70
    1
 43
0
 10
162.8873472420462
 20
-2.844550581959169
 42
0.1989123038760012
 10
167.1299882420462
 20
-4.601909581959177
 10
184.1594262420463
 20
-4.601907581959182
 42
0.1989123084120004
 10
188.4020662420462
 20
-2.844548581959174
 10
202.8873522420462
 20
11.64073141804082
 42
-0.1989124263469993
 10
207.1299912420462
 20
13.39808941804083
 10
222.1594292420463
 20
13.39809441804081
 42
-0.1989121269740003
 10
226.4020652420462
 20
11.6407354180408
 10
242.6447102420462
 20
-4.601909581959177
 42
0.9999990924489471
 10
249.6447102420462
 20
2.398089418040826
 10
228.4020702420462
 20
23.64073141804093
 42
-0.1989125348559969
 10
226.6447082420464
 20
27.88337441804083
 10
226.6447082420462
 20
88.44834641804081
 42
-0.4142135623730009
 10
236.6447082420462
 20
98.44834641804081
 10
256.1447112420462
 20
98.44834641804081
 42
0.999999092448936
 10
256.1447112420462
 20
108.3478404180408
 10
236.6447082420462
 20
108.3478394180408
 42
-0.4142135572609971
 10
226.6447082420462
 20
118.3478394180408
 10
226.6447062420463
 20
178.9128114180408
 42
-0.198912534857
 10
228.4020692420462
 20
183.1554554180408
 10
249.6447102420462
 20
204.3980964180406
 42
0.9999990924488903
 10
242.6447112420462
 20
211.3980954180407
 10
226.4019872420462
 20
195.1553724180408
 42
-0.1989123628440001
 10
222.1593472420462
 20
193.3980134180408
 10
207.1300302420462
 20
193.3980134180408
 42
-0.1989124263470004
 10
202.8873872420462
 20
195.1553714180408
 10
188.4021192420462
 20
209.6406664180406
 42
0.1989123084119949
 10
184.1594802420462
 20
211.3980314180408
 10
167.1300422420462
 20
211.3980454180406
 42
0.1989123038759945
 10
162.8874002420462
 20
209.6406884180406
 10
148.4021072420462
 20
195.1554144180408
 42
-0.1989123084119995
 10
144.1594652420462
 20
193.3980654180408
 10
139.1300282420463
 20
193.3980694180409
 42
-0.1989123084120122
 10
134.8873882420461
 20
195.1554274180408
 10
120.4021192420461
 20
209.6407224180408
 42
0.1989123038759947
 10
116.1594802420462
 20
211.3980874180408
 10
99.13004224204622
 20
211.3981014180408
 42
0.1989123084119968
 10
94.88740024204617
 20
209.6407444180408
 10
80.40210824204632
 20
195.1554704180408
 42
-0.1989124263470023
 10
76.15946224204617
 20
193.3981154180407
 10
61.12996524204618
 20
193.3981154180408
 42
-0.1989123673799982
 10
56.88732424204636
 20
195.1554754180409
 10
40.64470324204626
 20
211.3980964180408
 42
0.9999990925288564
 10
33.64470424204626
 20
204.3980964180407
 10
54.8873442420462
 20
183.1554544180408
 42
-0.1989125348550007
 10
56.64470624204625
 20
178.9128114180408
 10
56.64470824204625
 20
27.88337341804083
 42
-0.1989125348550002
 10
54.88734524204619
 20
23.64073041804082
 10
33.64470424204626
 20
2.398089418040826
 42
0.9999990924489471
 10
40.64470424204626
 20
-4.601909581959205
 10
56.88735324204617
 20
11.64073241804081
 42
-0.1989121269740015
 10
61.12998624204624
 20
13.39808941804083
 10
76.15942324204627
 20
13.39809541804081
 42
-0.1989124263469997
 10
80.4020672420462
 20
11.6407354180408
 10
94.88734724204619
 20
-2.844550581959169
 42
0.198912308412
 10
99.12998824204624
 20
-4.601909581959177
 10
116.1594262420463
 20
-4.601907581959182
 42
0.1989123038760017
 10
120.4020662420462
 20
-2.844548581959174
 10
134.8873522420462
 20
11.64073241804081
 42
-0.1989123084120007
 10
139.1299892420462
 20
13.39808941804083
 10
144.1594262420463
 20
13.39809541804081
 42
-0.1989123084119977
 10
148.4020672420462
 20
11.6407354180408
  0
CIRCLE
  5
D2
100
AcDbEntity
  8
0
  6
ByLayer
 62
    0
370
   -1
100
AcDbCircle
 10
246.1447072420463
 20
207.8980934180408
 40
1.6
  0
CIRCLE
  5
D3
100
AcDbEntity
  8
0
  6
ByLayer
 62
    0
370
   -1
100
AcDbCircle
 10
124.1447072420463
 20
103.3980934180408
 40
1.6
  0
CIRCLE
  5
D4
100
AcDbEntity
  8
0
  6
ByLayer
 62
    0
370
   -1
100
AcDbCircle
 10
176.6447072420463
 20
3.398093418040816
 40
1.6
  0
CIRCLE
  5
D5
100
AcDbEntity
  8
0
  6
ByLayer
 62
    0
370
   -1
100
AcDbCircle
 10
37.14470724204625
 20
-1.101906581959184
 40
1.6
  0
CIRCLE
  5
D6
100
AcDbEntity
  8
0
  6
ByLayer
 62
    0
370
   -1
100
AcDbCircle
 10
37.14470724204625
 20
207.8980934180408
 40
1.6
  0
CIRCLE
  5
D7
100
AcDbEntity
  8
0
  6
ByLayer
 62
    0
370
   -1
100
AcDbCircle
 10
256.1447072420463
 20
103.3980934180408
 40
1.6
  0
CIRCLE
  5
D8
100
AcDbEntity
  8
0
  6
ByLayer
 62
    0
370
   -1
100
AcDbCircle
 10
106.6447542420462
 20
203.3980924180408
 40
1.6
  0
CIRCLE
  5
D9
100
AcDbEntity
  8
0
  6
ByLayer
 62
    0
370
   -1
100
AcDbCircle
 10
106.6447292420462
 20
173.3980924180408
 40
1.6
  0
CIRCLE
  5
DA
100
AcDbEntity
  8
0
  6
ByLayer
 62
    0
370
   -1
100
AcDbCircle
 10
176.6447292420462
 20
173.3980344180408
 40
1.6
  0
CIRCLE
  5
DB
100
AcDbEntity
  8
0
  6
ByLayer
 62
    0
370
   -1
100
AcDbCircle
 10
176.6447072420463
 20
33.39809341804082
 40
1.6
  0
CIRCLE
  5
DC
100
AcDbEntity
  8
0
  6
ByLayer
 62
    0
370
   -1
100
AcDbCircle
 10
159.1447072420463
 20
115.3980934180408
 40
1.6
  0
CIRCLE
  5
DD
100
AcDbEntity
  8
0
  6
ByLayer
 62
    0
370
   -1
100
AcDbCircle
 10
141.6447072420463
 20
115.3980934180408
 40
1.6
  0
CIRCLE
  5
DE
100
AcDbEntity
  8
0
  6
ByLayer
 62
    0
370
   -1
100
AcDbCircle
 10
176.6447542420462
 20
203.3980344180408
 40
1.6
  0
CIRCLE
  5
DF
100
AcDbEntity
  8
0
  6
ByLayer
 62
    0
370
   -1
100
AcDbCircle
 10
246.1447072420463
 20
-1.101906581959184
 40
1.6
  0
CIRCLE
  5
E0
100
AcDbEntity
  8
0
  6
ByLayer
 62
    0
370
   -1
100
AcDbCircle
 10
106.6447072420463
 20
33.39809341804082
 40
1.6
  0
CIRCLE
  5
E1
100
AcDbEntity
  8
0
  6
ByLayer
 62
    0
370
   -1
100
AcDbCircle
 10
159.1447072420463
 20
91.39809341804082
 40
1.6
  0
CIRCLE
  5
E2
100
AcDbEntity
  8
0
  6
ByLayer
 62
    0
370
   -1
100
AcDbCircle
 10
141.6447072420463
 20
91.39809341804082
 40
1.6
  0
CIRCLE
  5
E3
100
AcDbEntity
  8
0
  6
ByLayer
 62
    0
370
   -1
100
AcDbCircle
 10
106.6447072420463
 20
3.398093418040816
 40
1.6
  0
ENDBLK
  5
52
330
50
100
AcDbEntity
  8
0
100
AcDbBlockEnd
  0
BLOCK
  5
54
330
53
100
AcDbEntity
  8
0
100
AcDbBlockBegin
  2
print_bed_adapter
 70
    0
 10
0
 20
0
  3
print_bed_adapter
  1

  0
LWPOLYLINE
  5
E4
100
AcDbEntity
  8
0
  6
ByLayer
 62
    0
370
   -1
100
AcDbPolyline
 90
   10
 70
    1
 43
0
 10
6.816306894038121
 20
146.8962420509682
 42
-0.999999092448924
 10
16.71580089403813
 20
146.8962420509682
 10
16.71580389403812
 20
51.34598505096824
 42
0.4142135740900056
 10
20.71580489403811
 20
47.34598505096824
 10
21.76605789403811
 20
47.34598505096824
 42
-0.999999092448936
 10
21.76605789403811
 20
37.44649105096823
 10
20.71579889403813
 20
37.44649105096823
 42
0.4142135572610016
 10
16.71579889403813
 20
33.44649105096823
 10
16.71580089403813
 20
-62.10376694903175
 42
-0.9999990924489298
 10
6.816306894038121
 20
-62.10376594903175
  0
CIRCLE
  5
E5
100
AcDbEntity
  8
0
  6
ByLayer
 62
    0
370
   -1
100
AcDbCircle
 10
21.76605389403812
 20
42.39623805096824
 40
1.6
  0
CIRCLE
  5
E6
100
AcDbEntity
  8
0
  6
ByLayer
 62
    0
370
   -1
100
AcDbCircle
 10
11.76605389403812
 20
-62.10376194903176
 40
1.6
  0
CIRCLE
  5
E7
100
AcDbEntity
  8
0
  6
ByLayer
 62
    0
370
   -1
100
AcDbCircle
 10
11.76605389403812
 20
146.8962380509682
 40
1.6
  0
ENDBLK
  5
55
330
53
100
AcDbEntity
  8
0
100
AcDbBlockEnd
  0
BLOCK
  5
57
330
56
100
AcDbEntity
  8
0
100
AcDbBlockBegin
  2
print_bed_bearing_clamp
 70
    0
 10
0
 20
0
  3
print_bed_bearing_clamp
  1

  0
LWPOLYLINE
  5
E8
100
AcDbEntity
  8
0
  6
ByLayer
 62
    0
370
   -1
100
AcDbPolyline
 90
   34
 70
    1
 43
0
 10
8.466420387798962
 20
-20.72534848665686
 10
8.466420387798962
 20
-17.52533648665684
 10
11.46642038779896
 20
-17.52533648665684
 10
11.46642038779896
 20
-16.25034248665685
 10
15.46644838779901
 20
-16.25034248665685
 10
15.46644838779901
 20
-17.52533648665684
 10
18.46642038779896
 20
-17.52533648665684
 10
18.46642038779896
 20
-11.62534248665685
 10
13.36740138779896
 20
-11.62534248665685
 42
-0.9999999999999999
 10
13.36740138779896
 20
3.374657513343152
 10
18.46642038779896
 20
3.374657513343152
 10
18.46642038779896
 20
9.274651513343144
 10
15.46644838779901
 20
9.274651513343144
 10
15.46644838779901
 20
7.999657513343152
 10
11.46642038779896
 20
7.999657513343152
 10
11.46642038779896
 20
9.274651513343144
 10
8.466420387798962
 20
9.274651513343144
 10
8.466420387798962
 20
12.47466351334316
 10
11.46642038779896
 20
12.47466351334316
 10
11.46642038779896
 20
13.74965751334315
 10
15.46644838779901
 20
13.74965751334315
 10
15.46644838779901
 20
12.47466351334316
 10
18.46642038779896
 20
12.47466351334316
 10
18.46642038779896
 20
15.47466351334316
 10
6.457674387798988
 20
15.47466351334305
 42
0.4142135623729952
 10
3.457674387798988
 20
12.47466351334316
 10
3.457674387798988
 20
-20.72534848665686
 42
0.4142135623730063
 10
6.457674387798988
 20
-23.72534848665686
 10
18.46642038779896
 20
-23.72534848665686
 10
18.46642038779896
 20
-20.72534848665686
 10
15.46644838779901
 20
-20.72534848665686
 10
15.46644838779901
 20
-22.00034248665685
 10
11.46642038779896
 20
-22.00034248665685
 10
11.46642038779896
 20
-20.72534848665686
  0
ENDBLK
  5
58
330
56
100
AcDbEntity
  8
0
100
AcDbBlockEnd
  0
BLOCK
  5
5A
330
59
100
AcDbEntity
  8
0
100
AcDbBlockBegin
  2
NEMA17_fixing_plate
 70
    0
 10
0
 20
0
  3
NEMA17_fixing_plate
  1

  0
LWPOLYLINE
  5
E9
100
AcDbEntity
  8
0
  6
ByLayer
 62
    0
370
   -1
100
AcDbPolyline
 90
   16
 70
    1
 43
0
 10
7.137683461626523
 20
23.68153597014401
 42
0.2679482664649541
 10
6.70467146162656
 20
23.93153497014401
 10
5.136803461626528
 20
23.93153797014401
 42
0.2679491924309951
 10
4.703790461626511
 20
23.68153797014401
 42
-1.303223041599905
 10
4.020776461626554
 20
24.364549970144
 42
0.2679482664650109
 10
4.270775461626556
 20
24.79756197014402
 10
4.270775461626556
 20
29.26551197014402
 42
0.2679491924310011
 10
4.020775461626556
 20
29.69852397014398
 42
-1.303223041600076
 10
4.703787461626462
 20
30.381537970144
 42
0.2679482664649923
 10
5.136799461626538
 20
30.13153997014405
 10
6.704669461626509
 20
30.131536970144
 42
0.2679491924309853
 10
7.137681461626357
 20
30.381536970144
 42
-1.303223041599611
 10
7.820695461626542
 20
29.69852497014389
 42
0.2679482664649764
 10
7.570697461626651
 20
29.26551297014402
 10
7.570694461626545
 20
24.79756397014401
 42
0.2679491924310079
 10
7.820694461626545
 20
24.36454997014397
 42
-1.303223041599392
  0
LWPOLYLINE
  5
EA
100
AcDbEntity
  8
0
  6
ByLayer
 62
    0
370
   -1
100
AcDbPolyline
 90
   16
 70
    1
 43
0
 10
54.17679646162651
 20
30.13153997014402
 10
55.74466646162665
 20
30.131536970144
 42
0.2679491924309891
 10
56.17767946162655
 20
30.381536970144
 42
-1.303223041599906
 10
56.86069346162651
 20
29.69852497014401
 42
0.267948266465124
 10
56.61069546162656
 20
29.26551297014402
 10
56.61069246162651
 20
24.79756397014401
 42
0.2679491924310079
 10
56.86069246162651
 20
24.36454997014397
 42
-1.303223041600018
 10
56.17768046162661
 20
23.6815359701441
 42
0.2679482664649978
 10
55.74466846162665
 20
23.93153497014401
 10
54.17680146162655
 20
23.93153797014401
 42
0.2679491924309713
 10
53.74378746162671
 20
23.68153797014401
 42
-1.303223041599848
 10
53.06077346162652
 20
24.36454997014403
 42
0.2679482664649616
 10
53.31077246162653
 20
24.79756197014402
 10
53.31077246162653
 20
29.26551197014402
 42
0.2679491924310011
 10
53.06077246162653
 20
29.69852397014398
 42
-1.303223041599472
 10
53.74378446162655
 20
30.381537970144
 42
0.2679482664649576
  0
LWPOLYLINE
  5
EB
100
AcDbEntity
  8
0
  6
ByLayer
 62
    0
370
   -1
100
AcDbPolyline
 90
   16
 70
    1
 43
0
 10
56.61069246162651
 20
3.597563970143995
 42
0.2679491924310006
 10
56.86069246162651
 20
3.164550970144006
 42
-1.30322304160001
 10
56.17768046162649
 20
2.481536970143992
 42
0.2679482664648952
 10
55.74466846162665
 20
2.731535970143995
 10
54.17680146162655
 20
2.731538970144015
 42
0.2679491924309946
 10
53.74378746162654
 20
2.481538970144015
 42
-1.303223041599967
 10
53.06077346162652
 20
3.164549970144009
 42
0.2679482664650033
 10
53.31077246162653
 20
3.597561970144
 10
53.31077246162653
 20
8.065511970144001
 42
0.2679491924310081
 10
53.06077246162653
 20
8.498524970144018
 42
-1.303223041599962
 10
53.74378446162666
 20
9.181538970143919
 42
0.2679482664649666
 10
54.17679646162651
 20
8.931540970143999
 10
55.74466646162665
 20
8.931537970144007
 42
0.2679491924309891
 10
56.17767946162655
 20
9.181537970144007
 42
-1.303223041599906
 10
56.86069346162651
 20
8.498525970144016
 42
0.2679482617890872
 10
56.61069546162656
 20
8.065513970143996
  0
LWPOLYLINE
  5
EC
100
AcDbEntity
  8
0
  6
ByLayer
 62
    0
370
   -1
100
AcDbPolyline
 90
   16
 70
    1
 43
0
 10
4.020776461626554
 20
3.164549970144009
 42
0.2679482664650033
 10
4.270775461626556
 20
3.597561970144
 10
4.270775461626556
 20
8.065511970144001
 42
0.2679491924310081
 10
4.020775461626556
 20
8.49852497014399
 42
-1.303223029819871
 10
4.703787461626746
 20
9.181538970144004
 42
0.2679482664649738
 10
5.136799461626538
 20
8.931540970143999
 10
6.704669461626509
 20
8.931537970144007
 42
0.2679491924309813
 10
7.137681461626357
 20
9.18153797014412
 42
-1.303223041599659
 10
7.820695461626542
 20
8.498525970144101
 42
0.2679482617890045
 10
7.570697461626651
 20
8.065513970143996
 10
7.570694461626545
 20
3.597563970143995
 42
0.2679491924310006
 10
7.820694461626545
 20
3.164550970144035
 42
-1.303223029819954
 10
7.137683461626409
 20
2.48153697014402
 42
0.2679482664649349
 10
6.70467146162656
 20
2.731535970143995
 10
5.136803461626528
 20
2.731538970144015
 42
0.2679491924309708
 10
4.703790461626454
 20
2.481538970144044
 42
-1.3032230416001
  0
LWPOLYLINE
  5
ED
100
AcDbEntity
  8
0
  6
ByLayer
 62
    0
370
   -1
100
AcDbPolyline
 90
   42
 70
    1
 43
0
 10
38.29074146162651
 20
41.864549970144
 42
-0.2679491924310083
 10
38.04074146162651
 20
42.29756297014401
 10
38.04073846162652
 20
43.93158997014402
 42
-0.4142135623730284
 10
38.54073846162652
 20
44.43158997014402
 10
43.54073646162652
 20
44.43158997014402
 42
-0.4142135623730284
 10
44.04073646162652
 20
43.93158997014402
 10
44.04073646162652
 20
42.29756097014402
 42
-0.2679482664649904
 10
43.79073746162652
 20
41.86454997014403
 42
1.303223041599887
 10
44.47375146162659
 20
41.18153797014395
 42
-0.267949192431055
 10
44.90676446162655
 20
41.43153797014401
 10
60.44072846162652
 20
41.43153797014401
 10
60.44072846162652
 20
-3.568464029855988
 42
-0.414213628812997
 10
55.44073346162651
 20
-8.568462029855993
 10
5.440735461626559
 20
-8.568462029855993
 42
-0.4142135265739997
 10
0.4407414616265442
 20
-3.568464029855988
 10
0.4407414616265442
 20
41.43153797014401
 10
15.97471646162654
 20
41.43153497014401
 42
-0.2679482664649988
 10
16.40772846162633
 20
41.18153597014401
 42
1.303223041599843
 10
17.09074046162652
 20
41.86454997014391
 42
-0.2679491924310123
 10
16.84074046162652
 20
42.29756297014401
 10
16.84073746162653
 20
43.93158997014402
 42
-0.4142135623730284
 10
17.34073746162653
 20
44.43158997014402
 10
22.34073446162654
 20
44.43158997014402
 42
-0.4142135623730284
 10
22.84073446162654
 20
43.93158997014402
 10
22.84073446162654
 20
42.29756097014402
 42
-0.2679482664649904
 10
22.59073546162654
 20
41.864549970144
 42
1.303223041599497
 10
23.27375046162666
 20
41.18153797014389
 42
-0.2679491924309546
 10
23.70676346162651
 20
41.43153797014401
 10
28.84073446162654
 20
41.43153797014401
 10
28.84073446162654
 20
38.43156597014399
 10
27.56573946162655
 20
38.43156597014399
 10
27.56573946162655
 20
34.43153797014401
 10
28.84073446162654
 20
34.43153797014401
 10
28.84073446162654
 20
31.43153797014401
 10
32.04074546162656
 20
31.43153797014401
 10
32.04074546162656
 20
34.43153797014401
 10
33.31573946162655
 20
34.43153797014401
 10
33.31573946162655
 20
38.43156597014399
 10
32.04074546162656
 20
38.43156597014399
 10
32.04074546162656
 20
41.43153797014401
 10
37.17471846162653
 20
41.43153497014401
 42
-0.2679482664649904
 10
37.60772946162655
 20
41.18153597014401
 42
1.3032230415998
  0
CIRCLE
  5
EE
100
AcDbEntity
  8
0
  6
ByLayer
 62
    0
370
   -1
100
AcDbCircle
 10
45.94073546162656
 20
27.631537970144
 40
1.6
  0
CIRCLE
  5
EF
100
AcDbEntity
  8
0
  6
ByLayer
 62
    0
370
   -1
100
AcDbCircle
 10
14.94073546162656
 20
-3.368462029856005
 40
1.6
  0
CIRCLE
  5
F0
100
AcDbEntity
  8
0
  6
ByLayer
 62
    0
370
   -1
100
AcDbCircle
 10
54.96073346162655
 20
16.43153797014401
 40
1.6
  0
CIRCLE
  5
F1
100
AcDbEntity
  8
0
  6
ByLayer
 62
    0
370
   -1
100
AcDbCircle
 10
47.44073546162656
 20
12.131537970144
 40
4
  0
CIRCLE
  5
F2
100
AcDbEntity
  8
0
  6
ByLayer
 62
    0
370
   -1
100
AcDbCircle
 10
45.94073546162656
 20
-3.368462029856005
 40
1.6
  0
CIRCLE
  5
F3
100
AcDbEntity
  8
0
  6
ByLayer
 62
    0
370
   -1
100
AcDbCircle
 10
14.94073546162656
 20
27.631537970144
 40
1.6
  0
CIRCLE
  5
F4
100
AcDbEntity
  8
0
  6
ByLayer
 62
    0
370
   -1
100
AcDbCircle
 10
5.920736461626518
 20
16.43153797014401
 40
1.6
  0
CIRCLE
  5
F5
100
AcDbEntity
  8
0
  6
ByLayer
 62
    0
370
   -1
100
AcDbCircle
 10
30.44073546162656
 20
12.131537970144
 40
11.1
  0
ENDBLK
  5
5B
330
59
100
AcDbEntity
  8
0
100
AcDbBlockEnd
  0
BLOCK
  5
5D
330
5C
100
AcDbEntity
  8
0
100
AcDbBlockBegin
  2
NEMA17_fixing_plate_support
 70
    0
 10
0
 20
0
  3
NEMA17_fixing_plate_support
  1

  0
LWPOLYLINE
  5
F6
100
AcDbEntity
  8
0
  6
ByLayer
 62
    0
370
   -1
100
AcDbPolyline
 90
   79
 70
    1
 43
0
 10
10.29810168766869
 20
54.26441955217916
 10
18.83207768766863
 20
54.26441655217917
 42
-0.2679482664650608
 10
19.26508968766871
 20
54.01441755217928
 42
1.303223041599953
 10
19.94810168766867
 20
54.69743255217929
 42
-0.2679491924309887
 10
19.69810168766867
 20
55.1304455521792
 10
19.69809868766868
 20
56.76447155217915
 42
-0.4142135623729619
 10
20.19809868766868
 20
57.26447155217915
 10
25.19809568766868
 20
57.26447155217915
 42
-0.4142135623729619
 10
25.69809568766868
 20
56.76447155217915
 10
25.69809568766857
 20
55.13044355217914
 42
-0.2679482664649195
 10
25.44809668766868
 20
54.69743155217935
 42
1.303223041600039
 10
26.13111068766864
 20
54.01441955217916
 42
-0.2679491924309972
 10
26.56412368766871
 20
54.26441955217916
 10
31.69809568766868
 20
54.26441955217916
 10
31.69809568766868
 20
51.26444755217915
 10
30.42310168766869
 20
51.26444755217915
 10
30.42310168766869
 20
47.26441955217916
 10
31.69809568766868
 20
47.26441955217916
 10
31.69809568766868
 20
44.26441955217916
 10
34.8981076876687
 20
44.26441955217916
 10
34.8981076876687
 20
47.26441955217916
 10
36.17310168766869
 20
47.26441955217916
 10
36.17310168766869
 20
51.26444755217915
 10
34.8981076876687
 20
51.26444755217915
 10
34.8981076876687
 20
54.26441955217916
 10
40.03207768766868
 20
54.26441655217917
 42
-0.2679482664650385
 10
40.46508968766886
 20
54.01441755217928
 42
1.303223041600191
 10
41.14810168766871
 20
54.69743255217924
 42
-0.267949192431004
 10
40.89810168766871
 20
55.1304455521792
 10
40.89809868766872
 20
56.76447155217915
 42
-0.4142135623729619
 10
41.39809868766872
 20
57.26447155217915
 10
46.39809568766873
 20
57.26447155217915
 42
-0.4142135623729619
 10
46.89809568766873
 20
56.76447155217915
 10
46.89809568766862
 20
55.13044355217914
 42
-0.2679482664649419
 10
46.64809668766873
 20
54.69743155217947
 42
1.303223041600144
 10
47.33111168766868
 20
54.01441955217916
 42
-0.2679491924310196
 10
47.76412468766864
 20
54.26441955217916
 10
58.29810168766869
 20
54.26441955217916
 10
58.29809868766858
 20
43.73044055217918
 42
-0.2679482664649833
 10
58.0480996876687
 20
43.2974295521791
 42
1.30322304159916
 10
58.73111468766842
 20
42.61441755217925
 42
-0.2679491924311759
 10
59.16412768766872
 20
42.86441755217925
 10
60.79815368766867
 20
42.86442055217918
 42
-0.4142135623729619
 10
61.29815368766867
 20
42.36442055217918
 10
61.29815368766867
 20
37.36442255217918
 42
-0.4142135623729619
 10
60.79815368766867
 20
36.86442255217918
 10
59.16412568766873
 20
36.86442255217918
 42
-0.2679482664649576
 10
58.73111368766865
 20
37.1144205521793
 42
1.303223041599791
 10
58.04810168766869
 20
36.43140655217917
 42
-0.2679491924309823
 10
58.29810168766869
 20
35.99839455217915
 10
58.29810168766869
 20
30.86442455217917
 10
55.29812968766873
 20
30.86442455217917
 10
55.29812968766873
 20
32.13941855217917
 10
51.29810168766869
 20
32.13941855217917
 10
51.29810168766869
 20
30.86442455217917
 10
48.29810168766869
 20
30.86442455217917
 10
48.29810168766869
 20
27.66441355217916
 10
51.29810168766869
 20
27.66441355217916
 10
51.29810168766869
 20
26.38941855217917
 10
55.29812968766873
 20
26.38941855217917
 10
55.29812968766873
 20
27.66441355217916
 10
58.29810168766869
 20
27.66441355217916
 10
58.29809868766858
 20
22.53044155217918
 42
-0.2679482664649804
 10
58.0480996876687
 20
22.09742955217922
 42
1.303223041599743
 10
58.73111468766842
 20
21.4144175521792
 42
-0.267949192431115
 10
59.16412768766872
 20
21.66441755217915
 10
60.79815368766867
 20
21.66442055217919
 42
-0.4142135623729619
 10
61.29815368766867
 20
21.16442055217919
 10
61.29815368766867
 20
16.16442355217919
 42
-0.4142135623729619
 10
60.79815368766867
 20
15.66442355217919
 10
59.16412568766873
 20
15.66442355217913
 42
-0.2679482664649576
 10
58.73111368766865
 20
15.91442155217925
 42
1.303223041599952
 10
58.04810168766869
 20
15.23140755217935
 42
-0.2679491924309226
 10
58.29810168766869
 20
14.79839555217916
 10
58.29810168766869
 20
6.264419552179163
 10
57.61180968766871
 20
6.264419552179163
 42
-0.1989123174839973
 10
51.95495668766875
 20
8.607563552179158
 10
12.64124668766874
 20
47.92127455217917
 42
-0.1989123537719998
 10
10.29810168766869
 20
53.57812855217918
  0
ENDBLK
  5
5E
330
5C
100
AcDbEntity
  8
0
100
AcDbBlockEnd
  0
BLOCK
  5
60
330
5F
100
AcDbEntity
  8
0
100
AcDbBlockBegin
  2
base_frame_reinforcement
 70
    0
 10
0
 20
0
  3
base_frame_reinforcement
  1

  0
LWPOLYLINE
  5
F7
100
AcDbEntity
  8
0
  6
ByLayer
 62
    0
370
   -1
100
AcDbPolyline
 90
   82
 70
    1
 43
0
 10
20.72577575361447
 20
-45.31965658977319
 10
17.19024375361448
 20
-48.85518858977315
 42
-0.4142135623730008
 10
16.48313675361442
 20
-48.85518858977321
 10
15.3277047536144
 20
-47.69975658977319
 42
-0.2679482664649798
 10
15.1982947536145
 20
-47.2167945897732
 42
1.303223041599968
 10
14.23236875361442
 20
-47.2167965897732
 42
-0.2679491924310105
 10
14.10295875361442
 20
-47.69975858977318
 10
8.068526753614492
 20
-53.73419158977319
 10
7.583245753614506
 20
-53.24891058977317
 42
-0.1989123174660008
 10
5.240099753614345
 20
-47.59205758977319
 10
5.204716753614548
 20
57.46807641022679
 42
-0.1989123539619972
 10
7.547862753614481
 20
63.12493041022674
 10
8.033143753614468
 20
63.61021141022684
 10
14.0675737536144
 20
57.57577741022681
 42
-0.267948266464988
 10
14.1969837536144
 20
57.09281641022682
 42
1.303223041600009
 10
15.16291075361448
 20
57.09281741022681
 42
-0.2679491924309407
 10
15.29231975361461
 20
57.5757814102268
 10
16.44774875361441
 20
58.73121341022681
 42
-0.4142135623730008
 10
17.15485575361447
 20
58.73121441022681
 10
20.69038675361446
 20
55.19568141022683
 42
-0.4142135623729304
 10
20.69038775361446
 20
54.48857541022682
 10
19.53495475361444
 20
53.3331424102268
 42
-0.2679482664650097
 10
19.0519937536144
 20
53.20373241022679
 42
1.303223041600047
 10
19.05199575361451
 20
52.23780641022694
 42
-0.2679491924310078
 10
19.53495875361443
 20
52.10839641022682
 10
23.16522475361444
 20
48.47813141022681
 10
21.04392375361442
 20
46.35683041022679
 10
20.1423667536144
 20
47.25838741022682
 10
17.31391975361441
 20
44.42994041022683
 10
18.21547675361444
 20
43.52838341022681
 10
16.09415675361447
 20
41.40706341022684
 10
18.35690675361445
 20
39.1443134102268
 10
20.47822675361442
 20
41.26563341022683
 10
21.37978375361445
 20
40.3640764102268
 10
24.20823075361443
 20
43.19252341022684
 10
23.3066737536144
 20
44.09408041022681
 10
25.42797475361442
 20
46.21538041022683
 10
29.05823675361444
 20
42.58511341022682
 42
-0.2679482664649799
 10
29.18764675361444
 20
42.10215241022684
 42
1.303223041599941
 10
30.15357475361441
 20
42.10215341022683
 42
-0.2679491924309801
 10
30.28298375361442
 20
42.58511741022681
 10
31.43841175361433
 20
43.74054941022689
 42
-0.4142135623729773
 10
32.14551975361439
 20
43.74055041022683
 10
35.6810507536145
 20
40.20501841022678
 42
-0.4142135623730008
 10
35.6810507536145
 20
39.49791141022683
 10
34.52561875361448
 20
38.34247841022659
 42
-0.2679482664659933
 10
34.04265775361444
 20
38.21306841022698
 42
1.303223041601667
 10
34.04265875361443
 20
37.24714241022673
 42
-0.2679491924311157
 10
34.52562275361447
 20
37.11773241022689
 10
41.69132375361448
 20
29.95203041022683
 42
-0.192646964779
 10
41.98392575361447
 20
29.26905841022682
 10
41.99931175361451
 20
-19.36476658977318
 42
-0.2051929011789932
 10
41.7067107536144
 20
-20.09600758977319
 10
34.5610027536145
 20
-27.24171158977327
 42
-0.2679482664650078
 10
34.07804175361446
 20
-27.3711215897732
 42
1.303223041600294
 10
34.07804275361445
 20
-28.33704758977319
 42
-0.2679491924309869
 10
34.56100675361449
 20
-28.4664575897732
 10
35.7164387536144
 20
-29.6218865897734
 42
-0.4142135623727538
 10
35.71643975361428
 20
-30.32899258977309
 10
32.18090775361441
 20
-33.86452558977317
 42
-0.4142135623730008
 10
31.47380075361446
 20
-33.86452458977323
 10
30.31836775361444
 20
-32.70909258977318
 42
-0.2679482664650106
 10
30.1889577536142
 20
-32.22613058977319
 42
1.303223041600013
 10
29.22303175361446
 20
-32.22613358977318
 42
-0.2679491924310652
 10
29.09362175361446
 20
-32.70909558977328
 10
25.46335675361445
 20
-36.33936058977318
 10
23.34205675361443
 20
-34.21806058977319
 10
24.24361475361445
 20
-33.31650258977319
 10
21.41516775361447
 20
-30.48805558977318
 10
20.51360975361445
 20
-31.38961358977318
 10
18.39228975361448
 20
-29.26829358977318
 10
16.12953975361449
 20
-31.53104258977319
 10
18.25086075361446
 20
-33.65236258977319
 10
17.34930375361444
 20
-34.55391958977319
 10
20.17775075361442
 20
-37.3823665897732
 10
21.07930675361445
 20
-36.4808095897732
 10
23.20060775361446
 20
-38.60211058977319
 10
19.57033875361446
 20
-42.2323755897732
 42
-0.267948266464999
 10
19.08737775361442
 20
-42.36178558977321
 42
1.303223041600146
 10
19.08737975361441
 20
-43.3277115897732
 42
-0.2679491924310258
 10
19.57034275361457
 20
-43.4571215897731
 10
20.72577575361447
 20
-44.61255058977318
 42
-0.4142135623729775
  0
ENDBLK
  5
61
330
5F
100
AcDbEntity
  8
0
100
AcDbBlockEnd
  0
BLOCK
  5
63
330
62
100
AcDbEntity
  8
0
100
AcDbBlockBegin
  2
NEMA17_fixing_plate_Y_axis
 70
    0
 10
0
 20
0
  3
NEMA17_fixing_plate_Y_axis
  1

  0
LWPOLYLINE
  5
F8
100
AcDbEntity
  8
0
  6
ByLayer
 62
    0
370
   -1
100
AcDbPolyline
 90
   51
 70
    0
 43
0
 10
48.96551919463303
 20
3.928710550831809
 42
0.162747713518001
 10
49.56698419463294
 20
4.129811550831789
 10
55.94115519463304
 20
8.928708550831807
 10
55.94115819463303
 20
13.46267755083181
 42
0.2679491924309986
 10
55.69115819463303
 20
13.8956905508318
 42
-1.303223041600146
 10
56.37416919463294
 20
14.57870455083176
 42
0.2679482664649959
 10
56.8071811946329
 20
14.32870655083181
 10
58.4412101946329
 20
14.32870655083181
 42
0.4142135623730284
 10
58.9412101946329
 20
14.82870655083181
 10
58.9412101946329
 20
19.8287035508318
 42
0.4142135623730367
 10
58.4412101946329
 20
20.32870355083182
 10
56.8071831946329
 20
20.32870055083181
 42
0.2679491924309936
 10
56.37417019463305
 20
20.07870055083187
 42
-1.30322304160045
 10
55.69115619463304
 20
20.76171255083187
 42
0.267948266464969
 10
55.94115519463304
 20
21.19472455083181
 10
55.94115819463303
 20
26.32869655083181
 10
52.94118619463291
 20
26.32869655083181
 10
52.94118619463291
 20
25.0537025508318
 10
48.94115819463303
 20
25.0537025508318
 10
48.94115819463303
 20
26.32869655083181
 10
45.94115819463303
 20
26.32869655083181
 10
45.94115819463303
 20
29.52870855083181
 10
48.94115819463303
 20
29.52870855083181
 10
48.94115819463303
 20
30.8037025508318
 10
52.94118619463291
 20
30.8037025508318
 10
52.94118619463291
 20
29.52870855083181
 10
55.94115819463303
 20
29.52870855083181
 10
55.94115819463303
 20
34.66267955083181
 42
0.2679491924309592
 10
55.69115819463303
 20
35.09569155083173
 42
-1.303223041600102
 10
56.37416919463294
 20
35.77870555083176
 42
0.2679482664650056
 10
56.8071811946329
 20
35.52870755083181
 10
58.4412101946329
 20
35.52870755083183
 42
0.4142135623730201
 10
58.9412101946329
 20
36.02870755083181
 10
58.9412101946329
 20
41.0287045508318
 42
0.4142135623730284
 10
58.4412101946329
 20
41.5287045508318
 10
56.8071831946329
 20
41.52870155083181
 42
0.2679491924309936
 10
56.374170194633
 20
41.2787015508319
 42
-1.303223041600538
 10
55.69115619463304
 20
41.96171355083193
 42
0.2679482664649462
 10
55.94115519463304
 20
42.39472555083181
 10
55.94115819463303
 20
46.92869455083181
 10
50.7398631946329
 20
46.92869455083181
 42
0.1627477224759994
 10
50.13839819463294
 20
46.72759455083181
 10
44.03133819463295
 20
42.12979455083179
 42
-0.1627477314340013
 10
43.42987419463293
 20
41.92869455083181
 10
9.941192194632947
 20
41.9286955508318
 42
0.4142135725969949
 10
7.941192194632947
 20
39.9286955508318
 10
7.941192194632947
 20
5.928711550831807
 42
0.4142135521489955
 10
9.941192194632947
 20
3.928711550831807
 10
48.81745719463294
 20
3.928710550831809
 10
48.96060719463304
 20
3.928710550831809
 10
48.96592719463291
 20
3.928710550831809
  0
CIRCLE
  5
F9
100
AcDbEntity
  8
0
  6
ByLayer
 62
    0
370
   -1
100
AcDbCircle
 10
43.65745919463291
 20
7.428706550831812
 40
1.6
  0
CIRCLE
  5
FA
100
AcDbEntity
  8
0
  6
ByLayer
 62
    0
370
   -1
100
AcDbCircle
 10
12.65745919463291
 20
7.428706550831812
 40
1.6
  0
CIRCLE
  5
FB
100
AcDbEntity
  8
0
  6
ByLayer
 62
    0
370
   -1
100
AcDbCircle
 10
28.15745919463291
 20
22.92870655083181
 40
11.1
  0
CIRCLE
  5
FC
100
AcDbEntity
  8
0
  6
ByLayer
 62
    0
370
   -1
100
AcDbCircle
 10
43.65745919463291
 20
38.42870655083181
 40
1.6
  0
CIRCLE
  5
FD
100
AcDbEntity
  8
0
  6
ByLayer
 62
    0
370
   -1
100
AcDbCircle
 10
12.65745919463291
 20
38.42870655083181
 40
1.6
  0
ENDBLK
  5
64
330
62
100
AcDbEntity
  8
0
100
AcDbBlockEnd
  0
BLOCK
  5
66
330
65
100
AcDbEntity
  8
0
100
AcDbBlockBegin
  2
Z_axis_top
 70
    0
 10
0
 20
0
  3
Z_axis_top
  1

  0
LWPOLYLINE
  5
FE
100
AcDbEntity
  8
0
  6
ByLayer
 62
    0
370
   -1
100
AcDbPolyline
 90
   36
 70
    1
 43
0
 10
-12.38033698859779
 20
-23.31375918525407
 10
-12.3806989885978
 20
-53.83899918525407
 42
0.4142136339399984
 10
-0.3808469885977956
 20
-65.83914318525404
 10
21.22695401140221
 20
-65.83940018525414
 42
0.2832895926080012
 10
31.94442401140232
 20
-59.23743318525408
 10
49.2685200114022
 20
-23.32675218525407
 10
49.26914701140221
 20
-20.83545418525404
 42
0.2679482664649623
 10
49.0192520114022
 20
-20.40238318525394
 42
-1.303223041600138
 10
49.7024310114022
 20
-19.71953518525407
 42
0.2679491924310224
 10
50.13538401140219
 20
-19.96963918525404
 10
60.79480201140221
 20
-19.96968018525416
 10
60.7949180114022
 20
-10.18684618525407
 42
0.2679482664649723
 10
60.54502301140234
 20
-9.753775185254312
 42
-1.303223041599763
 10
61.22820301140221
 20
-9.070927185254163
 42
0.2679491924310569
 10
61.66115501140222
 20
-9.321031185254128
 10
63.2290230114023
 20
-9.32140518525398
 42
0.2679482664649885
 10
63.66209401140232
 20
-9.071511185254167
 42
-1.303223041599948
 10
64.34494201140221
 20
-9.754690185254162
 42
0.2679491924310117
 10
64.0948380114023
 20
-10.18764218525416
 10
64.0947220114022
 20
-19.96971918525406
 10
75.6193560114023
 20
-19.97246418525407
 10
75.61980701140222
 20
-10.50425318525407
 42
0.109673439738
 10
74.4924390114022
 20
-5.426132185254176
 10
64.0951270114022
 20
11.03024881474602
 10
61.00226301140221
 20
11.03023981474593
 10
-3.815888988597791
 20
-5.279909185253928
 42
0.3315058143340028
 10
-12.3802589885978
 20
-16.77743918525408
 10
-12.38029798859779
 20
-20.01384018525408
 10
-3.245952988597793
 20
-20.01394818525398
 42
0.2679482664650109
 10
-2.812881988597795
 20
-19.76405418525417
 42
-1.30322304159992
 10
-2.130033988597788
 20
-20.44723318525416
 42
0.2679491924310077
 10
-2.380137988597795
 20
-20.88018518525416
 10
-2.380511988597689
 20
-22.44805218525403
 42
0.2679482617889911
 10
-2.130617988597791
 20
-22.88112518525406
 42
-1.303223041599951
 10
-2.813796988597787
 20
-23.56397218525404
 42
0.2679491924309855
 10
-3.246747988597789
 20
-23.31386818525408
  0
CIRCLE
  5
FF
100
AcDbEntity
  8
0
  6
ByLayer
 62
    0
370
   -1
100
AcDbCircle
 10
62.44460301140221
 20
0.6803028147459713
 40
1.6
  0
CIRCLE
  5
100
100
AcDbEntity
  8
0
  6
ByLayer
 62
    0
370
   -1
100
AcDbCircle
 10
17.31969101140221
 20
-52.46885218525426
 40
5
  0
CIRCLE
  5
101
100
AcDbEntity
  8
0
  6
ByLayer
 62
    0
370
   -1
100
AcDbCircle
 10
0.3196930114022081
 20
-52.46475118525404
 40
4
  0
CIRCLE
  5
102
100
AcDbEntity
  8
0
  6
ByLayer
 62
    0
370
   -1
100
AcDbCircle
 10
23.44467601140231
 20
-21.66442618525417
 40
1.6
  0
CIRCLE
  5
103
100
AcDbEntity
  8
0
  6
ByLayer
 62
    0
370
   -1
100
AcDbCircle
 10
5.119122011402212
 20
-61.16911418525405
 40
1.6
  0
CIRCLE
  5
104
100
AcDbEntity
  8
0
  6
ByLayer
 62
    0
370
   -1
100
AcDbCircle
 10
-6.030877988597794
 20
-43.22541418525407
 40
1.6
  0
ENDBLK
  5
67
330
65
100
AcDbEntity
  8
0
100
AcDbBlockEnd
  0
BLOCK
  5
69
330
68
100
AcDbEntity
  8
0
100
AcDbBlockBegin
  2
Y_axis_base
 70
    0
 10
0
 20
0
  3
Y_axis_base
  1

  0
LWPOLYLINE
  5
105
100
AcDbEntity
  8
0
  6
ByLayer
 62
    0
370
   -1
100
AcDbPolyline
 90
   16
 70
    1
 43
0
 10
-156.5027368291898
 20
3.099997999999999
 42
-0.2679491924310008
 10
-156.9357498291898
 20
3.349997999999999
 42
1.30322304160001
 10
-157.6187638291898
 20
2.666987000000006
 42
-0.2679482664650101
 10
-157.3687648291898
 20
2.233975000000015
 10
-157.3687618291898
 20
-2.233974999999987
 42
-0.2679491924310015
 10
-157.6187618291898
 20
-2.666988000000003
 42
1.303223041599931
 10
-156.9357508291898
 20
-3.350001999999989
 42
-0.2679482664650071
 10
-156.5027388291898
 20
-3.100002999999987
 10
-154.9348708291898
 20
-3.099999999999994
 42
-0.2679491924310048
 10
-154.5018588291898
 20
-3.349999999999994
 42
1.30322304159967
 10
-153.8188448291898
 20
-2.666989000000001
 42
-0.2679482664650332
 10
-154.0688428291898
 20
-2.23397700000001
 10
-154.0688428291898
 20
2.233972999999992
 42
-0.2679491924310022
 10
-153.8188428291898
 20
2.666984999999983
 42
1.303223041599698
 10
-154.5018548291898
 20
3.349998999999997
 42
-0.2679482617889887
 10
-154.9348668291898
 20
3.100000999999992
  0
LWPOLYLINE
  5
106
100
AcDbEntity
  8
0
  6
ByLayer
 62
    0
370
   -1
100
AcDbPolyline
 90
   16
 70
    1
 43
0
 10
-156.5027388291898
 20
-24.300003
 10
-154.9348708291898
 20
-24.30000000000001
 42
-0.2679491924310048
 10
-154.5018588291898
 20
-24.55000000000001
 42
1.303223041600005
 10
-153.8188448291898
 20
-23.86698799999999
 42
-0.2679482617890227
 10
-154.0688428291898
 20
-23.433976
 10
-154.0688428291898
 20
-18.966026
 42
-0.2679491924310002
 10
-153.8188428291898
 20
-18.53301400000001
 42
1.303223041600005
 10
-154.5018548291898
 20
-17.84999999999999
 42
-0.2679482617889849
 10
-154.9348668291898
 20
-18.099998
 10
-156.5027368291898
 20
-18.10000099999999
 42
-0.2679491924310008
 10
-156.9357498291898
 20
-17.85000099999999
 42
1.303223041600031
 10
-157.6187638291898
 20
-18.53301300000001
 42
-0.2679482664649958
 10
-157.3687648291898
 20
-18.966025
 10
-157.3687618291898
 20
-23.43397400000001
 42
-0.2679491924310134
 10
-157.6187618291898
 20
-23.86698799999999
 42
1.303223041599977
 10
-156.9357508291898
 20
-24.55000200000001
 42
-0.2679482664649995
  0
LWPOLYLINE
  5
107
100
AcDbEntity
  8
0
  6
ByLayer
 62
    0
370
   -1
100
AcDbPolyline
 90
   16
 70
    1
 43
0
 10
95.41513517081017
 20
-3.100002999999987
 10
93.84726817081031
 20
-3.099999999999994
 42
0.2679491924310272
 10
93.41425417081018
 20
-3.349999999999994
 42
-1.303223041599338
 10
92.73124017081017
 20
-2.666989000000001
 42
0.2679482664650033
 10
92.98123917081017
 20
-2.23397700000001
 10
92.98123917081017
 20
2.233972999999992
 42
0.2679491924310087
 10
92.73123917081017
 20
2.666984999999983
 42
-1.303223041599653
 10
93.4142511708103
 20
3.349998999999997
 42
0.2679482664650213
 10
93.84726317081021
 20
3.100000999999992
 10
95.41513317081018
 20
3.099997999999999
 42
0.2679491924309779
 10
95.84814617081008
 20
3.349997999999914
 42
-1.303223041599906
 10
96.53116017081021
 20
2.666986999999864
 42
0.267948266464991
 10
96.28116217081021
 20
2.233975000000015
 10
96.28115917081021
 20
-2.233974999999987
 42
0.2679491924310083
 10
96.53115917081021
 20
-2.666987999999975
 42
-1.303223041599862
 10
95.84814717081008
 20
-3.350001999999989
 42
0.2679482664650048
  0
LWPOLYLINE
  5
108
100
AcDbEntity
  8
0
  6
ByLayer
 62
    0
370
   -1
100
AcDbPolyline
 90
   16
 70
    1
 43
0
 10
93.84726317081021
 20
-18.099998
 10
95.41513317081018
 20
-18.10000099999999
 42
0.2679491924309667
 10
95.8481461708102
 20
-17.85000099999999
 42
-1.303223041599968
 10
96.53116017081021
 20
-18.5330130000001
 42
0.2679482664649874
 10
96.28116217081021
 20
-18.966025
 10
96.28115917081021
 20
-23.43397400000001
 42
0.2679491924310003
 10
96.53115917081021
 20
-23.86698800000002
 42
-1.303223041599963
 10
95.84814717081019
 20
-24.55000200000001
 42
0.2679482664649978
 10
95.41513517081017
 20
-24.300003
 10
93.84726817081031
 20
-24.30000000000001
 42
0.2679491924309824
 10
93.41425417081052
 20
-24.55000000000001
 42
-1.303223041599983
 10
92.73124017081017
 20
-23.86698799999999
 42
0.2679482617889901
 10
92.98123917081017
 20
-23.433976
 10
92.98123917081017
 20
-18.966026
 42
0.2679491924309935
 10
92.73123917081017
 20
-18.53301399999998
 42
-1.303223041599962
 10
93.41425117081019
 20
-17.84999999999999
 42
0.2679482664650014
  0
LWPOLYLINE
  5
109
100
AcDbEntity
  8
0
  6
ByLayer
 62
    0
370
   -1
100
AcDbPolyline
 90
   42
 70
    1
 43
0
 10
64.45869717081018
 20
-35.98561599999999
 10
64.45869717081018
 20
-30.487593
 42
-0.4142135623730284
 10
64.95869717081018
 20
-29.987593
 10
99.63120017081019
 20
-29.987596
 42
0.4142135623730001
 10
104.6312001708102
 20
-24.987596
 10
104.6311981708102
 20
9.399999000000008
 42
0.4142137003959991
 10
99.63119817081019
 20
14.39999900000001
 10
80.36596817081022
 20
14.39999899999998
 42
0.3278856907169864
 10
79.41165317081027
 20
13.698801
 10
77.85074817081028
 20
8.713585999999992
 42
-0.3278856907170054
 10
76.89643317081021
 20
8.012389000000013
 10
76.8907431708102
 20
8.012401000000011
 10
-137.9840358291898
 20
8.012389000000013
 42
-0.3278856907159998
 10
-138.9383508291898
 20
8.713585999999992
 10
-140.4992558291898
 20
13.698801
 42
0.3278856907159992
 10
-141.4535708291898
 20
14.39999900000001
 10
-160.7188018291898
 20
14.39999900000001
 42
0.4142137003960003
 10
-165.7188038291898
 20
9.399999000000008
 10
-165.7188038291898
 20
-24.987596
 42
0.4142135623729967
 10
-160.7188038291898
 20
-29.987596
 10
-155.7188038291898
 20
-29.987596
 10
-126.0462998291898
 20
-29.987596
 42
-0.4142135623729951
 10
-125.5462998291898
 20
-30.487596
 10
-125.5462998291898
 20
-35.98561599999999
 42
0.4142135623730034
 10
-123.5462998291898
 20
-37.98561599999999
 10
-119.2301468291898
 20
-37.98561599999999
 42
0.6015939385919753
 10
-118.8162318291898
 20
-37.205127
 42
-1.88562398512999
 10
-112.2763678291898
 20
-37.205127
 42
0.60159393859198
 10
-111.8624518291898
 20
-37.98561599999999
 10
-107.5462998291898
 20
-37.98561599999999
 42
0.4142135623730034
 10
-105.5462998291898
 20
-35.98561599999999
 10
-105.5462998291898
 20
-30.487593
 42
-0.4142135623729951
 10
-105.0462998291898
 20
-29.987593
 10
43.95869717081018
 20
-29.987596
 42
-0.4142135623730284
 10
44.45869717081018
 20
-30.487596
 10
44.45869717081018
 20
-35.98561599999999
 42
0.4142135623729993
 10
46.45869717081018
 20
-37.98561599999999
 10
50.77485017081017
 20
-37.98561599999999
 42
0.6015939385919699
 10
51.18876517080992
 20
-37.205127
 42
-1.88562398512996
 10
57.72862917081022
 20
-37.20512700000009
 42
0.6015939385919448
 10
58.14254517081019
 20
-37.98561600000002
 10
62.45869717081018
 20
-37.98561599999999
 42
0.4142135623729951
  0
CIRCLE
  5
10A
100
AcDbEntity
  8
0
  6
ByLayer
 62
    0
370
   -1
100
AcDbCircle
 10
-65.54380182918982
 20
-20.60000099999999
 40
1.6
  0
CIRCLE
  5
10B
100
AcDbEntity
  8
0
  6
ByLayer
 62
    0
370
   -1
100
AcDbCircle
 10
94.63120017081019
 20
-10.60000099999999
 40
1.6
  0
CIRCLE
  5
10C
100
AcDbEntity
  8
0
  6
ByLayer
 62
    0
370
   -1
100
AcDbCircle
 10
4.456198170810183
 20
-0.6000009999999918
 40
1.6
  0
CIRCLE
  5
10D
100
AcDbEntity
  8
0
  6
ByLayer
 62
    0
370
   -1
100
AcDbCircle
 10
4.456198170810183
 20
-20.60000099999999
 40
1.6
  0
CIRCLE
  5
10E
100
AcDbEntity
  8
0
  6
ByLayer
 62
    0
370
   -1
100
AcDbCircle
 10
-65.54380182918982
 20
-0.6000009999999918
 40
1.6
  0
CIRCLE
  5
10F
100
AcDbEntity
  8
0
  6
ByLayer
 62
    0
370
   -1
100
AcDbCircle
 10
-155.7188038291898
 20
-10.60000099999999
 40
1.6
  0
CIRCLE
  5
110
100
AcDbEntity
  8
0
  6
ByLayer
 62
    0
370
   -1
100
AcDbCircle
 10
-120.5459808291898
 20
-26.263688
 40
1.6
  0
CIRCLE
  5
111
100
AcDbEntity
  8
0
  6
ByLayer
 62
    0
370
   -1
100
AcDbCircle
 10
-110.5459808291898
 20
-26.263688
 40
1.6
  0
CIRCLE
  5
112
100
AcDbEntity
  8
0
  6
ByLayer
 62
    0
370
   -1
100
AcDbCircle
 10
49.45900317081021
 20
-26.263688
 40
1.6
  0
CIRCLE
  5
113
100
AcDbEntity
  8
0
  6
ByLayer
 62
    0
370
   -1
100
AcDbCircle
 10
59.45900317081021
 20
-26.263688
 40
1.6
  0
LWPOLYLINE
  5
114
100
AcDbEntity
  8
0
  6
ByLayer
 62
    0
370
   -1
100
AcDbPolyline
 90
   16
 70
    1
 43
0
 10
-37.6277408291898
 20
2.712399000000005
 10
-36.0598708291898
 20
2.712396000000012
 42
0.2679491924310008
 10
-35.62685782918982
 20
2.962396000000012
 42
-1.30322302982
 10
-34.9438438291898
 20
2.279384999999991
 42
0.2679482664649993
 10
-35.19384182918981
 20
1.846373
 10
-35.1938448291898
 20
-2.621577000000002
 42
0.267949192430993
 10
-34.9438448291898
 20
-3.05458999999999
 42
-1.303223041600015
 10
-35.62685682918982
 20
-3.737604000000005
 42
0.2679482664650034
 10
-36.05986882918981
 20
-3.487605000000002
 10
-37.62773582918982
 20
-3.48760200000001
 42
0.2679491924310058
 10
-38.0607498291898
 20
-3.73760200000001
 42
-1.303223041599934
 10
-38.74376382918982
 20
-3.054590999999988
 42
0.2679482664649747
 10
-38.49376482918981
 20
-2.621578999999997
 10
-38.49376482918981
 20
1.846371000000005
 42
0.2679491924310011
 10
-38.74376482918981
 20
2.279382999999996
 42
-1.303223041600014
 10
-38.06075282918979
 20
2.96239700000001
 42
0.2679482664649916
  0
LWPOLYLINE
  5
115
100
AcDbEntity
  8
0
  6
ByLayer
 62
    0
370
   -1
100
AcDbPolyline
 90
   16
 70
    1
 43
0
 10
-38.0607498291898
 20
-24.937602
 42
-1.303223041599891
 10
-38.74376382918982
 20
-24.25459000000001
 42
0.2679482664649769
 10
-38.49376482918981
 20
-23.82157799999999
 10
-38.49376482918981
 20
-19.35362799999999
 42
0.2679491924310011
 10
-38.74376482918981
 20
-18.920616
 42
-1.303223041599995
 10
-38.06075282918977
 20
-18.23760200000001
 42
0.2679482664649048
 10
-37.6277408291898
 20
-18.48759999999996
 10
-36.0598708291898
 20
-18.48760300000001
 42
0.2679491924310008
 10
-35.62685782918982
 20
-18.23760300000001
 42
-1.303223041599891
 10
-34.9438438291898
 20
-18.920615
 42
0.26794826646502
 10
-35.19384182918981
 20
-19.35362699999999
 10
-35.1938448291898
 20
-23.82157599999999
 42
0.2679491924310079
 10
-34.9438448291898
 20
-24.25459000000001
 42
-1.303223041599786
 10
-35.62685682918982
 20
-24.93760399999999
 42
0.2679482664650034
 10
-36.05986882918981
 20
-24.68760499999999
 10
-37.62773582918982
 20
-24.687602
 42
0.2679491924310058
  0
CIRCLE
  5
116
100
AcDbEntity
  8
0
  6
ByLayer
 62
    0
370
   -1
100
AcDbCircle
 10
-36.8438028291898
 20
-10.98760300000001
 40
1.6
  0
LWPOLYLINE
  5
117
100
AcDbEntity
  8
0
  6
ByLayer
 62
    0
370
   -1
100
AcDbPolyline
 90
   16
 70
    1
 43
0
 10
-22.59384182918981
 20
1.846373
 10
-22.59384482918981
 20
-2.621577000000002
 42
0.267949192430993
 10
-22.34384482918981
 20
-3.05458999999999
 42
-1.303223041599996
 10
-23.0268568291898
 20
-3.737604000000005
 42
0.2679482664649978
 10
-23.45986882918982
 20
-3.487605000000002
 10
-25.02773582918979
 20
-3.48760200000001
 42
0.2679491924310079
 10
-25.46074982918981
 20
-3.73760200000001
 42
-1.303223041600019
 10
-26.14376382918979
 20
-3.054590999999988
 42
0.2679482664649956
 10
-25.89376482918979
 20
-2.621578999999997
 10
-25.89376482918979
 20
1.846371000000005
 42
0.2679491924310011
 10
-26.14376482918979
 20
2.279382999999996
 42
-1.303223041599995
 10
-25.4607528291898
 20
2.96239700000001
 42
0.2679482664649993
 10
-25.02774082918981
 20
2.712399000000005
 10
-23.45987082918981
 20
2.712396000000012
 42
0.2679491924309951
 10
-23.02685782918979
 20
2.962396000000012
 42
-1.303223029819981
 10
-22.34384382918981
 20
2.279384999999991
 42
0.2679482664649993
  0
LWPOLYLINE
  5
118
100
AcDbEntity
  8
0
  6
ByLayer
 62
    0
370
   -1
100
AcDbPolyline
 90
   16
 70
    1
 43
0
 10
-25.4607528291898
 20
-18.23760200000001
 42
0.2679482664649595
 10
-25.02774082918981
 20
-18.48759999999999
 10
-23.45987082918981
 20
-18.48760300000001
 42
0.2679491924309951
 10
-23.02685782918979
 20
-18.23760300000001
 42
-1.30322304159961
 10
-22.34384382918981
 20
-18.92061500000003
 42
0.2679482664649971
 10
-22.59384182918981
 20
-19.35362699999999
 10
-22.59384482918981
 20
-23.82157599999999
 42
0.2679491924310079
 10
-22.34384482918981
 20
-24.25459000000001
 42
-1.30322304159961
 10
-23.02685682918982
 20
-24.93760399999999
 42
0.2679482664649958
 10
-23.45986882918982
 20
-24.68760499999999
 10
-25.02773582918979
 20
-24.687602
 42
0.2679491924310079
 10
-25.46074982918981
 20
-24.937602
 42
-1.30322304159961
 10
-26.14376382918979
 20
-24.25458999999998
 42
0.2679482664649956
 10
-25.89376482918979
 20
-23.82157799999999
 10
-25.89376482918979
 20
-19.35362799999999
 42
0.2679491924310011
 10
-26.14376482918979
 20
-18.920616
 42
-1.30322304159961
  0
CIRCLE
  5
119
100
AcDbEntity
  8
0
  6
ByLayer
 62
    0
370
   -1
100
AcDbCircle
 10
-24.2438028291898
 20
-10.98760300000001
 40
1.6
  0
LINE
  5
11A
100
AcDbEntity
  8
0
  6
ByLayer
 62
  256
370
   -1
100
AcDbLine
 10
46.98120117081021
 20
-9.816063095671126
 11
46.9811981708101
 21
-11.38393409567115
  0
LWPOLYLINE
  5
11B
100
AcDbEntity
  8
0
  6
ByLayer
 62
    0
370
   -1
100
AcDbPolyline
 90
   16
 70
    1
 43
0
 10
25.34818717081032
 20
-12.49996099999998
 42
0.2679482664650101
 10
24.91517517081007
 20
-12.24996199999998
 10
20.4472251708101
 20
-12.24995899999999
 42
0.2679491924309884
 10
20.01421317080997
 20
-12.49995899999999
 42
-1.303223041600285
 10
19.33119917081007
 20
-11.81694700000003
 42
0.2679482664649728
 10
19.58119717081007
 20
-11.38393500000001
 10
19.58120017081012
 20
-9.816068000000001
 42
0.2679491924310011
 10
19.33120017081012
 20
-9.38305600000001
 42
-1.3032230416
 10
20.01421117081009
 20
-8.700041999999996
 42
0.2679482664649728
 10
20.4472231708101
 20
-8.950040000000001
 10
24.91517317081008
 20
-8.950040000000001
 42
0.2679491924309598
 10
25.34818617081021
 20
-8.700040000000001
 42
-1.303223041599995
 10
26.03120017081011
 20
-9.383050999999995
 42
0.2679482664649958
 10
25.78120117081011
 20
-9.816062999999986
 10
25.78119817081011
 20
-11.38393400000001
 42
0.267949192430993
 10
26.03119817081011
 20
-11.816947
 42
-1.303223041600181
  0
LWPOLYLINE
  5
11C
100
AcDbEntity
  8
0
  6
ByLayer
 62
    0
370
   -1
100
AcDbPolyline
 90
   16
 70
    1
 43
0
 10
40.78119917081011
 20
-9.816068000000001
 42
0.2679491924310011
 10
40.53119917081011
 20
-9.38305600000001
 42
-1.303223041599976
 10
41.21421117081007
 20
-8.700041999999996
 42
0.267948266464979
 10
41.64722317081021
 20
-8.950040000000001
 10
46.11517217081007
 20
-8.950040000000001
 42
0.2679491924310141
 10
46.5481861708102
 20
-8.700040000000001
 42
-1.303223041600023
 10
47.23120017080998
 20
-9.383050999999966
 42
0.2679482664649776
 10
46.98120117081021
 20
-9.816062999999986
 10
46.9811981708101
 20
-11.38393400000001
 42
0.267949192430993
 10
47.2311981708101
 20
-11.816947
 42
-1.303223041600275
 10
46.54818617081037
 20
-12.49996099999998
 42
0.267948266465069
 10
46.11517417081006
 20
-12.24996200000001
 10
41.6472241708102
 20
-12.24995899999999
 42
0.2679491924309834
 10
41.21421217081041
 20
-12.49995899999999
 42
-1.303223041599978
 10
40.53119817081011
 20
-11.81694700000003
 42
0.2679482664649804
 10
40.78119617081012
 20
-11.38393500000001
  0
CIRCLE
  5
11D
100
AcDbEntity
  8
0
  6
ByLayer
 62
    0
370
   -1
100
AcDbCircle
 10
33.28119917081011
 20
-10.60000099999999
 40
1.6
  0
LWPOLYLINE
  5
11E
100
AcDbEntity
  8
0
  6
ByLayer
 62
    0
370
   -1
100
AcDbPolyline
 90
   16
 70
    1
 43
0
 10
-102.3018158291897
 20
-12.49995999999999
 42
0.2679482664650823
 10
-102.7348278291897
 20
-12.24996200000001
 10
-107.2027778291897
 20
-12.24995899999999
 42
0.2679491924309936
 10
-107.6357898291897
 20
-12.49995899999999
 42
-1.303223041600048
 10
-108.3188038291897
 20
-11.816947
 42
0.2679482664649914
 10
-108.0688058291897
 20
-11.38393500000001
 10
-108.0688028291897
 20
-9.816068000000001
 42
0.2679491924310011
 10
-108.3188028291897
 20
-9.38305600000001
 42
-1.303223041599943
 10
-107.6357918291897
 20
-8.700040999999999
 42
0.2679482664649976
 10
-107.2027798291897
 20
-8.950040000000001
 10
-102.7348298291897
 20
-8.950040000000001
 42
0.2679491924310008
 10
-102.3018168291897
 20
-8.700040000000001
 42
-1.303223041600176
 10
-101.6188028291897
 20
-9.383050999999995
 42
0.2679482664649958
 10
-101.8688018291897
 20
-9.816062999999986
 10
-101.8688048291897
 20
-11.38393400000001
 42
0.2679491924309936
 10
-101.6188048291897
 20
-11.81694600000003
 42
-1.303223041600053
  0
LWPOLYLINE
  5
11F
100
AcDbEntity
  8
0
  6
ByLayer
 62
    0
370
   -1
100
AcDbPolyline
 90
   16
 70
    1
 43
0
 10
-86.86880382918972
 20
-9.816068000000001
 42
0.2679491924310011
 10
-87.11880382918972
 20
-9.38305600000001
 42
-1.303223041599886
 10
-86.4357918291897
 20
-8.700040999999999
 42
0.2679482664649956
 10
-86.00277982918971
 20
-8.950040000000001
 10
-81.5348308291897
 20
-8.950040000000001
 42
0.2679491924310134
 10
-81.10181682918972
 20
-8.700040000000001
 42
-1.303223041600072
 10
-80.4188028291897
 20
-9.383050999999995
 42
0.2679482664650089
 10
-80.6688018291897
 20
-9.816062999999986
 10
-80.6688048291897
 20
-11.38393400000001
 42
0.2679491924309936
 10
-80.4188048291897
 20
-11.816946
 42
-1.303223041600048
 10
-81.10181682918969
 20
-12.49995999999999
 42
0.2679482664650823
 10
-81.53482882918971
 20
-12.24996200000001
 10
-86.00277882918971
 20
-12.24995899999999
 42
0.2679491924309936
 10
-86.4357908291897
 20
-12.49995899999999
 42
-1.303223041600048
 10
-87.11880482918971
 20
-11.816947
 42
0.2679482664649785
 10
-86.86880682918971
 20
-11.38393500000001
  0
CIRCLE
  5
120
100
AcDbEntity
  8
0
  6
ByLayer
 62
    0
370
   -1
100
AcDbCircle
 10
-94.36880382918972
 20
-10.60000099999999
 40
1.6
  0
ENDBLK
  5
6A
330
68
100
AcDbEntity
  8
0
100
AcDbBlockEnd
  0
BLOCK
  5
6C
330
6B
100
AcDbEntity
  8
0
100
AcDbBlockBegin
  2
Y_axis_idler
 70
    0
 10
0
 20
0
  3
Y_axis_idler
  1

  0
CIRCLE
  5
121
100
AcDbEntity
  8
0
  6
ByLayer
 62
  256
370
   -1
100
AcDbCircle
 10
-316.2955932617188
 20
-148.0607218804687
 40
1.6
  0
LWPOLYLINE
  5
122
100
AcDbEntity
  8
0
  6
ByLayer
 62
  256
370
   -1
100
AcDbPolyline
 90
   42
 70
    1
 43
0
 10
-329.2956212617187
 20
-154.4357213804687
 10
-329.2956212617187
 20
-153.1607273804687
 10
-332.2955932617188
 20
-153.1607273804687
 10
-332.2955932617188
 20
-158.2946983804687
 42
0.2679491924310045
 10
-332.0455932617188
 20
-158.7277113804687
 42
-1.303223041600012
 10
-332.7286052617187
 20
-159.4107253804687
 42
0.2679482664650005
 10
-333.1616172617187
 20
-159.1607263804687
 10
-334.7956452617187
 20
-159.1607263804687
 42
0.4142135623729951
 10
-335.2956452617187
 20
-159.6607263804687
 10
-335.2956452617187
 20
-164.6607243804687
 42
0.4142135623729951
 10
-334.7956452617187
 20
-165.1607243804687
 10
-333.1616182617187
 20
-165.1607213804687
 42
0.2679491924310048
 10
-332.7286062617188
 20
-164.9107213804687
 42
-1.303223041599915
 10
-332.0455922617188
 20
-165.5937323804687
 42
0.2679482664650002
 10
-332.2955902617188
 20
-166.0267443804687
 10
-332.2955932617188
 20
-170.5607133804687
 10
-315.8851422617187
 20
-170.5607133804688
 42
0.348988378823007
 10
-313.9367672617186
 20
-169.0121943804687
 10
-307.4779102617188
 20
-141.1388653804687
 42
0.4825924606890046
 10
-314.2955932617188
 20
-132.5607305804687
 10
-332.2955932617188
 20
-132.5607293804687
 10
-332.2955932617188
 20
-137.0946973804687
 42
0.267949192430993
 10
-332.0455932617188
 20
-137.5277103804687
 42
-1.303223041600022
 10
-332.7286052617187
 20
-138.2107243804687
 42
0.2679482664649902
 10
-333.1616172617187
 20
-137.9607253804687
 10
-334.7956452617187
 20
-137.9607253804687
 42
0.4142135623729951
 10
-335.2956452617187
 20
-138.4607253804687
 10
-335.2956452617187
 20
-143.4607223804687
 42
0.4142135623729951
 10
-334.7956452617187
 20
-143.9607223804687
 10
-333.1616182617187
 20
-143.9607193804687
 42
0.2679491924310048
 10
-332.7286062617187
 20
-143.7107193804687
 42
-1.303223041600064
 10
-332.0455922617188
 20
-144.3937313804687
 42
0.2679482664649936
 10
-332.2955902617188
 20
-144.8267433804687
 10
-332.2955932617188
 20
-149.9607163804687
 10
-329.2956212617187
 20
-149.9607163804687
 10
-329.2956212617187
 20
-148.6857213804687
 10
-325.2955932617188
 20
-148.6857213804687
 10
-325.2955932617188
 20
-149.9607163804687
 10
-322.2955932617188
 20
-149.9607163804687
 10
-322.2955932617188
 20
-153.1607273804687
 10
-325.2955932617188
 20
-153.1607273804687
 10
-325.2955932617188
 20
-154.4357213804687
  0
ENDBLK
  5
6D
330
6B
100
AcDbEntity
  8
0
100
AcDbBlockEnd
  0
BLOCK
  5
6F
330
6E
100
AcDbEntity
  8
0
100
AcDbBlockBegin
  2
spool_holder_bracket
 70
    0
 10
0
 20
0
  3
spool_holder_bracket
  1

  0
LWPOLYLINE
  5
123
100
AcDbEntity
  8
0
  6
ByLayer
 62
  256
370
   -1
100
AcDbPolyline
 90
   52
 70
    1
 43
0
 10
-86.59021093855191
 20
-38.69280316941558
 42
-0.2679491924310241
 10
-86.11773393855191
 20
-38.52920216941538
 42
1.303223041600252
 10
-86.18677893855181
 20
-37.56574716941566
 42
-0.2679482664650019
 10
-86.6777559385518
 20
-37.47119116941559
 10
-87.91282393855181
 20
-36.40130616941559
 42
-0.414213562373001
 10
-87.96336893855181
 20
-35.69600916941567
 10
-84.68960693855192
 20
-31.91679516941559
 42
-0.4142135623729902
 10
-83.98430893855192
 20
-31.86625016941559
 10
-82.74924393855181
 20
-32.93613516941559
 42
-0.267949192430933
 10
-82.5856419385519
 20
-33.40861316941556
 42
1.303223041600113
 10
-81.62218693855198
 20
-33.33956816941566
 42
-0.2679482664649316
 10
-81.52762993855188
 20
-32.84859216941555
 10
-78.16614993855191
 20
-28.96811316941569
 10
-75.89864193855192
 20
-30.93235316941559
 10
-76.7334479385519
 20
-31.89604916941568
 10
-73.71005493855191
 20
-34.51507816941569
 10
-72.87524793855181
 20
-33.55138216941577
 10
-70.60771893855181
 20
-35.51564016941558
 10
-68.5125029385519
 20
-33.09693416941559
 10
-70.78003193855182
 20
-31.13267616941567
 10
-69.94522593855191
 20
-30.16898016941559
 10
-72.96861993855191
 20
-27.54995116941558
 10
-73.80342593855181
 20
-28.51364616941549
 10
-76.07093393855192
 20
-26.54940616941559
 10
-72.70945293855192
 20
-22.66893016941549
 42
-0.2679491924310298
 10
-72.23697593855192
 20
-22.50532916941575
 42
1.303223041600278
 10
-72.30601993855191
 20
-21.54187416941579
 42
-0.267948266466
 10
-72.79699693855181
 20
-21.44731816941544
 10
-74.03206493855191
 20
-20.37743316941544
 42
-0.4142135623729994
 10
-74.08261093855191
 20
-19.67213616941558
 10
-70.80884793855191
 20
-15.89292116941556
 42
-0.4142135623729902
 10
-70.10354993855191
 20
-15.84237716941556
 10
-68.86848493855192
 20
-16.91226116941556
 42
-0.2679491924309848
 10
-68.7048829385518
 20
-17.38473916941558
 42
1.303223041600628
 10
-67.74142793855211
 20
-17.31569416941568
 42
-0.2679482664650151
 10
-67.64687193855181
 20
-16.82471916941569
 10
-60.74972193855191
 20
-8.862682169415677
 10
-49.4120729631249
 20
-18.68397107210035
 10
85.15334306144811
 20
12.10829883058432
 42
0.1456556773480006
 10
87.0774960614481
 20
13.33528883058432
 10
91.28856106144801
 20
18.19651983058441
 42
-0.2043018789770007
 10
97.49289906144818
 20
21.22332983058425
 42
-0.6607131774120097
 10
98.29954606144818
 20
19.56986883058431
 10
94.61427106144831
 20
15.31560683058444
 42
1.000000000000005
 10
101.2656900614481
 20
9.553781830584455
 10
104.9509660614481
 20
13.80804483058432
 42
-0.6607131836799516
 10
106.7025560614481
 20
13.24541883058441
 42
-0.3606908932380056
 10
100.3582630614481
 20
3.973493830584459
 10
-84.96461893855181
 20
-48.99334416941559
 42
-0.2532770339399986
 10
-88.68284893855181
 20
-48.17071716941558
 10
-91.65912693855191
 20
-45.59250116941558
 10
-92.17785493855192
 20
-45.14315016941578
  0
ENDBLK
  5
70
330
6E
100
AcDbEntity
  8
0
100
AcDbBlockEnd
  0
BLOCK
  5
72
330
71
100
AcDbEntity
  8
0
100
AcDbBlockBegin
  2
Z_axis_top_rod_end
 70
    0
 10
0
 20
0
  3
Z_axis_top_rod_end
  1

  0
LWPOLYLINE
  5
124
100
AcDbEntity
  8
0
  6
ByLayer
 62
    0
370
   -1
100
AcDbPolyline
 90
    5
 70
    1
 43
0
 10
4.778029076200596
 20
3.661313452403277
 10
4.777697076200525
 20
-24.33868654759674
 10
27.77769707620052
 20
-24.33895954759674
 10
27.77788807620072
 20
-8.338961547596739
 42
0.4142136339389971
 10
15.77803607620052
 20
3.661182452403239
  0
CIRCLE
  5
125
100
AcDbEntity
  8
0
  6
ByLayer
 62
    0
370
   -1
100
AcDbCircle
 10
10.2780660762005
 20
-1.008846547596733
 40
1.6
  0
CIRCLE
  5
126
100
AcDbEntity
  8
0
  6
ByLayer
 62
    0
370
   -1
100
AcDbCircle
 10
21.42806607620059
 20
-18.95254654759673
 40
1.6
  0
ENDBLK
  5
73
330
71
100
AcDbEntity
  8
0
100
AcDbBlockEnd
  0
BLOCK
  5
75
330
74
100
AcDbEntity
  8
0
100
AcDbBlockBegin
  2
Y_axis_rod_end
 70
    0
 10
0
 20
0
  3
Y_axis_rod_end
  1

  0
LWPOLYLINE
  5
127
100
AcDbEntity
  8
0
  6
ByLayer
 62
    0
370
   -1
100
AcDbPolyline
 90
    6
 70
    1
 43
0
 10
50.38129807389132
 20
14.49802
 10
50.38129807389132
 20
0
 42
0.4142135623729951
 10
52.38129807389132
 20
-2
 10
68.38129807389132
 20
-2
 42
0.4142135623729951
 10
70.38129807389132
 20
0
 10
70.38129807389132
 20
14.49802300000005
  0
CIRCLE
  5
128
100
AcDbEntity
  8
0
  6
ByLayer
 62
    0
370
   -1
100
AcDbCircle
 10
55.38162907389133
 20
9.721928000000105
 40
1.6
  0
CIRCLE
  5
129
100
AcDbEntity
  8
0
  6
ByLayer
 62
    0
370
   -1
100
AcDbCircle
 10
65.38162907389156
 20
9.721928000000105
 40
1.6
  0
ENDBLK
  5
76
330
74
100
AcDbEntity
  8
0
100
AcDbBlockEnd
  0
BLOCK
  5
78
330
77
100
AcDbEntity
  8
0
100
AcDbBlockBegin
  2
right_frame
 70
    0
 10
0
 20
0
  3
right_frame
  1

  0
LWPOLYLINE
  5
12A
100
AcDbEntity
  8
0
  6
ByLayer
 62
    0
370
   -1
100
AcDbPolyline
 90
   16
 70
    1
 43
0
 10
198.9197628999672
 20
-146.4634695422878
 42
-1.303223041600158
 10
199.6027768999672
 20
-147.1464815422879
 42
0.2679482664649874
 10
199.3527788999672
 20
-147.5794935422878
 10
199.3527788999672
 20
-152.0474425422878
 42
0.2679491924310079
 10
199.6027788999672
 20
-152.4804565422878
 42
-1.303223041600062
 10
198.9197668999672
 20
-153.1634705422878
 42
0.2679482664649632
 10
198.4867548999673
 20
-152.9134715422878
 10
196.9188848999672
 20
-152.9134685422878
 42
0.2679491924309886
 10
196.4858708999673
 20
-153.1634685422878
 42
-1.303223041600219
 10
195.8028568999673
 20
-152.4804565422878
 42
0.2679482664649921
 10
196.0528558999673
 20
-152.0474445422878
 10
196.0528588999673
 20
-147.5794945422878
 42
0.2679491924309935
 10
195.8028588999673
 20
-147.1464825422878
 42
-1.303223041600385
 10
196.4858708999672
 20
-146.4634685422879
 42
0.2679482664650561
 10
196.9188828999672
 20
-146.7134665422878
 10
198.4867498999673
 20
-146.7134695422878
 42
0.2679491924309608
  0
LWPOLYLINE
  5
12B
100
AcDbEntity
  8
0
  6
ByLayer
 62
    0
370
   -1
100
AcDbPolyline
 90
   16
 70
    1
 43
0
 10
195.8028588999673
 20
-125.9464835422878
 42
-1.303223041600267
 10
196.4858708999672
 20
-125.2634695422878
 42
0.2679482664650409
 10
196.9188828999672
 20
-125.5134675422878
 10
198.4867498999673
 20
-125.5134705422878
 42
0.2679491924309851
 10
198.9197628999671
 20
-125.2634705422878
 42
-1.303223041600039
 10
199.6027768999672
 20
-125.9464815422878
 42
0.2679482664649993
 10
199.3527788999672
 20
-126.3794935422878
 10
199.3527788999672
 20
-130.8474435422878
 42
0.2679491924310006
 10
199.6027788999672
 20
-131.2804565422878
 42
-1.303223041599976
 10
198.9197668999672
 20
-131.9634705422878
 42
0.2679482664649632
 10
198.4867548999673
 20
-131.7134715422878
 10
196.9188848999672
 20
-131.7134685422878
 42
0.2679491924309886
 10
196.4858708999673
 20
-131.9634685422878
 42
-1.303223041600105
 10
195.8028568999673
 20
-131.2804575422878
 42
0.2679482617889977
 10
196.0528558999673
 20
-130.8474455422878
 10
196.0528588999673
 20
-126.3794955422878
 42
0.2679491924309935
  0
LWPOLYLINE
  5
12C
100
AcDbEntity
  8
0
  6
ByLayer
 62
    0
370
   -1
100
AcDbPolyline
 90
   16
 70
    1
 43
0
 10
196.0528558999673
 20
-221.8475775422878
 10
196.0528588999673
 20
-217.3796275422878
 42
0.2679491924310087
 10
195.8028588999673
 20
-216.9466155422878
 42
-1.303223041600176
 10
196.4858708999672
 20
-216.2636015422879
 42
0.2679482664650014
 10
196.9188828999672
 20
-216.5135995422877
 10
198.4867498999673
 20
-216.5136025422878
 42
0.2679491924309717
 10
198.9197628999671
 20
-216.2636025422878
 42
-1.303223041599795
 10
199.6027768999672
 20
-216.9466135422878
 42
0.2679482664649916
 10
199.3527788999672
 20
-217.3796255422878
 10
199.3527788999672
 20
-221.8475755422878
 42
0.2679491924310006
 10
199.6027788999672
 20
-222.2805885422878
 42
-1.3032230415998
 10
198.9197668999672
 20
-222.9636025422878
 42
0.267948266464882
 10
198.4867548999673
 20
-222.7136035422878
 10
196.9188848999672
 20
-222.7136005422878
 42
0.2679491924309905
 10
196.4858708999672
 20
-222.9636005422877
 42
-1.3032230416001
 10
195.8028568999673
 20
-222.2805895422877
 42
0.2679482617890013
  0
LWPOLYLINE
  5
12D
100
AcDbEntity
  8
0
  6
ByLayer
 62
    0
370
   -1
100
AcDbPolyline
 90
   16
 70
    1
 43
0
 10
196.9188848999672
 20
-243.9136005422878
 42
0.2679491924309886
 10
196.4858708999673
 20
-244.1636005422878
 42
-1.303223041600134
 10
195.8028568999673
 20
-243.4805885422878
 42
0.2679482664650033
 10
196.0528558999673
 20
-243.0475765422878
 10
196.0528588999673
 20
-238.5796265422878
 42
0.2679491924309935
 10
195.8028588999673
 20
-238.1466145422878
 42
-1.303223041600029
 10
196.4858708999673
 20
-237.4636005422878
 42
0.2679482664650085
 10
196.9188828999672
 20
-237.7135985422878
 10
198.4867498999673
 20
-237.7136015422878
 42
0.2679491924309608
 10
198.9197628999672
 20
-237.4636015422878
 42
-1.303223041599963
 10
199.6027768999672
 20
-238.1466135422878
 42
0.2679482664650179
 10
199.3527788999672
 20
-238.5796255422878
 10
199.3527788999672
 20
-243.0475745422878
 42
0.2679491924310003
 10
199.6027788999672
 20
-243.4805885422878
 42
-1.303223041599976
 10
198.9197668999672
 20
-244.1636025422878
 42
0.2679482664649632
 10
198.4867548999673
 20
-243.9136035422878
  0
LWPOLYLINE
  5
12E
100
AcDbEntity
  8
0
  6
ByLayer
 62
    0
370
   -1
100
AcDbPolyline
 90
    4
 70
    1
 43
0
 10
214.7028268999673
 20
18.78648145771223
 10
214.7028268999673
 20
26.78648245771222
 42
0.9999999999999999
 10
206.7028268999673
 20
26.78648245771222
 10
206.7028268999673
 20
18.78648145771223
 42
0.9999999131120526
  0
LWPOLYLINE
  5
12F
100
AcDbEntity
  8
0
  6
ByLayer
 62
    0
370
   -1
100
AcDbPolyline
 90
    4
 70
    1
 43
0
 10
214.7028268999673
 20
-21.21351854228777
 10
214.7028268999673
 20
-13.21351754228778
 42
0.9999999999999999
 10
206.7028268999673
 20
-13.21351754228778
 10
206.7028268999673
 20
-21.21351854228777
 42
0.9999999131120526
  0
LWPOLYLINE
  5
130
100
AcDbEntity
  8
0
  6
ByLayer
 62
    0
370
   -1
100
AcDbPolyline
 90
    4
 70
    1
 43
0
 10
206.7028268999673
 20
-53.21351754228778
 10
206.7028268999673
 20
-61.21351854228777
 42
0.9999999131120526
 10
214.7028268999673
 20
-61.21351854228777
 10
214.7028268999673
 20
-53.21351754228778
 42
0.9999999999999999
  0
LWPOLYLINE
  5
131
100
AcDbEntity
  8
0
  6
ByLayer
 62
    0
370
   -1
100
AcDbPolyline
 90
    4
 70
    1
 43
0
 10
119.7028268999673
 20
-21.21351854228777
 10
119.7028268999673
 20
-13.21351754228778
 42
0.9999999999999999
 10
111.7028268999673
 20
-13.21351754228778
 10
111.7028268999673
 20
-21.21351854228777
 42
0.9999999131120526
  0
LWPOLYLINE
  5
132
100
AcDbEntity
  8
0
  6
ByLayer
 62
    0
370
   -1
100
AcDbPolyline
 90
    4
 70
    1
 43
0
 10
119.7028268999673
 20
-61.21351854228777
 10
119.7028268999673
 20
-53.21351754228778
 42
0.9999999999999999
 10
111.7028268999673
 20
-53.21351754228778
 10
111.7028268999673
 20
-61.21351854228777
 42
0.9999999131120526
  0
LWPOLYLINE
  5
133
100
AcDbEntity
  8
0
  6
ByLayer
 62
    0
370
   -1
100
AcDbPolyline
 90
    4
 70
    1
 43
0
 10
59.70282989996718
 20
-52.21351654228778
 10
51.70282989996718
 20
-52.21351654228778
 42
0.9999999789265815
 10
51.70282989996718
 20
-60.21351654228778
 10
59.70282989996718
 20
-60.21351654228778
 42
0.9999999131120526
  0
LWPOLYLINE
  5
134
100
AcDbEntity
  8
0
  6
ByLayer
 62
    0
370
   -1
100
AcDbPolyline
 90
    4
 70
    1
 43
0
 10
-0.2971701000328153
 20
-52.21351654228778
 10
-8.297170100032815
 20
-52.21351654228778
 42
0.9999999789265744
 10
-8.297170100032815
 20
-60.21351654228778
 10
-0.2971701000328153
 20
-60.21351654228778
 42
0.9999999131120526
  0
LWPOLYLINE
  5
135
100
AcDbEntity
  8
0
  6
ByLayer
 62
    0
370
   -1
100
AcDbPolyline
 90
    4
 70
    1
 43
0
 10
-60.29717010003282
 20
-52.21351654228778
 10
-68.29717010003282
 20
-52.21351654228778
 42
0.9999999789265744
 10
-68.29717010003282
 20
-60.21351654228778
 10
-60.29717010003282
 20
-60.21351654228778
 42
0.9999999131120526
  0
LWPOLYLINE
  5
136
100
AcDbEntity
  8
0
  6
ByLayer
 62
    0
370
   -1
100
AcDbPolyline
 90
    4
 70
    1
 43
0
 10
-120.2971701000328
 20
-52.21351654228778
 10
-128.2971701000328
 20
-52.21351654228778
 42
0.9999999789265744
 10
-128.2971701000328
 20
-60.21351654228778
 10
-120.2971701000328
 20
-60.21351654228778
 42
0.9999999131120526
  0
LWPOLYLINE
  5
137
100
AcDbEntity
  8
0
  6
ByLayer
 62
    0
370
   -1
100
AcDbPolyline
 90
   16
 70
    1
 43
0
 10
133.5981978999673
 20
-12.18017554228777
 10
133.5981868999672
 20
-27.2096135422878
 42
0.1989123175250007
 10
135.3555418999673
 20
-31.45225554228779
 10
151.8408088999672
 20
-47.93754654228775
 42
0.1989124853150002
 10
156.0834488999673
 20
-49.6949115422878
 10
161.1128858999672
 20
-49.69491454228779
 42
0.1989124853149983
 10
165.3555288999671
 20
-47.93755754228789
 10
181.8408248999674
 20
-31.45229454228775
 42
0.1989123174910053
 10
183.5981868999672
 20
-27.20965554228775
 10
183.5981988999673
 20
-12.18022654228776
 42
0.1989123360569864
 10
181.8408398999672
 20
-7.93758554228782
 10
165.3555568999672
 20
8.54769645771222
 42
0.1989123583080027
 10
161.1129168999672
 20
10.30505645771234
 10
156.0834798999673
 20
10.30505645771211
 42
0.1989123583080037
 10
151.8408388999671
 20
8.547697457712218
 10
135.3555568999672
 20
-7.937585542287763
 42
0.1989123360590011
  0
LWPOLYLINE
  5
138
100
AcDbEntity
  8
0
  6
ByLayer
 62
    0
370
   -1
100
AcDbPolyline
 90
  210
 70
    0
 43
0
 10
178.2523788999673
 20
53.28706645771223
 10
178.2523378999673
 20
53.78645445771224
 10
178.7523788999673
 20
53.78645445771224
 10
183.2368008999673
 20
53.78645445771224
 42
-0.2679491924309741
 10
183.6698128999672
 20
53.53645445771224
 42
1.303223041600067
 10
184.3528268999672
 20
54.2194654577122
 42
-0.2679482664649727
 10
184.1028288999672
 20
54.65247745771222
 10
184.1028288999672
 20
56.28650645771222
 42
-0.4142135623730284
 10
184.6028288999672
 20
56.78650645771222
 10
189.6028258999672
 20
56.78650645771222
 42
-0.4142135623730284
 10
190.1028258999672
 20
56.28650645771222
 10
190.1028228999672
 20
54.65247945771222
 42
-0.2679491924310386
 10
189.8528228999672
 20
54.21946645771214
 42
1.303223041599896
 10
190.5358348999674
 20
53.53645245771224
 42
-0.2679482664649876
 10
190.9688468999672
 20
53.78645145771225
 10
196.1028118999673
 20
53.78645445771224
 10
196.1028118999673
 20
50.78648245771222
 10
194.8278178999672
 20
50.78648245771222
 10
194.8278178999672
 20
46.78645445771224
 10
196.1028118999673
 20
46.78645445771224
 10
196.1028118999673
 20
43.78645445771224
 10
199.3028228999672
 20
43.78645445771224
 10
199.3028228999672
 20
46.78645445771224
 10
200.5778178999672
 20
46.78645445771224
 10
200.5778178999672
 20
50.78648245771222
 10
199.3028228999672
 20
50.78648245771222
 10
199.3028228999672
 20
53.78645445771224
 10
204.4368168999673
 20
53.78645445771224
 42
-0.2679491924309741
 10
204.8698288999672
 20
53.53645445771224
 42
1.303223041600067
 10
205.5528428999672
 20
54.2194654577122
 42
-0.2679482664649727
 10
205.3028448999672
 20
54.65247745771222
 10
205.3028448999672
 20
56.28650645771222
 42
-0.4142135623730284
 10
205.8028448999672
 20
56.78650645771222
 10
210.8028428999672
 20
56.78650645771222
 42
-0.4142135623730284
 10
211.3028428999672
 20
56.28650645771222
 10
211.3028398999672
 20
54.65247945771222
 42
-0.2679491924310386
 10
211.0528398999672
 20
54.21946645771209
 42
1.303223041601086
 10
211.7358508999673
 20
53.53645245771224
 42
-0.2679482804950084
 10
212.1688628999672
 20
53.78645145771225
 10
222.7028268999673
 20
53.78645245771224
 10
222.7028268999673
 20
48.78645245771224
 10
222.7028268999673
 20
27.78648445771222
 10
220.7028268999673
 20
25.78648045771223
 10
220.7028268999673
 20
-76.21351754228778
 10
212.1688628999672
 20
-76.21351454228778
 42
-0.2679482664649971
 10
211.7358518999673
 20
-75.96351654228778
 42
1.303223041599868
 10
211.0528398999671
 20
-76.64653154228785
 42
-0.2679491924309702
 10
211.3028398999672
 20
-77.07954354228775
 10
211.3028428999672
 20
-292.7136005422878
 42
-0.4142135623730201
 10
210.8028428999672
 20
-293.2136005422877
 10
205.8028448999672
 20
-293.2136005422878
 42
-0.4142135623730367
 10
205.3028448999672
 20
-292.7136005422878
 10
205.3028448999672
 20
-291.0795725422878
 42
-0.267948266465003
 10
205.5528428999672
 20
-290.6465605422878
 42
1.303223029819916
 10
204.8698288999672
 20
-289.9635485422877
 42
-0.2679491924309655
 10
204.4368168999673
 20
-290.2135485422878
 10
199.3028228999672
 20
-290.2135485422878
 10
199.3028228999672
 20
-287.2135765422878
 10
200.5778178999672
 20
-287.2135765422878
 10
200.5778178999672
 20
-283.2135485422878
 10
199.3028228999672
 20
-283.2135485422878
 10
199.3028228999672
 20
-280.2135485422878
 10
196.1028118999673
 20
-280.2135485422878
 10
196.1028118999673
 20
-283.2135485422878
 10
194.8278178999672
 20
-283.2135485422878
 10
194.8278178999672
 20
-287.2135765422878
 10
196.1028118999673
 20
-287.2135765422878
 10
196.1028118999673
 20
-290.2135485422878
 10
190.9688468999672
 20
-290.2135455422878
 42
-0.2679482664650499
 10
190.5358348999673
 20
-289.9635475422878
 42
1.303223041599841
 10
189.8528228999672
 20
-290.6465625422877
 42
-0.2679491924310204
 10
190.1028228999672
 20
-291.0795745422878
 10
190.1028258999672
 20
-292.7136005422878
 42
-0.4142135623730201
 10
189.6028258999672
 20
-293.2136005422877
 10
184.6028288999672
 20
-293.2136005422878
 42
-0.4142135623730287
 10
184.1028288999672
 20
-292.7136115422878
 10
184.1028288999672
 20
-77.07954154228776
 42
-0.267948266464984
 10
184.3528268999672
 20
-76.64652954228779
 42
1.303223041599792
 10
183.6698128999672
 20
-75.96351754228766
 42
-0.2679491924310117
 10
183.2368008999673
 20
-76.21351754228778
 10
162.1688628999672
 20
-76.21351454228778
 42
-0.2679482664649971
 10
161.7358518999673
 20
-75.96351654228778
 42
1.303223041599868
 10
161.0528398999671
 20
-76.64653154228785
 42
-0.2679491924309702
 10
161.3028398999672
 20
-77.07954354228775
 10
161.3028428999672
 20
-78.71356954228776
 42
-0.4142135623730284
 10
160.8028428999672
 20
-79.21356954228776
 10
155.8028448999672
 20
-79.21356954228776
 42
-0.4142135623730284
 10
155.3028448999672
 20
-78.71356954228776
 10
155.3028448999672
 20
-77.07954154228776
 42
-0.267948266464984
 10
155.5528428999672
 20
-76.64652954228779
 42
1.303223041599792
 10
154.8698288999672
 20
-75.96351754228766
 42
-0.2679491924310117
 10
154.4368168999673
 20
-76.21351754228778
 10
149.3028228999672
 20
-76.21351754228778
 10
149.3028228999672
 20
-73.21354554228776
 10
150.5778178999672
 20
-73.21354554228776
 10
150.5778178999672
 20
-69.21351754228778
 10
149.3028228999672
 20
-69.21351754228778
 10
149.3028228999672
 20
-66.21351754228778
 10
146.1028118999673
 20
-66.21351754228778
 10
146.1028118999673
 20
-69.21351754228778
 10
144.8278178999672
 20
-69.21351754228778
 10
144.8278178999672
 20
-73.21354554228776
 10
146.1028118999673
 20
-73.21354554228776
 10
146.1028118999673
 20
-76.21351754228778
 10
140.9688468999672
 20
-76.21351454228778
 42
-0.2679482664649952
 10
140.5358348999673
 20
-75.96351654228778
 42
1.303223041599868
 10
139.8528228999671
 20
-76.64653154228785
 42
-0.2679491924309702
 10
140.1028228999672
 20
-77.07954354228775
 10
140.1028258999672
 20
-78.71356954228776
 42
-0.4142135623730284
 10
139.6028258999672
 20
-79.21356954228776
 10
134.6028288999672
 20
-79.21356954228776
 42
-0.4142135623730284
 10
134.1028288999672
 20
-78.71356954228776
 10
134.1028288999672
 20
-77.07954154228776
 42
-0.267948266464984
 10
134.3528268999672
 20
-76.64652954228779
 42
1.303223041599792
 10
133.6698128999672
 20
-75.96351754228766
 42
-0.2679491924310117
 10
133.2368008999673
 20
-76.21351754228778
 10
42.16885889996718
 20
-76.21351454228778
 42
-0.2679482664650009
 10
41.73584789996727
 20
-75.96351654228778
 42
1.303223041599886
 10
41.05283589996731
 20
-76.64653154228785
 42
-0.2679491924309743
 10
41.30283589996731
 20
-77.07954354228775
 10
41.30283889996718
 20
-78.71356954228776
 42
-0.4142135623730284
 10
40.80283889996718
 20
-79.21356954228776
 10
35.80284089996718
 20
-79.21356954228776
 42
-0.4142135623730284
 10
35.30284089996718
 20
-78.71356954228776
 10
35.30284089996718
 20
-77.07954154228776
 42
-0.2679482664649798
 10
35.55283889996718
 20
-76.64652954228785
 42
1.303223041599868
 10
34.86982489996717
 20
-75.96351754228766
 42
-0.2679491924310269
 10
34.43681289996726
 20
-76.21351754228778
 10
29.30281889996718
 20
-76.21351754228778
 10
29.30281889996718
 20
-73.21354554228776
 10
30.57781389996717
 20
-73.21354554228776
 10
30.57781389996717
 20
-69.21351754228778
 10
29.30281889996718
 20
-69.21351754228778
 10
29.30281889996718
 20
-66.21351754228778
 10
26.10280789996722
 20
-66.21351754228778
 10
26.10280789996722
 20
-69.21351754228778
 10
24.82781389996717
 20
-69.21351754228778
 10
24.82781389996717
 20
-73.21354554228776
 10
26.10280789996722
 20
-73.21354554228776
 10
26.10280789996722
 20
-76.21351754228778
 10
20.96884289996717
 20
-76.21351454228778
 42
-0.2679482664649971
 10
20.53583189996732
 20
-75.96351654228778
 42
1.303223041599802
 10
19.85281989996702
 20
-76.6465315422879
 42
-0.2679491924308524
 10
20.10281989996741
 20
-77.07954354228775
 10
20.10282289996718
 20
-78.71356954228776
 42
-0.4142135623730284
 10
19.60282289996718
 20
-79.21356954228776
 10
14.60282489996717
 20
-79.21356954228776
 42
-0.4142135623730284
 10
14.10282489996717
 20
-78.71356954228776
 10
14.10282489996717
 20
-77.07954154228776
 42
-0.2679482664649798
 10
14.35282289996718
 20
-76.64652954228785
 42
1.303223041599868
 10
13.66980889996717
 20
-75.96351754228766
 42
-0.2679491924310227
 10
13.23679689996732
 20
-76.21351754228778
 10
-117.8311371000327
 20
-76.21351454228778
 42
-0.2679482664650109
 10
-118.2641491000328
 20
-75.96351654228778
 42
1.303223041599925
 10
-118.9471611000328
 20
-76.64653154228785
 42
-0.2679491924309612
 10
-118.6971611000328
 20
-77.07954354228775
 10
-118.6971581000328
 20
-78.71356954228776
 42
-0.4142135623730284
 10
-119.1971581000328
 20
-79.21356954228776
 10
-124.1971551000328
 20
-79.21356954228776
 42
-0.4142135623730284
 10
-124.6971551000328
 20
-78.71356954228776
 10
-124.6971551000328
 20
-77.07954154228776
 42
-0.2679482664649971
 10
-124.4471571000328
 20
-76.64652954228779
 42
1.303223041600329
 10
-125.1301711000328
 20
-75.96351754228778
 42
-0.2679491924310158
 10
-125.5631831000327
 20
-76.21351754228778
 10
-130.6971771000328
 20
-76.21351754228778
 10
-130.6971771000328
 20
-73.21354554228776
 10
-129.4221831000327
 20
-73.21354554228776
 10
-129.4221831000327
 20
-69.21351754228778
 10
-130.6971771000328
 20
-69.21351754228778
 10
-130.6971771000328
 20
-66.21351754228778
 10
-133.8971881000328
 20
-66.21351754228778
 10
-133.8971881000328
 20
-69.21351754228778
 10
-135.1721831000327
 20
-69.21351754228778
 10
-135.1721831000327
 20
-73.21354554228776
 10
-133.8971881000328
 20
-73.21354554228776
 10
-133.8971881000328
 20
-76.21351754228778
 10
-139.0311531000327
 20
-76.21351454228778
 42
-0.2679482664649993
 10
-139.4641651000327
 20
-75.96351654228778
 42
1.303223041599878
 10
-140.1471771000328
 20
-76.64653154228785
 42
-0.2679491924309545
 10
-139.8971771000328
 20
-77.07954354228775
 10
-139.8971741000327
 20
-78.71356954228776
 42
-0.4142135623730284
 10
-140.3971741000327
 20
-79.21356954228776
 10
-145.3971711000328
 20
-79.21356954228776
 42
-0.4142135623730284
 10
-145.8971711000327
 20
-78.71356954228776
 10
-145.8971711000328
 20
-77.07954154228776
 42
-0.2679482664649971
 10
-145.6471731000328
 20
-76.64652954228779
 42
1.303223041600605
 10
-146.3301881000327
 20
-75.96351754228778
 42
-0.2679491924310051
 10
-146.7632001000328
 20
-76.21351754228778
 10
-157.2972001000327
 20
-76.21351754228778
 10
-157.2972001000327
 20
-65.5635185422878
 10
-155.0631531000328
 20
-65.5635185422878
 42
-0.2679491924310203
 10
-154.6301411000327
 20
-65.8135185422878
 42
1.30322302981997
 10
-153.9471271000328
 20
-65.13050654228749
 42
-0.2679482664649913
 10
-154.1971251000328
 20
-64.69749454228776
 10
-154.1971281000327
 20
-57.16352354228775
 10
-151.1971561000327
 20
-57.16352354228775
 10
-151.1971561000327
 20
-58.4385185422878
 10
-147.1971281000327
 20
-58.4385185422878
 10
-147.1971281000327
 20
-57.16352354228775
 10
-144.1971281000327
 20
-57.16352354228775
 10
-144.1971281000327
 20
-53.96351254228779
 10
-147.1971281000327
 20
-53.96351254228779
 10
-147.1971281000327
 20
-52.6885185422878
 10
-151.1971561000327
 20
-52.6885185422878
 10
-151.1971561000327
 20
-53.96351254228779
 10
-154.1971281000327
 20
-53.96351254228779
 10
-154.1971281000327
 20
-45.2153555422878
 10
177.8923158999672
 20
51.36580545771216
 42
0.3333698242438935
 10
178.2523788999673
 20
51.84582445771224
 10
178.2523788999673
 20
53.28645445771224
  0
CIRCLE
  5
139
100
AcDbEntity
  8
0
  6
ByLayer
 62
    0
370
   -1
100
AcDbCircle
 10
181.5497568999672
 20
24.20757245771222
 40
1.6
  0
CIRCLE
  5
13A
100
AcDbEntity
  8
0
  6
ByLayer
 62
    0
370
   -1
100
AcDbCircle
 10
181.5309458999673
 20
-58.99242754228777
 40
1.6
  0
CIRCLE
  5
13B
100
AcDbEntity
  8
0
  6
ByLayer
 62
    0
370
   -1
100
AcDbCircle
 10
197.7028168999672
 20
-139.2134695422878
 40
1.6
  0
CIRCLE
  5
13C
100
AcDbEntity
  8
0
  6
ByLayer
 62
    0
370
   -1
100
AcDbCircle
 10
133.3527568999672
 20
18.00757245771223
 40
1.6
  0
CIRCLE
  5
13D
100
AcDbEntity
  8
0
  6
ByLayer
 62
    0
370
   -1
100
AcDbCircle
 10
133.3339458999673
 20
-56.49242754228777
 40
1.6
  0
CIRCLE
  5
13E
100
AcDbEntity
  8
0
  6
ByLayer
 62
    0
370
   -1
100
AcDbCircle
 10
197.7028168999672
 20
-230.2136015422878
 40
1.6
  0
ENDBLK
  5
79
330
77
100
AcDbEntity
  8
0
100
AcDbBlockEnd
  0
BLOCK
  5
7B
330
7A
100
AcDbEntity
  8
0
100
AcDbBlockBegin
  2
left_frame
 70
    0
 10
0
 20
0
  3
left_frame
  1

  0
LINE
  5
13F
100
AcDbEntity
  8
0
  6
ByLayer
 62
    0
370
   -1
100
AcDbLine
 10
-196.9489556056466
 20
212.7500844706433
 11
-196.9489526056466
 21
212.7500844706433
  0
LWPOLYLINE
  5
140
100
AcDbEntity
  8
0
  6
ByLayer
 62
    0
370
   -1
100
AcDbPolyline
 90
   16
 70
    1
 43
0
 10
-182.5649976056466
 20
72.94995347064329
 42
0.2679491924309818
 10
-182.1319846056466
 20
73.19995347064329
 42
-1.303223041600155
 10
-181.4489706056465
 20
72.5169414706433
 42
0.2679482664649926
 10
-181.6989686056466
 20
72.08392947064328
 10
-181.6989716056466
 20
67.61597947064328
 42
0.2679491924310149
 10
-181.4489716056466
 20
67.18296647064329
 42
-1.303223041600055
 10
-182.1319836056466
 20
66.49995247064328
 42
0.2679482664650165
 10
-182.5649956056466
 20
66.74995147064328
 10
-184.1328626056466
 20
66.7499544706433
 42
0.2679491924309944
 10
-184.5658766056465
 20
66.4999544706433
 42
-1.30322304160017
 10
-185.2488906056465
 20
67.18296647064329
 42
0.2679482664650042
 10
-184.9988916056466
 20
67.61597847064328
 10
-184.9988916056465
 20
72.08392747064329
 42
0.2679491924310138
 10
-185.2488916056465
 20
72.51694047064328
 42
-1.303223041600055
 10
-184.5658796056466
 20
73.19995447064329
 42
0.2679482664650145
 10
-184.1328676056466
 20
72.94995647064329
  0
LWPOLYLINE
  5
141
100
AcDbEntity
  8
0
  6
ByLayer
 62
    0
370
   -1
100
AcDbPolyline
 90
   16
 70
    1
 43
0
 10
-184.5658766056466
 20
45.29995547064328
 42
-1.303223041600105
 10
-185.2488906056466
 20
45.98296647064328
 42
0.2679482664649976
 10
-184.9988916056466
 20
46.4159784706433
 10
-184.9988916056465
 20
50.8839284706433
 42
0.2679491924310078
 10
-185.2488916056465
 20
51.31694047064329
 42
-1.303223041600062
 10
-184.5658796056466
 20
51.9999544706433
 42
0.2679482664650183
 10
-184.1328676056466
 20
51.7499564706433
 10
-182.5649976056466
 20
51.74995347064328
 42
0.2679491924310122
 10
-182.1319846056466
 20
51.99995347064328
 42
-1.3032230416
 10
-181.4489706056465
 20
51.31694247064328
 42
0.2679482617889888
 10
-181.6989686056465
 20
50.88393047064329
 10
-181.6989716056465
 20
46.41598047064329
 42
0.2679491924309864
 10
-181.4489716056466
 20
45.9829674706433
 42
-1.303223041600006
 10
-182.1319836056466
 20
45.29995347064329
 42
0.2679482664650165
 10
-182.5649956056466
 20
45.54995247064329
 10
-184.1328626056466
 20
45.54995547064328
 42
0.2679491924309907
  0
LWPOLYLINE
  5
142
100
AcDbEntity
  8
0
  6
ByLayer
 62
    0
370
   -1
100
AcDbPolyline
 90
   16
 70
    1
 43
0
 10
-185.2488906056466
 20
136.9830974706432
 42
0.2679482664649971
 10
-184.9988916056466
 20
137.4161094706433
 10
-184.9988916056466
 20
141.8840594706433
 42
0.2679491924310104
 10
-185.2488916056466
 20
142.3170714706435
 42
-1.303223041599697
 10
-184.5658796056466
 20
143.0000854706433
 42
0.2679482664649843
 10
-184.1328676056466
 20
142.7500874706433
 10
-182.5649976056466
 20
142.7500844706433
 42
0.2679491924309551
 10
-182.1319846056467
 20
143.0000844706433
 42
-1.303223041600549
 10
-181.4489706056467
 20
142.3170734706432
 42
0.2679482617890162
 10
-181.6989686056465
 20
141.8840614706433
 10
-181.6989716056465
 20
137.4161114706433
 42
0.2679491924309849
 10
-181.4489716056466
 20
136.9830984706435
 42
-1.303223041600381
 10
-182.1319836056467
 20
136.3000844706433
 42
0.2679482664649727
 10
-182.5649956056466
 20
136.5500834706433
 10
-184.1328626056466
 20
136.5500864706433
 42
0.2679491924310079
 10
-184.5658766056466
 20
136.3000864706433
 42
-1.303223041600126
  0
LWPOLYLINE
  5
143
100
AcDbEntity
  8
0
  6
ByLayer
 62
    0
370
   -1
100
AcDbPolyline
 90
   16
 70
    1
 43
0
 10
-181.4489716056465
 20
158.1830974706434
 42
-1.30322304159998
 10
-182.1319836056466
 20
157.5000834706433
 42
0.2679482664649844
 10
-182.5649956056466
 20
157.7500824706433
 10
-184.1328626056466
 20
157.7500854706433
 42
0.2679491924310384
 10
-184.5658766056466
 20
157.5000854706433
 42
-1.303223041599843
 10
-185.2488906056466
 20
158.1830974706433
 42
0.2679482664649961
 10
-184.9988916056465
 20
158.6161094706432
 10
-184.9988916056466
 20
163.0840584706433
 42
0.26794919243105
 10
-185.2488916056464
 20
163.5170714706432
 42
-1.303223041600193
 10
-184.5658796056465
 20
164.2000854706433
 42
0.2679482664650142
 10
-184.1328676056466
 20
163.9500874706433
 10
-182.5649976056466
 20
163.9500844706433
 42
0.2679491924309665
 10
-182.1319846056466
 20
164.2000844706433
 42
-1.303223041600159
 10
-181.4489706056466
 20
163.5170724706436
 42
0.2679482664650023
 10
-181.6989686056465
 20
163.0840604706433
 10
-181.6989716056466
 20
158.6161104706432
 42
0.2679491924309806
  0
LWPOLYLINE
  5
144
100
AcDbEntity
  8
0
  6
ByLayer
 62
    0
370
   -1
100
AcDbPolyline
 90
    4
 70
    1
 43
0
 10
-200.3489396056466
 20
-18.7499975293567
 10
-200.3489396056466
 20
-26.7499985293567
 42
0.9999999999999999
 10
-192.3489396056466
 20
-26.7499985293567
 10
-192.3489396056466
 20
-18.7499985293567
 42
0.9999999131120526
  0
LWPOLYLINE
  5
145
100
AcDbEntity
  8
0
  6
ByLayer
 62
    0
370
   -1
100
AcDbPolyline
 90
    4
 70
    1
 43
0
 10
-192.3489396056466
 20
-58.74999852935672
 42
0.9999999131120508
 10
-200.3489396056466
 20
-58.7499975293567
 10
-200.3489396056466
 20
-66.74999852935672
 42
0.9999999999999999
 10
-192.3489396056466
 20
-66.74999852935672
  0
LWPOLYLINE
  5
146
100
AcDbEntity
  8
0
  6
ByLayer
 62
    0
370
   -1
100
AcDbPolyline
 90
    4
 70
    1
 43
0
 10
-200.3489396056466
 20
-98.74999752935672
 10
-200.3489396056466
 20
-106.7499985293567
 42
0.9999999999999999
 10
-192.3489396056466
 20
-106.7499985293567
 10
-192.3489396056466
 20
-98.74999852935672
 42
0.9999999131120491
  0
LWPOLYLINE
  5
147
100
AcDbEntity
  8
0
  6
ByLayer
 62
    0
370
   -1
100
AcDbPolyline
 90
   16
 70
    1
 43
0
 10
-169.2442996056466
 20
-52.7538605293567
 10
-169.2443116056466
 20
-67.78329052935671
 42
0.1989123360590019
 10
-167.4869526056466
 20
-72.02593052935671
 10
-151.0016706056466
 20
-88.51121252935671
 42
0.1989123583080001
 10
-146.7590296056466
 20
-90.26857252935672
 10
-141.7295926056466
 20
-90.2685725293567
 42
0.1989123583079996
 10
-137.4869516056465
 20
-88.5112135293567
 10
-121.0016706056466
 20
-72.02593052935671
 42
0.1989123360569979
 10
-119.2443106056466
 20
-67.78333952935671
 10
-119.2442996056466
 20
-52.75390152935671
 42
0.1989123175240001
 10
-121.0016546056466
 20
-48.51126052935672
 10
-137.4869226056466
 20
-32.0259695293567
 42
0.1989124853149996
 10
-141.7295616056466
 20
-30.26860452935671
 10
-146.7589986056466
 20
-30.26860052935672
 42
0.1989124853150019
 10
-151.0016416056466
 20
-32.0259575293567
 10
-167.4869376056466
 20
-48.5112225293567
 42
0.1989123174889998
  0
LWPOLYLINE
  5
148
100
AcDbEntity
  8
0
  6
ByLayer
 62
    0
370
   -1
100
AcDbPolyline
 90
    4
 70
    1
 43
0
 10
-97.34893960564662
 20
-66.74999852935672
 10
-97.34893960564665
 20
-58.74999852935672
 42
0.9999999131120508
 10
-105.3489396056466
 20
-58.7499975293567
 10
-105.3489396056466
 20
-66.74999852935672
 42
0.9999999999999999
  0
LWPOLYLINE
  5
149
100
AcDbEntity
  8
0
  6
ByLayer
 62
    0
370
   -1
100
AcDbPolyline
 90
    4
 70
    1
 43
0
 10
-97.34893960564662
 20
-26.7499985293567
 10
-97.34893960564665
 20
-18.7499985293567
 42
0.9999999131120526
 10
-105.3489396056466
 20
-18.7499975293567
 10
-105.3489396056466
 20
-26.7499985293567
 42
0.9999999999999999
  0
LWPOLYLINE
  5
14A
100
AcDbEntity
  8
0
  6
ByLayer
 62
    0
370
   -1
100
AcDbPolyline
 90
    4
 70
    1
 43
0
 10
-45.3489426056465
 20
-27.7499995293567
 10
-37.3489426056465
 20
-27.7499995293567
 42
0.9999999789265744
 10
-37.3489426056465
 20
-19.7499995293567
 10
-45.3489436056465
 20
-19.7499995293567
 42
0.9999999131120526
  0
LWPOLYLINE
  5
14B
100
AcDbEntity
  8
0
  6
ByLayer
 62
    0
370
   -1
100
AcDbPolyline
 90
    4
 70
    1
 43
0
 10
22.65105739435342
 20
-19.7499995293567
 10
14.65105639435342
 20
-19.7499995293567
 42
0.9999999131120526
 10
14.65105739435342
 20
-27.7499995293567
 10
22.65105739435342
 20
-27.7499995293567
 42
0.9999999789265815
  0
LWPOLYLINE
  5
14C
100
AcDbEntity
  8
0
  6
ByLayer
 62
    0
370
   -1
100
AcDbPolyline
 90
    4
 70
    1
 43
0
 10
82.65105739435342
 20
-19.7499995293567
 10
74.65105639435342
 20
-19.7499995293567
 42
0.9999999131120526
 10
74.65105739435342
 20
-27.7499995293567
 10
82.65105739435342
 20
-27.7499995293567
 42
0.9999999789265815
  0
LWPOLYLINE
  5
14D
100
AcDbEntity
  8
0
  6
ByLayer
 62
    0
370
   -1
100
AcDbPolyline
 90
    4
 70
    1
 43
0
 10
142.6510573943534
 20
-19.7499995293567
 10
134.6510563943534
 20
-19.7499995293567
 42
0.9999999131120526
 10
134.6510573943534
 20
-27.7499995293567
 10
142.6510573943534
 20
-27.7499995293567
 42
0.9999999789265815
  0
LWPOLYLINE
  5
14E
100
AcDbEntity
  8
0
  6
ByLayer
 62
    0
370
   -1
100
AcDbPolyline
 90
  212
 70
    0
 43
0
 10
-163.8984916056466
 20
-133.2505815293567
 10
-163.8984506056466
 20
-133.7499705293567
 10
-164.3984916056466
 20
-133.7499705293567
 10
-168.8829136056466
 20
-133.7499705293567
 42
-0.2679491924309984
 10
-169.3159266056466
 20
-133.4999705293567
 42
1.303223041600005
 10
-169.9989406056466
 20
-134.1829815293567
 42
-0.2679482664650062
 10
-169.7489416056466
 20
-134.6159935293567
 10
-169.7489416056466
 20
-136.2500225293567
 42
-0.4142135623729951
 10
-170.2489416056466
 20
-136.7500225293567
 10
-175.2489386056466
 20
-136.7500225293567
 42
-0.4142135623729993
 10
-175.7489386056466
 20
-136.2500225293567
 10
-175.7489356056466
 20
-134.6159955293567
 42
-0.2679491924309984
 10
-175.4989356056466
 20
-134.1829835293567
 42
1.303223041599995
 10
-176.1819476056466
 20
-133.4999695293567
 42
-0.2679482664649988
 10
-176.6149596056466
 20
-133.7499675293567
 10
-181.7489246056466
 20
-133.7499705293567
 10
-181.7489246056466
 20
-130.7499985293567
 10
-180.4739306056466
 20
-130.7499985293567
 10
-180.4739306056466
 20
-126.7499705293567
 10
-181.7489246056466
 20
-126.7499705293567
 10
-181.7489246056466
 20
-123.7499705293567
 10
-184.9489356056466
 20
-123.7499705293567
 10
-184.9489356056466
 20
-126.7499705293567
 10
-186.2239306056466
 20
-126.7499705293567
 10
-186.2239306056466
 20
-130.7499985293567
 10
-184.9489356056466
 20
-130.7499985293567
 10
-184.9489356056466
 20
-133.7499705293567
 10
-190.0829296056466
 20
-133.7499705293567
 42
-0.2679491924309965
 10
-190.5159426056466
 20
-133.4999705293567
 42
1.303223041600032
 10
-191.1989566056466
 20
-134.1829815293567
 42
-0.2679482664649948
 10
-190.9489576056466
 20
-134.6159935293567
 10
-190.9489576056466
 20
-136.2500225293567
 42
-0.4142135623729951
 10
-191.4489576056466
 20
-136.7500225293567
 10
-196.4489556056466
 20
-136.7500225293567
 42
-0.4142135623729993
 10
-196.9489556056466
 20
-136.2500225293567
 10
-196.9489526056466
 20
-134.6159955293567
 42
-0.2679491924309984
 10
-196.6989526056466
 20
-134.1829835293567
 42
1.303223041599988
 10
-197.3819636056466
 20
-133.4999695293567
 42
-0.2679482804950005
 10
-197.8149756056466
 20
-133.7499675293567
 10
-208.3489396056466
 20
-133.7499685293567
 10
-208.3489396056466
 20
-128.7499685293567
 10
-208.3489396056466
 20
-107.7500005293567
 10
-206.3489396056466
 20
-105.7499965293567
 10
-206.3489396056466
 20
-3.749998529356702
 10
-197.8149756056466
 20
-3.750001529356695
 42
-0.2679482664650601
 10
-197.3819646056466
 20
-4.000000529356697
 42
1.303223041600052
 10
-196.6989526056466
 20
-3.316985529356714
 42
-0.2679491924310026
 10
-196.9489526056466
 20
-2.883972529356697
 10
-196.9489556056466
 20
212.7500844706433
 42
-0.4142135623730284
 10
-196.4489556056466
 20
213.2500844706433
 10
-191.4489576056466
 20
213.2500844706433
 42
-0.4142135623730118
 10
-190.9489576056466
 20
212.7500844706433
 10
-190.9489576056466
 20
211.1160564706433
 42
-0.2679482664650028
 10
-191.1989566056466
 20
210.6830444706434
 42
1.303223029819767
 10
-190.5159426056466
 20
210.0000324706433
 42
-0.2679491924309705
 10
-190.0829296056466
 20
210.2500324706433
 10
-184.9489356056466
 20
210.2500324706433
 10
-184.9489356056466
 20
207.2500604706433
 10
-186.2239306056466
 20
207.2500604706433
 10
-186.2239306056466
 20
203.2500324706433
 10
-184.9489356056466
 20
203.2500324706433
 10
-184.9489356056466
 20
200.2500324706433
 10
-181.7489246056466
 20
200.2500324706433
 10
-181.7489246056466
 20
203.2500324706433
 10
-180.4739306056466
 20
203.2500324706433
 10
-180.4739306056466
 20
207.2500604706433
 10
-181.7489246056466
 20
207.2500604706433
 10
-181.7489246056466
 20
210.2500324706433
 10
-176.6149596056466
 20
210.2500294706434
 42
-0.267948266465007
 10
-176.1819476056465
 20
210.0000304706433
 42
1.303223041599897
 10
-175.4989356056465
 20
210.6830454706435
 42
-0.2679491924309916
 10
-175.7489356056466
 20
211.1160584706433
 10
-175.7489386056465
 20
212.7500844706433
 42
-0.4142135623730201
 10
-175.2489386056466
 20
213.2500844706433
 10
-170.2489416056466
 20
213.2500844706434
 42
-0.4142135623730284
 10
-169.7489416056466
 20
212.7500764706433
 10
-169.7489416056465
 20
-2.88397452935672
 42
-0.2679482664649938
 10
-169.9989406056466
 20
-3.31698652935674
 42
1.30322304160012
 10
-169.3159266056466
 20
-3.999998529356702
 42
-0.2679491924310101
 10
-168.8829136056466
 20
-3.749998529356702
 10
-157.8149756056466
 20
-3.750001529356723
 10
-147.8149756056466
 20
-3.750001529356723
 42
-0.2679482664650037
 10
-147.3819646056466
 20
-4.000000529356697
 42
1.303223041600057
 10
-146.6989526056466
 20
-3.316985529356714
 42
-0.2679491924310149
 10
-146.9489526056466
 20
-2.883972529356697
 10
-146.9489556056466
 20
-1.24994652935672
 42
-0.4142135623729951
 10
-146.4489556056466
 20
-0.7499465293567198
 10
-141.4489576056466
 20
-0.7499465293567198
 42
-0.4142135623729951
 10
-140.9489576056466
 20
-1.24994652935672
 10
-140.9489576056466
 20
-2.88397452935672
 42
-0.2679482664649956
 10
-141.1989566056466
 20
-3.316986529356711
 42
1.3032230416003
 10
-140.5159426056466
 20
-3.999998529356702
 42
-0.267949192430997
 10
-140.0829296056466
 20
-3.749998529356702
 10
-134.9489356056465
 20
-3.749998529356702
 10
-134.9489356056465
 20
-6.749970529356716
 10
-136.2239306056465
 20
-6.749970529356716
 10
-136.2239306056465
 20
-10.7499985293567
 10
-134.9489356056465
 20
-10.7499985293567
 10
-134.9489356056465
 20
-13.7499985293567
 10
-131.7489246056466
 20
-13.7499985293567
 10
-131.7489246056466
 20
-10.7499985293567
 10
-130.4739306056466
 20
-10.7499985293567
 10
-130.4739306056466
 20
-6.749970529356716
 10
-131.7489246056466
 20
-6.749970529356716
 10
-131.7489246056466
 20
-3.749998529356702
 10
-126.6149596056466
 20
-3.750001529356723
 42
-0.2679482664650186
 10
-126.1819476056466
 20
-4.000000529356697
 42
1.303223041599977
 10
-125.4989356056465
 20
-3.316985529356714
 42
-0.2679491924310083
 10
-125.7489356056465
 20
-2.883972529356697
 10
-125.7489386056466
 20
-1.24994652935672
 42
-0.4142135623729951
 10
-125.2489386056466
 20
-0.7499465293567198
 10
-120.2489416056466
 20
-0.7499465293567198
 42
-0.4142135623729951
 10
-119.7489416056466
 20
-1.24994652935672
 10
-119.7489416056466
 20
-2.88397452935672
 42
-0.2679482664649145
 10
-119.9989406056466
 20
-3.316986529356683
 42
1.303223041599967
 10
-119.3159266056465
 20
-3.999998529356702
 42
-0.2679491924310079
 10
-118.8829136056466
 20
-3.749998529356702
 10
-27.8149716056466
 20
-3.750001529356723
 42
-0.2679482664650925
 10
-27.38196060564661
 20
-4.000000529356697
 42
1.303223041599934
 10
-26.69894860564662
 20
-3.316985529356742
 42
-0.2679491924310026
 10
-26.94894860564662
 20
-2.883972529356697
 10
-26.9489516056465
 20
-1.24994652935672
 42
-0.4142135623729951
 10
-26.4489516056465
 20
-0.7499465293567198
 10
-21.44895360564649
 20
-0.7499465293567198
 42
-0.4142135623729951
 10
-20.94895360564649
 20
-1.24994652935672
 10
-20.94895360564649
 20
-2.88397452935672
 42
-0.2679482664649956
 10
-21.1989526056465
 20
-3.31698652935674
 42
1.303223041599971
 10
-20.51593860564657
 20
-3.999998529356702
 42
-0.2679491924310048
 10
-20.08292560564649
 20
-3.749998529356702
 10
-14.94893160564661
 20
-3.749998529356702
 10
-14.94893160564661
 20
-6.749970529356716
 10
-16.2239266056466
 20
-6.749970529356716
 10
-16.2239266056466
 20
-10.7499985293567
 10
-14.94893160564661
 20
-10.7499985293567
 10
-14.94893160564661
 20
-13.7499985293567
 10
-11.74892060564662
 20
-13.7499985293567
 10
-11.74892060564662
 20
-10.7499985293567
 10
-10.4739266056466
 20
-10.7499985293567
 10
-10.4739266056466
 20
-6.749970529356716
 10
-11.74892060564662
 20
-6.749970529356716
 10
-11.74892060564662
 20
-3.749998529356702
 10
-6.6149556056466
 20
-3.750001529356723
 42
-0.2679482664650925
 10
-6.181944605646606
 20
-4.000000529356697
 42
1.303223041600038
 10
-5.498932605646615
 20
-3.316985529356742
 42
-0.2679491924310026
 10
-5.748932605646615
 20
-2.883972529356697
 10
-5.748935605646608
 20
-1.24994652935672
 42
-0.4142135623729951
 10
-5.248935605646608
 20
-0.7499465293567198
 10
-0.2489376056466313
 20
-0.7499465293567198
 42
-0.4142135623729619
 10
0.2510623943533687
 20
-1.24994652935672
 10
0.2510623943533687
 20
-2.88397452935672
 42
-0.2679482664649956
 10
0.00106339435336622
 20
-3.316986529356711
 42
1.303223041600142
 10
0.6840773943532099
 20
-3.999998529356702
 42
-0.2679491924309831
 10
1.117090394353511
 20
-3.749998529356702
 10
132.1850243943534
 20
-3.750001529356723
 42
-0.267948266465008
 10
132.6180363943536
 20
-4.000000529356697
 42
1.303223041600329
 10
133.3010483943534
 20
-3.316985529356714
 42
-0.2679491924310083
 10
133.0510483943534
 20
-2.883972529356697
 10
133.0510453943534
 20
-1.24994652935672
 42
-0.4142135623730284
 10
133.5510453943534
 20
-0.7499465293567198
 10
138.5510423943534
 20
-0.7499465293567198
 42
-0.4142135623730284
 10
139.0510423943534
 20
-1.24994652935672
 10
139.0510423943534
 20
-2.88397452935672
 42
-0.2679482664649956
 10
138.8010433943534
 20
-3.316986529356711
 42
1.303223041600142
 10
139.4840573943532
 20
-3.999998529356702
 42
-0.2679491924309831
 10
139.9170703943535
 20
-3.749998529356702
 10
145.0510643943534
 20
-3.749998529356702
 10
145.0510643943534
 20
-6.749970529356716
 10
143.7760703943534
 20
-6.749970529356716
 10
143.7760703943534
 20
-10.7499985293567
 10
145.0510643943534
 20
-10.7499985293567
 10
145.0510643943534
 20
-13.7499985293567
 10
148.2510753943535
 20
-13.7499985293567
 10
148.2510753943535
 20
-10.7499985293567
 10
149.5260703943534
 20
-10.7499985293567
 10
149.5260703943534
 20
-6.749970529356716
 10
148.2510753943535
 20
-6.749970529356716
 10
148.2510753943535
 20
-3.749998529356702
 10
153.3850403943534
 20
-3.750001529356723
 42
-0.267948266465008
 10
153.8180523943536
 20
-4.000000529356697
 42
1.303223041600329
 10
154.5010643943534
 20
-3.316985529356714
 42
-0.2679491924310083
 10
154.2510643943534
 20
-2.883972529356697
 10
154.2510613943534
 20
-1.24994652935672
 42
-0.4142135623730284
 10
154.7510613943534
 20
-0.7499465293567198
 10
159.7510583943534
 20
-0.7499465293567198
 42
-0.4142135623730284
 10
160.2510583943534
 20
-1.24994652935672
 10
160.2510583943534
 20
-2.88397452935672
 42
-0.2679482664649956
 10
160.0010593943534
 20
-3.316986529356711
 42
1.303223041599954
 10
160.6840743943537
 20
-3.999998529356702
 42
-0.2679491924310134
 10
161.1170873943535
 20
-3.749998529356702
 10
171.6510873943535
 20
-3.749998529356702
 10
171.6510873943535
 20
-14.39999752935671
 10
169.4170403943534
 20
-14.39999752935671
 42
-0.2679491924309829
 10
168.9840273943536
 20
-14.14999752935671
 42
1.303223029819533
 10
168.3010133943535
 20
-14.8330095293567
 42
-0.267948266465011
 10
168.5510123943535
 20
-15.26602152935672
 10
168.5510153943534
 20
-22.7999925293567
 10
165.5510433943534
 20
-22.7999925293567
 10
165.5510433943534
 20
-21.52499752935671
 10
161.5510153943534
 20
-21.52499752935671
 10
161.5510153943534
 20
-22.7999925293567
 10
158.5510153943534
 20
-22.7999925293567
 10
158.5510153943534
 20
-26.00000352935672
 10
161.5510153943534
 20
-26.00000352935672
 10
161.5510153943534
 20
-27.27499752935671
 10
165.5510433943534
 20
-27.27499752935671
 10
165.5510433943534
 20
-26.00000352935672
 10
168.5510153943534
 20
-26.00000352935672
 10
168.5510153943534
 20
-34.77563352935672
 10
158.1799523943535
 20
-37.54065252935672
 10
-163.5384286056466
 20
-131.3293225293567
 42
0.3333698242439958
 10
-163.8984916056466
 20
-131.8093405293567
 10
-163.8984916056466
 20
-133.2499705293567
  0
CIRCLE
  5
14F
100
AcDbEntity
  8
0
  6
ByLayer
 62
    0
370
   -1
100
AcDbCircle
 10
-169.5306876056466
 20
-97.24999852935672
 40
1.6
  0
CIRCLE
  5
150
100
AcDbEntity
  8
0
  6
ByLayer
 62
    0
370
   -1
100
AcDbCircle
 10
-169.5118766056466
 20
-22.7499985293567
 40
1.6
  0
CIRCLE
  5
151
100
AcDbEntity
  8
0
  6
ByLayer
 62
    0
370
   -1
100
AcDbCircle
 10
-121.3148766056466
 20
-16.54999852935671
 40
1.6
  0
CIRCLE
  5
152
100
AcDbEntity
  8
0
  6
ByLayer
 62
    0
370
   -1
100
AcDbCircle
 10
-121.3336876056466
 20
-99.74999852935672
 40
1.6
  0
CIRCLE
  5
153
100
AcDbEntity
  8
0
  6
ByLayer
 62
    0
370
   -1
100
AcDbCircle
 10
-183.3489296056466
 20
59.2499544706433
 40
1.6
  0
CIRCLE
  5
154
100
AcDbEntity
  8
0
  6
ByLayer
 62
    0
370
   -1
100
AcDbCircle
 10
-183.3489296056466
 20
150.2500854706433
 40
1.6
  0
ENDBLK
  5
7C
330
7A
100
AcDbEntity
  8
0
100
AcDbBlockEnd
  0
ENDSEC
  0
SECTION
  2
ENTITIES
  0
INSERT
  5
155
100
AcDbEntity
  8
0
  6
ByLayer
 62
  256
370
   -1
100
AcDbBlockReference
  2
front_frame
 10
545.0201991866525
 20
436.8296223331827
 30
0
 41
1
 42
1
 43
0
 50
0
 70
    1
 71
    1
 44
1
 45
1
  0
INSERT
  5
156
100
AcDbEntity
  8
0
  6
ByLayer
 62
  256
370
   -1
100
AcDbBlockReference
  2
print_bed
 10
531.1867527317387
 20
141.1475212302225
 30
0
 41
1
 42
1
 43
0
 50
0
 70
    1
 71
    1
 44
1
 45
1
  0
INSERT
  5
157
100
AcDbEntity
  8
0
  6
ByLayer
 62
  256
370
   -1
100
AcDbBlockReference
  2
print_bed_adapter
 10
541.7663472512157
 20
201.7388199974497
 30
0
 41
1
 42
1
 43
0
 50
0
 70
    1
 71
    1
 44
1
 45
1
  0
INSERT
  5
158
100
AcDbEntity
  8
0
  6
ByLayer
 62
  256
370
   -1
100
AcDbBlockReference
  2
print_bed_bearing_clamp
 10
561.7449981348343
 20
296.2306802027069
 30
0
 41
1
 42
1
 43
0
 50
0
 70
    1
 71
    1
 44
1
 45
1
  0
INSERT
  5
159
100
AcDbEntity
  8
0
  6
ByLayer
 62
  256
370
   -1
100
AcDbBlockReference
  2
print_bed_bearing_clamp
 10
564.217925605771
 20
197.18342728783
 30
0
 41
1
 42
1
 43
0
 50
0
 70
    1
 71
    1
 44
1
 45
1
  0
INSERT
  5
15A
100
AcDbEntity
  8
0
  6
ByLayer
 62
  256
370
   -1
100
AcDbBlockReference
  2
print_bed_bearing_clamp
 10
662.4842540561417
 20
298.7036076736434
 30
0
 41
1
 42
1
 43
0
 50
0
 70
    1
 71
    1
 44
1
 45
1
  0
INSERT
  5
15B
100
AcDbEntity
  8
0
  6
ByLayer
 62
  256
370
   -1
100
AcDbBlockReference
  2
print_bed_bearing_clamp
 10
661.8334836690532
 20
197.8341976749185
 30
0
 41
1
 42
1
 43
0
 50
0
 70
    1
 71
    1
 44
1
 45
1
  0
INSERT
  5
15C
100
AcDbEntity
  8
0
  6
ByLayer
 62
  256
370
   -1
100
AcDbBlockReference
  2
NEMA17_fixing_plate
 10
376.1452837371806
 20
195.8818865136529
 30
0
 41
1
 42
1
 43
0
 50
0
 70
    1
 71
    1
 44
1
 45
1
  0
INSERT
  5
15D
100
AcDbEntity
  8
0
  6
ByLayer
 62
  256
370
   -1
100
AcDbBlockReference
  2
NEMA17_fixing_plate
 10
376.2629430231663
 20
253.8004509645337
 30
0
 41
1
 42
1
 43
0
 50
0
 70
    1
 71
    1
 44
1
 45
1
  0
INSERT
  5
15E
100
AcDbEntity
  8
0
  6
ByLayer
 62
  256
370
   -1
100
AcDbBlockReference
  2
NEMA17_fixing_plate_support
 10
768.5598271515757
 20
273.9743329642789
 30
0
 41
1
 42
1
 43
0
 50
0
 70
    1
 71
    1
 44
1
 45
1
  0
INSERT
  5
15F
100
AcDbEntity
  8
0
  6
ByLayer
 62
  256
370
   -1
100
AcDbBlockReference
  2
NEMA17_fixing_plate_support
 10
768.6118887825428
 20
169.6167936907593
 30
0
 41
1
 42
1
 43
0
 50
0
 70
    1
 71
    1
 44
1
 45
1
  0
INSERT
  5
160
100
AcDbEntity
  8
0
  6
ByLayer
 62
  256
370
   -1
100
AcDbBlockReference
  2
NEMA17_fixing_plate_support
 10
828.8211649959759
 20
220.3248222526991
 30
0
 41
1
 42
1
 43
0
 50
180
 70
    1
 71
    1
 44
1
 45
1
  0
INSERT
  5
161
100
AcDbEntity
  8
0
  6
ByLayer
 62
  256
370
   -1
100
AcDbBlockReference
  2
NEMA17_fixing_plate_support
 10
828.4046719482392
 20
325.6975633300769
 30
0
 41
1
 42
1
 43
0
 50
180
 70
    1
 71
    1
 44
1
 45
1
  0
INSERT
  5
162
100
AcDbEntity
  8
0
  6
ByLayer
 62
  256
370
   -1
100
AcDbBlockReference
  2
base_frame_reinforcement
 10
595.6664045618263
 20
239.9543348236447
 30
0
 41
1
 42
1
 43
0
 50
0
 70
    1
 71
    1
 44
1
 45
1
  0
INSERT
  5
163
100
AcDbEntity
  8
0
  6
ByLayer
 62
  256
370
   -1
100
AcDbBlockReference
  2
base_frame_reinforcement
 10
749.6874859260092
 20
250.2290230801924
 30
0
 41
1
 42
1
 43
0
 50
180
 70
    1
 71
    1
 44
1
 45
1
  0
INSERT
  5
164
100
AcDbEntity
  8
0
  6
ByLayer
 62
  256
370
   -1
100
AcDbBlockReference
  2
NEMA17_fixing_plate_Y_axis
 10
428.1948364058818
 20
42.86213252867641
 30
0
 41
1
 42
1
 43
0
 50
0
 70
    1
 71
    1
 44
1
 45
1
  0
INSERT
  5
165
100
AcDbEntity
  8
0
  6
ByLayer
 62
  256
370
   -1
100
AcDbBlockReference
  2
NEMA17_fixing_plate_Y_axis
 10
105.2894424678308
 20
443.8149916681982
 30
0
 41
1
 42
1
 43
0
 50
180
 70
    1
 71
    1
 44
1
 45
1
  0
INSERT
  5
166
100
AcDbEntity
  8
0
  6
ByLayer
 62
  256
370
   -1
100
AcDbBlockReference
  2
base_frame_reinforcement
 10
17.08272266107447
 20
225.3292465294108
 30
0
 41
1
 42
1
 43
0
 50
0
 70
    1
 71
    1
 44
1
 45
1
  0
INSERT
  5
167
100
AcDbEntity
  8
0
  6
ByLayer
 62
  256
370
   -1
100
AcDbBlockReference
  2
base_frame_reinforcement
 10
16.77477811390416
 20
348.0931754313434
 30
0
 41
1
 42
1
 43
0
 50
0
 70
    1
 71
    1
 44
1
 45
1
  0
INSERT
  5
168
100
AcDbEntity
  8
0
  6
ByLayer
 62
  256
370
   -1
100
AcDbBlockReference
  2
Z_axis_top
 10
113.2809028212783
 20
426.2546035430012
 30
0
 41
1
 42
1
 43
0
 50
0
 70
    1
 71
    1
 44
1
 45
1
  0
INSERT
  5
169
100
AcDbEntity
  8
0
  6
ByLayer
 62
  256
370
   -1
100
AcDbBlockReference
  2
Z_axis_top
 10
418.2735555157473
 20
58.52247937009925
 30
0
 41
1
 42
1
 43
0
 50
180
 70
    1
 71
    1
 44
1
 45
1
  0
INSERT
  5
16A
100
AcDbEntity
  8
0
  6
ByLayer
 62
  256
370
   -1
100
AcDbBlockReference
  2
Y_axis_base
 10
264.8635475450694
 20
285.0374295448167
 30
0
 41
1
 42
1
 43
0
 50
0
 70
    1
 71
    1
 44
1
 45
1
  0
INSERT
  5
16B
100
AcDbEntity
  8
0
  6
ByLayer
 62
  256
370
   -1
100
AcDbBlockReference
  2
Y_axis_base
 10
264.8635475450694
 20
225.8173243197521
 30
0
 41
1
 42
1
 43
0
 50
0
 70
    1
 71
    1
 44
1
 45
1
  0
INSERT
  5
16C
100
AcDbEntity
  8
0
  6
ByLayer
 62
  256
370
   -1
100
AcDbBlockReference
  2
Y_axis_idler
 10
741.7780630153213
 20
515.5836523403538
 30
0
 41
1
 42
1
 43
0
 50
0
 70
    1
 71
    1
 44
1
 45
1
  0
INSERT
  5
16D
100
AcDbEntity
  8
0
  6
ByLayer
 62
  256
370
   -1
100
AcDbBlockReference
  2
Y_axis_idler
 10
438.3839223257619
 20
274.6313507471158
 30
0
 41
1
 42
1
 43
0
 50
0
 70
    1
 71
    1
 44
1
 45
1
  0
INSERT
  5
16E
100
AcDbEntity
  8
0
  6
ByLayer
 62
  256
370
   -1
100
AcDbBlockReference
  2
spool_holder_bracket
 10
242.4900616369636
 20
408.7749109458492
 30
0
 41
1
 42
1
 43
0
 50
0
 70
    1
 71
    1
 44
1
 45
1
  0
INSERT
  5
16F
100
AcDbEntity
  8
0
  6
ByLayer
 62
  256
370
   -1
100
AcDbBlockReference
  2
spool_holder_bracket
 10
288.2248215544797
 20
75.21718018788077
 30
0
 41
1
 42
1
 43
0
 50
180
 70
    1
 71
    1
 44
1
 45
1
  0
INSERT
  5
170
100
AcDbEntity
  8
0
  6
ByLayer
 62
  256
370
   -1
100
AcDbBlockReference
  2
Z_axis_top_rod_end
 10
311.7190154154519
 20
68.79079634184887
 30
0
 41
1
 42
1
 43
0
 50
0
 70
    1
 71
    1
 44
1
 45
1
  0
INSERT
  5
171
100
AcDbEntity
  8
0
  6
ByLayer
 62
  256
370
   -1
100
AcDbBlockReference
  2
Z_axis_top_rod_end
 10
222.7400023559534
 20
420.1131334876769
 30
0
 41
1
 42
1
 43
0
 50
180
 70
    1
 71
    1
 44
1
 45
1
  0
INSERT
  5
172
100
AcDbEntity
  8
0
  6
ByLayer
 62
  256
370
   -1
100
AcDbBlockReference
  2
Y_axis_rod_end
 10
176.9262466785597
 20
429.9538358511696
 30
0
 41
1
 42
1
 43
0
 50
0
 70
    1
 71
    1
 44
1
 45
1
  0
INSERT
  5
173
100
AcDbEntity
  8
0
  6
ByLayer
 62
  256
370
   -1
100
AcDbBlockReference
  2
Y_axis_rod_end
 10
206.4205829359815
 20
429.9538363769452
 30
0
 41
1
 42
1
 43
0
 50
0
 70
    1
 71
    1
 44
1
 45
1
  0
INSERT
  5
174
100
AcDbEntity
  8
0
  6
ByLayer
 62
  256
370
   -1
100
AcDbBlockReference
  2
Y_axis_rod_end
 10
355.5236668494185
 20
58.94987094075208
 30
0
 41
1
 42
1
 43
0
 50
180
 70
    1
 71
    1
 44
1
 45
1
  0
INSERT
  5
175
100
AcDbEntity
  8
0
  6
ByLayer
 62
  256
370
   -1
100
AcDbBlockReference
  2
Y_axis_rod_end
 10
326.0293305919968
 20
58.94987041497655
 30
0
 41
1
 42
1
 43
0
 50
180
 70
    1
 71
    1
 44
1
 45
1
  0
INSERT
  5
176
100
AcDbEntity
  8
0
  6
ByLayer
 62
  256
370
   -1
100
AcDbBlockReference
  2
right_frame
 10
261.0111951000328
 20
383.3037579952052
 30
0
 41
1
 42
1
 43
0
 50
0
 70
    1
 71
    1
 44
1
 45
1
  0
INSERT
  5
177
100
AcDbEntity
  8
0
  6
ByLayer
 62
  256
370
   -1
100
AcDbBlockReference
  2
left_frame
 10
261.0111951000328
 20
182.6087734737811
 30
0
 41
1
 42
1
 43
0
 50
0
 70
    1
 71
    1
 44
1
 45
1
  0
ENDSEC
  0
SECTION
  2
OBJECTS
  0
DICTIONARY
  5
C
330
0
100
AcDbDictionary
281
    1
  3
ACAD_GROUP
350
D
  0
DICTIONARY
  5
D
330
C
100
AcDbDictionary
281
    1
  0
ENDSEC
  0
EOF
