solid Pomello
facet normal 0.9914448613738105 -0.13052619222005155 -0.0
  outer loop
    vertex 4.4 0.0 0.0
    vertex 4.250073635671901 -1.138803798451091 4.999999999999999
    vertex 4.250073635671901 -1.138803798451091 0.0
  endloop
endfacet
facet normal 0.9914448613738105 -0.13052619222005155 -0.0
  outer loop
    vertex 4.250073635671901 -1.138803798451091 4.999999999999999
    vertex 4.4 0.0 0.0
    vertex 4.4 0.0 4.999999999999999
  endloop
endfacet
facet normal 0.9238795325112867 -0.3826834323650898 -0.0
  outer loop
    vertex 4.250073635671901 -1.138803798451091 0.0
    vertex 3.8105117766515306 -2.1999999999999993 4.999999999999999
    vertex 3.8105117766515306 -2.1999999999999993 0.0
  endloop
endfacet
facet normal 0.9238795325112867 -0.3826834323650898 -0.0
  outer loop
    vertex 3.8105117766515306 -2.1999999999999993 4.999999999999999
    vertex 4.250073635671901 -1.138803798451091 0.0
    vertex 4.250073635671901 -1.138803798451091 4.999999999999999
  endloop
endfacet
facet normal 0.9914448613738105 0.13052619222005168 -0.0
  outer loop
    vertex 4.2500736356719 1.138803798451095 0.0
    vertex 4.4 0.0 4.999999999999999
    vertex 4.4 0.0 0.0
  endloop
endfacet
facet normal 0.9914448613738105 0.13052619222005168 -0.0
  outer loop
    vertex 4.4 0.0 4.999999999999999
    vertex 4.2500736356719 1.138803798451095 0.0
    vertex 4.2500736356719 1.138803798451095 4.999999999999999
  endloop
endfacet
facet normal 0.9238795325112865 0.3826834323650908 -0.0
  outer loop
    vertex 3.8105117766515293 2.2000000000000024 0.0
    vertex 4.2500736356719 1.138803798451095 4.999999999999999
    vertex 4.2500736356719 1.138803798451095 0.0
  endloop
endfacet
facet normal 0.9238795325112865 0.3826834323650908 -0.0
  outer loop
    vertex 4.2500736356719 1.138803798451095 4.999999999999999
    vertex 3.8105117766515293 2.2000000000000024 0.0
    vertex 3.8105117766515293 2.2000000000000024 4.999999999999999
  endloop
endfacet
facet normal 0.7933533402912348 0.6087614290087211 -0.0
  outer loop
    vertex 3.1112698372208087 3.11126983722081 0.0
    vertex 3.8105117766515293 2.2000000000000024 4.999999999999999
    vertex 3.8105117766515293 2.2000000000000024 0.0
  endloop
endfacet
facet normal 0.7933533402912348 0.6087614290087211 -0.0
  outer loop
    vertex 3.8105117766515293 2.2000000000000024 4.999999999999999
    vertex 3.1112698372208087 3.11126983722081 0.0
    vertex 3.1112698372208087 3.11126983722081 4.999999999999999
  endloop
endfacet
facet normal 0.6087614290087199 0.7933533402912357 -0.0
  outer loop
    vertex 2.1999999999999975 3.8105117766515315 4.999999999999999
    vertex 3.1112698372208087 3.11126983722081 0.0
    vertex 2.1999999999999975 3.8105117766515315 0.0
  endloop
endfacet
facet normal 0.6087614290087199 0.7933533402912357 -0.0
  outer loop
    vertex 3.1112698372208087 3.11126983722081 0.0
    vertex 2.1999999999999975 3.8105117766515315 4.999999999999999
    vertex 3.1112698372208087 3.11126983722081 4.999999999999999
  endloop
endfacet
facet normal 0.3826834323650893 0.9238795325112868 -0.0
  outer loop
    vertex 1.1388037984510893 4.250073635671901 4.999999999999999
    vertex 2.1999999999999975 3.8105117766515315 0.0
    vertex 1.1388037984510893 4.250073635671901 0.0
  endloop
endfacet
facet normal 0.3826834323650893 0.9238795325112868 -0.0
  outer loop
    vertex 2.1999999999999975 3.8105117766515315 0.0
    vertex 1.1388037984510893 4.250073635671901 4.999999999999999
    vertex 2.1999999999999975 3.8105117766515315 4.999999999999999
  endloop
endfacet
facet normal -0.0 -0.0 1.0
  outer loop
    vertex -2.1999999999999993 -3.8105117766515306 4.999999999999999
    vertex -2.4 -2.9391523179536476e-16 4.999999999999999
    vertex -3.111269837220809 -3.111269837220809 4.999999999999999
  endloop
endfacet
facet normal -0.0 -0.0 1.0
  outer loop
    vertex -2.4 -2.9391523179536476e-16 4.999999999999999
    vertex -2.1999999999999993 -3.8105117766515306 4.999999999999999
    vertex -2.3182219830937636 -0.6211657082460504 4.999999999999999
  endloop
endfacet
facet normal -0.0 -0.0 1.0
  outer loop
    vertex -2.3182219830937636 -0.6211657082460504 4.999999999999999
    vertex -2.1999999999999993 -3.8105117766515306 4.999999999999999
    vertex -2.078460969082652 -1.2000000000000008 4.999999999999999
  endloop
endfacet
facet normal -0.0 -0.0 1.0
  outer loop
    vertex -2.078460969082652 -1.2000000000000008 4.999999999999999
    vertex -2.1999999999999993 -3.8105117766515306 4.999999999999999
    vertex -1.138803798451091 -4.250073635671901 4.999999999999999
  endloop
endfacet
facet normal -0.0 -0.0 1.0
  outer loop
    vertex -2.078460969082652 -1.2000000000000008 4.999999999999999
    vertex -1.138803798451091 -4.250073635671901 4.999999999999999
    vertex -1.6970562748477136 -1.6970562748477136 4.999999999999999
  endloop
endfacet
facet normal -0.0 -0.0 1.0
  outer loop
    vertex -1.6970562748477136 -1.6970562748477136 4.999999999999999
    vertex -1.138803798451091 -4.250073635671901 4.999999999999999
    vertex -1.1999999999999993 -2.078460969082652 4.999999999999999
  endloop
endfacet
facet normal -0.0 -0.0 1.0
  outer loop
    vertex -1.1999999999999993 -2.078460969082652 4.999999999999999
    vertex -1.138803798451091 -4.250073635671901 4.999999999999999
    vertex -0.6211657082460493 -2.318221983093764 4.999999999999999
  endloop
endfacet
facet normal -0.0 -0.0 1.0
  outer loop
    vertex -0.6211657082460493 -2.318221983093764 4.999999999999999
    vertex -1.138803798451091 -4.250073635671901 4.999999999999999
    vertex 2.6942229581241775e-16 -4.4 4.999999999999999
  endloop
endfacet
facet normal -0.0 -0.0 1.0
  outer loop
    vertex -0.6211657082460493 -2.318221983093764 4.999999999999999
    vertex 2.6942229581241775e-16 -4.4 4.999999999999999
    vertex 1.4695761589768238e-16 -2.4 4.999999999999999
  endloop
endfacet
facet normal -0.0 -0.0 1.0
  outer loop
    vertex 1.4695761589768238e-16 -2.4 4.999999999999999
    vertex 2.6942229581241775e-16 -4.4 4.999999999999999
    vertex 0.6211657082460502 -2.3182219830937636 4.999999999999999
  endloop
endfacet
facet normal -0.0 -0.0 1.0
  outer loop
    vertex 0.6211657082460502 -2.3182219830937636 4.999999999999999
    vertex 2.6942229581241775e-16 -4.4 4.999999999999999
    vertex 1.1388037984510924 -4.2500736356719 4.999999999999999
  endloop
endfacet
facet normal -0.0 -0.0 1.0
  outer loop
    vertex 0.6211657082460502 -2.3182219830937636 4.999999999999999
    vertex 1.1388037984510924 -4.2500736356719 4.999999999999999
    vertex 1.2000000000000002 -2.078460969082652 4.999999999999999
  endloop
endfacet
facet normal -0.0 -0.0 1.0
  outer loop
    vertex 1.2000000000000002 -2.078460969082652 4.999999999999999
    vertex 1.1388037984510924 -4.2500736356719 4.999999999999999
    vertex 2.2000000000000006 -3.8105117766515293 4.999999999999999
  endloop
endfacet
facet normal -0.0 -0.0 1.0
  outer loop
    vertex 1.2000000000000002 -2.078460969082652 4.999999999999999
    vertex 2.2000000000000006 -3.8105117766515293 4.999999999999999
    vertex 1.6970562748477136 -1.6970562748477136 4.999999999999999
  endloop
endfacet
facet normal -0.0 -0.0 1.0
  outer loop
    vertex 1.6970562748477136 -1.6970562748477136 4.999999999999999
    vertex 2.2000000000000006 -3.8105117766515293 4.999999999999999
    vertex 2.078460969082652 -1.1999999999999995 4.999999999999999
  endloop
endfacet
facet normal -0.0 -0.0 1.0
  outer loop
    vertex 2.078460969082652 -1.1999999999999995 4.999999999999999
    vertex 2.2000000000000006 -3.8105117766515293 4.999999999999999
    vertex 2.318221983093764 -0.6211657082460498 4.999999999999999
  endloop
endfacet
facet normal -0.0 -0.0 1.0
  outer loop
    vertex 2.318221983093764 -0.6211657082460498 4.999999999999999
    vertex 2.2000000000000006 -3.8105117766515293 4.999999999999999
    vertex 3.111269837220809 -3.111269837220809 4.999999999999999
  endloop
endfacet
facet normal -0.0 -0.0 1.0
  outer loop
    vertex 2.318221983093764 -0.6211657082460498 4.999999999999999
    vertex 3.111269837220809 -3.111269837220809 4.999999999999999
    vertex 2.4 0.0 4.999999999999999
  endloop
endfacet
facet normal -0.0 -0.0 1.0
  outer loop
    vertex 2.4 0.0 4.999999999999999
    vertex 3.111269837220809 -3.111269837220809 4.999999999999999
    vertex 3.1112698372208087 3.11126983722081 4.999999999999999
  endloop
endfacet
facet normal -0.0 -0.0 1.0
  outer loop
    vertex 3.1112698372208087 3.11126983722081 4.999999999999999
    vertex 3.111269837220809 -3.111269837220809 4.999999999999999
    vertex 3.8105117766515293 2.2000000000000024 4.999999999999999
  endloop
endfacet
facet normal -0.0 -0.0 1.0
  outer loop
    vertex 3.8105117766515293 2.2000000000000024 4.999999999999999
    vertex 3.111269837220809 -3.111269837220809 4.999999999999999
    vertex 3.8105117766515306 -2.1999999999999993 4.999999999999999
  endloop
endfacet
facet normal -0.0 -0.0 1.0
  outer loop
    vertex 3.8105117766515293 2.2000000000000024 4.999999999999999
    vertex 3.8105117766515306 -2.1999999999999993 4.999999999999999
    vertex 4.2500736356719 1.138803798451095 4.999999999999999
  endloop
endfacet
facet normal -0.0 -0.0 1.0
  outer loop
    vertex 4.2500736356719 1.138803798451095 4.999999999999999
    vertex 3.8105117766515306 -2.1999999999999993 4.999999999999999
    vertex 4.250073635671901 -1.138803798451091 4.999999999999999
  endloop
endfacet
facet normal -0.0 -0.0 1.0
  outer loop
    vertex 4.2500736356719 1.138803798451095 4.999999999999999
    vertex 4.250073635671901 -1.138803798451091 4.999999999999999
    vertex 4.4 0.0 4.999999999999999
  endloop
endfacet
facet normal -0.0 -0.0 1.0
  outer loop
    vertex -4.2500736356719 -1.1388037984510926 4.999999999999999
    vertex -4.250073635671901 1.1388037984510895 4.999999999999999
    vertex -4.4 -5.388445916248355e-16 4.999999999999999
  endloop
endfacet
facet normal -0.0 -0.0 1.0
  outer loop
    vertex -4.250073635671901 1.1388037984510895 4.999999999999999
    vertex -4.2500736356719 -1.1388037984510926 4.999999999999999
    vertex -3.8105117766515315 2.1999999999999993 4.999999999999999
  endloop
endfacet
facet normal -0.0 -0.0 1.0
  outer loop
    vertex -3.8105117766515315 2.1999999999999993 4.999999999999999
    vertex -4.2500736356719 -1.1388037984510926 4.999999999999999
    vertex -3.8105117766515293 -2.200000000000001 4.999999999999999
  endloop
endfacet
facet normal -0.0 -0.0 1.0
  outer loop
    vertex -3.8105117766515315 2.1999999999999993 4.999999999999999
    vertex -3.8105117766515293 -2.200000000000001 4.999999999999999
    vertex -3.1112698372208105 3.1112698372208074 4.999999999999999
  endloop
endfacet
facet normal -0.0 -0.0 1.0
  outer loop
    vertex -3.1112698372208105 3.1112698372208074 4.999999999999999
    vertex -3.8105117766515293 -2.200000000000001 4.999999999999999
    vertex -3.111269837220809 -3.111269837220809 4.999999999999999
  endloop
endfacet
facet normal -0.0 -0.0 1.0
  outer loop
    vertex -3.1112698372208105 3.1112698372208074 4.999999999999999
    vertex -3.111269837220809 -3.111269837220809 4.999999999999999
    vertex -2.2000000000000024 3.8105117766515293 4.999999999999999
  endloop
endfacet
facet normal -0.0 -0.0 1.0
  outer loop
    vertex -2.2000000000000024 3.8105117766515293 4.999999999999999
    vertex -3.111269837220809 -3.111269837220809 4.999999999999999
    vertex -2.4 -2.9391523179536476e-16 4.999999999999999
  endloop
endfacet
facet normal -0.0 -0.0 1.0
  outer loop
    vertex -2.2000000000000024 3.8105117766515293 4.999999999999999
    vertex -2.4 -2.9391523179536476e-16 4.999999999999999
    vertex -2.318221983093764 0.6211657082460488 4.999999999999999
  endloop
endfacet
facet normal -0.0 -0.0 1.0
  outer loop
    vertex -2.2000000000000024 3.8105117766515293 4.999999999999999
    vertex -2.318221983093764 0.6211657082460488 4.999999999999999
    vertex -2.0784609690826525 1.1999999999999993 4.999999999999999
  endloop
endfacet
facet normal -0.0 -0.0 1.0
  outer loop
    vertex -2.2000000000000024 3.8105117766515293 4.999999999999999
    vertex -2.0784609690826525 1.1999999999999993 4.999999999999999
    vertex -1.1388037984510946 4.2500736356719 4.999999999999999
  endloop
endfacet
facet normal -0.0 -0.0 1.0
  outer loop
    vertex -1.1388037984510946 4.2500736356719 4.999999999999999
    vertex -2.0784609690826525 1.1999999999999993 4.999999999999999
    vertex -1.697056274847715 1.697056274847713 4.999999999999999
  endloop
endfacet
facet normal -0.0 -0.0 1.0
  outer loop
    vertex -1.1388037984510946 4.2500736356719 4.999999999999999
    vertex -1.697056274847715 1.697056274847713 4.999999999999999
    vertex -1.200000000000001 2.078460969082652 4.999999999999999
  endloop
endfacet
facet normal -0.0 -0.0 1.0
  outer loop
    vertex -1.1388037984510946 4.2500736356719 4.999999999999999
    vertex -1.200000000000001 2.078460969082652 4.999999999999999
    vertex -0.6211657082460514 2.3182219830937627 4.999999999999999
  endloop
endfacet
facet normal -0.0 -0.0 1.0
  outer loop
    vertex -1.1388037984510946 4.2500736356719 4.999999999999999
    vertex -0.6211657082460514 2.3182219830937627 4.999999999999999
    vertex -8.08266887437253e-16 4.4 4.999999999999999
  endloop
endfacet
facet normal -0.0 -0.0 1.0
  outer loop
    vertex -8.08266887437253e-16 4.4 4.999999999999999
    vertex -0.6211657082460514 2.3182219830937627 4.999999999999999
    vertex -4.4087284769304707e-16 2.4 4.999999999999999
  endloop
endfacet
facet normal -0.0 -0.0 1.0
  outer loop
    vertex -8.08266887437253e-16 4.4 4.999999999999999
    vertex -4.4087284769304707e-16 2.4 4.999999999999999
    vertex 1.1388037984510893 4.250073635671901 4.999999999999999
  endloop
endfacet
facet normal -0.0 -0.0 1.0
  outer loop
    vertex 1.1388037984510893 4.250073635671901 4.999999999999999
    vertex -4.4087284769304707e-16 2.4 4.999999999999999
    vertex 0.6211657082460486 2.318221983093764 4.999999999999999
  endloop
endfacet
facet normal -0.0 -0.0 1.0
  outer loop
    vertex 1.1388037984510893 4.250073635671901 4.999999999999999
    vertex 0.6211657082460486 2.318221983093764 4.999999999999999
    vertex 1.1999999999999984 2.078460969082654 4.999999999999999
  endloop
endfacet
facet normal -0.0 -0.0 1.0
  outer loop
    vertex 1.1388037984510893 4.250073635671901 4.999999999999999
    vertex 1.1999999999999984 2.078460969082654 4.999999999999999
    vertex 2.1999999999999975 3.8105117766515315 4.999999999999999
  endloop
endfacet
facet normal -0.0 -0.0 1.0
  outer loop
    vertex 2.1999999999999975 3.8105117766515315 4.999999999999999
    vertex 1.1999999999999984 2.078460969082654 4.999999999999999
    vertex 1.6970562748477136 1.6970562748477143 4.999999999999999
  endloop
endfacet
facet normal -0.0 -0.0 1.0
  outer loop
    vertex 2.1999999999999975 3.8105117766515315 4.999999999999999
    vertex 1.6970562748477136 1.6970562748477143 4.999999999999999
    vertex 2.078460969082652 1.200000000000001 4.999999999999999
  endloop
endfacet
facet normal -0.0 -0.0 1.0
  outer loop
    vertex 2.1999999999999975 3.8105117766515315 4.999999999999999
    vertex 2.078460969082652 1.200000000000001 4.999999999999999
    vertex 2.3182219830937627 0.6211657082460518 4.999999999999999
  endloop
endfacet
facet normal -0.0 -0.0 1.0
  outer loop
    vertex 2.1999999999999975 3.8105117766515315 4.999999999999999
    vertex 2.3182219830937627 0.6211657082460518 4.999999999999999
    vertex 3.1112698372208087 3.11126983722081 4.999999999999999
  endloop
endfacet
facet normal -0.0 -0.0 1.0
  outer loop
    vertex 3.1112698372208087 3.11126983722081 4.999999999999999
    vertex 2.3182219830937627 0.6211657082460518 4.999999999999999
    vertex 2.4 0.0 4.999999999999999
  endloop
endfacet
facet normal -0.9914448613738105 -0.13052619222005207 0.0
  outer loop
    vertex -4.4 -5.388445916248355e-16 4.999999999999999
    vertex -4.2500736356719 -1.1388037984510926 0.0
    vertex -4.2500736356719 -1.1388037984510926 4.999999999999999
  endloop
endfacet
facet normal -0.9914448613738105 -0.13052619222005207 0.0
  outer loop
    vertex -4.2500736356719 -1.1388037984510926 0.0
    vertex -4.4 -5.388445916248355e-16 4.999999999999999
    vertex -4.4 -5.388445916248355e-16 0.0
  endloop
endfacet
facet normal -0.9238795325112873 0.3826834323650889 0.0
  outer loop
    vertex -3.8105117766515315 2.1999999999999993 4.999999999999999
    vertex -4.250073635671901 1.1388037984510895 0.0
    vertex -4.250073635671901 1.1388037984510895 4.999999999999999
  endloop
endfacet
facet normal -0.9238795325112873 0.3826834323650889 0.0
  outer loop
    vertex -4.250073635671901 1.1388037984510895 0.0
    vertex -3.8105117766515315 2.1999999999999993 4.999999999999999
    vertex -3.8105117766515315 2.1999999999999993 0.0
  endloop
endfacet
facet normal 0.6087614290087203 -0.7933533402912356 0.0
  outer loop
    vertex 3.111269837220809 -3.111269837220809 4.999999999999999
    vertex 2.2000000000000006 -3.8105117766515293 0.0
    vertex 3.111269837220809 -3.111269837220809 0.0
  endloop
endfacet
facet normal 0.6087614290087203 -0.7933533402912356 0.0
  outer loop
    vertex 2.2000000000000006 -3.8105117766515293 0.0
    vertex 3.111269837220809 -3.111269837220809 4.999999999999999
    vertex 2.2000000000000006 -3.8105117766515293 4.999999999999999
  endloop
endfacet
facet normal -0.6087614290087214 0.7933533402912345 -0.0
  outer loop
    vertex -3.1112698372208105 3.1112698372208074 4.999999999999999
    vertex -2.2000000000000024 3.8105117766515293 0.0
    vertex -3.1112698372208105 3.1112698372208074 0.0
  endloop
endfacet
facet normal -0.6087614290087214 0.7933533402912345 -0.0
  outer loop
    vertex -2.2000000000000024 3.8105117766515293 0.0
    vertex -3.1112698372208105 3.1112698372208074 4.999999999999999
    vertex -2.2000000000000024 3.8105117766515293 4.999999999999999
  endloop
endfacet
facet normal -0.6087614290087205 -0.7933533402912352 0.0
  outer loop
    vertex -2.1999999999999993 -3.8105117766515306 4.999999999999999
    vertex -3.111269837220809 -3.111269837220809 0.0
    vertex -2.1999999999999993 -3.8105117766515306 0.0
  endloop
endfacet
facet normal -0.6087614290087205 -0.7933533402912352 0.0
  outer loop
    vertex -3.111269837220809 -3.111269837220809 0.0
    vertex -2.1999999999999993 -3.8105117766515306 4.999999999999999
    vertex -3.111269837220809 -3.111269837220809 4.999999999999999
  endloop
endfacet
facet normal -0.3826834323650905 0.9238795325112865 -0.0
  outer loop
    vertex -2.2000000000000024 3.8105117766515293 4.999999999999999
    vertex -1.1388037984510946 4.2500736356719 0.0
    vertex -2.2000000000000024 3.8105117766515293 0.0
  endloop
endfacet
facet normal -0.3826834323650905 0.9238795325112865 -0.0
  outer loop
    vertex -1.1388037984510946 4.2500736356719 0.0
    vertex -2.2000000000000024 3.8105117766515293 4.999999999999999
    vertex -1.1388037984510946 4.2500736356719 4.999999999999999
  endloop
endfacet
facet normal 0.7933533402912353 -0.6087614290087205 -0.0
  outer loop
    vertex 3.8105117766515306 -2.1999999999999993 0.0
    vertex 3.111269837220809 -3.111269837220809 4.999999999999999
    vertex 3.111269837220809 -3.111269837220809 0.0
  endloop
endfacet
facet normal 0.7933533402912353 -0.6087614290087205 -0.0
  outer loop
    vertex 3.111269837220809 -3.111269837220809 4.999999999999999
    vertex 3.8105117766515306 -2.1999999999999993 0.0
    vertex 3.8105117766515306 -2.1999999999999993 4.999999999999999
  endloop
endfacet
facet normal -0.3826834323650898 -0.9238795325112867 0.0
  outer loop
    vertex -1.138803798451091 -4.250073635671901 4.999999999999999
    vertex -2.1999999999999993 -3.8105117766515306 0.0
    vertex -1.138803798451091 -4.250073635671901 0.0
  endloop
endfacet
facet normal -0.3826834323650898 -0.9238795325112867 0.0
  outer loop
    vertex -2.1999999999999993 -3.8105117766515306 0.0
    vertex -1.138803798451091 -4.250073635671901 4.999999999999999
    vertex -2.1999999999999993 -3.8105117766515306 4.999999999999999
  endloop
endfacet
facet normal -0.9914448613738105 0.13052619222005166 0.0
  outer loop
    vertex -4.250073635671901 1.1388037984510895 4.999999999999999
    vertex -4.4 -5.388445916248355e-16 0.0
    vertex -4.4 -5.388445916248355e-16 4.999999999999999
  endloop
endfacet
facet normal -0.9914448613738105 0.13052619222005166 0.0
  outer loop
    vertex -4.4 -5.388445916248355e-16 0.0
    vertex -4.250073635671901 1.1388037984510895 4.999999999999999
    vertex -4.250073635671901 1.1388037984510895 0.0
  endloop
endfacet
facet normal 0.3826834323650904 -0.9238795325112865 0.0
  outer loop
    vertex 2.2000000000000006 -3.8105117766515293 4.999999999999999
    vertex 1.1388037984510924 -4.2500736356719 0.0
    vertex 2.2000000000000006 -3.8105117766515293 0.0
  endloop
endfacet
facet normal 0.3826834323650904 -0.9238795325112865 0.0
  outer loop
    vertex 1.1388037984510924 -4.2500736356719 0.0
    vertex 2.2000000000000006 -3.8105117766515293 4.999999999999999
    vertex 1.1388037984510924 -4.2500736356719 4.999999999999999
  endloop
endfacet
facet normal -0.13052619222005182 0.9914448613738105 -0.0
  outer loop
    vertex -1.1388037984510946 4.2500736356719 4.999999999999999
    vertex -8.08266887437253e-16 4.4 0.0
    vertex -1.1388037984510946 4.2500736356719 0.0
  endloop
endfacet
facet normal -0.13052619222005182 0.9914448613738105 -0.0
  outer loop
    vertex -8.08266887437253e-16 4.4 0.0
    vertex -1.1388037984510946 4.2500736356719 4.999999999999999
    vertex -8.08266887437253e-16 4.4 4.999999999999999
  endloop
endfacet
facet normal -0.9238795325112867 -0.3826834323650902 0.0
  outer loop
    vertex -4.2500736356719 -1.1388037984510926 4.999999999999999
    vertex -3.8105117766515293 -2.200000000000001 0.0
    vertex -3.8105117766515293 -2.200000000000001 4.999999999999999
  endloop
endfacet
facet normal -0.9238795325112867 -0.3826834323650902 0.0
  outer loop
    vertex -3.8105117766515293 -2.200000000000001 0.0
    vertex -4.2500736356719 -1.1388037984510926 4.999999999999999
    vertex -4.2500736356719 -1.1388037984510926 0.0
  endloop
endfacet
facet normal -0.13052619222005152 -0.9914448613738105 0.0
  outer loop
    vertex 2.6942229581241775e-16 -4.4 4.999999999999999
    vertex -1.138803798451091 -4.250073635671901 0.0
    vertex 2.6942229581241775e-16 -4.4 0.0
  endloop
endfacet
facet normal -0.13052619222005152 -0.9914448613738105 0.0
  outer loop
    vertex -1.138803798451091 -4.250073635671901 0.0
    vertex 2.6942229581241775e-16 -4.4 4.999999999999999
    vertex -1.138803798451091 -4.250073635671901 4.999999999999999
  endloop
endfacet
facet normal -0.7933533402912349 0.608761429008721 0.0
  outer loop
    vertex -3.1112698372208105 3.1112698372208074 4.999999999999999
    vertex -3.8105117766515315 2.1999999999999993 0.0
    vertex -3.8105117766515315 2.1999999999999993 4.999999999999999
  endloop
endfacet
facet normal -0.7933533402912349 0.608761429008721 0.0
  outer loop
    vertex -3.8105117766515315 2.1999999999999993 0.0
    vertex -3.1112698372208105 3.1112698372208074 4.999999999999999
    vertex -3.1112698372208105 3.1112698372208074 0.0
  endloop
endfacet
facet normal 0.13052619222005166 0.9914448613738105 -0.0
  outer loop
    vertex -8.08266887437253e-16 4.4 4.999999999999999
    vertex 1.1388037984510893 4.250073635671901 0.0
    vertex -8.08266887437253e-16 4.4 0.0
  endloop
endfacet
facet normal 0.13052619222005166 0.9914448613738105 -0.0
  outer loop
    vertex 1.1388037984510893 4.250073635671901 0.0
    vertex -8.08266887437253e-16 4.4 4.999999999999999
    vertex 1.1388037984510893 4.250073635671901 4.999999999999999
  endloop
endfacet
facet normal -0.7933533402912352 -0.6087614290087207 0.0
  outer loop
    vertex -3.8105117766515293 -2.200000000000001 4.999999999999999
    vertex -3.111269837220809 -3.111269837220809 0.0
    vertex -3.111269837220809 -3.111269837220809 4.999999999999999
  endloop
endfacet
facet normal -0.7933533402912352 -0.6087614290087207 0.0
  outer loop
    vertex -3.111269837220809 -3.111269837220809 0.0
    vertex -3.8105117766515293 -2.200000000000001 4.999999999999999
    vertex -3.8105117766515293 -2.200000000000001 0.0
  endloop
endfacet
facet normal 0.13052619222005202 -0.9914448613738105 0.0
  outer loop
    vertex 1.1388037984510924 -4.2500736356719 4.999999999999999
    vertex 2.6942229581241775e-16 -4.4 0.0
    vertex 1.1388037984510924 -4.2500736356719 0.0
  endloop
endfacet
facet normal 0.13052619222005202 -0.9914448613738105 0.0
  outer loop
    vertex 2.6942229581241775e-16 -4.4 0.0
    vertex 1.1388037984510924 -4.2500736356719 4.999999999999999
    vertex 2.6942229581241775e-16 -4.4 4.999999999999999
  endloop
endfacet
facet normal 0.0 0.0 -1.0
  outer loop
    vertex -3.8660254037844366 5.696152422706632 -7.999999999999998
    vertex -6.866025403784438 -0.499999999999999 -7.999999999999998
    vertex -6.866025403784438 0.500000000000001 -7.999999999999998
  endloop
endfacet
facet normal 0.0 0.0 -1.0
  outer loop
    vertex -6.866025403784438 -0.499999999999999 -7.999999999999998
    vertex -3.8660254037844366 5.696152422706632 -7.999999999999998
    vertex -3.8660254037844415 -5.69615242270663 -7.999999999999998
  endloop
endfacet
facet normal 0.0 0.0 -1.0
  outer loop
    vertex -3.8660254037844415 -5.69615242270663 -7.999999999999998
    vertex -3.8660254037844366 5.696152422706632 -7.999999999999998
    vertex -3.000000000000003 -6.19615242270663 -7.999999999999998
  endloop
endfacet
facet normal 0.0 0.0 -1.0
  outer loop
    vertex -3.000000000000003 -6.19615242270663 -7.999999999999998
    vertex -3.8660254037844366 5.696152422706632 -7.999999999999998
    vertex -2.9999999999999982 6.196152422706632 -7.999999999999998
  endloop
endfacet
facet normal 0.0 0.0 -1.0
  outer loop
    vertex -3.000000000000003 -6.19615242270663 -7.999999999999998
    vertex -2.9999999999999982 6.196152422706632 -7.999999999999998
    vertex 2.999999999999995 -6.196152422706635 -7.999999999999998
  endloop
endfacet
facet normal 0.0 0.0 -1.0
  outer loop
    vertex 2.999999999999995 -6.196152422706635 -7.999999999999998
    vertex -2.9999999999999982 6.196152422706632 -7.999999999999998
    vertex 3.0 6.19615242270663 -7.999999999999998
  endloop
endfacet
facet normal 0.0 0.0 -1.0
  outer loop
    vertex 2.999999999999995 -6.196152422706635 -7.999999999999998
    vertex 3.0 6.19615242270663 -7.999999999999998
    vertex 3.8660254037844344 -5.696152422706635 -7.999999999999998
  endloop
endfacet
facet normal 0.0 0.0 -1.0
  outer loop
    vertex 3.8660254037844344 -5.696152422706635 -7.999999999999998
    vertex 3.0 6.19615242270663 -7.999999999999998
    vertex 3.866025403784439 5.69615242270663 -7.999999999999998
  endloop
endfacet
facet normal 0.0 0.0 -1.0
  outer loop
    vertex 3.8660254037844344 -5.696152422706635 -7.999999999999998
    vertex 3.866025403784439 5.69615242270663 -7.999999999999998
    vertex 6.866025403784438 -0.5000000000000003 -7.999999999999998
  endloop
endfacet
facet normal 0.0 0.0 -1.0
  outer loop
    vertex 6.866025403784438 -0.5000000000000003 -7.999999999999998
    vertex 3.866025403784439 5.69615242270663 -7.999999999999998
    vertex 6.866025403784438 0.49999999999999994 -7.999999999999998
  endloop
endfacet
facet normal 0.8660254037844385 -0.5000000000000003 -0.0
  outer loop
    vertex 6.866025403784438 -0.5000000000000003 -7.999999999999998
    vertex 3.8660254037844344 -5.696152422706635 5.971444382678417e-18
    vertex 3.8660254037844344 -5.696152422706635 -7.999999999999998
  endloop
endfacet
facet normal 0.8660254037844385 -0.5000000000000003 -0.0
  outer loop
    vertex 3.8660254037844344 -5.696152422706635 5.971444382678417e-18
    vertex 6.866025403784438 -0.5000000000000003 -7.999999999999998
    vertex 6.866025403784438 -0.5000000000000003 5.971444382678417e-18
  endloop
endfacet
facet normal 0.8660254037844387 0.5000000000000001 -0.0
  outer loop
    vertex 3.866025403784439 5.69615242270663 -7.999999999999998
    vertex 6.866025403784438 0.49999999999999994 -2.008084119502368e-17
    vertex 6.866025403784438 0.49999999999999994 -7.999999999999998
  endloop
endfacet
facet normal 0.8660254037844387 0.5000000000000001 -0.0
  outer loop
    vertex 6.866025403784438 0.49999999999999994 -2.008084119502368e-17
    vertex 3.866025403784439 5.69615242270663 -7.999999999999998
    vertex 3.866025403784439 5.69615242270663 -2.008084119502368e-17
  endloop
endfacet
facet normal -7.049916206369746e-16 -1.0 0.0
  outer loop
    vertex 2.999999999999995 -6.196152422706635 -2.755887535609283e-32
    vertex -3.000000000000003 -6.19615242270663 -7.999999999999998
    vertex 2.999999999999995 -6.196152422706635 -7.999999999999998
  endloop
endfacet
facet normal -7.049916206369746e-16 -1.0 0.0
  outer loop
    vertex -3.000000000000003 -6.19615242270663 -7.999999999999998
    vertex 2.999999999999995 -6.196152422706635 -2.755887535609283e-32
    vertex -3.000000000000003 -6.19615242270663 -2.755887535609283e-32
  endloop
endfacet
facet normal -0.8660254037844388 -0.4999999999999996 0.0
  outer loop
    vertex -6.866025403784438 -0.499999999999999 -1.7914333148035275e-17
    vertex -3.8660254037844415 -5.69615242270663 -7.999999999999998
    vertex -3.8660254037844415 -5.69615242270663 -1.7914333148035275e-17
  endloop
endfacet
facet normal -0.8660254037844388 -0.4999999999999996 0.0
  outer loop
    vertex -3.8660254037844415 -5.69615242270663 -7.999999999999998
    vertex -6.866025403784438 -0.499999999999999 -1.7914333148035275e-17
    vertex -6.866025403784438 -0.499999999999999 -7.999999999999998
  endloop
endfacet
facet normal -0.8660254037844385 0.5000000000000002 0.0
  outer loop
    vertex -3.8660254037844366 5.696152422706632 1.7914333148035278e-17
    vertex -6.866025403784438 0.500000000000001 -7.999999999999998
    vertex -6.866025403784438 0.500000000000001 1.7914333148035278e-17
  endloop
endfacet
facet normal -0.8660254037844385 0.5000000000000002 0.0
  outer loop
    vertex -6.866025403784438 0.500000000000001 -7.999999999999998
    vertex -3.8660254037844366 5.696152422706632 1.7914333148035278e-17
    vertex -3.8660254037844366 5.696152422706632 -7.999999999999998
  endloop
endfacet
facet normal 2.349972068789915e-16 1.0 -0.0
  outer loop
    vertex -2.9999999999999982 6.196152422706632 1.1482864731705351e-33
    vertex 3.0 6.19615242270663 -7.999999999999998
    vertex -2.9999999999999982 6.196152422706632 -7.999999999999998
  endloop
endfacet
facet normal 2.349972068789915e-16 1.0 -0.0
  outer loop
    vertex 3.0 6.19615242270663 -7.999999999999998
    vertex -2.9999999999999982 6.196152422706632 1.1482864731705351e-33
    vertex 3.0 6.19615242270663 1.1482864731705351e-33
  endloop
endfacet
facet normal 1.0 -0.0 -0.0
  outer loop
    vertex 6.866025403784438 0.49999999999999994 -7.999999999999998
    vertex 6.866025403784438 -0.5000000000000003 5.971444382678417e-18
    vertex 6.866025403784438 -0.5000000000000003 -7.999999999999998
  endloop
endfacet
facet normal 1.0 -0.0 -0.0
  outer loop
    vertex 6.866025403784438 -0.5000000000000003 5.971444382678417e-18
    vertex 6.866025403784438 0.49999999999999994 -7.999999999999998
    vertex 6.866025403784438 0.49999999999999994 -2.008084119502368e-17
  endloop
endfacet
facet normal 0.4999999999999996 -0.866025403784439 0.0
  outer loop
    vertex 3.8660254037844344 -5.696152422706635 5.971444382678417e-18
    vertex 2.999999999999995 -6.196152422706635 -7.999999999999998
    vertex 3.8660254037844344 -5.696152422706635 -7.999999999999998
  endloop
endfacet
facet normal 0.4999999999999996 -0.866025403784439 0.0
  outer loop
    vertex 2.999999999999995 -6.196152422706635 -7.999999999999998
    vertex 3.8660254037844344 -5.696152422706635 5.971444382678417e-18
    vertex 2.999999999999995 -6.196152422706635 -2.755887535609283e-32
  endloop
endfacet
facet normal -0.5000000000000001 -0.8660254037844387 0.0
  outer loop
    vertex -3.000000000000003 -6.19615242270663 -2.755887535609283e-32
    vertex -3.8660254037844415 -5.69615242270663 -7.999999999999998
    vertex -3.000000000000003 -6.19615242270663 -7.999999999999998
  endloop
endfacet
facet normal -0.5000000000000001 -0.8660254037844387 0.0
  outer loop
    vertex -3.8660254037844415 -5.69615242270663 -7.999999999999998
    vertex -3.000000000000003 -6.19615242270663 -2.755887535609283e-32
    vertex -3.8660254037844415 -5.69615242270663 -1.7914333148035275e-17
  endloop
endfacet
facet normal -1.0 0.0 0.0
  outer loop
    vertex -6.866025403784438 0.500000000000001 1.7914333148035278e-17
    vertex -6.866025403784438 -0.499999999999999 -7.999999999999998
    vertex -6.866025403784438 -0.499999999999999 -1.7914333148035275e-17
  endloop
endfacet
facet normal -1.0 0.0 0.0
  outer loop
    vertex -6.866025403784438 -0.499999999999999 -7.999999999999998
    vertex -6.866025403784438 0.500000000000001 1.7914333148035278e-17
    vertex -6.866025403784438 0.500000000000001 -7.999999999999998
  endloop
endfacet
facet normal -0.49999999999999983 0.8660254037844387 -0.0
  outer loop
    vertex -3.8660254037844366 5.696152422706632 1.7914333148035278e-17
    vertex -2.9999999999999982 6.196152422706632 -7.999999999999998
    vertex -3.8660254037844366 5.696152422706632 -7.999999999999998
  endloop
endfacet
facet normal -0.49999999999999983 0.8660254037844387 -0.0
  outer loop
    vertex -2.9999999999999982 6.196152422706632 -7.999999999999998
    vertex -3.8660254037844366 5.696152422706632 1.7914333148035278e-17
    vertex -2.9999999999999982 6.196152422706632 1.1482864731705351e-33
  endloop
endfacet
facet normal 5.325152959893613e-19 -2.130301718496679e-19 1.0
  outer loop
    vertex -3.8660254037844415 -5.69615242270663 -1.7914333148035275e-17
    vertex -6.866025403784438 0.500000000000001 1.7914333148035278e-17
    vertex -6.866025403784438 -0.499999999999999 -1.7914333148035275e-17
  endloop
endfacet
facet normal 5.325152959893613e-19 -2.130301718496679e-19 1.0
  outer loop
    vertex -6.866025403784438 0.500000000000001 1.7914333148035278e-17
    vertex -3.8660254037844415 -5.69615242270663 -1.7914333148035275e-17
    vertex -4.4 -5.388445916248355e-16 0.0
  endloop
endfacet
facet normal 5.325152959893613e-19 -2.130301718496679e-19 1.0
  outer loop
    vertex -4.4 -5.388445916248355e-16 0.0
    vertex -3.8660254037844415 -5.69615242270663 -1.7914333148035275e-17
    vertex -4.2500736356719 -1.1388037984510926 0.0
  endloop
endfacet
facet normal 5.325152959893613e-19 -2.130301718496679e-19 1.0
  outer loop
    vertex -4.2500736356719 -1.1388037984510926 0.0
    vertex -3.8660254037844415 -5.69615242270663 -1.7914333148035275e-17
    vertex -3.8105117766515293 -2.200000000000001 0.0
  endloop
endfacet
facet normal 5.325152959893613e-19 -2.130301718496679e-19 1.0
  outer loop
    vertex -3.8105117766515293 -2.200000000000001 0.0
    vertex -3.8660254037844415 -5.69615242270663 -1.7914333148035275e-17
    vertex -3.000000000000003 -6.19615242270663 -2.755887535609283e-32
  endloop
endfacet
facet normal 5.325152959893613e-19 -2.130301718496679e-19 1.0
  outer loop
    vertex -3.8105117766515293 -2.200000000000001 0.0
    vertex -3.000000000000003 -6.19615242270663 -2.755887535609283e-32
    vertex -3.111269837220809 -3.111269837220809 0.0
  endloop
endfacet
facet normal 5.325152959893613e-19 -2.130301718496679e-19 1.0
  outer loop
    vertex -3.111269837220809 -3.111269837220809 0.0
    vertex -3.000000000000003 -6.19615242270663 -2.755887535609283e-32
    vertex -2.1999999999999993 -3.8105117766515306 0.0
  endloop
endfacet
facet normal 5.325152959893613e-19 -2.130301718496679e-19 1.0
  outer loop
    vertex -2.1999999999999993 -3.8105117766515306 0.0
    vertex -3.000000000000003 -6.19615242270663 -2.755887535609283e-32
    vertex 2.999999999999995 -6.196152422706635 -2.755887535609283e-32
  endloop
endfacet
facet normal 5.325152959893613e-19 -2.130301718496679e-19 1.0
  outer loop
    vertex -2.1999999999999993 -3.8105117766515306 0.0
    vertex 2.999999999999995 -6.196152422706635 -2.755887535609283e-32
    vertex -1.138803798451091 -4.250073635671901 0.0
  endloop
endfacet
facet normal 5.325152959893613e-19 -2.130301718496679e-19 1.0
  outer loop
    vertex -1.138803798451091 -4.250073635671901 0.0
    vertex 2.999999999999995 -6.196152422706635 -2.755887535609283e-32
    vertex 2.6942229581241775e-16 -4.4 0.0
  endloop
endfacet
facet normal 5.325152959893613e-19 -2.130301718496679e-19 1.0
  outer loop
    vertex 2.6942229581241775e-16 -4.4 0.0
    vertex 2.999999999999995 -6.196152422706635 -2.755887535609283e-32
    vertex 1.1388037984510924 -4.2500736356719 0.0
  endloop
endfacet
facet normal 5.325152959893613e-19 -2.130301718496679e-19 1.0
  outer loop
    vertex 1.1388037984510924 -4.2500736356719 0.0
    vertex 2.999999999999995 -6.196152422706635 -2.755887535609283e-32
    vertex 2.2000000000000006 -3.8105117766515293 0.0
  endloop
endfacet
facet normal 5.325152959893613e-19 -2.130301718496679e-19 1.0
  outer loop
    vertex 2.2000000000000006 -3.8105117766515293 0.0
    vertex 2.999999999999995 -6.196152422706635 -2.755887535609283e-32
    vertex 3.111269837220809 -3.111269837220809 0.0
  endloop
endfacet
facet normal 5.325152959893613e-19 -2.130301718496679e-19 1.0
  outer loop
    vertex 3.111269837220809 -3.111269837220809 0.0
    vertex 2.999999999999995 -6.196152422706635 -2.755887535609283e-32
    vertex 3.8660254037844344 -5.696152422706635 5.971444382678417e-18
  endloop
endfacet
facet normal 5.325152959893613e-19 -2.130301718496679e-19 1.0
  outer loop
    vertex 3.111269837220809 -3.111269837220809 0.0
    vertex 3.8660254037844344 -5.696152422706635 5.971444382678417e-18
    vertex 3.8105117766515306 -2.1999999999999993 0.0
  endloop
endfacet
facet normal 5.325152959893613e-19 -2.130301718496679e-19 1.0
  outer loop
    vertex 3.8105117766515306 -2.1999999999999993 0.0
    vertex 3.8660254037844344 -5.696152422706635 5.971444382678417e-18
    vertex 4.250073635671901 -1.138803798451091 0.0
  endloop
endfacet
facet normal 5.325152959893613e-19 -2.130301718496679e-19 1.0
  outer loop
    vertex 4.250073635671901 -1.138803798451091 0.0
    vertex 3.8660254037844344 -5.696152422706635 5.971444382678417e-18
    vertex 6.866025403784438 -0.5000000000000003 5.971444382678417e-18
  endloop
endfacet
facet normal 5.325152959893613e-19 -2.130301718496679e-19 1.0
  outer loop
    vertex 4.250073635671901 -1.138803798451091 0.0
    vertex 6.866025403784438 -0.5000000000000003 5.971444382678417e-18
    vertex 4.4 0.0 0.0
  endloop
endfacet
facet normal 5.325152959893613e-19 -2.130301718496679e-19 1.0
  outer loop
    vertex -4.4 -5.388445916248355e-16 0.0
    vertex -3.8660254037844366 5.696152422706632 1.7914333148035278e-17
    vertex -6.866025403784438 0.500000000000001 1.7914333148035278e-17
  endloop
endfacet
facet normal 5.325152959893613e-19 -2.130301718496679e-19 1.0
  outer loop
    vertex -3.8660254037844366 5.696152422706632 1.7914333148035278e-17
    vertex -4.4 -5.388445916248355e-16 0.0
    vertex -4.250073635671901 1.1388037984510895 0.0
  endloop
endfacet
facet normal 5.325152959893613e-19 -2.130301718496679e-19 1.0
  outer loop
    vertex -3.8660254037844366 5.696152422706632 1.7914333148035278e-17
    vertex -4.250073635671901 1.1388037984510895 0.0
    vertex -3.8105117766515315 2.1999999999999993 0.0
  endloop
endfacet
facet normal 5.325152959893613e-19 -2.130301718496679e-19 1.0
  outer loop
    vertex -3.8660254037844366 5.696152422706632 1.7914333148035278e-17
    vertex -3.8105117766515315 2.1999999999999993 0.0
    vertex -2.9999999999999982 6.196152422706632 1.1482864731705351e-33
  endloop
endfacet
facet normal 5.325152959893613e-19 -2.130301718496679e-19 1.0
  outer loop
    vertex -2.9999999999999982 6.196152422706632 1.1482864731705351e-33
    vertex -3.8105117766515315 2.1999999999999993 0.0
    vertex -3.1112698372208105 3.1112698372208074 0.0
  endloop
endfacet
facet normal 5.325152959893613e-19 -2.130301718496679e-19 1.0
  outer loop
    vertex -2.9999999999999982 6.196152422706632 1.1482864731705351e-33
    vertex -3.1112698372208105 3.1112698372208074 0.0
    vertex -2.2000000000000024 3.8105117766515293 0.0
  endloop
endfacet
facet normal 5.325152959893613e-19 -2.130301718496679e-19 1.0
  outer loop
    vertex -2.9999999999999982 6.196152422706632 1.1482864731705351e-33
    vertex -2.2000000000000024 3.8105117766515293 0.0
    vertex 3.0 6.19615242270663 1.1482864731705351e-33
  endloop
endfacet
facet normal 5.325152959893613e-19 -2.130301718496679e-19 1.0
  outer loop
    vertex 3.0 6.19615242270663 1.1482864731705351e-33
    vertex -2.2000000000000024 3.8105117766515293 0.0
    vertex -1.1388037984510946 4.2500736356719 0.0
  endloop
endfacet
facet normal 5.325152959893613e-19 -2.130301718496679e-19 1.0
  outer loop
    vertex 3.0 6.19615242270663 1.1482864731705351e-33
    vertex -1.1388037984510946 4.2500736356719 0.0
    vertex -8.08266887437253e-16 4.4 0.0
  endloop
endfacet
facet normal 5.325152959893613e-19 -2.130301718496679e-19 1.0
  outer loop
    vertex 3.0 6.19615242270663 1.1482864731705351e-33
    vertex -8.08266887437253e-16 4.4 0.0
    vertex 1.1388037984510893 4.250073635671901 0.0
  endloop
endfacet
facet normal 5.325152959893613e-19 -2.130301718496679e-19 1.0
  outer loop
    vertex 3.0 6.19615242270663 1.1482864731705351e-33
    vertex 1.1388037984510893 4.250073635671901 0.0
    vertex 2.1999999999999975 3.8105117766515315 0.0
  endloop
endfacet
facet normal 5.325152959893613e-19 -2.130301718496679e-19 1.0
  outer loop
    vertex 3.0 6.19615242270663 1.1482864731705351e-33
    vertex 2.1999999999999975 3.8105117766515315 0.0
    vertex 3.1112698372208087 3.11126983722081 0.0
  endloop
endfacet
facet normal 5.325152959893613e-19 -2.130301718496679e-19 1.0
  outer loop
    vertex 3.0 6.19615242270663 1.1482864731705351e-33
    vertex 3.1112698372208087 3.11126983722081 0.0
    vertex 3.866025403784439 5.69615242270663 -2.008084119502368e-17
  endloop
endfacet
facet normal 5.325152959893613e-19 -2.130301718496679e-19 1.0
  outer loop
    vertex 3.866025403784439 5.69615242270663 -2.008084119502368e-17
    vertex 3.1112698372208087 3.11126983722081 0.0
    vertex 3.8105117766515293 2.2000000000000024 0.0
  endloop
endfacet
facet normal 5.325152959893613e-19 -2.130301718496679e-19 1.0
  outer loop
    vertex 3.866025403784439 5.69615242270663 -2.008084119502368e-17
    vertex 3.8105117766515293 2.2000000000000024 0.0
    vertex 4.2500736356719 1.138803798451095 0.0
  endloop
endfacet
facet normal 5.325152959893613e-19 -2.130301718496679e-19 1.0
  outer loop
    vertex 3.866025403784439 5.69615242270663 -2.008084119502368e-17
    vertex 4.2500736356719 1.138803798451095 0.0
    vertex 6.866025403784438 0.49999999999999994 -2.008084119502368e-17
  endloop
endfacet
facet normal 5.325152959893613e-19 -2.130301718496679e-19 1.0
  outer loop
    vertex 6.866025403784438 0.49999999999999994 -2.008084119502368e-17
    vertex 4.2500736356719 1.138803798451095 0.0
    vertex 4.4 0.0 0.0
  endloop
endfacet
facet normal 5.325152959893613e-19 -2.130301718496679e-19 1.0
  outer loop
    vertex 6.866025403784438 0.49999999999999994 -2.008084119502368e-17
    vertex 4.4 0.0 0.0
    vertex 6.866025403784438 -0.5000000000000003 5.971444382678417e-18
  endloop
endfacet
facet normal 0.49999999999999983 0.8660254037844387 -0.0
  outer loop
    vertex 3.0 6.19615242270663 1.1482864731705351e-33
    vertex 3.866025403784439 5.69615242270663 -7.999999999999998
    vertex 3.0 6.19615242270663 -7.999999999999998
  endloop
endfacet
facet normal 0.49999999999999983 0.8660254037844387 -0.0
  outer loop
    vertex 3.866025403784439 5.69615242270663 -7.999999999999998
    vertex 3.0 6.19615242270663 1.1482864731705351e-33
    vertex 3.866025403784439 5.69615242270663 -2.008084119502368e-17
  endloop
endfacet
facet normal -2.5167044966568537e-32 3.595292138081219e-32 1.0
  outer loop
    vertex -2.3182219830937636 -0.6211657082460504 -1.9999999999999978
    vertex -2.318221983093764 0.6211657082460488 -1.9999999999999978
    vertex -2.4 -2.9391523179536476e-16 -1.9999999999999978
  endloop
endfacet
facet normal -2.5167044966568537e-32 3.595292138081219e-32 1.0
  outer loop
    vertex -2.318221983093764 0.6211657082460488 -1.9999999999999978
    vertex -2.3182219830937636 -0.6211657082460504 -1.9999999999999978
    vertex -2.0784609690826525 1.1999999999999993 -1.9999999999999978
  endloop
endfacet
facet normal -2.5167044966568537e-32 3.595292138081219e-32 1.0
  outer loop
    vertex -2.0784609690826525 1.1999999999999993 -1.9999999999999978
    vertex -2.3182219830937636 -0.6211657082460504 -1.9999999999999978
    vertex -2.078460969082652 -1.2000000000000008 -1.9999999999999978
  endloop
endfacet
facet normal -2.5167044966568537e-32 3.595292138081219e-32 1.0
  outer loop
    vertex -2.0784609690826525 1.1999999999999993 -1.9999999999999978
    vertex -2.078460969082652 -1.2000000000000008 -1.9999999999999978
    vertex -1.697056274847715 1.697056274847713 -1.9999999999999978
  endloop
endfacet
facet normal -2.5167044966568537e-32 3.595292138081219e-32 1.0
  outer loop
    vertex -1.697056274847715 1.697056274847713 -1.9999999999999978
    vertex -2.078460969082652 -1.2000000000000008 -1.9999999999999978
    vertex -1.6970562748477136 -1.6970562748477136 -1.9999999999999978
  endloop
endfacet
facet normal -2.5167044966568537e-32 3.595292138081219e-32 1.0
  outer loop
    vertex -1.697056274847715 1.697056274847713 -1.9999999999999978
    vertex -1.6970562748477136 -1.6970562748477136 -1.9999999999999978
    vertex -1.200000000000001 2.078460969082652 -1.9999999999999978
  endloop
endfacet
facet normal -2.5167044966568537e-32 3.595292138081219e-32 1.0
  outer loop
    vertex -1.200000000000001 2.078460969082652 -1.9999999999999978
    vertex -1.6970562748477136 -1.6970562748477136 -1.9999999999999978
    vertex -1.1999999999999993 -2.078460969082652 -1.9999999999999978
  endloop
endfacet
facet normal -2.5167044966568537e-32 3.595292138081219e-32 1.0
  outer loop
    vertex -1.200000000000001 2.078460969082652 -1.9999999999999978
    vertex -1.1999999999999993 -2.078460969082652 -1.9999999999999978
    vertex -0.6211657082460514 2.3182219830937627 -1.9999999999999978
  endloop
endfacet
facet normal -2.5167044966568537e-32 3.595292138081219e-32 1.0
  outer loop
    vertex -0.6211657082460514 2.3182219830937627 -1.9999999999999978
    vertex -1.1999999999999993 -2.078460969082652 -1.9999999999999978
    vertex -0.6211657082460493 -2.318221983093764 -1.9999999999999978
  endloop
endfacet
facet normal -2.5167044966568537e-32 3.595292138081219e-32 1.0
  outer loop
    vertex -0.6211657082460514 2.3182219830937627 -1.9999999999999978
    vertex -0.6211657082460493 -2.318221983093764 -1.9999999999999978
    vertex -4.4087284769304697e-16 2.4 -1.9999999999999978
  endloop
endfacet
facet normal -2.5167044966568537e-32 3.595292138081219e-32 1.0
  outer loop
    vertex -4.4087284769304697e-16 2.4 -1.9999999999999978
    vertex -0.6211657082460493 -2.318221983093764 -1.9999999999999978
    vertex 1.4695761589768238e-16 -2.4 -1.9999999999999978
  endloop
endfacet
facet normal -2.5167044966568537e-32 3.595292138081219e-32 1.0
  outer loop
    vertex -4.4087284769304697e-16 2.4 -1.9999999999999978
    vertex 1.4695761589768238e-16 -2.4 -1.9999999999999978
    vertex 0.6211657082460486 2.318221983093764 -1.9999999999999978
  endloop
endfacet
facet normal -2.5167044966568537e-32 3.595292138081219e-32 1.0
  outer loop
    vertex 0.6211657082460486 2.318221983093764 -1.9999999999999978
    vertex 1.4695761589768238e-16 -2.4 -1.9999999999999978
    vertex 0.6211657082460502 -2.3182219830937636 -1.9999999999999978
  endloop
endfacet
facet normal -2.5167044966568537e-32 3.595292138081219e-32 1.0
  outer loop
    vertex 0.6211657082460486 2.318221983093764 -1.9999999999999978
    vertex 0.6211657082460502 -2.3182219830937636 -1.9999999999999978
    vertex 1.1999999999999984 2.078460969082654 -1.9999999999999978
  endloop
endfacet
facet normal -2.5167044966568537e-32 3.595292138081219e-32 1.0
  outer loop
    vertex 1.1999999999999984 2.078460969082654 -1.9999999999999978
    vertex 0.6211657082460502 -2.3182219830937636 -1.9999999999999978
    vertex 1.2000000000000002 -2.078460969082652 -1.9999999999999978
  endloop
endfacet
facet normal -2.5167044966568537e-32 3.595292138081219e-32 1.0
  outer loop
    vertex 1.1999999999999984 2.078460969082654 -1.9999999999999978
    vertex 1.2000000000000002 -2.078460969082652 -1.9999999999999978
    vertex 1.6970562748477136 1.6970562748477143 -1.9999999999999978
  endloop
endfacet
facet normal -2.5167044966568537e-32 3.595292138081219e-32 1.0
  outer loop
    vertex 1.6970562748477136 1.6970562748477143 -1.9999999999999978
    vertex 1.2000000000000002 -2.078460969082652 -1.9999999999999978
    vertex 1.6970562748477136 -1.6970562748477136 -1.9999999999999978
  endloop
endfacet
facet normal -2.5167044966568537e-32 3.595292138081219e-32 1.0
  outer loop
    vertex 1.6970562748477136 1.6970562748477143 -1.9999999999999978
    vertex 1.6970562748477136 -1.6970562748477136 -1.9999999999999978
    vertex 2.078460969082652 -1.1999999999999995 -1.9999999999999978
  endloop
endfacet
facet normal -2.5167044966568537e-32 3.595292138081219e-32 1.0
  outer loop
    vertex 1.6970562748477136 1.6970562748477143 -1.9999999999999978
    vertex 2.078460969082652 -1.1999999999999995 -1.9999999999999978
    vertex 2.078460969082652 1.200000000000001 -1.9999999999999978
  endloop
endfacet
facet normal -2.5167044966568537e-32 3.595292138081219e-32 1.0
  outer loop
    vertex 2.078460969082652 1.200000000000001 -1.9999999999999978
    vertex 2.078460969082652 -1.1999999999999995 -1.9999999999999978
    vertex 2.3182219830937627 0.6211657082460518 -1.9999999999999978
  endloop
endfacet
facet normal -2.5167044966568537e-32 3.595292138081219e-32 1.0
  outer loop
    vertex 2.3182219830937627 0.6211657082460518 -1.9999999999999978
    vertex 2.078460969082652 -1.1999999999999995 -1.9999999999999978
    vertex 2.318221983093764 -0.6211657082460498 -1.9999999999999978
  endloop
endfacet
facet normal -2.5167044966568537e-32 3.595292138081219e-32 1.0
  outer loop
    vertex 2.3182219830937627 0.6211657082460518 -1.9999999999999978
    vertex 2.318221983093764 -0.6211657082460498 -1.9999999999999978
    vertex 2.4 -3.595292138081222e-32 -1.9999999999999978
  endloop
endfacet
facet normal -0.3826834323650888 -0.9238795325112873 0.0
  outer loop
    vertex 1.1999999999999984 2.078460969082654 4.999999999999999
    vertex 0.6211657082460486 2.318221983093764 -1.9999999999999978
    vertex 1.1999999999999984 2.078460969082654 -1.9999999999999978
  endloop
endfacet
facet normal -0.3826834323650888 -0.9238795325112873 0.0
  outer loop
    vertex 0.6211657082460486 2.318221983093764 -1.9999999999999978
    vertex 1.1999999999999984 2.078460969082654 4.999999999999999
    vertex 0.6211657082460486 2.318221983093764 4.999999999999999
  endloop
endfacet
facet normal -0.9238795325112867 -0.38268343236509 0.0
  outer loop
    vertex 2.078460969082652 1.200000000000001 4.999999999999999
    vertex 2.3182219830937627 0.6211657082460518 -1.9999999999999978
    vertex 2.3182219830937627 0.6211657082460518 4.999999999999999
  endloop
endfacet
facet normal -0.9238795325112867 -0.38268343236509 0.0
  outer loop
    vertex 2.3182219830937627 0.6211657082460518 -1.9999999999999978
    vertex 2.078460969082652 1.200000000000001 4.999999999999999
    vertex 2.078460969082652 1.200000000000001 -1.9999999999999978
  endloop
endfacet
facet normal 0.9914448613738105 -0.13052619222005143 -0.0
  outer loop
    vertex -2.318221983093764 0.6211657082460488 -1.9999999999999978
    vertex -2.4 -2.9391523179536476e-16 4.999999999999999
    vertex -2.4 -2.9391523179536476e-16 -1.9999999999999978
  endloop
endfacet
facet normal 0.9914448613738105 -0.13052619222005143 -0.0
  outer loop
    vertex -2.4 -2.9391523179536476e-16 4.999999999999999
    vertex -2.318221983093764 0.6211657082460488 -1.9999999999999978
    vertex -2.318221983093764 0.6211657082460488 4.999999999999999
  endloop
endfacet
facet normal -0.9914448613738103 -0.13052619222005257 0.0
  outer loop
    vertex 2.4 0.0 4.999999999999999
    vertex 2.3182219830937627 0.6211657082460518 -1.9999999999999978
    vertex 2.4 -3.595292138081222e-32 -1.9999999999999978
  endloop
endfacet
facet normal -0.9914448613738103 -0.13052619222005257 0.0
  outer loop
    vertex 2.3182219830937627 0.6211657082460518 -1.9999999999999978
    vertex 2.4 0.0 4.999999999999999
    vertex 2.3182219830937627 0.6211657082460518 4.999999999999999
  endloop
endfacet
facet normal 0.9238795325112867 -0.38268343236508967 -0.0
  outer loop
    vertex -2.0784609690826525 1.1999999999999993 -1.9999999999999978
    vertex -2.318221983093764 0.6211657082460488 4.999999999999999
    vertex -2.318221983093764 0.6211657082460488 -1.9999999999999978
  endloop
endfacet
facet normal 0.9238795325112867 -0.38268343236508967 -0.0
  outer loop
    vertex -2.318221983093764 0.6211657082460488 4.999999999999999
    vertex -2.0784609690826525 1.1999999999999993 -1.9999999999999978
    vertex -2.0784609690826525 1.1999999999999993 4.999999999999999
  endloop
endfacet
facet normal 0.6087614290087211 -0.7933533402912347 0.0
  outer loop
    vertex -1.200000000000001 2.078460969082652 4.999999999999999
    vertex -1.697056274847715 1.697056274847713 -1.9999999999999978
    vertex -1.200000000000001 2.078460969082652 -1.9999999999999978
  endloop
endfacet
facet normal 0.6087614290087211 -0.7933533402912347 0.0
  outer loop
    vertex -1.697056274847715 1.697056274847713 -1.9999999999999978
    vertex -1.200000000000001 2.078460969082652 4.999999999999999
    vertex -1.697056274847715 1.697056274847713 4.999999999999999
  endloop
endfacet
facet normal 0.7933533402912357 -0.60876142900872 -0.0
  outer loop
    vertex -1.697056274847715 1.697056274847713 -1.9999999999999978
    vertex -2.0784609690826525 1.1999999999999993 4.999999999999999
    vertex -2.0784609690826525 1.1999999999999993 -1.9999999999999978
  endloop
endfacet
facet normal 0.7933533402912357 -0.60876142900872 -0.0
  outer loop
    vertex -2.0784609690826525 1.1999999999999993 4.999999999999999
    vertex -1.697056274847715 1.697056274847713 -1.9999999999999978
    vertex -1.697056274847715 1.697056274847713 4.999999999999999
  endloop
endfacet
facet normal -0.7933533402912349 -0.6087614290087209 0.0
  outer loop
    vertex 1.6970562748477136 1.6970562748477143 4.999999999999999
    vertex 2.078460969082652 1.200000000000001 -1.9999999999999978
    vertex 2.078460969082652 1.200000000000001 4.999999999999999
  endloop
endfacet
facet normal -0.7933533402912349 -0.6087614290087209 0.0
  outer loop
    vertex 2.078460969082652 1.200000000000001 -1.9999999999999978
    vertex 1.6970562748477136 1.6970562748477143 4.999999999999999
    vertex 1.6970562748477136 1.6970562748477143 -1.9999999999999978
  endloop
endfacet
facet normal -0.6087614290087204 -0.7933533402912355 0.0
  outer loop
    vertex 1.6970562748477136 1.6970562748477143 4.999999999999999
    vertex 1.1999999999999984 2.078460969082654 -1.9999999999999978
    vertex 1.6970562748477136 1.6970562748477143 -1.9999999999999978
  endloop
endfacet
facet normal -0.6087614290087204 -0.7933533402912355 0.0
  outer loop
    vertex 1.1999999999999984 2.078460969082654 -1.9999999999999978
    vertex 1.6970562748477136 1.6970562748477143 4.999999999999999
    vertex 1.1999999999999984 2.078460969082654 4.999999999999999
  endloop
endfacet
facet normal -0.9914448613738105 0.13052619222005135 0.0
  outer loop
    vertex 2.4 0.0 4.999999999999999
    vertex 2.318221983093764 -0.6211657082460498 -1.9999999999999978
    vertex 2.318221983093764 -0.6211657082460498 4.999999999999999
  endloop
endfacet
facet normal -0.9914448613738105 0.13052619222005135 0.0
  outer loop
    vertex 2.318221983093764 -0.6211657082460498 -1.9999999999999978
    vertex 2.4 0.0 4.999999999999999
    vertex 2.4 -3.595292138081222e-32 -1.9999999999999978
  endloop
endfacet
facet normal -0.13052619222005146 -0.9914448613738105 0.0
  outer loop
    vertex 0.6211657082460486 2.318221983093764 4.999999999999999
    vertex -4.4087284769304697e-16 2.4 -1.9999999999999978
    vertex 0.6211657082460486 2.318221983093764 -1.9999999999999978
  endloop
endfacet
facet normal -0.13052619222005146 -0.9914448613738105 0.0
  outer loop
    vertex -4.4087284769304697e-16 2.4 -1.9999999999999978
    vertex 0.6211657082460486 2.318221983093764 4.999999999999999
    vertex -4.4087284769304707e-16 2.4 4.999999999999999
  endloop
endfacet
facet normal 0.13052619222005268 -0.9914448613738103 0.0
  outer loop
    vertex -4.4087284769304707e-16 2.4 4.999999999999999
    vertex -0.6211657082460514 2.3182219830937627 -1.9999999999999978
    vertex -4.4087284769304697e-16 2.4 -1.9999999999999978
  endloop
endfacet
facet normal 0.13052619222005268 -0.9914448613738103 0.0
  outer loop
    vertex -0.6211657082460514 2.3182219830937627 -1.9999999999999978
    vertex -4.4087284769304707e-16 2.4 4.999999999999999
    vertex -0.6211657082460514 2.3182219830937627 4.999999999999999
  endloop
endfacet
facet normal 0.38268343236508984 -0.9238795325112867 0.0
  outer loop
    vertex -0.6211657082460514 2.3182219830937627 4.999999999999999
    vertex -1.200000000000001 2.078460969082652 -1.9999999999999978
    vertex -0.6211657082460514 2.3182219830937627 -1.9999999999999978
  endloop
endfacet
facet normal 0.38268343236508984 -0.9238795325112867 0.0
  outer loop
    vertex -1.200000000000001 2.078460969082652 -1.9999999999999978
    vertex -0.6211657082460514 2.3182219830937627 4.999999999999999
    vertex -1.200000000000001 2.078460969082652 4.999999999999999
  endloop
endfacet
facet normal -0.9238795325112865 0.38268343236509067 0.0
  outer loop
    vertex 2.318221983093764 -0.6211657082460498 4.999999999999999
    vertex 2.078460969082652 -1.1999999999999995 -1.9999999999999978
    vertex 2.078460969082652 -1.1999999999999995 4.999999999999999
  endloop
endfacet
facet normal -0.9238795325112865 0.38268343236509067 0.0
  outer loop
    vertex 2.078460969082652 -1.1999999999999995 -1.9999999999999978
    vertex 2.318221983093764 -0.6211657082460498 4.999999999999999
    vertex 2.318221983093764 -0.6211657082460498 -1.9999999999999978
  endloop
endfacet
facet normal -0.7933533402912352 0.6087614290087207 0.0
  outer loop
    vertex 2.078460969082652 -1.1999999999999995 4.999999999999999
    vertex 1.6970562748477136 -1.6970562748477136 -1.9999999999999978
    vertex 1.6970562748477136 -1.6970562748477136 4.999999999999999
  endloop
endfacet
facet normal -0.7933533402912352 0.6087614290087207 0.0
  outer loop
    vertex 1.6970562748477136 -1.6970562748477136 -1.9999999999999978
    vertex 2.078460969082652 -1.1999999999999995 4.999999999999999
    vertex 2.078460969082652 -1.1999999999999995 -1.9999999999999978
  endloop
endfacet
facet normal -0.6087614290087209 0.7933533402912352 -0.0
  outer loop
    vertex 1.2000000000000002 -2.078460969082652 4.999999999999999
    vertex 1.6970562748477136 -1.6970562748477136 -1.9999999999999978
    vertex 1.2000000000000002 -2.078460969082652 -1.9999999999999978
  endloop
endfacet
facet normal -0.6087614290087209 0.7933533402912352 -0.0
  outer loop
    vertex 1.6970562748477136 -1.6970562748477136 -1.9999999999999978
    vertex 1.2000000000000002 -2.078460969082652 4.999999999999999
    vertex 1.6970562748477136 -1.6970562748477136 4.999999999999999
  endloop
endfacet
facet normal 0.3826834323650907 0.9238795325112865 -0.0
  outer loop
    vertex -1.1999999999999993 -2.078460969082652 4.999999999999999
    vertex -0.6211657082460493 -2.318221983093764 -1.9999999999999978
    vertex -1.1999999999999993 -2.078460969082652 -1.9999999999999978
  endloop
endfacet
facet normal 0.3826834323650907 0.9238795325112865 -0.0
  outer loop
    vertex -0.6211657082460493 -2.318221983093764 -1.9999999999999978
    vertex -1.1999999999999993 -2.078460969082652 4.999999999999999
    vertex -0.6211657082460493 -2.318221983093764 4.999999999999999
  endloop
endfacet
facet normal 0.6087614290087204 0.7933533402912355 -0.0
  outer loop
    vertex -1.6970562748477136 -1.6970562748477136 4.999999999999999
    vertex -1.1999999999999993 -2.078460969082652 -1.9999999999999978
    vertex -1.6970562748477136 -1.6970562748477136 -1.9999999999999978
  endloop
endfacet
facet normal 0.6087614290087204 0.7933533402912355 -0.0
  outer loop
    vertex -1.1999999999999993 -2.078460969082652 -1.9999999999999978
    vertex -1.6970562748477136 -1.6970562748477136 4.999999999999999
    vertex -1.1999999999999993 -2.078460969082652 4.999999999999999
  endloop
endfacet
facet normal 0.7933533402912347 0.6087614290087214 -0.0
  outer loop
    vertex -2.078460969082652 -1.2000000000000008 -1.9999999999999978
    vertex -1.6970562748477136 -1.6970562748477136 4.999999999999999
    vertex -1.6970562748477136 -1.6970562748477136 -1.9999999999999978
  endloop
endfacet
facet normal 0.7933533402912347 0.6087614290087214 -0.0
  outer loop
    vertex -1.6970562748477136 -1.6970562748477136 4.999999999999999
    vertex -2.078460969082652 -1.2000000000000008 -1.9999999999999978
    vertex -2.078460969082652 -1.2000000000000008 4.999999999999999
  endloop
endfacet
facet normal 0.1305261922200514 0.9914448613738105 -0.0
  outer loop
    vertex -0.6211657082460493 -2.318221983093764 4.999999999999999
    vertex 1.4695761589768238e-16 -2.4 -1.9999999999999978
    vertex -0.6211657082460493 -2.318221983093764 -1.9999999999999978
  endloop
endfacet
facet normal 0.1305261922200514 0.9914448613738105 -0.0
  outer loop
    vertex 1.4695761589768238e-16 -2.4 -1.9999999999999978
    vertex -0.6211657082460493 -2.318221983093764 4.999999999999999
    vertex 1.4695761589768238e-16 -2.4 4.999999999999999
  endloop
endfacet
facet normal -0.38268343236509067 0.9238795325112865 -0.0
  outer loop
    vertex 0.6211657082460502 -2.3182219830937636 4.999999999999999
    vertex 1.2000000000000002 -2.078460969082652 -1.9999999999999978
    vertex 0.6211657082460502 -2.3182219830937636 -1.9999999999999978
  endloop
endfacet
facet normal -0.38268343236509067 0.9238795325112865 -0.0
  outer loop
    vertex 1.2000000000000002 -2.078460969082652 -1.9999999999999978
    vertex 0.6211657082460502 -2.3182219830937636 4.999999999999999
    vertex 1.2000000000000002 -2.078460969082652 4.999999999999999
  endloop
endfacet
facet normal -0.13052619222005182 0.9914448613738105 -0.0
  outer loop
    vertex 1.4695761589768238e-16 -2.4 4.999999999999999
    vertex 0.6211657082460502 -2.3182219830937636 -1.9999999999999978
    vertex 1.4695761589768238e-16 -2.4 -1.9999999999999978
  endloop
endfacet
facet normal -0.13052619222005182 0.9914448613738105 -0.0
  outer loop
    vertex 0.6211657082460502 -2.3182219830937636 -1.9999999999999978
    vertex 1.4695761589768238e-16 -2.4 4.999999999999999
    vertex 0.6211657082460502 -2.3182219830937636 4.999999999999999
  endloop
endfacet
facet normal 0.9914448613738105 0.13052619222005182 -0.0
  outer loop
    vertex -2.4 -2.9391523179536476e-16 -1.9999999999999978
    vertex -2.3182219830937636 -0.6211657082460504 4.999999999999999
    vertex -2.3182219830937636 -0.6211657082460504 -1.9999999999999978
  endloop
endfacet
facet normal 0.9914448613738105 0.13052619222005182 -0.0
  outer loop
    vertex -2.3182219830937636 -0.6211657082460504 4.999999999999999
    vertex -2.4 -2.9391523179536476e-16 -1.9999999999999978
    vertex -2.4 -2.9391523179536476e-16 4.999999999999999
  endloop
endfacet
facet normal 0.9238795325112865 0.38268343236509017 -0.0
  outer loop
    vertex -2.3182219830937636 -0.6211657082460504 -1.9999999999999978
    vertex -2.078460969082652 -1.2000000000000008 4.999999999999999
    vertex -2.078460969082652 -1.2000000000000008 -1.9999999999999978
  endloop
endfacet
facet normal 0.9238795325112865 0.38268343236509017 -0.0
  outer loop
    vertex -2.078460969082652 -1.2000000000000008 4.999999999999999
    vertex -2.3182219830937636 -0.6211657082460504 -1.9999999999999978
    vertex -2.3182219830937636 -0.6211657082460504 4.999999999999999
  endloop
endfacet
endsolid Pomello
