999
dxfrw 0.6.3
  0
SECTION
  2
HEADER
  9
$ACADVER
  1
AC1021
  9
$DWGCODEPAGE
  3
ANSI_1252
  9
$INSBASE
 10
0
 20
0
 30
0
  9
$EXTMIN
 10
1190.057551128558
 20
147.4338012409006
 30
0
  9
$EXTMAX
 10
1534.084952625206
 20
381.6572974564735
 30
0
  9
$LIMMIN
 10
0
 20
0
  9
$LIMMAX
 10
420
 20
297
  9
$ORTHOMODE
 70
    0
  9
$REGENMODE
 70
    1
  9
$FILLMODE
 70
    1
  9
$QTEXTMODE
 70
    0
  9
$MIRRTEXT
 70
    0
  9
$LTSCALE
 40
1
  9
$ATTMODE
 70
    0
  9
$TEXTSIZE
 40
2.5
  9
$TRACEWID
 40
15.68
  9
$TEXTSTYLE
  7
STANDARD
  9
$CLAYER
  8
0
  9
$CELTYPE
  6
BYLAYER
  9
$CECOLOR
 62
  256
  9
$CELTSCALE
 40
1
  9
$DISPSILH
 70
    0
  9
$DIMSCALE
 40
2.5
  9
$DIMASZ
 40
2.5
  9
$DIMEXO
 40
0.625
  9
$DIMDLI
 40
3.75
  9
$DIMRND
 40
0
  9
$DIMDLE
 40
0
  9
$DIMEXE
 40
1.25
  9
$DIMTP
 40
0
  9
$DIMTM
 40
0
  9
$DIMTXT
 40
2.5
  9
$DIMCEN
 40
2.5
  9
$DIMTSZ
 40
0
  9
$DIMTOL
 70
    0
  9
$DIMLIM
 70
    0
  9
$DIMTIH
 70
    0
  9
$DIMTOH
 70
    0
  9
$DIMSE1
 70
    0
  9
$DIMSE2
 70
    0
  9
$DIMTAD
 70
    1
  9
$DIMZIN
 70
    8
  9
$DIMBLK
  1

  9
$DIMASO
 70
    1
  9
$DIMSHO
 70
    1
  9
$DIMPOST
  1

  9
$DIMAPOST
  1

  9
$DIMALT
 70
    0
  9
$DIMALTD
 70
    3
  9
$DIMALTF
 40
0.03937
  9
$DIMLFAC
 40
1
  9
$DIMTOFL
 70
    1
  9
$DIMTVP
 40
0
  9
$DIMTIX
 70
    0
  9
$DIMSOXD
 70
    0
  9
$DIMSAH
 70
    0
  9
$DIMBLK1
  1

  9
$DIMBLK2
  1

  9
$DIMSTYLE
  2
Standard
  9
$DIMCLRD
 70
    0
  9
$DIMCLRE
 70
    0
  9
$DIMCLRT
 70
    0
  9
$DIMTFAC
 40
1
  9
$DIMGAP
 40
0.625
  9
$DIMJUST
 70
    0
  9
$DIMSD1
 70
    0
  9
$DIMSD2
 70
    0
  9
$DIMTOLJ
 70
    0
  9
$DIMTZIN
 70
    8
  9
$DIMALTZ
 70
    0
  9
$DIMALTTZ
 70
    0
  9
$DIMUPT
 70
    0
  9
$DIMDEC
 70
    4
  9
$DIMTDEC
 70
    2
  9
$DIMALTU
 70
    2
  9
$DIMALTTD
 70
    3
  9
$DIMTXSTY
  7
standard
  9
$DIMAUNIT
 70
    0
  9
$DIMADEC
 70
    0
  9
$DIMALTRND
 40
0
  9
$DIMAZIN
 70
    0
  9
$DIMDSEP
 70
   44
  9
$DIMATFIT
 70
    3
  9
$DIMFRAC
 70
    0
  9
$DIMLDRBLK
  1
STANDARD
  9
$DIMLUNIT
 70
    2
  9
$DIMLWD
 70
   -2
  9
$DIMLWE
 70
   -2
  9
$DIMTMOVE
 70
    0
  9
$DIMFXL
 40
1
  9
$DIMFXLON
 70
    0
  9
$DIMJOGANG
 40
0.7854
  9
$DIMTFILL
 70
    0
  9
$DIMTFILLCLR
 70
    0
  9
$DIMARCSYM
 70
    0
  9
$DIMLTYPE
  6

  9
$DIMLTEX1
  6

  9
$DIMLTEX2
  6

  9
$LUNITS
 70
    2
  9
$LUPREC
 70
    4
  9
$SKETCHINC
 40
1
  9
$FILLETRAD
 40
0
  9
$AUNITS
 70
    0
  9
$AUPREC
 70
    2
  9
$MENU
  1
.
  9
$ELEVATION
 40
0
  9
$PELEVATION
 40
0
  9
$THICKNESS
 40
0
  9
$LIMCHECK
 70
    0
  9
$CHAMFERA
 40
0
  9
$CHAMFERB
 40
0
  9
$CHAMFERC
 40
0
  9
$CHAMFERD
 40
0
  9
$SKPOLY
 70
    0
  9
$USRTIMER
 70
    1
  9
$ANGBASE
 50
0
  9
$ANGDIR
 70
    0
  9
$PDMODE
 70
   34
  9
$PDSIZE
 40
0
  9
$PLINEWID
 40
0
  9
$SPLFRAME
 70
    0
  9
$SPLINETYPE
 70
    2
  9
$SPLINESEGS
 70
   64
  9
$HANDSEED
  5
20000
  9
$SURFTAB1
 70
    6
  9
$SURFTAB2
 70
    6
  9
$SURFTYPE
 70
    6
  9
$SURFU
 70
    6
  9
$SURFV
 70
    6
  9
$UCSBASE
  2

  9
$UCSNAME
  2

  9
$UCSORG
 10
0
 20
0
 30
0
  9
$UCSXDIR
 10
1
 20
0
 30
0
  9
$UCSYDIR
 10
0
 20
1
 30
0
  9
$UCSORTHOREF
  2

  9
$UCSORTHOVIEW
 70
    0
  9
$UCSORGTOP
 10
0
 20
0
 30
0
  9
$UCSORGBOTTOM
 10
0
 20
0
 30
0
  9
$UCSORGLEFT
 10
0
 20
0
 30
0
  9
$UCSORGRIGHT
 10
0
 20
0
 30
0
  9
$UCSORGFRONT
 10
0
 20
0
 30
0
  9
$UCSORGBACK
 10
0
 20
0
 30
0
  9
$PUCSBASE
  2

  9
$PUCSNAME
  2

  9
$PUCSORG
 10
0
 20
0
 30
0
  9
$PUCSXDIR
 10
1
 20
0
 30
0
  9
$PUCSYDIR
 10
0
 20
1
 30
0
  9
$PUCSORTHOREF
  2

  9
$PUCSORTHOVIEW
 70
    0
  9
$PUCSORGTOP
 10
0
 20
0
 30
0
  9
$PUCSORGBOTTOM
 10
0
 20
0
 30
0
  9
$PUCSORGLEFT
 10
0
 20
0
 30
0
  9
$PUCSORGRIGHT
 10
0
 20
0
 30
0
  9
$PUCSORGFRONT
 10
0
 20
0
 30
0
  9
$PUCSORGBACK
 10
0
 20
0
 30
0
  9
$USERI1
 70
    0
  9
$USERI2
 70
    0
  9
$USERI3
 70
    0
  9
$USERI4
 70
    0
  9
$USERI5
 70
    0
  9
$USERR1
 40
0
  9
$USERR2
 40
0
  9
$USERR3
 40
0
  9
$USERR4
 40
0
  9
$USERR5
 40
0
  9
$WORLDVIEW
 70
    1
  9
$SHADEDGE
 70
    3
  9
$SHADEDIF
 70
   70
  9
$TILEMODE
 70
    1
  9
$MAXACTVP
 70
   64
  9
$PINSBASE
 10
0
 20
0
 30
0
  9
$PLIMCHECK
 70
    0
  9
$PEXTMIN
 10
0
 20
0
 30
0
  9
$PEXTMAX
 10
0
 20
0
 30
0
  9
$GRIDMODE
 70
    0
  9
$SNAPSTYLE
 70
    0
  9
$GRIDUNIT
 10
0
 20
0
  9
$PLIMMIN
 10
0
 20
0
  9
$PLIMMAX
 10
1189
 20
841
  9
$UNITMODE
 70
    0
  9
$VISRETAIN
 70
    1
  9
$PLINEGEN
 70
    0
  9
$PSLTSCALE
 70
    1
  9
$TREEDEPTH
 70
 3020
  9
$CMLSTYLE
  2
Standard
  9
$CMLJUST
 70
    0
  9
$CMLSCALE
 40
20
  9
$PROXYGRAPHICS
 70
    1
  9
$MEASUREMENT
 70
    1
  9
$CELWEIGHT
370
   -1
  9
$ENDCAPS
280
    0
  9
$JOINSTYLE
280
    0
  9
$LWDISPLAY
290
    0
  9
$INSUNITS
 70
    4
  9
$HYPERLINKBASE
  1

  9
$STYLESHEET
  1

  9
$XEDIT
290
    1
  9
$CEPSNTYPE
380
    0
  9
$PSTYLEMODE
290
    1
  9
$EXTNAMES
290
    1
  9
$PSVPSCALE
 40
1
  9
$OLESTARTUP
290
    0
  9
$SORTENTS
280
  127
  9
$INDEXCTL
280
    0
  9
$HIDETEXT
280
    1
  9
$XCLIPFRAME
290
    0
  9
$HALOGAP
280
    0
  9
$OBSCOLOR
 70
  257
  9
$OBSLTYPE
280
    0
  9
$INTERSECTIONDISPLAY
280
    0
  9
$INTERSECTIONCOLOR
 70
  257
  9
$DIMASSOC
280
    1
  9
$PROJECTNAME
  1

  9
$CAMERADISPLAY
290
    0
  9
$LENSLENGTH
 40
50
  9
$CAMERAHEIGHT
 40
0
  9
$STEPSPERSEC
 40
2
  9
$STEPSIZE
 40
50
  9
$3DDWFPREC
 40
2
  9
$PSOLWIDTH
 40
5
  9
$PSOLHEIGHT
 40
80
  9
$LOFTANG1
 40
1.570796326794897
  9
$LOFTANG2
 40
1.570796326794897
  9
$LOFTMAG1
 40
0
  9
$LOFTMAG2
 40
0
  9
$LOFTPARAM
 70
    7
  9
$LOFTNORMALS
280
    1
  9
$LATITUDE
 40
1
  9
$LONGITUDE
 40
1
  9
$NORTHDIRECTION
 40
0
  9
$TIMEZONE
 70
-8000
  9
$LIGHTGLYPHDISPLAY
280
    1
  9
$TILEMODELIGHTSYNCH
280
    1
  9
$SOLIDHIST
280
    1
  9
$SHOWHIST
280
    1
  9
$DWFFRAME
280
    2
  9
$DGNFRAME
280
    0
  9
$REALWORLDSCALE
290
    1
  9
$INTERFERECOLOR
 62
    1
  9
$CSHADOW
280
    0
  9
$SHADOWPLANELOCATION
 40
0
  0
ENDSEC
  0
SECTION
  2
CLASSES
  0
ENDSEC
  0
SECTION
  2
TABLES
  0
TABLE
  2
VPORT
  5
8
330
0
100
AcDbSymbolTable
 70
    1
  0
VPORT
  5
31
330
2
100
AcDbSymbolTableRecord
100
AcDbViewportTableRecord
  2
*ACTIVE
 70
    0
 10
0
 20
0
 11
1
 21
1
 12
1217.414084733719
 22
484.5824415579568
 13
0
 23
0
 14
10
 24
10
 15
10
 25
10
 16
0
 26
0
 36
1
 17
0
 27
0
 37
0
 40
1419.985433253849
 41
1.853146853146853
 42
50
 43
0
 44
0
 50
0
 51
0
 71
    0
 72
  100
 73
    1
 74
    3
 75
    0
 76
    0
 77
    0
 78
    0
281
    0
 65
    1
110
0
120
0
130
0
111
1
121
0
131
0
112
0
122
1
132
0
 79
    0
146
0
348
10020
 60
    7
 61
    5
292
1
282
    1
141
0
142
0
 63
  250
421
3358443
  0
ENDTAB
  0
TABLE
  2
LTYPE
  5
5
330
0
100
AcDbSymbolTable
 70
    4
  0
LTYPE
  5
14
330
5
100
AcDbSymbolTableRecord
100
AcDbLinetypeTableRecord
  2
ByBlock
 70
    0
  3

 72
   65
 73
    0
 40
0
  0
LTYPE
  5
15
330
5
100
AcDbSymbolTableRecord
100
AcDbLinetypeTableRecord
  2
ByLayer
 70
    0
  3

 72
   65
 73
    0
 40
0
  0
LTYPE
  5
16
330
5
100
AcDbSymbolTableRecord
100
AcDbLinetypeTableRecord
  2
Continuous
 70
    0
  3
Solid line
 72
   65
 73
    0
 40
0
  0
LTYPE
  5
32
330
5
100
AcDbSymbolTableRecord
100
AcDbLinetypeTableRecord
  2
DOT
 70
    0
  3
Dot . . . . . . . . . . . . . . . . . . . . . .
 72
   65
 73
    2
 40
6.35
 49
0
 74
    0
 49
-6.35
 74
    0
  0
LTYPE
  5
33
330
5
100
AcDbSymbolTableRecord
100
AcDbLinetypeTableRecord
  2
DOTTINY
 70
    0
  3
Dot (.15x) .....................................
 72
   65
 73
    2
 40
0.9525
 49
0
 74
    0
 49
-0.9525
 74
    0
  0
LTYPE
  5
34
330
5
100
AcDbSymbolTableRecord
100
AcDbLinetypeTableRecord
  2
DOT2
 70
    0
  3
Dot (.5x) .....................................
 72
   65
 73
    2
 40
3.175
 49
0
 74
    0
 49
-3.175
 74
    0
  0
LTYPE
  5
35
330
5
100
AcDbSymbolTableRecord
100
AcDbLinetypeTableRecord
  2
DOTX2
 70
    0
  3
Dot (2x) .  .  .  .  .  .  .  .  .  .  .  .  .
 72
   65
 73
    2
 40
12.7
 49
0
 74
    0
 49
-12.7
 74
    0
  0
LTYPE
  5
36
330
5
100
AcDbSymbolTableRecord
100
AcDbLinetypeTableRecord
  2
DASHED
 70
    0
  3
Dashed _ _ _ _ _ _ _ _ _ _ _ _ _ _ _ _ _
 72
   65
 73
    2
 40
19.05
 49
12.7
 74
    0
 49
-6.35
 74
    0
  0
LTYPE
  5
37
330
5
100
AcDbSymbolTableRecord
100
AcDbLinetypeTableRecord
  2
DASHEDTINY
 70
    0
  3
Dashed (.15x) _ _ _ _ _ _ _ _ _ _ _ _ _ _ _ _ _
 72
   65
 73
    2
 40
2.8575
 49
1.905
 74
    0
 49
-0.9525
 74
    0
  0
LTYPE
  5
38
330
5
100
AcDbSymbolTableRecord
100
AcDbLinetypeTableRecord
  2
DASHED2
 70
    0
  3
Dashed (.5x) _ _ _ _ _ _ _ _ _ _ _ _ _ _ _ _ _
 72
   65
 73
    2
 40
9.524999999999999
 49
6.35
 74
    0
 49
-3.175
 74
    0
  0
LTYPE
  5
39
330
5
100
AcDbSymbolTableRecord
100
AcDbLinetypeTableRecord
  2
DASHEDX2
 70
    0
  3
Dashed (2x) ____  ____  ____  ____  ____  ___
 72
   65
 73
    2
 40
38.09999999999999
 49
25.4
 74
    0
 49
-12.7
 74
    0
  0
LTYPE
  5
3A
330
5
100
AcDbSymbolTableRecord
100
AcDbLinetypeTableRecord
  2
DASHDOT
 70
    0
  3
Dash dot __ . __ . __ . __ . __ . __ . __ . __
 72
   65
 73
    4
 40
25.4
 49
12.7
 74
    0
 49
-6.35
 74
    0
 49
0
 74
    0
 49
-6.35
 74
    0
  0
LTYPE
  5
3B
330
5
100
AcDbSymbolTableRecord
100
AcDbLinetypeTableRecord
  2
DASHDOTTINY
 70
    0
  3
Dash dot (.15x) _._._._._._._._._._._._._._._.
 72
   65
 73
    4
 40
3.81
 49
1.905
 74
    0
 49
-0.9525
 74
    0
 49
0
 74
    0
 49
-0.9525
 74
    0
  0
LTYPE
  5
3C
330
5
100
AcDbSymbolTableRecord
100
AcDbLinetypeTableRecord
  2
DASHDOT2
 70
    0
  3
Dash dot (.5x) _._._._._._._._._._._._._._._.
 72
   65
 73
    4
 40
12.7
 49
6.35
 74
    0
 49
-3.175
 74
    0
 49
0
 74
    0
 49
-3.175
 74
    0
  0
LTYPE
  5
3D
330
5
100
AcDbSymbolTableRecord
100
AcDbLinetypeTableRecord
  2
DASHDOTX2
 70
    0
  3
Dash dot (2x) ____  .  ____  .  ____  .  ___
 72
   65
 73
    4
 40
50.8
 49
25.4
 74
    0
 49
-12.7
 74
    0
 49
0
 74
    0
 49
-12.7
 74
    0
  0
LTYPE
  5
3E
330
5
100
AcDbSymbolTableRecord
100
AcDbLinetypeTableRecord
  2
DIVIDE
 70
    0
  3
Divide ____ . . ____ . . ____ . . ____ . . ____
 72
   65
 73
    6
 40
31.75
 49
12.7
 74
    0
 49
-6.35
 74
    0
 49
0
 74
    0
 49
-6.35
 74
    0
 49
0
 74
    0
 49
-6.35
 74
    0
  0
LTYPE
  5
3F
330
5
100
AcDbSymbolTableRecord
100
AcDbLinetypeTableRecord
  2
DIVIDETINY
 70
    0
  3
Divide (.15x) __..__..__..__..__..__..__..__.._
 72
   65
 73
    6
 40
4.7625
 49
1.905
 74
    0
 49
-0.9525
 74
    0
 49
0
 74
    0
 49
-0.9525
 74
    0
 49
0
 74
    0
 49
-0.9525
 74
    0
  0
LTYPE
  5
40
330
5
100
AcDbSymbolTableRecord
100
AcDbLinetypeTableRecord
  2
DIVIDE2
 70
    0
  3
Divide (.5x) __..__..__..__..__..__..__..__.._
 72
   65
 73
    6
 40
15.875
 49
6.35
 74
    0
 49
-3.175
 74
    0
 49
0
 74
    0
 49
-3.175
 74
    0
 49
0
 74
    0
 49
-3.175
 74
    0
  0
LTYPE
  5
41
330
5
100
AcDbSymbolTableRecord
100
AcDbLinetypeTableRecord
  2
DIVIDEX2
 70
    0
  3
Divide (2x) ________  .  .  ________  .  .  _
 72
   65
 73
    6
 40
63.5
 49
25.4
 74
    0
 49
-12.7
 74
    0
 49
0
 74
    0
 49
-12.7
 74
    0
 49
0
 74
    0
 49
-12.7
 74
    0
  0
LTYPE
  5
42
330
5
100
AcDbSymbolTableRecord
100
AcDbLinetypeTableRecord
  2
BORDER
 70
    0
  3
Border __ __ . __ __ . __ __ . __ __ . __ __ .
 72
   65
 73
    6
 40
44.45
 49
12.7
 74
    0
 49
-6.35
 74
    0
 49
12.7
 74
    0
 49
-6.35
 74
    0
 49
0
 74
    0
 49
-6.35
 74
    0
  0
LTYPE
  5
43
330
5
100
AcDbSymbolTableRecord
100
AcDbLinetypeTableRecord
  2
BORDERTINY
 70
    0
  3
Border (.15x) __.__.__.__.__.__.__.__.__.__.__.
 72
   65
 73
    6
 40
6.6675
 49
1.905
 74
    0
 49
-0.9525
 74
    0
 49
1.905
 74
    0
 49
-0.9525
 74
    0
 49
0
 74
    0
 49
-0.9525
 74
    0
  0
LTYPE
  5
44
330
5
100
AcDbSymbolTableRecord
100
AcDbLinetypeTableRecord
  2
BORDER2
 70
    0
  3
Border (.5x) __.__.__.__.__.__.__.__.__.__.__.
 72
   65
 73
    6
 40
22.225
 49
6.35
 74
    0
 49
-3.175
 74
    0
 49
6.35
 74
    0
 49
-3.175
 74
    0
 49
0
 74
    0
 49
-3.175
 74
    0
  0
LTYPE
  5
45
330
5
100
AcDbSymbolTableRecord
100
AcDbLinetypeTableRecord
  2
BORDERX2
 70
    0
  3
Border (2x) ____  ____  .  ____  ____  .  ___
 72
   65
 73
    6
 40
88.89999999999999
 49
25.4
 74
    0
 49
-12.7
 74
    0
 49
25.4
 74
    0
 49
-12.7
 74
    0
 49
0
 74
    0
 49
-12.7
 74
    0
  0
LTYPE
  5
46
330
5
100
AcDbSymbolTableRecord
100
AcDbLinetypeTableRecord
  2
CENTER
 70
    0
  3
Center ____ _ ____ _ ____ _ ____ _ ____ _ ____
 72
   65
 73
    4
 40
50.8
 49
31.75
 74
    0
 49
-6.35
 74
    0
 49
6.35
 74
    0
 49
-6.35
 74
    0
  0
LTYPE
  5
47
330
5
100
AcDbSymbolTableRecord
100
AcDbLinetypeTableRecord
  2
CENTERTINY
 70
    0
  3
Center (.15x) ___ _ ___ _ ___ _ ___ _ ___ _ ___
 72
   65
 73
    4
 40
7.619999999999999
 49
4.7625
 74
    0
 49
-0.9525
 74
    0
 49
0.9525
 74
    0
 49
-0.9525
 74
    0
  0
LTYPE
  5
48
330
5
100
AcDbSymbolTableRecord
100
AcDbLinetypeTableRecord
  2
CENTER2
 70
    0
  3
Center (.5x) ___ _ ___ _ ___ _ ___ _ ___ _ ___
 72
   65
 73
    4
 40
28.575
 49
19.05
 74
    0
 49
-3.175
 74
    0
 49
3.175
 74
    0
 49
-3.175
 74
    0
  0
LTYPE
  5
49
330
5
100
AcDbSymbolTableRecord
100
AcDbLinetypeTableRecord
  2
CENTERX2
 70
    0
  3
Center (2x) ________  __  ________  __  _____
 72
   65
 73
    4
 40
101.6
 49
63.5
 74
    0
 49
-12.7
 74
    0
 49
12.7
 74
    0
 49
-12.7
 74
    0
  0
ENDTAB
  0
TABLE
  2
LAYER
  5
2
330
0
100
AcDbSymbolTable
 70
    1
  0
LAYER
  5
10
330
2
100
AcDbSymbolTableRecord
100
AcDbLayerTableRecord
  2
0
 70
    0
 62
    7
  6
CONTINUOUS
370
   -3
390
F
  0
ENDTAB
  0
TABLE
  2
STYLE
  5
3
330
0
100
AcDbSymbolTable
 70
    3
  0
STYLE
  5
4A
330
2
100
AcDbSymbolTableRecord
100
AcDbTextStyleTableRecord
  2
Standard
 70
    0
 40
0
 41
1
 50
0
 71
    0
 42
1
  3
txt
  4

  0
ENDTAB
  0
TABLE
  2
VIEW
  5
6
330
0
100
AcDbSymbolTable
 70
    0
  0
ENDTAB
  0
TABLE
  2
UCS
  5
7
330
0
100
AcDbSymbolTable
 70
    0
  0
ENDTAB
  0
TABLE
  2
APPID
  5
9
330
0
100
AcDbSymbolTable
 70
    1
  0
APPID
  5
12
330
9
100
AcDbSymbolTableRecord
100
AcDbRegAppTableRecord
  2
ACAD
 70
    0
  0
APPID
  5
4B
330
9
100
AcDbSymbolTableRecord
100
AcDbRegAppTableRecord
  2
LibreCad
 70
    0
  0
ENDTAB
  0
TABLE
  2
DIMSTYLE
  5
A
330
0
100
AcDbSymbolTable
 70
    1
100
AcDbDimStyleTable
 71
    1
  0
DIMSTYLE
105
4C
330
A
100
AcDbSymbolTableRecord
100
AcDbDimStyleTableRecord
  2
Standard
 70
    0
 40
2.5
 41
2.5
 42
0.625
 43
0.38
 44
1.25
 45
0
 46
0
 47
0
 48
0
 49
1
140
2.5
141
0.09
142
0
143
25.4
144
1
145
0
146
1
147
0.625
148
0
 71
    0
 72
    0
 73
    0
 74
    1
 75
    0
 76
    0
 77
    0
 78
    8
 79
    0
170
    0
171
    2
172
    0
173
    0
174
    0
175
    0
176
    0
177
    0
178
    0
179
    0
271
    4
272
    4
273
    2
274
    2
275
    0
276
    0
277
    2
278
   44
279
    0
280
    0
281
    0
282
    0
283
    1
284
    0
285
    0
286
    0
288
    0
289
    3
340
standard
341

371
   -2
372
   -2
  0
ENDTAB
  0
TABLE
  2
BLOCK_RECORD
  5
1
330
0
100
AcDbSymbolTable
 70
    2
  0
BLOCK_RECORD
  5
1F
330
1
100
AcDbSymbolTableRecord
100
AcDbBlockTableRecord
  2
*Model_Space
 70
    0
280
    1
281
    0
  0
BLOCK_RECORD
  5
1E
330
1
100
AcDbSymbolTableRecord
100
AcDbBlockTableRecord
  2
*Paper_Space
 70
    0
280
    1
281
    0
  0
BLOCK_RECORD
  5
4D
330
1
100
AcDbSymbolTableRecord
100
AcDbBlockTableRecord
  2
front_frame
 70
    0
280
    1
281
    0
  0
BLOCK_RECORD
  5
50
330
1
100
AcDbSymbolTableRecord
100
AcDbBlockTableRecord
  2
left_frame
 70
    0
280
    1
281
    0
  0
BLOCK_RECORD
  5
53
330
1
100
AcDbSymbolTableRecord
100
AcDbBlockTableRecord
  2
right_frame
 70
    0
280
    1
281
    0
  0
BLOCK_RECORD
  5
56
330
1
100
AcDbSymbolTableRecord
100
AcDbBlockTableRecord
  2
base_frame_reinforcement
 70
    0
280
    1
281
    0
  0
BLOCK_RECORD
  5
59
330
1
100
AcDbSymbolTableRecord
100
AcDbBlockTableRecord
  2
spool_holder_bracket
 70
    0
280
    1
281
    0
  0
BLOCK_RECORD
  5
5C
330
1
100
AcDbSymbolTableRecord
100
AcDbBlockTableRecord
  2
print_bed_bearing_clamp
 70
    0
280
    1
281
    0
  0
BLOCK_RECORD
  5
5F
330
1
100
AcDbSymbolTableRecord
100
AcDbBlockTableRecord
  2
Y_axis_base
 70
    0
280
    1
281
    0
  0
BLOCK_RECORD
  5
62
330
1
100
AcDbSymbolTableRecord
100
AcDbBlockTableRecord
  2
Y_axis_idler
 70
    0
280
    1
281
    0
  0
BLOCK_RECORD
  5
65
330
1
100
AcDbSymbolTableRecord
100
AcDbBlockTableRecord
  2
Y_axis_rod_end
 70
    0
280
    1
281
    0
  0
BLOCK_RECORD
  5
68
330
1
100
AcDbSymbolTableRecord
100
AcDbBlockTableRecord
  2
NEMA17_fixing_plate_Y_axis
 70
    0
280
    1
281
    0
  0
BLOCK_RECORD
  5
6B
330
1
100
AcDbSymbolTableRecord
100
AcDbBlockTableRecord
  2
Z_axis_top_rod_end
 70
    0
280
    1
281
    0
  0
BLOCK_RECORD
  5
6E
330
1
100
AcDbSymbolTableRecord
100
AcDbBlockTableRecord
  2
Z_axis_top
 70
    0
280
    1
281
    0
  0
BLOCK_RECORD
  5
71
330
1
100
AcDbSymbolTableRecord
100
AcDbBlockTableRecord
  2
NEMA17_fixing_plate_Z_axis
 70
    0
280
    1
281
    0
  0
BLOCK_RECORD
  5
74
330
1
100
AcDbSymbolTableRecord
100
AcDbBlockTableRecord
  2
NEMA17_fixing_plate_support
 70
    0
280
    1
281
    0
  0
BLOCK_RECORD
  5
77
330
1
100
AcDbSymbolTableRecord
100
AcDbBlockTableRecord
  2
print_bed
 70
    0
280
    1
281
    0
  0
BLOCK_RECORD
  5
7A
330
1
100
AcDbSymbolTableRecord
100
AcDbBlockTableRecord
  2
adapter
 70
    0
280
    1
281
    0
  0
ENDTAB
  0
ENDSEC
  0
SECTION
  2
BLOCKS
  0
BLOCK
  5
20
330
1F
100
AcDbEntity
  8
0
100
AcDbBlockBegin
  2
*Model_Space
 70
    0
 10
0
 20
0
 30
0
  3
*Model_Space
  1

  0
ENDBLK
  5
21
330
1F
100
AcDbEntity
  8
0
100
AcDbBlockEnd
  0
BLOCK
  5
1C
330
1B
100
AcDbEntity
  8
0
100
AcDbBlockBegin
  2
*Paper_Space
 70
    0
 10
0
 20
0
 30
0
  3
*Paper_Space
  1

  0
ENDBLK
  5
1D
330
1F
100
AcDbEntity
  8
0
100
AcDbBlockEnd
  0
BLOCK
  5
4E
330
4D
100
AcDbEntity
  8
0
100
AcDbBlockBegin
  2
front_frame
 70
    0
 10
0
 20
0
  3
front_frame
  1

  0
LWPOLYLINE
  5
7D
100
AcDbEntity
  8
0
  6
ByLayer
 62
    0
370
   -1
100
AcDbPolyline
 90
    6
 70
    1
 43
0
 10
106.2196996202368
 20
134.5343467685933
 42
0.5773502691899851
 10
101.7196996202368
 20
137.1324227685932
 10
72.79269962023693
 20
120.4314117685932
 42
0.577350269189995
 10
72.79269962023682
 20
115.2352587685933
 10
101.7196996202368
 20
98.53424776859327
 42
0.5773502691899823
 10
106.2196996202368
 20
101.1323237685933
  0
LWPOLYLINE
  5
7E
100
AcDbEntity
  8
0
  6
ByLayer
 62
    0
370
   -1
100
AcDbPolyline
 90
    6
 70
    1
 43
0
 10
75.79269962023699
 20
148.5333017685933
 42
-0.5773502691899832
 10
71.29269962023693
 20
151.1313777685933
 10
71.29269962023693
 20
184.5334007685933
 42
-0.5773502691899965
 10
75.79269962023699
 20
187.1314767685932
 10
104.719699620237
 20
170.4304657685933
 42
-0.5773502691899959
 10
104.7196996202368
 20
165.2343127685933
  0
LWPOLYLINE
  5
7F
100
AcDbEntity
  8
0
  6
ByLayer
 62
    0
370
   -1
100
AcDbPolyline
 90
    6
 70
    1
 43
0
 10
106.2196996202368
 20
234.5343467685933
 42
0.5773502691899851
 10
101.7196996202368
 20
237.1324227685932
 10
72.79269962023699
 20
220.4314117685933
 42
0.5773502691899957
 10
72.79269962023682
 20
215.2352587685933
 10
101.7196996202368
 20
198.5342477685933
 42
0.5773502691899852
 10
106.2196996202368
 20
201.1323237685933
  0
LWPOLYLINE
  5
80
100
AcDbEntity
  8
0
  6
ByLayer
 62
    0
370
   -1
100
AcDbPolyline
 90
    6
 70
    1
 43
0
 10
75.79269962023699
 20
248.5333017685933
 42
-0.5773502691899921
 10
71.29269962023699
 20
251.1313777685934
 10
71.29269962023699
 20
284.5334007685933
 42
-0.5773502691899864
 10
75.79269962023699
 20
287.1314767685932
 10
104.7196996202368
 20
270.4304657685933
 42
-0.5773502691899939
 10
104.7196996202368
 20
265.2343127685934
  0
LWPOLYLINE
  5
81
100
AcDbEntity
  8
0
  6
ByLayer
 62
    0
370
   -1
100
AcDbPolyline
 90
    6
 70
    1
 43
0
 10
72.79269962023699
 20
320.4314117685933
 42
0.5773502691899939
 10
72.79269962023687
 20
315.2352587685934
 10
101.7196996202368
 20
298.5342477685933
 42
0.5773502691899856
 10
106.2196996202368
 20
301.1323237685934
 10
106.2196996202368
 20
334.5343467685933
 42
0.5773502691899864
 10
101.7196996202368
 20
337.1324227685932
  0
LWPOLYLINE
  5
82
100
AcDbEntity
  8
0
  6
ByLayer
 62
    0
370
   -1
100
AcDbPolyline
 90
    6
 70
    1
 43
0
 10
71.29269962023699
 20
364.8323897685933
 42
-0.4142135580070034
 10
74.29269962023699
 20
367.8323897685933
 10
98.02354762023685
 20
367.8323897685933
 42
-0.7673269938990095
 10
99.52354762023674
 20
362.2343137685934
 10
75.79269962023697
 20
348.5333017685933
 42
-0.5773502691899843
 10
71.292699620237
 20
351.1313777685934
  0
LWPOLYLINE
  5
83
100
AcDbEntity
  8
0
  6
ByLayer
 62
    0
370
   -1
100
AcDbPolyline
 90
    6
 70
    1
 43
0
 10
153.8393666202369
 20
362.3006637685933
 42
0.5773502691899897
 10
157.3467706202367
 20
362.3006637685933
 10
168.619952620237
 20
381.8263887685932
 42
0.5773502691900845
 10
166.8662516202369
 20
384.8638887685933
 10
144.3198856202368
 20
384.8638887685933
 42
0.5773502691899959
 10
142.566184620237
 20
381.8263887685933
  0
LWPOLYLINE
  5
84
100
AcDbEntity
  8
0
  6
ByLayer
 62
    0
370
   -1
100
AcDbPolyline
 90
    6
 70
    1
 43
0
 10
201.385750620237
 20
383.8513887685932
 42
-0.5773502691900152
 10
204.8931546202369
 20
383.8513887685932
 10
216.166336620237
 20
364.3256637685932
 42
-0.5773502691899879
 10
214.4126356202369
 20
361.2881637685933
 10
191.8662706202368
 20
361.2881637685933
 42
-0.5773502691900048
 10
190.1125686202369
 20
364.3256637685933
  0
LWPOLYLINE
  5
85
100
AcDbEntity
  8
0
  6
ByLayer
 62
    0
370
   -1
100
AcDbPolyline
 90
    6
 70
    1
 43
0
 10
243.8857316202369
 20
362.3006637685932
 42
0.5773502691899897
 10
247.3931356202369
 20
362.3006637685932
 10
258.6663176202369
 20
381.8263887685932
 42
0.5773502691900809
 10
256.9126166202369
 20
384.8638887685933
 10
234.366251620237
 20
384.8638887685932
 42
0.5773502691900738
 10
232.6125496202369
 20
381.8263887685932
  0
LWPOLYLINE
  5
86
100
AcDbEntity
  8
0
  6
ByLayer
 62
    0
370
   -1
100
AcDbPolyline
 90
    6
 70
    1
 43
0
 10
276.874819620237
 20
361.2881637685932
 42
-0.5773502691900037
 10
275.1211176202369
 20
364.3256637685932
 10
286.3942996202368
 20
383.8513887685932
 42
-0.5773502691899968
 10
289.9017036202371
 20
383.8513887685932
 10
301.174885620237
 20
364.3256637685932
 42
-0.5773502691899998
 10
299.4211846202368
 20
361.2881637685933
  0
LWPOLYLINE
  5
87
100
AcDbEntity
  8
0
  6
ByLayer
 62
    0
370
   -1
100
AcDbPolyline
 90
    6
 70
    1
 43
0
 10
319.3748006202367
 20
384.8638887685933
 42
0.5773502691900001
 10
317.6210986202371
 20
381.8263887685932
 10
328.8942806202368
 20
362.3006637685932
 42
0.577350269189985
 10
332.4016846202368
 20
362.3006637685932
 10
343.6748666202369
 20
381.8263887685932
 42
0.5773502691900193
 10
341.9211656202368
 20
384.8638887685933
  0
LWPOLYLINE
  5
88
100
AcDbEntity
  8
0
  6
ByLayer
 62
    0
370
   -1
100
AcDbPolyline
 90
    6
 70
    1
 43
0
 10
420.0033426202368
 20
364.8323897685932
 42
0.4142135580070033
 10
417.0033426202368
 20
367.8323897685932
 10
393.2724936202369
 20
367.8323897685932
 42
0.7673269938989929
 10
391.7724936202369
 20
362.2343137685932
 10
415.5033426202368
 20
348.5333017685932
 42
0.5773502691899962
 10
420.0033426202368
 20
351.1313777685932
  0
LWPOLYLINE
  5
89
100
AcDbEntity
  8
0
  6
ByLayer
 62
    0
370
   -1
100
AcDbPolyline
 90
    6
 70
    1
 43
0
 10
418.5033426202368
 20
320.4314117685932
 42
-0.5773502691899968
 10
418.5033426202368
 20
315.2352587685932
 10
389.5763426202369
 20
298.5342477685933
 42
-0.577350269189993
 10
385.0763426202369
 20
301.1323237685933
 10
385.0763426202368
 20
334.5343467685932
 42
-0.5773502691899922
 10
389.5763426202369
 20
337.1324227685932
  0
LWPOLYLINE
  5
8A
100
AcDbEntity
  8
0
  6
ByLayer
 62
    0
370
   -1
100
AcDbPolyline
 90
    6
 70
    1
 43
0
 10
415.5033426202369
 20
248.5332537685933
 42
0.5773502691899666
 10
420.0033426202368
 20
251.1313297685933
 10
420.0033426202368
 20
284.5333527685933
 42
0.5773502691899985
 10
415.5033426202368
 20
287.1314287685932
 10
386.5763426202369
 20
270.4304177685934
 42
0.5773502691899922
 10
386.5763426202369
 20
265.2342647685933
  0
LWPOLYLINE
  5
8B
100
AcDbEntity
  8
0
  6
ByLayer
 62
    0
370
   -1
100
AcDbPolyline
 90
    6
 70
    1
 43
0
 10
418.5033426202368
 20
220.4314117685932
 42
-0.5773502691899968
 10
418.5033426202368
 20
215.2352587685932
 10
389.5763426202368
 20
198.5342477685932
 42
-0.5773502691899843
 10
385.0763426202369
 20
201.1323237685932
 10
385.0763426202368
 20
234.5343467685932
 42
-0.5773502691899874
 10
389.5763426202369
 20
237.1324227685932
  0
LWPOLYLINE
  5
8C
100
AcDbEntity
  8
0
  6
ByLayer
 62
    0
370
   -1
100
AcDbPolyline
 90
    6
 70
    1
 43
0
 10
415.5033426202369
 20
148.5333017685932
 42
0.5773502691899403
 10
420.0033426202368
 20
151.1313777685932
 10
420.0033426202368
 20
184.5334007685932
 42
0.5773502691899962
 10
415.5033426202368
 20
187.1314767685932
 10
386.5763426202369
 20
170.4304657685932
 42
0.577350269189997
 10
386.5763426202369
 20
165.2343127685932
  0
LWPOLYLINE
  5
8D
100
AcDbEntity
  8
0
  6
ByLayer
 62
    0
370
   -1
100
AcDbPolyline
 90
    6
 70
    1
 43
0
 10
389.5763426202368
 20
98.53424776859322
 42
-0.5773502691899868
 10
385.0763426202369
 20
101.1323237685932
 10
385.0763426202369
 20
134.5343467685932
 42
-0.5773502691899962
 10
389.5763426202369
 20
137.1324227685932
 10
418.5033426202368
 20
120.4314117685932
 42
-0.577350269189998
 10
418.5033426202368
 20
115.2352587685932
  0
LWPOLYLINE
  5
8E
100
AcDbEntity
  8
0
  6
ByLayer
 62
    0
370
   -1
100
AcDbPolyline
 90
    4
 70
    1
 43
0
 10
351.6480196202368
 20
25.17127376859321
 10
359.6480206202368
 20
25.17127376859321
 42
1.000000051619134
 10
359.6480206202368
 20
33.17127476859309
 10
351.6480196202369
 20
33.17127376859321
 42
0.9999996154461811
  0
LWPOLYLINE
  5
8F
100
AcDbEntity
  8
0
  6
ByLayer
 62
    0
370
   -1
100
AcDbPolyline
 90
    4
 70
    1
 43
0
 10
419.6480206202368
 20
33.17127476859319
 10
411.6480196202369
 20
33.17127376859321
 42
0.9999996154461811
 10
411.6480196202368
 20
25.17127376859321
 10
419.6480206202368
 20
25.1712737685932
 42
1.000000051619134
  0
LWPOLYLINE
  5
90
100
AcDbEntity
  8
0
  6
ByLayer
 62
    0
370
   -1
100
AcDbPolyline
 90
    4
 70
    1
 43
0
 10
139.6480226202369
 20
33.17127476859325
 10
131.6480216202369
 20
33.17127376859325
 42
1.000000051619141
 10
131.6480216202369
 20
25.17127376859325
 10
139.6480226202369
 20
25.17127376859325
 42
0.9999996160240564
  0
LWPOLYLINE
  5
91
100
AcDbEntity
  8
0
  6
ByLayer
 62
    0
370
   -1
100
AcDbPolyline
 90
    4
 70
    1
 43
0
 10
79.64802262023693
 20
33.17127476859326
 10
71.64802162023693
 20
33.17127376859327
 42
1.000000051619137
 10
71.64802162023693
 20
25.17127376859327
 10
79.64802262023693
 20
25.17127376859327
 42
0.9999996160240564
  0
LWPOLYLINE
  5
92
100
AcDbEntity
  8
0
  6
ByLayer
 62
    0
370
   -1
100
AcDbPolyline
 90
   16
 70
    1
 43
0
 10
121.6899716202369
 20
28.22127376859338
 42
0.2679482664649633
 10
121.2569596202368
 20
28.47127176859327
 10
119.6890886202369
 20
28.47127476859337
 42
0.2679491924310027
 10
119.2560756202369
 20
28.22127476859344
 42
-1.303223041599735
 10
118.5730616202367
 20
28.90428676859318
 42
0.2679482664649909
 10
118.8230606202368
 20
29.33729876859324
 10
118.8230636202368
 20
55.00524776859325
 42
0.2679491924310196
 10
118.5730636202368
 20
55.43826076859332
 42
-1.303223041599997
 10
119.256075620237
 20
56.12127476859314
 42
0.2679482664660042
 10
119.6890876202369
 20
55.87127576859312
 10
121.2569546202368
 20
55.87127276859314
 42
0.2679491924309541
 10
121.689966620237
 20
56.12127276859314
 42
-1.303223041600057
 10
122.3729806202368
 20
55.43826176859297
 42
0.2679482664649904
 10
122.1229826202368
 20
55.00524976859326
 10
122.1229826202369
 20
29.33730076859324
 42
0.2679491924309359
 10
122.3729826202368
 20
28.90428776859317
 42
-1.3032230416
  0
LWPOLYLINE
  5
93
100
AcDbEntity
  8
0
  6
ByLayer
 62
    0
370
   -1
100
AcDbPolyline
 90
   16
 70
    1
 43
0
 10
368.9230626202369
 20
55.43826076859327
 42
-1.303223041600084
 10
369.6060746202369
 20
56.12127476859321
 42
0.2679482664649009
 10
370.0390866202368
 20
55.87127576859308
 10
371.6069536202368
 20
55.87127276859307
 42
0.267949192430967
 10
372.039966620237
 20
56.12127276859307
 42
-1.303223041600067
 10
372.722980620237
 20
55.43826176859286
 42
0.2679482664649902
 10
372.472982620237
 20
55.00524976859322
 10
372.4729826202368
 20
29.3373007685932
 42
0.2679491924309638
 10
372.7229826202368
 20
28.9042877685932
 42
-1.303223041600081
 10
372.0399706202367
 20
28.22127376859331
 42
0.2679482664650416
 10
371.6069586202368
 20
28.47127176859328
 10
370.0390886202368
 20
28.47127476859336
 42
0.2679491924309396
 10
369.6060746202369
 20
28.22127476859326
 42
-1.30322304159989
 10
368.9230606202369
 20
28.90428676859303
 42
0.2679482664649919
 10
369.1730596202368
 20
29.3372987685932
 10
369.1730626202368
 20
55.00524776859322
 42
0.2679491924310595
  0
LWPOLYLINE
  5
94
100
AcDbEntity
  8
0
  6
ByLayer
 62
    0
370
   -1
100
AcDbPolyline
 90
   16
 70
    1
 43
0
 10
393.0780216202367
 20
55.00531776859333
 42
-0.2679491924311757
 10
393.3280216202368
 20
55.43833176859334
 42
1.303223041598929
 10
392.6450106202369
 20
56.12134576859324
 42
-0.2679482664649028
 10
392.2119986202368
 20
55.87134676859328
 10
390.6441306202369
 20
55.87134376859317
 42
-0.2679491924309665
 10
390.2111176202366
 20
56.12134376859316
 42
1.303223041600182
 10
389.5281036202366
 20
55.43833176859306
 42
-0.2679482664649717
 10
389.7781026202367
 20
55.00531976859332
 10
389.7781026202367
 20
50.53736976859318
 42
-0.267949192430962
 10
389.5281026202366
 20
50.10435776859307
 42
1.303223041600591
 10
390.2111146202365
 20
49.42134376859308
 42
-0.2679482617890676
 10
390.6441266202368
 20
49.67134176859307
 10
392.2119966202367
 20
49.67134476859308
 42
-0.267949192431002
 10
392.645008620237
 20
49.42134476859312
 42
1.3032230416003
 10
393.3280226202368
 20
50.10435676859319
 42
-0.2679482664650689
 10
393.0780246202368
 20
50.53736876859318
  0
LWPOLYLINE
  5
95
100
AcDbEntity
  8
0
  6
ByLayer
 62
    0
370
   -1
100
AcDbPolyline
 90
   16
 70
    1
 43
0
 10
390.6441266202368
 20
28.47134276859322
 10
392.2119966202368
 20
28.47134576859322
 42
-0.26794919243096
 10
392.6450086202369
 20
28.22134576859321
 42
1.303223041599822
 10
393.3280226202369
 20
28.90435676859329
 42
-0.2679482664649575
 10
393.0780246202369
 20
29.33736876859307
 10
393.0780216202369
 20
33.8053187685931
 42
-0.2679491924309915
 10
393.3280216202369
 20
34.23833176859321
 42
1.303223041600087
 10
392.6450106202369
 20
34.92134576859306
 42
-0.2679482664649162
 10
392.2119986202368
 20
34.67134676859342
 10
390.6441306202369
 20
34.67134376859309
 42
-0.2679491924310108
 10
390.211117620237
 20
34.92134376859304
 42
1.303223041600629
 10
389.5281036202371
 20
34.23833276859332
 42
-0.2679482664649934
 10
389.7781026202368
 20
33.80532076859322
 10
389.778102620237
 20
29.33737076859313
 42
-0.2679491924310088
 10
389.5281026202368
 20
28.90435876859324
 42
1.303223041600199
 10
390.2111146202371
 20
28.22134476859317
 42
-0.2679482664649646
  0
LWPOLYLINE
  5
96
100
AcDbEntity
  8
0
  6
ByLayer
 62
    0
370
   -1
100
AcDbPolyline
 90
   16
 70
    1
 43
0
 10
403.1140486202368
 20
67.16631876859321
 10
407.5819986202368
 20
67.16632176859321
 42
-0.2679491924729757
 10
408.0150106202368
 20
66.91632176859321
 42
1.30322302982005
 10
408.6980246202368
 20
67.59933376859328
 42
-0.267948266464976
 10
408.4480266202369
 20
68.03234576859313
 10
408.4480236202369
 20
69.60021276859322
 42
-0.2679491924308488
 10
408.6980236202368
 20
70.03322676859308
 42
1.303223041600435
 10
408.0150116202365
 20
70.71624076859312
 42
-0.2679482664229489
 10
407.5819996202368
 20
70.46624176859318
 10
403.1140506202368
 20
70.46624076859308
 42
-0.2679491924739845
 10
402.681036620237
 20
70.71624076859312
 42
1.30322304159997
 10
401.9980226202367
 20
70.03322876859326
 42
-0.267948266465011
 10
402.2480216202368
 20
69.60021676859321
 10
402.2480256202367
 20
68.03234676859313
 42
-0.2679491924309282
 10
401.9980256202368
 20
67.59933376859338
 42
1.303223041600016
 10
402.681036620237
 20
66.91632076859335
 42
-0.2679482664230263
  0
LWPOLYLINE
  5
97
100
AcDbEntity
  8
0
  6
ByLayer
 62
    0
370
   -1
100
AcDbPolyline
 90
   16
 70
    1
 43
0
 10
428.7819986202368
 20
67.16632476859324
 42
-0.2679491924729621
 10
429.215010620237
 20
66.91632476859307
 42
1.303223041599519
 10
429.8980246202367
 20
67.59933676859332
 42
-0.2679482664650288
 10
429.6480266202369
 20
68.03234876859311
 10
429.6480236202367
 20
69.6002157685932
 42
-0.2679491924309739
 10
429.8980226202369
 20
70.03322976859326
 42
1.303223029819981
 10
429.2150116202369
 20
70.71624376859315
 42
-0.2679482664230508
 10
428.7819996202369
 20
70.46624476859313
 10
424.3140496202369
 20
70.46624376859313
 42
-0.2679491924740328
 10
423.881036620237
 20
70.71624376859315
 42
1.303223029820022
 10
423.1980226202367
 20
70.03323176859324
 42
-0.2679482664649582
 10
423.4480216202367
 20
69.60021976859319
 10
423.4480246202367
 20
68.03234976859311
 42
-0.2679491924309739
 10
423.1980246202368
 20
67.59933676859329
 42
1.30322302982019
 10
423.8810366202371
 20
66.91632376859316
 42
-0.2679482664229394
 10
424.3140486202368
 20
67.16632176859319
  0
LWPOLYLINE
  5
98
100
AcDbEntity
  8
0
  6
ByLayer
 62
    0
370
   -1
100
AcDbPolyline
 90
   16
 70
    1
 43
0
 10
442.1180216202368
 20
55.00532476859307
 42
-0.2679491924309633
 10
442.3680216202371
 20
55.43833876859296
 42
1.303223041599443
 10
441.6850106202369
 20
56.12135276859328
 42
-0.2679482664651006
 10
441.2519986202368
 20
55.87135376859321
 10
439.6841306202368
 20
55.8713507685932
 42
-0.2679491924310265
 10
439.2511176202369
 20
56.12135076859318
 42
1.30322304160007
 10
438.5681036202369
 20
55.43833876859333
 42
-0.2679482664650162
 10
438.8181026202368
 20
55.00532676859305
 10
438.8181026202368
 20
50.53737676859332
 42
-0.2679491924309729
 10
438.5681026202368
 20
50.10436476859331
 42
1.303223041599925
 10
439.2511146202369
 20
49.42135076859309
 42
-0.2679482664649732
 10
439.6841266202368
 20
49.67134876859311
 10
441.2519966202368
 20
49.67135176859313
 42
-0.2679491924309829
 10
441.6850086202372
 20
49.42135176859312
 42
1.303223041598761
 10
442.368022620237
 20
50.10436376859314
 42
-0.2679482664650802
 10
442.1180246202367
 20
50.53737576859325
  0
LWPOLYLINE
  5
99
100
AcDbEntity
  8
0
  6
ByLayer
 62
    0
370
   -1
100
AcDbPolyline
 90
   16
 70
    1
 43
0
 10
442.3680216202368
 20
34.23833876859329
 42
1.303223041599915
 10
441.6850106202368
 20
34.92135276859312
 42
-0.2679482664650035
 10
441.2519986202368
 20
34.67135376859299
 10
439.6841306202368
 20
34.6713507685931
 42
-0.2679491924310426
 10
439.2511176202368
 20
34.9213507685931
 42
1.303223041599837
 10
438.5681036202369
 20
34.23833976859284
 42
-0.2679482617889773
 10
438.8181026202369
 20
33.80532776859319
 10
438.8181026202369
 20
29.3373777685931
 42
-0.2679491924310298
 10
438.568102620237
 20
28.90436576859311
 42
1.303223041600059
 10
439.2511146202369
 20
28.22135176859317
 42
-0.2679482664649699
 10
439.6841266202368
 20
28.47134976859319
 10
441.2519966202369
 20
28.47135276859316
 42
-0.2679491924310117
 10
441.6850086202369
 20
28.22135276859319
 42
1.303223041601355
 10
442.368022620237
 20
28.90436376859333
 42
-0.2679482664649541
 10
442.1180246202368
 20
29.33737576859311
 10
442.1180216202368
 20
33.80532576859319
 42
-0.2679491924310519
  0
LWPOLYLINE
  5
9A
100
AcDbEntity
  8
0
  6
ByLayer
 62
    0
370
   -1
100
AcDbPolyline
 90
   16
 70
    1
 43
0
 10
100.6519556202369
 20
55.87127276859312
 42
0.2679491924309696
 10
101.0849686202369
 20
56.12127276859314
 42
-1.303223041599816
 10
101.7679826202369
 20
55.43826176859324
 42
0.2679482664650066
 10
101.5179846202369
 20
55.00524976859327
 10
101.5179846202369
 20
50.53729976859317
 42
0.2679491924309894
 10
101.7679846202369
 20
50.10428776859332
 42
-1.303223041600468
 10
101.0849726202368
 20
49.42127376859327
 42
0.2679482664649906
 10
100.6519606202369
 20
49.67127176859326
 10
99.08409062023679
 20
49.67127476859326
 42
0.2679491924309846
 10
98.65107662023695
 20
49.42127476859324
 42
-1.303223041600643
 10
97.96806262023688
 20
50.10428576859333
 42
0.2679482617889337
 10
98.21806162023688
 20
50.53729776859318
 10
98.21806462023687
 20
55.00524776859328
 42
0.2679491924309691
 10
97.96806462023699
 20
55.43826076859332
 42
-1.303223041600815
 10
98.65107662023706
 20
56.12127476859314
 42
0.267948266465995
 10
99.0840886202368
 20
55.87127576859314
  0
LWPOLYLINE
  5
9B
100
AcDbEntity
  8
0
  6
ByLayer
 62
    0
370
   -1
100
AcDbPolyline
 90
   16
 70
    1
 43
0
 10
98.21806162023688
 20
29.33729876859326
 10
98.21806462023676
 20
33.80524876859329
 42
0.2679491924309667
 10
97.96806462023676
 20
34.23826176859308
 42
-1.303223041600093
 10
98.65107662023684
 20
34.92127576859325
 42
0.2679482664660042
 10
99.0840886202368
 20
34.67127676859313
 10
100.6519556202369
 20
34.67127376859325
 42
0.267949192430982
 10
101.0849686202367
 20
34.92127376859325
 42
-1.303223041600114
 10
101.7679826202368
 20
34.23826176859356
 42
0.2679482664650127
 10
101.5179846202369
 20
33.80524976859333
 10
101.5179846202368
 20
29.33730076859324
 42
0.2679491924309759
 10
101.767984620237
 20
28.90428776859317
 42
-1.30322304160039
 10
101.0849726202367
 20
28.22127376859338
 42
0.2679482664650037
 10
100.6519606202368
 20
28.47127176859333
 10
99.08409062023679
 20
28.47127476859337
 42
0.2679491924309741
 10
98.65107662023684
 20
28.22127476859337
 42
-1.303223041600162
 10
97.96806262023688
 20
28.90428676859318
 42
0.2679482664649943
  0
LWPOLYLINE
  5
9C
100
AcDbEntity
  8
0
  6
ByLayer
 62
    0
370
   -1
100
AcDbPolyline
 90
   16
 70
    1
 43
0
 10
88.18199062023689
 20
67.16631376859317
 10
83.7140406202368
 20
67.16631676859328
 42
0.2679491924309708
 10
83.28102762023673
 20
66.91631676859328
 42
-1.303223041599826
 10
82.59801362023677
 20
67.59932876859327
 42
0.2679482664649997
 10
82.84801262023689
 20
68.03234076859314
 10
82.84801562023677
 20
69.60020776859318
 42
0.2679491924309853
 10
82.59801562023688
 20
70.03322076859327
 42
-1.303223041600066
 10
83.28102662023696
 20
70.71623476859338
 42
0.2679482664649638
 10
83.71403862023692
 20
70.46623576859349
 10
88.18198862023689
 20
70.46623576859315
 42
0.267949192430967
 10
88.61500162023697
 20
70.71623576859315
 42
-1.30322304159974
 10
89.29801562023692
 20
70.03322476859324
 42
0.2679482664650009
 10
89.04801762023692
 20
69.60021276859328
 10
89.04801462023681
 20
68.03234176859314
 42
0.2679491924309582
 10
89.29801462023693
 20
67.59932976859324
 42
-1.303223041600091
 10
88.61500262023674
 20
66.91631576859328
 42
0.2679482664649847
  0
LWPOLYLINE
  5
9D
100
AcDbEntity
  8
0
  6
ByLayer
 62
    0
370
   -1
100
AcDbPolyline
 90
   16
 70
    1
 43
0
 10
61.39801362023678
 20
67.59932876859324
 42
0.2679482664650119
 10
61.64801262023678
 20
68.03234076859314
 10
61.64801562023683
 20
69.60020776859318
 42
0.2679491924309663
 10
61.39801562023689
 20
70.03322076859327
 42
-1.303223041600134
 10
62.08102762023697
 20
70.7162347685934
 42
0.2679482664649309
 10
62.51403962023682
 20
70.46623576859348
 10
66.98198962023679
 20
70.46623576859314
 42
0.2679491924309975
 10
67.41500162023704
 20
70.71623576859315
 42
-1.30322304159978
 10
68.09801562023694
 20
70.03322476859324
 42
0.2679482664649941
 10
67.84801762023682
 20
69.60021276859328
 10
67.84801462023682
 20
68.03234176859314
 42
0.2679491924309629
 10
68.09801462023688
 20
67.59932976859325
 42
-1.303223041600103
 10
67.41500362023692
 20
66.91631576859328
 42
0.2679482664649971
 10
66.98199162023678
 20
67.16631376859317
 10
62.51404162023698
 20
67.16631676859328
 42
0.2679491924309746
 10
62.0810276202368
 20
66.91631676859328
 42
-1.303223041599824
  0
LWPOLYLINE
  5
9E
100
AcDbEntity
  8
0
  6
ByLayer
 62
    0
370
   -1
100
AcDbPolyline
 90
   16
 70
    1
 43
0
 10
52.47798462023678
 20
50.53729976859319
 42
0.2679491924309846
 10
52.72798462023678
 20
50.10428776859334
 42
-1.303223041600201
 10
52.04497262023699
 20
49.42127376859327
 42
0.2679482664650444
 10
51.6119606202368
 20
49.67127176859327
 10
50.04409062023683
 20
49.67127476859326
 42
0.2679491924309884
 10
49.61107662023693
 20
49.42127476859338
 42
-1.303223041600601
 10
48.9280626202368
 20
50.10428576859334
 42
0.2679482617889523
 10
49.17806162023692
 20
50.53729776859319
 10
49.1780646202368
 20
55.00524776859328
 42
0.2679491924310034
 10
48.92806462023702
 20
55.43826076859335
 42
-1.303223041600296
 10
49.61107662023687
 20
56.12127476859314
 42
0.2679482664659457
 10
50.04408862023683
 20
55.87127576859314
 10
51.61195562023693
 20
55.87127276859312
 42
0.2679491924309874
 10
52.04496862023694
 20
56.12127276859314
 42
-1.30322304159982
 10
52.7279826202369
 20
55.43826176859321
 42
0.2679482664649821
 10
52.47798462023678
 20
55.00524976859327
  0
LWPOLYLINE
  5
9F
100
AcDbEntity
  8
0
  6
ByLayer
 62
    0
370
   -1
100
AcDbPolyline
 90
   16
 70
    1
 43
0
 10
121.2570006202369
 20
105.8713437685932
 10
119.6891326202369
 20
105.8713407685932
 42
-0.2679491924309772
 10
119.2561196202369
 20
106.1213407685932
 42
1.30322304160034
 10
118.5731056202367
 20
105.4383287685932
 42
-0.2679482664650355
 10
118.8231046202369
 20
105.0053167685933
 10
118.8231046202368
 20
100.5373677685932
 42
-0.267949192430971
 10
118.5731046202369
 20
100.1043547685933
 42
1.303223041600296
 10
119.256116620237
 20
99.42134076859332
 42
-0.2679482664650115
 10
119.6891286202368
 20
99.67133876859336
 10
121.2569986202368
 20
99.67134176859315
 42
-0.267949192430976
 10
121.6900106202369
 20
99.42134176859315
 42
1.303223041599774
 10
122.3730246202368
 20
100.1043537685932
 42
-0.2679482664649349
 10
122.1230266202368
 20
100.5373657685932
 10
122.1230236202369
 20
105.0053157685933
 42
-0.2679491924309583
 10
122.3730236202368
 20
105.4383287685931
 42
1.30322304160014
 10
121.6900126202369
 20
106.1213427685932
 42
-0.2679482664660442
  0
LWPOLYLINE
  5
A0
100
AcDbEntity
  8
0
  6
ByLayer
 62
    0
370
   -1
100
AcDbPolyline
 90
   16
 70
    1
 43
0
 10
121.2570006202369
 20
84.67134476859313
 10
119.6891326202369
 20
84.67134176859312
 42
-0.2679491924309874
 10
119.2561196202369
 20
84.92134176859312
 42
1.303223041600225
 10
118.5731056202368
 20
84.23832976859319
 42
-0.267948266464958
 10
118.8231046202369
 20
83.80531776859316
 10
118.8231046202369
 20
79.33736776859313
 42
-0.2679491924309703
 10
118.5731046202368
 20
78.90435576859326
 42
1.303223041600146
 10
119.256116620237
 20
78.22134176859326
 42
-0.2679482617889611
 10
119.6891286202368
 20
78.47133976859304
 10
121.2569986202368
 20
78.47134276859326
 42
-0.267949192430976
 10
121.6900106202369
 20
78.22134276859326
 42
1.303223041600493
 10
122.3730246202368
 20
78.90435376859325
 42
-0.2679482664649551
 10
122.1230266202368
 20
79.33736576859313
 10
122.1230236202369
 20
83.80531576859316
 42
-0.2679491924310372
 10
122.3730236202368
 20
84.23832976859333
 42
1.303223041600423
 10
121.690012620237
 20
84.92134376859313
 42
-0.2679482664648762
  0
LWPOLYLINE
  5
A1
100
AcDbEntity
  8
0
  6
ByLayer
 62
    0
370
   -1
100
AcDbPolyline
 90
   16
 70
    1
 43
0
 10
122.3729806202368
 20
204.2382697685932
 42
0.2679482664650123
 10
122.1229826202368
 20
203.8052577685932
 10
122.1229826202369
 20
199.3373077685933
 42
0.2679491924308404
 10
122.3729826202368
 20
198.9042957685934
 42
-1.303223041599613
 10
121.6899716202369
 20
198.2212817685931
 42
0.2679482664649505
 10
121.2569596202368
 20
198.4712797685931
 10
119.6890886202369
 20
198.4712827685931
 42
0.2679491924309874
 10
119.2560756202369
 20
198.2212827685931
 42
-1.303223041599519
 10
118.5730616202367
 20
198.9042937685933
 42
0.2679482664650357
 10
118.8230606202368
 20
199.3373057685932
 10
118.8230636202368
 20
203.8052557685934
 42
0.2679491924310038
 10
118.5730636202368
 20
204.2382697685931
 42
-1.303223041599536
 10
119.2560756202366
 20
204.9212837685932
 42
0.2679482664661323
 10
119.6890876202369
 20
204.6712847685932
 10
121.2569546202368
 20
204.6712817685932
 42
0.267949192430947
 10
121.689966620237
 20
204.9212817685932
 42
-1.303223041601004
  0
LWPOLYLINE
  5
A2
100
AcDbEntity
  8
0
  6
ByLayer
 62
    0
370
   -1
100
AcDbPolyline
 90
   16
 70
    1
 43
0
 10
122.3729826202369
 20
220.1042947685933
 42
-1.303223041600297
 10
121.689971620237
 20
219.4212807685932
 42
0.267948266465049
 10
121.2569596202368
 20
219.6712787685933
 10
119.6890886202369
 20
219.6712817685932
 42
0.2679491924309853
 10
119.256075620237
 20
219.4212817685932
 42
-1.303223041599647
 10
118.5730616202368
 20
220.1042937685933
 42
0.2679482664650257
 10
118.8230606202368
 20
220.5373057685932
 10
118.8230636202368
 20
225.0052557685933
 42
0.2679491924310424
 10
118.5730636202368
 20
225.4382687685933
 42
-1.303223041599984
 10
119.256075620237
 20
226.1212827685932
 42
0.2679482664660038
 10
119.6890876202369
 20
225.8712837685931
 10
121.2569546202368
 20
225.8712807685932
 42
0.267949192430947
 10
121.689966620237
 20
226.1212807685932
 42
-1.303223041599818
 10
122.3729806202368
 20
225.4382687685932
 42
0.2679482664649271
 10
122.1229826202369
 20
225.0052567685933
 10
122.1229826202368
 20
220.5373077685933
 42
0.2679491924309987
  0
LWPOLYLINE
  5
A3
100
AcDbEntity
  8
0
  6
ByLayer
 62
    0
370
   -1
100
AcDbPolyline
 90
   16
 70
    1
 43
0
 10
118.5730616202368
 20
380.1042897685932
 42
0.2679482664650347
 10
118.8230606202368
 20
380.5373017685933
 10
118.8230636202368
 20
385.0052517685933
 42
0.2679491924309539
 10
118.5730636202368
 20
385.4382647685932
 42
-1.303223041600019
 10
119.256075620237
 20
386.1212787685934
 42
0.2679482664650371
 10
119.689087620237
 20
385.8712797685933
 10
121.2569546202369
 20
385.8712767685932
 42
0.2679491924309857
 10
121.689966620237
 20
386.1212767685934
 42
-1.303223041600054
 10
122.3729806202368
 20
385.4382657685935
 42
0.2679482664659892
 10
122.1229826202369
 20
385.0052537685933
 10
122.1229826202369
 20
380.5373037685933
 42
0.2679491924310262
 10
122.3729826202369
 20
380.1042917685932
 42
-1.303223041599846
 10
121.689971620237
 20
379.4212777685931
 42
0.2679482664649807
 10
121.2569596202368
 20
379.6712757685933
 10
119.6890886202369
 20
379.6712787685933
 42
0.2679491924310046
 10
119.2560756202369
 20
379.4212787685933
 42
-1.303223041600072
  0
LWPOLYLINE
  5
A4
100
AcDbEntity
  8
0
  6
ByLayer
 62
    0
370
   -1
100
AcDbPolyline
 90
   16
 70
    1
 43
0
 10
121.2569546202368
 20
364.6712777685933
 42
0.2679491924309641
 10
121.689966620237
 20
364.9212777685933
 42
-1.303223041600143
 10
122.3729806202368
 20
364.2382657685931
 42
0.2679482664649951
 10
122.1229826202369
 20
363.8052537685933
 10
122.1229826202368
 20
359.3373047685933
 42
0.2679491924309819
 10
122.3729826202369
 20
358.9042917685932
 42
-1.303223041600396
 10
121.689971620237
 20
358.2212777685931
 42
0.2679482664649997
 10
121.2569596202368
 20
358.4712757685932
 10
119.6890886202369
 20
358.4712787685933
 42
0.2679491924310046
 10
119.2560756202369
 20
358.2212787685933
 42
-1.303223041599655
 10
118.5730616202368
 20
358.9042907685932
 42
0.2679482664650221
 10
118.8230606202368
 20
359.3373027685932
 10
118.8230636202368
 20
363.8052527685933
 42
0.2679491924309848
 10
118.5730636202368
 20
364.2382657685931
 42
-1.303223041600017
 10
119.256075620237
 20
364.9212797685934
 42
0.2679482664660228
 10
119.689087620237
 20
364.6712807685931
  0
LWPOLYLINE
  5
A5
100
AcDbEntity
  8
0
  6
ByLayer
 62
    0
370
   -1
100
AcDbPolyline
 90
   16
 70
    1
 43
0
 10
178.1493146202369
 20
386.1212787685932
 42
0.2679482664649928
 10
178.582326620237
 20
385.8712797685933
 10
180.1501936202369
 20
385.8712767685933
 42
0.2679491924309941
 10
180.5832066202371
 20
386.1212767685932
 42
-1.303223041599884
 10
181.2662206202369
 20
385.4382657685935
 42
0.2679482664649983
 10
181.016222620237
 20
385.0052537685933
 10
181.016222620237
 20
380.5373037685933
 42
0.2679491924310201
 10
181.266222620237
 20
380.1042917685933
 42
-1.303223041599949
 10
180.5832106202369
 20
379.4212777685933
 42
0.2679482664649464
 10
180.1501986202369
 20
379.6712757685933
 10
178.582328620237
 20
379.6712787685933
 42
0.2679491924309891
 10
178.1493146202369
 20
379.4212787685932
 42
-1.303223041599815
 10
177.4663006202369
 20
380.1042897685933
 42
0.2679482617889206
 10
177.7162996202368
 20
380.5373017685933
 10
177.7163026202369
 20
385.0052517685932
 42
0.2679491924309605
 10
177.4663026202369
 20
385.4382647685931
 42
-1.303223041599948
  0
LWPOLYLINE
  5
A6
100
AcDbEntity
  8
0
  6
ByLayer
 62
    0
370
   -1
100
AcDbPolyline
 90
   16
 70
    1
 43
0
 10
177.4663006202369
 20
358.9042907685933
 42
0.267948266464954
 10
177.7162996202368
 20
359.3373027685932
 10
177.7163026202369
 20
363.8052527685933
 42
0.2679491924309077
 10
177.466302620237
 20
364.2382657685931
 42
-1.303223041600051
 10
178.1493146202367
 20
364.9212797685932
 42
0.2679482664660811
 10
178.582326620237
 20
364.6712807685931
 10
180.1501936202369
 20
364.6712777685933
 42
0.2679491924310125
 10
180.583206620237
 20
364.9212777685933
 42
-1.303223041600484
 10
181.266220620237
 20
364.2382657685936
 42
0.2679482664649891
 10
181.016222620237
 20
363.8052537685933
 10
181.0162226202369
 20
359.3373047685933
 42
0.2679491924309949
 10
181.266222620237
 20
358.9042917685932
 42
-1.303223041600257
 10
180.583210620237
 20
358.2212777685932
 42
0.2679482664650373
 10
180.1501986202369
 20
358.4712757685933
 10
178.582328620237
 20
358.4712787685934
 42
0.2679491924310922
 10
178.1493146202367
 20
358.2212787685934
 42
-1.303223041599227
  0
LWPOLYLINE
  5
A7
100
AcDbEntity
  8
0
  6
ByLayer
 62
    0
370
   -1
100
AcDbPolyline
 90
   16
 70
    1
 43
0
 10
307.498033620237
 20
385.4382647685932
 42
-1.303223041600019
 10
308.1810456202367
 20
386.1212787685933
 42
0.2679482664650109
 10
308.6140576202368
 20
385.8712797685932
 10
310.1819246202368
 20
385.8712767685932
 42
0.267949192431036
 10
310.6149376202371
 20
386.1212767685932
 42
-1.303223041599542
 10
311.2979516202371
 20
385.4382657685933
 42
0.2679482664649769
 10
311.0479536202371
 20
385.0052537685932
 10
311.0479536202371
 20
380.5373037685932
 42
0.2679491924310253
 10
311.2979536202371
 20
380.1042917685929
 42
-1.303223041599333
 10
310.6149416202367
 20
379.4212777685932
 42
0.2679482664650021
 10
310.1819296202369
 20
379.6712757685932
 10
308.6140596202368
 20
379.6712787685932
 42
0.2679491924310384
 10
308.1810456202367
 20
379.4212787685932
 42
-1.303223041600113
 10
307.498031620237
 20
380.104289768593
 42
0.2679482617890404
 10
307.7480306202368
 20
380.5373017685932
 10
307.748033620237
 20
385.0052517685932
 42
0.2679491924309815
  0
LWPOLYLINE
  5
A8
100
AcDbEntity
  8
0
  6
ByLayer
 62
    0
370
   -1
100
AcDbPolyline
 90
   16
 70
    1
 43
0
 10
308.1810456202367
 20
364.9212797685932
 42
0.267948266465015
 10
308.6140576202368
 20
364.6712807685932
 10
310.1819246202368
 20
364.6712777685932
 42
0.2679491924309941
 10
310.6149376202371
 20
364.9212777685932
 42
-1.303223041598922
 10
311.297951620237
 20
364.2382657685935
 42
0.2679482664650196
 10
311.0479536202371
 20
363.8052537685932
 10
311.0479536202369
 20
359.3373047685932
 42
0.2679491924310083
 10
311.297953620237
 20
358.9042917685931
 42
-1.30322304160004
 10
310.6149416202368
 20
358.2212777685932
 42
0.267948266465059
 10
310.1819296202369
 20
358.4712757685933
 10
308.6140596202368
 20
358.4712787685933
 42
0.2679491924309815
 10
308.1810456202368
 20
358.2212787685933
 42
-1.303223041600752
 10
307.4980316202369
 20
358.9042907685932
 42
0.2679482664649764
 10
307.748030620237
 20
359.3373027685932
 10
307.748033620237
 20
363.8052527685932
 42
0.2679491924309544
 10
307.498033620237
 20
364.238265768593
 42
-1.303223041600095
  0
LWPOLYLINE
  5
A9
100
AcDbEntity
  8
0
  6
ByLayer
 62
    0
370
   -1
100
AcDbPolyline
 90
   16
 70
    1
 43
0
 10
372.0399716202369
 20
379.4212777685932
 42
0.267948266464984
 10
371.6069596202369
 20
379.6712757685932
 10
370.0390896202368
 20
379.6712787685932
 42
0.267949192431046
 10
369.6060766202368
 20
379.4212787685932
 42
-1.303223041599284
 10
368.9230626202369
 20
380.104289768593
 42
0.2679482664650342
 10
369.1730616202369
 20
380.5373017685932
 10
369.1730646202369
 20
385.0052517685932
 42
0.2679491924309777
 10
368.923064620237
 20
385.4382647685931
 42
-1.303223041600171
 10
369.6060756202369
 20
386.1212787685932
 42
0.2679482664649205
 10
370.039087620237
 20
385.8712797685932
 10
371.6069556202368
 20
385.8712767685932
 42
0.2679491924309894
 10
372.0399676202367
 20
386.1212767685932
 42
-1.303223041600067
 10
372.7229816202367
 20
385.4382657685932
 42
0.2679482664649961
 10
372.472983620237
 20
385.0052537685932
 10
372.4729836202368
 20
380.5373037685932
 42
0.2679491924310476
 10
372.722983620237
 20
380.1042917685928
 42
-1.303223041600085
  0
LWPOLYLINE
  5
AA
100
AcDbEntity
  8
0
  6
ByLayer
 62
    0
370
   -1
100
AcDbPolyline
 90
   16
 70
    1
 43
0
 10
368.9230646202369
 20
364.2382657685931
 42
-1.303223041600039
 10
369.6060756202369
 20
364.9212797685932
 42
0.2679482664649885
 10
370.039087620237
 20
364.6712807685932
 10
371.6069556202368
 20
364.6712777685932
 42
0.2679491924310046
 10
372.0399676202368
 20
364.9212777685932
 42
-1.303223041599466
 10
372.722981620237
 20
364.2382657685935
 42
0.2679482664650683
 10
372.472983620237
 20
363.8052537685932
 10
372.4729836202368
 20
359.3373047685932
 42
0.2679491924310154
 10
372.7229836202368
 20
358.9042917685933
 42
-1.303223041600239
 10
372.0399716202369
 20
358.2212777685932
 42
0.267948266464984
 10
371.6069596202369
 20
358.4712757685932
 10
370.0390896202368
 20
358.4712787685932
 42
0.2679491924309891
 10
369.6060766202369
 20
358.2212787685932
 42
-1.30322304159998
 10
368.9230626202369
 20
358.904290768593
 42
0.2679482664650342
 10
369.1730616202369
 20
359.3373027685932
 10
369.1730646202369
 20
363.8052527685932
 42
0.2679491924309891
  0
LWPOLYLINE
  5
AB
100
AcDbEntity
  8
0
  6
ByLayer
 62
    0
370
   -1
100
AcDbPolyline
 90
   16
 70
    1
 43
0
 10
369.6060756202369
 20
226.1212827685931
 42
0.2679482664649623
 10
370.039087620237
 20
225.8712837685931
 10
371.6069556202368
 20
225.8712807685931
 42
0.2679491924309844
 10
372.0399676202369
 20
226.1212807685931
 42
-1.303223041599886
 10
372.7229816202369
 20
225.4382687685932
 42
0.2679482664649956
 10
372.472983620237
 20
225.0052567685932
 10
372.472983620237
 20
220.5373077685932
 42
0.2679491924309625
 10
372.7229836202368
 20
220.1042947685934
 42
-1.30322304160044
 10
372.0399716202369
 20
219.4212807685932
 42
0.2679482664650347
 10
371.6069596202369
 20
219.6712787685933
 10
370.0390896202368
 20
219.6712817685932
 42
0.2679491924309891
 10
369.6060766202369
 20
219.4212817685932
 42
-1.303223041599849
 10
368.9230626202369
 20
220.1042937685934
 42
0.2679482664649716
 10
369.1730616202369
 20
220.5373057685931
 10
369.1730646202368
 20
225.0052557685932
 42
0.2679491924310234
 10
368.9230646202369
 20
225.4382687685932
 42
-1.303223041600028
  0
LWPOLYLINE
  5
AC
100
AcDbEntity
  8
0
  6
ByLayer
 62
    0
370
   -1
100
AcDbPolyline
 90
   16
 70
    1
 43
0
 10
368.9230626202369
 20
198.9042937685932
 42
0.2679482664649769
 10
369.1730616202369
 20
199.3373057685932
 10
369.1730646202369
 20
203.8052557685933
 42
0.2679491924310034
 10
368.9230646202369
 20
204.2382697685931
 42
-1.303223041599743
 10
369.6060756202369
 20
204.9212837685932
 42
0.2679482664649623
 10
370.039087620237
 20
204.6712847685932
 10
371.6069556202368
 20
204.6712817685932
 42
0.2679491924309781
 10
372.0399676202368
 20
204.9212817685932
 42
-1.303223041600729
 10
372.7229816202369
 20
204.2382697685933
 42
0.2679482664650079
 10
372.472983620237
 20
203.8052577685931
 10
372.4729836202371
 20
199.3373077685932
 42
0.2679491924309227
 10
372.7229836202368
 20
198.9042957685932
 42
-1.303223041600729
 10
372.0399716202369
 20
198.2212817685931
 42
0.2679482664649707
 10
371.6069596202369
 20
198.4712797685931
 10
370.0390896202368
 20
198.4712827685931
 42
0.2679491924310022
 10
369.6060766202369
 20
198.2212827685931
 42
-1.303223041600038
  0
LWPOLYLINE
  5
AD
100
AcDbEntity
  8
0
  6
ByLayer
 62
    0
370
   -1
100
AcDbPolyline
 90
   16
 70
    1
 43
0
 10
369.6061156202368
 20
99.42134076859331
 42
-0.2679482664650027
 10
370.0391276202369
 20
99.67133876859323
 10
371.6069976202368
 20
99.67134176859309
 42
-0.2679491924309765
 10
372.0400106202371
 20
99.42134176859309
 42
1.303223041599734
 10
372.723024620237
 20
100.1043537685932
 42
-0.2679482664649648
 10
372.4730266202369
 20
100.5373657685932
 10
372.473023620237
 20
105.0053157685932
 42
-0.2679491924309578
 10
372.7230236202371
 20
105.438328768593
 42
1.303223041599965
 10
372.0400116202368
 20
106.1213427685932
 42
-0.2679482664651208
 10
371.6069996202368
 20
105.8713437685931
 10
370.0391326202368
 20
105.8713407685932
 42
-0.2679491924309537
 10
369.6061186202369
 20
106.1213407685932
 42
1.30322302982042
 10
368.9231046202369
 20
105.4383287685933
 42
-0.2679482664649852
 10
369.1731036202368
 20
105.0053167685932
 10
369.1731036202368
 20
100.5373677685932
 42
-0.2679491924308682
 10
368.9231036202369
 20
100.1043547685934
 42
1.303223041600226
  0
LWPOLYLINE
  5
AE
100
AcDbEntity
  8
0
  6
ByLayer
 62
    0
370
   -1
100
AcDbPolyline
 90
   16
 70
    1
 43
0
 10
369.1731036202368
 20
79.33736776859308
 42
-0.2679491924310046
 10
368.9231036202368
 20
78.90435576859321
 42
1.303223041600154
 10
369.6061156202367
 20
78.22134176859322
 42
-0.2679482664650175
 10
370.0391276202369
 20
78.471339768593
 10
371.6069976202369
 20
78.47134276859323
 42
-0.267949192430911
 10
372.0400106202372
 20
78.22134276859323
 42
1.303223041600445
 10
372.723024620237
 20
78.9043537685933
 42
-0.2679482664648849
 10
372.473026620237
 20
79.33736576859309
 10
372.4730236202369
 20
83.80531576859312
 42
-0.2679491924310005
 10
372.7230236202369
 20
84.23832976859318
 42
1.303223041600273
 10
372.0400116202366
 20
84.92134376859313
 42
-0.2679482664649057
 10
371.6069996202368
 20
84.67134476859344
 10
370.0391326202368
 20
84.67134176859307
 42
-0.2679491924309558
 10
369.6061186202368
 20
84.92134176859312
 42
1.303223041599745
 10
368.923104620237
 20
84.23832976859322
 42
-0.2679482664650229
 10
369.1731036202369
 20
83.80531776859311
  0
LWPOLYLINE
  5
AF
100
AcDbEntity
  8
0
  6
ByLayer
 62
    0
370
   -1
100
AcDbPolyline
 90
   16
 70
    1
 43
0
 10
52.47798462023678
 20
29.33730076859325
 42
0.2679491924309802
 10
52.72798462023678
 20
28.90428776859326
 42
-1.303223041600247
 10
52.04497262023693
 20
28.22127376859339
 42
0.2679482664650073
 10
51.6119606202368
 20
28.47127176859328
 10
50.04409062023683
 20
28.47127476859339
 42
0.2679491924310277
 10
49.61107662023659
 20
28.2212747685934
 42
-1.303223041599261
 10
48.92806262023663
 20
28.90428676859324
 42
0.2679482664649961
 10
49.17806162023692
 20
29.33729876859326
 10
49.1780646202368
 20
33.80524876859329
 42
0.2679491924309672
 10
48.9280646202368
 20
34.23826176859306
 42
-1.30322304160015
 10
49.61107662023687
 20
34.92127576859325
 42
0.2679482664660081
 10
50.04408862023683
 20
34.67127676859316
 10
51.61195562023693
 20
34.67127376859327
 42
0.2679491924310531
 10
52.04496862023683
 20
34.92127376859327
 42
-1.30322304159983
 10
52.72798262023679
 20
34.23826176859308
 42
0.2679482664650019
 10
52.47798462023678
 20
33.80524976859334
  0
LWPOLYLINE
  5
B0
100
AcDbEntity
  8
0
  6
ByLayer
 62
    0
370
   -1
100
AcDbPolyline
 90
   63
 70
    0
 43
0
 10
420.6480226202368
 20
17.1712737685932
 10
440.6480186202368
 20
17.1712737685932
 42
0.4142137003890026
 10
445.6480136202368
 20
22.17127376859319
 10
445.6480136202368
 20
73.5212737685931
 42
-0.3419984508479991
 10
439.6480196202368
 20
81.26724076859317
 10
439.6480176202369
 20
374.4253087685932
 42
-0.3419983241320004
 10
445.6480136202368
 20
382.1712587685932
 10
445.6480136202368
 20
397.1712747685932
 10
435.6480236202368
 20
397.1712747685932
 10
435.6480236202368
 20
394.9372547685932
 42
0.2679491924310275
 10
435.8980236202368
 20
394.5042417685931
 42
-1.303223041599792
 10
435.2150116202366
 20
393.8212277685932
 42
0.267948266464998
 10
434.7819996202369
 20
394.0712257685932
 10
411.4230276202369
 20
394.0712287685932
 10
411.4230276202369
 20
391.0712577685932
 10
412.6980226202369
 20
391.0712577685932
 10
412.6980226202369
 20
387.0712287685932
 10
411.4230276202369
 20
387.0712287685932
 10
411.4230276202369
 20
384.0712287685932
 10
408.2230166202369
 20
384.0712287685932
 10
408.2230166202369
 20
387.0712287685932
 10
406.9480226202369
 20
387.0712287685932
 10
406.9480226202369
 20
391.0712577685932
 10
408.2230166202369
 20
391.0712577685932
 10
408.2230166202369
 20
394.0712287685932
 10
384.8640466202369
 20
394.0712287685932
 42
0.2679491924309774
 10
384.4310326202369
 20
393.8212287685932
 42
-1.303223041599962
 10
383.7480186202368
 20
394.5042407685931
 42
0.2679482664650069
 10
383.998017620237
 20
394.9372527685932
 10
383.9980206202368
 20
397.1712747685932
 10
107.2980216202369
 20
397.1712747685933
 10
107.2980216202369
 20
394.9372547685933
 42
0.2679491924309402
 10
107.5480216202368
 20
394.5042417685933
 42
-1.303223041600046
 10
106.8650096202368
 20
393.8212277685932
 42
0.2679482664649871
 10
106.4319976202369
 20
394.0712257685933
 10
83.07302562023688
 20
394.0712287685932
 10
83.07302562023688
 20
391.0712577685933
 10
84.34801962023687
 20
391.0712577685933
 10
84.34801962023687
 20
387.0712287685932
 10
83.07302562023688
 20
387.0712287685932
 10
83.07302562023688
 20
384.0712287685932
 10
79.87301462023697
 20
384.0712287685932
 10
79.87301462023697
 20
387.0712287685932
 10
78.59801962023687
 20
387.0712287685932
 10
78.59801962023687
 20
391.0712577685933
 10
79.87301462023697
 20
391.0712577685933
 10
79.87301462023697
 20
394.0712287685932
 10
56.51404462023697
 20
394.0712287685932
 42
0.2679491924310317
 10
56.08103062023678
 20
393.8212287685934
 42
-1.303223041600003
 10
55.39801662023692
 20
394.5042407685933
 42
0.2679482664650121
 10
55.6480156202369
 20
394.9372527685933
 10
55.64801862023688
 20
397.1712747685933
 10
45.64802862023686
 20
397.1712747685933
 10
45.64802862023686
 20
382.1712597685934
 42
-0.3419983241320017
 10
51.64800862023684
 20
374.4253087685933
 10
51.64802562023692
 20
81.26724076859324
 42
-0.3419984508480041
 10
45.6480286202368
 20
73.52127376859318
 10
45.6480286202368
 20
22.17127376859327
 42
0.4142137003890055
 10
50.64802362023693
 20
17.17127376859327
 10
70.64801962023688
 20
17.17127376859326
 10
72.64802362023693
 20
19.17127376859326
 10
418.6481556202368
 20
19.17113476859321
 10
420.6481596202368
 20
17.17113476859321
  0
LWPOLYLINE
  5
B1
100
AcDbEntity
  8
0
  6
ByLayer
 62
    0
370
   -1
100
AcDbPolyline
 90
    2
 70
    0
 43
0
 10
107.2980216202369
 20
397.1712747685933
 10
107.306933620237
 20
397.1712747685933
  0
LWPOLYLINE
  5
B2
100
AcDbEntity
  8
0
  6
ByLayer
 62
    0
370
   -1
100
AcDbPolyline
 90
   16
 70
    1
 43
0
 10
252.3739316202368
 20
35.17127476859325
 42
0.2914636959410014
 10
254.1865166202369
 20
36.3259737685931
 10
260.1628296202368
 20
49.14102076859322
 42
-0.2914637668749956
 10
261.9754166202368
 20
50.29571876859302
 10
357.6480236202368
 20
50.29569476859319
 42
0.4135115436419978
 10
365.6480236202368
 20
58.27649276859313
 10
365.6480236202369
 20
339.1712767685932
 42
0.4142134452329965
 10
357.6480216202368
 20
347.1712757685931
 10
133.648020620237
 20
347.1712627685934
 42
0.4142134449210002
 10
125.6480326202369
 20
339.1712767685933
 10
125.6480206202369
 20
58.27654876859327
 42
0.4135115436420069
 10
133.6480206202369
 20
50.29575076859332
 10
229.4190586202369
 20
50.29572676859313
 42
-0.2930389507939899
 10
231.236520620237
 20
49.13049176859326
 10
237.1128256202369
 20
36.3365107685931
 42
0.2930390217880035
 10
238.9302876202369
 20
35.17127476859346
  0
CIRCLE
  5
B3
100
AcDbEntity
  8
0
  6
ByLayer
 62
    0
370
   -1
100
AcDbCircle
 10
120.473065620237
 20
92.17134176859315
 40
1.6
  0
CIRCLE
  5
B4
100
AcDbEntity
  8
0
  6
ByLayer
 62
    0
370
   -1
100
AcDbCircle
 10
120.473021620237
 20
212.1712817685932
 40
1.6
  0
CIRCLE
  5
B5
100
AcDbEntity
  8
0
  6
ByLayer
 62
    0
370
   -1
100
AcDbCircle
 10
391.4280636202369
 20
42.17134476859309
 40
1.6
  0
CIRCLE
  5
B6
100
AcDbEntity
  8
0
  6
ByLayer
 62
    0
370
   -1
100
AcDbCircle
 10
440.4680636202369
 20
42.17135176859311
 40
1.6
  0
CIRCLE
  5
B7
100
AcDbEntity
  8
0
  6
ByLayer
 62
    0
370
   -1
100
AcDbCircle
 10
99.86802362023684
 20
42.17127376859325
 40
1.6
  0
CIRCLE
  5
B8
100
AcDbEntity
  8
0
  6
ByLayer
 62
    0
370
   -1
100
AcDbCircle
 10
266.8937176202369
 20
372.1712777685932
 40
1.6
  0
CIRCLE
  5
B9
100
AcDbEntity
  8
0
  6
ByLayer
 62
    0
370
   -1
100
AcDbCircle
 10
415.9480246202369
 20
68.81628176859327
 40
1.6
  0
CIRCLE
  5
BA
100
AcDbEntity
  8
0
  6
ByLayer
 62
    0
370
   -1
100
AcDbCircle
 10
50.82802262023682
 20
42.17127376859327
 40
1.6
  0
CIRCLE
  5
BB
100
AcDbEntity
  8
0
  6
ByLayer
 62
    0
370
   -1
100
AcDbCircle
 10
370.8230226202369
 20
372.1712777685932
 40
1.6
  0
CIRCLE
  5
BC
100
AcDbEntity
  8
0
  6
ByLayer
 62
    0
370
   -1
100
AcDbCircle
 10
75.34801562023682
 20
68.81627476859325
 40
1.6
  0
CIRCLE
  5
BD
100
AcDbEntity
  8
0
  6
ByLayer
 62
    0
370
   -1
100
AcDbCircle
 10
120.473021620237
 20
372.1712777685933
 40
1.6
  0
CIRCLE
  5
BE
100
AcDbEntity
  8
0
  6
ByLayer
 62
    0
370
   -1
100
AcDbCircle
 10
370.8230646202368
 20
92.17134176859309
 40
1.6
  0
CIRCLE
  5
BF
100
AcDbEntity
  8
0
  6
ByLayer
 62
    0
370
   -1
100
AcDbCircle
 10
370.8230226202369
 20
212.1712817685932
 40
1.6
  0
CIRCLE
  5
C0
100
AcDbEntity
  8
0
  6
ByLayer
 62
    0
370
   -1
100
AcDbCircle
 10
179.3662606202369
 20
372.1712777685933
 40
1.6
  0
CIRCLE
  5
C1
100
AcDbEntity
  8
0
  6
ByLayer
 62
    0
370
   -1
100
AcDbCircle
 10
309.3979916202368
 20
372.1712777685932
 40
1.6
  0
CIRCLE
  5
C2
100
AcDbEntity
  8
0
  6
ByLayer
 62
    0
370
   -1
100
AcDbCircle
 10
224.3894426202369
 20
372.1712777685932
 40
1.6
  0
LWPOLYLINE
  5
C3
100
AcDbEntity
  8
0
  6
ByLayer
 62
    0
370
   -1
100
AcDbPolyline
 90
   16
 70
    1
 43
0
 10
303.1134616202345
 20
40.95430656437562
 42
-1.303223041600489
 10
302.4304506202346
 20
40.27129256437568
 42
0.2679482664649381
 10
301.9974386202345
 20
40.52129056437558
 10
297.5294886202346
 20
40.52129356437566
 42
0.2679491924309715
 10
297.0964746202346
 20
40.2712935643757
 42
-1.303223041598333
 10
296.4134606202345
 20
40.9543055643755
 42
0.2679482664651173
 10
296.6634596202345
 20
41.38731756437565
 10
296.6634626202345
 20
42.95518456437564
 42
0.2679491924309977
 10
296.4134626202346
 20
43.38819756437584
 42
-1.303223041599872
 10
297.0964746202347
 20
44.07121156437574
 42
0.2679482664648562
 10
297.5294866202345
 20
43.82121256437577
 10
301.9974366202344
 20
43.82121256437566
 42
0.2679491924309327
 10
302.4304486202345
 20
44.07121256437568
 42
-1.303223041600075
 10
303.1134626202347
 20
43.3882015643755
 42
0.2679482664649703
 10
302.8634646202347
 20
42.95518956437563
 10
302.8634616202347
 20
41.38731856437566
 42
0.2679491924309624
  0
LWPOLYLINE
  5
C4
100
AcDbEntity
  8
0
  6
ByLayer
 62
    0
370
   -1
100
AcDbPolyline
 90
   16
 70
    1
 43
0
 10
323.6304496202345
 20
40.27129256437573
 42
0.2679482664650128
 10
323.1974376202347
 20
40.52129056437559
 10
318.7294876202346
 20
40.52129356437567
 42
0.2679491924309746
 10
318.2964746202346
 20
40.27129356437567
 42
-1.303223041598973
 10
317.6134606202348
 20
40.95430556437546
 42
0.2679482664650004
 10
317.8634596202348
 20
41.38731756437565
 10
317.8634626202347
 20
42.95518456437564
 42
0.267949192431012
 10
317.6134626202345
 20
43.38819756437572
 42
-1.303223041600138
 10
318.2964736202351
 20
44.07121156437567
 42
0.2679482664648862
 10
318.7294856202347
 20
43.82121256437576
 10
323.1974356202346
 20
43.82121256437565
 42
0.2679491924309303
 10
323.6304486202345
 20
44.07121256437576
 42
-1.303223041600175
 10
324.3134626202347
 20
43.38820156437565
 42
0.2679482664650824
 10
324.0634646202347
 20
42.95518956437562
 10
324.0634616202348
 20
41.38731856437565
 42
0.267949192430922
 10
324.3134616202347
 20
40.95430656437566
 42
-1.303223041600273
  0
CIRCLE
  5
C5
100
AcDbEntity
  8
0
  6
ByLayer
 62
    0
370
   -1
100
AcDbCircle
 10
310.3634626202347
 20
42.17125156437552
 40
1.6
  0
LWPOLYLINE
  5
C6
100
AcDbEntity
  8
0
  6
ByLayer
 62
    0
370
   -1
100
AcDbPolyline
 90
   16
 70
    1
 43
0
 10
172.5665566202391
 20
40.52131797281891
 10
168.0986066202392
 20
40.52132097281891
 42
0.2679491924309491
 10
167.665592620239
 20
40.27132097281891
 42
-1.303223041599782
 10
166.9825786202389
 20
40.9543329728191
 42
0.2679482664650557
 10
167.2325776202391
 20
41.38734497281911
 10
167.2325806202388
 20
42.95521197281886
 42
0.2679491924309996
 10
166.9825806202389
 20
43.38822497281899
 42
-1.30322304160019
 10
167.6655926202388
 20
44.07123897281907
 42
0.2679482664661001
 10
168.098604620239
 20
43.821239972819
 10
172.5665546202389
 20
43.82123997281906
 42
0.2679491924309962
 10
172.999566620239
 20
44.07123997281906
 42
-1.303223041600029
 10
173.682580620239
 20
43.38822897281897
 42
0.2679482664660083
 10
173.432582620239
 20
42.9552169728189
 10
173.4325796202391
 20
41.38734597281911
 42
0.2679491924309534
 10
173.6825796202391
 20
40.95433397281884
 42
-1.303223041600196
 10
172.9995686202391
 20
40.27131997281887
 42
0.2679482664649226
  0
LWPOLYLINE
  5
C7
100
AcDbEntity
  8
0
  6
ByLayer
 62
    0
370
   -1
100
AcDbPolyline
 90
   16
 70
    1
 43
0
 10
193.766555620239
 20
40.52131797281891
 10
189.298605620239
 20
40.52132097281891
 42
0.2679491924310148
 10
188.8655926202389
 20
40.27132097281889
 42
-1.303223041599832
 10
188.1825786202389
 20
40.95433297281907
 42
0.2679482664649823
 10
188.432577620239
 20
41.38734497281911
 10
188.4325806202391
 20
42.95521197281886
 42
0.2679491924310048
 10
188.1825806202392
 20
43.38822497281893
 42
-1.30322304159991
 10
188.8655916202391
 20
44.07123897281905
 42
0.2679482664660828
 10
189.298603620239
 20
43.82123997281893
 10
193.7665536202391
 20
43.82123997281904
 42
0.2679491924309803
 10
194.1995666202391
 20
44.07123997281911
 42
-1.303223041600025
 10
194.8825806202389
 20
43.38822897281906
 42
0.2679482664650095
 10
194.632582620239
 20
42.9552169728189
 10
194.632579620239
 20
41.38734597281911
 42
0.2679491924309136
 10
194.882579620239
 20
40.95433397281927
 42
-1.303223041599617
 10
194.1995676202391
 20
40.27131997281886
 42
0.2679482664649933
  0
CIRCLE
  5
C8
100
AcDbEntity
  8
0
  6
ByLayer
 62
    0
370
   -1
100
AcDbCircle
 10
180.9325806202391
 20
42.17127897281897
 40
1.6
  0
ENDBLK
  5
4F
330
4D
100
AcDbEntity
  8
0
100
AcDbBlockEnd
  0
BLOCK
  5
51
330
50
100
AcDbEntity
  8
0
100
AcDbBlockBegin
  2
left_frame
 70
    0
 10
0
 20
0
  3
left_frame
  1

  0
LINE
  5
C9
100
AcDbEntity
  8
0
  6
ByLayer
 62
    0
370
   -1
100
AcDbLine
 10
85.07859356643002
 20
400.768450585361
 11
85.07859656643001
 21
400.768450585361
  0
LWPOLYLINE
  5
CA
100
AcDbEntity
  8
0
  6
ByLayer
 62
    0
370
   -1
100
AcDbPolyline
 90
    4
 70
    1
 43
0
 10
81.67860956643
 20
169.268368585361
 10
81.67860956643
 20
161.268367585361
 42
0.9999999999999999
 10
89.67860956643
 20
161.268367585361
 10
89.67860956643
 20
169.268367585361
 42
0.9999999131120526
  0
LWPOLYLINE
  5
CB
100
AcDbEntity
  8
0
  6
ByLayer
 62
    0
370
   -1
100
AcDbPolyline
 90
    4
 70
    1
 43
0
 10
89.67860956643
 20
129.268367585361
 42
0.9999999131120526
 10
81.67860956643
 20
129.268368585361
 10
81.67860956643
 20
121.268367585361
 42
0.9999999999999999
 10
89.67860956643
 20
121.268367585361
  0
LWPOLYLINE
  5
CC
100
AcDbEntity
  8
0
  6
ByLayer
 62
    0
370
   -1
100
AcDbPolyline
 90
    4
 70
    1
 43
0
 10
81.67860956643
 20
89.26836858536099
 10
81.67860956643
 20
81.26836758536101
 42
0.9999999999999999
 10
89.67860956643
 20
81.26836758536101
 10
89.67860956643
 20
89.26836758536099
 42
0.9999999131120491
  0
LWPOLYLINE
  5
CD
100
AcDbEntity
  8
0
  6
ByLayer
 62
    0
370
   -1
100
AcDbPolyline
 90
   16
 70
    1
 43
0
 10
112.78324956643
 20
135.264505585361
 10
112.78323756643
 20
120.235075585361
 42
0.1989123360590068
 10
114.54059656643
 20
115.992435585361
 10
131.02587856643
 20
99.507153585361
 42
0.1989123583080019
 10
135.26851956643
 20
97.74979358536096
 10
140.29795656643
 20
97.749793585361
 42
0.1989123583079996
 10
144.5405975664301
 20
99.50715258536101
 10
161.02587856643
 20
115.992435585361
 42
0.1989123360569981
 10
162.78323856643
 20
120.235026585361
 10
162.78324956643
 20
135.264464585361
 42
0.1989123175239983
 10
161.02589456643
 20
139.507105585361
 10
144.54062656643
 20
155.992396585361
 42
0.1989124853149995
 10
140.29798756643
 20
157.749761585361
 10
135.26855056643
 20
157.749765585361
 42
0.1989124853150056
 10
131.02590756643
 20
155.992408585361
 10
114.54061156643
 20
139.507143585361
 42
0.1989123174889998
  0
LWPOLYLINE
  5
CE
100
AcDbEntity
  8
0
  6
ByLayer
 62
    0
370
   -1
100
AcDbPolyline
 90
    4
 70
    1
 43
0
 10
184.67860956643
 20
121.268367585361
 10
184.6786095664299
 20
129.268367585361
 42
0.9999999131120526
 10
176.67860956643
 20
129.268368585361
 10
176.67860956643
 20
121.268367585361
 42
0.9999999999999999
  0
LWPOLYLINE
  5
CF
100
AcDbEntity
  8
0
  6
ByLayer
 62
    0
370
   -1
100
AcDbPolyline
 90
    4
 70
    1
 43
0
 10
184.67860956643
 20
161.268367585361
 10
184.6786095664299
 20
169.268367585361
 42
0.9999999131120526
 10
176.67860956643
 20
169.268368585361
 10
176.67860956643
 20
161.268367585361
 42
0.9999999999999999
  0
LWPOLYLINE
  5
D0
100
AcDbEntity
  8
0
  6
ByLayer
 62
    0
370
   -1
100
AcDbPolyline
 90
    4
 70
    1
 43
0
 10
236.6786065664301
 20
160.268366585361
 10
244.6786065664301
 20
160.268366585361
 42
0.9999999789265744
 10
244.6786065664301
 20
168.268366585361
 10
236.6786055664301
 20
168.268366585361
 42
0.9999999131120526
  0
LWPOLYLINE
  5
D1
100
AcDbEntity
  8
0
  6
ByLayer
 62
    0
370
   -1
100
AcDbPolyline
 90
    4
 70
    1
 43
0
 10
304.67860656643
 20
168.268366585361
 10
296.67860556643
 20
168.268366585361
 42
0.9999999131120526
 10
296.67860656643
 20
160.268366585361
 10
304.67860656643
 20
160.268366585361
 42
0.9999999789265815
  0
LWPOLYLINE
  5
D2
100
AcDbEntity
  8
0
  6
ByLayer
 62
    0
370
   -1
100
AcDbPolyline
 90
    4
 70
    1
 43
0
 10
364.67860656643
 20
168.268366585361
 10
356.67860556643
 20
168.268366585361
 42
0.9999999131120526
 10
356.67860656643
 20
160.268366585361
 10
364.67860656643
 20
160.268366585361
 42
0.9999999789265815
  0
LWPOLYLINE
  5
D3
100
AcDbEntity
  8
0
  6
ByLayer
 62
    0
370
   -1
100
AcDbPolyline
 90
    4
 70
    1
 43
0
 10
424.6786065664299
 20
168.268366585361
 10
416.67860556643
 20
168.268366585361
 42
0.9999999131120526
 10
416.6786065664299
 20
160.268366585361
 10
424.6786065664299
 20
160.268366585361
 42
0.9999999789265815
  0
LWPOLYLINE
  5
D4
100
AcDbEntity
  8
0
  6
ByLayer
 62
    0
370
   -1
100
AcDbPolyline
 90
  212
 70
    0
 43
0
 10
118.12905756643
 20
54.767784585361
 10
118.12909856643
 20
54.26839558536102
 10
117.62905756643
 20
54.26839558536102
 10
113.14463556643
 20
54.26839558536103
 42
-0.2679491924310151
 10
112.71162256643
 20
54.51839558536102
 42
1.303223041599913
 10
112.02860856643
 20
53.83538458536103
 42
-0.2679482664649978
 10
112.27860756643
 20
53.40237258536101
 10
112.27860756643
 20
51.76834358536101
 42
-0.4142135623729951
 10
111.77860756643
 20
51.26834358536101
 10
106.77861056643
 20
51.26834358536101
 42
-0.4142135623729951
 10
106.27861056643
 20
51.76834358536101
 10
106.27861356643
 20
53.40237058536101
 42
-0.267949192431004
 10
106.52861356643
 20
53.835382585361
 42
1.303223041600025
 10
105.84560156643
 20
54.518396585361
 42
-0.2679482664650078
 10
105.41258956643
 20
54.26839858536103
 10
100.27862456643
 20
54.26839558536102
 10
100.27862456643
 20
57.26836758536102
 10
101.55361856643
 20
57.26836758536102
 10
101.55361856643
 20
61.26839558536102
 10
100.27862456643
 20
61.26839558536102
 10
100.27862456643
 20
64.26839558536101
 10
97.07861356642996
 20
64.26839558536101
 10
97.07861356642996
 20
61.26839558536102
 10
95.80361856642998
 20
61.26839558536102
 10
95.80361856642998
 20
57.26836758536102
 10
97.07861356642996
 20
57.26836758536102
 10
97.07861356642996
 20
54.26839558536102
 10
91.94461956642999
 20
54.26839558536102
 42
-0.2679491924309912
 10
91.51160656642998
 20
54.51839558536102
 42
1.303223041600053
 10
90.82859256643002
 20
53.835384585361
 42
-0.2679482664650062
 10
91.07859156643002
 20
53.40237258536101
 10
91.07859156643002
 20
51.76834358536101
 42
-0.4142135623729951
 10
90.57859156643002
 20
51.26834358536101
 10
85.57859356643002
 20
51.26834358536101
 42
-0.4142135623729951
 10
85.07859356643002
 20
51.76834358536101
 10
85.07859656643001
 20
53.40237058536101
 42
-0.267949192431004
 10
85.32859656643001
 20
53.835382585361
 42
1.303223041599973
 10
84.64558556642999
 20
54.51839658536102
 42
-0.2679482804949986
 10
84.21257356642997
 20
54.26839858536101
 10
73.67860956643
 20
54.26839758536101
 10
73.67860956643
 20
59.26839758536101
 10
73.67860956643
 20
80.26836558536101
 10
75.67860956643
 20
82.26836958536101
 10
75.67860956643
 20
184.268367585361
 10
84.21257356642997
 20
184.268364585361
 42
-0.2679482664650659
 10
84.64558456642995
 20
184.018365585361
 42
1.303223041599827
 10
85.32859656643002
 20
184.701380585361
 42
-0.2679491924310073
 10
85.07859656642999
 20
185.134393585361
 10
85.07859356643002
 20
400.768450585361
 42
-0.4142135623730284
 10
85.57859356643002
 20
401.268450585361
 10
90.57859156643002
 20
401.268450585361
 42
-0.4142135623729951
 10
91.07859156642996
 20
400.768450585361
 10
91.07859156642996
 20
399.134422585361
 42
-0.267948266464978
 10
90.82859256642999
 20
398.701410585361
 42
1.303223029819904
 10
91.51160656643002
 20
398.018398585361
 42
-0.2679491924309818
 10
91.94461956642999
 20
398.268398585361
 10
97.07861356642996
 20
398.268398585361
 10
97.07861356642996
 20
395.268426585361
 10
95.80361856642998
 20
395.268426585361
 10
95.80361856642998
 20
391.268398585361
 10
97.07861356642996
 20
391.268398585361
 10
97.07861356642996
 20
388.268398585361
 10
100.27862456643
 20
388.268398585361
 10
100.27862456643
 20
391.268398585361
 10
101.55361856643
 20
391.268398585361
 10
101.55361856643
 20
395.268426585361
 10
100.27862456643
 20
395.268426585361
 10
100.27862456643
 20
398.268398585361
 10
105.41258956643
 20
398.268395585361
 42
-0.2679482664650227
 10
105.8456015664301
 20
398.018396585361
 42
1.303223041599932
 10
106.5286135664301
 20
398.7014115853611
 42
-0.267949192430998
 10
106.27861356643
 20
399.134424585361
 10
106.2786105664301
 20
400.768450585361
 42
-0.4142135623730367
 10
106.77861056643
 20
401.268450585361
 10
111.77860756643
 20
401.2684505853611
 42
-0.4142135623730284
 10
112.27860756643
 20
400.768442585361
 10
112.2786075664301
 20
185.134391585361
 42
-0.267948266465054
 10
112.02860856643
 20
184.701379585361
 42
1.303223041599855
 10
112.71162256643
 20
184.018367585361
 42
-0.2679491924310215
 10
113.14463556643
 20
184.268367585361
 10
124.21257356643
 20
184.268364585361
 10
134.21257356643
 20
184.268364585361
 42
-0.2679482664650092
 10
134.64558456643
 20
184.018365585361
 42
1.303223041599972
 10
135.32859656643
 20
184.701380585361
 42
-0.2679491924310083
 10
135.07859656643
 20
185.134393585361
 10
135.07859356643
 20
186.768419585361
 42
-0.4142135623729951
 10
135.57859356643
 20
187.268419585361
 10
140.57859156643
 20
187.268419585361
 42
-0.4142135623729951
 10
141.07859156643
 20
186.768419585361
 10
141.07859156643
 20
185.134391585361
 42
-0.2679482664650033
 10
140.82859256643
 20
184.701379585361
 42
1.30322304160031
 10
141.51160656643
 20
184.018367585361
 42
-0.2679491924309931
 10
141.94461956643
 20
184.268367585361
 10
147.0786135664301
 20
184.268367585361
 10
147.0786135664301
 20
181.268395585361
 10
145.8036185664301
 20
181.268395585361
 10
145.8036185664301
 20
177.268367585361
 10
147.0786135664301
 20
177.268367585361
 10
147.0786135664301
 20
174.268367585361
 10
150.27862456643
 20
174.268367585361
 10
150.27862456643
 20
177.268367585361
 10
151.55361856643
 20
177.268367585361
 10
151.55361856643
 20
181.268395585361
 10
150.27862456643
 20
181.268395585361
 10
150.27862456643
 20
184.268367585361
 10
155.41258956643
 20
184.268364585361
 42
-0.2679482664650165
 10
155.84560156643
 20
184.018365585361
 42
1.303223041599348
 10
156.5286135664301
 20
184.701380585361
 42
-0.2679491924310083
 10
156.2786135664301
 20
185.134393585361
 10
156.27861056643
 20
186.768419585361
 42
-0.4142135623729951
 10
156.77861056643
 20
187.268419585361
 10
161.77860756643
 20
187.268419585361
 42
-0.4142135623729951
 10
162.27860756643
 20
186.768419585361
 10
162.27860756643
 20
185.134391585361
 42
-0.2679482664649352
 10
162.02860856643
 20
184.701379585361
 42
1.303223041599372
 10
162.7116225664301
 20
184.018367585361
 42
-0.2679491924310022
 10
163.14463556643
 20
184.268367585361
 10
254.21257756643
 20
184.268364585361
 42
-0.2679482664650904
 10
254.64558856643
 20
184.018365585361
 42
1.303223041599953
 10
255.32860056643
 20
184.701380585361
 42
-0.2679491924309987
 10
255.07860056643
 20
185.134393585361
 10
255.0785975664301
 20
186.768419585361
 42
-0.4142135623729951
 10
255.5785975664301
 20
187.268419585361
 10
260.5785955664301
 20
187.268419585361
 42
-0.4142135623730284
 10
261.0785955664301
 20
186.768419585361
 10
261.0785955664301
 20
185.134391585361
 42
-0.2679482664650033
 10
260.8285965664301
 20
184.701379585361
 42
1.303223041599971
 10
261.51161056643
 20
184.018367585361
 42
-0.2679491924309972
 10
261.9446235664301
 20
184.268367585361
 10
267.07861756643
 20
184.268367585361
 10
267.07861756643
 20
181.268395585361
 10
265.80362256643
 20
181.268395585361
 10
265.80362256643
 20
177.268367585361
 10
267.07861756643
 20
177.268367585361
 10
267.07861756643
 20
174.268367585361
 10
270.27862856643
 20
174.268367585361
 10
270.27862856643
 20
177.268367585361
 10
271.55362256643
 20
177.268367585361
 10
271.55362256643
 20
181.268395585361
 10
270.27862856643
 20
181.268395585361
 10
270.27862856643
 20
184.268367585361
 10
275.41259356643
 20
184.268364585361
 42
-0.2679482664650787
 10
275.8456045664299
 20
184.018365585361
 42
1.303223041599854
 10
276.52861656643
 20
184.701380585361
 42
-0.2679491924310083
 10
276.27861656643
 20
185.134393585361
 10
276.27861356643
 20
186.768419585361
 42
-0.4142135623730284
 10
276.77861356643
 20
187.268419585361
 10
281.77861156643
 20
187.268419585361
 42
-0.4142135623729619
 10
282.27861156643
 20
186.768419585361
 10
282.27861156643
 20
185.134391585361
 42
-0.2679482664650033
 10
282.02861256643
 20
184.701379585361
 42
1.30322304159937
 10
282.7116265664298
 20
184.018367585361
 42
-0.2679491924309831
 10
283.1446395664301
 20
184.268367585361
 10
414.21257356643
 20
184.268364585361
 42
-0.2679482664650273
 10
414.6455855664303
 20
184.018365585361
 42
1.303223041600079
 10
415.3285975664299
 20
184.7013805853609
 42
-0.2679491924310352
 10
415.0785975664299
 20
185.134393585361
 10
415.07859456643
 20
186.768419585361
 42
-0.4142135623730284
 10
415.57859456643
 20
187.268419585361
 10
420.57859156643
 20
187.268419585361
 42
-0.4142135623730284
 10
421.07859156643
 20
186.768419585361
 10
421.07859156643
 20
185.134391585361
 42
-0.2679482664650033
 10
420.82859256643
 20
184.701379585361
 42
1.303223041599265
 10
421.5116065664298
 20
184.018367585361
 42
-0.2679491924309941
 10
421.9446195664301
 20
184.268367585361
 10
427.07861356643
 20
184.268367585361
 10
427.07861356643
 20
181.268395585361
 10
425.80361956643
 20
181.268395585361
 10
425.80361956643
 20
177.268367585361
 10
427.07861356643
 20
177.268367585361
 10
427.07861356643
 20
174.268367585361
 10
430.2786245664301
 20
174.268367585361
 10
430.2786245664301
 20
177.268367585361
 10
431.55361956643
 20
177.268367585361
 10
431.55361956643
 20
181.268395585361
 10
430.2786245664301
 20
181.268395585361
 10
430.2786245664301
 20
184.268367585361
 10
435.41258956643
 20
184.268364585361
 42
-0.2679482664650273
 10
435.8456015664303
 20
184.018365585361
 42
1.303223041600224
 10
436.52861356643
 20
184.7013805853611
 42
-0.2679491924309811
 10
436.27861356643
 20
185.134393585361
 10
436.27861056643
 20
186.768419585361
 42
-0.4142135623730284
 10
436.77861056643
 20
187.268419585361
 10
441.77860756643
 20
187.268419585361
 42
-0.4142135623730284
 10
442.27860756643
 20
186.768419585361
 10
442.27860756643
 20
185.134391585361
 42
-0.2679482664650033
 10
442.02860856643
 20
184.701379585361
 42
1.303223041599902
 10
442.7116235664303
 20
184.018367585361
 42
-0.267949192431051
 10
443.1446365664301
 20
184.268367585361
 10
453.6786365664301
 20
184.268367585361
 10
453.6786365664301
 20
173.618368585361
 10
451.44458956643
 20
173.618368585361
 42
-0.2679491924309677
 10
451.0115765664302
 20
173.868368585361
 42
1.303223029820462
 10
450.3285625664301
 20
173.185356585361
 42
-0.267948266465011
 10
450.5785615664301
 20
172.752344585361
 10
450.57856456643
 20
165.218373585361
 10
447.57859256643
 20
165.218373585361
 10
447.57859256643
 20
166.493368585361
 10
443.57856456643
 20
166.493368585361
 10
443.57856456643
 20
165.218373585361
 10
440.57856456643
 20
165.218373585361
 10
440.57856456643
 20
162.018362585361
 10
443.57856456643
 20
162.018362585361
 10
443.57856456643
 20
160.743368585361
 10
447.57859256643
 20
160.743368585361
 10
447.57859256643
 20
162.018362585361
 10
450.57856456643
 20
162.018362585361
 10
450.57856456643
 20
153.242732585361
 10
440.2075015664301
 20
150.477713585361
 10
118.48912056643
 20
56.68904358536102
 42
0.3333698242440065
 10
118.12905756643
 20
56.20902558536102
 10
118.12905756643
 20
54.76839558536102
  0
CIRCLE
  5
D5
100
AcDbEntity
  8
0
  6
ByLayer
 62
    0
370
   -1
100
AcDbCircle
 10
112.49686156643
 20
90.76836758536099
 40
1.6
  0
CIRCLE
  5
D6
100
AcDbEntity
  8
0
  6
ByLayer
 62
    0
370
   -1
100
AcDbCircle
 10
112.51567256643
 20
165.268367585361
 40
1.6
  0
CIRCLE
  5
D7
100
AcDbEntity
  8
0
  6
ByLayer
 62
    0
370
   -1
100
AcDbCircle
 10
160.71267256643
 20
171.468367585361
 40
1.6
  0
CIRCLE
  5
D8
100
AcDbEntity
  8
0
  6
ByLayer
 62
    0
370
   -1
100
AcDbCircle
 10
160.69386156643
 20
88.26836758536099
 40
1.6
  0
LWPOLYLINE
  5
D9
100
AcDbEntity
  8
0
  6
ByLayer
 62
    0
370
   -1
100
AcDbPolyline
 90
   16
 70
    1
 43
0
 10
96.77866177064969
 20
326.1918635853587
 42
0.2679482664649845
 10
97.02866077064976
 20
326.6248755853588
 10
97.02866077064971
 20
331.0928255853588
 42
0.2679491924310272
 10
96.77866077064978
 20
331.5258375853591
 42
-1.303223041599832
 10
97.46167277064971
 20
332.2088515853588
 42
0.2679482664649843
 10
97.89468477064975
 20
331.9588535853588
 10
99.46255477064972
 20
331.9588505853588
 42
0.2679491924309287
 10
99.89556777064965
 20
332.2088505853588
 42
-1.303223041600459
 10
100.5785817706496
 20
331.5258395853588
 42
0.2679482617889959
 10
100.3285837706498
 20
331.0928275853588
 10
100.3285807706499
 20
326.6248775853587
 42
0.2679491924310002
 10
100.5785807706497
 20
326.191864585359
 42
-1.303223041600532
 10
99.89556877064966
 20
325.5088505853588
 42
0.2679482664649805
 10
99.46255677064971
 20
325.7588495853588
 10
97.89468977064973
 20
325.7588525853589
 42
0.26794919243108
 10
97.46167577064965
 20
325.5088525853589
 42
-1.303223041599952
  0
LWPOLYLINE
  5
DA
100
AcDbEntity
  8
0
  6
ByLayer
 62
    0
370
   -1
100
AcDbPolyline
 90
   16
 70
    1
 43
0
 10
100.5785807706498
 20
347.3918635853589
 42
-1.30322304159994
 10
99.89556877064967
 20
346.7088495853588
 42
0.2679482664649879
 10
99.46255677064971
 20
346.9588485853589
 10
97.89468977064973
 20
346.9588515853588
 42
0.2679491924310648
 10
97.46167577064966
 20
346.7088515853588
 42
-1.303223041599721
 10
96.77866177064966
 20
347.3918635853586
 42
0.2679482664649562
 10
97.02866077064986
 20
347.8248755853587
 10
97.02866077064969
 20
352.2928245853588
 42
0.2679491924310219
 10
96.77866077064989
 20
352.7258375853586
 42
-1.303223041600453
 10
97.46167277064983
 20
353.4088515853587
 42
0.267948266465029
 10
97.89468477064975
 20
353.1588535853587
 10
99.46255477064972
 20
353.1588505853587
 42
0.2679491924309439
 10
99.89556777064968
 20
353.4088505853587
 42
-1.303223041600203
 10
100.5785817706497
 20
352.7258385853592
 42
0.2679482664649779
 10
100.3285837706498
 20
352.2928265853589
 10
100.3285807706497
 20
347.8248765853587
 42
0.2679491924309307
  0
CIRCLE
  5
DB
100
AcDbEntity
  8
0
  6
ByLayer
 62
    0
370
   -1
100
AcDbCircle
 10
98.67862277064972
 20
339.4588515853588
 40
1.6
  0
LWPOLYLINE
  5
DC
100
AcDbEntity
  8
0
  6
ByLayer
 62
    0
370
   -1
100
AcDbPolyline
 90
   16
 70
    1
 43
0
 10
99.46254928887714
 20
259.7780195853632
 42
0.2679491924309931
 10
99.89556228887713
 20
260.0280195853632
 42
-1.303223041599985
 10
100.5785762888772
 20
259.345007585363
 42
0.2679482664649738
 10
100.3285782888771
 20
258.9119955853632
 10
100.3285752888771
 20
254.4440455853632
 42
0.2679491924309997
 10
100.5785752888771
 20
254.0110325853632
 42
-1.303223041600031
 10
99.8955632888771
 20
253.3280185853632
 42
0.2679482664650184
 10
99.46255128887714
 20
253.5780175853632
 10
97.8946842888771
 20
253.5780205853632
 42
0.2679491924309848
 10
97.4616702888772
 20
253.3280205853632
 42
-1.303223041600014
 10
96.77865628887719
 20
254.0110325853632
 42
0.2679482664650047
 10
97.02865528887713
 20
254.4440445853631
 10
97.02865528887725
 20
258.9119935853632
 42
0.2679491924310196
 10
96.77865528887716
 20
259.3450065853631
 42
-1.303223041600034
 10
97.46166728887709
 20
260.0280205853632
 42
0.2679482664650142
 10
97.89467928887711
 20
259.7780225853631
  0
LWPOLYLINE
  5
DD
100
AcDbEntity
  8
0
  6
ByLayer
 62
    0
370
   -1
100
AcDbPolyline
 90
   16
 70
    1
 43
0
 10
97.46167028887704
 20
232.1280215853632
 42
-1.303223041599974
 10
96.77865628887702
 20
232.8110325853633
 42
0.2679482664650083
 10
97.02865528887713
 20
233.2440445853632
 10
97.02865528887725
 20
237.7119945853632
 42
0.2679491924309926
 10
96.77865528887718
 20
238.1450065853632
 42
-1.303223041599903
 10
97.46166728887714
 20
238.8280205853633
 42
0.267948266464999
 10
97.89467928887711
 20
238.5780225853632
 10
99.46254928887714
 20
238.5780195853632
 42
0.2679491924310327
 10
99.8955622888771
 20
238.8280195853632
 42
-1.303223041599946
 10
100.5785762888772
 20
238.1450085853632
 42
0.2679482617889888
 10
100.3285782888772
 20
237.7119965853632
 10
100.3285752888772
 20
233.2440465853632
 42
0.267949192430984
 10
100.5785752888771
 20
232.8110335853632
 42
-1.303223041599977
 10
99.89556328887711
 20
232.1280195853632
 42
0.2679482664650391
 10
99.46255128887714
 20
232.3780185853632
 10
97.8946842888771
 20
232.3780215853632
 42
0.2679491924309798
  0
CIRCLE
  5
DE
100
AcDbEntity
  8
0
  6
ByLayer
 62
    0
370
   -1
100
AcDbCircle
 10
98.67861728887709
 20
246.0780205853632
 40
1.6
  0
ENDBLK
  5
52
330
50
100
AcDbEntity
  8
0
100
AcDbBlockEnd
  0
BLOCK
  5
54
330
53
100
AcDbEntity
  8
0
100
AcDbBlockBegin
  2
right_frame
 70
    0
 10
0
 20
0
  3
right_frame
  1

  0
LWPOLYLINE
  5
DF
100
AcDbEntity
  8
0
  6
ByLayer
 62
    0
370
   -1
100
AcDbPolyline
 90
    4
 70
    1
 43
0
 10
404.731384825354
 20
340.8006736940231
 10
404.731384825354
 20
348.8006746940231
 42
0.9999999999999999
 10
396.731384825354
 20
348.8006746940231
 10
396.731384825354
 20
340.8006736940231
 42
0.9999999131120526
  0
LWPOLYLINE
  5
E0
100
AcDbEntity
  8
0
  6
ByLayer
 62
    0
370
   -1
100
AcDbPolyline
 90
    4
 70
    1
 43
0
 10
404.731384825354
 20
300.8006736940231
 10
404.731384825354
 20
308.8006746940231
 42
0.9999999999999999
 10
396.731384825354
 20
308.8006746940231
 10
396.731384825354
 20
300.8006736940231
 42
0.9999999131120526
  0
LWPOLYLINE
  5
E1
100
AcDbEntity
  8
0
  6
ByLayer
 62
    0
370
   -1
100
AcDbPolyline
 90
    4
 70
    1
 43
0
 10
396.731384825354
 20
268.8006746940231
 10
396.731384825354
 20
260.8006736940231
 42
0.9999999131120526
 10
404.731384825354
 20
260.8006736940231
 10
404.731384825354
 20
268.8006746940231
 42
0.9999999999999999
  0
LWPOLYLINE
  5
E2
100
AcDbEntity
  8
0
  6
ByLayer
 62
    0
370
   -1
100
AcDbPolyline
 90
    4
 70
    1
 43
0
 10
309.731384825354
 20
300.8006736940231
 10
309.731384825354
 20
308.8006746940231
 42
0.9999999999999999
 10
301.731384825354
 20
308.8006746940231
 10
301.731384825354
 20
300.8006736940231
 42
0.9999999131120526
  0
LWPOLYLINE
  5
E3
100
AcDbEntity
  8
0
  6
ByLayer
 62
    0
370
   -1
100
AcDbPolyline
 90
    4
 70
    1
 43
0
 10
309.731384825354
 20
260.8006736940231
 10
309.731384825354
 20
268.8006746940231
 42
0.9999999999999999
 10
301.731384825354
 20
268.8006746940231
 10
301.731384825354
 20
260.8006736940231
 42
0.9999999131120526
  0
LWPOLYLINE
  5
E4
100
AcDbEntity
  8
0
  6
ByLayer
 62
    0
370
   -1
100
AcDbPolyline
 90
    4
 70
    1
 43
0
 10
249.7313878253538
 20
269.8006756940231
 10
241.7313878253538
 20
269.8006756940231
 42
0.9999999789265744
 10
241.7313878253538
 20
261.8006756940231
 10
249.7313878253538
 20
261.8006756940231
 42
0.9999999131120526
  0
LWPOLYLINE
  5
E5
100
AcDbEntity
  8
0
  6
ByLayer
 62
    0
370
   -1
100
AcDbPolyline
 90
    4
 70
    1
 43
0
 10
189.7313878253538
 20
269.8006756940231
 10
181.7313878253538
 20
269.8006756940231
 42
0.9999999789265744
 10
181.7313878253538
 20
261.8006756940231
 10
189.7313878253538
 20
261.8006756940231
 42
0.9999999131120526
  0
LWPOLYLINE
  5
E6
100
AcDbEntity
  8
0
  6
ByLayer
 62
    0
370
   -1
100
AcDbPolyline
 90
    4
 70
    1
 43
0
 10
129.7313878253538
 20
269.8006756940231
 10
121.7313878253538
 20
269.8006756940231
 42
0.9999999789265744
 10
121.7313878253538
 20
261.8006756940231
 10
129.7313878253538
 20
261.8006756940231
 42
0.9999999131120526
  0
LWPOLYLINE
  5
E7
100
AcDbEntity
  8
0
  6
ByLayer
 62
    0
370
   -1
100
AcDbPolyline
 90
    4
 70
    1
 43
0
 10
69.73138782535386
 20
269.8006756940231
 10
61.73138782535386
 20
269.8006756940231
 42
0.9999999789265762
 10
61.73138782535386
 20
261.8006756940231
 10
69.73138782535386
 20
261.8006756940231
 42
0.9999999131120491
  0
LWPOLYLINE
  5
E8
100
AcDbEntity
  8
0
  6
ByLayer
 62
    0
370
   -1
100
AcDbPolyline
 90
   16
 70
    1
 43
0
 10
323.6267558253539
 20
309.8340166940231
 10
323.6267448253539
 20
294.8045786940231
 42
0.1989123175249987
 10
325.3840998253539
 20
290.5619366940231
 10
341.8693668253537
 20
274.0766456940232
 42
0.1989124853150036
 10
346.1120068253539
 20
272.3192806940231
 10
351.1414438253539
 20
272.3192776940231
 42
0.1989124853150096
 10
355.3840868253537
 20
274.076634694023
 10
371.869382825354
 20
290.5618976940232
 42
0.1989123174910057
 10
373.6267448253539
 20
294.8045366940232
 10
373.6267568253539
 20
309.8339656940232
 42
0.1989123360569854
 10
371.8693978253539
 20
314.0766066940231
 10
355.3841148253539
 20
330.5618886940231
 42
0.1989123583080024
 10
351.1414748253538
 20
332.3192486940233
 10
346.1120378253539
 20
332.319248694023
 42
0.198912358308003
 10
341.8693968253538
 20
330.5618896940231
 10
325.3841148253539
 20
314.0766066940232
 42
0.1989123360590029
  0
LWPOLYLINE
  5
E9
100
AcDbEntity
  8
0
  6
ByLayer
 62
    0
370
   -1
100
AcDbPolyline
 90
  210
 70
    0
 43
0
 10
368.2809368253539
 20
375.3012586940231
 10
368.2808958253539
 20
375.8006466940232
 10
368.7809368253539
 20
375.8006466940232
 10
373.2653588253539
 20
375.8006466940232
 42
-0.2679491924309781
 10
373.6983708253539
 20
375.5506466940232
 42
1.303223041599924
 10
374.3813848253538
 20
376.2336576940232
 42
-0.2679482664649951
 10
374.1313868253538
 20
376.6666696940231
 10
374.1313868253538
 20
378.3006986940231
 42
-0.4142135623730284
 10
374.6313868253538
 20
378.8006986940231
 10
379.6313838253539
 20
378.8006986940231
 42
-0.4142135623730284
 10
380.1313838253539
 20
378.3006986940231
 10
380.1313808253539
 20
376.6666716940231
 42
-0.2679491924310458
 10
379.8813808253539
 20
376.2336586940231
 42
1.303223041599924
 10
380.564392825354
 20
375.5506446940232
 42
-0.2679482664649835
 10
380.9974048253538
 20
375.8006436940232
 10
386.1313698253539
 20
375.8006466940232
 10
386.1313698253539
 20
372.8006746940231
 10
384.8563758253538
 20
372.8006746940231
 10
384.8563758253538
 20
368.8006466940232
 10
386.1313698253539
 20
368.8006466940232
 10
386.1313698253539
 20
365.8006466940232
 10
389.3313808253538
 20
365.8006466940232
 10
389.3313808253538
 20
368.8006466940232
 10
390.6063758253538
 20
368.8006466940232
 10
390.6063758253538
 20
372.8006746940231
 10
389.3313808253538
 20
372.8006746940231
 10
389.3313808253538
 20
375.8006466940232
 10
394.4653748253539
 20
375.8006466940232
 42
-0.2679491924309741
 10
394.8983868253538
 20
375.5506466940232
 42
1.303223041600144
 10
395.5814008253539
 20
376.2336576940231
 42
-0.2679482664649534
 10
395.3314028253538
 20
376.6666696940231
 10
395.3314028253538
 20
378.3006986940231
 42
-0.4142135623730284
 10
395.8314028253538
 20
378.8006986940231
 10
400.8314008253539
 20
378.8006986940231
 42
-0.4142135623730284
 10
401.3314008253539
 20
378.3006986940231
 10
401.3313978253539
 20
376.6666716940231
 42
-0.2679491924310458
 10
401.0813978253539
 20
376.2336586940231
 42
1.303223041600971
 10
401.7644088253539
 20
375.5506446940232
 42
-0.2679482804950124
 10
402.1974208253538
 20
375.8006436940232
 10
412.731384825354
 20
375.8006446940232
 10
412.731384825354
 20
370.8006446940232
 10
412.731384825354
 20
349.8006766940231
 10
410.731384825354
 20
347.8006726940231
 10
410.731384825354
 20
245.8006746940231
 10
402.1974208253538
 20
245.8006776940231
 42
-0.2679482664649726
 10
401.7644098253539
 20
246.0506756940231
 42
1.303223041599844
 10
401.0813978253537
 20
245.3676606940231
 42
-0.2679491924309814
 10
401.3313978253539
 20
244.9346486940232
 10
401.3314008253539
 20
29.30059169402313
 42
-0.4142135623730305
 10
400.8314008253539
 20
28.80059169402324
 10
395.8314028253538
 20
28.80059169402313
 42
-0.4142135623730284
 10
395.3314028253538
 20
29.30059169402313
 10
395.3314028253538
 20
30.93461969402313
 42
-0.267948266464984
 10
395.5814008253539
 20
31.36763169402316
 42
1.303223029819946
 10
394.8983868253537
 20
32.05064369402322
 42
-0.2679491924309582
 10
394.4653748253539
 20
31.80064369402311
 10
389.3313808253538
 20
31.80064369402311
 10
389.3313808253538
 20
34.80061569402312
 10
390.6063758253538
 20
34.80061569402312
 10
390.6063758253538
 20
38.80064369402311
 10
389.3313808253538
 20
38.80064369402311
 10
389.3313808253538
 20
41.80064369402311
 10
386.1313698253539
 20
41.80064369402311
 10
386.1313698253539
 20
38.80064369402311
 10
384.8563758253538
 20
38.80064369402311
 10
384.8563758253538
 20
34.80061569402312
 10
386.1313698253539
 20
34.80061569402312
 10
386.1313698253539
 20
31.80064369402311
 10
380.9974048253538
 20
31.8006466940231
 42
-0.2679482664650385
 10
380.564392825354
 20
32.05064469402313
 42
1.303223041599494
 10
379.8813808253539
 20
31.3676296940232
 42
-0.2679491924310013
 10
380.1313808253539
 20
30.93461769402313
 10
380.1313838253539
 20
29.30059169402313
 42
-0.4142135623730305
 10
379.6313838253539
 20
28.80059169402324
 10
374.6313868253538
 20
28.80059169402324
 42
-0.4142135623730638
 10
374.1313868253538
 20
29.3005806940231
 10
374.1313868253538
 20
244.9346506940232
 42
-0.2679482664649804
 10
374.3813848253538
 20
245.3676626940232
 42
1.303223041599767
 10
373.6983708253539
 20
246.0506746940233
 42
-0.2679491924310136
 10
373.2653588253539
 20
245.8006746940231
 10
352.1974208253538
 20
245.8006776940231
 42
-0.2679482664649726
 10
351.7644098253539
 20
246.0506756940231
 42
1.303223041599844
 10
351.0813978253537
 20
245.3676606940231
 42
-0.2679491924309814
 10
351.3313978253539
 20
244.9346486940232
 10
351.3314008253539
 20
243.3006226940232
 42
-0.4142135623730284
 10
350.8314008253539
 20
242.8006226940232
 10
345.8314028253538
 20
242.8006226940232
 42
-0.4142135623730284
 10
345.3314028253538
 20
243.3006226940232
 10
345.3314028253538
 20
244.9346506940232
 42
-0.267948266464991
 10
345.5814008253539
 20
245.3676626940231
 42
1.303223041599826
 10
344.8983868253537
 20
246.0506746940233
 42
-0.267949192430966
 10
344.4653748253539
 20
245.8006746940231
 10
339.3313808253538
 20
245.8006746940231
 10
339.3313808253538
 20
248.8006466940232
 10
340.6063758253538
 20
248.8006466940232
 10
340.6063758253538
 20
252.8006746940231
 10
339.3313808253538
 20
252.8006746940231
 10
339.3313808253538
 20
255.8006746940231
 10
336.1313698253539
 20
255.8006746940231
 10
336.1313698253539
 20
252.8006746940231
 10
334.8563758253538
 20
252.8006746940231
 10
334.8563758253538
 20
248.8006466940232
 10
336.1313698253539
 20
248.8006466940232
 10
336.1313698253539
 20
245.8006746940231
 10
330.9974048253538
 20
245.8006776940231
 42
-0.2679482664650085
 10
330.5643928253539
 20
246.0506756940231
 42
1.303223041599687
 10
329.8813808253537
 20
245.3676606940231
 42
-0.2679491924309814
 10
330.1313808253539
 20
244.9346486940232
 10
330.1313838253539
 20
243.3006226940232
 42
-0.4142135623730284
 10
329.6313838253539
 20
242.8006226940232
 10
324.6313868253538
 20
242.8006226940232
 42
-0.4142135623730284
 10
324.1313868253538
 20
243.3006226940232
 10
324.1313868253538
 20
244.9346506940232
 42
-0.2679482664649804
 10
324.3813848253538
 20
245.3676626940232
 42
1.303223041599767
 10
323.6983708253539
 20
246.0506746940233
 42
-0.2679491924310136
 10
323.2653588253539
 20
245.8006746940231
 10
232.1974168253538
 20
245.8006776940231
 42
-0.2679482664649933
 10
231.7644058253539
 20
246.0506756940231
 42
1.303223041599843
 10
231.081393825354
 20
245.3676606940231
 42
-0.2679491924309819
 10
231.331393825354
 20
244.9346486940232
 10
231.3313968253538
 20
243.3006226940232
 42
-0.4142135623730284
 10
230.8313968253538
 20
242.8006226940232
 10
225.8313988253538
 20
242.8006226940232
 42
-0.4142135623730284
 10
225.3313988253538
 20
243.3006226940232
 10
225.3313988253538
 20
244.9346506940232
 42
-0.2679482664649742
 10
225.5813968253538
 20
245.3676626940231
 42
1.303223041599873
 10
224.8983828253537
 20
246.0506746940233
 42
-0.2679491924310055
 10
224.4653708253539
 20
245.8006746940231
 10
219.3313768253538
 20
245.8006746940231
 10
219.3313768253538
 20
248.8006466940232
 10
220.6063718253538
 20
248.8006466940232
 10
220.6063718253538
 20
252.8006746940231
 10
219.3313768253538
 20
252.8006746940231
 10
219.3313768253538
 20
255.8006746940231
 10
216.1313658253539
 20
255.8006746940231
 10
216.1313658253539
 20
252.8006746940231
 10
214.8563718253538
 20
252.8006746940231
 10
214.8563718253538
 20
248.8006466940232
 10
216.1313658253539
 20
248.8006466940232
 10
216.1313658253539
 20
245.8006746940231
 10
210.9974008253538
 20
245.8006776940231
 42
-0.2679482664650004
 10
210.564389825354
 20
246.0506756940231
 42
1.30322304159984
 10
209.8813778253537
 20
245.367660694023
 42
-0.2679491924308538
 10
210.1313778253541
 20
244.9346486940232
 10
210.1313808253538
 20
243.3006226940232
 42
-0.4142135623730284
 10
209.6313808253538
 20
242.8006226940232
 10
204.6313828253538
 20
242.8006226940232
 42
-0.4142135623730284
 10
204.1313828253538
 20
243.3006226940232
 10
204.1313828253538
 20
244.9346506940232
 42
-0.2679482664649742
 10
204.3813808253538
 20
245.3676626940231
 42
1.303223041599873
 10
203.6983668253537
 20
246.0506746940233
 42
-0.2679491924310127
 10
203.265354825354
 20
245.8006746940231
 10
72.19742082535396
 20
245.8006776940231
 42
-0.2679482664650037
 10
71.76440882535383
 20
246.0506756940231
 42
1.303223041600031
 10
71.08139682535386
 20
245.3676606940231
 42
-0.2679491924309688
 10
71.33139682535386
 20
244.9346486940232
 10
71.33139982535386
 20
243.3006226940232
 42
-0.4142135623730284
 10
70.83139982535386
 20
242.8006226940232
 10
65.83140282535385
 20
242.8006226940232
 42
-0.4142135623730284
 10
65.33140282535385
 20
243.3006226940232
 10
65.33140282535385
 20
244.9346506940232
 42
-0.2679482664649951
 10
65.58140082535384
 20
245.3676626940231
 42
1.303223041600467
 10
64.89838682535381
 20
246.0506746940231
 42
-0.2679491924310043
 10
64.46537482535393
 20
245.8006746940231
 10
59.33138082535379
 20
245.8006746940231
 10
59.33138082535379
 20
248.8006466940232
 10
60.6063748253539
 20
248.8006466940232
 10
60.6063748253539
 20
252.8006746940231
 10
59.33138082535379
 20
252.8006746940231
 10
59.33138082535379
 20
255.8006746940231
 10
56.13136982535389
 20
255.8006746940231
 10
56.13136982535389
 20
252.8006746940231
 10
54.8563748253539
 20
252.8006746940231
 10
54.8563748253539
 20
248.8006466940232
 10
56.13136982535389
 20
248.8006466940232
 10
56.13136982535389
 20
245.8006746940231
 10
50.9974048253539
 20
245.8006776940231
 42
-0.2679482664650313
 10
50.56439282535391
 20
246.0506756940231
 42
1.303223041599792
 10
49.88138082535386
 20
245.3676606940231
 42
-0.267949192430972
 10
50.13138082535386
 20
244.9346486940232
 10
50.13138382535396
 20
243.3006226940232
 42
-0.4142135623730284
 10
49.63138382535396
 20
242.8006226940232
 10
44.63138682535384
 20
242.8006226940232
 42
-0.4142135623730284
 10
44.13138682535396
 20
243.3006226940232
 10
44.13138682535384
 20
244.9346506940232
 42
-0.2679482664649908
 10
44.38138482535385
 20
245.3676626940231
 42
1.30322304160068
 10
43.69836982535389
 20
246.0506746940231
 42
-0.2679491924310051
 10
43.26535782535382
 20
245.8006746940231
 10
32.73135782535394
 20
245.8006746940231
 10
32.73135782535394
 20
256.4506736940231
 10
34.96540482535386
 20
256.4506736940231
 42
-0.2679491924310201
 10
35.39841682535389
 20
256.2006736940231
 42
1.303223029820155
 10
36.08143082535391
 20
256.8836856940235
 42
-0.2679482664649365
 10
35.83143282535389
 20
257.3166976940232
 10
35.83142982535401
 20
264.8506686940232
 10
38.83140182535396
 20
264.8506686940232
 10
38.83140182535396
 20
263.5756736940231
 10
42.83142982535401
 20
263.5756736940231
 10
42.83142982535401
 20
264.8506686940232
 10
45.83142982535401
 20
264.8506686940232
 10
45.83142982535401
 20
268.0506796940231
 10
42.83142982535401
 20
268.0506796940231
 10
42.83142982535401
 20
269.3256736940231
 10
38.83140182535396
 20
269.3256736940231
 10
38.83140182535396
 20
268.0506796940231
 10
35.83142982535401
 20
268.0506796940231
 10
35.83142982535401
 20
276.7988366940231
 10
367.9208738253539
 20
373.3799976940231
 42
0.3333698242439171
 10
368.2809368253539
 20
373.8600166940232
 10
368.2809368253539
 20
375.3006466940232
  0
CIRCLE
  5
EA
100
AcDbEntity
  8
0
  6
ByLayer
 62
    0
370
   -1
100
AcDbCircle
 10
371.5783148253539
 20
346.2217646940231
 40
1.6
  0
CIRCLE
  5
EB
100
AcDbEntity
  8
0
  6
ByLayer
 62
    0
370
   -1
100
AcDbCircle
 10
371.5595038253539
 20
263.0217646940231
 40
1.6
  0
CIRCLE
  5
EC
100
AcDbEntity
  8
0
  6
ByLayer
 62
    0
370
   -1
100
AcDbCircle
 10
323.3813148253539
 20
340.0217646940231
 40
1.6
  0
CIRCLE
  5
ED
100
AcDbEntity
  8
0
  6
ByLayer
 62
    0
370
   -1
100
AcDbCircle
 10
323.3625038253539
 20
265.5217646940231
 40
1.6
  0
LWPOLYLINE
  5
EE
100
AcDbEntity
  8
0
  6
ByLayer
 62
    0
370
   -1
100
AcDbPolyline
 90
   16
 70
    1
 43
0
 10
386.0814138253539
 20
98.97621469402529
 10
386.0814168253539
 20
103.4441646940253
 42
0.2679491924309935
 10
385.8314168253539
 20
103.8771766940253
 42
-1.303223041600268
 10
386.5144288253538
 20
104.5601906940252
 42
0.2679482664650814
 10
386.9474408253539
 20
104.3101926940254
 10
388.5153078253539
 20
104.3101896940253
 42
0.2679491924309955
 10
388.9483208253538
 20
104.5601896940253
 42
-1.303223041599756
 10
389.6313348253539
 20
103.8771786940253
 42
0.267948266465003
 10
389.3813368253539
 20
103.4441666940253
 10
389.3813368253539
 20
98.97621669402528
 42
0.2679491924309435
 10
389.6313368253539
 20
98.54320369402539
 42
-1.303223041599861
 10
388.9483248253538
 20
97.86018969402529
 42
0.2679482664648623
 10
388.5153128253539
 20
98.11018869402527
 10
386.9474428253538
 20
98.11019169402536
 42
0.2679491924309998
 10
386.5144288253539
 20
97.86019169402527
 42
-1.303223041599846
 10
385.8314148253539
 20
98.5432026940253
 42
0.2679482617889977
  0
LWPOLYLINE
  5
EF
100
AcDbEntity
  8
0
  6
ByLayer
 62
    0
370
   -1
100
AcDbPolyline
 90
   16
 70
    1
 43
0
 10
386.9474428253538
 20
76.91019169402531
 42
0.2679491924309493
 10
386.5144288253539
 20
76.66019169402519
 42
-1.303223041599998
 10
385.8314148253539
 20
77.34320369402522
 42
0.2679482664650111
 10
386.0814138253539
 20
77.7762156940253
 10
386.0814168253539
 20
82.2441656940253
 42
0.2679491924309745
 10
385.8314168253539
 20
82.67717769402525
 42
-1.303223041600207
 10
386.5144288253538
 20
83.36019169402529
 42
0.2679482664650009
 10
386.9474408253539
 20
83.11019369402531
 10
388.5153078253539
 20
83.11019069402528
 42
0.2679491924310065
 10
388.9483208253538
 20
83.36019069402514
 42
-1.303223041600218
 10
389.6313348253539
 20
82.6771786940252
 42
0.2679482664649913
 10
389.3813368253539
 20
82.2441666940253
 10
389.3813368253539
 20
77.77621769402529
 42
0.2679491924309927
 10
389.6313368253539
 20
77.34320369402531
 42
-1.303223041600118
 10
388.9483248253538
 20
76.66018969402529
 42
0.2679482664649369
 10
388.5153128253539
 20
76.91018869402528
  0
CIRCLE
  5
F0
100
AcDbEntity
  8
0
  6
ByLayer
 62
    0
370
   -1
100
AcDbCircle
 10
387.7313748253538
 20
90.61019069402528
 40
1.6
  0
LWPOLYLINE
  5
F1
100
AcDbEntity
  8
0
  6
ByLayer
 62
    0
370
   -1
100
AcDbPolyline
 90
   16
 70
    1
 43
0
 10
388.9483208253538
 20
176.741022694021
 42
-1.303223041600725
 10
389.6313348253539
 20
176.0580106940209
 42
0.2679482664649728
 10
389.3813368253539
 20
175.6249986940209
 10
389.3813368253539
 20
171.1570496940209
 42
0.2679491924310148
 10
389.6313368253539
 20
170.724035694021
 42
-1.303223041600621
 10
388.9483248253538
 20
170.0410216940209
 42
0.2679482664649562
 10
388.5153128253539
 20
170.2910206940209
 10
386.9474428253538
 20
170.2910236940209
 42
0.26794919243096
 10
386.5144288253539
 20
170.0410236940209
 42
-1.30322304160023
 10
385.8314148253539
 20
170.724035694021
 42
0.2679482664649916
 10
386.0814138253539
 20
171.1570476940209
 10
386.0814168253539
 20
175.6249976940209
 42
0.2679491924310087
 10
385.8314168253539
 20
176.0580096940209
 42
-1.303223041600295
 10
386.5144288253538
 20
176.7410236940208
 42
0.2679482664650906
 10
386.9474408253539
 20
176.4910256940209
 10
388.5153078253539
 20
176.491022694021
 42
0.2679491924309891
  0
LWPOLYLINE
  5
F2
100
AcDbEntity
  8
0
  6
ByLayer
 62
    0
370
   -1
100
AcDbPolyline
 90
   16
 70
    1
 43
0
 10
385.8314168253539
 20
197.2580086940209
 42
-1.303223041600247
 10
386.5144288253538
 20
197.9410226940209
 42
0.2679482664650623
 10
386.9474408253539
 20
197.6910246940209
 10
388.5153078253539
 20
197.6910216940209
 42
0.2679491924310743
 10
388.9483208253538
 20
197.9410216940208
 42
-1.3032230416004
 10
389.6313348253539
 20
197.2580106940209
 42
0.2679482664650291
 10
389.3813368253539
 20
196.824998694021
 10
389.3813368253539
 20
192.357048694021
 42
0.2679491924309783
 10
389.6313368253539
 20
191.9240356940209
 42
-1.303223041600381
 10
388.9483248253538
 20
191.241021694021
 42
0.2679482664649501
 10
388.5153128253539
 20
191.491020694021
 10
386.9474428253538
 20
191.491023694021
 42
0.26794919243096
 10
386.5144288253539
 20
191.241023694021
 42
-1.303223041600048
 10
385.8314148253539
 20
191.9240346940209
 42
0.2679482617889637
 10
386.0814138253539
 20
192.3570466940209
 10
386.0814168253539
 20
196.824996694021
 42
0.2679491924310159
  0
CIRCLE
  5
F3
100
AcDbEntity
  8
0
  6
ByLayer
 62
    0
370
   -1
100
AcDbCircle
 10
387.7313748253538
 20
183.991022694021
 40
1.6
  0
ENDBLK
  5
55
330
53
100
AcDbEntity
  8
0
100
AcDbBlockEnd
  0
BLOCK
  5
57
330
56
100
AcDbEntity
  8
0
100
AcDbBlockBegin
  2
base_frame_reinforcement
 70
    0
 10
0
 20
0
  3
base_frame_reinforcement
  1

  0
LWPOLYLINE
  5
F4
100
AcDbEntity
  8
0
  6
ByLayer
 62
  256
370
   -1
100
AcDbPolyline
 90
   81
 70
    0
 43
0
 10
59.17485181715313
 20
95.14258843660878
 10
52.76776127130211
 20
101.5496896976486
 42
0.267949192431115
 10
52.28479739216607
 20
101.6791001487178
 42
-1.30322304160166
 10
52.28479729430295
 20
102.6450261487186
 42
0.2679482664660226
 10
52.76775841516655
 20
102.7744356976515
 10
53.92319149429498
 20
103.9298676185233
 42
0.4142135623730097
 10
53.92319215470513
 20
104.6369746185229
 10
50.38766445675401
 20
108.1725099205681
 42
0.4142135623729773
 10
49.68055645675338
 20
108.1725095809791
 10
48.52512737762594
 20
107.0170786601038
 42
0.2679491924309979
 10
48.39571792655671
 20
106.5341147809669
 42
-1.303223041599969
 10
47.42978992655619
 20
106.5341146831057
 42
0.2679482664649847
 10
47.30037974605295
 20
107.0170764355413
 10
43.67012176815069
 20
110.6473461944893
 10
41.54881878694096
 20
108.5260481757019
 10
42.45037494492192
 20
107.6244903336834
 10
39.62192530326513
 20
104.7960459753426
 10
38.72036914528417
 20
105.6976038173611
 10
36.59904716405595
 20
103.5762857985912
 10
34.33629927737627
 20
105.8390379119096
 10
36.45762125860449
 20
107.9603559306794
 10
35.55606510062364
 20
108.8619137726977
 10
38.38451474228043
 20
111.6903581310385
 10
39.28607090026128
 20
110.7888002890201
 10
41.40737388147193
 20
112.9100993078076
 10
37.7771112719979
 20
116.5403676983315
 42
0.2679491924310037
 10
37.2941483928621
 20
116.6697781493999
 42
-1.303223041600069
 10
37.29414729499877
 20
117.6357041494012
 42
0.2679482664650045
 10
37.77710841586246
 20
117.7651136983345
 10
38.93254249499076
 20
118.9205456192053
 42
0.4142135623729361
 10
38.93254215540006
 20
119.627651619206
 10
35.39701445745005
 20
123.1631879212509
 42
0.4142135623730125
 10
34.68990745744929
 20
123.1631875816611
 10
33.53447737832208
 20
122.0077566607867
 42
0.2679491924309413
 10
33.40506792725273
 20
121.5247927816498
 42
-1.303223041599995
 10
32.43914092725208
 20
121.5247926837876
 42
0.2679482664649904
 10
32.3097313783187
 20
122.0077538046511
 10
25.97037935914148
 20
128.3471164256329
 42
0.1974006790192643
 10
23.65818555206499
 20
122.7240373656049
 10
23.65818555206499
 20
17.66393653751638
 42
0.1974006790192638
 10
25.97037935914148
 20
12.04085747748837
 10
32.3097313783187
 20
18.3802200984702
 42
0.2679482664649828
 10
32.43914092725208
 20
18.86318121933377
 42
-1.303223041600015
 10
33.40506792725273
 20
18.86318112147143
 42
0.2679491924309388
 10
33.53447737832209
 20
18.38021724233471
 10
34.68990745744929
 20
17.22478632146033
 42
0.4142135623729964
 10
35.39701445745005
 20
17.2247859818703
 10
38.93254215540003
 20
20.76032228391537
 42
0.4142135623729317
 10
38.93254249499091
 20
21.46742828391601
 10
37.77710841586246
 20
22.62286020478666
 42
0.2679482664650021
 10
37.29414729499877
 20
22.7522697537201
 42
-1.303223041600077
 10
37.2941483928621
 20
23.71819575372133
 42
0.2679491924310079
 10
37.77711127199791
 20
23.84760620478979
 10
41.40737388147193
 20
27.47787459531372
 10
39.28607090026128
 20
29.5991736141012
 10
38.38451474228043
 20
28.6976157720828
 10
35.55606510062364
 20
31.52606013042362
 10
36.45762125860449
 20
32.42761797244191
 10
34.33629927737627
 20
34.54893599121169
 10
36.59904716405595
 20
36.81168810453011
 10
38.72036914528417
 20
34.69037008576021
 10
39.62192530326513
 20
35.59192792777873
 10
42.45037494492192
 20
32.76348356943791
 10
41.54881878694096
 20
31.86192572741939
 10
43.67012176815069
 20
29.74062770863199
 10
47.30038037762279
 20
33.37089809915193
 42
0.267948266464979
 10
47.42978992655617
 20
33.85385922001569
 42
-1.303223041599964
 10
48.3957179265567
 20
33.85385912215435
 42
0.2679491924309749
 10
48.52512737762606
 20
33.37089524301743
 10
49.68055645675341
 20
32.21546432214222
 42
0.4142135623729569
 10
50.38766445675401
 20
32.21546398255319
 10
53.92319215470502
 20
35.75099928459835
 42
0.4142135623730008
 10
53.923191494295
 20
36.4581062845979
 10
52.76775841516655
 20
37.61353820546969
 42
0.2679482664660049
 10
52.28479729430285
 20
37.74294775440277
 42
-1.303223041601679
 10
52.28479739216607
 20
38.70887375440347
 42
0.2679491924311207
 10
52.76776178389116
 20
38.83828471806197
 10
59.10707607532015
 20
45.17760961133257
 42
0.2051929011789895
 10
59.4343855645285
 20
45.89398747500246
 10
59.4343855645285
 20
94.49398642811883
 42
0.2051929011789907
 10
59.10707607532015
 20
95.21036429178872
 42
0.2051929011789907
  0
ENDBLK
  5
58
330
56
100
AcDbEntity
  8
0
100
AcDbBlockEnd
  0
BLOCK
  5
5A
330
59
100
AcDbEntity
  8
0
100
AcDbBlockBegin
  2
spool_holder_bracket
 70
    0
 10
0
 20
0
  3
spool_holder_bracket
  1

  0
LWPOLYLINE
  5
F5
100
AcDbEntity
  8
0
  6
ByLayer
 62
  256
370
   -1
100
AcDbPolyline
 90
   52
 70
    1
 43
0
 10
23.44972231732947
 20
31.72957200619531
 42
-0.267949192430933
 10
23.61332431732944
 20
31.25709400619535
 42
1.303223041600121
 10
24.57677931732928
 20
31.32613900619525
 42
-0.2679482664649354
 10
24.67133631732941
 20
31.81711500619536
 10
28.03281631732943
 20
35.69759400619522
 10
30.30032431732934
 20
33.73335400619531
 10
29.46551831732938
 20
32.76965800619523
 10
32.48891131732944
 20
30.15062900619522
 10
33.32371831732951
 20
31.11432500619514
 10
35.59124731732948
 20
29.15006700619532
 10
37.68646331732941
 20
31.56877300619531
 10
35.41893431732944
 20
33.53303100619523
 10
36.2537403173294
 20
34.49672700619531
 10
33.23034631732935
 20
37.11575600619533
 10
32.39554031732951
 20
36.15206100619541
 10
30.12803231732937
 20
38.11630100619531
 10
33.4895133173294
 20
41.99677700619542
 42
-0.2679491924310273
 10
33.96199031732942
 20
42.16037800619516
 42
1.303223041600278
 10
33.89294631732935
 20
43.12383300619512
 42
-0.2679482664660047
 10
33.40196931732953
 20
43.21838900619547
 10
32.16690131732935
 20
44.28827400619546
 42
-0.4142135623730006
 10
32.11635531732941
 20
44.99357100619532
 10
35.39011831732944
 20
48.77278600619533
 42
-0.414213562372983
 10
36.09541631732941
 20
48.82333000619536
 10
37.33048131732937
 20
47.75344600619535
 42
-0.2679491924309862
 10
37.49408331732945
 20
47.28096800619532
 42
1.303223041600699
 10
38.45753831732919
 20
47.35001300619523
 42
-0.26794826646501
 10
38.55209431732953
 20
47.84098800619521
 10
44.13975134896964
 20
54.29135581716251
 10
47.63476948400637
 20
51.26377852900546
 42
0.2046132015303099
 10
50.62705243638982
 20
50.30460615613347
 10
191.3523093173294
 20
76.77400600619521
 42
0.1456556773480011
 10
193.2764623173294
 20
78.00099600619522
 10
197.4875273173293
 20
82.86222700619527
 42
-0.2043018789769999
 10
203.6918653173295
 20
85.8890370061952
 42
-0.6607131774120089
 10
204.4985123173295
 20
84.2355760061952
 10
200.8132373173296
 20
79.98131400619533
 42
0.9999999999999999
 10
207.4646563173294
 20
74.21948900619535
 10
211.1499323173294
 20
78.47375200619523
 42
-0.6607131836799561
 10
212.9015223173294
 20
77.91112600619532
 42
-0.3606908932380091
 10
206.5572293173294
 20
68.63920100619534
 10
21.23434731732948
 20
15.67236300619531
 42
-0.2532770339399991
 10
17.51611731732953
 20
16.49499000619532
 10
14.02111131732943
 20
19.52255700619512
 10
19.60875531732938
 20
25.97290400619532
 42
-0.2679491924310277
 10
20.08123231732941
 20
26.13650500619553
 42
1.303223041600255
 10
20.01218731732945
 20
27.09996000619524
 42
-0.2679482664649978
 10
19.52121031732952
 20
27.19451600619532
 10
18.28614231732945
 20
28.26440100619531
 42
-0.4142135623730079
 10
18.23559731732951
 20
28.96969800619524
 10
21.50935931732943
 20
32.74891200619531
 42
-0.4142135623729888
 10
22.2146573173294
 20
32.79945700619531
  0
ENDBLK
  5
5B
330
59
100
AcDbEntity
  8
0
100
AcDbBlockEnd
  0
BLOCK
  5
5D
330
5C
100
AcDbEntity
  8
0
100
AcDbBlockBegin
  2
print_bed_bearing_clamp
 70
    0
 10
0
 20
0
  3
print_bed_bearing_clamp
  1

  0
LWPOLYLINE
  5
F6
100
AcDbEntity
  8
0
  6
ByLayer
 62
    0
370
   -1
100
AcDbPolyline
 90
   34
 70
    1
 43
0
 10
8.466420387798962
 20
-20.72534848665686
 10
8.466420387798962
 20
-17.52533648665684
 10
11.46642038779896
 20
-17.52533648665684
 10
11.46642038779896
 20
-16.25034248665685
 10
15.46644838779912
 20
-16.25034248665685
 10
15.46644838779912
 20
-17.52533648665684
 10
18.46642038779896
 20
-17.52533648665684
 10
18.46642038779896
 20
-11.62534248665685
 10
13.36740138779896
 20
-11.62534248665685
 42
-0.9999999999999999
 10
13.36740138779896
 20
3.374657513343152
 10
18.46642038779896
 20
3.374657513343152
 10
18.46642038779896
 20
9.274651513343144
 10
15.46644838779912
 20
9.274651513343144
 10
15.46644838779912
 20
7.999657513343152
 10
11.46642038779896
 20
7.999657513343152
 10
11.46642038779896
 20
9.274651513343144
 10
8.466420387798962
 20
9.274651513343144
 10
8.466420387798962
 20
12.47466351334316
 10
11.46642038779896
 20
12.47466351334316
 10
11.46642038779896
 20
13.74965751334315
 10
15.46644838779912
 20
13.74965751334315
 10
15.46644838779912
 20
12.47466351334316
 10
18.46642038779896
 20
12.47466351334316
 10
18.46642038779896
 20
15.47466351334316
 10
6.457674387798988
 20
15.47466351334305
 42
0.4142135623729953
 10
3.457674387798988
 20
12.47466351334316
 10
3.457674387798988
 20
-20.72534848665686
 42
0.4142135623730063
 10
6.45767438779898
 20
-23.72534848665686
 10
18.46642038779896
 20
-23.72534848665686
 10
18.46642038779896
 20
-20.72534848665686
 10
15.46644838779912
 20
-20.72534848665686
 10
15.46644838779912
 20
-22.00034248665685
 10
11.46642038779896
 20
-22.00034248665685
 10
11.46642038779896
 20
-20.72534848665686
  0
ENDBLK
  5
5E
330
5C
100
AcDbEntity
  8
0
100
AcDbBlockEnd
  0
BLOCK
  5
60
330
5F
100
AcDbEntity
  8
0
100
AcDbBlockBegin
  2
Y_axis_base
 70
    0
 10
0
 20
0
  3
Y_axis_base
  1

  0
LWPOLYLINE
  5
F7
100
AcDbEntity
  8
0
  6
ByLayer
 62
  256
370
   -1
100
AcDbPolyline
 90
   16
 70
    1
 43
0
 10
305.6032171216082
 20
37.50703806787395
 42
-0.2679491924309951
 10
306.0362301216082
 20
37.25703806787406
 42
1.303223041600209
 10
306.7192441216082
 20
37.94004906787399
 42
-0.2679482664650371
 10
306.4692451216081
 20
38.373061067874
 10
306.4692421216082
 20
42.84101106787398
 42
-0.2679491924309874
 10
306.7192421216082
 20
43.27402406787402
 42
1.303223041599838
 10
306.0362311216081
 20
43.95703806787399
 42
-0.2679482664649947
 10
305.6032191216082
 20
43.707039067874
 10
304.0353511216083
 20
43.70703606787396
 42
-0.2679491924309617
 10
303.6023391216083
 20
43.95703606787402
 42
1.303223041599745
 10
302.9193251216082
 20
43.27402506787408
 42
-0.2679482664650656
 10
303.1693231216083
 20
42.84101306787397
 10
303.1693231216083
 20
38.373063067874
 42
-0.2679491924309724
 10
302.9193231216082
 20
37.94005106787406
 42
1.303223041599784
 10
303.6023351216083
 20
37.25703706787395
 42
-0.2679482617889252
 10
304.0353471216083
 20
37.50703506787396
  0
LWPOLYLINE
  5
F8
100
AcDbEntity
  8
0
  6
ByLayer
 62
  256
370
   -1
100
AcDbPolyline
 90
   16
 70
    1
 43
0
 10
305.6032191216082
 20
64.907039067874
 10
304.0353511216083
 20
64.90703606787399
 42
-0.267949192430987
 10
303.6023391216083
 20
65.15703606787403
 42
1.303223041600085
 10
302.9193251216082
 20
64.47402406787393
 42
-0.267948261788973
 10
303.1693231216082
 20
64.04101206787402
 10
303.1693231216084
 20
59.57306206787399
 42
-0.2679491924309689
 10
302.9193231216084
 20
59.14005006787405
 42
1.303223041600013
 10
303.6023351216081
 20
58.45703606787399
 42
-0.2679482617889802
 10
304.0353471216083
 20
58.70703406787396
 10
305.6032171216082
 20
58.70703706787396
 42
-0.2679491924309734
 10
306.0362301216082
 20
58.45703706787403
 42
1.303223041600266
 10
306.7192441216082
 20
59.14004906787395
 42
-0.267948266465013
 10
306.4692451216083
 20
59.57306106787398
 10
306.4692421216084
 20
64.04101006787397
 42
-0.2679491924309627
 10
306.7192421216082
 20
64.47402406787391
 42
1.303223041599963
 10
306.0362311216081
 20
65.15703806787407
 42
-0.2679482664649612
  0
LWPOLYLINE
  5
F9
100
AcDbEntity
  8
0
  6
ByLayer
 62
  256
370
   -1
100
AcDbPolyline
 90
   16
 70
    1
 43
0
 10
53.68534512160818
 20
43.70703906787404
 10
55.25321212160816
 20
43.70703606787404
 42
0.267949192431012
 10
55.68622612160812
 20
43.95703606787404
 42
-1.303223041599324
 10
56.3692401216083
 20
43.27402506787402
 42
0.2679482664649974
 10
56.11924112160818
 20
42.841013067874
 10
56.11924112160818
 20
38.37306306787404
 42
0.2679491924310215
 10
56.36924112160818
 20
37.94005106787407
 42
-1.303223041599591
 10
55.68622912160799
 20
37.25703706787402
 42
0.2679482664650297
 10
55.25321712160826
 20
37.507035067874
 10
53.68534712160817
 20
37.50703806787398
 42
0.2679491924309687
 10
53.2523341216081
 20
37.25703806787409
 42
-1.303223041599866
 10
52.56932012160837
 20
37.94004906787414
 42
0.2679482664649857
 10
52.81931812160815
 20
38.37306106787398
 10
52.81932112160825
 20
42.84101106787402
 42
0.2679491924310291
 10
52.56932112160825
 20
43.27402406787401
 42
-1.303223041599807
 10
53.25233312160822
 20
43.95703806787402
 42
0.2679482664649919
  0
LWPOLYLINE
  5
FA
100
AcDbEntity
  8
0
  6
ByLayer
 62
  256
370
   -1
100
AcDbPolyline
 90
   16
 70
    1
 43
0
 10
55.25321712160826
 20
58.70703406787405
 10
53.68534712160817
 20
58.70703706787398
 42
0.2679491924309515
 10
53.2523341216081
 20
58.45703706787398
 42
-1.303223041600003
 10
52.56932012160837
 20
59.14004906787423
 42
0.2679482664649542
 10
52.81931812160815
 20
59.57306106787402
 10
52.81932112160825
 20
64.041010067874
 42
0.2679491924310081
 10
52.56932112160825
 20
64.47402406787401
 42
-1.303223041599931
 10
53.252333121608
 20
65.157038067874
 42
0.2679482664650145
 10
53.68534512160818
 20
64.90703906787402
 10
55.25321212160816
 20
64.90703606787402
 42
0.2679491924309877
 10
55.68622612160789
 20
65.15703606787405
 42
-1.303223041599946
 10
56.3692401216083
 20
64.47402406787404
 42
0.2679482617889788
 10
56.11924112160818
 20
64.04101206787405
 10
56.11924112160818
 20
59.57306206787402
 42
0.267949192431026
 10
56.36924112160818
 20
59.14005006787397
 42
-1.303223041599944
 10
55.68622912160823
 20
58.45703606787397
 42
0.2679482664650073
  0
LWPOLYLINE
  5
FB
100
AcDbEntity
  8
0
  6
ByLayer
 62
  256
370
   -1
100
AcDbPolyline
 90
   42
 70
    1
 43
0
 10
84.64178312160834
 20
76.59265206787401
 10
84.64178312160834
 20
71.09462906787402
 42
-0.4142135623730284
 10
84.14178312160834
 20
70.59462906787402
 10
49.46928012160811
 20
70.59463206787402
 42
0.4142135623730018
 10
44.46928012160811
 20
65.59463206787402
 10
44.4692821216081
 20
31.20703706787404
 42
0.4142137003959986
 10
49.46928212160833
 20
26.20703706787404
 10
68.73451212160808
 20
26.20703706787403
 42
0.3278856907169933
 10
69.68882712160826
 20
26.908235067874
 10
71.2497321216083
 20
31.89345006787407
 42
-0.3278856907170196
 10
72.20404712160826
 20
32.59464706787405
 10
72.20973712160821
 20
32.59463506787407
 10
287.0845161216082
 20
32.5946470678739
 42
-0.3278856907159812
 10
288.0388311216082
 20
31.89345006787401
 10
289.5997361216082
 20
26.90823506787396
 42
0.327885690716016
 10
290.5540511216082
 20
26.20703706787401
 10
309.8192821216082
 20
26.20703706787401
 42
0.4142137003959991
 10
314.8192841216082
 20
31.20703706787401
 10
314.8192841216082
 20
65.59463206787397
 42
0.4142135623729968
 10
309.8192841216082
 20
70.594632067874
 10
304.8192841216082
 20
70.59463206787399
 10
275.1467801216081
 20
70.59463206787399
 42
-0.4142135623729286
 10
274.6467801216083
 20
71.09463206787399
 10
274.6467801216083
 20
76.59265206787398
 42
0.4142135623729972
 10
272.6467801216083
 20
78.59265206787398
 10
268.3306271216084
 20
78.592652067874
 42
0.6015939385919729
 10
267.9167121216083
 20
77.81216306787398
 42
-1.885623985129995
 10
261.3768481216082
 20
77.81216306787404
 42
0.601593938591953
 10
260.9629321216082
 20
78.59265206787401
 10
256.6467801216083
 20
78.59265206787404
 42
0.4142135623730034
 10
254.6467801216083
 20
76.59265206787398
 10
254.6467801216083
 20
71.09462906787394
 42
-0.4142135623729951
 10
254.1467801216083
 20
70.594629067874
 10
105.1417831216081
 20
70.59463206787402
 42
-0.4142135623730284
 10
104.6417831216083
 20
71.09463206787402
 10
104.6417831216083
 20
76.59265206787401
 42
0.4142135623729951
 10
102.6417831216083
 20
78.59265206787401
 10
98.32563012160836
 20
78.59265206787403
 42
0.6015939385920474
 10
97.91171512160849
 20
77.81216306787401
 42
-1.885623985129962
 10
91.37185112160819
 20
77.81216306787411
 42
0.60159393859193
 10
90.95793512160822
 20
78.59265206787407
 10
86.64178312160834
 20
78.59265206787401
 42
0.4142135623729951
  0
CIRCLE
  5
FC
100
AcDbEntity
  8
0
  6
ByLayer
 62
  256
370
   -1
100
AcDbCircle
 10
214.6442821216083
 20
61.20703706787397
 40
1.6
  0
CIRCLE
  5
FD
100
AcDbEntity
  8
0
  6
ByLayer
 62
  256
370
   -1
100
AcDbCircle
 10
54.46928012160811
 20
51.20703706787398
 40
1.6
  0
CIRCLE
  5
FE
100
AcDbEntity
  8
0
  6
ByLayer
 62
  256
370
   -1
100
AcDbCircle
 10
144.6442821216083
 20
41.20703706787403
 40
1.6
  0
CIRCLE
  5
FF
100
AcDbEntity
  8
0
  6
ByLayer
 62
  256
370
   -1
100
AcDbCircle
 10
144.6442821216083
 20
61.20703706787398
 40
1.6
  0
CIRCLE
  5
100
100
AcDbEntity
  8
0
  6
ByLayer
 62
  256
370
   -1
100
AcDbCircle
 10
214.6442821216083
 20
41.20703706787403
 40
1.6
  0
CIRCLE
  5
101
100
AcDbEntity
  8
0
  6
ByLayer
 62
  256
370
   -1
100
AcDbCircle
 10
304.8192841216082
 20
51.20703706787396
 40
1.6
  0
CIRCLE
  5
102
100
AcDbEntity
  8
0
  6
ByLayer
 62
  256
370
   -1
100
AcDbCircle
 10
269.6464611216081
 20
66.87072406787399
 40
1.6
  0
CIRCLE
  5
103
100
AcDbEntity
  8
0
  6
ByLayer
 62
  256
370
   -1
100
AcDbCircle
 10
259.6464611216081
 20
66.87072406787399
 40
1.6
  0
CIRCLE
  5
104
100
AcDbEntity
  8
0
  6
ByLayer
 62
  256
370
   -1
100
AcDbCircle
 10
99.6414771216082
 20
66.87072406787402
 40
1.6
  0
CIRCLE
  5
105
100
AcDbEntity
  8
0
  6
ByLayer
 62
  256
370
   -1
100
AcDbCircle
 10
89.6414771216082
 20
66.87072406787402
 40
1.6
  0
LWPOLYLINE
  5
106
100
AcDbEntity
  8
0
  6
ByLayer
 62
  256
370
   -1
100
AcDbPolyline
 90
   16
 70
    1
 43
0
 10
186.7282211216082
 20
37.894637067874
 10
185.1603511216083
 20
37.89464006787399
 42
0.2679491924309927
 10
184.7273381216082
 20
37.64464006787399
 42
-1.303223029819994
 10
184.0443241216083
 20
38.32765106787402
 42
0.2679482664649799
 10
184.2943221216083
 20
38.76066306787398
 10
184.2943251216084
 20
43.22861306787401
 42
0.2679491924310153
 10
184.0443251216082
 20
43.66162606787405
 42
-1.303223041600005
 10
184.7273371216081
 20
44.34464006787396
 42
0.2679482664650042
 10
185.1603491216081
 20
44.09464106787406
 10
186.7282161216083
 20
44.09463806787399
 42
0.2679491924309898
 10
187.1612301216082
 20
44.34463806787403
 42
-1.303223041599969
 10
187.8442441216082
 20
43.66162706787397
 42
0.2679482664649846
 10
187.5942451216083
 20
43.228615067874
 10
187.5942451216081
 20
38.76066506787404
 42
0.2679491924310367
 10
187.8442451216083
 20
38.327653067874
 42
-1.303223041599949
 10
187.1612331216081
 20
37.64463906787397
 42
0.2679482664649799
  0
LWPOLYLINE
  5
107
100
AcDbEntity
  8
0
  6
ByLayer
 62
  256
370
   -1
100
AcDbPolyline
 90
   16
 70
    1
 43
0
 10
187.1612301216082
 20
65.54463806787399
 42
-1.303223041599998
 10
187.8442441216082
 20
64.86162606787393
 42
0.2679482664649694
 10
187.5942451216083
 20
64.42861406787399
 10
187.5942451216081
 20
59.96066406787401
 42
0.2679491924310293
 10
187.8442451216083
 20
59.52765206787399
 42
-1.303223041600053
 10
187.1612331216081
 20
58.84463806787403
 42
0.2679482664648843
 10
186.7282211216082
 20
59.09463606787399
 10
185.1603511216083
 20
59.09463906787405
 42
0.2679491924310005
 10
184.7273381216082
 20
58.84463906787398
 42
-1.303223041599916
 10
184.0443241216083
 20
59.52765106787398
 42
0.2679482664650161
 10
184.2943221216083
 20
59.96066306787397
 10
184.2943251216082
 20
64.42861206787398
 42
0.267949192431012
 10
184.0443251216082
 20
64.86162606787401
 42
-1.303223041599818
 10
184.7273371216081
 20
65.54464006787394
 42
0.2679482664650271
 10
185.1603491216081
 20
65.29464106787402
 10
186.7282161216083
 20
65.29463806787396
 42
0.2679491924310075
  0
CIRCLE
  5
108
100
AcDbEntity
  8
0
  6
ByLayer
 62
  256
370
   -1
100
AcDbCircle
 10
185.9442831216081
 20
51.59463906787404
 40
1.6
  0
LWPOLYLINE
  5
109
100
AcDbEntity
  8
0
  6
ByLayer
 62
  256
370
   -1
100
AcDbPolyline
 90
   16
 70
    1
 43
0
 10
171.6943221216081
 20
38.76066306787398
 10
171.6943251216082
 20
43.22861306787401
 42
0.2679491924309986
 10
171.4443251216082
 20
43.66162606787394
 42
-1.303223041599987
 10
172.1273371216082
 20
44.34464006787401
 42
0.2679482664649943
 10
172.5603491216082
 20
44.09464106787406
 10
174.1282161216081
 20
44.09463806787404
 42
0.2679491924310046
 10
174.5612301216081
 20
44.34463806787404
 42
-1.303223041600072
 10
175.2442441216083
 20
43.66162706787406
 42
0.2679482664650053
 10
174.9942451216082
 20
43.228615067874
 10
174.9942451216082
 20
38.76066506787404
 42
0.2679491924310164
 10
175.2442451216082
 20
38.327653067874
 42
-1.303223041599995
 10
174.5612331216082
 20
37.64463906787401
 42
0.2679482664649978
 10
174.1282211216082
 20
37.894637067874
 10
172.5603511216082
 20
37.89464006787399
 42
0.2679491924310036
 10
172.1273381216081
 20
37.64464006787399
 42
-1.303223029819885
 10
171.4443241216081
 20
38.32765106787402
 42
0.2679482664650009
  0
LWPOLYLINE
  5
10A
100
AcDbEntity
  8
0
  6
ByLayer
 62
  256
370
   -1
100
AcDbPolyline
 90
   16
 70
    1
 43
0
 10
174.5612331216082
 20
58.84463806787398
 42
0.2679482664649464
 10
174.1282211216082
 20
59.09463606787398
 10
172.5603511216082
 20
59.09463906787396
 42
0.2679491924310036
 10
172.1273381216081
 20
58.84463906787398
 42
-1.303223041599554
 10
171.4443241216081
 20
59.52765106787398
 42
0.2679482664650161
 10
171.6943221216081
 20
59.96066306787397
 10
171.6943251216082
 20
64.42861206787398
 42
0.2679491924310081
 10
171.4443251216082
 20
64.861626067874
 42
-1.303223041599612
 10
172.1273371216082
 20
65.544640067874
 42
0.2679482664649899
 10
172.5603491216082
 20
65.29464106787402
 10
174.1282161216081
 20
65.29463806787402
 42
0.2679491924310155
 10
174.5612301216081
 20
65.544638067874
 42
-1.303223041599604
 10
175.2442441216083
 20
64.86162606787404
 42
0.2679482664650297
 10
174.9942451216082
 20
64.42861406787399
 10
174.9942451216082
 20
59.96066406787401
 42
0.2679491924310184
 10
175.2442451216082
 20
59.52765206787397
 42
-1.303223041599571
  0
CIRCLE
  5
10B
100
AcDbEntity
  8
0
  6
ByLayer
 62
  256
370
   -1
100
AcDbCircle
 10
173.3442831216082
 20
51.59463906787404
 40
1.6
  0
LWPOLYLINE
  5
10C
100
AcDbEntity
  8
0
  6
ByLayer
 62
  256
370
   -1
100
AcDbPolyline
 90
   16
 70
    1
 43
0
 10
122.8618931216097
 20
53.10699556736773
 42
0.2679482664650235
 10
123.2949051216101
 20
52.85699656736776
 10
127.7628551216101
 20
52.85699356736777
 42
0.2679491924309822
 10
128.19586712161
 20
53.10699356736775
 42
-1.303223041600373
 10
128.87888112161
 20
52.42398156736778
 42
0.2679482664649558
 10
128.62888312161
 20
51.99096956736777
 10
128.6288801216099
 20
50.42310256736779
 42
0.2679491924310088
 10
128.8788801216099
 20
49.99009056736777
 42
-1.303223041599958
 10
128.1958691216098
 20
49.30707656736773
 42
0.2679482664649583
 10
127.7628571216101
 20
49.55707456736776
 10
123.2949071216101
 20
49.55707456736776
 42
0.2679491924309406
 10
122.86189412161
 20
49.30707456736776
 42
-1.303223041600026
 10
122.1788801216098
 20
49.99008556736774
 42
0.2679482664649878
 10
122.42887912161
 20
50.42309756736776
 10
122.4288821216098
 20
51.99096856736777
 42
0.2679491924310053
 10
122.1788821216098
 20
52.42398156736783
 42
-1.303223041600111
  0
CIRCLE
  5
10D
100
AcDbEntity
  8
0
  6
ByLayer
 62
  256
370
   -1
100
AcDbCircle
 10
114.9288811216099
 20
51.20703556736773
 40
1.6
  0
LWPOLYLINE
  5
10E
100
AcDbEntity
  8
0
  6
ByLayer
 62
  256
370
   -1
100
AcDbPolyline
 90
   16
 70
    1
 43
0
 10
100.97888212161
 20
52.4239815673678
 42
-1.303223041600243
 10
101.6618941216097
 20
53.10699556736778
 42
0.2679482664650528
 10
102.0949061216102
 20
52.85699656736774
 10
106.5628561216099
 20
52.85699356736768
 42
0.2679491924310279
 10
106.9958681216096
 20
53.10699356736782
 42
-1.303223041599861
 10
107.6788821216098
 20
52.42398156736779
 42
0.2679482664649915
 10
107.4288841216101
 20
51.99096956736777
 10
107.4288811216099
 20
50.42310256736781
 42
0.2679491924309691
 10
107.6788811216099
 20
49.9900905673678
 42
-1.303223041599768
 10
106.99586912161
 20
49.30707656736779
 42
0.2679482664649835
 10
106.5628571216098
 20
49.55707456736779
 10
102.0949081216099
 20
49.55707456736777
 42
0.267949192431041
 10
101.66189412161
 20
49.30707456736783
 42
-1.303223041600042
 10
100.9788801216102
 20
49.99008556736776
 42
0.2679482664649633
 10
101.2288791216099
 20
50.42309766303886
 10
101.22888212161
 20
51.99096856736779
 42
0.2679491924310062
  0
LWPOLYLINE
  5
10F
100
AcDbEntity
  8
0
  6
ByLayer
 62
  256
370
   -1
100
AcDbPolyline
 90
   16
 70
    1
 43
0
 10
252.2926961216065
 20
53.1069975683839
 42
0.2679482664650764
 10
252.7257081216064
 20
52.8569995683839
 10
257.1936581216066
 20
52.85699656838391
 42
0.2679491924309708
 10
257.6266701216065
 20
53.10699656838393
 42
-1.303223041600017
 10
258.3096841216066
 20
52.42398456838394
 42
0.2679482664650609
 10
258.0596861216063
 20
51.99097256838391
 10
258.0596831216064
 20
50.42310556838396
 42
0.2679491924310241
 10
258.3096831216064
 20
49.99009356838391
 42
-1.303223041599864
 10
257.6266721216064
 20
49.30707856838389
 42
0.2679482664649859
 10
257.1936601216064
 20
49.55707756838394
 10
252.7257101216064
 20
49.55707756838392
 42
0.2679491924310005
 10
252.2926971216066
 20
49.30707756838395
 42
-1.30322304160012
 10
251.6096831216066
 20
49.99008856838388
 42
0.2679482664650019
 10
251.8596821216065
 20
50.42310056838392
 10
251.8596851216064
 20
51.99097156838393
 42
0.2679491924309956
 10
251.6096851216064
 20
52.42398356838395
 42
-1.303223041600079
  0
LWPOLYLINE
  5
110
100
AcDbEntity
  8
0
  6
ByLayer
 62
  256
370
   -1
100
AcDbPolyline
 90
   16
 70
    1
 43
0
 10
236.8596841216065
 20
50.42310556838396
 42
0.2679491924310184
 10
237.1096841216065
 20
49.99009356838393
 42
-1.303223041599999
 10
236.4266721216063
 20
49.30707856838391
 42
0.2679482664649754
 10
235.9936601216064
 20
49.55707756838393
 10
231.5257111216065
 20
49.55707756838393
 42
0.2679491924310105
 10
231.0926971216063
 20
49.30707756838393
 42
-1.303223041600088
 10
230.4096831216063
 20
49.99008856838391
 42
0.267948266465018
 10
230.6596821216065
 20
50.42310056838392
 10
230.6596851216063
 20
51.99097156838394
 42
0.2679491924310066
 10
230.4096851216063
 20
52.42398356838389
 42
-1.303223041600011
 10
231.0926971216063
 20
53.10699756838392
 42
0.2679482664650771
 10
231.5257091216065
 20
52.85699956838398
 10
235.9936591216065
 20
52.85699656838391
 42
0.2679491924310027
 10
236.4266711216064
 20
53.10699656838391
 42
-1.303223041600037
 10
237.1096851216064
 20
52.42398456838385
 42
0.2679482664649971
 10
236.8596871216064
 20
51.99097256838391
  0
CIRCLE
  5
111
100
AcDbEntity
  8
0
  6
ByLayer
 62
  256
370
   -1
100
AcDbCircle
 10
244.3596841216065
 20
51.20703856838388
 40
1.6
  0
ENDBLK
  5
61
330
5F
100
AcDbEntity
  8
0
100
AcDbBlockEnd
  0
BLOCK
  5
63
330
62
100
AcDbEntity
  8
0
100
AcDbBlockBegin
  2
Y_axis_idler
 70
    0
 10
0
 20
0
  3
Y_axis_idler
  1

  0
CIRCLE
  5
112
100
AcDbEntity
  8
0
  6
ByLayer
 62
  256
370
   -1
100
AcDbCircle
 10
35.469866138508
 20
36.62592319271772
 40
1.6
  0
LWPOLYLINE
  5
113
100
AcDbEntity
  8
0
  6
ByLayer
 62
  256
370
   -1
100
AcDbPolyline
 90
   42
 70
    1
 43
0
 10
21.46983813850829
 20
30.02591769271771
 10
18.469866138508
 20
30.02591769271771
 10
18.469866138508
 20
24.89194669271771
 42
0.2679491924310006
 10
18.719866138508
 20
24.45893369271772
 42
-1.303223041600112
 10
18.03685413850826
 20
23.77591969271771
 42
0.2679482664649784
 10
17.6038421385083
 20
24.02591869271771
 10
15.96981413850813
 20
24.02591869271771
 42
0.4142135623730284
 10
15.46981413850813
 20
23.52591869271771
 10
15.46981413850813
 20
18.5259206927177
 42
0.4142135623729619
 10
15.96981413850813
 20
18.0259206927177
 10
17.60384113850819
 20
18.02592369271773
 42
0.2679491924309679
 10
18.03685313850792
 20
18.27592369271775
 42
-1.303223041599871
 10
18.71986713850811
 20
17.59291269271768
 42
0.2679482664650181
 10
18.4698691385081
 20
17.15990069271771
 10
18.469866138508
 20
12.6259316927177
 10
34.88031713850819
 20
12.62593169271761
 42
0.3489883788229921
 10
36.82869213850813
 20
14.1744506927177
 10
43.2875491385082
 20
42.04777969271768
 42
0.4825924606890038
 10
36.469866138508
 20
50.62591449271773
 10
18.469866138508
 20
50.62591569271771
 10
18.469866138508
 20
46.09194769271772
 42
0.2679491924310076
 10
18.719866138508
 20
45.65893469271774
 42
-1.303223041600106
 10
18.03685413850826
 20
44.97592069271772
 42
0.2679482664649853
 10
17.6038421385083
 20
45.22591969271772
 10
15.96981413850813
 20
45.2259196927177
 42
0.4142135623730118
 10
15.46981413850813
 20
44.72591969271772
 10
15.46981413850813
 20
39.72592269271772
 42
0.4142135623729785
 10
15.96981413850813
 20
39.22592269271769
 10
17.60384113850819
 20
39.22592569271771
 42
0.2679491924309901
 10
18.03685313850815
 20
39.47592569271771
 42
-1.303223041600175
 10
18.71986713850811
 20
38.79291369271766
 42
0.2679482664649648
 10
18.4698691385081
 20
38.3599016927177
 10
18.469866138508
 20
33.2259286927177
 10
21.46983813850829
 20
33.2259286927177
 10
21.46983813850829
 20
34.50092369271772
 10
25.469866138508
 20
34.50092369271772
 10
25.469866138508
 20
33.2259286927177
 10
28.469866138508
 20
33.2259286927177
 10
28.469866138508
 20
30.02591769271771
 10
25.469866138508
 20
30.02591769271771
 10
25.469866138508
 20
28.75092369271772
 10
21.46983813850829
 20
28.75092369271772
  0
ENDBLK
  5
64
330
62
100
AcDbEntity
  8
0
100
AcDbBlockEnd
  0
BLOCK
  5
66
330
65
100
AcDbEntity
  8
0
100
AcDbBlockBegin
  2
Y_axis_rod_end
 70
    0
 10
0
 20
0
  3
Y_axis_rod_end
  1

  0
LWPOLYLINE
  5
114
100
AcDbEntity
  8
0
  6
ByLayer
 62
    0
370
   -1
100
AcDbPolyline
 90
    6
 70
    1
 43
0
 10
27.74045277564346
 20
7.677147938375413
 10
27.74045277564346
 20
22.17516793837541
 42
0.4142135623729951
 10
25.74045277564346
 20
24.17516793837541
 10
9.740452775643462
 20
24.17516793837541
 42
0.4142135623729951
 10
7.740452775643462
 20
22.17516793837541
 10
7.740452775643462
 20
7.677144938375363
  0
CIRCLE
  5
115
100
AcDbEntity
  8
0
  6
ByLayer
 62
    0
370
   -1
100
AcDbCircle
 10
22.7401217756435
 20
12.4532399383753
 40
1.6
  0
CIRCLE
  5
116
100
AcDbEntity
  8
0
  6
ByLayer
 62
    0
370
   -1
100
AcDbCircle
 10
12.74012177564327
 20
12.4532399383753
 40
1.6
  0
ENDBLK
  5
67
330
65
100
AcDbEntity
  8
0
100
AcDbBlockEnd
  0
BLOCK
  5
69
330
68
100
AcDbEntity
  8
0
100
AcDbBlockBegin
  2
NEMA17_fixing_plate_Y_axis
 70
    0
 10
0
 20
0
  3
NEMA17_fixing_plate_Y_axis
  1

  0
LWPOLYLINE
  5
117
100
AcDbEntity
  8
0
  6
ByLayer
 62
    0
370
   -1
100
AcDbPolyline
 90
   51
 70
    0
 43
0
 10
48.96551919463309
 20
3.928710550831823
 42
0.162747713518001
 10
49.56698419463305
 20
4.129811550831791
 10
55.94115519463298
 20
8.9287085508318
 10
55.94115819463309
 20
13.46267755083181
 42
0.2679491924309986
 10
55.69115819463309
 20
13.8956905508318
 42
-1.303223041600149
 10
56.37416919463294
 20
14.57870455083176
 42
0.2679482664649966
 10
56.8071811946329
 20
14.32870655083181
 10
58.44121019463296
 20
14.32870655083181
 42
0.4142135623730284
 10
58.94121019463296
 20
14.82870655083181
 10
58.94121019463296
 20
19.82870355083179
 42
0.4142135623730389
 10
58.44121019463296
 20
20.32870355083182
 10
56.8071831946329
 20
20.32870055083183
 42
0.267949192430992
 10
56.37417019463305
 20
20.07870055083188
 42
-1.303223041600433
 10
55.69115619463309
 20
20.76171255083187
 42
0.2679482664649669
 10
55.94115519463298
 20
21.19472455083181
 10
55.94115819463309
 20
26.32869655083181
 10
52.94118619463302
 20
26.32869655083181
 10
52.94118619463302
 20
25.05370255083179
 10
48.94115819463309
 20
25.05370255083179
 10
48.94115819463309
 20
26.32869655083181
 10
45.94115819463309
 20
26.32869655083181
 10
45.94115819463309
 20
29.52870855083179
 10
48.94115819463309
 20
29.52870855083179
 10
48.94115819463309
 20
30.80370255083179
 10
52.94118619463302
 20
30.80370255083179
 10
52.94118619463302
 20
29.52870855083179
 10
55.94115819463309
 20
29.52870855083179
 10
55.94115819463309
 20
34.66267955083183
 42
0.2679491924309605
 10
55.69115819463309
 20
35.09569155083172
 42
-1.303223041600095
 10
56.37416919463294
 20
35.77870555083175
 42
0.267948266465009
 10
56.8071811946329
 20
35.52870755083179
 10
58.44121019463296
 20
35.52870755083185
 42
0.4142135623730201
 10
58.94121019463296
 20
36.0287075508318
 10
58.94121019463296
 20
41.0287045508318
 42
0.4142135623730284
 10
58.44121019463296
 20
41.5287045508318
 10
56.8071831946329
 20
41.52870155083181
 42
0.2679491924309946
 10
56.37417019463305
 20
41.2787015508319
 42
-1.30322304160048
 10
55.69115619463309
 20
41.96171355083194
 42
0.267948266464949
 10
55.94115519463298
 20
42.39472555083179
 10
55.94115819463309
 20
46.92869455083181
 10
50.73986319463279
 20
46.92869455083181
 42
0.1627477224759994
 10
50.13839819463306
 20
46.72759455083181
 10
44.031338194633
 20
42.1297945508318
 42
-0.1627477314340004
 10
43.42987419463293
 20
41.92869455083181
 10
9.941192194633004
 20
41.9286955508318
 42
0.4142135725969949
 10
7.941192194633003
 20
39.9286955508318
 10
7.941192194633009
 20
5.928711550831823
 42
0.4142135521489935
 10
9.941192194632995
 20
3.928711550831792
 10
48.81745719463288
 20
3.928710550831823
 10
48.96060719463298
 20
3.928710550831823
 10
48.96592719463297
 20
3.928710550831823
  0
CIRCLE
  5
118
100
AcDbEntity
  8
0
  6
ByLayer
 62
    0
370
   -1
100
AcDbCircle
 10
43.65745919463302
 20
7.428706550831805
 40
1.6
  0
CIRCLE
  5
119
100
AcDbEntity
  8
0
  6
ByLayer
 62
    0
370
   -1
100
AcDbCircle
 10
12.65745919463302
 20
7.428706550831805
 40
1.6
  0
CIRCLE
  5
11A
100
AcDbEntity
  8
0
  6
ByLayer
 62
    0
370
   -1
100
AcDbCircle
 10
28.15745919463302
 20
22.92870655083181
 40
11.1
  0
CIRCLE
  5
11B
100
AcDbEntity
  8
0
  6
ByLayer
 62
    0
370
   -1
100
AcDbCircle
 10
43.65745919463302
 20
38.42870655083181
 40
1.6
  0
CIRCLE
  5
11C
100
AcDbEntity
  8
0
  6
ByLayer
 62
    0
370
   -1
100
AcDbCircle
 10
12.65745919463302
 20
38.42870655083181
 40
1.6
  0
ENDBLK
  5
6A
330
68
100
AcDbEntity
  8
0
100
AcDbBlockEnd
  0
BLOCK
  5
6C
330
6B
100
AcDbEntity
  8
0
100
AcDbBlockBegin
  2
Z_axis_top_rod_end
 70
    0
 10
0
 20
0
  3
Z_axis_top_rod_end
  1

  0
LWPOLYLINE
  5
11D
100
AcDbEntity
  8
0
  6
ByLayer
 62
    0
370
   -1
100
AcDbPolyline
 90
    5
 70
    1
 43
0
 10
4.77802907620071
 20
3.661313452403249
 10
4.777697076200639
 20
-24.33868654759675
 10
27.77769707620041
 20
-24.33895954759674
 10
27.77788807620072
 20
-8.338961547596746
 42
0.4142136339389971
 10
15.77803607620058
 20
3.66118245240323
  0
CIRCLE
  5
11E
100
AcDbEntity
  8
0
  6
ByLayer
 62
    0
370
   -1
100
AcDbCircle
 10
10.2780660762005
 20
-1.008846547596761
 40
1.6
  0
CIRCLE
  5
11F
100
AcDbEntity
  8
0
  6
ByLayer
 62
    0
370
   -1
100
AcDbCircle
 10
21.42806607620059
 20
-18.95254654759674
 40
1.6
  0
ENDBLK
  5
6D
330
6B
100
AcDbEntity
  8
0
100
AcDbBlockEnd
  0
BLOCK
  5
6F
330
6E
100
AcDbEntity
  8
0
100
AcDbBlockBegin
  2
Z_axis_top
 70
    0
 10
0
 20
0
  3
Z_axis_top
  1

  0
LWPOLYLINE
  5
120
100
AcDbEntity
  8
0
  6
ByLayer
 62
    0
370
   -1
100
AcDbPolyline
 90
   36
 70
    1
 43
0
 10
-12.38033698859772
 20
-23.31375918525407
 10
-12.38069898859771
 20
-53.83899918525407
 42
0.4142136339399985
 10
-0.3808469885977918
 20
-65.83914318525404
 10
21.22695401140209
 20
-65.83940018525414
 42
0.283289592608001
 10
31.94442401140235
 20
-59.23743318525408
 10
49.26852001140219
 20
-23.32675218525407
 10
49.26914701140231
 20
-20.83545418525404
 42
0.2679482664649642
 10
49.01925201140216
 20
-20.40238318525394
 42
-1.303223041600145
 10
49.70243101140227
 20
-19.71953518525407
 42
0.2679491924310243
 10
50.13538401140227
 20
-19.96963918525404
 10
60.79480201140223
 20
-19.96968018525416
 10
60.79491801140215
 20
-10.18684618525407
 42
0.2679482664649681
 10
60.54502301140224
 20
-9.753775185254314
 42
-1.303223041599787
 10
61.22820301140223
 20
-9.070927185254165
 42
0.2679491924310562
 10
61.66115501140212
 20
-9.321031185254128
 10
63.22902301140221
 20
-9.32140518525398
 42
0.2679482664649909
 10
63.66209401140236
 20
-9.071511185254165
 42
-1.303223041599963
 10
64.34494201140228
 20
-9.754690185254164
 42
0.267949192431011
 10
64.09483801140232
 20
-10.18764218525416
 10
64.09472201140215
 20
-19.96971918525406
 10
75.61935601140226
 20
-19.97246418525407
 10
75.61980701140214
 20
-10.50425318525408
 42
0.109673439738
 10
74.49243901140221
 20
-5.426132185254176
 10
64.09512701140216
 20
11.03024881474602
 10
61.00226301140219
 20
11.03023981474593
 10
-3.815888988597862
 20
-5.279909185253926
 42
0.3315058143340027
 10
-12.38025898859769
 20
-16.77743918525408
 10
-12.3802979885977
 20
-20.01384018525408
 10
-3.245952988597764
 20
-20.01394818525398
 42
0.26794826646501
 10
-2.812881988597837
 20
-19.76405418525417
 42
-1.303223041599922
 10
-2.130033988597688
 20
-20.44723318525416
 42
0.2679491924310072
 10
-2.38013798859788
 20
-20.88018518525416
 10
-2.380511988597617
 20
-22.44805218525403
 42
0.2679482617889911
 10
-2.130617988597806
 20
-22.88112518525406
 42
-1.303223041599957
 10
-2.813796988597691
 20
-23.56397218525404
 42
0.2679491924309802
 10
-3.24674798859769
 20
-23.31386818525408
  0
CIRCLE
  5
121
100
AcDbEntity
  8
0
  6
ByLayer
 62
    0
370
   -1
100
AcDbCircle
 10
62.44460301140225
 20
0.6803028147459713
 40
1.6
  0
CIRCLE
  5
122
100
AcDbEntity
  8
0
  6
ByLayer
 62
    0
370
   -1
100
AcDbCircle
 10
17.31969101140226
 20
-52.46885218525426
 40
5
  0
CIRCLE
  5
123
100
AcDbEntity
  8
0
  6
ByLayer
 62
    0
370
   -1
100
AcDbCircle
 10
0.3196930114022507
 20
-52.46475118525404
 40
4
  0
CIRCLE
  5
124
100
AcDbEntity
  8
0
  6
ByLayer
 62
    0
370
   -1
100
AcDbCircle
 10
23.44467601140241
 20
-21.66442618525417
 40
1.6
  0
CIRCLE
  5
125
100
AcDbEntity
  8
0
  6
ByLayer
 62
    0
370
   -1
100
AcDbCircle
 10
5.119122011402169
 20
-61.16911418525405
 40
1.6
  0
CIRCLE
  5
126
100
AcDbEntity
  8
0
  6
ByLayer
 62
    0
370
   -1
100
AcDbCircle
 10
-6.030877988597695
 20
-43.22541418525407
 40
1.6
  0
ENDBLK
  5
70
330
6E
100
AcDbEntity
  8
0
100
AcDbBlockEnd
  0
BLOCK
  5
72
330
71
100
AcDbEntity
  8
0
100
AcDbBlockBegin
  2
NEMA17_fixing_plate_Z_axis
 70
    0
 10
0
 20
0
  3
NEMA17_fixing_plate_Z_axis
  1

  0
LWPOLYLINE
  5
127
100
AcDbEntity
  8
0
  6
ByLayer
 62
    0
370
   -1
100
AcDbPolyline
 90
   16
 70
    1
 43
0
 10
7.137683461626466
 20
23.68153597014401
 42
0.2679482664649572
 10
6.704671461626504
 20
23.93153497014401
 10
5.136803461626641
 20
23.93153797014401
 42
0.2679491924309957
 10
4.703790461626567
 20
23.68153797014401
 42
-1.303223041599905
 10
4.020776461626611
 20
24.36454997014403
 42
0.26794826646501
 10
4.270775461626499
 20
24.79756197014405
 10
4.270775461626499
 20
29.26551197014402
 42
0.2679491924310021
 10
4.020775461626499
 20
29.69852397014398
 42
-1.303223041600073
 10
4.703787461626462
 20
30.381537970144
 42
0.2679482664649923
 10
5.136799461626651
 20
30.13153997014405
 10
6.704669461626509
 20
30.131536970144
 42
0.2679491924309839
 10
7.137681461626472
 20
30.381536970144
 42
-1.30322304159961
 10
7.820695461626655
 20
29.69852497014386
 42
0.2679482664649767
 10
7.570697461626652
 20
29.26551297014402
 10
7.570694461626545
 20
24.79756397014404
 42
0.267949192431006
 10
7.820694461626545
 20
24.36454997014397
 42
-1.303223041599389
  0
LWPOLYLINE
  5
128
100
AcDbEntity
  8
0
  6
ByLayer
 62
    0
370
   -1
100
AcDbPolyline
 90
   16
 70
    1
 43
0
 10
54.17679646162651
 20
30.13153997014405
 10
55.74466646162659
 20
30.131536970144
 42
0.2679491924309912
 10
56.17767946162667
 20
30.381536970144
 42
-1.303223041599909
 10
56.8606934616264
 20
29.69852497014404
 42
0.2679482664651231
 10
56.61069546162662
 20
29.26551297014402
 10
56.61069246162651
 20
24.79756397014404
 42
0.2679491924310077
 10
56.86069246162651
 20
24.36454997014397
 42
-1.303223041600029
 10
56.17768046162655
 20
23.68153597014413
 42
0.2679482664649966
 10
55.74466846162659
 20
23.93153497014401
 10
54.17680146162661
 20
23.93153797014401
 42
0.2679491924309689
 10
53.74378746162665
 20
23.68153797014401
 42
-1.303223041599828
 10
53.06077346162647
 20
24.36454997014403
 42
0.2679482664649719
 10
53.31077246162658
 20
24.79756197014405
 10
53.31077246162658
 20
29.26551197014402
 42
0.2679491924310015
 10
53.06077246162658
 20
29.69852397014398
 42
-1.303223041599427
 10
53.74378446162655
 20
30.381537970144
 42
0.2679482664649586
  0
LWPOLYLINE
  5
129
100
AcDbEntity
  8
0
  6
ByLayer
 62
    0
370
   -1
100
AcDbPolyline
 90
   16
 70
    1
 43
0
 10
56.61069246162651
 20
3.597563970143995
 42
0.2679491924310021
 10
56.86069246162651
 20
3.164550970144032
 42
-1.303223041600021
 10
56.17768046162655
 20
2.481536970144021
 42
0.2679482664648953
 10
55.74466846162659
 20
2.731535970144023
 10
54.17680146162661
 20
2.731538970144014
 42
0.267949192430992
 10
53.74378746162665
 20
2.481538970144013
 42
-1.303223041599953
 10
53.06077346162647
 20
3.16454997014398
 42
0.2679482664650076
 10
53.31077246162658
 20
3.597561970144
 10
53.31077246162658
 20
8.065511970143973
 42
0.2679491924310105
 10
53.06077246162658
 20
8.498524970143995
 42
-1.303223041599936
 10
53.74378446162655
 20
9.181538970143896
 42
0.2679482664649678
 10
54.17679646162651
 20
8.931540970143999
 10
55.74466646162659
 20
8.931537970144005
 42
0.2679491924309886
 10
56.17767946162667
 20
9.181537970144001
 42
-1.303223041599928
 10
56.8606934616264
 20
8.49852597014398
 42
0.2679482617890876
 10
56.61069546162661
 20
8.065513970143968
  0
LWPOLYLINE
  5
12A
100
AcDbEntity
  8
0
  6
ByLayer
 62
    0
370
   -1
100
AcDbPolyline
 90
   16
 70
    1
 43
0
 10
4.02077646162661
 20
3.164549970144037
 42
0.2679482664650033
 10
4.270775461626499
 20
3.597561970144
 10
4.270775461626499
 20
8.065511970143973
 42
0.2679491924310072
 10
4.020775461626499
 20
8.49852497014399
 42
-1.303223029819871
 10
4.703787461626689
 20
9.181538970144004
 42
0.2679482664649747
 10
5.136799461626651
 20
8.931540970143997
 10
6.704669461626509
 20
8.931537970144007
 42
0.2679491924309803
 10
7.137681461626244
 20
9.18153797014412
 42
-1.303223041599659
 10
7.820695461626656
 20
8.498525970144101
 42
0.2679482617890048
 10
7.570697461626651
 20
8.065513970143968
 10
7.570694461626545
 20
3.597563970143995
 42
0.2679491924310006
 10
7.820694461626545
 20
3.164550970144035
 42
-1.303223029819954
 10
7.137683461626466
 20
2.48153697014402
 42
0.2679482664649349
 10
6.704671461626504
 20
2.731535970144023
 10
5.136803461626641
 20
2.731538970144015
 42
0.267949192430972
 10
4.70379046162634
 20
2.481538970144072
 42
-1.303223041600105
  0
LWPOLYLINE
  5
12B
100
AcDbEntity
  8
0
  6
ByLayer
 62
    0
370
   -1
100
AcDbPolyline
 90
   42
 70
    1
 43
0
 10
38.29074146162657
 20
41.86454997014397
 42
-0.2679491924310087
 10
38.04074146162657
 20
42.29756297014399
 10
38.04073846162646
 20
43.93158997014399
 42
-0.4142135623730284
 10
38.54073846162646
 20
44.43158997014399
 10
43.54073646162647
 20
44.43158997014399
 42
-0.4142135623730284
 10
44.04073646162647
 20
43.93158997014399
 10
44.04073646162647
 20
42.29756097014405
 42
-0.2679482664649895
 10
43.79073746162658
 20
41.86454997014403
 42
1.303223041599923
 10
44.47375146162653
 20
41.18153797014395
 42
-0.267949192431051
 10
44.90676446162661
 20
41.43153797014401
 10
60.44072846162658
 20
41.43153797014401
 10
60.44072846162658
 20
-3.568464029855988
 42
-0.4142136288129972
 10
55.44073346162645
 20
-8.568462029855993
 10
5.44073546162644
 20
-8.568462029855993
 42
-0.4142135265739997
 10
0.4407414616266569
 20
-3.568464029855988
 10
0.4407414616266578
 20
41.43153797014401
 10
15.97471646162649
 20
41.43153497014401
 42
-0.2679482664650136
 10
16.40772846162622
 20
41.18153597014401
 42
1.303223041599845
 10
17.09074046162641
 20
41.8645499701439
 42
-0.2679491924310109
 10
16.84074046162641
 20
42.29756297014399
 10
16.84073746162653
 20
43.93158997014399
 42
-0.4142135623730284
 10
17.34073746162653
 20
44.43158997014399
 10
22.34073446162665
 20
44.43158997014399
 42
-0.4142135623730284
 10
22.84073446162665
 20
43.93158997014399
 10
22.84073446162665
 20
42.29756097014405
 42
-0.2679482664649895
 10
22.59073546162654
 20
41.86454997014397
 42
1.303223041599498
 10
23.27375046162661
 20
41.18153797014389
 42
-0.2679491924309558
 10
23.70676346162645
 20
41.43153797014401
 10
28.84073446162665
 20
41.43153797014401
 10
28.84073446162665
 20
38.43156597014399
 10
27.56573946162644
 20
38.43156597014399
 10
27.56573946162644
 20
34.43153797014401
 10
28.84073446162665
 20
34.43153797014401
 10
28.84073446162665
 20
31.43153797014401
 10
32.04074546162656
 20
31.43153797014401
 10
32.04074546162656
 20
34.43153797014401
 10
33.31573946162644
 20
34.43153797014401
 10
33.31573946162644
 20
38.43156597014399
 10
32.04074546162656
 20
38.43156597014399
 10
32.04074546162656
 20
41.43153797014401
 10
37.17471846162653
 20
41.43153497014401
 42
-0.2679482664649926
 10
37.6077294616266
 20
41.18153597014401
 42
1.303223041599825
  0
CIRCLE
  5
12C
100
AcDbEntity
  8
0
  6
ByLayer
 62
    0
370
   -1
100
AcDbCircle
 10
45.94073546162645
 20
27.631537970144
 40
1.6
  0
CIRCLE
  5
12D
100
AcDbEntity
  8
0
  6
ByLayer
 62
    0
370
   -1
100
AcDbCircle
 10
14.94073546162645
 20
-3.368462029856005
 40
1.6
  0
CIRCLE
  5
12E
100
AcDbEntity
  8
0
  6
ByLayer
 62
    0
370
   -1
100
AcDbCircle
 10
54.96073346162666
 20
16.43153797014401
 40
1.6
  0
CIRCLE
  5
12F
100
AcDbEntity
  8
0
  6
ByLayer
 62
    0
370
   -1
100
AcDbCircle
 10
47.44073546162645
 20
12.131537970144
 40
4
  0
CIRCLE
  5
130
100
AcDbEntity
  8
0
  6
ByLayer
 62
    0
370
   -1
100
AcDbCircle
 10
45.94073546162645
 20
-3.368462029856005
 40
1.6
  0
CIRCLE
  5
131
100
AcDbEntity
  8
0
  6
ByLayer
 62
    0
370
   -1
100
AcDbCircle
 10
14.94073546162645
 20
27.631537970144
 40
1.6
  0
CIRCLE
  5
132
100
AcDbEntity
  8
0
  6
ByLayer
 62
    0
370
   -1
100
AcDbCircle
 10
5.920736461626575
 20
16.43153797014401
 40
1.6
  0
CIRCLE
  5
133
100
AcDbEntity
  8
0
  6
ByLayer
 62
    0
370
   -1
100
AcDbCircle
 10
30.44073546162645
 20
12.131537970144
 40
11.1
  0
ENDBLK
  5
73
330
71
100
AcDbEntity
  8
0
100
AcDbBlockEnd
  0
BLOCK
  5
75
330
74
100
AcDbEntity
  8
0
100
AcDbBlockBegin
  2
NEMA17_fixing_plate_support
 70
    0
 10
0
 20
0
  3
NEMA17_fixing_plate_support
  1

  0
LWPOLYLINE
  5
134
100
AcDbEntity
  8
0
  6
ByLayer
 62
    0
370
   -1
100
AcDbPolyline
 90
   79
 70
    1
 43
0
 10
10.29810168766869
 20
54.26441955217916
 10
18.83207768766863
 20
54.26441655217917
 42
-0.2679482664650578
 10
19.2650896876687
 20
54.01441755217928
 42
1.30322304159996
 10
19.94810168766867
 20
54.69743255217929
 42
-0.2679491924309882
 10
19.69810168766867
 20
55.1304455521792
 10
19.69809868766868
 20
56.76447155217915
 42
-0.4142135623729619
 10
20.19809868766868
 20
57.26447155217915
 10
25.19809568766868
 20
57.26447155217915
 42
-0.4142135623729619
 10
25.69809568766868
 20
56.76447155217915
 10
25.69809568766857
 20
55.13044355217914
 42
-0.2679482664649181
 10
25.44809668766868
 20
54.69743155217935
 42
1.303223041600048
 10
26.13111068766864
 20
54.01441955217916
 42
-0.2679491924309986
 10
26.56412368766871
 20
54.26441955217916
 10
31.69809568766868
 20
54.26441955217916
 10
31.69809568766868
 20
51.26444755217915
 10
30.42310168766869
 20
51.26444755217915
 10
30.42310168766869
 20
47.26441955217916
 10
31.69809568766868
 20
47.26441955217916
 10
31.69809568766868
 20
44.26441955217916
 10
34.8981076876687
 20
44.26441955217916
 10
34.8981076876687
 20
47.26441955217916
 10
36.17310168766869
 20
47.26441955217916
 10
36.17310168766869
 20
51.26444755217915
 10
34.8981076876687
 20
51.26444755217915
 10
34.8981076876687
 20
54.26441955217916
 10
40.03207768766868
 20
54.26441655217917
 42
-0.2679482664650408
 10
40.46508968766886
 20
54.01441755217928
 42
1.303223041600205
 10
41.14810168766871
 20
54.69743255217924
 42
-0.2679491924310052
 10
40.89810168766871
 20
55.1304455521792
 10
40.89809868766872
 20
56.76447155217915
 42
-0.4142135623729619
 10
41.39809868766872
 20
57.26447155217915
 10
46.39809568766873
 20
57.26447155217915
 42
-0.4142135623729619
 10
46.89809568766873
 20
56.76447155217915
 10
46.89809568766862
 20
55.13044355217914
 42
-0.2679482664649414
 10
46.64809668766873
 20
54.69743155217947
 42
1.303223041600214
 10
47.33111168766871
 20
54.01441955217916
 42
-0.2679491924309991
 10
47.76412468766864
 20
54.26441955217916
 10
58.29810168766869
 20
54.26441955217916
 10
58.29809868766858
 20
43.73044055217918
 42
-0.2679482664649819
 10
58.0480996876687
 20
43.2974295521791
 42
1.30322304159917
 10
58.73111468766844
 20
42.61441755217925
 42
-0.2679491924311733
 10
59.16412768766872
 20
42.86441755217925
 10
60.79815368766867
 20
42.86442055217918
 42
-0.4142135623729619
 10
61.29815368766867
 20
42.36442055217918
 10
61.29815368766867
 20
37.36442255217918
 42
-0.4142135623729619
 10
60.79815368766867
 20
36.86442255217918
 10
59.16412568766873
 20
36.86442255217918
 42
-0.2679482664649557
 10
58.73111368766865
 20
37.1144205521793
 42
1.303223041599795
 10
58.04810168766869
 20
36.43140655217918
 42
-0.2679491924309823
 10
58.29810168766869
 20
35.99839455217915
 10
58.29810168766869
 20
30.86442455217917
 10
55.29812968766873
 20
30.86442455217917
 10
55.29812968766873
 20
32.13941855217917
 10
51.29810168766869
 20
32.13941855217917
 10
51.29810168766869
 20
30.86442455217917
 10
48.29810168766869
 20
30.86442455217917
 10
48.29810168766869
 20
27.66441355217916
 10
51.29810168766869
 20
27.66441355217916
 10
51.29810168766869
 20
26.38941855217917
 10
55.29812968766873
 20
26.38941855217917
 10
55.29812968766873
 20
27.66441355217916
 10
58.29810168766869
 20
27.66441355217916
 10
58.29809868766858
 20
22.53044155217918
 42
-0.2679482664649802
 10
58.0480996876687
 20
22.09742955217922
 42
1.303223041599743
 10
58.73111468766843
 20
21.4144175521792
 42
-0.2679491924311121
 10
59.16412768766872
 20
21.66441755217915
 10
60.79815368766867
 20
21.66442055217919
 42
-0.4142135623729619
 10
61.29815368766867
 20
21.16442055217919
 10
61.29815368766867
 20
16.16442355217919
 42
-0.4142135623729619
 10
60.79815368766867
 20
15.66442355217919
 10
59.16412568766873
 20
15.66442355217913
 42
-0.2679482664649583
 10
58.73111368766865
 20
15.91442155217925
 42
1.303223041599945
 10
58.04810168766869
 20
15.23140755217935
 42
-0.2679491924309211
 10
58.29810168766869
 20
14.79839555217916
 10
58.29810168766869
 20
6.264419552179163
 10
57.61180968766871
 20
6.264419552179175
 42
-0.1989123174839975
 10
51.95495668766875
 20
8.607563552179176
 10
12.64124668766874
 20
47.92127455217917
 42
-0.1989123537719998
 10
10.29810168766869
 20
53.57812855217918
  0
ENDBLK
  5
76
330
74
100
AcDbEntity
  8
0
100
AcDbBlockEnd
  0
BLOCK
  5
78
330
77
100
AcDbEntity
  8
0
100
AcDbBlockBegin
  2
print_bed
 70
    0
 10
0
 20
0
  3
print_bed
  1

  0
LWPOLYLINE
  5
135
100
AcDbEntity
  8
0
  6
ByLayer
 62
    0
370
   -1
100
AcDbPolyline
 90
   16
 70
    1
 43
0
 10
164.3447462420462
 20
192.4649804180408
 42
-1.303223041600025
 10
165.0277602420463
 20
193.1479944180408
 42
0.2679482664649709
 10
165.4607712420462
 20
192.8979954180408
 10
187.8287242420462
 20
192.8979764180408
 42
0.267948266465023
 10
188.2617352420463
 20
193.1479754180408
 42
-1.303223041599877
 10
188.9447472420462
 20
192.4649594180407
 42
0.2679491924499873
 10
188.6947472420462
 20
192.0319474180408
 10
188.6947442420462
 20
184.7639854180408
 42
0.2679482664460147
 10
188.9447422420462
 20
184.3309744180408
 42
-1.303223041600024
 10
188.2617282420463
 20
183.6479624180408
 42
0.2679491924309989
 10
187.8287152420462
 20
183.8979634180408
 10
165.4607662420462
 20
183.8979824180408
 42
0.2679491924309779
 10
165.0277522420461
 20
183.6479824180408
 42
-1.303223041600519
 10
164.3447392420462
 20
184.3309944180408
 42
0.2679482664831036
 10
164.5947382420463
 20
184.7640064180408
 10
164.5947472420463
 20
192.0319664180408
 42
0.2679491924140252
  0
LWPOLYLINE
  5
136
100
AcDbEntity
  8
0
  6
ByLayer
 62
    0
370
   -1
100
AcDbPolyline
 90
   16
 70
    1
 43
0
 10
94.59471424204617
 20
184.7640864180408
 10
94.59472324204626
 20
192.0320464180408
 42
0.2679491924140573
 10
94.34472224204637
 20
192.465060418041
 42
-1.303223041599963
 10
95.0277362420461
 20
193.1480744180407
 42
0.2679482664650378
 10
95.46074724204618
 20
192.8980754180407
 10
117.8287002420461
 20
192.8980574180408
 42
0.2679482664649764
 10
118.2617112420462
 20
193.1480554180408
 42
-1.303223041600091
 10
118.9447232420462
 20
192.4650404180408
 42
0.2679491924499766
 10
118.6947232420462
 20
192.0320274180408
 10
118.6947202420463
 20
184.7640664180408
 42
0.2679482664469581
 10
118.9447182420463
 20
184.3310544180408
 42
-1.303223041600296
 10
118.2617042420461
 20
183.6480434180408
 42
0.2679491924309465
 10
117.8286912420463
 20
183.8980444180408
 10
95.46074224204631
 20
183.8980624180408
 42
0.2679491924310077
 10
95.02772824204635
 20
183.6480624180408
 42
-1.303223041600224
 10
94.34471524204628
 20
184.3310744180408
 42
0.2679482664829441
  0
LWPOLYLINE
  5
137
100
AcDbEntity
  8
0
  6
ByLayer
 62
    0
370
   -1
100
AcDbPolyline
 90
   16
 70
    1
 43
0
 10
118.6946852420463
 20
14.76404841804083
 10
118.6946882420464
 20
22.03200941804081
 42
-0.2679482664650245
 10
118.9446862420464
 20
22.46502041804069
 42
1.303223041600212
 10
118.2616722420462
 20
23.14803241804083
 42
-0.2679491924309808
 10
117.8286602420462
 20
22.89803241804083
 10
95.46071124204627
 20
22.89803241804083
 42
-0.2679491924310077
 10
95.02769724204609
 20
23.14803241804083
 42
1.30322304160001
 10
94.34468324204636
 20
22.46502141804072
 42
-0.2679482664649201
 10
94.59468224204602
 20
22.03200941804081
 10
94.59468524204613
 20
14.76404841804083
 42
-0.2679491924309777
 10
94.34468524204613
 20
14.33103441804079
 42
1.303223041599925
 10
95.02769724204609
 20
13.6480204180408
 42
-0.2679482664650609
 10
95.46070924204605
 20
13.89801941804083
 10
117.8286622420462
 20
13.89801941804083
 42
-0.2679482664650411
 10
118.2616732420463
 20
13.64802041804086
 42
1.303223041599962
 10
118.9446852420463
 20
14.33103541804078
 42
-0.2679491924309773
  0
LWPOLYLINE
  5
138
100
AcDbEntity
  8
0
  6
ByLayer
 62
    0
370
   -1
100
AcDbPolyline
 90
   16
 70
    1
 43
0
 10
188.6947092420462
 20
14.76407141804083
 10
188.6947122420462
 20
22.03203241804081
 42
-0.2679482664649833
 10
188.9447102420462
 20
22.46504341804078
 42
1.303223041600149
 10
188.2616962420462
 20
23.14805541804083
 42
-0.2679491924309291
 10
187.8286842420462
 20
22.89805541804083
 10
165.4607352420462
 20
22.89805541804083
 42
-0.2679491924309877
 10
165.0277212420463
 20
23.14805541804083
 42
1.303223041600214
 10
164.3447072420462
 20
22.46504441804083
 42
-0.2679482664649724
 10
164.5947062420461
 20
22.03203241804081
 10
164.5947092420462
 20
14.76407141804083
 42
-0.2679491924309487
 10
164.3447092420462
 20
14.33105741804073
 42
1.303223041599609
 10
165.0277212420463
 20
13.64804341804083
 42
-0.2679482664650444
 10
165.4607332420462
 20
13.89804241804083
 10
187.8286862420463
 20
13.89804241804083
 42
-0.2679482664649909
 10
188.2616972420462
 20
13.64804341804083
 42
1.303223041599956
 10
188.9447092420462
 20
14.33105841804078
 42
-0.2679491924309914
  0
LWPOLYLINE
  5
139
100
AcDbEntity
  8
0
  6
ByLayer
 62
    0
370
   -1
100
AcDbPolyline
 90
    8
 70
    1
 43
0
 10
216.6447172420462
 20
162.2642834180408
 10
216.6447162420461
 20
44.53190141804083
 42
-0.6681785116629841
 10
205.3778112420462
 20
39.86499841804073
 10
174.5778102420462
 20
70.66499641804087
 42
-0.1989124670709976
 10
172.6447132420462
 20
75.33190241804081
 10
172.6447132420462
 20
131.4642814180408
 42
-0.1989124674019991
 10
174.5778102420462
 20
136.1311894180408
 10
205.3778112420462
 20
166.9311864180409
 42
-0.6681785116630079
  0
LWPOLYLINE
  5
13A
100
AcDbEntity
  8
0
  6
ByLayer
 62
    0
370
   -1
100
AcDbPolyline
 90
   16
 70
    1
 43
0
 10
139.1299892420462
 20
83.39809341804082
 10
144.1594262420463
 20
83.39809341804082
 42
-0.1989123583079985
 10
148.4020672420462
 20
81.64073441804081
 10
164.8873482420462
 20
65.15545141804083
 42
-0.198912336057
 10
166.6447082420461
 20
60.91281141804083
 10
166.6447072420463
 20
45.88337341804083
 42
-0.1989123175149987
 10
164.8873482420461
 20
41.64073341804081
 10
148.4020672420462
 20
25.15545541804082
 42
-0.1989124853149958
 10
144.1594262420463
 20
23.39809441804081
 10
139.1299892420462
 20
23.39809541804081
 42
-0.1989124853149995
 10
134.8873482420462
 20
25.15545541804084
 10
118.4020652420463
 20
41.64073241804083
 42
-0.1989123175159997
 10
116.6447072420463
 20
45.88337341804083
 10
116.6447072420463
 20
60.91281041804083
 42
-0.1989123360590009
 10
118.4020662420462
 20
65.15545141804083
 10
134.8873482420462
 20
81.64073441804081
 42
-0.198912358308
  0
LWPOLYLINE
  5
13B
100
AcDbEntity
  8
0
  6
ByLayer
 62
    0
370
   -1
100
AcDbPolyline
 90
   16
 70
    1
 43
0
 10
148.4020672420462
 20
125.1554514180408
 10
164.8873482420462
 20
141.6407344180408
 42
0.1989123360570018
 10
166.6447082420461
 20
145.8833254180408
 10
166.6447192420462
 20
160.9127634180408
 42
0.1989123175239974
 10
164.8873632420461
 20
165.1554044180408
 10
148.4020962420462
 20
181.6406954180408
 42
0.1989124853150006
 10
144.1594572420462
 20
183.3980604180408
 10
139.1300202420463
 20
183.3980634180408
 42
0.1989124853149995
 10
134.8873772420462
 20
181.6407074180408
 10
118.4020812420463
 20
165.1554424180408
 42
0.1989123174890007
 10
116.6447192420462
 20
160.9128044180408
 10
116.6447072420463
 20
145.8833744180408
 42
0.1989123360589999
 10
118.4020662420462
 20
141.6407344180408
 10
134.8873482420462
 20
125.1554524180407
 42
0.1989123583080022
 10
139.1299892420462
 20
123.3980924180407
 10
144.1594262420463
 20
123.3980924180409
 42
0.1989123583079973
  0
LWPOLYLINE
  5
13C
100
AcDbEntity
  8
0
  6
ByLayer
 62
    0
370
   -1
100
AcDbPolyline
 90
    8
 70
    1
 43
0
 10
66.64469724204628
 20
44.53190241804083
 10
66.64469724204628
 20
162.2642834180408
 42
-0.6681785116599904
 10
77.91160224204623
 20
166.9311874180409
 10
108.7116022420462
 20
136.1311884180406
 42
-0.1989124670719964
 10
110.6447002420462
 20
131.4642834180408
 10
110.6447002420464
 20
75.33190341804081
 42
-0.1989124674019991
 10
108.7116032420463
 20
70.66499741804083
 10
77.91160224204623
 20
39.86499841804081
 42
-0.6681785116599978
  0
LWPOLYLINE
  5
13D
100
AcDbEntity
  8
0
  6
ByLayer
 62
    0
370
   -1
100
AcDbPolyline
 90
   62
 70
    1
 43
0
 10
162.8873472420462
 20
-2.84455058195914
 42
0.1989123038760008
 10
167.1299882420462
 20
-4.601909581959177
 10
184.1594262420463
 20
-4.601907581959182
 42
0.1989123084120002
 10
188.4020662420462
 20
-2.844548581959174
 10
202.8873522420462
 20
11.64073141804082
 42
-0.1989124263469993
 10
207.1299912420462
 20
13.39808941804083
 10
222.1594292420463
 20
13.39809441804081
 42
-0.1989121269739994
 10
226.4020652420462
 20
11.64073541804078
 10
242.6447102420461
 20
-4.601909581959177
 42
0.9999990924489507
 10
249.6447102420461
 20
2.398089418040826
 10
228.4020702420462
 20
23.64073141804093
 42
-0.1989125348559981
 10
226.6447082420464
 20
27.88337441804083
 10
226.6447082420461
 20
88.44834641804081
 42
-0.4142135623730006
 10
236.6447082420461
 20
98.44834641804081
 10
256.1447112420462
 20
98.44834641804081
 42
0.9999990924489236
 10
256.1447112420462
 20
108.3478404180408
 10
236.6447082420461
 20
108.3478394180408
 42
-0.4142135572609971
 10
226.6447082420461
 20
118.3478394180408
 10
226.6447062420464
 20
178.9128114180408
 42
-0.1989125348569998
 10
228.4020692420462
 20
183.1554554180408
 10
249.6447102420461
 20
204.3980964180406
 42
0.9999990924488863
 10
242.6447112420462
 20
211.3980954180407
 10
226.4019872420462
 20
195.1553724180408
 42
-0.1989123628440001
 10
222.1593472420462
 20
193.3980134180408
 10
207.1300302420461
 20
193.3980134180408
 42
-0.1989124263469997
 10
202.8873872420462
 20
195.1553714180408
 10
188.4021192420462
 20
209.6406664180406
 42
0.1989123084119951
 10
184.1594802420461
 20
211.3980314180408
 10
167.1300422420462
 20
211.3980454180406
 42
0.1989123038759945
 10
162.8874002420462
 20
209.6406884180406
 10
148.4021072420462
 20
195.1554144180408
 42
-0.1989123084119997
 10
144.1594652420462
 20
193.3980654180408
 10
139.1300282420464
 20
193.3980694180409
 42
-0.1989123084120118
 10
134.8873882420461
 20
195.1554274180408
 10
120.4021192420462
 20
209.6407224180408
 42
0.1989123038759945
 10
116.1594802420461
 20
211.3980874180408
 10
99.13004224204633
 20
211.3981014180408
 42
0.1989123084119955
 10
94.88740024204617
 20
209.6407444180408
 10
80.40210824204632
 20
195.1554704180408
 42
-0.198912426347002
 10
76.15946224204617
 20
193.3981154180407
 10
61.12996524204618
 20
193.3981154180408
 42
-0.1989123673799982
 10
56.88732424204636
 20
195.1554754180409
 10
40.64470324204626
 20
211.3980964180408
 42
0.9999990924489509
 10
33.64470424204637
 20
204.3980964180407
 10
54.88734424204631
 20
183.1554544180408
 42
-0.1989125348550008
 10
56.64470624204614
 20
178.9128114180408
 10
56.64470824204636
 20
27.88337341804083
 42
-0.1989125348550002
 10
54.88734524204619
 20
23.64073041804082
 10
33.64470424204637
 20
2.398089418040826
 42
0.9999990924489494
 10
40.64470424204637
 20
-4.601909581959205
 10
56.88735324204617
 20
11.64073241804081
 42
-0.1989121269740015
 10
61.12998624204624
 20
13.39808941804083
 10
76.15942324204616
 20
13.39809541804081
 42
-0.1989124263469997
 10
80.40206724204609
 20
11.6407354180408
 10
94.88734724204619
 20
-2.844550581959169
 42
0.1989123084119997
 10
99.12998824204624
 20
-4.601909581959177
 10
116.1594262420463
 20
-4.601907581959182
 42
0.1989123038760017
 10
120.4020662420462
 20
-2.844548581959174
 10
134.8873522420462
 20
11.64073241804081
 42
-0.1989123084120008
 10
139.1299892420462
 20
13.39808941804083
 10
144.1594262420463
 20
13.39809541804081
 42
-0.1989123084119977
 10
148.4020672420462
 20
11.6407354180408
  0
CIRCLE
  5
13E
100
AcDbEntity
  8
0
  6
ByLayer
 62
    0
370
   -1
100
AcDbCircle
 10
246.1447072420463
 20
207.8980934180408
 40
1.6
  0
CIRCLE
  5
13F
100
AcDbEntity
  8
0
  6
ByLayer
 62
    0
370
   -1
100
AcDbCircle
 10
124.1447072420463
 20
103.3980934180408
 40
1.6
  0
CIRCLE
  5
140
100
AcDbEntity
  8
0
  6
ByLayer
 62
    0
370
   -1
100
AcDbCircle
 10
176.6447072420463
 20
3.398093418040816
 40
1.6
  0
CIRCLE
  5
141
100
AcDbEntity
  8
0
  6
ByLayer
 62
    0
370
   -1
100
AcDbCircle
 10
37.14470724204625
 20
-1.101906581959184
 40
1.6
  0
CIRCLE
  5
142
100
AcDbEntity
  8
0
  6
ByLayer
 62
    0
370
   -1
100
AcDbCircle
 10
37.14470724204625
 20
207.8980934180408
 40
1.6
  0
CIRCLE
  5
143
100
AcDbEntity
  8
0
  6
ByLayer
 62
    0
370
   -1
100
AcDbCircle
 10
256.1447072420463
 20
103.3980934180408
 40
1.6
  0
CIRCLE
  5
144
100
AcDbEntity
  8
0
  6
ByLayer
 62
    0
370
   -1
100
AcDbCircle
 10
106.6447542420462
 20
203.3980924180408
 40
1.6
  0
CIRCLE
  5
145
100
AcDbEntity
  8
0
  6
ByLayer
 62
    0
370
   -1
100
AcDbCircle
 10
106.6447292420462
 20
173.3980924180408
 40
1.6
  0
CIRCLE
  5
146
100
AcDbEntity
  8
0
  6
ByLayer
 62
    0
370
   -1
100
AcDbCircle
 10
176.6447292420462
 20
173.3980344180408
 40
1.6
  0
CIRCLE
  5
147
100
AcDbEntity
  8
0
  6
ByLayer
 62
    0
370
   -1
100
AcDbCircle
 10
176.6447072420463
 20
33.39809341804082
 40
1.6
  0
CIRCLE
  5
148
100
AcDbEntity
  8
0
  6
ByLayer
 62
    0
370
   -1
100
AcDbCircle
 10
159.1447072420463
 20
115.3980934180408
 40
1.6
  0
CIRCLE
  5
149
100
AcDbEntity
  8
0
  6
ByLayer
 62
    0
370
   -1
100
AcDbCircle
 10
141.6447072420463
 20
115.3980934180408
 40
1.6
  0
CIRCLE
  5
14A
100
AcDbEntity
  8
0
  6
ByLayer
 62
    0
370
   -1
100
AcDbCircle
 10
176.6447542420462
 20
203.3980344180408
 40
1.6
  0
CIRCLE
  5
14B
100
AcDbEntity
  8
0
  6
ByLayer
 62
    0
370
   -1
100
AcDbCircle
 10
246.1447072420463
 20
-1.101906581959184
 40
1.6
  0
CIRCLE
  5
14C
100
AcDbEntity
  8
0
  6
ByLayer
 62
    0
370
   -1
100
AcDbCircle
 10
106.6447072420463
 20
33.39809341804082
 40
1.6
  0
CIRCLE
  5
14D
100
AcDbEntity
  8
0
  6
ByLayer
 62
    0
370
   -1
100
AcDbCircle
 10
159.1447072420463
 20
91.39809341804082
 40
1.6
  0
CIRCLE
  5
14E
100
AcDbEntity
  8
0
  6
ByLayer
 62
    0
370
   -1
100
AcDbCircle
 10
141.6447072420463
 20
91.39809341804082
 40
1.6
  0
CIRCLE
  5
14F
100
AcDbEntity
  8
0
  6
ByLayer
 62
    0
370
   -1
100
AcDbCircle
 10
106.6447072420463
 20
3.398093418040816
 40
1.6
  0
ENDBLK
  5
79
330
77
100
AcDbEntity
  8
0
100
AcDbBlockEnd
  0
BLOCK
  5
7B
330
7A
100
AcDbEntity
  8
0
100
AcDbBlockBegin
  2
adapter
 70
    0
 10
0
 20
0
  3
adapter
  1

  0
LWPOLYLINE
  5
150
100
AcDbEntity
  8
0
  6
ByLayer
 62
    0
370
   -1
100
AcDbPolyline
 90
   10
 70
    1
 43
0
 10
6.816306894038007
 20
146.8962420509682
 42
-0.9999990924489298
 10
16.71580089403824
 20
146.8962420509682
 10
16.71580389403812
 20
51.34598505096824
 42
0.4142135740900056
 10
20.715804894038
 20
47.34598505096824
 10
21.76605789403811
 20
47.34598505096824
 42
-0.9999990924489289
 10
21.76605789403811
 20
37.44649105096823
 10
20.71579889403802
 20
37.44649105096823
 42
0.4142135572610016
 10
16.71579889403802
 20
33.44649105096823
 10
16.71580089403824
 20
-62.10376694903172
 42
-0.9999990924489294
 10
6.816306894038007
 20
-62.10376594903173
  0
CIRCLE
  5
151
100
AcDbEntity
  8
0
  6
ByLayer
 62
    0
370
   -1
100
AcDbCircle
 10
21.76605389403812
 20
42.39623805096824
 40
1.6
  0
CIRCLE
  5
152
100
AcDbEntity
  8
0
  6
ByLayer
 62
    0
370
   -1
100
AcDbCircle
 10
11.76605389403812
 20
-62.10376194903174
 40
1.6
  0
CIRCLE
  5
153
100
AcDbEntity
  8
0
  6
ByLayer
 62
    0
370
   -1
100
AcDbCircle
 10
11.76605389403812
 20
146.8962380509682
 40
1.6
  0
ENDBLK
  5
7C
330
7A
100
AcDbEntity
  8
0
100
AcDbBlockEnd
  0
ENDSEC
  0
SECTION
  2
ENTITIES
  0
INSERT
  5
154
100
AcDbEntity
  8
0
  6
ByLayer
 62
  256
370
   -1
100
AcDbBlockReference
  2
front_frame
 10
0
 20
3.813107736847883
 30
0
 41
1
 42
1
 43
0
 50
0
 70
    1
 71
    1
 44
0
 45
0
  0
INSERT
  5
155
100
AcDbEntity
  8
0
  6
ByLayer
 62
  256
370
   -1
100
AcDbBlockReference
  2
left_frame
 10
423.2549587901156
 20
-22.87864642108733
 30
0
 41
1
 42
1
 43
0
 50
0
 70
    1
 71
    1
 44
0
 45
0
  0
INSERT
  5
156
100
AcDbEntity
  8
0
  6
ByLayer
 62
  256
370
   -1
100
AcDbBlockReference
  2
right_frame
 10
573.2371964394658
 20
22.87864642108733
 30
0
 41
1
 42
1
 43
0
 50
0
 70
    1
 71
    1
 44
0
 45
0
  0
INSERT
  5
157
100
AcDbEntity
  8
0
  6
ByLayer
 62
  256
370
   -1
100
AcDbBlockReference
  2
base_frame_reinforcement
 10
1024.772704278202
 20
264.1371505213195
 30
0
 41
1
 42
1
 43
0
 50
0
 70
    1
 71
    1
 44
0
 45
0
  0
INSERT
  5
158
100
AcDbEntity
  8
0
  6
ByLayer
 62
  256
370
   -1
100
AcDbBlockReference
  2
base_frame_reinforcement
 10
1088.498237695596
 20
263.0890143109388
 30
0
 41
1
 42
1
 43
0
 50
0
 70
    1
 71
    1
 44
0
 45
0
  0
INSERT
  5
159
100
AcDbEntity
  8
0
  6
ByLayer
 62
  256
370
   -1
100
AcDbBlockReference
  2
base_frame_reinforcement
 10
1024.946442081444
 20
114.9505272908416
 30
0
 41
1
 42
1
 43
0
 50
0
 70
    1
 71
    1
 44
0
 45
0
  0
INSERT
  5
15A
100
AcDbEntity
  8
0
  6
ByLayer
 62
  256
370
   -1
100
AcDbBlockReference
  2
base_frame_reinforcement
 10
1098.428205760307
 20
112.9645336778994
 30
0
 41
1
 42
1
 43
0
 50
0
 70
    1
 71
    1
 44
0
 45
0
  0
INSERT
  5
15B
100
AcDbEntity
  8
0
  6
ByLayer
 62
  256
370
   -1
100
AcDbBlockReference
  2
spool_holder_bracket
 10
1015.811901096608
 20
24.40388951583442
 30
0
 41
1
 42
1
 43
0
 50
0
 70
    1
 71
    1
 44
0
 45
0
  0
INSERT
  5
15C
100
AcDbEntity
  8
0
  6
ByLayer
 62
  256
370
   -1
100
AcDbBlockReference
  2
spool_holder_bracket
 10
1255.796419308132
 20
24.92479341373543
 30
0
 41
1
 42
1
 43
0
 50
0
 70
    1
 71
    1
 44
0
 45
0
  0
INSERT
  5
15D
100
AcDbEntity
  8
0
  6
ByLayer
 62
  256
370
   -1
100
AcDbBlockReference
  2
print_bed_bearing_clamp
 10
1462.199713490544
 20
345.7217681410187
 30
0
 41
1
 42
1
 43
0
 50
0
 70
    1
 71
    1
 44
0
 45
0
  0
INSERT
  5
15E
100
AcDbEntity
  8
0
  6
ByLayer
 62
  256
370
   -1
100
AcDbBlockReference
  2
print_bed_bearing_clamp
 10
1460.90158040101
 20
281.0335033222474
 30
0
 41
1
 42
1
 43
0
 50
0
 70
    1
 71
    1
 44
0
 45
0
  0
INSERT
  5
15F
100
AcDbEntity
  8
0
  6
ByLayer
 62
  256
370
   -1
100
AcDbBlockReference
  2
print_bed_bearing_clamp
 10
1462.445303739914
 20
160.3996519606357
 30
0
 41
1
 42
1
 43
0
 50
0
 70
    1
 71
    1
 44
0
 45
0
  0
INSERT
  5
160
100
AcDbEntity
  8
0
  6
ByLayer
 62
  256
370
   -1
100
AcDbBlockReference
  2
Y_axis_base
 10
1512.532735616956
 20
15.88794890353946
 30
0
 41
1
 42
1
 43
0
 50
0
 70
    1
 71
    1
 44
0
 45
0
  0
INSERT
  5
161
100
AcDbEntity
  8
0
  6
ByLayer
 62
  256
370
   -1
100
AcDbBlockReference
  2
Y_axis_base
 10
1510.943940776733
 20
91.46244699846916
 30
0
 41
1
 42
1
 43
0
 50
0
 70
    1
 71
    1
 44
0
 45
0
  0
INSERT
  5
162
100
AcDbEntity
  8
0
  6
ByLayer
 62
  256
370
   -1
100
AcDbBlockReference
  2
Y_axis_idler
 10
1536.364658972265
 20
185.8890021714116
 30
0
 41
1
 42
1
 43
0
 50
0
 70
    1
 71
    1
 44
0
 45
0
  0
INSERT
  5
163
100
AcDbEntity
  8
0
  6
ByLayer
 62
  256
370
   -1
100
AcDbBlockReference
  2
Y_axis_idler
 10
1537.020380216627
 20
244.5043898780635
 30
0
 41
1
 42
1
 43
0
 50
0
 70
    1
 71
    1
 44
0
 45
0
  0
INSERT
  5
164
100
AcDbEntity
  8
0
  6
ByLayer
 62
  256
370
   -1
100
AcDbBlockReference
  2
Y_axis_rod_end
 10
1601.614714495399
 20
194.0616750592078
 30
0
 41
1
 42
1
 43
0
 50
0
 70
    1
 71
    1
 44
0
 45
0
  0
INSERT
  5
165
100
AcDbEntity
  8
0
  6
ByLayer
 62
  256
370
   -1
100
AcDbBlockReference
  2
Y_axis_rod_end
 10
1647.600112450665
 20
194.0372543619931
 30
0
 41
1
 42
1
 43
0
 50
0
 70
    1
 71
    1
 44
0
 45
0
  0
INSERT
  5
166
100
AcDbEntity
  8
0
  6
ByLayer
 62
  256
370
   -1
100
AcDbBlockReference
  2
Y_axis_rod_end
 10
1602.199955820181
 20
226.9460546607939
 30
0
 41
1
 42
1
 43
0
 50
0
 70
    1
 71
    1
 44
0
 45
0
  0
INSERT
  5
167
100
AcDbEntity
  8
0
  6
ByLayer
 62
  256
370
   -1
100
AcDbBlockReference
  2
Y_axis_rod_end
 10
1648.012438644089
 20
226.9402051332117
 30
0
 41
1
 42
1
 43
0
 50
0
 70
    1
 71
    1
 44
0
 45
0
  0
INSERT
  5
168
100
AcDbEntity
  8
0
  6
ByLayer
 62
  256
370
   -1
100
AcDbBlockReference
  2
NEMA17_fixing_plate_Y_axis
 10
1693.243184997529
 20
198.6430985843144
 30
0
 41
1
 42
1
 43
0
 50
0
 70
    1
 71
    1
 44
0
 45
0
  0
INSERT
  5
169
100
AcDbEntity
  8
0
  6
ByLayer
 62
  256
370
   -1
100
AcDbBlockReference
  2
NEMA17_fixing_plate_Y_axis
 10
1763.849885425065
 20
197.8770380152641
 30
0
 41
1
 42
1
 43
0
 50
0
 70
    1
 71
    1
 44
0
 45
0
  0
INSERT
  5
16A
100
AcDbEntity
  8
0
  6
ByLayer
 62
  256
370
   -1
100
AcDbBlockReference
  2
Z_axis_top_rod_end
 10
1551.680641715282
 20
334.5366521129278
 30
0
 41
1
 42
1
 43
0
 50
0
 70
    1
 71
    1
 44
0
 45
0
  0
INSERT
  5
16B
100
AcDbEntity
  8
0
  6
ByLayer
 62
  256
370
   -1
100
AcDbBlockReference
  2
Z_axis_top_rod_end
 10
1548.936436098734
 20
384.5316591237591
 30
0
 41
1
 42
1
 43
0
 50
0
 70
    1
 71
    1
 44
0
 45
0
  0
INSERT
  5
16C
100
AcDbEntity
  8
0
  6
ByLayer
 62
  256
370
   -1
100
AcDbBlockReference
  2
print_bed_bearing_clamp
 10
1460.941315648371
 20
219.5141496940437
 30
0
 41
1
 42
1
 43
0
 50
0
 70
    1
 71
    1
 44
0
 45
0
  0
INSERT
  5
16D
100
AcDbEntity
  8
0
  6
ByLayer
 62
  256
370
   -1
100
AcDbBlockReference
  2
Z_axis_top
 10
1617.774509154006
 20
340.6376244918869
 30
0
 41
1
 42
1
 43
0
 50
0
 70
    1
 71
    1
 44
0
 45
0
  0
INSERT
  5
16E
100
AcDbEntity
  8
0
  6
ByLayer
 62
  256
370
   -1
100
AcDbBlockReference
  2
Z_axis_top
 10
1730.286295419562
 20
340.0195521185811
 30
0
 41
1
 42
1
 43
0
 50
0
 70
    1
 71
    1
 44
0
 45
0
  0
INSERT
  5
16F
100
AcDbEntity
  8
0
  6
ByLayer
 62
  256
370
   -1
100
AcDbBlockReference
  2
NEMA17_fixing_plate_Z_axis
 10
1870.964862880812
 20
324.3683648146625
 30
0
 41
1
 42
1
 43
0
 50
0
 70
    1
 71
    1
 44
0
 45
0
  0
INSERT
  5
170
100
AcDbEntity
  8
0
  6
ByLayer
 62
  256
370
   -1
100
AcDbBlockReference
  2
NEMA17_fixing_plate_Z_axis
 10
1869.059657821407
 20
247.075575842711
 30
0
 41
1
 42
1
 43
0
 50
0
 70
    1
 71
    1
 44
0
 45
0
  0
INSERT
  5
171
100
AcDbEntity
  8
0
  6
ByLayer
 62
  256
370
   -1
100
AcDbBlockReference
  2
NEMA17_fixing_plate_support
 10
1866.833996165894
 20
150.9355145836255
 30
0
 41
1
 42
1
 43
0
 50
0
 70
    1
 71
    1
 44
1
 45
1
  0
INSERT
  5
172
100
AcDbEntity
  8
0
  6
ByLayer
 62
  256
370
   -1
100
AcDbBlockReference
  2
NEMA17_fixing_plate_support
 10
1867.1751872706
 20
80.13836035710825
 30
0
 41
1
 42
1
 43
0
 50
0
 70
    1
 71
    1
 44
1
 45
1
  0
INSERT
  5
173
100
AcDbEntity
  8
0
  6
ByLayer
 62
  256
370
   -1
100
AcDbBlockReference
  2
NEMA17_fixing_plate_support
 10
1955.055220343096
 20
77.22290902294962
 30
0
 41
1
 42
1
 43
0
 50
0
 70
    1
 71
    1
 44
1
 45
1
  0
INSERT
  5
174
100
AcDbEntity
  8
0
  6
ByLayer
 62
  256
370
   -1
100
AcDbBlockReference
  2
NEMA17_fixing_plate_support
 10
1952.768533838209
 20
148.9511494900668
 30
0
 41
1
 42
1
 43
0
 50
0
 70
    1
 71
    1
 44
1
 45
1
  0
INSERT
  5
175
100
AcDbEntity
  8
0
  6
ByLayer
 62
  256
370
   -1
100
AcDbBlockReference
  2
print_bed
 10
1157.862591324836
 20
168.8094571001079
 30
0
 41
1
 42
1
 43
0
 50
0
 70
    1
 71
    1
 44
0
 45
0
  0
INSERT
  5
176
100
AcDbEntity
  8
0
  6
ByLayer
 62
  256
370
   -1
100
AcDbBlockReference
  2
adapter
 10
1507.369152223317
 20
214.4873101977842
 30
0
 41
1
 42
1
 43
0
 50
0
 70
    1
 71
    1
 44
0
 45
0
  0
ENDSEC
  0
SECTION
  2
OBJECTS
  0
DICTIONARY
  5
C
330
0
100
AcDbDictionary
281
    1
  3
ACAD_GROUP
350
D
  0
DICTIONARY
  5
D
330
C
100
AcDbDictionary
281
    1
  0
ENDSEC
  0
EOF
