999
dxfrw 0.6.3
  0
SECTION
  2
HEADER
  9
$ACADVER
  1
AC1021
  9
$DWGCODEPAGE
  3
ANSI_1252
  9
$INSBASE
 10
0
 20
0
 30
0
  9
$EXTMIN
 10
-53.45867818665256
 20
-392.3776553654628
 30
0
  9
$EXTMAX
 10
326.5414618133474
 20
7.622329634539996
 30
0
  9
$LIMMIN
 10
0
 20
0
  9
$LIMMAX
 10
420
 20
297
  9
$ORTHOMODE
 70
    0
  9
$REGENMODE
 70
    1
  9
$FILLMODE
 70
    1
  9
$QTEXTMODE
 70
    0
  9
$MIRRTEXT
 70
    0
  9
$LTSCALE
 40
1
  9
$ATTMODE
 70
    0
  9
$TEXTSIZE
 40
2.5
  9
$TRACEWID
 40
15.68
  9
$TEXTSTYLE
  7
STANDARD
  9
$CLAYER
  8
0
  9
$CELTYPE
  6
BYLAYER
  9
$CECOLOR
 62
  256
  9
$CELTSCALE
 40
1
  9
$DISPSILH
 70
    0
  9
$DIMSCALE
 40
2.5
  9
$DIMASZ
 40
2.5
  9
$DIMEXO
 40
0.625
  9
$DIMDLI
 40
3.75
  9
$DIMRND
 40
0
  9
$DIMDLE
 40
0
  9
$DIMEXE
 40
1.25
  9
$DIMTP
 40
0
  9
$DIMTM
 40
0
  9
$DIMTXT
 40
2.5
  9
$DIMCEN
 40
2.5
  9
$DIMTSZ
 40
0
  9
$DIMTOL
 70
    0
  9
$DIMLIM
 70
    0
  9
$DIMTIH
 70
    0
  9
$DIMTOH
 70
    0
  9
$DIMSE1
 70
    0
  9
$DIMSE2
 70
    0
  9
$DIMTAD
 70
    1
  9
$DIMZIN
 70
    8
  9
$DIMBLK
  1

  9
$DIMASO
 70
    1
  9
$DIMSHO
 70
    1
  9
$DIMPOST
  1

  9
$DIMAPOST
  1

  9
$DIMALT
 70
    0
  9
$DIMALTD
 70
    3
  9
$DIMALTF
 40
0.03937
  9
$DIMLFAC
 40
1
  9
$DIMTOFL
 70
    1
  9
$DIMTVP
 40
0
  9
$DIMTIX
 70
    0
  9
$DIMSOXD
 70
    0
  9
$DIMSAH
 70
    0
  9
$DIMBLK1
  1

  9
$DIMBLK2
  1

  9
$DIMSTYLE
  2
STANDARD
  9
$DIMCLRD
 70
    0
  9
$DIMCLRE
 70
    0
  9
$DIMCLRT
 70
    0
  9
$DIMTFAC
 40
1
  9
$DIMGAP
 40
0.625
  9
$DIMJUST
 70
    0
  9
$DIMSD1
 70
    0
  9
$DIMSD2
 70
    0
  9
$DIMTOLJ
 70
    0
  9
$DIMTZIN
 70
    8
  9
$DIMALTZ
 70
    0
  9
$DIMALTTZ
 70
    0
  9
$DIMUPT
 70
    0
  9
$DIMDEC
 70
    2
  9
$DIMTDEC
 70
    2
  9
$DIMALTU
 70
    2
  9
$DIMALTTD
 70
    3
  9
$DIMTXSTY
  7
STANDARD
  9
$DIMAUNIT
 70
    0
  9
$DIMADEC
 70
    0
  9
$DIMALTRND
 40
0
  9
$DIMAZIN
 70
    0
  9
$DIMDSEP
 70
   44
  9
$DIMATFIT
 70
    3
  9
$DIMFRAC
 70
    0
  9
$DIMLDRBLK
  1
STANDARD
  9
$DIMLUNIT
 70
    2
  9
$DIMLWD
 70
   -2
  9
$DIMLWE
 70
   -2
  9
$DIMTMOVE
 70
    0
  9
$DIMFXL
 40
1
  9
$DIMFXLON
 70
    0
  9
$DIMJOGANG
 40
0.7854
  9
$DIMTFILL
 70
    0
  9
$DIMTFILLCLR
 70
    0
  9
$DIMARCSYM
 70
    0
  9
$DIMLTYPE
  6

  9
$DIMLTEX1
  6

  9
$DIMLTEX2
  6

  9
$LUNITS
 70
    2
  9
$LUPREC
 70
    4
  9
$SKETCHINC
 40
1
  9
$FILLETRAD
 40
0
  9
$AUNITS
 70
    0
  9
$AUPREC
 70
    2
  9
$MENU
  1
.
  9
$ELEVATION
 40
0
  9
$PELEVATION
 40
0
  9
$THICKNESS
 40
0
  9
$LIMCHECK
 70
    0
  9
$CHAMFERA
 40
0
  9
$CHAMFERB
 40
0
  9
$CHAMFERC
 40
0
  9
$CHAMFERD
 40
0
  9
$SKPOLY
 70
    0
  9
$USRTIMER
 70
    1
  9
$ANGBASE
 50
0
  9
$ANGDIR
 70
    0
  9
$PDMODE
 70
   34
  9
$PDSIZE
 40
0
  9
$PLINEWID
 40
0
  9
$SPLFRAME
 70
    0
  9
$SPLINETYPE
 70
    2
  9
$SPLINESEGS
 70
    8
  9
$HANDSEED
  5
20000
  9
$SURFTAB1
 70
    6
  9
$SURFTAB2
 70
    6
  9
$SURFTYPE
 70
    6
  9
$SURFU
 70
    6
  9
$SURFV
 70
    6
  9
$UCSBASE
  2

  9
$UCSNAME
  2

  9
$UCSORG
 10
0
 20
0
 30
0
  9
$UCSXDIR
 10
1
 20
0
 30
0
  9
$UCSYDIR
 10
0
 20
1
 30
0
  9
$UCSORTHOREF
  2

  9
$UCSORTHOVIEW
 70
    0
  9
$UCSORGTOP
 10
0
 20
0
 30
0
  9
$UCSORGBOTTOM
 10
0
 20
0
 30
0
  9
$UCSORGLEFT
 10
0
 20
0
 30
0
  9
$UCSORGRIGHT
 10
0
 20
0
 30
0
  9
$UCSORGFRONT
 10
0
 20
0
 30
0
  9
$UCSORGBACK
 10
0
 20
0
 30
0
  9
$PUCSBASE
  2

  9
$PUCSNAME
  2

  9
$PUCSORG
 10
0
 20
0
 30
0
  9
$PUCSXDIR
 10
1
 20
0
 30
0
  9
$PUCSYDIR
 10
0
 20
1
 30
0
  9
$PUCSORTHOREF
  2

  9
$PUCSORTHOVIEW
 70
    0
  9
$PUCSORGTOP
 10
0
 20
0
 30
0
  9
$PUCSORGBOTTOM
 10
0
 20
0
 30
0
  9
$PUCSORGLEFT
 10
0
 20
0
 30
0
  9
$PUCSORGRIGHT
 10
0
 20
0
 30
0
  9
$PUCSORGFRONT
 10
0
 20
0
 30
0
  9
$PUCSORGBACK
 10
0
 20
0
 30
0
  9
$USERI1
 70
    0
  9
$USERI2
 70
    0
  9
$USERI3
 70
    0
  9
$USERI4
 70
    0
  9
$USERI5
 70
    0
  9
$USERR1
 40
0
  9
$USERR2
 40
0
  9
$USERR3
 40
0
  9
$USERR4
 40
0
  9
$USERR5
 40
0
  9
$WORLDVIEW
 70
    1
  9
$SHADEDGE
 70
    3
  9
$SHADEDIF
 70
   70
  9
$TILEMODE
 70
    1
  9
$MAXACTVP
 70
   64
  9
$PINSBASE
 10
0
 20
0
 30
0
  9
$PLIMCHECK
 70
    0
  9
$PEXTMIN
 10
0
 20
0
 30
0
  9
$PEXTMAX
 10
0
 20
0
 30
0
  9
$SNAPSTYLE
 70
    0
  9
$PLIMMIN
 10
0
 20
0
  9
$PLIMMAX
 10
420
 20
297
  9
$UNITMODE
 70
    0
  9
$VISRETAIN
 70
    1
  9
$PLINEGEN
 70
    0
  9
$PSLTSCALE
 70
    1
  9
$TREEDEPTH
 70
 3020
  9
$CMLSTYLE
  2
Standard
  9
$CMLJUST
 70
    0
  9
$CMLSCALE
 40
20
  9
$PROXYGRAPHICS
 70
    1
  9
$MEASUREMENT
 70
    1
  9
$CELWEIGHT
370
   -1
  9
$ENDCAPS
280
    0
  9
$JOINSTYLE
280
    0
  9
$LWDISPLAY
290
    0
  9
$INSUNITS
 70
    0
  9
$HYPERLINKBASE
  1

  9
$STYLESHEET
  1

  9
$XEDIT
290
    1
  9
$CEPSNTYPE
380
    0
  9
$PSTYLEMODE
290
    1
  9
$EXTNAMES
290
    1
  9
$PSVPSCALE
 40
1
  9
$OLESTARTUP
290
    0
  9
$SORTENTS
280
  127
  9
$INDEXCTL
280
    0
  9
$HIDETEXT
280
    1
  9
$XCLIPFRAME
290
    0
  9
$HALOGAP
280
    0
  9
$OBSCOLOR
 70
  257
  9
$OBSLTYPE
280
    0
  9
$INTERSECTIONDISPLAY
280
    0
  9
$INTERSECTIONCOLOR
 70
  257
  9
$DIMASSOC
280
    1
  9
$PROJECTNAME
  1

  9
$CAMERADISPLAY
290
    0
  9
$LENSLENGTH
 40
50
  9
$CAMERAHEIGHT
 40
0
  9
$STEPSPERSEC
 40
2
  9
$STEPSIZE
 40
50
  9
$3DDWFPREC
 40
2
  9
$PSOLWIDTH
 40
5
  9
$PSOLHEIGHT
 40
80
  9
$LOFTANG1
 40
1.570796326794897
  9
$LOFTANG2
 40
1.570796326794897
  9
$LOFTMAG1
 40
0
  9
$LOFTMAG2
 40
0
  9
$LOFTPARAM
 70
    7
  9
$LOFTNORMALS
280
    1
  9
$LATITUDE
 40
1
  9
$LONGITUDE
 40
1
  9
$NORTHDIRECTION
 40
0
  9
$TIMEZONE
 70
-8000
  9
$LIGHTGLYPHDISPLAY
280
    1
  9
$TILEMODELIGHTSYNCH
280
    1
  9
$SOLIDHIST
280
    1
  9
$SHOWHIST
280
    1
  9
$DWFFRAME
280
    2
  9
$DGNFRAME
280
    0
  9
$REALWORLDSCALE
290
    1
  9
$INTERFERECOLOR
 62
    1
  9
$CSHADOW
280
    0
  9
$SHADOWPLANELOCATION
 40
0
  0
ENDSEC
  0
SECTION
  2
CLASSES
  0
ENDSEC
  0
SECTION
  2
TABLES
  0
TABLE
  2
VPORT
  5
8
330
0
100
AcDbSymbolTable
 70
    1
  0
VPORT
  5
31
330
2
100
AcDbSymbolTableRecord
100
AcDbViewportTableRecord
  2
*ACTIVE
 70
    0
 10
0
 20
0
 11
1
 21
1
 12
0.651828
 22
-0.16
 13
0
 23
0
 14
10
 24
10
 15
10
 25
10
 16
0
 26
0
 36
1
 17
0
 27
0
 37
0
 40
5.13732
 41
2.4426877
 42
50
 43
0
 44
0
 50
0
 51
0
 71
    0
 72
  100
 73
    1
 74
    3
 75
    0
 76
    1
 77
    0
 78
    0
281
    0
 65
    1
110
0
120
0
130
0
111
1
121
0
131
0
112
0
122
1
132
0
 79
    0
146
0
348
10020
 60
    7
 61
    5
292
1
282
    1
141
0
142
0
 63
  250
421
3358443
  0
ENDTAB
  0
TABLE
  2
LTYPE
  5
5
330
0
100
AcDbSymbolTable
 70
    4
  0
LTYPE
  5
14
330
5
100
AcDbSymbolTableRecord
100
AcDbLinetypeTableRecord
  2
ByBlock
 70
    0
  3

 72
   65
 73
    0
 40
0
  0
LTYPE
  5
15
330
5
100
AcDbSymbolTableRecord
100
AcDbLinetypeTableRecord
  2
ByLayer
 70
    0
  3

 72
   65
 73
    0
 40
0
  0
LTYPE
  5
16
330
5
100
AcDbSymbolTableRecord
100
AcDbLinetypeTableRecord
  2
Continuous
 70
    0
  3
Solid line
 72
   65
 73
    0
 40
0
  0
LTYPE
  5
32
330
5
100
AcDbSymbolTableRecord
100
AcDbLinetypeTableRecord
  2
DOT
 70
    0
  3
Dot . . . . . . . . . . . . . . . . . . . . . .
 72
   65
 73
    2
 40
6.35
 49
0
 74
    0
 49
-6.35
 74
    0
  0
LTYPE
  5
33
330
5
100
AcDbSymbolTableRecord
100
AcDbLinetypeTableRecord
  2
DOTTINY
 70
    0
  3
Dot (.15x) .....................................
 72
   65
 73
    2
 40
0.9525
 49
0
 74
    0
 49
-0.9525
 74
    0
  0
LTYPE
  5
34
330
5
100
AcDbSymbolTableRecord
100
AcDbLinetypeTableRecord
  2
DOT2
 70
    0
  3
Dot (.5x) .....................................
 72
   65
 73
    2
 40
3.175
 49
0
 74
    0
 49
-3.175
 74
    0
  0
LTYPE
  5
35
330
5
100
AcDbSymbolTableRecord
100
AcDbLinetypeTableRecord
  2
DOTX2
 70
    0
  3
Dot (2x) .  .  .  .  .  .  .  .  .  .  .  .  .
 72
   65
 73
    2
 40
12.7
 49
0
 74
    0
 49
-12.7
 74
    0
  0
LTYPE
  5
36
330
5
100
AcDbSymbolTableRecord
100
AcDbLinetypeTableRecord
  2
DASHED
 70
    0
  3
Dashed _ _ _ _ _ _ _ _ _ _ _ _ _ _ _ _ _
 72
   65
 73
    2
 40
19.05
 49
12.7
 74
    0
 49
-6.35
 74
    0
  0
LTYPE
  5
37
330
5
100
AcDbSymbolTableRecord
100
AcDbLinetypeTableRecord
  2
DASHEDTINY
 70
    0
  3
Dashed (.15x) _ _ _ _ _ _ _ _ _ _ _ _ _ _ _ _ _
 72
   65
 73
    2
 40
2.8575
 49
1.905
 74
    0
 49
-0.9525
 74
    0
  0
LTYPE
  5
38
330
5
100
AcDbSymbolTableRecord
100
AcDbLinetypeTableRecord
  2
DASHED2
 70
    0
  3
Dashed (.5x) _ _ _ _ _ _ _ _ _ _ _ _ _ _ _ _ _
 72
   65
 73
    2
 40
9.524999999999999
 49
6.35
 74
    0
 49
-3.175
 74
    0
  0
LTYPE
  5
39
330
5
100
AcDbSymbolTableRecord
100
AcDbLinetypeTableRecord
  2
DASHEDX2
 70
    0
  3
Dashed (2x) ____  ____  ____  ____  ____  ___
 72
   65
 73
    2
 40
38.09999999999999
 49
25.4
 74
    0
 49
-12.7
 74
    0
  0
LTYPE
  5
3A
330
5
100
AcDbSymbolTableRecord
100
AcDbLinetypeTableRecord
  2
DASHDOT
 70
    0
  3
Dash dot __ . __ . __ . __ . __ . __ . __ . __
 72
   65
 73
    4
 40
25.4
 49
12.7
 74
    0
 49
-6.35
 74
    0
 49
0
 74
    0
 49
-6.35
 74
    0
  0
LTYPE
  5
3B
330
5
100
AcDbSymbolTableRecord
100
AcDbLinetypeTableRecord
  2
DASHDOTTINY
 70
    0
  3
Dash dot (.15x) _._._._._._._._._._._._._._._.
 72
   65
 73
    4
 40
3.81
 49
1.905
 74
    0
 49
-0.9525
 74
    0
 49
0
 74
    0
 49
-0.9525
 74
    0
  0
LTYPE
  5
3C
330
5
100
AcDbSymbolTableRecord
100
AcDbLinetypeTableRecord
  2
DASHDOT2
 70
    0
  3
Dash dot (.5x) _._._._._._._._._._._._._._._.
 72
   65
 73
    4
 40
12.7
 49
6.35
 74
    0
 49
-3.175
 74
    0
 49
0
 74
    0
 49
-3.175
 74
    0
  0
LTYPE
  5
3D
330
5
100
AcDbSymbolTableRecord
100
AcDbLinetypeTableRecord
  2
DASHDOTX2
 70
    0
  3
Dash dot (2x) ____  .  ____  .  ____  .  ___
 72
   65
 73
    4
 40
50.8
 49
25.4
 74
    0
 49
-12.7
 74
    0
 49
0
 74
    0
 49
-12.7
 74
    0
  0
LTYPE
  5
3E
330
5
100
AcDbSymbolTableRecord
100
AcDbLinetypeTableRecord
  2
DIVIDE
 70
    0
  3
Divide ____ . . ____ . . ____ . . ____ . . ____
 72
   65
 73
    6
 40
31.75
 49
12.7
 74
    0
 49
-6.35
 74
    0
 49
0
 74
    0
 49
-6.35
 74
    0
 49
0
 74
    0
 49
-6.35
 74
    0
  0
LTYPE
  5
3F
330
5
100
AcDbSymbolTableRecord
100
AcDbLinetypeTableRecord
  2
DIVIDETINY
 70
    0
  3
Divide (.15x) __..__..__..__..__..__..__..__.._
 72
   65
 73
    6
 40
4.7625
 49
1.905
 74
    0
 49
-0.9525
 74
    0
 49
0
 74
    0
 49
-0.9525
 74
    0
 49
0
 74
    0
 49
-0.9525
 74
    0
  0
LTYPE
  5
40
330
5
100
AcDbSymbolTableRecord
100
AcDbLinetypeTableRecord
  2
DIVIDE2
 70
    0
  3
Divide (.5x) __..__..__..__..__..__..__..__.._
 72
   65
 73
    6
 40
15.875
 49
6.35
 74
    0
 49
-3.175
 74
    0
 49
0
 74
    0
 49
-3.175
 74
    0
 49
0
 74
    0
 49
-3.175
 74
    0
  0
LTYPE
  5
41
330
5
100
AcDbSymbolTableRecord
100
AcDbLinetypeTableRecord
  2
DIVIDEX2
 70
    0
  3
Divide (2x) ________  .  .  ________  .  .  _
 72
   65
 73
    6
 40
63.5
 49
25.4
 74
    0
 49
-12.7
 74
    0
 49
0
 74
    0
 49
-12.7
 74
    0
 49
0
 74
    0
 49
-12.7
 74
    0
  0
LTYPE
  5
42
330
5
100
AcDbSymbolTableRecord
100
AcDbLinetypeTableRecord
  2
BORDER
 70
    0
  3
Border __ __ . __ __ . __ __ . __ __ . __ __ .
 72
   65
 73
    6
 40
44.45
 49
12.7
 74
    0
 49
-6.35
 74
    0
 49
12.7
 74
    0
 49
-6.35
 74
    0
 49
0
 74
    0
 49
-6.35
 74
    0
  0
LTYPE
  5
43
330
5
100
AcDbSymbolTableRecord
100
AcDbLinetypeTableRecord
  2
BORDERTINY
 70
    0
  3
Border (.15x) __.__.__.__.__.__.__.__.__.__.__.
 72
   65
 73
    6
 40
6.6675
 49
1.905
 74
    0
 49
-0.9525
 74
    0
 49
1.905
 74
    0
 49
-0.9525
 74
    0
 49
0
 74
    0
 49
-0.9525
 74
    0
  0
LTYPE
  5
44
330
5
100
AcDbSymbolTableRecord
100
AcDbLinetypeTableRecord
  2
BORDER2
 70
    0
  3
Border (.5x) __.__.__.__.__.__.__.__.__.__.__.
 72
   65
 73
    6
 40
22.225
 49
6.35
 74
    0
 49
-3.175
 74
    0
 49
6.35
 74
    0
 49
-3.175
 74
    0
 49
0
 74
    0
 49
-3.175
 74
    0
  0
LTYPE
  5
45
330
5
100
AcDbSymbolTableRecord
100
AcDbLinetypeTableRecord
  2
BORDERX2
 70
    0
  3
Border (2x) ____  ____  .  ____  ____  .  ___
 72
   65
 73
    6
 40
88.89999999999999
 49
25.4
 74
    0
 49
-12.7
 74
    0
 49
25.4
 74
    0
 49
-12.7
 74
    0
 49
0
 74
    0
 49
-12.7
 74
    0
  0
LTYPE
  5
46
330
5
100
AcDbSymbolTableRecord
100
AcDbLinetypeTableRecord
  2
CENTER
 70
    0
  3
Center ____ _ ____ _ ____ _ ____ _ ____ _ ____
 72
   65
 73
    4
 40
50.8
 49
31.75
 74
    0
 49
-6.35
 74
    0
 49
6.35
 74
    0
 49
-6.35
 74
    0
  0
LTYPE
  5
47
330
5
100
AcDbSymbolTableRecord
100
AcDbLinetypeTableRecord
  2
CENTERTINY
 70
    0
  3
Center (.15x) ___ _ ___ _ ___ _ ___ _ ___ _ ___
 72
   65
 73
    4
 40
7.619999999999999
 49
4.7625
 74
    0
 49
-0.9525
 74
    0
 49
0.9525
 74
    0
 49
-0.9525
 74
    0
  0
LTYPE
  5
48
330
5
100
AcDbSymbolTableRecord
100
AcDbLinetypeTableRecord
  2
CENTER2
 70
    0
  3
Center (.5x) ___ _ ___ _ ___ _ ___ _ ___ _ ___
 72
   65
 73
    4
 40
28.575
 49
19.05
 74
    0
 49
-3.175
 74
    0
 49
3.175
 74
    0
 49
-3.175
 74
    0
  0
LTYPE
  5
49
330
5
100
AcDbSymbolTableRecord
100
AcDbLinetypeTableRecord
  2
CENTERX2
 70
    0
  3
Center (2x) ________  __  ________  __  _____
 72
   65
 73
    4
 40
101.6
 49
63.5
 74
    0
 49
-12.7
 74
    0
 49
12.7
 74
    0
 49
-12.7
 74
    0
  0
ENDTAB
  0
TABLE
  2
LAYER
  5
2
330
0
100
AcDbSymbolTable
 70
    1
  0
LAYER
  5
10
330
2
100
AcDbSymbolTableRecord
100
AcDbLayerTableRecord
  2
0
 70
    0
 62
    7
  6
CONTINUOUS
370
   -3
390
F
  0
ENDTAB
  0
TABLE
  2
STYLE
  5
3
330
0
100
AcDbSymbolTable
 70
    3
  0
STYLE
  5
4A
330
2
100
AcDbSymbolTableRecord
100
AcDbTextStyleTableRecord
  2
Standard
 70
    0
 40
0
 41
1
 50
0
 71
    0
 42
1
  3
txt
  4

  0
ENDTAB
  0
TABLE
  2
VIEW
  5
6
330
0
100
AcDbSymbolTable
 70
    0
  0
ENDTAB
  0
TABLE
  2
UCS
  5
7
330
0
100
AcDbSymbolTable
 70
    0
  0
ENDTAB
  0
TABLE
  2
APPID
  5
9
330
0
100
AcDbSymbolTable
 70
    1
  0
APPID
  5
12
330
9
100
AcDbSymbolTableRecord
100
AcDbRegAppTableRecord
  2
ACAD
 70
    0
  0
APPID
  5
4B
330
9
100
AcDbSymbolTableRecord
100
AcDbRegAppTableRecord
  2
LibreCad
 70
    0
  0
ENDTAB
  0
TABLE
  2
DIMSTYLE
  5
A
330
0
100
AcDbSymbolTable
 70
    1
100
AcDbDimStyleTable
 71
    1
  0
DIMSTYLE
105
4C
330
A
100
AcDbSymbolTableRecord
100
AcDbDimStyleTableRecord
  2
Standard
 70
    0
 40
1
 41
2.5
 42
0.625
 43
0.38
 44
1.25
 45
0
 46
0
 47
0
 48
0
 49
1
140
2.5
141
0.09
142
2.5
143
25.4
144
1
145
0
146
1
147
0.625
148
0
 71
    0
 72
    0
 73
    0
 74
    1
 75
    0
 76
    0
 77
    0
 78
    1
 79
    0
170
    0
171
    2
172
    0
173
    0
174
    0
175
    0
176
    0
177
    0
178
    0
179
    0
271
    2
272
    4
273
    2
274
    2
275
    0
276
    0
277
    2
278
    0
279
    0
280
    0
281
    0
282
    0
283
    1
284
    0
285
    0
286
    0
288
    0
289
    3
340
standard
341

371
   -2
372
   -2
  0
ENDTAB
  0
TABLE
  2
BLOCK_RECORD
  5
1
330
0
100
AcDbSymbolTable
 70
    2
  0
BLOCK_RECORD
  5
1F
330
1
100
AcDbSymbolTableRecord
100
AcDbBlockTableRecord
  2
*Model_Space
 70
    0
280
    1
281
    0
  0
BLOCK_RECORD
  5
1E
330
1
100
AcDbSymbolTableRecord
100
AcDbBlockTableRecord
  2
*Paper_Space
 70
    0
280
    1
281
    0
  0
ENDTAB
  0
ENDSEC
  0
SECTION
  2
BLOCKS
  0
BLOCK
  5
20
330
1F
100
AcDbEntity
  8
0
100
AcDbBlockBegin
  2
*Model_Space
 70
    0
 10
0
 20
0
 30
0
  3
*Model_Space
  1

  0
ENDBLK
  5
21
330
1F
100
AcDbEntity
  8
0
100
AcDbBlockEnd
  0
BLOCK
  5
1C
330
1B
100
AcDbEntity
  8
0
100
AcDbBlockBegin
  2
*Paper_Space
 70
    0
 10
0
 20
0
 30
0
  3
*Paper_Space
  1

  0
ENDBLK
  5
1D
330
1F
100
AcDbEntity
  8
0
100
AcDbBlockEnd
  0
ENDSEC
  0
SECTION
  2
ENTITIES
  0
LWPOLYLINE
  5
4D
100
AcDbEntity
  8
0
  6
ByLayer
 62
    0
370
   -1
100
AcDbPolyline
 90
    6
 70
    1
 43
0
 10
209.1782498133474
 20
-331.8059843654614
 42
0.57735026918999
 10
206.5801738133474
 20
-336.3059843654614
 10
223.2811848133474
 20
-365.2329843654613
 42
0.5773502691899968
 10
228.4773378133474
 20
-365.2329843654614
 10
245.1783488133474
 20
-336.3059843654614
 42
0.57735026918999
 10
242.5802728133474
 20
-331.8059843654614
  0
LWPOLYLINE
  5
4E
100
AcDbEntity
  8
0
  6
ByLayer
 62
    0
370
   -1
100
AcDbPolyline
 90
    6
 70
    1
 43
0
 10
195.1792948133474
 20
-362.2329843654613
 42
-0.57735026918999
 10
192.5812188133474
 20
-366.7329843654613
 10
159.1791958133474
 20
-366.7329843654613
 42
-0.5773502691899961
 10
156.5811198133474
 20
-362.2329843654613
 10
173.2821308133474
 20
-333.3059843654613
 42
-0.5773502691899971
 10
178.4782838133474
 20
-333.3059843654614
  0
LWPOLYLINE
  5
4F
100
AcDbEntity
  8
0
  6
ByLayer
 62
    0
370
   -1
100
AcDbPolyline
 90
    6
 70
    1
 43
0
 10
109.1782498133474
 20
-331.8059843654614
 42
0.5773502691899909
 10
106.5801738133474
 20
-336.3059843654614
 10
123.2811848133474
 20
-365.2329843654613
 42
0.5773502691899977
 10
128.4773378133474
 20
-365.2329843654614
 10
145.1783488133474
 20
-336.3059843654614
 42
0.57735026918999
 10
142.5802728133474
 20
-331.8059843654614
  0
LWPOLYLINE
  5
50
100
AcDbEntity
  8
0
  6
ByLayer
 62
    0
370
   -1
100
AcDbPolyline
 90
    6
 70
    1
 43
0
 10
95.1792948133474
 20
-362.2329843654613
 42
-0.5773502691899944
 10
92.58121881334738
 20
-366.7329843654613
 10
59.17919581334739
 20
-366.7329843654613
 42
-0.5773502691899921
 10
56.58111981334739
 20
-362.2329843654613
 10
73.28213081334742
 20
-333.3059843654613
 42
-0.5773502691899954
 10
78.47828381334737
 20
-333.3059843654614
  0
LWPOLYLINE
  5
51
100
AcDbEntity
  8
0
  6
ByLayer
 62
    0
370
   -1
100
AcDbPolyline
 90
    6
 70
    1
 43
0
 10
23.28118481334741
 20
-365.2329843654613
 42
0.5773502691899953
 10
28.47733781334736
 20
-365.2329843654614
 10
45.17834881334738
 20
-336.3059843654614
 42
0.5773502691899935
 10
42.58027281334738
 20
-331.8059843654614
 10
9.178249813347396
 20
-331.8059843654614
 42
0.5773502691899941
 10
6.580173813347383
 20
-336.3059843654614
  0
LWPOLYLINE
  5
52
100
AcDbEntity
  8
0
  6
ByLayer
 62
    0
370
   -1
100
AcDbPolyline
 90
    6
 70
    1
 43
0
 10
-21.11979318665261
 20
-366.7329843654613
 42
-0.4142135580070034
 10
-24.11979318665261
 20
-363.7329843654613
 10
-24.11979318665261
 20
-340.0021363654614
 42
-0.7673269938990074
 10
-18.52171718665263
 20
-338.5021363654615
 10
-4.820705186652608
 20
-362.2329843654613
 42
-0.5773502691899941
 10
-7.418781186652621
 20
-366.7329843654613
  0
LWPOLYLINE
  5
53
100
AcDbEntity
  8
0
  6
ByLayer
 62
    0
370
   -1
100
AcDbPolyline
 90
    6
 70
    1
 43
0
 10
-18.58806718665256
 20
-284.1863173654614
 42
0.5773502691899873
 10
-18.58806718665256
 20
-280.6789133654614
 10
-38.11379218665259
 20
-269.4057313654613
 42
0.5773502691900794
 10
-41.15129218665255
 20
-271.1594323654614
 10
-41.15129218665255
 20
-293.7057983654614
 42
0.5773502691900048
 10
-38.11379218665259
 20
-295.4594993654613
  0
LWPOLYLINE
  5
54
100
AcDbEntity
  8
0
  6
ByLayer
 62
    0
370
   -1
100
AcDbPolyline
 90
    6
 70
    1
 43
0
 10
-40.13879218665259
 20
-236.6399333654614
 42
-0.5773502691900076
 10
-40.13879218665257
 20
-233.1325293654614
 10
-20.61306718665253
 20
-221.8593473654614
 42
-0.577350269189993
 10
-17.57556718665263
 20
-223.6130483654614
 10
-17.57556718665263
 20
-246.1594133654614
 42
-0.5773502691900128
 10
-20.61306718665254
 20
-247.9131153654614
  0
LWPOLYLINE
  5
55
100
AcDbEntity
  8
0
  6
ByLayer
 62
    0
370
   -1
100
AcDbPolyline
 90
    6
 70
    1
 43
0
 10
-18.58806718665256
 20
-194.1399523654614
 42
0.5773502691899897
 10
-18.58806718665256
 20
-190.6325483654614
 10
-38.1137921866526
 20
-179.3593663654614
 42
0.5773502691900725
 10
-41.15129218665254
 20
-181.1130673654614
 10
-41.15129218665254
 20
-203.6594323654614
 42
0.5773502691900669
 10
-38.1137921866526
 20
-205.4131343654614
  0
LWPOLYLINE
  5
56
100
AcDbEntity
  8
0
  6
ByLayer
 62
    0
370
   -1
100
AcDbPolyline
 90
    6
 70
    1
 43
0
 10
-17.57556718665263
 20
-161.1508643654614
 42
-0.5773502691900099
 10
-20.61306718665255
 20
-162.9045663654613
 10
-40.13879218665257
 20
-151.6313843654614
 42
-0.5773502691899985
 10
-40.13879218665259
 20
-148.1239803654613
 10
-20.61306718665254
 20
-136.8507983654613
 42
-0.5773502691899941
 10
-17.57556718665263
 20
-138.6044993654614
  0
LWPOLYLINE
  5
57
100
AcDbEntity
  8
0
  6
ByLayer
 62
    0
370
   -1
100
AcDbPolyline
 90
    6
 70
    1
 43
0
 10
-41.15129218665261
 20
-118.6508833654614
 42
0.5773502691900007
 10
-38.11379218665259
 20
-120.4045853654612
 10
-18.58806718665256
 20
-109.1314033654614
 42
0.5773502691899802
 10
-18.58806718665256
 20
-105.6239993654615
 10
-38.11379218665259
 20
-94.35081736546128
 42
0.5773502691900192
 10
-41.15129218665261
 20
-96.10451836546137
  0
LWPOLYLINE
  5
58
100
AcDbEntity
  8
0
  6
ByLayer
 62
    0
370
   -1
100
AcDbPolyline
 90
    6
 70
    1
 43
0
 10
-21.11979318665261
 20
-18.02234136546137
 42
0.4142135580070034
 10
-24.11979318665261
 20
-21.02234136546137
 10
-24.11979318665261
 20
-44.75319036546135
 42
0.7673269938989964
 10
-18.52171718665262
 20
-46.25319036546135
 10
-4.82070518665263
 20
-22.52234136546137
 42
0.5773502691899965
 10
-7.41878118665262
 20
-18.02234136546137
  0
LWPOLYLINE
  5
59
100
AcDbEntity
  8
0
  6
ByLayer
 62
    0
370
   -1
100
AcDbPolyline
 90
    6
 70
    1
 43
0
 10
23.2811848133474
 20
-19.52234136546137
 42
-0.577350269189997
 10
28.47733781334738
 20
-19.52234136546137
 10
45.17834881334737
 20
-48.44934136546134
 42
-0.5773502691899965
 10
42.58027281334738
 20
-52.94934136546134
 10
9.17824981334739
 20
-52.94934136546134
 42
-0.5773502691899949
 10
6.580173813347404
 20
-48.44934136546134
  0
LWPOLYLINE
  5
5A
100
AcDbEntity
  8
0
  6
ByLayer
 62
    0
370
   -1
100
AcDbPolyline
 90
    6
 70
    1
 43
0
 10
95.17934281334736
 20
-22.52234136546137
 42
0.5773502691899731
 10
92.58126681334737
 20
-18.02234136546137
 10
59.17924381334738
 20
-18.02234136546137
 42
0.5773502691899945
 10
56.58116781334739
 20
-22.52234136546137
 10
73.28217881334737
 20
-51.44934136546123
 42
0.5773502691899962
 10
78.47833181334734
 20
-51.44934136546134
  0
LWPOLYLINE
  5
5B
100
AcDbEntity
  8
0
  6
ByLayer
 62
    0
370
   -1
100
AcDbPolyline
 90
    6
 70
    1
 43
0
 10
123.2811848133474
 20
-19.52234136546137
 42
-0.5773502691899971
 10
128.4773378133474
 20
-19.52234136546137
 10
145.1783488133474
 20
-48.44934136546136
 42
-0.5773502691899886
 10
142.5802728133474
 20
-52.94934136546134
 10
109.1782498133474
 20
-52.94934136546135
 42
-0.5773502691899914
 10
106.5801738133474
 20
-48.44934136546136
  0
LWPOLYLINE
  5
5C
100
AcDbEntity
  8
0
  6
ByLayer
 62
    0
370
   -1
100
AcDbPolyline
 90
    6
 70
    1
 43
0
 10
195.1792948133474
 20
-22.52234136546136
 42
0.5773502691899891
 10
192.5812188133474
 20
-18.02234136546137
 10
159.1791958133474
 20
-18.02234136546137
 42
0.5773502691899981
 10
156.5811198133474
 20
-22.52234136546137
 10
173.2821308133474
 20
-51.44934136546134
 42
0.5773502691899968
 10
178.4782838133474
 20
-51.44934136546134
  0
LWPOLYLINE
  5
5D
100
AcDbEntity
  8
0
  6
ByLayer
 62
    0
370
   -1
100
AcDbPolyline
 90
    6
 70
    1
 43
0
 10
245.1783488133474
 20
-48.44934136546136
 42
-0.5773502691899886
 10
242.5802728133474
 20
-52.94934136546134
 10
209.1782498133474
 20
-52.94934136546134
 42
-0.5773502691899952
 10
206.5801738133474
 20
-48.44934136546134
 10
223.2811848133474
 20
-19.52234136546137
 42
-0.5773502691899971
 10
228.4773378133474
 20
-19.52234136546137
  0
LWPOLYLINE
  5
5E
100
AcDbEntity
  8
0
  6
ByLayer
 62
    0
370
   -1
100
AcDbPolyline
 90
    4
 70
    1
 43
0
 10
318.5413228133474
 20
-86.37766436546137
 10
318.5413228133474
 20
-78.37766336546137
 42
1.00000005161913
 10
310.5413218133475
 20
-78.37766336546137
 10
310.5413228133474
 20
-86.37766436546137
 42
0.9999996154461669
  0
LWPOLYLINE
  5
5F
100
AcDbEntity
  8
0
  6
ByLayer
 62
    0
370
   -1
100
AcDbPolyline
 90
    4
 70
    1
 43
0
 10
310.5413218133474
 20
-18.37766336546137
 10
310.5413228133474
 20
-26.37766436546137
 42
0.9999996154461678
 10
318.5413228133474
 20
-26.37766436546137
 10
318.5413228133474
 20
-18.37766336546137
 42
1.000000051619132
  0
LWPOLYLINE
  5
60
100
AcDbEntity
  8
0
  6
ByLayer
 62
    0
370
   -1
100
AcDbPolyline
 90
    4
 70
    1
 43
0
 10
310.5413218133474
 20
-298.3776613654613
 10
310.5413228133474
 20
-306.3776623654613
 42
1.000000051619141
 10
318.5413228133474
 20
-306.3776623654613
 10
318.5413228133474
 20
-298.3776613654613
 42
0.9999996160240635
  0
LWPOLYLINE
  5
61
100
AcDbEntity
  8
0
  6
ByLayer
 62
    0
370
   -1
100
AcDbPolyline
 90
    4
 70
    1
 43
0
 10
310.5413218133474
 20
-358.3776613654613
 10
310.5413228133474
 20
-366.3776623654613
 42
1.000000051619141
 10
318.5413228133474
 20
-366.3776623654613
 10
318.5413228133474
 20
-358.3776613654613
 42
0.9999996160240635
  0
LWPOLYLINE
  5
62
100
AcDbEntity
  8
0
  6
ByLayer
 62
    0
370
   -1
100
AcDbPolyline
 90
   16
 70
    1
 43
0
 10
315.4913228133474
 20
-316.3357123654613
 42
0.2679482664649657
 10
315.2413248133474
 20
-316.7687243654614
 10
315.2413218133474
 20
-318.3365953654613
 42
0.2679491924309749
 10
315.4913218133474
 20
-318.7696083654614
 42
-1.303223041599781
 10
314.8083098133475
 20
-319.4526223654614
 42
0.2679482664649776
 10
314.3752978133474
 20
-319.2026233654614
 10
288.7073488133474
 20
-319.2026203654614
 42
0.2679491924310196
 10
288.2743358133474
 20
-319.4526203654614
 42
-1.303223041600095
 10
287.5913218133475
 20
-318.7696083654614
 42
0.2679482664660238
 10
287.8413208133475
 20
-318.3365963654613
 10
287.8413238133475
 20
-316.7687293654614
 42
0.2679491924309602
 10
287.5913238133475
 20
-316.3357173654613
 42
-1.30322304160001
 10
288.2743348133477
 20
-315.6527033654613
 42
0.2679482664649676
 10
288.7073468133474
 20
-315.9027013654614
 10
314.3752958133474
 20
-315.9027013654614
 42
0.2679491924309708
 10
314.8083088133475
 20
-315.6527013654614
 42
-1.303223041600094
  0
LWPOLYLINE
  5
63
100
AcDbEntity
  8
0
  6
ByLayer
 62
    0
370
   -1
100
AcDbPolyline
 90
   16
 70
    1
 43
0
 10
288.2743358133474
 20
-69.10262136546132
 42
-1.303223041600249
 10
287.5913218133475
 20
-68.41960936546134
 42
0.2679482664649995
 10
287.8413208133475
 20
-67.98659736546135
 10
287.8413238133475
 20
-66.41873036546137
 42
0.2679491924309558
 10
287.5913238133475
 20
-65.98571736546127
 42
-1.303223041599992
 10
288.2743348133477
 20
-65.30270336546118
 42
0.2679482664649943
 10
288.7073468133474
 20
-65.55270136546125
 10
314.3752958133474
 20
-65.55270136546135
 42
0.2679491924309841
 10
314.8083088133475
 20
-65.30270136546133
 42
-1.30322304160019
 10
315.4913228133474
 20
-65.98571336546134
 42
0.2679482664650293
 10
315.2413248133474
 20
-66.41872536546133
 10
315.2413218133474
 20
-67.98659536546135
 42
0.26794919243097
 10
315.4913218133474
 20
-68.41960936546138
 42
-1.303223041599777
 10
314.8083098133476
 20
-69.1026233654613
 42
0.2679482664650146
 10
314.3752978133474
 20
-68.85262436546132
 10
288.7073488133474
 20
-68.85262136546133
 42
0.267949192431026
  0
LWPOLYLINE
  5
64
100
AcDbEntity
  8
0
  6
ByLayer
 62
    0
370
   -1
100
AcDbPolyline
 90
   16
 70
    1
 43
0
 10
288.7072788133474
 20
-44.94766236546144
 42
-0.2679491924311547
 10
288.2742648133473
 20
-44.69766236546144
 42
1.303223041599209
 10
287.5912508133474
 20
-45.38067336546128
 42
-0.2679482664649379
 10
287.8412498133473
 20
-45.81368536546135
 10
287.8412528133474
 20
-47.38155336546133
 42
-0.2679491924309867
 10
287.5912528133474
 20
-47.81456636546164
 42
1.303223041599867
 10
288.2742648133475
 20
-48.49758036546154
 42
-0.2679482664650192
 10
288.7072768133474
 20
-48.24758136546146
 10
293.1752268133474
 20
-48.24758136546141
 42
-0.2679491924309189
 10
293.6082388133475
 20
-48.49758136546154
 42
1.303223041600876
 10
294.2912528133475
 20
-47.81456936546159
 42
-0.2679482617890273
 10
294.0412548133475
 20
-47.38155736546138
 10
294.0412518133475
 20
-45.81368736546135
 42
-0.2679491924309899
 10
294.2912518133475
 20
-45.38067536546129
 42
1.303223041600182
 10
293.6082398133475
 20
-44.6976613654614
 42
-0.2679482664650133
 10
293.1752278133474
 20
-44.94765936546143
  0
LWPOLYLINE
  5
65
100
AcDbEntity
  8
0
  6
ByLayer
 62
    0
370
   -1
100
AcDbPolyline
 90
   16
 70
    1
 43
0
 10
315.2412538133474
 20
-47.38155736546138
 10
315.2412508133474
 20
-45.81368736546135
 42
-0.267949192430969
 10
315.4912508133474
 20
-45.38067536546136
 42
1.303223041599824
 10
314.8082398133473
 20
-44.6976613654614
 42
-0.2679482664649857
 10
314.3752278133475
 20
-44.94765936546138
 10
309.9072778133475
 20
-44.94766236546137
 42
-0.2679491924309774
 10
309.4742648133474
 20
-44.69766236546138
 42
1.303223041600164
 10
308.7912508133475
 20
-45.38067336546136
 42
-0.2679482664648963
 10
309.0412498133473
 20
-45.81368536546135
 10
309.0412528133475
 20
-47.38155336546133
 42
-0.2679491924309615
 10
308.7912528133475
 20
-47.81456636546145
 42
1.303223041600383
 10
309.4742638133473
 20
-48.49758036546132
 42
-0.2679482664650019
 10
309.9072758133474
 20
-48.24758136546136
 10
314.3752258133475
 20
-48.24758136546136
 42
-0.2679491924309886
 10
314.8082378133474
 20
-48.49758136546136
 42
1.303223041600204
 10
315.4912518133474
 20
-47.81456936546132
 42
-0.2679482664650027
  0
LWPOLYLINE
  5
66
100
AcDbEntity
  8
0
  6
ByLayer
 62
    0
370
   -1
100
AcDbPolyline
 90
   16
 70
    1
 43
0
 10
276.5462778133474
 20
-34.91163536546132
 10
276.5462748133474
 20
-30.44368536546135
 42
-0.2679491924729666
 10
276.7962748133474
 20
-30.01067336546149
 42
1.303223029820155
 10
276.1132628133474
 20
-29.32765936546139
 42
-0.2679482664649869
 10
275.6802508133475
 20
-29.57765736546126
 10
274.1123838133474
 20
-29.57766036546137
 42
-0.2679491924310058
 10
273.6793698133474
 20
-29.3276603654614
 42
1.303223041600237
 10
272.9963558133475
 20
-30.01067236546136
 42
-0.2679482664229688
 10
273.2463548133474
 20
-30.44368436546135
 10
273.2463558133475
 20
-34.91163336546133
 42
-0.2679491924740123
 10
272.9963558133475
 20
-35.34464736546144
 42
1.303223041599954
 10
273.6793678133474
 20
-36.02766136546136
 42
-0.2679482664649838
 10
274.1123798133474
 20
-35.77766236546135
 10
275.6802498133475
 20
-35.77765836546136
 42
-0.2679491924310079
 10
276.1132628133473
 20
-36.02765836546139
 42
1.303223041599782
 10
276.7962758133474
 20
-35.34464736546123
 42
-0.2679482664229904
  0
LWPOLYLINE
  5
67
100
AcDbEntity
  8
0
  6
ByLayer
 62
    0
370
   -1
100
AcDbPolyline
 90
   16
 70
    1
 43
0
 10
276.5462718133474
 20
-9.243685365461362
 42
-0.2679491924729985
 10
276.7962718133474
 20
-8.810673365461424
 42
1.303223041599867
 10
276.1132598133474
 20
-8.127659365461387
 42
-0.2679482664649988
 10
275.6802478133475
 20
-8.377657365461332
 10
274.1123808133474
 20
-8.377660365461328
 42
-0.2679491924309784
 10
273.6793668133474
 20
-8.127661365461291
 42
1.303223029819936
 10
272.9963528133475
 20
-8.810672365461224
 42
-0.2679482664230514
 10
273.2463518133475
 20
-9.243684365461364
 10
273.2463528133475
 20
-13.71163436546134
 42
-0.2679491924740371
 10
272.9963528133475
 20
-14.14464736546124
 42
1.303223029820043
 10
273.6793648133474
 20
-14.82766136546141
 42
-0.2679482664649793
 10
274.1123768133474
 20
-14.57766236546137
 10
275.6802468133475
 20
-14.57765936546143
 42
-0.2679491924309458
 10
276.1132598133473
 20
-14.82765936546147
 42
1.303223029820109
 10
276.7962728133474
 20
-14.14464736546133
 42
-0.26794826642297
 10
276.5462748133474
 20
-13.71163536546134
  0
LWPOLYLINE
  5
68
100
AcDbEntity
  8
0
  6
ByLayer
 62
    0
370
   -1
100
AcDbPolyline
 90
   16
 70
    1
 43
0
 10
288.7072718133475
 20
4.09233763453865
 42
-0.2679491924309727
 10
288.2742578133477
 20
4.342337634538909
 42
1.303223041599471
 10
287.5912438133474
 20
3.659326634538633
 42
-0.2679482664650926
 10
287.8412428133475
 20
3.226314634538666
 10
287.8412458133474
 20
1.658446634538633
 42
-0.2679491924310148
 10
287.5912458133474
 20
1.225433634538609
 42
1.303223041599784
 10
288.2742578133472
 20
0.5424196345387837
 42
-0.2679482664650435
 10
288.7072698133475
 20
0.7924186345386617
 10
293.1752198133474
 20
0.7924186345386617
 42
-0.2679491924310065
 10
293.6082318133474
 20
0.542418634538661
 42
1.303223041599948
 10
294.2912458133475
 20
1.225430634538585
 42
-0.2679482664650106
 10
294.0412478133475
 20
1.658442634538643
 10
294.0412448133475
 20
3.226312634538671
 42
-0.2679491924309791
 10
294.2912448133475
 20
3.659324634539026
 42
1.303223041598907
 10
293.6082328133474
 20
4.342338634538759
 42
-0.2679482664650426
 10
293.1752208133474
 20
4.092340634538528
  0
LWPOLYLINE
  5
69
100
AcDbEntity
  8
0
  6
ByLayer
 62
    0
370
   -1
100
AcDbPolyline
 90
   16
 70
    1
 43
0
 10
309.4742578133474
 20
4.342337634538659
 42
1.303223041599959
 10
308.7912438133475
 20
3.659326634538643
 42
-0.2679482664650248
 10
309.0412428133476
 20
3.226314634538666
 10
309.0412458133475
 20
1.658446634538633
 42
-0.2679491924310038
 10
308.7912458133475
 20
1.225433634538678
 42
1.303223041599783
 10
309.4742568133478
 20
0.5424196345386241
 42
-0.2679482617889872
 10
309.9072688133474
 20
0.7924186345387754
 10
314.3752188133475
 20
0.7924186345386617
 42
-0.267949192431021
 10
314.8082308133474
 20
0.542418634538715
 42
1.303223041600209
 10
315.4912448133474
 20
1.225430634538661
 42
-0.2679482664649633
 10
315.2412468133474
 20
1.658442634538643
 10
315.2412438133474
 20
3.226312634538671
 42
-0.267949192431018
 10
315.4912438133474
 20
3.659324634538712
 42
1.303223041601323
 10
314.8082328133472
 20
4.342338634538677
 42
-0.2679482664649452
 10
314.3752208133475
 20
4.092340634538643
 10
309.9072708133474
 20
4.09233763453865
 42
-0.26794919243105
  0
LWPOLYLINE
  5
6A
100
AcDbEntity
  8
0
  6
ByLayer
 62
    0
370
   -1
100
AcDbPolyline
 90
   16
 70
    1
 43
0
 10
287.8413238133475
 20
-337.3737283654614
 42
0.2679491924309777
 10
287.5913238133475
 20
-336.9407153654614
 42
-1.303223041599972
 10
288.2743348133475
 20
-336.2577013654613
 42
0.2679482664649952
 10
288.7073468133474
 20
-336.5076993654613
 10
293.1752968133475
 20
-336.5076993654613
 42
0.2679491924309894
 10
293.6083088133474
 20
-336.2576993654613
 42
-1.303223041600353
 10
294.2913228133474
 20
-336.9407113654614
 42
0.2679482664650103
 10
294.0413248133474
 20
-337.3737233654614
 10
294.0413218133474
 20
-338.9415933654614
 42
0.2679491924309734
 10
294.2913218133474
 20
-339.3746073654613
 42
-1.303223041600667
 10
293.6083108133473
 20
-340.0576213654613
 42
0.2679482617889328
 10
293.1752988133475
 20
-339.8076223654613
 10
288.7073488133474
 20
-339.8076193654613
 42
0.2679491924309667
 10
288.2743358133474
 20
-340.0576193654612
 42
-1.3032230416008
 10
287.5913218133475
 20
-339.3746073654611
 42
0.2679482664659881
 10
287.8413208133475
 20
-338.9415953654614
  0
LWPOLYLINE
  5
6B
100
AcDbEntity
  8
0
  6
ByLayer
 62
    0
370
   -1
100
AcDbPolyline
 90
   16
 70
    1
 43
0
 10
314.3752978133474
 20
-339.8076223654614
 10
309.9073478133474
 20
-339.8076193654614
 42
0.2679491924309851
 10
309.4743348133476
 20
-340.0576193654614
 42
-1.303223041600116
 10
308.7913208133474
 20
-339.3746073654613
 42
0.2679482664659962
 10
309.0413198133475
 20
-338.9415953654614
 10
309.0413228133474
 20
-337.3737283654614
 42
0.2679491924309739
 10
308.7913228133474
 20
-336.9407153654615
 42
-1.303223041600134
 10
309.4743348133473
 20
-336.2577013654614
 42
0.2679482664650076
 10
309.9073468133474
 20
-336.5076993654613
 10
314.3752958133474
 20
-336.5076993654613
 42
0.2679491924309708
 10
314.8083088133475
 20
-336.2576993654613
 42
-1.303223041600381
 10
315.4913228133474
 20
-336.9407113654614
 42
0.2679482664650255
 10
315.2413248133474
 20
-337.3737233654614
 10
315.2413218133474
 20
-338.9415933654614
 42
0.2679491924309774
 10
315.4913218133474
 20
-339.3746073654614
 42
-1.303223041600096
 10
314.8083098133475
 20
-340.0576213654614
 42
0.2679482664649998
  0
LWPOLYLINE
  5
6C
100
AcDbEntity
  8
0
  6
ByLayer
 62
    0
370
   -1
100
AcDbPolyline
 90
   16
 70
    1
 43
0
 10
276.5462828133475
 20
-349.8436933654614
 10
276.5462798133474
 20
-354.3116433654614
 42
0.2679491924309666
 10
276.7962798133474
 20
-354.7446563654614
 42
-1.303223041599781
 10
276.1132678133474
 20
-355.4276703654614
 42
0.267948266465018
 10
275.6802558133475
 20
-355.1776713654614
 10
274.1123888133475
 20
-355.1776683654614
 42
0.2679491924309972
 10
273.6793758133474
 20
-355.4276683654614
 42
-1.303223041599972
 10
272.9963618133474
 20
-354.7446573654613
 42
0.2679482664649471
 10
273.2463608133473
 20
-354.3116453654613
 10
273.2463608133475
 20
-349.8436953654614
 42
0.2679491924309705
 10
272.9963608133475
 20
-349.4106823654613
 42
-1.303223041599791
 10
273.6793718133475
 20
-348.7276683654613
 42
0.2679482664649952
 10
274.1123838133474
 20
-348.9776663654613
 10
275.6802548133475
 20
-348.9776693654614
 42
0.26794919243097
 10
276.1132668133474
 20
-348.7276693654613
 42
-1.303223041600106
 10
276.7962808133474
 20
-349.4106813654614
 42
0.267948266464988
  0
LWPOLYLINE
  5
6D
100
AcDbEntity
  8
0
  6
ByLayer
 62
    0
370
   -1
100
AcDbPolyline
 90
   16
 70
    1
 43
0
 10
276.1132678133474
 20
-376.6276703654614
 42
0.267948266465018
 10
275.6802558133475
 20
-376.3776713654614
 10
274.1123888133475
 20
-376.3776683654614
 42
0.2679491924309708
 10
273.6793758133474
 20
-376.6276683654614
 42
-1.303223041600001
 10
272.9963618133474
 20
-375.9446563654613
 42
0.267948266464954
 10
273.2463608133473
 20
-375.5116443654614
 10
273.2463608133475
 20
-371.0436943654614
 42
0.2679491924309795
 10
272.9963608133475
 20
-370.6106823654612
 42
-1.303223041599819
 10
273.6793718133475
 20
-369.9276683654613
 42
0.2679482664649909
 10
274.1123838133474
 20
-370.1776663654614
 10
275.6802548133475
 20
-370.1776693654614
 42
0.2679491924309853
 10
276.1132668133474
 20
-369.9276693654613
 42
-1.303223041600067
 10
276.7962808133474
 20
-370.6106803654613
 42
0.2679482664650114
 10
276.5462828133475
 20
-371.0436923654614
 10
276.5462798133474
 20
-375.5116423654613
 42
0.2679491924309744
 10
276.7962798133474
 20
-375.9446563654614
 42
-1.303223041599819
  0
LWPOLYLINE
  5
6E
100
AcDbEntity
  8
0
  6
ByLayer
 62
    0
370
   -1
100
AcDbPolyline
 90
   16
 70
    1
 43
0
 10
293.1752968133475
 20
-385.5476993654614
 42
0.2679491924309894
 10
293.6083088133474
 20
-385.2976993654614
 42
-1.303223041600266
 10
294.2913228133474
 20
-385.9807113654613
 42
0.2679482664650337
 10
294.0413248133474
 20
-386.4137233654614
 10
294.0413218133474
 20
-387.9815933654614
 42
0.2679491924309774
 10
294.2913218133473
 20
-388.4146073654613
 42
-1.303223041600601
 10
293.6083108133473
 20
-389.0976213654614
 42
0.2679482617889549
 10
293.1752988133475
 20
-388.8476223654613
 10
288.7073488133474
 20
-388.8476193654614
 42
0.2679491924310053
 10
288.2743358133473
 20
-389.0976193654612
 42
-1.303223041600361
 10
287.5913218133475
 20
-388.4146073654613
 42
0.2679482664659588
 10
287.8413208133475
 20
-387.9815953654614
 10
287.8413238133475
 20
-386.4137283654613
 42
0.2679491924309777
 10
287.5913238133475
 20
-385.9807153654613
 42
-1.303223041599896
 10
288.2743348133475
 20
-385.2977013654613
 42
0.2679482664649647
 10
288.7073468133474
 20
-385.5476993654614
  0
LWPOLYLINE
  5
6F
100
AcDbEntity
  8
0
  6
ByLayer
 62
    0
370
   -1
100
AcDbPolyline
 90
   16
 70
    1
 43
0
 10
303.1912818133475
 20
-264.2687273654614
 10
303.1912788133475
 20
-268.7366773654613
 42
0.2679491924309591
 10
303.4412788133475
 20
-269.1696913654614
 42
-1.303223041599801
 10
302.7582668133473
 20
-269.8527053654615
 42
0.2679482664650708
 10
302.3252548133474
 20
-269.6027063654614
 10
300.7573878133475
 20
-269.6027033654614
 42
0.2679491924310012
 10
300.3243748133474
 20
-269.8527033654614
 42
-1.303223041600162
 10
299.6413608133474
 20
-269.1696913654616
 42
0.2679482664660847
 10
299.8913598133475
 20
-268.7366793654613
 10
299.8913598133474
 20
-264.2687293654614
 42
0.267949192431024
 10
299.6413598133474
 20
-263.8357173654614
 42
-1.303223041600077
 10
300.3243708133474
 20
-263.1527033654613
 42
0.2679482664660009
 10
300.7573828133475
 20
-263.4027013654613
 10
302.3252538133474
 20
-263.4027043654613
 42
0.2679491924309598
 10
302.7582658133475
 20
-263.1527043654613
 42
-1.303223041600105
 10
303.4412798133475
 20
-263.8357153654613
 42
0.2679482664649657
  0
LWPOLYLINE
  5
70
100
AcDbEntity
  8
0
  6
ByLayer
 62
    0
370
   -1
100
AcDbPolyline
 90
   16
 70
    1
 43
0
 10
303.1912818133475
 20
-243.0687283654614
 10
303.1912788133475
 20
-247.5366783654614
 42
0.2679491924310123
 10
303.4412788133475
 20
-247.9696913654615
 42
-1.303223041599849
 10
302.7582668133473
 20
-248.6527053654615
 42
0.2679482664650008
 10
302.3252548133474
 20
-248.4027063654614
 10
300.7573878133475
 20
-248.4027033654613
 42
0.2679491924310012
 10
300.3243748133474
 20
-248.6527033654613
 42
-1.303223041599838
 10
299.6413608133474
 20
-247.9696923654614
 42
0.2679482664660647
 10
299.8913598133475
 20
-247.5366803654614
 10
299.8913598133474
 20
-243.0687303654614
 42
0.2679491924310272
 10
299.6413598133474
 20
-242.6357173654613
 42
-1.30322304159999
 10
300.3243708133473
 20
-241.9527033654614
 42
0.267948266465038
 10
300.7573828133475
 20
-242.2027013654614
 10
302.3252538133474
 20
-242.2027043654614
 42
0.2679491924309284
 10
302.7582658133472
 20
-241.9527043654614
 42
-1.303223041599763
 10
303.4412798133475
 20
-242.6357163654613
 42
0.2679482664650261
  0
LWPOLYLINE
  5
71
100
AcDbEntity
  8
0
  6
ByLayer
 62
    0
370
   -1
100
AcDbPolyline
 90
   16
 70
    1
 43
0
 10
302.7582868133475
 20
-136.1026223654613
 42
-1.303223041599967
 10
303.4413008133474
 20
-136.7856333654614
 42
0.267948266464988
 10
303.1913028133474
 20
-137.2186453654614
 10
303.1912998133474
 20
-141.6865953654614
 42
0.2679491924309739
 10
303.4412998133474
 20
-142.1196093654614
 42
-1.303223041598571
 10
302.7582878133476
 20
-142.8026233654614
 42
0.2679482664650892
 10
302.3252758133474
 20
-142.5526243654614
 10
300.7574088133474
 20
-142.5526213654613
 42
0.2679491924309841
 10
300.3243958133473
 20
-142.8026213654614
 42
-1.30322304159992
 10
299.6413818133474
 20
-142.1196093654611
 42
0.267948266464919
 10
299.8913808133473
 20
-141.6865973654614
 10
299.8913808133474
 20
-137.2186473654614
 42
0.2679491924309747
 10
299.6413808133474
 20
-136.7856353654614
 42
-1.303223041600016
 10
300.3243918133475
 20
-136.1026213654613
 42
0.2679482664649819
 10
300.7574038133474
 20
-136.3526193654614
 10
302.3252748133474
 20
-136.3526223654613
 42
0.2679491924309884
  0
LWPOLYLINE
  5
72
100
AcDbEntity
  8
0
  6
ByLayer
 62
    0
370
   -1
100
AcDbPolyline
 90
   16
 70
    1
 43
0
 10
303.4413008133474
 20
-115.5856343654614
 42
0.2679482664650139
 10
303.1913028133474
 20
-116.0186463654613
 10
303.1912998133474
 20
-120.4865963654614
 42
0.2679491924309704
 10
303.4412998133474
 20
-120.9196093654614
 42
-1.303223041599247
 10
302.7582878133476
 20
-121.6026233654613
 42
0.2679482664649598
 10
302.3252758133474
 20
-121.3526243654613
 10
300.7574088133474
 20
-121.3526213654613
 42
0.2679491924310277
 10
300.3243958133473
 20
-121.6026213654613
 42
-1.303223041599849
 10
299.6413818133474
 20
-120.919610365461
 42
0.2679482664649342
 10
299.8913808133473
 20
-120.4865983654613
 10
299.8913808133474
 20
-116.0186483654614
 42
0.2679491924309815
 10
299.6413808133474
 20
-115.5856353654615
 42
-1.303223041600176
 10
300.3243918133475
 20
-114.9026213654612
 42
0.2679482664650261
 10
300.7574038133474
 20
-115.1526193654613
 10
302.3252748133474
 20
-115.1526223654612
 42
0.2679491924309472
 10
302.7582868133474
 20
-114.9026223654612
 42
-1.303223041600296
  0
LWPOLYLINE
  5
73
100
AcDbEntity
  8
0
  6
ByLayer
 62
    0
370
   -1
100
AcDbPolyline
 90
   16
 70
    1
 43
0
 10
237.8412528133474
 20
-316.7686833654614
 10
237.8412558133474
 20
-318.3365513654613
 42
-0.2679491924309667
 10
237.5912558133474
 20
-318.7695643654613
 42
1.303223041600202
 10
238.2742678133475
 20
-319.4525783654614
 42
-0.2679482664650257
 10
238.7072798133474
 20
-319.2025793654614
 10
243.1752288133474
 20
-319.2025793654614
 42
-0.267949192430986
 10
243.6082418133475
 20
-319.4525793654614
 42
1.303223041600172
 10
244.2912558133474
 20
-318.7695673654613
 42
-0.2679482664650212
 10
244.0412578133474
 20
-318.3365553654614
 10
244.0412548133475
 20
-316.7686853654614
 42
-0.2679491924309733
 10
244.2912548133475
 20
-316.3356733654613
 42
1.303223041599747
 10
243.6082428133475
 20
-315.6526593654614
 42
-0.2679482664649352
 10
243.1752308133474
 20
-315.9026573654614
 10
238.7072808133474
 20
-315.9026603654614
 42
-0.2679491924309698
 10
238.2742678133476
 20
-315.6526603654614
 42
1.303223041600077
 10
237.5912538133474
 20
-316.3356713654613
 42
-0.267948266466041
  0
LWPOLYLINE
  5
74
100
AcDbEntity
  8
0
  6
ByLayer
 62
    0
370
   -1
100
AcDbPolyline
 90
   16
 70
    1
 43
0
 10
259.0412518133475
 20
-316.7686833654614
 10
259.0412548133475
 20
-318.3365513654613
 42
-0.2679491924309667
 10
258.7912548133475
 20
-318.7695643654613
 42
1.303223041600067
 10
259.4742668133474
 20
-319.4525783654614
 42
-0.2679482664649736
 10
259.9072788133475
 20
-319.2025793654614
 10
264.3752288133475
 20
-319.2025793654614
 42
-0.2679491924309741
 10
264.8082408133474
 20
-319.4525793654614
 42
1.303223041600106
 10
265.4912548133474
 20
-318.7695673654613
 42
-0.2679482617889701
 10
265.2412568133476
 20
-318.3365553654614
 10
265.2412538133474
 20
-316.7686853654614
 42
-0.26794919243096
 10
265.4912538133474
 20
-316.3356733654613
 42
1.303223041600553
 10
264.8082428133474
 20
-315.6526593654614
 42
-0.2679482664649799
 10
264.3752308133475
 20
-315.9026573654614
 10
259.9072808133475
 20
-315.9026603654614
 42
-0.2679491924310384
 10
259.4742668133474
 20
-315.6526603654614
 42
1.303223041600381
 10
258.7912528133475
 20
-316.3356713654614
 42
-0.267948266464875
  0
LWPOLYLINE
  5
75
100
AcDbEntity
  8
0
  6
ByLayer
 62
    0
370
   -1
100
AcDbPolyline
 90
   16
 70
    1
 43
0
 10
139.4743268133475
 20
-315.6527033654614
 42
0.2679482664650145
 10
139.9073388133475
 20
-315.9027013654614
 10
144.3752888133474
 20
-315.9027013654614
 42
0.2679491924309136
 10
144.8083008133473
 20
-315.6527013654614
 42
-1.303223041599658
 10
145.4913148133475
 20
-316.3357123654613
 42
0.2679482664649809
 10
145.2413168133475
 20
-316.7687243654614
 10
145.2413138133475
 20
-318.3365953654613
 42
0.267949192430988
 10
145.4913138133475
 20
-318.7696083654614
 42
-1.30322304159971
 10
144.8083028133474
 20
-319.4526223654614
 42
0.2679482664650186
 10
144.3752908133474
 20
-319.2026233654614
 10
139.9073408133474
 20
-319.2026203654614
 42
0.2679491924310295
 10
139.4743268133476
 20
-319.4526203654614
 42
-1.303223041599667
 10
138.7913128133474
 20
-318.7696083654616
 42
0.2679482664661018
 10
139.0413118133475
 20
-318.3365963654613
 10
139.0413148133474
 20
-316.7687293654614
 42
0.2679491924309602
 10
138.7913148133474
 20
-316.3357173654613
 42
-1.303223041600605
  0
LWPOLYLINE
  5
76
100
AcDbEntity
  8
0
  6
ByLayer
 62
    0
370
   -1
100
AcDbPolyline
 90
   16
 70
    1
 43
0
 10
123.6083018133474
 20
-315.6527013654614
 42
-1.303223041599952
 10
124.2913158133474
 20
-316.3357123654613
 42
0.2679482664650271
 10
124.0413178133474
 20
-316.7687243654614
 10
124.0413148133474
 20
-318.3365953654613
 42
0.2679491924309945
 10
124.2913148133474
 20
-318.7696083654614
 42
-1.303223041599629
 10
123.6083028133474
 20
-319.4526223654614
 42
0.2679482664650142
 10
123.1752908133475
 20
-319.2026233654614
 10
118.7073408133474
 20
-319.2026203654614
 42
0.2679491924310386
 10
118.2743278133474
 20
-319.4526203654614
 42
-1.30322304159999
 10
117.5913138133475
 20
-318.7696083654614
 42
0.2679482664660238
 10
117.8413128133476
 20
-318.3365963654613
 10
117.8413158133475
 20
-316.7687293654614
 42
0.2679491924309602
 10
117.5913158133475
 20
-316.3357173654613
 42
-1.303223041599835
 10
118.2743278133474
 20
-315.6527033654614
 42
0.2679482664650106
 10
118.7073398133474
 20
-315.9027013654614
 10
123.1752888133474
 20
-315.9027013654614
 42
0.267949192430997
  0
LWPOLYLINE
  5
77
100
AcDbEntity
  8
0
  6
ByLayer
 62
    0
370
   -1
100
AcDbPolyline
 90
   16
 70
    1
 43
0
 10
-36.39169318665255
 20
-319.4526223654614
 42
0.2679482664650205
 10
-36.82470518665259
 20
-319.2026233654614
 10
-41.29265518665257
 20
-319.2026203654614
 42
0.2679491924309872
 10
-41.72566818665248
 20
-319.4526203654614
 42
-1.303223041600067
 10
-42.40868218665263
 20
-318.7696083654614
 42
0.2679482664650368
 10
-42.1586831866526
 20
-318.3365963654613
 10
-42.1586801866526
 20
-316.7687293654614
 42
0.2679491924309799
 10
-42.40868018665263
 20
-316.3357173654613
 42
-1.303223041599954
 10
-41.72566918665265
 20
-315.6527033654614
 42
0.2679482664659745
 10
-41.29265718665256
 20
-315.9027013654614
 10
-36.82470718665259
 20
-315.9027013654614
 42
0.2679491924310125
 10
-36.39169518665256
 20
-315.6527013654614
 42
-1.303223041599903
 10
-35.70868118665252
 20
-316.3357123654613
 42
0.2679482664649921
 10
-35.95867918665256
 20
-316.7687243654614
 10
-35.95868218665255
 20
-318.3365953654613
 42
0.2679491924310111
 10
-35.70868218665254
 20
-318.7696083654614
 42
-1.303223041599976
  0
LWPOLYLINE
  5
78
100
AcDbEntity
  8
0
  6
ByLayer
 62
    0
370
   -1
100
AcDbPolyline
 90
   16
 70
    1
 43
0
 10
-20.95868118665261
 20
-316.7687293654614
 42
0.2679491924309602
 10
-21.20868118665261
 20
-316.3357173654613
 42
-1.303223041600229
 10
-20.52566918665262
 20
-315.6527033654614
 42
0.2679482664650014
 10
-20.09265718665257
 20
-315.9027013654614
 10
-15.62470818665259
 20
-315.9027013654614
 42
0.2679491924309717
 10
-15.1916951866525
 20
-315.6527013654614
 42
-1.303223041599947
 10
-14.5086811866525
 20
-316.3357123654613
 42
0.2679482664650251
 10
-14.75867918665257
 20
-316.7687243654614
 10
-14.75868218665256
 20
-318.3365953654613
 42
0.2679491924309921
 10
-14.50868218665256
 20
-318.7696083654614
 42
-1.303223041599664
 10
-15.19169418665246
 20
-319.4526223654614
 42
0.2679482664650025
 10
-15.6247061866526
 20
-319.2026233654614
 10
-20.09265618665257
 20
-319.2026203654614
 42
0.2679491924310051
 10
-20.52566918665246
 20
-319.4526203654614
 42
-1.303223041600055
 10
-21.20868318665265
 20
-318.7696083654614
 42
0.2679482664660069
 10
-20.95868418665249
 20
-318.3365963654613
  0
LWPOLYLINE
  5
79
100
AcDbEntity
  8
0
  6
ByLayer
 62
    0
370
   -1
100
AcDbPolyline
 90
   16
 70
    1
 43
0
 10
-42.4086821866526
 20
-259.8763693654614
 42
0.2679482664650037
 10
-42.1586831866526
 20
-259.4433573654613
 10
-42.1586801866526
 20
-257.8754903654614
 42
0.2679491924310043
 10
-42.40868018665262
 20
-257.4424773654613
 42
-1.303223041599838
 10
-41.72566918665274
 20
-256.7594633654613
 42
0.2679482664649904
 10
-41.29265718665256
 20
-257.0094613654613
 10
-36.82470718665259
 20
-257.0094613654613
 42
0.2679491924310048
 10
-36.39169518665257
 20
-256.7594613654613
 42
-1.303223041599672
 10
-35.70868118665256
 20
-257.4424733654614
 42
0.267948266464984
 10
-35.95867918665256
 20
-257.8754853654614
 10
-35.95868218665255
 20
-259.4433553654613
 42
0.2679491924309639
 10
-35.70868218665249
 20
-259.8763693654614
 42
-1.303223041599957
 10
-36.39169318665247
 20
-260.5593833654614
 42
0.2679482617889097
 10
-36.82470518665259
 20
-260.3093843654615
 10
-41.29265518665257
 20
-260.3093813654614
 42
0.2679491924309834
 10
-41.72566818665247
 20
-260.5593813654614
 42
-1.303223041599961
  0
LWPOLYLINE
  5
7A
100
AcDbEntity
  8
0
  6
ByLayer
 62
    0
370
   -1
100
AcDbPolyline
 90
   16
 70
    1
 43
0
 10
-15.19169418665254
 20
-260.5593833654614
 42
0.2679482664649652
 10
-15.6247061866526
 20
-260.3093843654615
 10
-20.09265618665257
 20
-260.3093813654614
 42
0.267949192430918
 10
-20.52566918665237
 20
-260.5593813654613
 42
-1.303223041600117
 10
-21.20868318665256
 20
-259.8763693654616
 42
0.2679482664660787
 10
-20.95868418665249
 20
-259.4433573654613
 10
-20.9586811866526
 20
-257.8754903654614
 42
0.2679491924310329
 10
-21.20868118665259
 20
-257.4424773654613
 42
-1.303223041600017
 10
-20.52566918665254
 20
-256.7594633654613
 42
0.2679482664650171
 10
-20.09265718665257
 20
-257.0094613654613
 10
-15.62470818665259
 20
-257.0094613654613
 42
0.2679491924309939
 10
-15.19169518665255
 20
-256.7594613654613
 42
-1.303223041600142
 10
-14.50868118665258
 20
-257.4424733654614
 42
0.2679482664650288
 10
-14.75867918665257
 20
-257.8754853654614
 10
-14.75868218665256
 20
-259.4433553654613
 42
0.2679491924310548
 10
-14.50868218665263
 20
-259.8763693654616
 42
-1.303223041599993
  0
LWPOLYLINE
  5
7B
100
AcDbEntity
  8
0
  6
ByLayer
 62
    0
370
   -1
100
AcDbPolyline
 90
   16
 70
    1
 43
0
 10
-41.72566818665247
 20
-130.5276503654613
 42
-1.303223041599944
 10
-42.40868218665265
 20
-129.8446383654614
 42
0.2679482664649793
 10
-42.1586831866526
 20
-129.4116263654614
 10
-42.1586801866526
 20
-127.8437593654614
 42
0.2679491924310286
 10
-42.4086801866526
 20
-127.4107463654612
 42
-1.303223041599387
 10
-41.72566918665267
 20
-126.7277323654613
 42
0.2679482664649895
 10
-41.29265718665256
 20
-126.9777303654613
 10
-36.82470718665259
 20
-126.9777303654613
 42
0.2679491924310269
 10
-36.3916951866524
 20
-126.7277303654612
 42
-1.303223041600033
 10
-35.70868118665256
 20
-127.4107423654614
 42
0.2679482664650006
 10
-35.95867918665255
 20
-127.8437543654613
 10
-35.95868218665255
 20
-129.4116243654614
 42
0.2679491924309948
 10
-35.70868218665256
 20
-129.8446383654614
 42
-1.303223041600023
 10
-36.39169318665243
 20
-130.5276523654613
 42
0.2679482617890589
 10
-36.82470518665259
 20
-130.2776533654614
 10
-41.29265518665257
 20
-130.2776503654613
 42
0.2679491924309834
  0
LWPOLYLINE
  5
7C
100
AcDbEntity
  8
0
  6
ByLayer
 62
    0
370
   -1
100
AcDbPolyline
 90
   16
 70
    1
 43
0
 10
-21.2086831866526
 20
-129.8446383654614
 42
0.2679482664650009
 10
-20.9586841866526
 20
-129.4116263654614
 10
-20.95868118665261
 20
-127.8437593654614
 42
0.2679491924309815
 10
-21.20868118665262
 20
-127.4107463654611
 42
-1.30322304159973
 10
-20.52566918665276
 20
-126.7277323654612
 42
0.267948266465018
 10
-20.09265718665257
 20
-126.9777303654612
 10
-15.62470818665259
 20
-126.9777303654613
 42
0.2679491924309972
 10
-15.19169518665253
 20
-126.7277303654613
 42
-1.303223041600144
 10
-14.50868118665256
 20
-127.4107423654614
 42
0.2679482664650035
 10
-14.75867918665257
 20
-127.8437543654613
 10
-14.75868218665256
 20
-129.4116243654614
 42
0.2679491924309672
 10
-14.50868218665257
 20
-129.8446383654614
 42
-1.303223041599821
 10
-15.19169418665255
 20
-130.5276523654613
 42
0.2679482664649838
 10
-15.6247061866526
 20
-130.2776533654613
 10
-20.09265618665257
 20
-130.2776503654613
 42
0.2679491924309548
 10
-20.52566918665242
 20
-130.5276503654613
 42
-1.303223041600142
  0
LWPOLYLINE
  5
7D
100
AcDbEntity
  8
0
  6
ByLayer
 62
    0
370
   -1
100
AcDbPolyline
 90
   16
 70
    1
 43
0
 10
-35.70868118665256
 20
-65.98571236546137
 42
0.2679482664649845
 10
-35.95867918665255
 20
-66.41872436546133
 10
-35.95868218665255
 20
-67.98659436546136
 42
0.2679491924310385
 10
-35.70868218665255
 20
-68.41960736546149
 42
-1.303223041600094
 10
-36.39169318665252
 20
-69.10262136546133
 42
0.2679482664650122
 10
-36.82470518665259
 20
-68.85262236546133
 10
-41.29265518665257
 20
-68.85261936546134
 42
0.2679491924309917
 10
-41.72566818665247
 20
-69.10261936546134
 42
-1.303223041600182
 10
-42.4086821866526
 20
-68.41960836546137
 42
0.2679482664649704
 10
-42.1586831866526
 20
-67.98659636546135
 10
-42.1586801866526
 20
-66.41872836546138
 42
0.2679491924309859
 10
-42.4086801866526
 20
-65.98571636546153
 42
-1.303223041600123
 10
-41.72566918665269
 20
-65.30270236546146
 42
0.2679482664650042
 10
-41.29265718665256
 20
-65.55270036546123
 10
-36.82470718665259
 20
-65.55270036546135
 42
0.2679491924310251
 10
-36.39169518665238
 20
-65.30270036546123
 42
-1.303223041600019
  0
LWPOLYLINE
  5
7E
100
AcDbEntity
  8
0
  6
ByLayer
 62
    0
370
   -1
100
AcDbPolyline
 90
   16
 70
    1
 43
0
 10
-20.52566918665253
 20
-69.10261936546134
 42
-1.303223041599934
 10
-21.2086831866526
 20
-68.41960836546137
 42
0.2679482664650009
 10
-20.9586841866526
 20
-67.98659636546135
 10
-20.95868118665261
 20
-66.41872836546138
 42
0.2679491924309904
 10
-21.20868118665261
 20
-65.98571636546141
 42
-1.303223041600149
 10
-20.52566918665276
 20
-65.30270236546146
 42
0.2679482664650257
 10
-20.09265718665257
 20
-65.55270036546135
 10
-15.62470818665259
 20
-65.55270036546135
 42
0.2679491924309972
 10
-15.19169518665253
 20
-65.30270036546135
 42
-1.303223041600145
 10
-14.50868118665256
 20
-65.98571236546137
 42
0.2679482664650092
 10
-14.75867918665257
 20
-66.41872436546133
 10
-14.75868218665256
 20
-67.98659436546136
 42
0.2679491924309783
 10
-14.50868218665256
 20
-68.41960736546137
 42
-1.303223041599885
 10
-15.19169418665252
 20
-69.10262136546133
 42
0.2679482664650028
 10
-15.6247061866526
 20
-68.85262236546133
 10
-20.09265618665257
 20
-68.85261936546134
 42
0.2679491924309608
  0
LWPOLYLINE
  5
7F
100
AcDbEntity
  8
0
  6
ByLayer
 62
    0
370
   -1
100
AcDbPolyline
 90
   16
 70
    1
 43
0
 10
117.5913138133475
 20
-68.41960836546137
 42
0.2679482664649976
 10
117.8413128133475
 20
-67.98659636546135
 10
117.8413158133475
 20
-66.41872836546138
 42
0.2679491924309923
 10
117.5913158133475
 20
-65.98571636546147
 42
-1.30322304160011
 10
118.2743278133474
 20
-65.30270236546134
 42
0.2679482664649833
 10
118.7073398133474
 20
-65.55270036546135
 10
123.1752888133474
 20
-65.55270036546135
 42
0.2679491924309865
 10
123.6083018133474
 20
-65.30270036546133
 42
-1.303223041600122
 10
124.2913158133474
 20
-65.98571236546141
 42
0.2679482664649961
 10
124.0413178133474
 20
-66.41872436546133
 10
124.0413148133474
 20
-67.98659436546136
 42
0.2679491924309759
 10
124.2913148133474
 20
-68.41960736546135
 42
-1.303223041599934
 10
123.6083028133474
 20
-69.10262136546133
 42
0.2679482664649983
 10
123.1752908133475
 20
-68.85262236546133
 10
118.7073408133474
 20
-68.85261936546134
 42
0.2679491924310215
 10
118.2743278133474
 20
-69.10261936546134
 42
-1.303223041600081
  0
LWPOLYLINE
  5
80
100
AcDbEntity
  8
0
  6
ByLayer
 62
    0
370
   -1
100
AcDbPolyline
 90
   16
 70
    1
 43
0
 10
144.8083028133474
 20
-69.10262136546133
 42
0.2679482664649978
 10
144.3752908133474
 20
-68.85262236546133
 10
139.9073408133474
 20
-68.85261936546135
 42
0.2679491924309941
 10
139.4743268133475
 20
-69.10261936546136
 42
-1.303223041599848
 10
138.7913128133474
 20
-68.4196083654614
 42
0.267948266465009
 10
139.0413118133474
 20
-67.98659636546135
 10
139.0413148133474
 20
-66.41872836546138
 42
0.2679491924309954
 10
138.7913148133474
 20
-65.98571636546141
 42
-1.303223041600195
 10
139.4743268133473
 20
-65.30270236546146
 42
0.2679482664650223
 10
139.9073388133475
 20
-65.55270036546135
 10
144.3752888133474
 20
-65.55270036546133
 42
0.2679491924310141
 10
144.8083008133474
 20
-65.30270036546135
 42
-1.303223041599919
 10
145.4913148133475
 20
-65.9857123654613
 42
0.2679482664649692
 10
145.2413168133475
 20
-66.41872436546133
 10
145.2413138133475
 20
-67.98659436546136
 42
0.2679491924309973
 10
145.4913138133475
 20
-68.41960736546149
 42
-1.303223041599988
  0
LWPOLYLINE
  5
81
100
AcDbEntity
  8
0
  6
ByLayer
 62
    0
370
   -1
100
AcDbPolyline
 90
   16
 70
    1
 43
0
 10
244.2912558133474
 20
-68.41956836546139
 42
-0.2679482664649994
 10
244.0412578133474
 20
-67.98655636546134
 10
244.0412548133475
 20
-66.41868636546137
 42
-0.2679491924309828
 10
244.2912548133475
 20
-65.98567336546107
 42
1.3032230415999
 10
243.6082428133475
 20
-65.30265936546122
 42
-0.2679482664649595
 10
243.1752308133474
 20
-65.55265736546134
 10
238.7072808133474
 20
-65.55266036546122
 42
-0.2679491924309546
 10
238.2742678133476
 20
-65.30266036546116
 42
1.303223041599954
 10
237.5912538133474
 20
-65.98567236546147
 42
-0.2679482664650841
 10
237.8412528133475
 20
-66.41868436546137
 10
237.8412558133474
 20
-67.98655136546135
 42
-0.2679491924309624
 10
237.5912558133474
 20
-68.41956536546128
 42
1.303223029820095
 10
238.2742678133474
 20
-69.10257936546125
 42
-0.2679482664650064
 10
238.7072798133474
 20
-68.85258036546131
 10
243.1752288133474
 20
-68.85258036546131
 42
-0.2679491924310134
 10
243.6082418133475
 20
-69.10258036546129
 42
1.303223041600045
  0
LWPOLYLINE
  5
82
100
AcDbEntity
  8
0
  6
ByLayer
 62
    0
370
   -1
100
AcDbPolyline
 90
   16
 70
    1
 43
0
 10
264.3752288133475
 20
-68.85258036546132
 42
-0.2679491924309741
 10
264.8082408133474
 20
-69.10258036546135
 42
1.303223041600131
 10
265.4912548133474
 20
-68.41956836546139
 42
-0.2679482664649846
 10
265.2412568133476
 20
-67.98655636546134
 10
265.2412538133474
 20
-66.41868636546137
 42
-0.2679491924309442
 10
265.4912538133474
 20
-65.98567336546128
 42
1.303223041600276
 10
264.8082428133474
 20
-65.30265936546132
 42
-0.2679482664649226
 10
264.3752308133475
 20
-65.55265736546122
 10
259.9072808133475
 20
-65.55266036546134
 42
-0.267949192431012
 10
259.4742668133474
 20
-65.30266036546136
 42
1.303223041600132
 10
258.7912528133475
 20
-65.98567236546155
 42
-0.2679482664649427
 10
259.0412518133473
 20
-66.41868436546137
 10
259.0412548133475
 20
-67.98655136546135
 42
-0.26794919243097
 10
258.7912548133475
 20
-68.41956536546137
 42
1.303223041599761
 10
259.4742668133473
 20
-69.10257936546131
 42
-0.2679482664650211
 10
259.9072788133475
 20
-68.85258036546131
  0
LWPOLYLINE
  5
83
100
AcDbEntity
  8
0
  6
ByLayer
 62
    0
370
   -1
100
AcDbPolyline
 90
   16
 70
    1
 43
0
 10
314.3752958133474
 20
-385.5476993654614
 42
0.2679491924309708
 10
314.8083088133475
 20
-385.2976993654614
 42
-1.303223041600295
 10
315.4913228133474
 20
-385.9807113654613
 42
0.2679482664650337
 10
315.2413248133474
 20
-386.4137233654614
 10
315.2413218133474
 20
-387.9815933654614
 42
0.2679491924310353
 10
315.4913218133474
 20
-388.4146073654616
 42
-1.303223041599324
 10
314.8083098133474
 20
-389.0976213654615
 42
0.2679482664650028
 10
314.3752978133474
 20
-388.8476223654613
 10
309.9073478133474
 20
-388.8476193654614
 42
0.2679491924309851
 10
309.4743348133476
 20
-389.0976193654614
 42
-1.303223041600154
 10
308.7913208133474
 20
-388.4146073654613
 42
0.2679482664660005
 10
309.0413198133475
 20
-387.9815953654614
 10
309.0413228133474
 20
-386.4137283654613
 42
0.2679491924310458
 10
308.7913228133474
 20
-385.9807153654614
 42
-1.303223041599791
 10
309.4743348133476
 20
-385.2977013654614
 42
0.2679482664650023
 10
309.9073468133474
 20
-385.5476993654614
  0
LWPOLYLINE
  5
84
100
AcDbEntity
  8
0
  6
ByLayer
 62
    0
370
   -1
100
AcDbPolyline
 90
   63
 70
    0
 43
0
 10
326.5413228133474
 20
-17.37766136546132
 10
326.5413228133474
 20
2.622334634538629
 42
0.4142137003890044
 10
321.5413228133474
 20
7.622329634538644
 10
270.1913228133475
 20
7.622329634538652
 42
-0.3419984508480001
 10
262.4453558133474
 20
1.622335634538635
 10
-30.71271218665255
 20
1.622333634538633
 42
-0.3419983241319998
 10
-38.4586621866526
 20
7.622329634538645
 10
-53.45867818665256
 20
7.622329634538643
 10
-53.45867818665256
 20
-2.377660365461325
 10
-51.22465818665258
 20
-2.377660365461325
 42
0.2679491924309955
 10
-50.79164518665255
 20
-2.127660365461328
 42
-1.303223041599759
 10
-50.1086311866526
 20
-2.810672365461571
 42
0.2679482664650015
 10
-50.35862918665261
 20
-3.243684365461363
 10
-50.3586321866526
 20
-26.60265636546136
 10
-47.35866118665258
 20
-26.60265636546136
 10
-47.35866118665258
 20
-25.32766136546137
 10
-43.3586321866526
 20
-25.32766136546137
 10
-43.3586321866526
 20
-26.60265636546136
 10
-40.3586321866526
 20
-26.60265636546136
 10
-40.3586321866526
 20
-29.80266736546137
 10
-43.3586321866526
 20
-29.80266736546137
 10
-43.3586321866526
 20
-31.07766136546137
 10
-47.35866118665258
 20
-31.07766136546137
 10
-47.35866118665258
 20
-29.80266736546137
 10
-50.3586321866526
 20
-29.80266736546137
 10
-50.3586321866526
 20
-53.16163736546137
 42
0.2679491924310038
 10
-50.1086321866526
 20
-53.59465136546134
 42
-1.303223041599986
 10
-50.7916441866525
 20
-54.27766536546135
 42
0.2679482664650179
 10
-51.22465618665258
 20
-54.02766636546134
 10
-53.45867818665256
 20
-54.02766336546135
 10
-53.45867818665256
 20
-330.7276623654614
 10
-51.22465818665258
 20
-330.7276623654614
 42
0.267949192430946
 10
-50.79164518665255
 20
-330.4776623654614
 42
-1.303223041600044
 10
-50.10863118665257
 20
-331.1606743654614
 42
0.267948266464986
 10
-50.35862918665261
 20
-331.5936863654614
 10
-50.3586321866526
 20
-354.9526583654614
 10
-47.35866118665258
 20
-354.9526583654614
 10
-47.35866118665258
 20
-353.6776643654614
 10
-43.3586321866526
 20
-353.6776643654614
 10
-43.3586321866526
 20
-354.9526583654614
 10
-40.3586321866526
 20
-354.9526583654614
 10
-40.3586321866526
 20
-358.1526693654613
 10
-43.3586321866526
 20
-358.1526693654613
 10
-43.3586321866526
 20
-359.4276643654614
 10
-47.35866118665258
 20
-359.4276643654614
 10
-47.35866118665258
 20
-358.1526693654613
 10
-50.3586321866526
 20
-358.1526693654613
 10
-50.3586321866526
 20
-381.5116393654613
 42
0.2679491924310075
 10
-50.1086321866526
 20
-381.9446533654614
 42
-1.30322304159995
 10
-50.79164418665253
 20
-382.6276673654614
 42
0.2679482664650243
 10
-51.22465618665258
 20
-382.3776683654614
 10
-53.45867818665256
 20
-382.3776653654614
 10
-53.45867818665256
 20
-392.3776553654614
 10
-38.45866318665266
 20
-392.3776553654614
 42
-0.3419983241320019
 10
-30.71271218665255
 20
-386.3776753654614
 10
262.4453558133474
 20
-386.3776583654613
 42
-0.3419984508480038
 10
270.1913228133475
 20
-392.3776553654614
 10
321.5413228133474
 20
-392.3776553654614
 42
0.4142137003890055
 10
326.5413228133474
 20
-387.3776603654613
 10
326.5413228133474
 20
-367.3776643654613
 10
324.5413228133474
 20
-365.3776603654613
 10
324.5414618133474
 20
-19.37752836546137
 10
326.5414618133474
 20
-17.37752436546133
  0
LWPOLYLINE
  5
85
100
AcDbEntity
  8
0
  6
ByLayer
 62
    0
370
   -1
100
AcDbPolyline
 90
    2
 70
    0
 43
0
 10
-53.45867818665256
 20
-330.7276623654614
 10
-53.45867818665256
 20
-330.7187503654613
  0
LWPOLYLINE
  5
86
100
AcDbEntity
  8
0
  6
ByLayer
 62
    0
370
   -1
100
AcDbPolyline
 90
   16
 70
    1
 43
0
 10
308.5413218133474
 20
-185.6517523654614
 42
0.2914636959410068
 10
307.3866228133475
 20
-183.8391673654613
 10
294.5715758133474
 20
-177.8628543654614
 42
-0.2914637668749934
 10
293.4168778133476
 20
-176.0502673654614
 10
293.4169018133474
 20
-80.37766036546132
 42
0.4135115436419985
 10
285.4361038133475
 20
-72.37766036546132
 10
4.54131981334739
 20
-72.37766036546132
 42
0.4142134452329966
 10
-3.458679186652498
 20
-80.37766236546138
 10
-3.458666186652642
 20
-304.3776633654613
 42
0.4142134449210034
 10
4.541319813347394
 20
-312.3776513654614
 10
285.4360478133474
 20
-312.3776633654613
 42
0.4135115436420043
 10
293.4168458133474
 20
-304.3776633654613
 10
293.4168698133475
 20
-208.6066253654614
 42
-0.2930389507939934
 10
294.5821048133474
 20
-206.7891633654613
 10
307.3760858133475
 20
-200.9128583654614
 42
0.2930390217879946
 10
308.5413218133472
 20
-199.0953963654614
  0
CIRCLE
  5
87
100
AcDbEntity
  8
0
  6
ByLayer
 62
    0
370
   -1
100
AcDbCircle
 10
251.5412548133475
 20
-317.5526183654613
 40
1.6
  0
CIRCLE
  5
88
100
AcDbEntity
  8
0
  6
ByLayer
 62
    0
370
   -1
100
AcDbCircle
 10
131.5413148133474
 20
-317.5526623654613
 40
1.6
  0
CIRCLE
  5
89
100
AcDbEntity
  8
0
  6
ByLayer
 62
    0
370
   -1
100
AcDbCircle
 10
301.5412518133475
 20
-46.59762036546134
 40
1.6
  0
CIRCLE
  5
8A
100
AcDbEntity
  8
0
  6
ByLayer
 62
    0
370
   -1
100
AcDbCircle
 10
301.5413418133475
 20
-128.8526213654613
 40
1.6
  0
CIRCLE
  5
8B
100
AcDbEntity
  8
0
  6
ByLayer
 62
    0
370
   -1
100
AcDbCircle
 10
301.5412448133475
 20
2.442379634538624
 40
1.6
  0
CIRCLE
  5
8C
100
AcDbEntity
  8
0
  6
ByLayer
 62
    0
370
   -1
100
AcDbCircle
 10
301.5413228133474
 20
-338.1576603654614
 40
1.6
  0
CIRCLE
  5
8D
100
AcDbEntity
  8
0
  6
ByLayer
 62
    0
370
   -1
100
AcDbCircle
 10
-28.45868118665261
 20
-171.1319663654614
 40
1.6
  0
CIRCLE
  5
8E
100
AcDbEntity
  8
0
  6
ByLayer
 62
    0
370
   -1
100
AcDbCircle
 10
274.8963148133474
 20
-22.07765936546137
 40
1.6
  0
CIRCLE
  5
8F
100
AcDbEntity
  8
0
  6
ByLayer
 62
    0
370
   -1
100
AcDbCircle
 10
301.5413228133474
 20
-387.1976613654614
 40
1.6
  0
CIRCLE
  5
90
100
AcDbEntity
  8
0
  6
ByLayer
 62
    0
370
   -1
100
AcDbCircle
 10
-28.45868118665261
 20
-67.20266136546137
 40
1.6
  0
CIRCLE
  5
91
100
AcDbEntity
  8
0
  6
ByLayer
 62
    0
370
   -1
100
AcDbCircle
 10
274.8963218133474
 20
-362.6776683654614
 40
1.6
  0
CIRCLE
  5
92
100
AcDbEntity
  8
0
  6
ByLayer
 62
    0
370
   -1
100
AcDbCircle
 10
-28.45868118665261
 20
-317.5526623654613
 40
1.6
  0
CIRCLE
  5
93
100
AcDbEntity
  8
0
  6
ByLayer
 62
    0
370
   -1
100
AcDbCircle
 10
251.5412548133475
 20
-67.20261936546136
 40
1.6
  0
CIRCLE
  5
94
100
AcDbEntity
  8
0
  6
ByLayer
 62
    0
370
   -1
100
AcDbCircle
 10
131.5413148133474
 20
-67.20266136546137
 40
1.6
  0
CIRCLE
  5
95
100
AcDbEntity
  8
0
  6
ByLayer
 62
    0
370
   -1
100
AcDbCircle
 10
-28.45868118665261
 20
-258.6594233654614
 40
1.6
  0
CIRCLE
  5
96
100
AcDbEntity
  8
0
  6
ByLayer
 62
    0
370
   -1
100
AcDbCircle
 10
301.5413208133474
 20
-255.9027033654613
 40
1.6
  0
CIRCLE
  5
97
100
AcDbEntity
  8
0
  6
ByLayer
 62
    0
370
   -1
100
AcDbCircle
 10
-28.45868118665261
 20
-128.6276923654614
 40
1.6
  0
CIRCLE
  5
98
100
AcDbEntity
  8
0
  6
ByLayer
 62
    0
370
   -1
100
AcDbCircle
 10
-28.45868118665261
 20
-213.6362413654614
 40
1.6
  0
ENDSEC
  0
SECTION
  2
OBJECTS
  0
DICTIONARY
  5
C
330
0
100
AcDbDictionary
281
    1
  3
ACAD_GROUP
350
D
  0
DICTIONARY
  5
D
330
C
100
AcDbDictionary
281
    1
  0
ENDSEC
  0
EOF
