999
dxfrw 0.6.3
  0
SECTION
  2
HEADER
  9
$ACADVER
  1
AC1021
  9
$DWGCODEPAGE
  3
ANSI_1252
  9
$INSBASE
 10
0
 20
0
 30
0
  9
$EXTMIN
 10
45.64802862023545
 20
17.17113476859321
 30
0
  9
$EXTMAX
 10
445.6480136202381
 20
397.1712747685933
 30
0
  9
$LIMMIN
 10
0
 20
0
  9
$LIMMAX
 10
420
 20
297
  9
$ORTHOMODE
 70
    0
  9
$REGENMODE
 70
    1
  9
$FILLMODE
 70
    1
  9
$QTEXTMODE
 70
    0
  9
$MIRRTEXT
 70
    0
  9
$LTSCALE
 40
1
  9
$ATTMODE
 70
    0
  9
$TEXTSIZE
 40
2.5
  9
$TRACEWID
 40
15.68
  9
$TEXTSTYLE
  7
STANDARD
  9
$CLAYER
  8
0
  9
$CELTYPE
  6
BYLAYER
  9
$CECOLOR
 62
  256
  9
$CELTSCALE
 40
1
  9
$DISPSILH
 70
    0
  9
$DIMSCALE
 40
2.5
  9
$DIMASZ
 40
2.5
  9
$DIMEXO
 40
0.625
  9
$DIMDLI
 40
3.75
  9
$DIMRND
 40
0
  9
$DIMDLE
 40
0
  9
$DIMEXE
 40
1.25
  9
$DIMTP
 40
0
  9
$DIMTM
 40
0
  9
$DIMTXT
 40
2.5
  9
$DIMCEN
 40
2.5
  9
$DIMTSZ
 40
0
  9
$DIMTOL
 70
    0
  9
$DIMLIM
 70
    0
  9
$DIMTIH
 70
    0
  9
$DIMTOH
 70
    0
  9
$DIMSE1
 70
    0
  9
$DIMSE2
 70
    0
  9
$DIMTAD
 70
    1
  9
$DIMZIN
 70
    8
  9
$DIMBLK
  1

  9
$DIMASO
 70
    1
  9
$DIMSHO
 70
    1
  9
$DIMPOST
  1

  9
$DIMAPOST
  1

  9
$DIMALT
 70
    0
  9
$DIMALTD
 70
    3
  9
$DIMALTF
 40
0.03937
  9
$DIMLFAC
 40
1
  9
$DIMTOFL
 70
    1
  9
$DIMTVP
 40
0
  9
$DIMTIX
 70
    0
  9
$DIMSOXD
 70
    0
  9
$DIMSAH
 70
    0
  9
$DIMBLK1
  1

  9
$DIMBLK2
  1

  9
$DIMSTYLE
  2
STANDARD
  9
$DIMCLRD
 70
    0
  9
$DIMCLRE
 70
    0
  9
$DIMCLRT
 70
    0
  9
$DIMTFAC
 40
1
  9
$DIMGAP
 40
0.625
  9
$DIMJUST
 70
    0
  9
$DIMSD1
 70
    0
  9
$DIMSD2
 70
    0
  9
$DIMTOLJ
 70
    0
  9
$DIMTZIN
 70
    8
  9
$DIMALTZ
 70
    0
  9
$DIMALTTZ
 70
    0
  9
$DIMUPT
 70
    0
  9
$DIMDEC
 70
    2
  9
$DIMTDEC
 70
    2
  9
$DIMALTU
 70
    2
  9
$DIMALTTD
 70
    3
  9
$DIMTXSTY
  7
standard
  9
$DIMAUNIT
 70
    0
  9
$DIMADEC
 70
    0
  9
$DIMALTRND
 40
0
  9
$DIMAZIN
 70
    0
  9
$DIMDSEP
 70
   44
  9
$DIMATFIT
 70
    3
  9
$DIMFRAC
 70
    0
  9
$DIMLDRBLK
  1
STANDARD
  9
$DIMLUNIT
 70
    2
  9
$DIMLWD
 70
   -2
  9
$DIMLWE
 70
   -2
  9
$DIMTMOVE
 70
    0
  9
$DIMFXL
 40
1
  9
$DIMFXLON
 70
    0
  9
$DIMJOGANG
 40
0.7854
  9
$DIMTFILL
 70
    0
  9
$DIMTFILLCLR
 70
    0
  9
$DIMARCSYM
 70
    0
  9
$DIMLTYPE
  6

  9
$DIMLTEX1
  6

  9
$DIMLTEX2
  6

  9
$LUNITS
 70
    2
  9
$LUPREC
 70
    4
  9
$SKETCHINC
 40
1
  9
$FILLETRAD
 40
0
  9
$AUNITS
 70
    0
  9
$AUPREC
 70
    2
  9
$MENU
  1
.
  9
$ELEVATION
 40
0
  9
$PELEVATION
 40
0
  9
$THICKNESS
 40
0
  9
$LIMCHECK
 70
    0
  9
$CHAMFERA
 40
0
  9
$CHAMFERB
 40
0
  9
$CHAMFERC
 40
0
  9
$CHAMFERD
 40
0
  9
$SKPOLY
 70
    0
  9
$USRTIMER
 70
    1
  9
$ANGBASE
 50
0
  9
$ANGDIR
 70
    0
  9
$PDMODE
 70
   34
  9
$PDSIZE
 40
0
  9
$PLINEWID
 40
0
  9
$SPLFRAME
 70
    0
  9
$SPLINETYPE
 70
    2
  9
$SPLINESEGS
 70
    8
  9
$HANDSEED
  5
20000
  9
$SURFTAB1
 70
    6
  9
$SURFTAB2
 70
    6
  9
$SURFTYPE
 70
    6
  9
$SURFU
 70
    6
  9
$SURFV
 70
    6
  9
$UCSBASE
  2

  9
$UCSNAME
  2

  9
$UCSORG
 10
0
 20
0
 30
0
  9
$UCSXDIR
 10
1
 20
0
 30
0
  9
$UCSYDIR
 10
0
 20
1
 30
0
  9
$UCSORTHOREF
  2

  9
$UCSORTHOVIEW
 70
    0
  9
$UCSORGTOP
 10
0
 20
0
 30
0
  9
$UCSORGBOTTOM
 10
0
 20
0
 30
0
  9
$UCSORGLEFT
 10
0
 20
0
 30
0
  9
$UCSORGRIGHT
 10
0
 20
0
 30
0
  9
$UCSORGFRONT
 10
0
 20
0
 30
0
  9
$UCSORGBACK
 10
0
 20
0
 30
0
  9
$PUCSBASE
  2

  9
$PUCSNAME
  2

  9
$PUCSORG
 10
0
 20
0
 30
0
  9
$PUCSXDIR
 10
1
 20
0
 30
0
  9
$PUCSYDIR
 10
0
 20
1
 30
0
  9
$PUCSORTHOREF
  2

  9
$PUCSORTHOVIEW
 70
    0
  9
$PUCSORGTOP
 10
0
 20
0
 30
0
  9
$PUCSORGBOTTOM
 10
0
 20
0
 30
0
  9
$PUCSORGLEFT
 10
0
 20
0
 30
0
  9
$PUCSORGRIGHT
 10
0
 20
0
 30
0
  9
$PUCSORGFRONT
 10
0
 20
0
 30
0
  9
$PUCSORGBACK
 10
0
 20
0
 30
0
  9
$USERI1
 70
    0
  9
$USERI2
 70
    0
  9
$USERI3
 70
    0
  9
$USERI4
 70
    0
  9
$USERI5
 70
    0
  9
$USERR1
 40
0
  9
$USERR2
 40
0
  9
$USERR3
 40
0
  9
$USERR4
 40
0
  9
$USERR5
 40
0
  9
$WORLDVIEW
 70
    1
  9
$SHADEDGE
 70
    3
  9
$SHADEDIF
 70
   70
  9
$TILEMODE
 70
    1
  9
$MAXACTVP
 70
   64
  9
$PINSBASE
 10
0
 20
0
 30
0
  9
$PLIMCHECK
 70
    0
  9
$PEXTMIN
 10
0
 20
0
 30
0
  9
$PEXTMAX
 10
0
 20
0
 30
0
  9
$GRIDMODE
 70
    1
  9
$SNAPSTYLE
 70
    0
  9
$GRIDUNIT
 10
0
 20
0
  9
$PLIMMIN
 10
0
 20
0
  9
$PLIMMAX
 10
1189
 20
841
  9
$UNITMODE
 70
    0
  9
$VISRETAIN
 70
    1
  9
$PLINEGEN
 70
    0
  9
$PSLTSCALE
 70
    1
  9
$TREEDEPTH
 70
 3020
  9
$CMLSTYLE
  2
Standard
  9
$CMLJUST
 70
    0
  9
$CMLSCALE
 40
20
  9
$PROXYGRAPHICS
 70
    1
  9
$MEASUREMENT
 70
    1
  9
$CELWEIGHT
370
   -1
  9
$ENDCAPS
280
    0
  9
$JOINSTYLE
280
    0
  9
$LWDISPLAY
290
    0
  9
$INSUNITS
 70
    0
  9
$HYPERLINKBASE
  1

  9
$STYLESHEET
  1

  9
$XEDIT
290
    1
  9
$CEPSNTYPE
380
    0
  9
$PSTYLEMODE
290
    1
  9
$EXTNAMES
290
    1
  9
$PSVPSCALE
 40
1
  9
$OLESTARTUP
290
    0
  9
$SORTENTS
280
  127
  9
$INDEXCTL
280
    0
  9
$HIDETEXT
280
    1
  9
$XCLIPFRAME
290
    0
  9
$HALOGAP
280
    0
  9
$OBSCOLOR
 70
  257
  9
$OBSLTYPE
280
    0
  9
$INTERSECTIONDISPLAY
280
    0
  9
$INTERSECTIONCOLOR
 70
  257
  9
$DIMASSOC
280
    1
  9
$PROJECTNAME
  1

  9
$CAMERADISPLAY
290
    0
  9
$LENSLENGTH
 40
50
  9
$CAMERAHEIGHT
 40
0
  9
$STEPSPERSEC
 40
2
  9
$STEPSIZE
 40
50
  9
$3DDWFPREC
 40
2
  9
$PSOLWIDTH
 40
5
  9
$PSOLHEIGHT
 40
80
  9
$LOFTANG1
 40
1.570796326794897
  9
$LOFTANG2
 40
1.570796326794897
  9
$LOFTMAG1
 40
0
  9
$LOFTMAG2
 40
0
  9
$LOFTPARAM
 70
    7
  9
$LOFTNORMALS
280
    1
  9
$LATITUDE
 40
1
  9
$LONGITUDE
 40
1
  9
$NORTHDIRECTION
 40
0
  9
$TIMEZONE
 70
-8000
  9
$LIGHTGLYPHDISPLAY
280
    1
  9
$TILEMODELIGHTSYNCH
280
    1
  9
$SOLIDHIST
280
    1
  9
$SHOWHIST
280
    1
  9
$DWFFRAME
280
    2
  9
$DGNFRAME
280
    0
  9
$REALWORLDSCALE
290
    1
  9
$INTERFERECOLOR
 62
    1
  9
$CSHADOW
280
    0
  9
$SHADOWPLANELOCATION
 40
0
  0
ENDSEC
  0
SECTION
  2
CLASSES
  0
ENDSEC
  0
SECTION
  2
TABLES
  0
TABLE
  2
VPORT
  5
8
330
0
100
AcDbSymbolTable
 70
    1
  0
VPORT
  5
31
330
2
100
AcDbSymbolTableRecord
100
AcDbViewportTableRecord
  2
*ACTIVE
 70
    0
 10
0
 20
0
 11
1
 21
1
 12
137.5432820126864
 22
49.89044898656562
 13
0
 23
0
 14
10
 24
10
 15
10
 25
10
 16
0
 26
0
 36
1
 17
0
 27
0
 37
0
 40
98.54052769445971
 41
1.853146853146853
 42
50
 43
0
 44
0
 50
0
 51
0
 71
    0
 72
  100
 73
    1
 74
    3
 75
    0
 76
    1
 77
    0
 78
    0
281
    0
 65
    1
110
0
120
0
130
0
111
1
121
0
131
0
112
0
122
1
132
0
 79
    0
146
0
348
10020
 60
    7
 61
    5
292
1
282
    1
141
0
142
0
 63
  250
421
3358443
  0
ENDTAB
  0
TABLE
  2
LTYPE
  5
5
330
0
100
AcDbSymbolTable
 70
    4
  0
LTYPE
  5
14
330
5
100
AcDbSymbolTableRecord
100
AcDbLinetypeTableRecord
  2
ByBlock
 70
    0
  3

 72
   65
 73
    0
 40
0
  0
LTYPE
  5
15
330
5
100
AcDbSymbolTableRecord
100
AcDbLinetypeTableRecord
  2
ByLayer
 70
    0
  3

 72
   65
 73
    0
 40
0
  0
LTYPE
  5
16
330
5
100
AcDbSymbolTableRecord
100
AcDbLinetypeTableRecord
  2
Continuous
 70
    0
  3
Solid line
 72
   65
 73
    0
 40
0
  0
LTYPE
  5
32
330
5
100
AcDbSymbolTableRecord
100
AcDbLinetypeTableRecord
  2
DOT
 70
    0
  3
Dot . . . . . . . . . . . . . . . . . . . . . .
 72
   65
 73
    2
 40
6.35
 49
0
 74
    0
 49
-6.35
 74
    0
  0
LTYPE
  5
33
330
5
100
AcDbSymbolTableRecord
100
AcDbLinetypeTableRecord
  2
DOTTINY
 70
    0
  3
Dot (.15x) .....................................
 72
   65
 73
    2
 40
0.9525
 49
0
 74
    0
 49
-0.9525
 74
    0
  0
LTYPE
  5
34
330
5
100
AcDbSymbolTableRecord
100
AcDbLinetypeTableRecord
  2
DOT2
 70
    0
  3
Dot (.5x) .....................................
 72
   65
 73
    2
 40
3.175
 49
0
 74
    0
 49
-3.175
 74
    0
  0
LTYPE
  5
35
330
5
100
AcDbSymbolTableRecord
100
AcDbLinetypeTableRecord
  2
DOTX2
 70
    0
  3
Dot (2x) .  .  .  .  .  .  .  .  .  .  .  .  .
 72
   65
 73
    2
 40
12.7
 49
0
 74
    0
 49
-12.7
 74
    0
  0
LTYPE
  5
36
330
5
100
AcDbSymbolTableRecord
100
AcDbLinetypeTableRecord
  2
DASHED
 70
    0
  3
Dashed _ _ _ _ _ _ _ _ _ _ _ _ _ _ _ _ _
 72
   65
 73
    2
 40
19.05
 49
12.7
 74
    0
 49
-6.35
 74
    0
  0
LTYPE
  5
37
330
5
100
AcDbSymbolTableRecord
100
AcDbLinetypeTableRecord
  2
DASHEDTINY
 70
    0
  3
Dashed (.15x) _ _ _ _ _ _ _ _ _ _ _ _ _ _ _ _ _
 72
   65
 73
    2
 40
2.8575
 49
1.905
 74
    0
 49
-0.9525
 74
    0
  0
LTYPE
  5
38
330
5
100
AcDbSymbolTableRecord
100
AcDbLinetypeTableRecord
  2
DASHED2
 70
    0
  3
Dashed (.5x) _ _ _ _ _ _ _ _ _ _ _ _ _ _ _ _ _
 72
   65
 73
    2
 40
9.524999999999999
 49
6.35
 74
    0
 49
-3.175
 74
    0
  0
LTYPE
  5
39
330
5
100
AcDbSymbolTableRecord
100
AcDbLinetypeTableRecord
  2
DASHEDX2
 70
    0
  3
Dashed (2x) ____  ____  ____  ____  ____  ___
 72
   65
 73
    2
 40
38.09999999999999
 49
25.4
 74
    0
 49
-12.7
 74
    0
  0
LTYPE
  5
3A
330
5
100
AcDbSymbolTableRecord
100
AcDbLinetypeTableRecord
  2
DASHDOT
 70
    0
  3
Dash dot __ . __ . __ . __ . __ . __ . __ . __
 72
   65
 73
    4
 40
25.4
 49
12.7
 74
    0
 49
-6.35
 74
    0
 49
0
 74
    0
 49
-6.35
 74
    0
  0
LTYPE
  5
3B
330
5
100
AcDbSymbolTableRecord
100
AcDbLinetypeTableRecord
  2
DASHDOTTINY
 70
    0
  3
Dash dot (.15x) _._._._._._._._._._._._._._._.
 72
   65
 73
    4
 40
3.81
 49
1.905
 74
    0
 49
-0.9525
 74
    0
 49
0
 74
    0
 49
-0.9525
 74
    0
  0
LTYPE
  5
3C
330
5
100
AcDbSymbolTableRecord
100
AcDbLinetypeTableRecord
  2
DASHDOT2
 70
    0
  3
Dash dot (.5x) _._._._._._._._._._._._._._._.
 72
   65
 73
    4
 40
12.7
 49
6.35
 74
    0
 49
-3.175
 74
    0
 49
0
 74
    0
 49
-3.175
 74
    0
  0
LTYPE
  5
3D
330
5
100
AcDbSymbolTableRecord
100
AcDbLinetypeTableRecord
  2
DASHDOTX2
 70
    0
  3
Dash dot (2x) ____  .  ____  .  ____  .  ___
 72
   65
 73
    4
 40
50.8
 49
25.4
 74
    0
 49
-12.7
 74
    0
 49
0
 74
    0
 49
-12.7
 74
    0
  0
LTYPE
  5
3E
330
5
100
AcDbSymbolTableRecord
100
AcDbLinetypeTableRecord
  2
DIVIDE
 70
    0
  3
Divide ____ . . ____ . . ____ . . ____ . . ____
 72
   65
 73
    6
 40
31.75
 49
12.7
 74
    0
 49
-6.35
 74
    0
 49
0
 74
    0
 49
-6.35
 74
    0
 49
0
 74
    0
 49
-6.35
 74
    0
  0
LTYPE
  5
3F
330
5
100
AcDbSymbolTableRecord
100
AcDbLinetypeTableRecord
  2
DIVIDETINY
 70
    0
  3
Divide (.15x) __..__..__..__..__..__..__..__.._
 72
   65
 73
    6
 40
4.7625
 49
1.905
 74
    0
 49
-0.9525
 74
    0
 49
0
 74
    0
 49
-0.9525
 74
    0
 49
0
 74
    0
 49
-0.9525
 74
    0
  0
LTYPE
  5
40
330
5
100
AcDbSymbolTableRecord
100
AcDbLinetypeTableRecord
  2
DIVIDE2
 70
    0
  3
Divide (.5x) __..__..__..__..__..__..__..__.._
 72
   65
 73
    6
 40
15.875
 49
6.35
 74
    0
 49
-3.175
 74
    0
 49
0
 74
    0
 49
-3.175
 74
    0
 49
0
 74
    0
 49
-3.175
 74
    0
  0
LTYPE
  5
41
330
5
100
AcDbSymbolTableRecord
100
AcDbLinetypeTableRecord
  2
DIVIDEX2
 70
    0
  3
Divide (2x) ________  .  .  ________  .  .  _
 72
   65
 73
    6
 40
63.5
 49
25.4
 74
    0
 49
-12.7
 74
    0
 49
0
 74
    0
 49
-12.7
 74
    0
 49
0
 74
    0
 49
-12.7
 74
    0
  0
LTYPE
  5
42
330
5
100
AcDbSymbolTableRecord
100
AcDbLinetypeTableRecord
  2
BORDER
 70
    0
  3
Border __ __ . __ __ . __ __ . __ __ . __ __ .
 72
   65
 73
    6
 40
44.45
 49
12.7
 74
    0
 49
-6.35
 74
    0
 49
12.7
 74
    0
 49
-6.35
 74
    0
 49
0
 74
    0
 49
-6.35
 74
    0
  0
LTYPE
  5
43
330
5
100
AcDbSymbolTableRecord
100
AcDbLinetypeTableRecord
  2
BORDERTINY
 70
    0
  3
Border (.15x) __.__.__.__.__.__.__.__.__.__.__.
 72
   65
 73
    6
 40
6.6675
 49
1.905
 74
    0
 49
-0.9525
 74
    0
 49
1.905
 74
    0
 49
-0.9525
 74
    0
 49
0
 74
    0
 49
-0.9525
 74
    0
  0
LTYPE
  5
44
330
5
100
AcDbSymbolTableRecord
100
AcDbLinetypeTableRecord
  2
BORDER2
 70
    0
  3
Border (.5x) __.__.__.__.__.__.__.__.__.__.__.
 72
   65
 73
    6
 40
22.225
 49
6.35
 74
    0
 49
-3.175
 74
    0
 49
6.35
 74
    0
 49
-3.175
 74
    0
 49
0
 74
    0
 49
-3.175
 74
    0
  0
LTYPE
  5
45
330
5
100
AcDbSymbolTableRecord
100
AcDbLinetypeTableRecord
  2
BORDERX2
 70
    0
  3
Border (2x) ____  ____  .  ____  ____  .  ___
 72
   65
 73
    6
 40
88.89999999999999
 49
25.4
 74
    0
 49
-12.7
 74
    0
 49
25.4
 74
    0
 49
-12.7
 74
    0
 49
0
 74
    0
 49
-12.7
 74
    0
  0
LTYPE
  5
46
330
5
100
AcDbSymbolTableRecord
100
AcDbLinetypeTableRecord
  2
CENTER
 70
    0
  3
Center ____ _ ____ _ ____ _ ____ _ ____ _ ____
 72
   65
 73
    4
 40
50.8
 49
31.75
 74
    0
 49
-6.35
 74
    0
 49
6.35
 74
    0
 49
-6.35
 74
    0
  0
LTYPE
  5
47
330
5
100
AcDbSymbolTableRecord
100
AcDbLinetypeTableRecord
  2
CENTERTINY
 70
    0
  3
Center (.15x) ___ _ ___ _ ___ _ ___ _ ___ _ ___
 72
   65
 73
    4
 40
7.619999999999999
 49
4.7625
 74
    0
 49
-0.9525
 74
    0
 49
0.9525
 74
    0
 49
-0.9525
 74
    0
  0
LTYPE
  5
48
330
5
100
AcDbSymbolTableRecord
100
AcDbLinetypeTableRecord
  2
CENTER2
 70
    0
  3
Center (.5x) ___ _ ___ _ ___ _ ___ _ ___ _ ___
 72
   65
 73
    4
 40
28.575
 49
19.05
 74
    0
 49
-3.175
 74
    0
 49
3.175
 74
    0
 49
-3.175
 74
    0
  0
LTYPE
  5
49
330
5
100
AcDbSymbolTableRecord
100
AcDbLinetypeTableRecord
  2
CENTERX2
 70
    0
  3
Center (2x) ________  __  ________  __  _____
 72
   65
 73
    4
 40
101.6
 49
63.5
 74
    0
 49
-12.7
 74
    0
 49
12.7
 74
    0
 49
-12.7
 74
    0
  0
ENDTAB
  0
TABLE
  2
LAYER
  5
2
330
0
100
AcDbSymbolTable
 70
    1
  0
LAYER
  5
10
330
2
100
AcDbSymbolTableRecord
100
AcDbLayerTableRecord
  2
0
 70
    0
 62
    7
  6
CONTINUOUS
370
   -3
390
F
  0
ENDTAB
  0
TABLE
  2
STYLE
  5
3
330
0
100
AcDbSymbolTable
 70
    3
  0
STYLE
  5
4A
330
2
100
AcDbSymbolTableRecord
100
AcDbTextStyleTableRecord
  2
Standard
 70
    0
 40
0
 41
1
 50
0
 71
    0
 42
1
  3
txt
  4

  0
ENDTAB
  0
TABLE
  2
VIEW
  5
6
330
0
100
AcDbSymbolTable
 70
    0
  0
ENDTAB
  0
TABLE
  2
UCS
  5
7
330
0
100
AcDbSymbolTable
 70
    0
  0
ENDTAB
  0
TABLE
  2
APPID
  5
9
330
0
100
AcDbSymbolTable
 70
    1
  0
APPID
  5
12
330
9
100
AcDbSymbolTableRecord
100
AcDbRegAppTableRecord
  2
ACAD
 70
    0
  0
APPID
  5
4B
330
9
100
AcDbSymbolTableRecord
100
AcDbRegAppTableRecord
  2
LibreCad
 70
    0
  0
ENDTAB
  0
TABLE
  2
DIMSTYLE
  5
A
330
0
100
AcDbSymbolTable
 70
    1
100
AcDbDimStyleTable
 71
    1
  0
DIMSTYLE
105
4C
330
A
100
AcDbSymbolTableRecord
100
AcDbDimStyleTableRecord
  2
Standard
 70
    0
 40
2.5
 41
2.5
 42
0.625
 43
0.38
 44
1.25
 45
0
 46
0
 47
0
 48
0
 49
1
140
2.5
141
0.09
142
0
143
25.4
144
1
145
0
146
1
147
0.625
148
0
 71
    0
 72
    0
 73
    0
 74
    1
 75
    0
 76
    0
 77
    0
 78
    8
 79
    0
170
    0
171
    2
172
    0
173
    0
174
    0
175
    0
176
    0
177
    0
178
    0
179
    0
271
    2
272
    4
273
    2
274
    2
275
    0
276
    0
277
    2
278
   44
279
    0
280
    0
281
    0
282
    0
283
    1
284
    0
285
    0
286
    0
288
    0
289
    3
340
standard
341

371
   -2
372
   -2
  0
ENDTAB
  0
TABLE
  2
BLOCK_RECORD
  5
1
330
0
100
AcDbSymbolTable
 70
    2
  0
BLOCK_RECORD
  5
1F
330
1
100
AcDbSymbolTableRecord
100
AcDbBlockTableRecord
  2
*Model_Space
 70
    0
280
    1
281
    0
  0
BLOCK_RECORD
  5
1E
330
1
100
AcDbSymbolTableRecord
100
AcDbBlockTableRecord
  2
*Paper_Space
 70
    0
280
    1
281
    0
  0
ENDTAB
  0
ENDSEC
  0
SECTION
  2
BLOCKS
  0
BLOCK
  5
20
330
1F
100
AcDbEntity
  8
0
100
AcDbBlockBegin
  2
*Model_Space
 70
    0
 10
0
 20
0
 30
0
  3
*Model_Space
  1

  0
ENDBLK
  5
21
330
1F
100
AcDbEntity
  8
0
100
AcDbBlockEnd
  0
BLOCK
  5
1C
330
1B
100
AcDbEntity
  8
0
100
AcDbBlockBegin
  2
*Paper_Space
 70
    0
 10
0
 20
0
 30
0
  3
*Paper_Space
  1

  0
ENDBLK
  5
1D
330
1F
100
AcDbEntity
  8
0
100
AcDbBlockEnd
  0
ENDSEC
  0
SECTION
  2
ENTITIES
  0
LWPOLYLINE
  5
4D
100
AcDbEntity
  8
0
  6
ByLayer
 62
    0
370
   -1
100
AcDbPolyline
 90
    6
 70
    1
 43
0
 10
106.2196996202368
 20
134.5343467685933
 42
0.5773502691899851
 10
101.7196996202368
 20
137.1324227685932
 10
72.79269962023693
 20
120.4314117685932
 42
0.577350269189995
 10
72.79269962023682
 20
115.2352587685933
 10
101.7196996202368
 20
98.53424776859326
 42
0.5773502691899838
 10
106.2196996202368
 20
101.1323237685933
  0
LWPOLYLINE
  5
4E
100
AcDbEntity
  8
0
  6
ByLayer
 62
    0
370
   -1
100
AcDbPolyline
 90
    6
 70
    1
 43
0
 10
75.79269962023699
 20
148.5333017685933
 42
-0.5773502691899832
 10
71.29269962023693
 20
151.1313777685933
 10
71.29269962023693
 20
184.5334007685933
 42
-0.5773502691899965
 10
75.79269962023699
 20
187.1314767685932
 10
104.719699620237
 20
170.4304657685933
 42
-0.5773502691899959
 10
104.7196996202368
 20
165.2343127685933
  0
LWPOLYLINE
  5
4F
100
AcDbEntity
  8
0
  6
ByLayer
 62
    0
370
   -1
100
AcDbPolyline
 90
    6
 70
    1
 43
0
 10
106.2196996202368
 20
234.5343467685933
 42
0.5773502691899851
 10
101.7196996202368
 20
237.1324227685932
 10
72.79269962023699
 20
220.4314117685933
 42
0.5773502691899957
 10
72.79269962023682
 20
215.2352587685933
 10
101.7196996202368
 20
198.5342477685933
 42
0.5773502691899852
 10
106.2196996202368
 20
201.1323237685933
  0
LWPOLYLINE
  5
50
100
AcDbEntity
  8
0
  6
ByLayer
 62
    0
370
   -1
100
AcDbPolyline
 90
    6
 70
    1
 43
0
 10
75.79269962023699
 20
248.5333017685933
 42
-0.5773502691899921
 10
71.29269962023699
 20
251.1313777685934
 10
71.29269962023699
 20
284.5334007685933
 42
-0.5773502691899864
 10
75.79269962023699
 20
287.1314767685932
 10
104.7196996202368
 20
270.4304657685933
 42
-0.5773502691899939
 10
104.7196996202368
 20
265.2343127685934
  0
LWPOLYLINE
  5
51
100
AcDbEntity
  8
0
  6
ByLayer
 62
    0
370
   -1
100
AcDbPolyline
 90
    6
 70
    1
 43
0
 10
72.79269962023699
 20
320.4314117685933
 42
0.5773502691899939
 10
72.79269962023687
 20
315.2352587685934
 10
101.7196996202368
 20
298.5342477685933
 42
0.5773502691899856
 10
106.2196996202368
 20
301.1323237685934
 10
106.2196996202368
 20
334.5343467685933
 42
0.5773502691899864
 10
101.7196996202368
 20
337.1324227685932
  0
LWPOLYLINE
  5
52
100
AcDbEntity
  8
0
  6
ByLayer
 62
    0
370
   -1
100
AcDbPolyline
 90
    6
 70
    1
 43
0
 10
71.29269962023699
 20
364.8323897685933
 42
-0.4142135580070034
 10
74.29269962023699
 20
367.8323897685933
 10
98.02354762023685
 20
367.8323897685933
 42
-0.7673269938990095
 10
99.52354762023674
 20
362.2343137685934
 10
75.79269962023697
 20
348.5333017685933
 42
-0.577350269189987
 10
71.29269962023699
 20
351.1313777685934
  0
LWPOLYLINE
  5
53
100
AcDbEntity
  8
0
  6
ByLayer
 62
    0
370
   -1
100
AcDbPolyline
 90
    6
 70
    1
 43
0
 10
153.8393666202369
 20
362.3006637685933
 42
0.5773502691899897
 10
157.3467706202367
 20
362.3006637685933
 10
168.619952620237
 20
381.8263887685932
 42
0.5773502691900845
 10
166.8662516202369
 20
384.8638887685933
 10
144.3198856202368
 20
384.8638887685933
 42
0.5773502691900029
 10
142.566184620237
 20
381.8263887685933
  0
LWPOLYLINE
  5
54
100
AcDbEntity
  8
0
  6
ByLayer
 62
    0
370
   -1
100
AcDbPolyline
 90
    6
 70
    1
 43
0
 10
201.385750620237
 20
383.8513887685932
 42
-0.5773502691900152
 10
204.8931546202369
 20
383.8513887685932
 10
216.166336620237
 20
364.3256637685932
 42
-0.5773502691899879
 10
214.4126356202369
 20
361.2881637685933
 10
191.8662706202368
 20
361.2881637685933
 42
-0.5773502691900048
 10
190.1125686202369
 20
364.3256637685933
  0
LWPOLYLINE
  5
55
100
AcDbEntity
  8
0
  6
ByLayer
 62
    0
370
   -1
100
AcDbPolyline
 90
    6
 70
    1
 43
0
 10
243.8857316202369
 20
362.3006637685932
 42
0.5773502691899897
 10
247.3931356202369
 20
362.3006637685932
 10
258.6663176202369
 20
381.8263887685932
 42
0.5773502691900809
 10
256.9126166202369
 20
384.8638887685933
 10
234.366251620237
 20
384.8638887685932
 42
0.5773502691900738
 10
232.6125496202369
 20
381.8263887685932
  0
LWPOLYLINE
  5
56
100
AcDbEntity
  8
0
  6
ByLayer
 62
    0
370
   -1
100
AcDbPolyline
 90
    6
 70
    1
 43
0
 10
276.874819620237
 20
361.2881637685932
 42
-0.5773502691900037
 10
275.1211176202369
 20
364.3256637685932
 10
286.3942996202368
 20
383.8513887685932
 42
-0.5773502691899968
 10
289.9017036202371
 20
383.8513887685932
 10
301.174885620237
 20
364.3256637685932
 42
-0.5773502691899998
 10
299.4211846202368
 20
361.2881637685933
  0
LWPOLYLINE
  5
57
100
AcDbEntity
  8
0
  6
ByLayer
 62
    0
370
   -1
100
AcDbPolyline
 90
    6
 70
    1
 43
0
 10
319.3748006202367
 20
384.8638887685933
 42
0.5773502691900001
 10
317.6210986202371
 20
381.8263887685932
 10
328.8942806202368
 20
362.3006637685932
 42
0.577350269189985
 10
332.4016846202368
 20
362.3006637685932
 10
343.6748666202369
 20
381.8263887685932
 42
0.5773502691900193
 10
341.9211656202368
 20
384.8638887685933
  0
LWPOLYLINE
  5
58
100
AcDbEntity
  8
0
  6
ByLayer
 62
    0
370
   -1
100
AcDbPolyline
 90
    6
 70
    1
 43
0
 10
420.0033426202368
 20
364.8323897685932
 42
0.4142135580070033
 10
417.0033426202368
 20
367.8323897685932
 10
393.2724936202369
 20
367.8323897685932
 42
0.7673269938989929
 10
391.7724936202369
 20
362.2343137685932
 10
415.5033426202368
 20
348.5333017685932
 42
0.5773502691899962
 10
420.0033426202368
 20
351.1313777685932
  0
LWPOLYLINE
  5
59
100
AcDbEntity
  8
0
  6
ByLayer
 62
    0
370
   -1
100
AcDbPolyline
 90
    6
 70
    1
 43
0
 10
418.5033426202368
 20
320.4314117685932
 42
-0.5773502691899968
 10
418.5033426202368
 20
315.2352587685932
 10
389.5763426202369
 20
298.5342477685933
 42
-0.577350269189993
 10
385.0763426202369
 20
301.1323237685933
 10
385.0763426202368
 20
334.5343467685932
 42
-0.5773502691899922
 10
389.5763426202369
 20
337.1324227685932
  0
LWPOLYLINE
  5
5A
100
AcDbEntity
  8
0
  6
ByLayer
 62
    0
370
   -1
100
AcDbPolyline
 90
    6
 70
    1
 43
0
 10
415.5033426202369
 20
248.5332537685933
 42
0.5773502691899666
 10
420.0033426202368
 20
251.1313297685933
 10
420.0033426202368
 20
284.5333527685933
 42
0.5773502691899985
 10
415.5033426202368
 20
287.1314287685932
 10
386.5763426202369
 20
270.4304177685934
 42
0.5773502691899922
 10
386.5763426202369
 20
265.2342647685933
  0
LWPOLYLINE
  5
5B
100
AcDbEntity
  8
0
  6
ByLayer
 62
    0
370
   -1
100
AcDbPolyline
 90
    6
 70
    1
 43
0
 10
418.5033426202368
 20
220.4314117685932
 42
-0.5773502691899968
 10
418.5033426202368
 20
215.2352587685932
 10
389.5763426202368
 20
198.5342477685932
 42
-0.5773502691899843
 10
385.0763426202369
 20
201.1323237685932
 10
385.0763426202368
 20
234.5343467685932
 42
-0.5773502691899874
 10
389.5763426202369
 20
237.1324227685932
  0
LWPOLYLINE
  5
5C
100
AcDbEntity
  8
0
  6
ByLayer
 62
    0
370
   -1
100
AcDbPolyline
 90
    6
 70
    1
 43
0
 10
415.5033426202369
 20
148.5333017685932
 42
0.5773502691899843
 10
420.0033426202368
 20
151.1313777685932
 10
420.0033426202368
 20
184.5334007685932
 42
0.5773502691899962
 10
415.5033426202368
 20
187.1314767685932
 10
386.5763426202369
 20
170.4304657685932
 42
0.577350269189997
 10
386.5763426202369
 20
165.2343127685932
  0
LWPOLYLINE
  5
5D
100
AcDbEntity
  8
0
  6
ByLayer
 62
    0
370
   -1
100
AcDbPolyline
 90
    6
 70
    1
 43
0
 10
389.5763426202368
 20
98.53424776859322
 42
-0.5773502691899868
 10
385.0763426202369
 20
101.1323237685932
 10
385.0763426202369
 20
134.5343467685932
 42
-0.5773502691899962
 10
389.5763426202369
 20
137.1324227685932
 10
418.5033426202368
 20
120.4314117685932
 42
-0.577350269189998
 10
418.5033426202368
 20
115.2352587685932
  0
LWPOLYLINE
  5
5E
100
AcDbEntity
  8
0
  6
ByLayer
 62
    0
370
   -1
100
AcDbPolyline
 90
    4
 70
    1
 43
0
 10
351.6480196202368
 20
25.17127376859321
 10
359.6480206202368
 20
25.17127376859321
 42
1.000000051619134
 10
359.6480206202368
 20
33.17127476859309
 10
351.6480196202369
 20
33.17127376859321
 42
0.9999996154461811
  0
LWPOLYLINE
  5
5F
100
AcDbEntity
  8
0
  6
ByLayer
 62
    0
370
   -1
100
AcDbPolyline
 90
    4
 70
    1
 43
0
 10
419.6480206202368
 20
33.17127476859319
 10
411.6480196202369
 20
33.1712737685932
 42
0.9999996154461811
 10
411.6480196202368
 20
25.1712737685932
 10
419.6480206202368
 20
25.1712737685932
 42
1.000000051619134
  0
LWPOLYLINE
  5
60
100
AcDbEntity
  8
0
  6
ByLayer
 62
    0
370
   -1
100
AcDbPolyline
 90
    4
 70
    1
 43
0
 10
139.6480226202369
 20
33.17127476859325
 10
131.6480216202369
 20
33.17127376859325
 42
1.000000051619141
 10
131.6480216202369
 20
25.17127376859325
 10
139.6480226202369
 20
25.17127376859325
 42
0.9999996160240564
  0
LWPOLYLINE
  5
61
100
AcDbEntity
  8
0
  6
ByLayer
 62
    0
370
   -1
100
AcDbPolyline
 90
    4
 70
    1
 43
0
 10
79.64802262023693
 20
33.17127476859326
 10
71.64802162023693
 20
33.17127376859326
 42
1.000000051619137
 10
71.64802162023693
 20
25.17127376859326
 10
79.64802262023693
 20
25.17127376859326
 42
0.9999996160240564
  0
LWPOLYLINE
  5
62
100
AcDbEntity
  8
0
  6
ByLayer
 62
    0
370
   -1
100
AcDbPolyline
 90
   16
 70
    1
 43
0
 10
121.6899716202369
 20
28.22127376859338
 42
0.2679482664649633
 10
121.2569596202368
 20
28.47127176859327
 10
119.6890886202369
 20
28.47127476859338
 42
0.2679491924309836
 10
119.2560756202369
 20
28.22127476859338
 42
-1.303223041599701
 10
118.5730616202367
 20
28.90428676859318
 42
0.2679482664649721
 10
118.8230606202368
 20
29.33729876859324
 10
118.8230636202368
 20
55.00524776859326
 42
0.2679491924310243
 10
118.5730636202368
 20
55.43826076859332
 42
-1.303223041599992
 10
119.256075620237
 20
56.12127476859313
 42
0.2679482664660042
 10
119.6890876202369
 20
55.87127576859312
 10
121.2569546202368
 20
55.87127276859314
 42
0.2679491924309541
 10
121.689966620237
 20
56.12127276859314
 42
-1.303223041600053
 10
122.3729806202368
 20
55.43826176859296
 42
0.2679482664649914
 10
122.1229826202368
 20
55.00524976859326
 10
122.1229826202369
 20
29.33730076859324
 42
0.2679491924309645
 10
122.3729826202368
 20
28.90428776859317
 42
-1.303223041600009
  0
LWPOLYLINE
  5
63
100
AcDbEntity
  8
0
  6
ByLayer
 62
    0
370
   -1
100
AcDbPolyline
 90
   16
 70
    1
 43
0
 10
368.9230626202369
 20
55.43826076859326
 42
-1.303223041600127
 10
369.6060746202369
 20
56.1212747685931
 42
0.2679482664649666
 10
370.0390866202368
 20
55.87127576859308
 10
371.6069536202368
 20
55.87127276859308
 42
0.2679491924309641
 10
372.0399666202369
 20
56.12127276859307
 42
-1.303223041600045
 10
372.722980620237
 20
55.43826176859291
 42
0.2679482664650245
 10
372.472982620237
 20
55.00524976859322
 10
372.4729826202368
 20
29.3373007685932
 42
0.2679491924309864
 10
372.7229826202368
 20
28.90428776859321
 42
-1.303223041600192
 10
372.0399706202368
 20
28.22127376859334
 42
0.2679482664650359
 10
371.6069586202368
 20
28.47127176859328
 10
370.0390886202368
 20
28.47127476859336
 42
0.2679491924309865
 10
369.6060746202369
 20
28.22127476859332
 42
-1.303223041599882
 10
368.9230606202369
 20
28.90428676859301
 42
0.2679482664649976
 10
369.1730596202368
 20
29.3372987685932
 10
369.1730626202368
 20
55.00524776859322
 42
0.2679491924310519
  0
LWPOLYLINE
  5
64
100
AcDbEntity
  8
0
  6
ByLayer
 62
    0
370
   -1
100
AcDbPolyline
 90
   16
 70
    1
 43
0
 10
393.0780216202367
 20
55.00531776859332
 42
-0.2679491924311564
 10
393.3280216202368
 20
55.43833176859325
 42
1.303223041599213
 10
392.6450106202369
 20
56.12134576859313
 42
-0.2679482664649314
 10
392.2119986202368
 20
55.87134676859329
 10
390.6441306202369
 20
55.87134376859318
 42
-0.2679491924309827
 10
390.2111176202366
 20
56.12134376859319
 42
1.303223041599858
 10
389.5281036202366
 20
55.43833176859314
 42
-0.2679482664650193
 10
389.7781026202367
 20
55.00531976859332
 10
389.7781026202367
 20
50.53736976859317
 42
-0.2679491924309196
 10
389.5281026202366
 20
50.10435776859318
 42
1.303223041600838
 10
390.2111146202366
 20
49.42134376859308
 42
-0.2679482617890404
 10
390.6441266202368
 20
49.67134176859308
 10
392.2119966202367
 20
49.67134476859309
 42
-0.2679491924310131
 10
392.645008620237
 20
49.42134476859313
 42
1.30322304160029
 10
393.3280226202368
 20
50.10435676859318
 42
-0.2679482664650689
 10
393.0780246202368
 20
50.53736876859318
  0
LWPOLYLINE
  5
65
100
AcDbEntity
  8
0
  6
ByLayer
 62
    0
370
   -1
100
AcDbPolyline
 90
   16
 70
    1
 43
0
 10
390.6441266202368
 20
28.47134276859321
 10
392.2119966202368
 20
28.47134576859322
 42
-0.267949192430965
 10
392.6450086202369
 20
28.22134576859321
 42
1.303223041599812
 10
393.3280226202369
 20
28.90435676859328
 42
-0.2679482664649641
 10
393.0780246202369
 20
29.33736876859307
 10
393.0780216202369
 20
33.8053187685931
 42
-0.2679491924309801
 10
393.3280216202369
 20
34.23833176859321
 42
1.303223041600112
 10
392.6450106202368
 20
34.92134576859307
 42
-0.2679482664649069
 10
392.2119986202368
 20
34.67134676859342
 10
390.6441306202369
 20
34.6713437685931
 42
-0.2679491924309768
 10
390.211117620237
 20
34.92134376859314
 42
1.303223041600368
 10
389.5281036202371
 20
34.23833276859337
 42
-0.2679482664649879
 10
389.7781026202368
 20
33.80532076859321
 10
389.778102620237
 20
29.33737076859313
 42
-0.2679491924309965
 10
389.5281026202368
 20
28.90435876859326
 42
1.303223041600277
 10
390.2111146202369
 20
28.2213447685932
 42
-0.2679482664649715
  0
LWPOLYLINE
  5
66
100
AcDbEntity
  8
0
  6
ByLayer
 62
    0
370
   -1
100
AcDbPolyline
 90
   16
 70
    1
 43
0
 10
403.1140486202368
 20
67.16631876859321
 10
407.5819986202368
 20
67.16632176859319
 42
-0.2679491924729626
 10
408.0150106202368
 20
66.91632176859319
 42
1.303223029820076
 10
408.6980246202368
 20
67.59933376859328
 42
-0.2679482664649837
 10
408.4480266202369
 20
68.03234576859313
 10
408.4480236202369
 20
69.60021276859322
 42
-0.2679491924309891
 10
408.6980236202368
 20
70.03322676859324
 42
1.303223041600295
 10
408.0150116202367
 20
70.71624076859311
 42
-0.2679482664229699
 10
407.5819996202368
 20
70.46624176859319
 10
403.1140506202368
 20
70.46624076859308
 42
-0.267949192473984
 10
402.6810366202369
 20
70.71624076859311
 42
1.303223041600008
 10
401.9980226202367
 20
70.03322876859323
 42
-0.2679482664649844
 10
402.2480216202368
 20
69.60021676859321
 10
402.2480256202367
 20
68.03234676859313
 42
-0.2679491924309929
 10
401.9980256202368
 20
67.59933376859325
 42
1.303223041599705
 10
402.681036620237
 20
66.91632076859321
 42
-0.2679482664230043
  0
LWPOLYLINE
  5
67
100
AcDbEntity
  8
0
  6
ByLayer
 62
    0
370
   -1
100
AcDbPolyline
 90
   16
 70
    1
 43
0
 10
428.7819986202368
 20
67.16632476859316
 42
-0.2679491924730033
 10
429.215010620237
 20
66.91632476859319
 42
1.303223041599576
 10
429.8980246202367
 20
67.59933676859336
 42
-0.2679482664650136
 10
429.6480266202369
 20
68.03234876859311
 10
429.6480236202367
 20
69.6002157685932
 42
-0.2679491924309739
 10
429.8980226202369
 20
70.03322976859326
 42
1.303223029819972
 10
429.2150116202369
 20
70.71624376859315
 42
-0.2679482664230508
 10
428.7819996202369
 20
70.46624476859313
 10
424.3140496202369
 20
70.46624376859313
 42
-0.2679491924740393
 10
423.881036620237
 20
70.71624376859313
 42
1.303223029820003
 10
423.1980226202367
 20
70.03323176859323
 42
-0.2679482664649506
 10
423.4480216202367
 20
69.60021976859319
 10
423.4480246202367
 20
68.03234976859311
 42
-0.26794919243097
 10
423.1980246202368
 20
67.5993367685933
 42
1.303223029820182
 10
423.881036620237
 20
66.91632376859317
 42
-0.2679482664229456
 10
424.3140486202368
 20
67.16632176859319
  0
LWPOLYLINE
  5
68
100
AcDbEntity
  8
0
  6
ByLayer
 62
    0
370
   -1
100
AcDbPolyline
 90
   16
 70
    1
 43
0
 10
442.1180216202368
 20
55.00532476859307
 42
-0.2679491924309728
 10
442.3680216202371
 20
55.43833876859296
 42
1.303223041599461
 10
441.6850106202369
 20
56.12135276859328
 42
-0.2679482664651006
 10
441.2519986202368
 20
55.87135376859321
 10
439.6841306202368
 20
55.87135076859319
 42
-0.2679491924310312
 10
439.2511176202369
 20
56.12135076859323
 42
1.303223041599852
 10
438.5681036202369
 20
55.43833876859339
 42
-0.2679482664650296
 10
438.8181026202368
 20
55.00532676859306
 10
438.8181026202368
 20
50.53737676859332
 42
-0.2679491924309786
 10
438.5681026202368
 20
50.10436476859331
 42
1.303223041599942
 10
439.2511146202369
 20
49.42135076859309
 42
-0.267948266464993
 10
439.6841266202368
 20
49.67134876859312
 10
441.2519966202368
 20
49.67135176859313
 42
-0.2679491924309763
 10
441.6850086202372
 20
49.42135176859311
 42
1.303223041598791
 10
442.368022620237
 20
50.10436376859317
 42
-0.2679482664650517
 10
442.1180246202367
 20
50.53737576859326
  0
LWPOLYLINE
  5
69
100
AcDbEntity
  8
0
  6
ByLayer
 62
    0
370
   -1
100
AcDbPolyline
 90
   16
 70
    1
 43
0
 10
442.3680216202368
 20
34.23833876859329
 42
1.303223041599954
 10
441.6850106202368
 20
34.92135276859312
 42
-0.26794826646502
 10
441.2519986202368
 20
34.67135376859299
 10
439.6841306202368
 20
34.67135076859309
 42
-0.2679491924310393
 10
439.2511176202368
 20
34.92135076859311
 42
1.303223041599894
 10
438.5681036202369
 20
34.23833976859283
 42
-0.2679482617889811
 10
438.8181026202369
 20
33.80532776859319
 10
438.8181026202369
 20
29.3373777685931
 42
-0.2679491924310308
 10
438.568102620237
 20
28.90436576859311
 42
1.30322304160006
 10
439.2511146202369
 20
28.22135176859318
 42
-0.2679482664649748
 10
439.6841266202368
 20
28.47134976859319
 10
441.2519966202369
 20
28.47135276859316
 42
-0.2679491924310127
 10
441.6850086202369
 20
28.22135276859317
 42
1.30322304160122
 10
442.368022620237
 20
28.90436376859333
 42
-0.2679482664649475
 10
442.1180246202368
 20
29.33737576859311
 10
442.1180216202368
 20
33.80532576859319
 42
-0.2679491924310405
  0
LWPOLYLINE
  5
6A
100
AcDbEntity
  8
0
  6
ByLayer
 62
    0
370
   -1
100
AcDbPolyline
 90
   16
 70
    1
 43
0
 10
100.6519556202369
 20
55.87127276859312
 42
0.2679491924309798
 10
101.0849686202369
 20
56.12127276859314
 42
-1.303223041599868
 10
101.7679826202369
 20
55.43826176859324
 42
0.2679482664650066
 10
101.5179846202369
 20
55.00524976859327
 10
101.5179846202369
 20
50.53729976859317
 42
0.2679491924309874
 10
101.7679846202369
 20
50.10428776859332
 42
-1.303223041600478
 10
101.0849726202368
 20
49.42127376859326
 42
0.2679482664649838
 10
100.6519606202369
 20
49.67127176859326
 10
99.08409062023679
 20
49.67127476859325
 42
0.2679491924309813
 10
98.65107662023695
 20
49.42127476859324
 42
-1.303223041600643
 10
97.96806262023688
 20
50.10428576859333
 42
0.2679482617889318
 10
98.21806162023688
 20
50.53729776859318
 10
98.21806462023687
 20
55.00524776859327
 42
0.267949192430972
 10
97.96806462023699
 20
55.43826076859333
 42
-1.303223041600813
 10
98.65107662023706
 20
56.12127476859313
 42
0.267948266465995
 10
99.0840886202368
 20
55.87127576859313
  0
LWPOLYLINE
  5
6B
100
AcDbEntity
  8
0
  6
ByLayer
 62
    0
370
   -1
100
AcDbPolyline
 90
   16
 70
    1
 43
0
 10
98.21806162023688
 20
29.33729876859325
 10
98.21806462023676
 20
33.80524876859328
 42
0.2679491924309691
 10
97.96806462023676
 20
34.23826176859307
 42
-1.303223041600111
 10
98.65107662023684
 20
34.92127576859325
 42
0.2679482664660042
 10
99.0840886202368
 20
34.67127676859313
 10
100.6519556202369
 20
34.67127376859325
 42
0.2679491924309824
 10
101.0849686202367
 20
34.92127376859325
 42
-1.303223041600121
 10
101.7679826202368
 20
34.23826176859357
 42
0.2679482664650119
 10
101.5179846202369
 20
33.80524976859333
 10
101.5179846202368
 20
29.33730076859324
 42
0.2679491924309806
 10
101.767984620237
 20
28.90428776859317
 42
-1.303223041600398
 10
101.0849726202367
 20
28.22127376859338
 42
0.2679482664650054
 10
100.6519606202368
 20
28.47127176859333
 10
99.08409062023679
 20
28.47127476859338
 42
0.2679491924309741
 10
98.65107662023684
 20
28.22127476859338
 42
-1.303223041600164
 10
97.96806262023688
 20
28.90428676859318
 42
0.2679482664649961
  0
LWPOLYLINE
  5
6C
100
AcDbEntity
  8
0
  6
ByLayer
 62
    0
370
   -1
100
AcDbPolyline
 90
   16
 70
    1
 43
0
 10
88.18199062023689
 20
67.16631376859317
 10
83.7140406202368
 20
67.16631676859328
 42
0.2679491924309708
 10
83.28102762023673
 20
66.91631676859328
 42
-1.303223041599826
 10
82.59801362023677
 20
67.59932876859327
 42
0.2679482664649997
 10
82.84801262023689
 20
68.03234076859314
 10
82.84801562023677
 20
69.60020776859318
 42
0.2679491924309853
 10
82.59801562023688
 20
70.03322076859327
 42
-1.303223041600066
 10
83.28102662023696
 20
70.71623476859338
 42
0.2679482664649638
 10
83.71403862023692
 20
70.46623576859349
 10
88.18198862023689
 20
70.46623576859314
 42
0.2679491924309736
 10
88.61500162023697
 20
70.71623576859315
 42
-1.30322304159974
 10
89.29801562023692
 20
70.03322476859324
 42
0.2679482664650009
 10
89.04801762023692
 20
69.60021276859328
 10
89.04801462023681
 20
68.03234176859314
 42
0.267949192430961
 10
89.29801462023693
 20
67.59932976859324
 42
-1.303223041600091
 10
88.61500262023674
 20
66.91631576859328
 42
0.2679482664649847
  0
LWPOLYLINE
  5
6D
100
AcDbEntity
  8
0
  6
ByLayer
 62
    0
370
   -1
100
AcDbPolyline
 90
   16
 70
    1
 43
0
 10
61.39801362023678
 20
67.59932876859324
 42
0.2679482664650119
 10
61.64801262023678
 20
68.03234076859314
 10
61.64801562023683
 20
69.60020776859318
 42
0.2679491924309663
 10
61.39801562023689
 20
70.03322076859327
 42
-1.303223041600134
 10
62.08102762023697
 20
70.7162347685934
 42
0.2679482664649329
 10
62.51403962023682
 20
70.46623576859348
 10
66.98198962023679
 20
70.46623576859314
 42
0.2679491924309975
 10
67.41500162023704
 20
70.71623576859315
 42
-1.30322304159978
 10
68.09801562023694
 20
70.03322476859324
 42
0.2679482664649941
 10
67.84801762023682
 20
69.60021276859328
 10
67.84801462023682
 20
68.03234176859314
 42
0.2679491924309629
 10
68.09801462023688
 20
67.59932976859325
 42
-1.303223041600103
 10
67.41500362023692
 20
66.91631576859328
 42
0.2679482664649971
 10
66.98199162023678
 20
67.16631376859317
 10
62.51404162023698
 20
67.16631676859328
 42
0.2679491924309727
 10
62.0810276202368
 20
66.91631676859328
 42
-1.303223041599819
  0
LWPOLYLINE
  5
6E
100
AcDbEntity
  8
0
  6
ByLayer
 62
    0
370
   -1
100
AcDbPolyline
 90
   16
 70
    1
 43
0
 10
52.47798462023678
 20
50.53729976859319
 42
0.2679491924309846
 10
52.72798462023678
 20
50.10428776859334
 42
-1.303223041600201
 10
52.04497262023699
 20
49.42127376859327
 42
0.2679482664650444
 10
51.6119606202368
 20
49.67127176859327
 10
50.04409062023683
 20
49.67127476859326
 42
0.2679491924309851
 10
49.61107662023693
 20
49.42127476859338
 42
-1.303223041600601
 10
48.9280626202368
 20
50.10428576859334
 42
0.2679482617889523
 10
49.17806162023692
 20
50.53729776859319
 10
49.1780646202368
 20
55.00524776859328
 42
0.2679491924310062
 10
48.92806462023702
 20
55.43826076859335
 42
-1.303223041600296
 10
49.61107662023687
 20
56.12127476859314
 42
0.2679482664659457
 10
50.04408862023683
 20
55.87127576859314
 10
51.61195562023693
 20
55.87127276859312
 42
0.2679491924309874
 10
52.04496862023694
 20
56.12127276859314
 42
-1.30322304159982
 10
52.7279826202369
 20
55.43826176859321
 42
0.2679482664649821
 10
52.47798462023678
 20
55.00524976859327
  0
LWPOLYLINE
  5
6F
100
AcDbEntity
  8
0
  6
ByLayer
 62
    0
370
   -1
100
AcDbPolyline
 90
   16
 70
    1
 43
0
 10
121.2570006202369
 20
105.8713437685932
 10
119.6891326202369
 20
105.8713407685932
 42
-0.2679491924309772
 10
119.2561196202369
 20
106.1213407685932
 42
1.30322304160034
 10
118.5731056202367
 20
105.4383287685932
 42
-0.2679482664650279
 10
118.8231046202369
 20
105.0053167685933
 10
118.8231046202368
 20
100.5373677685932
 42
-0.2679491924309815
 10
118.5731046202369
 20
100.1043547685933
 42
1.30322304160012
 10
119.256116620237
 20
99.42134076859334
 42
-0.2679482664650087
 10
119.6891286202368
 20
99.67133876859336
 10
121.2569986202368
 20
99.67134176859314
 42
-0.267949192430976
 10
121.6900106202369
 20
99.42134176859314
 42
1.303223041599758
 10
122.3730246202368
 20
100.1043537685932
 42
-0.267948266464936
 10
122.1230266202368
 20
100.5373657685932
 10
122.1230236202369
 20
105.0053157685933
 42
-0.2679491924309583
 10
122.3730236202368
 20
105.4383287685931
 42
1.303223041600115
 10
121.6900126202369
 20
106.1213427685932
 42
-0.2679482664660442
  0
LWPOLYLINE
  5
70
100
AcDbEntity
  8
0
  6
ByLayer
 62
    0
370
   -1
100
AcDbPolyline
 90
   16
 70
    1
 43
0
 10
121.2570006202369
 20
84.67134476859313
 10
119.6891326202369
 20
84.67134176859311
 42
-0.2679491924309798
 10
119.2561196202369
 20
84.92134176859314
 42
1.303223041600222
 10
118.5731056202368
 20
84.23832976859322
 42
-0.2679482664649704
 10
118.8231046202369
 20
83.80531776859316
 10
118.8231046202369
 20
79.33736776859313
 42
-0.2679491924309703
 10
118.5731046202368
 20
78.90435576859326
 42
1.303223041600146
 10
119.256116620237
 20
78.22134176859326
 42
-0.2679482617889649
 10
119.6891286202368
 20
78.47133976859304
 10
121.2569986202368
 20
78.47134276859326
 42
-0.267949192430976
 10
121.6900106202369
 20
78.22134276859326
 42
1.303223041600483
 10
122.3730246202368
 20
78.90435376859324
 42
-0.2679482664649627
 10
122.1230266202368
 20
79.33736576859313
 10
122.1230236202369
 20
83.80531576859316
 42
-0.2679491924310372
 10
122.3730236202368
 20
84.23832976859333
 42
1.303223041600423
 10
121.690012620237
 20
84.92134376859313
 42
-0.2679482664648762
  0
LWPOLYLINE
  5
71
100
AcDbEntity
  8
0
  6
ByLayer
 62
    0
370
   -1
100
AcDbPolyline
 90
   16
 70
    1
 43
0
 10
122.3729806202368
 20
204.2382697685932
 42
0.2679482664650123
 10
122.1229826202368
 20
203.8052577685932
 10
122.1229826202369
 20
199.3373077685933
 42
0.2679491924308953
 10
122.3729826202368
 20
198.9042957685934
 42
-1.303223041599587
 10
121.6899716202369
 20
198.2212817685931
 42
0.2679482664649505
 10
121.2569596202368
 20
198.4712797685931
 10
119.6890886202369
 20
198.4712827685931
 42
0.2679491924309874
 10
119.2560756202369
 20
198.2212827685931
 42
-1.303223041599509
 10
118.5730616202367
 20
198.9042937685933
 42
0.2679482664650357
 10
118.8230606202368
 20
199.3373057685932
 10
118.8230636202368
 20
203.8052557685934
 42
0.2679491924310101
 10
118.5730636202368
 20
204.2382697685931
 42
-1.303223041599774
 10
119.2560756202366
 20
204.9212837685932
 42
0.2679482664661323
 10
119.6890876202369
 20
204.6712847685932
 10
121.2569546202368
 20
204.6712817685932
 42
0.2679491924309508
 10
121.689966620237
 20
204.9212817685932
 42
-1.303223041600717
  0
LWPOLYLINE
  5
72
100
AcDbEntity
  8
0
  6
ByLayer
 62
    0
370
   -1
100
AcDbPolyline
 90
   16
 70
    1
 43
0
 10
122.3729826202369
 20
220.1042947685933
 42
-1.303223041600036
 10
121.689971620237
 20
219.4212807685932
 42
0.2679482664650413
 10
121.2569596202368
 20
219.6712787685933
 10
119.6890886202369
 20
219.6712817685932
 42
0.2679491924309853
 10
119.256075620237
 20
219.4212817685932
 42
-1.303223041599647
 10
118.5730616202368
 20
220.1042937685933
 42
0.2679482664650257
 10
118.8230606202368
 20
220.5373057685932
 10
118.8230636202368
 20
225.0052557685933
 42
0.2679491924310486
 10
118.5730636202368
 20
225.4382687685933
 42
-1.303223041599984
 10
119.256075620237
 20
226.1212827685932
 42
0.2679482664660038
 10
119.6890876202369
 20
225.8712837685931
 10
121.2569546202368
 20
225.8712807685932
 42
0.2679491924309508
 10
121.689966620237
 20
226.1212807685932
 42
-1.303223041599818
 10
122.3729806202368
 20
225.4382687685932
 42
0.2679482664649819
 10
122.1229826202369
 20
225.0052567685933
 10
122.1229826202368
 20
220.5373077685933
 42
0.2679491924309987
  0
LWPOLYLINE
  5
73
100
AcDbEntity
  8
0
  6
ByLayer
 62
    0
370
   -1
100
AcDbPolyline
 90
   16
 70
    1
 43
0
 10
118.5730616202368
 20
380.1042897685932
 42
0.2679482664650328
 10
118.8230606202368
 20
380.5373017685933
 10
118.8230636202368
 20
385.0052517685933
 42
0.2679491924309801
 10
118.5730636202368
 20
385.4382647685932
 42
-1.303223041600028
 10
119.256075620237
 20
386.1212787685934
 42
0.2679482664650371
 10
119.689087620237
 20
385.8712797685933
 10
121.2569546202369
 20
385.8712767685932
 42
0.267949192430982
 10
121.689966620237
 20
386.1212767685934
 42
-1.303223041599999
 10
122.3729806202368
 20
385.4382657685934
 42
0.26794826646597
 10
122.1229826202369
 20
385.0052537685933
 10
122.1229826202369
 20
380.5373037685933
 42
0.2679491924310196
 10
122.3729826202369
 20
380.1042917685932
 42
-1.303223041599862
 10
121.689971620237
 20
379.4212777685931
 42
0.2679482664649807
 10
121.2569596202368
 20
379.6712757685933
 10
119.6890886202369
 20
379.6712787685933
 42
0.2679491924310084
 10
119.2560756202369
 20
379.4212787685933
 42
-1.303223041599979
  0
LWPOLYLINE
  5
74
100
AcDbEntity
  8
0
  6
ByLayer
 62
    0
370
   -1
100
AcDbPolyline
 90
   16
 70
    1
 43
0
 10
121.2569546202368
 20
364.6712777685933
 42
0.2679491924309641
 10
121.689966620237
 20
364.9212777685933
 42
-1.303223041600121
 10
122.3729806202368
 20
364.2382657685931
 42
0.2679482664649865
 10
122.1229826202369
 20
363.8052537685933
 10
122.1229826202368
 20
359.3373047685933
 42
0.2679491924309819
 10
122.3729826202369
 20
358.9042917685932
 42
-1.303223041599967
 10
121.689971620237
 20
358.2212777685931
 42
0.2679482664649921
 10
121.2569596202368
 20
358.4712757685932
 10
119.6890886202369
 20
358.4712787685933
 42
0.2679491924310046
 10
119.2560756202369
 20
358.2212787685933
 42
-1.303223041599655
 10
118.5730616202368
 20
358.9042907685932
 42
0.2679482664650154
 10
118.8230606202368
 20
359.3373027685932
 10
118.8230636202368
 20
363.8052527685933
 42
0.2679491924309867
 10
118.5730636202368
 20
364.2382657685931
 42
-1.303223041600063
 10
119.256075620237
 20
364.9212797685934
 42
0.2679482664660304
 10
119.689087620237
 20
364.6712807685931
  0
LWPOLYLINE
  5
75
100
AcDbEntity
  8
0
  6
ByLayer
 62
    0
370
   -1
100
AcDbPolyline
 90
   16
 70
    1
 43
0
 10
178.1493146202369
 20
386.1212787685932
 42
0.2679482664649928
 10
178.582326620237
 20
385.8712797685933
 10
180.1501936202369
 20
385.8712767685933
 42
0.2679491924309941
 10
180.5832066202371
 20
386.1212767685932
 42
-1.303223041599884
 10
181.2662206202369
 20
385.4382657685935
 42
0.2679482664649983
 10
181.016222620237
 20
385.0052537685933
 10
181.016222620237
 20
380.5373037685933
 42
0.2679491924310201
 10
181.266222620237
 20
380.1042917685933
 42
-1.303223041599896
 10
180.5832106202369
 20
379.4212777685933
 42
0.2679482664649576
 10
180.1501986202369
 20
379.6712757685933
 10
178.582328620237
 20
379.6712787685933
 42
0.2679491924309815
 10
178.1493146202369
 20
379.4212787685932
 42
-1.303223041599777
 10
177.4663006202369
 20
380.1042897685933
 42
0.2679482617889185
 10
177.7162996202368
 20
380.5373017685933
 10
177.7163026202369
 20
385.0052517685932
 42
0.2679491924309739
 10
177.4663026202369
 20
385.4382647685931
 42
-1.303223041599948
  0
LWPOLYLINE
  5
76
100
AcDbEntity
  8
0
  6
ByLayer
 62
    0
370
   -1
100
AcDbPolyline
 90
   16
 70
    1
 43
0
 10
177.4663006202369
 20
358.9042907685933
 42
0.267948266464954
 10
177.7162996202368
 20
359.3373027685932
 10
177.7163026202369
 20
363.8052527685933
 42
0.2679491924309077
 10
177.466302620237
 20
364.2382657685931
 42
-1.303223041600051
 10
178.1493146202367
 20
364.9212797685932
 42
0.2679482664660811
 10
178.582326620237
 20
364.6712807685931
 10
180.1501936202369
 20
364.6712777685933
 42
0.2679491924310201
 10
180.583206620237
 20
364.9212777685933
 42
-1.303223041600224
 10
181.266220620237
 20
364.2382657685934
 42
0.2679482664650053
 10
181.016222620237
 20
363.8052537685933
 10
181.0162226202369
 20
359.3373047685933
 42
0.2679491924309949
 10
181.266222620237
 20
358.9042917685932
 42
-1.303223041600257
 10
180.583210620237
 20
358.2212777685932
 42
0.2679482664650373
 10
180.1501986202369
 20
358.4712757685933
 10
178.582328620237
 20
358.4712787685933
 42
0.2679491924310733
 10
178.1493146202367
 20
358.2212787685934
 42
-1.303223041599889
  0
LWPOLYLINE
  5
77
100
AcDbEntity
  8
0
  6
ByLayer
 62
    0
370
   -1
100
AcDbPolyline
 90
   16
 70
    1
 43
0
 10
307.498033620237
 20
385.4382647685931
 42
-1.303223041599924
 10
308.1810456202368
 20
386.1212787685933
 42
0.2679482664649916
 10
308.6140576202368
 20
385.8712797685932
 10
310.1819246202368
 20
385.8712767685932
 42
0.267949192431036
 10
310.6149376202371
 20
386.1212767685932
 42
-1.303223041599542
 10
311.2979516202371
 20
385.4382657685933
 42
0.2679482664649616
 10
311.0479536202371
 20
385.0052537685932
 10
311.0479536202371
 20
380.5373037685932
 42
0.2679491924310172
 10
311.2979536202371
 20
380.1042917685929
 42
-1.303223041600144
 10
310.6149416202367
 20
379.4212777685932
 42
0.2679482664650021
 10
310.1819296202369
 20
379.6712757685932
 10
308.6140596202368
 20
379.6712787685932
 42
0.2679491924310079
 10
308.1810456202368
 20
379.4212787685932
 42
-1.303223041600123
 10
307.498031620237
 20
380.104289768593
 42
0.2679482617890515
 10
307.7480306202368
 20
380.5373017685932
 10
307.748033620237
 20
385.0052517685932
 42
0.2679491924309739
  0
LWPOLYLINE
  5
78
100
AcDbEntity
  8
0
  6
ByLayer
 62
    0
370
   -1
100
AcDbPolyline
 90
   16
 70
    1
 43
0
 10
308.1810456202367
 20
364.9212797685932
 42
0.267948266465015
 10
308.6140576202368
 20
364.6712807685932
 10
310.1819246202368
 20
364.6712777685932
 42
0.2679491924309941
 10
310.6149376202371
 20
364.9212777685932
 42
-1.303223041599761
 10
311.297951620237
 20
364.2382657685935
 42
0.2679482664650196
 10
311.0479536202371
 20
363.8052537685932
 10
311.0479536202369
 20
359.3373047685932
 42
0.2679491924310083
 10
311.297953620237
 20
358.9042917685931
 42
-1.303223041600078
 10
310.6149416202367
 20
358.2212777685932
 42
0.2679482664650173
 10
310.1819296202369
 20
358.4712757685933
 10
308.6140596202368
 20
358.4712787685933
 42
0.2679491924309815
 10
308.1810456202368
 20
358.2212787685933
 42
-1.303223041599914
 10
307.4980316202369
 20
358.9042907685932
 42
0.2679482664649764
 10
307.748030620237
 20
359.3373027685932
 10
307.748033620237
 20
363.8052527685932
 42
0.2679491924309544
 10
307.498033620237
 20
364.238265768593
 42
-1.303223041600095
  0
LWPOLYLINE
  5
79
100
AcDbEntity
  8
0
  6
ByLayer
 62
    0
370
   -1
100
AcDbPolyline
 90
   16
 70
    1
 43
0
 10
372.0399716202369
 20
379.4212777685932
 42
0.267948266464984
 10
371.6069596202369
 20
379.6712757685932
 10
370.0390896202368
 20
379.6712787685932
 42
0.2679491924310569
 10
369.6060766202368
 20
379.4212787685932
 42
-1.303223041600122
 10
368.9230626202369
 20
380.104289768593
 42
0.2679482664650342
 10
369.1730616202369
 20
380.5373017685932
 10
369.1730646202369
 20
385.0052517685932
 42
0.2679491924309777
 10
368.923064620237
 20
385.4382647685931
 42
-1.303223041600171
 10
369.6060756202369
 20
386.1212787685932
 42
0.2679482664649357
 10
370.039087620237
 20
385.8712797685932
 10
371.6069556202368
 20
385.8712767685932
 42
0.2679491924309894
 10
372.0399676202367
 20
386.1212767685932
 42
-1.303223041600029
 10
372.7229816202367
 20
385.4382657685932
 42
0.2679482664649961
 10
372.472983620237
 20
385.0052537685932
 10
372.4729836202368
 20
380.5373037685932
 42
0.2679491924310393
 10
372.722983620237
 20
380.104291768593
 42
-1.303223041599991
  0
LWPOLYLINE
  5
7A
100
AcDbEntity
  8
0
  6
ByLayer
 62
    0
370
   -1
100
AcDbPolyline
 90
   16
 70
    1
 43
0
 10
368.9230646202369
 20
364.2382657685931
 42
-1.303223041600039
 10
369.6060756202369
 20
364.9212797685932
 42
0.2679482664649885
 10
370.039087620237
 20
364.6712807685932
 10
371.6069556202368
 20
364.6712777685932
 42
0.2679491924309975
 10
372.0399676202369
 20
364.9212777685932
 42
-1.303223041600152
 10
372.7229816202369
 20
364.2382657685935
 42
0.2679482664650348
 10
372.472983620237
 20
363.8052537685932
 10
372.4729836202368
 20
359.3373047685932
 42
0.2679491924310192
 10
372.7229836202368
 20
358.9042917685933
 42
-1.3032230416002
 10
372.0399716202369
 20
358.2212777685932
 42
0.2679482664649993
 10
371.6069596202369
 20
358.4712757685932
 10
370.0390896202368
 20
358.4712787685932
 42
0.2679491924309891
 10
369.6060766202369
 20
358.2212787685932
 42
-1.303223041600057
 10
368.9230626202369
 20
358.904290768593
 42
0.2679482664650454
 10
369.1730616202369
 20
359.3373027685932
 10
369.1730646202369
 20
363.8052527685932
 42
0.2679491924309891
  0
LWPOLYLINE
  5
7B
100
AcDbEntity
  8
0
  6
ByLayer
 62
    0
370
   -1
100
AcDbPolyline
 90
   16
 70
    1
 43
0
 10
369.6060756202369
 20
226.1212827685931
 42
0.2679482664649623
 10
370.039087620237
 20
225.8712837685931
 10
371.6069556202368
 20
225.8712807685931
 42
0.2679491924309844
 10
372.0399676202369
 20
226.1212807685931
 42
-1.303223041599886
 10
372.7229816202369
 20
225.4382687685932
 42
0.267948266464988
 10
372.472983620237
 20
225.0052567685932
 10
372.472983620237
 20
220.5373077685932
 42
0.2679491924309625
 10
372.7229836202368
 20
220.1042947685934
 42
-1.303223041599954
 10
372.0399716202368
 20
219.4212807685932
 42
0.2679482664650195
 10
371.6069596202369
 20
219.6712787685933
 10
370.0390896202368
 20
219.6712817685932
 42
0.2679491924309891
 10
369.6060766202369
 20
219.4212817685932
 42
-1.303223041599849
 10
368.9230626202369
 20
220.1042937685934
 42
0.2679482664649869
 10
369.1730616202369
 20
220.5373057685931
 10
369.1730646202368
 20
225.0052557685932
 42
0.2679491924310234
 10
368.9230646202369
 20
225.4382687685932
 42
-1.303223041600028
  0
LWPOLYLINE
  5
7C
100
AcDbEntity
  8
0
  6
ByLayer
 62
    0
370
   -1
100
AcDbPolyline
 90
   16
 70
    1
 43
0
 10
368.9230626202369
 20
198.9042937685932
 42
0.2679482664649769
 10
369.1730616202369
 20
199.3373057685932
 10
369.1730646202369
 20
203.8052557685933
 42
0.2679491924310034
 10
368.9230646202369
 20
204.2382697685931
 42
-1.303223041599796
 10
369.6060756202369
 20
204.9212837685932
 42
0.2679482664649623
 10
370.039087620237
 20
204.6712847685932
 10
371.6069556202368
 20
204.6712817685932
 42
0.2679491924309844
 10
372.0399676202368
 20
204.9212817685932
 42
-1.303223041600181
 10
372.7229816202369
 20
204.2382697685933
 42
0.2679482664650308
 10
372.472983620237
 20
203.8052577685931
 10
372.4729836202371
 20
199.3373077685932
 42
0.2679491924309981
 10
372.7229836202368
 20
198.9042957685932
 42
-1.303223041600258
 10
372.0399716202369
 20
198.2212817685931
 42
0.2679482664649707
 10
371.6069596202369
 20
198.4712797685931
 10
370.0390896202368
 20
198.4712827685931
 42
0.2679491924310022
 10
369.6060766202369
 20
198.2212827685931
 42
-1.303223041600038
  0
LWPOLYLINE
  5
7D
100
AcDbEntity
  8
0
  6
ByLayer
 62
    0
370
   -1
100
AcDbPolyline
 90
   16
 70
    1
 43
0
 10
369.6061156202368
 20
99.42134076859332
 42
-0.2679482664650184
 10
370.0391276202369
 20
99.67133876859323
 10
371.6069976202368
 20
99.67134176859309
 42
-0.2679491924309765
 10
372.0400106202371
 20
99.42134176859309
 42
1.303223041599734
 10
372.723024620237
 20
100.1043537685932
 42
-0.2679482664649724
 10
372.4730266202369
 20
100.5373657685932
 10
372.473023620237
 20
105.0053157685932
 42
-0.267949192430954
 10
372.7230236202371
 20
105.438328768593
 42
1.303223041599965
 10
372.0400116202368
 20
106.1213427685932
 42
-0.2679482664651341
 10
371.6069996202368
 20
105.8713437685931
 10
370.0391326202368
 20
105.8713407685932
 42
-0.26794919243096
 10
369.6061186202369
 20
106.1213407685932
 42
1.303223029820394
 10
368.9231046202369
 20
105.4383287685933
 42
-0.2679482664649776
 10
369.1731036202368
 20
105.0053167685932
 10
369.1731036202368
 20
100.5373677685932
 42
-0.2679491924309896
 10
368.9231036202369
 20
100.1043547685932
 42
1.303223041599833
  0
LWPOLYLINE
  5
7E
100
AcDbEntity
  8
0
  6
ByLayer
 62
    0
370
   -1
100
AcDbPolyline
 90
   16
 70
    1
 43
0
 10
369.1731036202368
 20
79.33736776859308
 42
-0.2679491924309931
 10
368.9231036202368
 20
78.90435576859321
 42
1.30322304160019
 10
369.6061156202367
 20
78.22134176859322
 42
-0.2679482664650175
 10
370.0391276202369
 20
78.47133976859301
 10
371.6069976202369
 20
78.47134276859323
 42
-0.2679491924309332
 10
372.0400106202371
 20
78.22134276859323
 42
1.303223041600293
 10
372.723024620237
 20
78.90435376859318
 42
-0.2679482664649156
 10
372.473026620237
 20
79.33736576859309
 10
372.4730236202369
 20
83.80531576859312
 42
-0.2679491924310043
 10
372.7230236202369
 20
84.23832976859318
 42
1.303223041600289
 10
372.0400116202366
 20
84.92134376859313
 42
-0.2679482664649057
 10
371.6069996202368
 20
84.67134476859344
 10
370.0391326202368
 20
84.67134176859308
 42
-0.2679491924309582
 10
369.6061186202369
 20
84.92134176859312
 42
1.303223041599639
 10
368.923104620237
 20
84.23832976859326
 42
-0.2679482664650233
 10
369.1731036202369
 20
83.80531776859311
  0
LWPOLYLINE
  5
7F
100
AcDbEntity
  8
0
  6
ByLayer
 62
    0
370
   -1
100
AcDbPolyline
 90
   16
 70
    1
 43
0
 10
52.47798462023678
 20
29.33730076859325
 42
0.2679491924309797
 10
52.72798462023678
 20
28.90428776859327
 42
-1.303223041600252
 10
52.04497262023693
 20
28.22127376859339
 42
0.2679482664650073
 10
51.6119606202368
 20
28.47127176859328
 10
50.04409062023683
 20
28.47127476859339
 42
0.2679491924310277
 10
49.61107662023659
 20
28.2212747685934
 42
-1.303223041599261
 10
48.92806262023663
 20
28.90428676859324
 42
0.2679482664649961
 10
49.17806162023692
 20
29.33729876859326
 10
49.1780646202368
 20
33.80524876859329
 42
0.2679491924309672
 10
48.9280646202368
 20
34.23826176859306
 42
-1.30322304160015
 10
49.61107662023687
 20
34.92127576859325
 42
0.2679482664660099
 10
50.04408862023683
 20
34.67127676859316
 10
51.61195562023693
 20
34.67127376859327
 42
0.2679491924310531
 10
52.04496862023683
 20
34.92127376859327
 42
-1.30322304159983
 10
52.72798262023679
 20
34.23826176859308
 42
0.2679482664650019
 10
52.47798462023678
 20
33.80524976859334
  0
LWPOLYLINE
  5
80
100
AcDbEntity
  8
0
  6
ByLayer
 62
    0
370
   -1
100
AcDbPolyline
 90
   63
 70
    0
 43
0
 10
420.6480226202368
 20
17.1712737685932
 10
440.6480186202368
 20
17.1712737685932
 42
0.414213700389004
 10
445.6480136202368
 20
22.17127376859319
 10
445.6480136202368
 20
73.5212737685931
 42
-0.3419984508479996
 10
439.6480196202368
 20
81.26724076859317
 10
439.6480176202369
 20
374.4253087685932
 42
-0.3419983241320004
 10
445.6480136202368
 20
382.1712587685932
 10
445.6480136202368
 20
397.1712747685932
 10
435.6480236202368
 20
397.1712747685932
 10
435.6480236202368
 20
394.9372547685932
 42
0.2679491924310083
 10
435.8980236202368
 20
394.5042417685932
 42
-1.303223041599868
 10
435.2150116202366
 20
393.8212277685932
 42
0.267948266464998
 10
434.7819996202369
 20
394.0712257685932
 10
411.4230276202369
 20
394.0712287685932
 10
411.4230276202369
 20
391.0712577685932
 10
412.6980226202369
 20
391.0712577685932
 10
412.6980226202369
 20
387.0712287685932
 10
411.4230276202369
 20
387.0712287685932
 10
411.4230276202369
 20
384.0712287685932
 10
408.2230166202369
 20
384.0712287685932
 10
408.2230166202369
 20
387.0712287685932
 10
406.9480226202369
 20
387.0712287685932
 10
406.9480226202369
 20
391.0712577685932
 10
408.2230166202369
 20
391.0712577685932
 10
408.2230166202369
 20
394.0712287685932
 10
384.8640466202369
 20
394.0712287685932
 42
0.2679491924309774
 10
384.4310326202369
 20
393.8212287685932
 42
-1.303223041599962
 10
383.7480186202368
 20
394.5042407685931
 42
0.2679482664650069
 10
383.998017620237
 20
394.9372527685932
 10
383.9980206202368
 20
397.1712747685932
 10
107.2980216202369
 20
397.1712747685933
 10
107.2980216202369
 20
394.9372547685933
 42
0.2679491924309402
 10
107.5480216202368
 20
394.5042417685933
 42
-1.303223041600046
 10
106.8650096202368
 20
393.8212277685932
 42
0.2679482664649909
 10
106.4319976202369
 20
394.0712257685933
 10
83.07302562023688
 20
394.0712287685932
 10
83.07302562023688
 20
391.0712577685933
 10
84.34801962023687
 20
391.0712577685933
 10
84.34801962023687
 20
387.0712287685932
 10
83.07302562023688
 20
387.0712287685932
 10
83.07302562023688
 20
384.0712287685932
 10
79.87301462023697
 20
384.0712287685932
 10
79.87301462023697
 20
387.0712287685932
 10
78.59801962023687
 20
387.0712287685932
 10
78.59801962023687
 20
391.0712577685933
 10
79.87301462023697
 20
391.0712577685933
 10
79.87301462023697
 20
394.0712287685932
 10
56.51404462023697
 20
394.0712287685932
 42
0.267949192431026
 10
56.08103062023678
 20
393.8212287685934
 42
-1.303223041600006
 10
55.39801662023692
 20
394.5042407685933
 42
0.2679482664650121
 10
55.6480156202369
 20
394.9372527685933
 10
55.64801862023688
 20
397.1712747685933
 10
45.64802862023686
 20
397.1712747685933
 10
45.64802862023686
 20
382.1712597685934
 42
-0.3419983241320022
 10
51.64800862023684
 20
374.4253087685933
 10
51.64802562023692
 20
81.26724076859324
 42
-0.3419984508480041
 10
45.6480286202368
 20
73.52127376859318
 10
45.6480286202368
 20
22.17127376859327
 42
0.4142137003890055
 10
50.64802362023693
 20
17.17127376859327
 10
70.64801962023688
 20
17.17127376859326
 10
72.64802362023693
 20
19.17127376859326
 10
418.6481556202368
 20
19.17113476859321
 10
420.6481596202368
 20
17.17113476859321
  0
LWPOLYLINE
  5
81
100
AcDbEntity
  8
0
  6
ByLayer
 62
    0
370
   -1
100
AcDbPolyline
 90
    2
 70
    0
 43
0
 10
107.2980216202369
 20
397.1712747685933
 10
107.306933620237
 20
397.1712747685933
  0
LWPOLYLINE
  5
82
100
AcDbEntity
  8
0
  6
ByLayer
 62
    0
370
   -1
100
AcDbPolyline
 90
   16
 70
    1
 43
0
 10
252.3739316202368
 20
35.17127476859324
 42
0.2914636959410021
 10
254.1865166202369
 20
36.3259737685931
 10
260.1628296202368
 20
49.14102076859321
 42
-0.2914637668749948
 10
261.9754166202368
 20
50.29571876859303
 10
357.6480236202368
 20
50.29569476859319
 42
0.4135115436419978
 10
365.6480236202368
 20
58.27649276859313
 10
365.6480236202369
 20
339.1712767685932
 42
0.4142134452329965
 10
357.6480216202368
 20
347.1712757685931
 10
133.648020620237
 20
347.1712627685934
 42
0.4142134449210013
 10
125.6480326202369
 20
339.1712767685933
 10
125.6480206202369
 20
58.27654876859327
 42
0.4135115436420064
 10
133.6480206202369
 20
50.29575076859332
 10
229.4190586202369
 20
50.29572676859313
 42
-0.2930389507939906
 10
231.236520620237
 20
49.13049176859325
 10
237.1128256202369
 20
36.3365107685931
 42
0.2930390217880035
 10
238.9302876202369
 20
35.17127476859346
  0
CIRCLE
  5
83
100
AcDbEntity
  8
0
  6
ByLayer
 62
    0
370
   -1
100
AcDbCircle
 10
120.473065620237
 20
92.17134176859314
 40
1.6
  0
CIRCLE
  5
84
100
AcDbEntity
  8
0
  6
ByLayer
 62
    0
370
   -1
100
AcDbCircle
 10
120.473021620237
 20
212.1712817685932
 40
1.6
  0
CIRCLE
  5
85
100
AcDbEntity
  8
0
  6
ByLayer
 62
    0
370
   -1
100
AcDbCircle
 10
391.4280636202369
 20
42.17134476859308
 40
1.6
  0
CIRCLE
  5
86
100
AcDbEntity
  8
0
  6
ByLayer
 62
    0
370
   -1
100
AcDbCircle
 10
440.4680636202369
 20
42.17135176859311
 40
1.6
  0
CIRCLE
  5
87
100
AcDbEntity
  8
0
  6
ByLayer
 62
    0
370
   -1
100
AcDbCircle
 10
99.86802362023684
 20
42.17127376859325
 40
1.6
  0
CIRCLE
  5
88
100
AcDbEntity
  8
0
  6
ByLayer
 62
    0
370
   -1
100
AcDbCircle
 10
266.8937176202369
 20
372.1712777685932
 40
1.6
  0
CIRCLE
  5
89
100
AcDbEntity
  8
0
  6
ByLayer
 62
    0
370
   -1
100
AcDbCircle
 10
415.9480246202369
 20
68.81628176859327
 40
1.6
  0
CIRCLE
  5
8A
100
AcDbEntity
  8
0
  6
ByLayer
 62
    0
370
   -1
100
AcDbCircle
 10
50.82802262023682
 20
42.17127376859327
 40
1.6
  0
CIRCLE
  5
8B
100
AcDbEntity
  8
0
  6
ByLayer
 62
    0
370
   -1
100
AcDbCircle
 10
370.8230226202369
 20
372.1712777685932
 40
1.6
  0
CIRCLE
  5
8C
100
AcDbEntity
  8
0
  6
ByLayer
 62
    0
370
   -1
100
AcDbCircle
 10
75.34801562023682
 20
68.81627476859325
 40
1.6
  0
CIRCLE
  5
8D
100
AcDbEntity
  8
0
  6
ByLayer
 62
    0
370
   -1
100
AcDbCircle
 10
120.473021620237
 20
372.1712777685933
 40
1.6
  0
CIRCLE
  5
8E
100
AcDbEntity
  8
0
  6
ByLayer
 62
    0
370
   -1
100
AcDbCircle
 10
370.8230646202368
 20
92.17134176859309
 40
1.6
  0
CIRCLE
  5
8F
100
AcDbEntity
  8
0
  6
ByLayer
 62
    0
370
   -1
100
AcDbCircle
 10
370.8230226202369
 20
212.1712817685932
 40
1.6
  0
CIRCLE
  5
90
100
AcDbEntity
  8
0
  6
ByLayer
 62
    0
370
   -1
100
AcDbCircle
 10
179.3662606202369
 20
372.1712777685933
 40
1.6
  0
CIRCLE
  5
91
100
AcDbEntity
  8
0
  6
ByLayer
 62
    0
370
   -1
100
AcDbCircle
 10
309.3979916202368
 20
372.1712777685932
 40
1.6
  0
CIRCLE
  5
92
100
AcDbEntity
  8
0
  6
ByLayer
 62
    0
370
   -1
100
AcDbCircle
 10
224.3894426202369
 20
372.1712777685932
 40
1.6
  0
LWPOLYLINE
  5
93
100
AcDbEntity
  8
0
  6
ByLayer
 62
    0
370
   -1
100
AcDbPolyline
 90
   16
 70
    1
 43
0
 10
303.1134616202345
 20
40.95430656437556
 42
-1.303223041600156
 10
302.4304506202346
 20
40.27129256437568
 42
0.267948266464959
 10
301.9974386202345
 20
40.52129056437559
 10
297.5294886202346
 20
40.52129356437567
 42
0.2679491924309781
 10
297.0964746202346
 20
40.2712935643757
 42
-1.303223041598338
 10
296.4134606202345
 20
40.9543055643755
 42
0.2679482664651192
 10
296.6634596202345
 20
41.38731756437566
 10
296.6634626202345
 20
42.95518456437564
 42
0.2679491924309957
 10
296.4134626202346
 20
43.38819756437584
 42
-1.303223041599914
 10
297.0964746202347
 20
44.07121156437565
 42
0.2679482664649185
 10
297.5294866202345
 20
43.82121256437578
 10
301.9974366202344
 20
43.82121256437566
 42
0.2679491924309522
 10
302.4304486202345
 20
44.07121256437571
 42
-1.303223041599969
 10
303.1134626202347
 20
43.38820156437558
 42
0.2679482664650027
 10
302.8634646202347
 20
42.95518956437563
 10
302.8634616202347
 20
41.38731856437566
 42
0.2679491924309891
  0
LWPOLYLINE
  5
94
100
AcDbEntity
  8
0
  6
ByLayer
 62
    0
370
   -1
100
AcDbPolyline
 90
   16
 70
    1
 43
0
 10
323.6304496202344
 20
40.27129256437571
 42
0.2679482664649935
 10
323.1974376202347
 20
40.52129056437557
 10
318.7294876202346
 20
40.52129356437566
 42
0.2679491924309746
 10
318.2964746202346
 20
40.27129356437567
 42
-1.303223041598972
 10
317.6134606202348
 20
40.95430556437547
 42
0.2679482664649966
 10
317.8634596202348
 20
41.38731756437566
 10
317.8634626202347
 20
42.95518456437564
 42
0.2679491924310272
 10
317.6134626202345
 20
43.38819756437582
 42
-1.303223041599885
 10
318.296473620235
 20
44.07121156437569
 42
0.2679482664649233
 10
318.7294856202347
 20
43.82121256437578
 10
323.1974356202346
 20
43.82121256437565
 42
0.2679491924309739
 10
323.6304486202345
 20
44.07121256437568
 42
-1.303223041600272
 10
324.3134626202347
 20
43.3882015643756
 42
0.2679482664650558
 10
324.0634646202347
 20
42.95518956437562
 10
324.0634616202348
 20
41.38731856437565
 42
0.2679491924309315
 10
324.3134616202347
 20
40.95430656437565
 42
-1.303223041600237
  0
CIRCLE
  5
95
100
AcDbEntity
  8
0
  6
ByLayer
 62
    0
370
   -1
100
AcDbCircle
 10
310.3634626202347
 20
42.17125156437553
 40
1.6
  0
LWPOLYLINE
  5
96
100
AcDbEntity
  8
0
  6
ByLayer
 62
    0
370
   -1
100
AcDbPolyline
 90
   16
 70
    1
 43
0
 10
172.5665566202391
 20
40.5213179728189
 10
168.0986066202392
 20
40.52132097281891
 42
0.2679491924309491
 10
167.665592620239
 20
40.27132097281891
 42
-1.303223041599785
 10
166.9825786202389
 20
40.95433297281909
 42
0.2679482664650747
 10
167.2325776202391
 20
41.38734497281911
 10
167.2325806202388
 20
42.95521197281886
 42
0.2679491924309977
 10
166.9825806202389
 20
43.38822497281898
 42
-1.303223041600199
 10
167.6655926202388
 20
44.07123897281905
 42
0.2679482664661044
 10
168.098604620239
 20
43.82123997281901
 10
172.5665546202389
 20
43.82123997281906
 42
0.2679491924310029
 10
172.999566620239
 20
44.07123997281906
 42
-1.303223041600003
 10
173.682580620239
 20
43.38822897281898
 42
0.2679482664660064
 10
173.432582620239
 20
42.9552169728189
 10
173.4325796202391
 20
41.3873459728191
 42
0.2679491924309648
 10
173.6825796202391
 20
40.95433397281881
 42
-1.303223041600006
 10
172.9995686202391
 20
40.27131997281887
 42
0.2679482664649466
  0
LWPOLYLINE
  5
97
100
AcDbEntity
  8
0
  6
ByLayer
 62
    0
370
   -1
100
AcDbPolyline
 90
   16
 70
    1
 43
0
 10
193.766555620239
 20
40.5213179728189
 10
189.298605620239
 20
40.5213209728189
 42
0.2679491924310115
 10
188.8655926202389
 20
40.27132097281889
 42
-1.303223041599836
 10
188.1825786202389
 20
40.95433297281906
 42
0.2679482664650033
 10
188.432577620239
 20
41.3873449728191
 10
188.4325806202391
 20
42.95521197281885
 42
0.2679491924310072
 10
188.1825806202392
 20
43.38822497281897
 42
-1.303223041599711
 10
188.8655916202391
 20
44.07123897281905
 42
0.2679482664660794
 10
189.298603620239
 20
43.82123997281894
 10
193.7665536202391
 20
43.82123997281907
 42
0.2679491924310041
 10
194.1995666202391
 20
44.07123997281905
 42
-1.303223041600029
 10
194.8825806202389
 20
43.38822897281906
 42
0.2679482664650265
 10
194.632582620239
 20
42.9552169728189
 10
194.632579620239
 20
41.3873459728191
 42
0.2679491924309213
 10
194.882579620239
 20
40.95433397281924
 42
-1.303223041599632
 10
194.1995676202391
 20
40.27131997281889
 42
0.2679482664650085
  0
CIRCLE
  5
98
100
AcDbEntity
  8
0
  6
ByLayer
 62
    0
370
   -1
100
AcDbCircle
 10
180.9325806202391
 20
42.17127897281897
 40
1.6
  0
ENDSEC
  0
SECTION
  2
OBJECTS
  0
DICTIONARY
  5
C
330
0
100
AcDbDictionary
281
    1
  3
ACAD_GROUP
350
D
  0
DICTIONARY
  5
D
330
C
100
AcDbDictionary
281
    1
  0
ENDSEC
  0
EOF
