999
dxfrw 0.6.3
  0
SECTION
  2
HEADER
  9
$ACADVER
  1
AC1021
  9
$DWGCODEPAGE
  3
ANSI_1252
  9
$INSBASE
 10
0
 20
0
 30
0
  9
$EXTMIN
 10
-53.45867818665256
 20
-392.3776553654628
 30
0
  9
$EXTMAX
 10
485.9056283792586
 20
428.6230273924239
 30
0
  9
$LIMMIN
 10
0
 20
0
  9
$LIMMAX
 10
420
 20
297
  9
$ORTHOMODE
 70
    0
  9
$REGENMODE
 70
    1
  9
$FILLMODE
 70
    1
  9
$QTEXTMODE
 70
    0
  9
$MIRRTEXT
 70
    0
  9
$LTSCALE
 40
1
  9
$ATTMODE
 70
    0
  9
$TEXTSIZE
 40
2.5
  9
$TRACEWID
 40
15.68
  9
$TEXTSTYLE
  7
STANDARD
  9
$CLAYER
  8
0
  9
$CELTYPE
  6
BYLAYER
  9
$CECOLOR
 62
  256
  9
$CELTSCALE
 40
1
  9
$DISPSILH
 70
    0
  9
$DIMSCALE
 40
2.5
  9
$DIMASZ
 40
2.5
  9
$DIMEXO
 40
0.625
  9
$DIMDLI
 40
3.75
  9
$DIMRND
 40
0
  9
$DIMDLE
 40
0
  9
$DIMEXE
 40
1.25
  9
$DIMTP
 40
0
  9
$DIMTM
 40
0
  9
$DIMTXT
 40
2.5
  9
$DIMCEN
 40
2.5
  9
$DIMTSZ
 40
0
  9
$DIMTOL
 70
    0
  9
$DIMLIM
 70
    0
  9
$DIMTIH
 70
    0
  9
$DIMTOH
 70
    0
  9
$DIMSE1
 70
    0
  9
$DIMSE2
 70
    0
  9
$DIMTAD
 70
    1
  9
$DIMZIN
 70
    8
  9
$DIMBLK
  1

  9
$DIMASO
 70
    1
  9
$DIMSHO
 70
    1
  9
$DIMPOST
  1

  9
$DIMAPOST
  1

  9
$DIMALT
 70
    0
  9
$DIMALTD
 70
    3
  9
$DIMALTF
 40
0.03937
  9
$DIMLFAC
 40
1
  9
$DIMTOFL
 70
    1
  9
$DIMTVP
 40
0
  9
$DIMTIX
 70
    0
  9
$DIMSOXD
 70
    0
  9
$DIMSAH
 70
    0
  9
$DIMBLK1
  1

  9
$DIMBLK2
  1

  9
$DIMSTYLE
  2
STANDARD
  9
$DIMCLRD
 70
    0
  9
$DIMCLRE
 70
    0
  9
$DIMCLRT
 70
    0
  9
$DIMTFAC
 40
1
  9
$DIMGAP
 40
0.625
  9
$DIMJUST
 70
    0
  9
$DIMSD1
 70
    0
  9
$DIMSD2
 70
    0
  9
$DIMTOLJ
 70
    0
  9
$DIMTZIN
 70
    8
  9
$DIMALTZ
 70
    0
  9
$DIMALTTZ
 70
    0
  9
$DIMUPT
 70
    0
  9
$DIMDEC
 70
    2
  9
$DIMTDEC
 70
    2
  9
$DIMALTU
 70
    2
  9
$DIMALTTD
 70
    3
  9
$DIMTXSTY
  7
standard
  9
$DIMAUNIT
 70
    0
  9
$DIMADEC
 70
    0
  9
$DIMALTRND
 40
0
  9
$DIMAZIN
 70
    0
  9
$DIMDSEP
 70
   44
  9
$DIMATFIT
 70
    3
  9
$DIMFRAC
 70
    0
  9
$DIMLDRBLK
  1
STANDARD
  9
$DIMLUNIT
 70
    2
  9
$DIMLWD
 70
   -2
  9
$DIMLWE
 70
   -2
  9
$DIMTMOVE
 70
    0
  9
$DIMFXL
 40
1
  9
$DIMFXLON
 70
    0
  9
$DIMJOGANG
 40
0.7854
  9
$DIMTFILL
 70
    0
  9
$DIMTFILLCLR
 70
    0
  9
$DIMARCSYM
 70
    0
  9
$DIMLTYPE
  6

  9
$DIMLTEX1
  6

  9
$DIMLTEX2
  6

  9
$LUNITS
 70
    2
  9
$LUPREC
 70
    4
  9
$SKETCHINC
 40
1
  9
$FILLETRAD
 40
0
  9
$AUNITS
 70
    0
  9
$AUPREC
 70
    2
  9
$MENU
  1
.
  9
$ELEVATION
 40
0
  9
$PELEVATION
 40
0
  9
$THICKNESS
 40
0
  9
$LIMCHECK
 70
    0
  9
$CHAMFERA
 40
0
  9
$CHAMFERB
 40
0
  9
$CHAMFERC
 40
0
  9
$CHAMFERD
 40
0
  9
$SKPOLY
 70
    0
  9
$USRTIMER
 70
    1
  9
$ANGBASE
 50
0
  9
$ANGDIR
 70
    0
  9
$PDMODE
 70
   34
  9
$PDSIZE
 40
0
  9
$PLINEWID
 40
0
  9
$SPLFRAME
 70
    0
  9
$SPLINETYPE
 70
    2
  9
$SPLINESEGS
 70
    8
  9
$HANDSEED
  5
20000
  9
$SURFTAB1
 70
    6
  9
$SURFTAB2
 70
    6
  9
$SURFTYPE
 70
    6
  9
$SURFU
 70
    6
  9
$SURFV
 70
    6
  9
$UCSBASE
  2

  9
$UCSNAME
  2

  9
$UCSORG
 10
0
 20
0
 30
0
  9
$UCSXDIR
 10
1
 20
0
 30
0
  9
$UCSYDIR
 10
0
 20
1
 30
0
  9
$UCSORTHOREF
  2

  9
$UCSORTHOVIEW
 70
    0
  9
$UCSORGTOP
 10
0
 20
0
 30
0
  9
$UCSORGBOTTOM
 10
0
 20
0
 30
0
  9
$UCSORGLEFT
 10
0
 20
0
 30
0
  9
$UCSORGRIGHT
 10
0
 20
0
 30
0
  9
$UCSORGFRONT
 10
0
 20
0
 30
0
  9
$UCSORGBACK
 10
0
 20
0
 30
0
  9
$PUCSBASE
  2

  9
$PUCSNAME
  2

  9
$PUCSORG
 10
0
 20
0
 30
0
  9
$PUCSXDIR
 10
1
 20
0
 30
0
  9
$PUCSYDIR
 10
0
 20
1
 30
0
  9
$PUCSORTHOREF
  2

  9
$PUCSORTHOVIEW
 70
    0
  9
$PUCSORGTOP
 10
0
 20
0
 30
0
  9
$PUCSORGBOTTOM
 10
0
 20
0
 30
0
  9
$PUCSORGLEFT
 10
0
 20
0
 30
0
  9
$PUCSORGRIGHT
 10
0
 20
0
 30
0
  9
$PUCSORGFRONT
 10
0
 20
0
 30
0
  9
$PUCSORGBACK
 10
0
 20
0
 30
0
  9
$USERI1
 70
    0
  9
$USERI2
 70
    0
  9
$USERI3
 70
    0
  9
$USERI4
 70
    0
  9
$USERI5
 70
    0
  9
$USERR1
 40
0
  9
$USERR2
 40
0
  9
$USERR3
 40
0
  9
$USERR4
 40
0
  9
$USERR5
 40
0
  9
$WORLDVIEW
 70
    1
  9
$SHADEDGE
 70
    3
  9
$SHADEDIF
 70
   70
  9
$TILEMODE
 70
    1
  9
$MAXACTVP
 70
   64
  9
$PINSBASE
 10
0
 20
0
 30
0
  9
$PLIMCHECK
 70
    0
  9
$PEXTMIN
 10
0
 20
0
 30
0
  9
$PEXTMAX
 10
0
 20
0
 30
0
  9
$GRIDMODE
 70
    1
  9
$SNAPSTYLE
 70
    0
  9
$GRIDUNIT
 10
0
 20
0
  9
$PLIMMIN
 10
0
 20
0
  9
$PLIMMAX
 10
1189
 20
841
  9
$UNITMODE
 70
    0
  9
$VISRETAIN
 70
    1
  9
$PLINEGEN
 70
    0
  9
$PSLTSCALE
 70
    1
  9
$TREEDEPTH
 70
 3020
  9
$CMLSTYLE
  2
Standard
  9
$CMLJUST
 70
    0
  9
$CMLSCALE
 40
20
  9
$PROXYGRAPHICS
 70
    1
  9
$MEASUREMENT
 70
    1
  9
$CELWEIGHT
370
   -1
  9
$ENDCAPS
280
    0
  9
$JOINSTYLE
280
    0
  9
$LWDISPLAY
290
    0
  9
$INSUNITS
 70
    0
  9
$HYPERLINKBASE
  1

  9
$STYLESHEET
  1

  9
$XEDIT
290
    1
  9
$CEPSNTYPE
380
    0
  9
$PSTYLEMODE
290
    1
  9
$EXTNAMES
290
    1
  9
$PSVPSCALE
 40
1
  9
$OLESTARTUP
290
    0
  9
$SORTENTS
280
  127
  9
$INDEXCTL
280
    0
  9
$HIDETEXT
280
    1
  9
$XCLIPFRAME
290
    0
  9
$HALOGAP
280
    0
  9
$OBSCOLOR
 70
  257
  9
$OBSLTYPE
280
    0
  9
$INTERSECTIONDISPLAY
280
    0
  9
$INTERSECTIONCOLOR
 70
  257
  9
$DIMASSOC
280
    1
  9
$PROJECTNAME
  1

  9
$CAMERADISPLAY
290
    0
  9
$LENSLENGTH
 40
50
  9
$CAMERAHEIGHT
 40
0
  9
$STEPSPERSEC
 40
2
  9
$STEPSIZE
 40
50
  9
$3DDWFPREC
 40
2
  9
$PSOLWIDTH
 40
5
  9
$PSOLHEIGHT
 40
80
  9
$LOFTANG1
 40
1.570796326794897
  9
$LOFTANG2
 40
1.570796326794897
  9
$LOFTMAG1
 40
0
  9
$LOFTMAG2
 40
0
  9
$LOFTPARAM
 70
    7
  9
$LOFTNORMALS
280
    1
  9
$LATITUDE
 40
1
  9
$LONGITUDE
 40
1
  9
$NORTHDIRECTION
 40
0
  9
$TIMEZONE
 70
-8000
  9
$LIGHTGLYPHDISPLAY
280
    1
  9
$TILEMODELIGHTSYNCH
280
    1
  9
$SOLIDHIST
280
    1
  9
$SHOWHIST
280
    1
  9
$DWFFRAME
280
    2
  9
$DGNFRAME
280
    0
  9
$REALWORLDSCALE
290
    1
  9
$INTERFERECOLOR
 62
    1
  9
$CSHADOW
280
    0
  9
$SHADOWPLANELOCATION
 40
0
  0
ENDSEC
  0
SECTION
  2
CLASSES
  0
ENDSEC
  0
SECTION
  2
TABLES
  0
TABLE
  2
VPORT
  5
8
330
0
100
AcDbSymbolTable
 70
    1
  0
VPORT
  5
31
330
2
100
AcDbSymbolTableRecord
100
AcDbViewportTableRecord
  2
*ACTIVE
 70
    0
 10
0
 20
0
 11
1
 21
1
 12
617.6388285399199
 22
221.7954895504949
 13
0
 23
0
 14
10
 24
10
 15
10
 25
10
 16
0
 26
0
 36
1
 17
0
 27
0
 37
0
 40
734.1841436509438
 41
1.853146853146853
 42
50
 43
0
 44
0
 50
0
 51
0
 71
    0
 72
  100
 73
    1
 74
    3
 75
    0
 76
    1
 77
    0
 78
    0
281
    0
 65
    1
110
0
120
0
130
0
111
1
121
0
131
0
112
0
122
1
132
0
 79
    0
146
0
348
10020
 60
    7
 61
    5
292
1
282
    1
141
0
142
0
 63
  250
421
3358443
  0
ENDTAB
  0
TABLE
  2
LTYPE
  5
5
330
0
100
AcDbSymbolTable
 70
    4
  0
LTYPE
  5
14
330
5
100
AcDbSymbolTableRecord
100
AcDbLinetypeTableRecord
  2
ByBlock
 70
    0
  3

 72
   65
 73
    0
 40
0
  0
LTYPE
  5
15
330
5
100
AcDbSymbolTableRecord
100
AcDbLinetypeTableRecord
  2
ByLayer
 70
    0
  3

 72
   65
 73
    0
 40
0
  0
LTYPE
  5
16
330
5
100
AcDbSymbolTableRecord
100
AcDbLinetypeTableRecord
  2
Continuous
 70
    0
  3
Solid line
 72
   65
 73
    0
 40
0
  0
LTYPE
  5
32
330
5
100
AcDbSymbolTableRecord
100
AcDbLinetypeTableRecord
  2
DOT
 70
    0
  3
Dot . . . . . . . . . . . . . . . . . . . . . .
 72
   65
 73
    2
 40
6.35
 49
0
 74
    0
 49
-6.35
 74
    0
  0
LTYPE
  5
33
330
5
100
AcDbSymbolTableRecord
100
AcDbLinetypeTableRecord
  2
DOTTINY
 70
    0
  3
Dot (.15x) .....................................
 72
   65
 73
    2
 40
0.9525
 49
0
 74
    0
 49
-0.9525
 74
    0
  0
LTYPE
  5
34
330
5
100
AcDbSymbolTableRecord
100
AcDbLinetypeTableRecord
  2
DOT2
 70
    0
  3
Dot (.5x) .....................................
 72
   65
 73
    2
 40
3.175
 49
0
 74
    0
 49
-3.175
 74
    0
  0
LTYPE
  5
35
330
5
100
AcDbSymbolTableRecord
100
AcDbLinetypeTableRecord
  2
DOTX2
 70
    0
  3
Dot (2x) .  .  .  .  .  .  .  .  .  .  .  .  .
 72
   65
 73
    2
 40
12.7
 49
0
 74
    0
 49
-12.7
 74
    0
  0
LTYPE
  5
36
330
5
100
AcDbSymbolTableRecord
100
AcDbLinetypeTableRecord
  2
DASHED
 70
    0
  3
Dashed _ _ _ _ _ _ _ _ _ _ _ _ _ _ _ _ _
 72
   65
 73
    2
 40
19.05
 49
12.7
 74
    0
 49
-6.35
 74
    0
  0
LTYPE
  5
37
330
5
100
AcDbSymbolTableRecord
100
AcDbLinetypeTableRecord
  2
DASHEDTINY
 70
    0
  3
Dashed (.15x) _ _ _ _ _ _ _ _ _ _ _ _ _ _ _ _ _
 72
   65
 73
    2
 40
2.8575
 49
1.905
 74
    0
 49
-0.9525
 74
    0
  0
LTYPE
  5
38
330
5
100
AcDbSymbolTableRecord
100
AcDbLinetypeTableRecord
  2
DASHED2
 70
    0
  3
Dashed (.5x) _ _ _ _ _ _ _ _ _ _ _ _ _ _ _ _ _
 72
   65
 73
    2
 40
9.524999999999999
 49
6.35
 74
    0
 49
-3.175
 74
    0
  0
LTYPE
  5
39
330
5
100
AcDbSymbolTableRecord
100
AcDbLinetypeTableRecord
  2
DASHEDX2
 70
    0
  3
Dashed (2x) ____  ____  ____  ____  ____  ___
 72
   65
 73
    2
 40
38.09999999999999
 49
25.4
 74
    0
 49
-12.7
 74
    0
  0
LTYPE
  5
3A
330
5
100
AcDbSymbolTableRecord
100
AcDbLinetypeTableRecord
  2
DASHDOT
 70
    0
  3
Dash dot __ . __ . __ . __ . __ . __ . __ . __
 72
   65
 73
    4
 40
25.4
 49
12.7
 74
    0
 49
-6.35
 74
    0
 49
0
 74
    0
 49
-6.35
 74
    0
  0
LTYPE
  5
3B
330
5
100
AcDbSymbolTableRecord
100
AcDbLinetypeTableRecord
  2
DASHDOTTINY
 70
    0
  3
Dash dot (.15x) _._._._._._._._._._._._._._._.
 72
   65
 73
    4
 40
3.81
 49
1.905
 74
    0
 49
-0.9525
 74
    0
 49
0
 74
    0
 49
-0.9525
 74
    0
  0
LTYPE
  5
3C
330
5
100
AcDbSymbolTableRecord
100
AcDbLinetypeTableRecord
  2
DASHDOT2
 70
    0
  3
Dash dot (.5x) _._._._._._._._._._._._._._._.
 72
   65
 73
    4
 40
12.7
 49
6.35
 74
    0
 49
-3.175
 74
    0
 49
0
 74
    0
 49
-3.175
 74
    0
  0
LTYPE
  5
3D
330
5
100
AcDbSymbolTableRecord
100
AcDbLinetypeTableRecord
  2
DASHDOTX2
 70
    0
  3
Dash dot (2x) ____  .  ____  .  ____  .  ___
 72
   65
 73
    4
 40
50.8
 49
25.4
 74
    0
 49
-12.7
 74
    0
 49
0
 74
    0
 49
-12.7
 74
    0
  0
LTYPE
  5
3E
330
5
100
AcDbSymbolTableRecord
100
AcDbLinetypeTableRecord
  2
DIVIDE
 70
    0
  3
Divide ____ . . ____ . . ____ . . ____ . . ____
 72
   65
 73
    6
 40
31.75
 49
12.7
 74
    0
 49
-6.35
 74
    0
 49
0
 74
    0
 49
-6.35
 74
    0
 49
0
 74
    0
 49
-6.35
 74
    0
  0
LTYPE
  5
3F
330
5
100
AcDbSymbolTableRecord
100
AcDbLinetypeTableRecord
  2
DIVIDETINY
 70
    0
  3
Divide (.15x) __..__..__..__..__..__..__..__.._
 72
   65
 73
    6
 40
4.7625
 49
1.905
 74
    0
 49
-0.9525
 74
    0
 49
0
 74
    0
 49
-0.9525
 74
    0
 49
0
 74
    0
 49
-0.9525
 74
    0
  0
LTYPE
  5
40
330
5
100
AcDbSymbolTableRecord
100
AcDbLinetypeTableRecord
  2
DIVIDE2
 70
    0
  3
Divide (.5x) __..__..__..__..__..__..__..__.._
 72
   65
 73
    6
 40
15.875
 49
6.35
 74
    0
 49
-3.175
 74
    0
 49
0
 74
    0
 49
-3.175
 74
    0
 49
0
 74
    0
 49
-3.175
 74
    0
  0
LTYPE
  5
41
330
5
100
AcDbSymbolTableRecord
100
AcDbLinetypeTableRecord
  2
DIVIDEX2
 70
    0
  3
Divide (2x) ________  .  .  ________  .  .  _
 72
   65
 73
    6
 40
63.5
 49
25.4
 74
    0
 49
-12.7
 74
    0
 49
0
 74
    0
 49
-12.7
 74
    0
 49
0
 74
    0
 49
-12.7
 74
    0
  0
LTYPE
  5
42
330
5
100
AcDbSymbolTableRecord
100
AcDbLinetypeTableRecord
  2
BORDER
 70
    0
  3
Border __ __ . __ __ . __ __ . __ __ . __ __ .
 72
   65
 73
    6
 40
44.45
 49
12.7
 74
    0
 49
-6.35
 74
    0
 49
12.7
 74
    0
 49
-6.35
 74
    0
 49
0
 74
    0
 49
-6.35
 74
    0
  0
LTYPE
  5
43
330
5
100
AcDbSymbolTableRecord
100
AcDbLinetypeTableRecord
  2
BORDERTINY
 70
    0
  3
Border (.15x) __.__.__.__.__.__.__.__.__.__.__.
 72
   65
 73
    6
 40
6.6675
 49
1.905
 74
    0
 49
-0.9525
 74
    0
 49
1.905
 74
    0
 49
-0.9525
 74
    0
 49
0
 74
    0
 49
-0.9525
 74
    0
  0
LTYPE
  5
44
330
5
100
AcDbSymbolTableRecord
100
AcDbLinetypeTableRecord
  2
BORDER2
 70
    0
  3
Border (.5x) __.__.__.__.__.__.__.__.__.__.__.
 72
   65
 73
    6
 40
22.225
 49
6.35
 74
    0
 49
-3.175
 74
    0
 49
6.35
 74
    0
 49
-3.175
 74
    0
 49
0
 74
    0
 49
-3.175
 74
    0
  0
LTYPE
  5
45
330
5
100
AcDbSymbolTableRecord
100
AcDbLinetypeTableRecord
  2
BORDERX2
 70
    0
  3
Border (2x) ____  ____  .  ____  ____  .  ___
 72
   65
 73
    6
 40
88.89999999999999
 49
25.4
 74
    0
 49
-12.7
 74
    0
 49
25.4
 74
    0
 49
-12.7
 74
    0
 49
0
 74
    0
 49
-12.7
 74
    0
  0
LTYPE
  5
46
330
5
100
AcDbSymbolTableRecord
100
AcDbLinetypeTableRecord
  2
CENTER
 70
    0
  3
Center ____ _ ____ _ ____ _ ____ _ ____ _ ____
 72
   65
 73
    4
 40
50.8
 49
31.75
 74
    0
 49
-6.35
 74
    0
 49
6.35
 74
    0
 49
-6.35
 74
    0
  0
LTYPE
  5
47
330
5
100
AcDbSymbolTableRecord
100
AcDbLinetypeTableRecord
  2
CENTERTINY
 70
    0
  3
Center (.15x) ___ _ ___ _ ___ _ ___ _ ___ _ ___
 72
   65
 73
    4
 40
7.619999999999999
 49
4.7625
 74
    0
 49
-0.9525
 74
    0
 49
0.9525
 74
    0
 49
-0.9525
 74
    0
  0
LTYPE
  5
48
330
5
100
AcDbSymbolTableRecord
100
AcDbLinetypeTableRecord
  2
CENTER2
 70
    0
  3
Center (.5x) ___ _ ___ _ ___ _ ___ _ ___ _ ___
 72
   65
 73
    4
 40
28.575
 49
19.05
 74
    0
 49
-3.175
 74
    0
 49
3.175
 74
    0
 49
-3.175
 74
    0
  0
LTYPE
  5
49
330
5
100
AcDbSymbolTableRecord
100
AcDbLinetypeTableRecord
  2
CENTERX2
 70
    0
  3
Center (2x) ________  __  ________  __  _____
 72
   65
 73
    4
 40
101.6
 49
63.5
 74
    0
 49
-12.7
 74
    0
 49
12.7
 74
    0
 49
-12.7
 74
    0
  0
ENDTAB
  0
TABLE
  2
LAYER
  5
2
330
0
100
AcDbSymbolTable
 70
    1
  0
LAYER
  5
10
330
2
100
AcDbSymbolTableRecord
100
AcDbLayerTableRecord
  2
0
 70
    0
 62
    7
  6
CONTINUOUS
370
   -3
390
F
  0
ENDTAB
  0
TABLE
  2
STYLE
  5
3
330
0
100
AcDbSymbolTable
 70
    3
  0
STYLE
  5
4A
330
2
100
AcDbSymbolTableRecord
100
AcDbTextStyleTableRecord
  2
Standard
 70
    0
 40
0
 41
1
 50
0
 71
    0
 42
1
  3
txt
  4

  0
ENDTAB
  0
TABLE
  2
VIEW
  5
6
330
0
100
AcDbSymbolTable
 70
    0
  0
ENDTAB
  0
TABLE
  2
UCS
  5
7
330
0
100
AcDbSymbolTable
 70
    0
  0
ENDTAB
  0
TABLE
  2
APPID
  5
9
330
0
100
AcDbSymbolTable
 70
    1
  0
APPID
  5
12
330
9
100
AcDbSymbolTableRecord
100
AcDbRegAppTableRecord
  2
ACAD
 70
    0
  0
APPID
  5
4B
330
9
100
AcDbSymbolTableRecord
100
AcDbRegAppTableRecord
  2
LibreCad
 70
    0
  0
ENDTAB
  0
TABLE
  2
DIMSTYLE
  5
A
330
0
100
AcDbSymbolTable
 70
    1
100
AcDbDimStyleTable
 71
    1
  0
DIMSTYLE
105
4C
330
A
100
AcDbSymbolTableRecord
100
AcDbDimStyleTableRecord
  2
Standard
 70
    0
 40
2.5
 41
2.5
 42
0.625
 43
0.38
 44
1.25
 45
0
 46
0
 47
0
 48
0
 49
1
140
2.5
141
0.09
142
0
143
25.4
144
1
145
0
146
1
147
0.625
148
0
 71
    0
 72
    0
 73
    0
 74
    1
 75
    0
 76
    0
 77
    0
 78
    8
 79
    0
170
    0
171
    2
172
    0
173
    0
174
    0
175
    0
176
    0
177
    0
178
    0
179
    0
271
    2
272
    4
273
    2
274
    2
275
    0
276
    0
277
    2
278
   44
279
    0
280
    0
281
    0
282
    0
283
    1
284
    0
285
    0
286
    0
288
    0
289
    3
340
standard
341

371
   -2
372
   -2
  0
ENDTAB
  0
TABLE
  2
BLOCK_RECORD
  5
1
330
0
100
AcDbSymbolTable
 70
    2
  0
BLOCK_RECORD
  5
1F
330
1
100
AcDbSymbolTableRecord
100
AcDbBlockTableRecord
  2
*Model_Space
 70
    0
280
    1
281
    0
  0
BLOCK_RECORD
  5
1E
330
1
100
AcDbSymbolTableRecord
100
AcDbBlockTableRecord
  2
*Paper_Space
 70
    0
280
    1
281
    0
  0
ENDTAB
  0
ENDSEC
  0
SECTION
  2
BLOCKS
  0
BLOCK
  5
20
330
1F
100
AcDbEntity
  8
0
100
AcDbBlockBegin
  2
*Model_Space
 70
    0
 10
0
 20
0
 30
0
  3
*Model_Space
  1

  0
ENDBLK
  5
21
330
1F
100
AcDbEntity
  8
0
100
AcDbBlockEnd
  0
BLOCK
  5
1C
330
1B
100
AcDbEntity
  8
0
100
AcDbBlockBegin
  2
*Paper_Space
 70
    0
 10
0
 20
0
 30
0
  3
*Paper_Space
  1

  0
ENDBLK
  5
1D
330
1F
100
AcDbEntity
  8
0
100
AcDbBlockEnd
  0
ENDSEC
  0
SECTION
  2
ENTITIES
  0
LWPOLYLINE
  5
4D
100
AcDbEntity
  8
0
  6
ByLayer
 62
    0
370
   -1
100
AcDbPolyline
 90
    6
 70
    1
 43
0
 10
368.5424163792586
 20
89.19471339242244
 42
0.57735026918999
 10
365.9443403792586
 20
84.69471339242244
 10
382.6453513792586
 20
55.76771339242259
 42
0.5773502691899968
 10
387.8415043792586
 20
55.76771339242248
 10
404.5425153792586
 20
84.69471339242244
 42
0.57735026918999
 10
401.9444393792586
 20
89.19471339242244
  0
LWPOLYLINE
  5
4E
100
AcDbEntity
  8
0
  6
ByLayer
 62
    0
370
   -1
100
AcDbPolyline
 90
    6
 70
    1
 43
0
 10
354.5434613792586
 20
58.76771339242259
 42
-0.57735026918999
 10
351.9453853792586
 20
54.26771339242259
 10
318.5433623792586
 20
54.26771339242259
 42
-0.5773502691899961
 10
315.9452863792586
 20
58.76771339242259
 10
332.6462973792586
 20
87.69471339242256
 42
-0.5773502691899971
 10
337.8424503792586
 20
87.69471339242244
  0
LWPOLYLINE
  5
4F
100
AcDbEntity
  8
0
  6
ByLayer
 62
    0
370
   -1
100
AcDbPolyline
 90
    6
 70
    1
 43
0
 10
268.5424163792586
 20
89.19471339242244
 42
0.5773502691899909
 10
265.9443403792586
 20
84.69471339242244
 10
282.6453513792586
 20
55.76771339242259
 42
0.5773502691899977
 10
287.8415043792586
 20
55.76771339242248
 10
304.5425153792586
 20
84.69471339242244
 42
0.57735026918999
 10
301.9444393792586
 20
89.19471339242244
  0
LWPOLYLINE
  5
50
100
AcDbEntity
  8
0
  6
ByLayer
 62
    0
370
   -1
100
AcDbPolyline
 90
    6
 70
    1
 43
0
 10
254.5434613792586
 20
58.76771339242259
 42
-0.5773502691899944
 10
251.9453853792585
 20
54.26771339242259
 10
218.5433623792586
 20
54.26771339242259
 42
-0.5773502691899912
 10
215.9452863792586
 20
58.76771339242259
 10
232.6462973792586
 20
87.69471339242256
 42
-0.5773502691899954
 10
237.8424503792585
 20
87.69471339242244
  0
LWPOLYLINE
  5
51
100
AcDbEntity
  8
0
  6
ByLayer
 62
    0
370
   -1
100
AcDbPolyline
 90
    6
 70
    1
 43
0
 10
182.6453513792586
 20
55.76771339242259
 42
0.5773502691899953
 10
187.8415043792585
 20
55.76771339242248
 10
204.5425153792586
 20
84.69471339242244
 42
0.5773502691899921
 10
201.9444393792585
 20
89.19471339242244
 10
168.5424163792586
 20
89.19471339242244
 42
0.5773502691899939
 10
165.9443403792586
 20
84.69471339242244
  0
LWPOLYLINE
  5
52
100
AcDbEntity
  8
0
  6
ByLayer
 62
    0
370
   -1
100
AcDbPolyline
 90
    6
 70
    1
 43
0
 10
138.2443733792586
 20
54.26771339242259
 42
-0.4142135580070034
 10
135.2443733792586
 20
57.26771339242259
 10
135.2443733792586
 20
80.99856139242246
 42
-0.7673269938990074
 10
140.8424493792585
 20
82.49856139242235
 10
154.5434613792586
 20
58.76771339242259
 42
-0.5773502691899939
 10
151.9453853792585
 20
54.26771339242259
  0
LWPOLYLINE
  5
53
100
AcDbEntity
  8
0
  6
ByLayer
 62
    0
370
   -1
100
AcDbPolyline
 90
    6
 70
    1
 43
0
 10
140.7760993792586
 20
136.8143803924225
 42
0.5773502691899873
 10
140.7760993792586
 20
140.3217843924224
 10
121.2503743792586
 20
151.5949663924226
 42
0.5773502691900794
 10
118.2128743792586
 20
149.8412653924225
 10
118.2128743792586
 20
127.2948993924225
 42
0.5773502691900048
 10
121.2503743792586
 20
125.5411983924226
  0
LWPOLYLINE
  5
54
100
AcDbEntity
  8
0
  6
ByLayer
 62
    0
370
   -1
100
AcDbPolyline
 90
    6
 70
    1
 43
0
 10
119.2253743792586
 20
184.3607643924225
 42
-0.5773502691900076
 10
119.2253743792586
 20
187.8681683924225
 10
138.7510993792586
 20
199.1413503924225
 42
-0.577350269189986
 10
141.7885993792585
 20
197.3876493924225
 10
141.7885993792586
 20
174.8412843924225
 42
-0.5773502691900128
 10
138.7510993792586
 20
173.0875823924225
  0
LWPOLYLINE
  5
55
100
AcDbEntity
  8
0
  6
ByLayer
 62
    0
370
   -1
100
AcDbPolyline
 90
    6
 70
    1
 43
0
 10
140.7760993792586
 20
226.8607453924225
 42
0.5773502691899897
 10
140.7760993792586
 20
230.3681493924225
 10
121.2503743792586
 20
241.6413313924225
 42
0.5773502691900725
 10
118.2128743792586
 20
239.8876303924225
 10
118.2128743792586
 20
217.3412653924225
 42
0.5773502691900669
 10
121.2503743792586
 20
215.5875633924225
  0
LWPOLYLINE
  5
56
100
AcDbEntity
  8
0
  6
ByLayer
 62
    0
370
   -1
100
AcDbPolyline
 90
    6
 70
    1
 43
0
 10
141.7885993792586
 20
259.8498333924225
 42
-0.5773502691900099
 10
138.7510993792586
 20
258.0961313924225
 10
119.2253743792586
 20
269.3693133924224
 42
-0.5773502691899985
 10
119.2253743792586
 20
272.8767173924226
 10
138.7510993792586
 20
284.1498993924226
 42
-0.5773502691899941
 10
141.7885993792585
 20
282.3961983924224
  0
LWPOLYLINE
  5
57
100
AcDbEntity
  8
0
  6
ByLayer
 62
    0
370
   -1
100
AcDbPolyline
 90
    6
 70
    1
 43
0
 10
118.2128743792586
 20
302.3498143924224
 42
0.5773502691900007
 10
121.2503743792586
 20
300.5961123924227
 10
140.7760993792586
 20
311.8692943924225
 42
0.5773502691899802
 10
140.7760993792586
 20
315.3766983924224
 10
121.2503743792586
 20
326.6498803924226
 42
0.5773502691900192
 10
118.2128743792586
 20
324.8961793924225
  0
LWPOLYLINE
  5
58
100
AcDbEntity
  8
0
  6
ByLayer
 62
    0
370
   -1
100
AcDbPolyline
 90
    6
 70
    1
 43
0
 10
138.2443733792586
 20
402.9783563924225
 42
0.4142135580070034
 10
135.2443733792586
 20
399.9783563924225
 10
135.2443733792586
 20
376.2475073924225
 42
0.7673269938989964
 10
140.8424493792586
 20
374.7475073924225
 10
154.5434613792586
 20
398.4783563924225
 42
0.5773502691899965
 10
151.9453853792586
 20
402.9783563924225
  0
LWPOLYLINE
  5
59
100
AcDbEntity
  8
0
  6
ByLayer
 62
    0
370
   -1
100
AcDbPolyline
 90
    6
 70
    1
 43
0
 10
182.6453513792586
 20
401.4783563924225
 42
-0.577350269189997
 10
187.8415043792586
 20
401.4783563924225
 10
204.5425153792585
 20
372.5513563924225
 42
-0.5773502691899965
 10
201.9444393792585
 20
368.0513563924225
 10
168.5424163792586
 20
368.0513563924225
 42
-0.5773502691899949
 10
165.9443403792586
 20
372.5513563924225
  0
LWPOLYLINE
  5
5A
100
AcDbEntity
  8
0
  6
ByLayer
 62
    0
370
   -1
100
AcDbPolyline
 90
    6
 70
    1
 43
0
 10
254.5435093792585
 20
398.4783563924225
 42
0.5773502691899731
 10
251.9454333792585
 20
402.9783563924225
 10
218.5434103792585
 20
402.9783563924225
 42
0.5773502691899945
 10
215.9453343792586
 20
398.4783563924225
 10
232.6463453792585
 20
369.5513563924226
 42
0.5773502691899962
 10
237.8424983792585
 20
369.5513563924225
  0
LWPOLYLINE
  5
5B
100
AcDbEntity
  8
0
  6
ByLayer
 62
    0
370
   -1
100
AcDbPolyline
 90
    6
 70
    1
 43
0
 10
282.6453513792586
 20
401.4783563924225
 42
-0.5773502691899971
 10
287.8415043792586
 20
401.4783563924225
 10
304.5425153792586
 20
372.5513563924225
 42
-0.5773502691899879
 10
301.9444393792586
 20
368.0513563924225
 10
268.5424163792586
 20
368.0513563924225
 42
-0.57735026918999
 10
265.9443403792586
 20
372.5513563924225
  0
LWPOLYLINE
  5
5C
100
AcDbEntity
  8
0
  6
ByLayer
 62
    0
370
   -1
100
AcDbPolyline
 90
    6
 70
    1
 43
0
 10
354.5434613792586
 20
398.4783563924225
 42
0.5773502691899886
 10
351.9453853792586
 20
402.9783563924225
 10
318.5433623792586
 20
402.9783563924225
 42
0.5773502691899981
 10
315.9452863792586
 20
398.4783563924225
 10
332.6462973792586
 20
369.5513563924225
 42
0.5773502691899968
 10
337.8424503792586
 20
369.5513563924225
  0
LWPOLYLINE
  5
5D
100
AcDbEntity
  8
0
  6
ByLayer
 62
    0
370
   -1
100
AcDbPolyline
 90
    6
 70
    1
 43
0
 10
404.5425153792586
 20
372.5513563924225
 42
-0.5773502691899879
 10
401.9444393792586
 20
368.0513563924225
 10
368.5424163792586
 20
368.0513563924225
 42
-0.5773502691899952
 10
365.9443403792586
 20
372.5513563924225
 10
382.6453513792586
 20
401.4783563924225
 42
-0.5773502691899971
 10
387.8415043792586
 20
401.4783563924225
  0
LWPOLYLINE
  5
5E
100
AcDbEntity
  8
0
  6
ByLayer
 62
    0
370
   -1
100
AcDbPolyline
 90
    4
 70
    1
 43
0
 10
477.9054893792586
 20
334.6230333924225
 10
477.9054893792586
 20
342.6230343924225
 42
1.00000005161913
 10
469.9054883792587
 20
342.6230343924225
 10
469.9054893792586
 20
334.6230333924225
 42
0.9999996154461669
  0
LWPOLYLINE
  5
5F
100
AcDbEntity
  8
0
  6
ByLayer
 62
    0
370
   -1
100
AcDbPolyline
 90
    4
 70
    1
 43
0
 10
469.9054883792586
 20
402.6230343924225
 10
469.9054893792586
 20
394.6230333924225
 42
0.9999996154461678
 10
477.9054893792586
 20
394.6230333924225
 10
477.9054893792586
 20
402.6230343924225
 42
1.000000051619132
  0
LWPOLYLINE
  5
60
100
AcDbEntity
  8
0
  6
ByLayer
 62
    0
370
   -1
100
AcDbPolyline
 90
    4
 70
    1
 43
0
 10
469.9054883792586
 20
122.6230363924226
 10
469.9054893792586
 20
114.6230353924226
 42
1.000000051619141
 10
477.9054893792586
 20
114.6230353924226
 10
477.9054893792586
 20
122.6230363924226
 42
0.9999996160240635
  0
LWPOLYLINE
  5
61
100
AcDbEntity
  8
0
  6
ByLayer
 62
    0
370
   -1
100
AcDbPolyline
 90
    4
 70
    1
 43
0
 10
469.9054883792586
 20
62.62303639242259
 10
469.9054893792586
 20
54.62303539242259
 42
1.000000051619141
 10
477.9054893792586
 20
54.62303539242259
 10
477.9054893792586
 20
62.62303639242259
 42
0.9999996160240635
  0
LWPOLYLINE
  5
62
100
AcDbEntity
  8
0
  6
ByLayer
 62
    0
370
   -1
100
AcDbPolyline
 90
   16
 70
    1
 43
0
 10
474.8554893792585
 20
104.6649853924226
 42
0.2679482664649657
 10
474.6054913792585
 20
104.2319733924224
 10
474.6054883792585
 20
102.6641023924226
 42
0.2679491924309749
 10
474.8554883792585
 20
102.2310893924225
 42
-1.303223041599781
 10
474.1724763792587
 20
101.5480753924224
 42
0.2679482664649776
 10
473.7394643792586
 20
101.7980743924224
 10
448.0715153792586
 20
101.7980773924224
 42
0.2679491924310196
 10
447.6385023792585
 20
101.5480773924224
 42
-1.303223041600095
 10
446.9554883792587
 20
102.2310893924225
 42
0.2679482664660238
 10
447.2054873792587
 20
102.6641013924226
 10
447.2054903792587
 20
104.2319683924225
 42
0.2679491924309602
 10
446.9554903792587
 20
104.6649803924226
 42
-1.30322304160001
 10
447.6385013792589
 20
105.3479943924225
 42
0.2679482664649676
 10
448.0715133792586
 20
105.0979963924225
 10
473.7394623792586
 20
105.0979963924225
 42
0.2679491924309708
 10
474.1724753792587
 20
105.3479963924225
 42
-1.303223041600094
  0
LWPOLYLINE
  5
63
100
AcDbEntity
  8
0
  6
ByLayer
 62
    0
370
   -1
100
AcDbPolyline
 90
   16
 70
    1
 43
0
 10
447.6385023792585
 20
351.8980763924226
 42
-1.303223041600354
 10
446.9554883792587
 20
352.5810883924225
 42
0.267948266464988
 10
447.2054873792587
 20
353.0141003924225
 10
447.2054903792587
 20
354.5819673924225
 42
0.267949192430952
 10
446.9554903792587
 20
355.0149803924226
 42
-1.303223041599992
 10
447.6385013792589
 20
355.6979943924227
 42
0.2679482664650006
 10
448.0715133792586
 20
355.4479963924226
 10
473.7394623792586
 20
355.4479963924225
 42
0.2679491924309841
 10
474.1724753792587
 20
355.6979963924225
 42
-1.30322304160019
 10
474.8554893792585
 20
355.0149843924225
 42
0.2679482664650293
 10
474.6054913792585
 20
354.5819723924225
 10
474.6054883792585
 20
353.0141023924225
 42
0.2679491924309815
 10
474.8554883792585
 20
352.5810883924225
 42
-1.303223041599758
 10
474.1724763792588
 20
351.8980743924226
 42
0.2679482664650146
 10
473.7394643792586
 20
352.1480733924225
 10
448.0715153792586
 20
352.1480763924225
 42
0.267949192431026
  0
LWPOLYLINE
  5
64
100
AcDbEntity
  8
0
  6
ByLayer
 62
    0
370
   -1
100
AcDbPolyline
 90
   16
 70
    1
 43
0
 10
448.0714453792585
 20
376.0530353924224
 42
-0.2679491924311547
 10
447.6384313792585
 20
376.3030353924224
 42
1.303223041599209
 10
446.9554173792586
 20
375.6200243924226
 42
-0.2679482664649379
 10
447.2054163792585
 20
375.1870123924225
 10
447.2054193792586
 20
373.6191443924225
 42
-0.2679491924309867
 10
446.9554193792586
 20
373.1861313924222
 42
1.303223041599872
 10
447.6384313792587
 20
372.5031173924223
 42
-0.2679482664650159
 10
448.0714433792585
 20
372.7531163924224
 10
452.5393933792586
 20
372.7531163924224
 42
-0.2679491924309189
 10
452.9724053792586
 20
372.5031163924223
 42
1.303223041600771
 10
453.6554193792587
 20
373.1861283924222
 42
-0.2679482617890367
 10
453.4054213792587
 20
373.6191403924225
 10
453.4054183792587
 20
375.1870103924225
 42
-0.2679491924309919
 10
453.6554183792587
 20
375.6200223924226
 42
1.303223041600077
 10
452.9724063792586
 20
376.3030363924225
 42
-0.267948266465009
 10
452.5393943792586
 20
376.0530383924224
  0
LWPOLYLINE
  5
65
100
AcDbEntity
  8
0
  6
ByLayer
 62
    0
370
   -1
100
AcDbPolyline
 90
   16
 70
    1
 43
0
 10
474.6054203792586
 20
373.6191403924225
 10
474.6054173792586
 20
375.1870103924225
 42
-0.2679491924309614
 10
474.8554173792586
 20
375.6200223924225
 42
1.303223041599834
 10
474.1724063792585
 20
376.3030363924225
 42
-0.2679482664649857
 10
473.7393943792587
 20
376.0530383924225
 10
469.2714443792587
 20
376.0530353924225
 42
-0.2679491924309741
 10
468.8384313792586
 20
376.3030353924225
 42
1.303223041600173
 10
468.1554173792587
 20
375.6200243924225
 42
-0.2679482664648944
 10
468.4054163792584
 20
375.1870123924225
 10
468.4054193792587
 20
373.6191443924225
 42
-0.2679491924309615
 10
468.1554193792587
 20
373.1861313924225
 42
1.303223041600387
 10
468.8384303792585
 20
372.5031173924226
 42
-0.2679482664649985
 10
469.2714423792586
 20
372.7531163924225
 10
473.7393923792587
 20
372.7531163924225
 42
-0.2679491924309853
 10
474.1724043792585
 20
372.5031163924225
 42
1.303223041600204
 10
474.8554183792586
 20
373.1861283924226
 42
-0.2679482664650027
  0
LWPOLYLINE
  5
66
100
AcDbEntity
  8
0
  6
ByLayer
 62
    0
370
   -1
100
AcDbPolyline
 90
   16
 70
    1
 43
0
 10
435.9104443792586
 20
386.0890623924225
 10
435.9104413792586
 20
390.5570123924225
 42
-0.2679491924729609
 10
436.1604413792586
 20
390.9900243924224
 42
1.303223029820163
 10
435.4774293792585
 20
391.6730383924225
 42
-0.2679482664649835
 10
435.0444173792587
 20
391.4230403924226
 10
433.4765503792586
 20
391.4230373924225
 42
-0.2679491924310058
 10
433.0435363792586
 20
391.6730373924225
 42
1.303223041600244
 10
432.3605223792587
 20
390.9900253924225
 42
-0.2679482664229659
 10
432.6105213792586
 20
390.5570133924225
 10
432.6105223792587
 20
386.0890643924225
 42
-0.2679491924740104
 10
432.3605223792587
 20
385.6560503924225
 42
1.303223041599967
 10
433.0435343792586
 20
384.9730363924225
 42
-0.2679482664649838
 10
433.4765463792586
 20
385.2230353924225
 10
435.0444163792587
 20
385.2230393924225
 42
-0.2679491924310079
 10
435.4774293792585
 20
384.9730393924225
 42
1.303223041599777
 10
436.1604423792586
 20
385.6560503924226
 42
-0.2679482664229904
  0
LWPOLYLINE
  5
67
100
AcDbEntity
  8
0
  6
ByLayer
 62
    0
370
   -1
100
AcDbPolyline
 90
   16
 70
    1
 43
0
 10
435.9104383792586
 20
411.7570123924225
 42
-0.2679491924729995
 10
436.1604383792586
 20
412.1900243924225
 42
1.303223041599886
 10
435.4774263792585
 20
412.8730383924225
 42
-0.2679482664650037
 10
435.0444143792587
 20
412.6230403924225
 10
433.4765473792586
 20
412.6230373924225
 42
-0.2679491924309777
 10
433.0435333792585
 20
412.8730363924226
 42
1.303223029819934
 10
432.3605193792587
 20
412.1900253924226
 42
-0.2679482664230595
 10
432.6105183792587
 20
411.7570133924225
 10
432.6105193792587
 20
407.2890633924225
 42
-0.2679491924740371
 10
432.3605193792587
 20
406.8560503924226
 42
1.303223029820036
 10
433.0435313792585
 20
406.1730363924224
 42
-0.2679482664649785
 10
433.4765433792586
 20
406.4230353924225
 10
435.0444133792587
 20
406.4230383924224
 42
-0.2679491924309474
 10
435.4774263792585
 20
406.1730383924224
 42
1.30322302982011
 10
436.1604393792586
 20
406.8560503924226
 42
-0.2679482664229647
 10
435.9104413792586
 20
407.2890623924225
  0
LWPOLYLINE
  5
68
100
AcDbEntity
  8
0
  6
ByLayer
 62
    0
370
   -1
100
AcDbPolyline
 90
   16
 70
    1
 43
0
 10
448.0714383792587
 20
425.0930353924225
 42
-0.2679491924309727
 10
447.6384243792588
 20
425.3430353924228
 42
1.303223041599492
 10
446.9554103792585
 20
424.6600243924225
 42
-0.2679482664650896
 10
447.2054093792586
 20
424.2270123924225
 10
447.2054123792586
 20
422.6591443924225
 42
-0.2679491924310134
 10
446.9554123792586
 20
422.2261313924225
 42
1.303223041599791
 10
447.6384243792584
 20
421.5431173924226
 42
-0.2679482664650421
 10
448.0714363792587
 20
421.7931163924225
 10
452.5393863792585
 20
421.7931163924225
 42
-0.2679491924310065
 10
452.9723983792586
 20
421.5431163924225
 42
1.30322304159995
 10
453.6554123792587
 20
422.2261283924224
 42
-0.2679482664650151
 10
453.4054143792587
 20
422.6591403924225
 10
453.4054113792587
 20
424.2270103924225
 42
-0.2679491924309788
 10
453.6554113792587
 20
424.6600223924229
 42
1.303223041598904
 10
452.9723993792586
 20
425.3430363924226
 42
-0.2679482664650433
 10
452.5393873792585
 20
425.0930383924224
  0
LWPOLYLINE
  5
69
100
AcDbEntity
  8
0
  6
ByLayer
 62
    0
370
   -1
100
AcDbPolyline
 90
   16
 70
    1
 43
0
 10
468.8384243792585
 20
425.3430353924225
 42
1.303223041599957
 10
468.1554103792587
 20
424.6600243924225
 42
-0.2679482664650262
 10
468.4054093792588
 20
424.2270123924225
 10
468.4054123792587
 20
422.6591443924225
 42
-0.2679491924310091
 10
468.1554123792587
 20
422.2261313924225
 42
1.303223041599788
 10
468.838423379259
 20
421.5431173924225
 42
-0.2679482617889842
 10
469.2714353792586
 20
421.7931163924226
 10
473.7393853792587
 20
421.7931163924225
 42
-0.2679491924310353
 10
474.1723973792587
 20
421.5431163924226
 42
1.303223041600186
 10
474.8554113792586
 20
422.2261283924225
 42
-0.267948266464962
 10
474.6054133792586
 20
422.6591403924225
 10
474.6054103792586
 20
424.2270103924225
 42
-0.2679491924310205
 10
474.8554103792586
 20
424.6600223924226
 42
1.303223041601312
 10
474.1723993792584
 20
425.3430363924226
 42
-0.2679482664649478
 10
473.7393873792587
 20
425.0930383924225
 10
469.2714373792586
 20
425.0930353924225
 42
-0.2679491924310562
  0
LWPOLYLINE
  5
6A
100
AcDbEntity
  8
0
  6
ByLayer
 62
    0
370
   -1
100
AcDbPolyline
 90
   16
 70
    1
 43
0
 10
447.2054903792587
 20
83.6269693924225
 42
0.2679491924309777
 10
446.9554903792587
 20
84.05998239242246
 42
-1.303223041599972
 10
447.6385013792586
 20
84.74299639242258
 42
0.2679482664649952
 10
448.0715133792586
 20
84.49299839242258
 10
452.5394633792587
 20
84.49299839242258
 42
0.2679491924309894
 10
452.9724753792585
 20
84.74299839242258
 42
-1.303223041600458
 10
453.6554893792586
 20
84.05998639242245
 42
0.2679482664649993
 10
453.4054913792586
 20
83.62697439242248
 10
453.4054883792586
 20
82.05910439242246
 42
0.2679491924309734
 10
453.6554883792586
 20
81.62609039242255
 42
-1.303223041600667
 10
452.9724773792585
 20
80.9430763924226
 42
0.2679482617889328
 10
452.5394653792587
 20
81.19307539242254
 10
448.0715153792586
 20
81.19307839242259
 42
0.2679491924309667
 10
447.6385023792585
 20
80.94307839242265
 42
-1.303223041600905
 10
446.9554883792587
 20
81.62609039242278
 42
0.2679482664659881
 10
447.2054873792587
 20
82.05910239242246
  0
LWPOLYLINE
  5
6B
100
AcDbEntity
  8
0
  6
ByLayer
 62
    0
370
   -1
100
AcDbPolyline
 90
   16
 70
    1
 43
0
 10
473.7394643792586
 20
81.19307539242249
 10
469.2715143792586
 20
81.19307839242248
 42
0.2679491924309851
 10
468.8385013792588
 20
80.94307839242248
 42
-1.303223041600116
 10
468.1554873792586
 20
81.62609039242255
 42
0.2679482664659962
 10
468.4054863792587
 20
82.05910239242246
 10
468.4054893792586
 20
83.6269693924225
 42
0.2679491924309739
 10
468.1554893792586
 20
84.0599823924224
 42
-1.303223041600134
 10
468.8385013792584
 20
84.74299639242247
 42
0.2679482664650076
 10
469.2715133792585
 20
84.49299839242258
 10
473.7394623792586
 20
84.49299839242258
 42
0.2679491924309708
 10
474.1724753792587
 20
84.74299839242258
 42
-1.303223041600486
 10
474.8554893792585
 20
84.05998639242245
 42
0.2679482664650255
 10
474.6054913792585
 20
83.62697439242248
 10
474.6054883792585
 20
82.05910439242246
 42
0.2679491924309774
 10
474.8554883792585
 20
81.62609039242244
 42
-1.3032230416002
 10
474.1724763792587
 20
80.94307639242248
 42
0.2679482664649998
  0
LWPOLYLINE
  5
6C
100
AcDbEntity
  8
0
  6
ByLayer
 62
    0
370
   -1
100
AcDbPolyline
 90
   16
 70
    1
 43
0
 10
435.9104493792587
 20
71.15700439242249
 10
435.9104463792586
 20
66.68905439242246
 42
0.2679491924309666
 10
436.1604463792586
 20
66.25604139242245
 42
-1.303223041599781
 10
435.4774343792586
 20
65.57302739242249
 42
0.267948266465018
 10
435.0444223792587
 20
65.82302639242249
 10
433.4765553792587
 20
65.82302939242248
 42
0.2679491924309972
 10
433.0435423792586
 20
65.57302939242248
 42
-1.303223041599972
 10
432.3605283792585
 20
66.25604039242256
 42
0.2679482664649471
 10
432.6105273792584
 20
66.68905239242258
 10
432.6105273792587
 20
71.1570023924225
 42
0.2679491924309705
 10
432.3605273792587
 20
71.59001539242257
 42
-1.303223041599791
 10
433.0435383792586
 20
72.27302939242259
 42
0.2679482664649952
 10
433.4765503792586
 20
72.02303139242258
 10
435.0444213792587
 20
72.02302839242248
 42
0.26794919243097
 10
435.4774333792586
 20
72.27302839242259
 42
-1.303223041600106
 10
436.1604473792586
 20
71.59001639242246
 42
0.267948266464988
  0
LWPOLYLINE
  5
6D
100
AcDbEntity
  8
0
  6
ByLayer
 62
    0
370
   -1
100
AcDbPolyline
 90
   16
 70
    1
 43
0
 10
435.4774343792586
 20
44.37302739242244
 42
0.267948266465018
 10
435.0444223792587
 20
44.62302639242245
 10
433.4765553792587
 20
44.6230293924225
 42
0.2679491924309708
 10
433.0435423792586
 20
44.3730293924225
 42
-1.303223041600001
 10
432.3605283792585
 20
45.05604139242257
 42
0.267948266464954
 10
432.6105273792584
 20
45.48905339242248
 10
432.6105273792587
 20
49.95700339242245
 42
0.2679491924309795
 10
432.3605273792587
 20
50.3900153924227
 42
-1.303223041599819
 10
433.0435383792586
 20
51.0730293924226
 42
0.2679482664649909
 10
433.4765503792586
 20
50.82303139242248
 10
435.0444213792587
 20
50.82302839242249
 42
0.2679491924309853
 10
435.4774333792586
 20
51.07302839242254
 42
-1.303223041600067
 10
436.1604473792586
 20
50.39001739242258
 42
0.2679482664650114
 10
435.9104493792587
 20
49.95700539242245
 10
435.9104463792586
 20
45.48905539242259
 42
0.2679491924309744
 10
436.1604463792586
 20
45.05604139242246
 42
-1.303223041599819
  0
LWPOLYLINE
  5
6E
100
AcDbEntity
  8
0
  6
ByLayer
 62
    0
370
   -1
100
AcDbPolyline
 90
   16
 70
    1
 43
0
 10
452.5394633792587
 20
35.45299839242244
 42
0.2679491924309894
 10
452.9724753792585
 20
35.70299839242244
 42
-1.303223041600266
 10
453.6554893792586
 20
35.0199863924226
 42
0.2679482664650337
 10
453.4054913792586
 20
34.58697439242246
 10
453.4054883792586
 20
33.01910439242249
 42
0.2679491924309774
 10
453.6554883792585
 20
32.58609039242259
 42
-1.303223041600601
 10
452.9724773792585
 20
31.90307639242246
 42
0.2679482617889549
 10
452.5394653792587
 20
32.15307539242258
 10
448.0715153792586
 20
32.15307839242246
 42
0.2679491924310053
 10
447.6385023792585
 20
31.90307839242269
 42
-1.303223041600361
 10
446.9554883792587
 20
32.58609039242259
 42
0.2679482664659588
 10
447.2054873792587
 20
33.0191023924225
 10
447.2054903792587
 20
34.58696939242259
 42
0.2679491924309777
 10
446.9554903792587
 20
35.01998239242255
 42
-1.303223041599896
 10
447.6385013792586
 20
35.70299639242256
 42
0.2679482664649647
 10
448.0715133792586
 20
35.45299839242244
  0
LWPOLYLINE
  5
6F
100
AcDbEntity
  8
0
  6
ByLayer
 62
    0
370
   -1
100
AcDbPolyline
 90
   16
 70
    1
 43
0
 10
462.5554483792587
 20
156.7319703924225
 10
462.5554453792587
 20
152.2640203924226
 42
0.2679491924309591
 10
462.8054453792587
 20
151.8310063924225
 42
-1.303223041599801
 10
462.1224333792585
 20
151.1479923924224
 42
0.2679482664650708
 10
461.6894213792585
 20
151.3979913924225
 10
460.1215543792587
 20
151.3979943924224
 42
0.2679491924310012
 10
459.6885413792586
 20
151.1479943924224
 42
-1.303223041600162
 10
459.0055273792585
 20
151.8310063924223
 42
0.2679482664660847
 10
459.2555263792586
 20
152.2640183924225
 10
459.2555263792585
 20
156.7319683924225
 42
0.267949192431024
 10
459.0055263792585
 20
157.1649803924225
 42
-1.303223041600077
 10
459.6885373792586
 20
157.8479943924225
 42
0.2679482664660009
 10
460.1215493792587
 20
157.5979963924225
 10
461.6894203792585
 20
157.5979933924226
 42
0.2679491924309598
 10
462.1224323792587
 20
157.8479933924226
 42
-1.303223041600067
 10
462.8054463792587
 20
157.1649823924226
 42
0.2679482664649657
  0
LWPOLYLINE
  5
70
100
AcDbEntity
  8
0
  6
ByLayer
 62
    0
370
   -1
100
AcDbPolyline
 90
   16
 70
    1
 43
0
 10
462.5554483792587
 20
177.9319693924225
 10
462.5554453792587
 20
173.4640193924225
 42
0.2679491924310123
 10
462.8054453792587
 20
173.0310063924224
 42
-1.303223041599849
 10
462.1224333792585
 20
172.3479923924224
 42
0.2679482664650008
 10
461.6894213792585
 20
172.5979913924225
 10
460.1215543792587
 20
172.5979943924226
 42
0.2679491924310012
 10
459.6885413792586
 20
172.3479943924226
 42
-1.303223041599786
 10
459.0055273792585
 20
173.0310053924225
 42
0.2679482664660647
 10
459.2555263792586
 20
173.4640173924225
 10
459.2555263792585
 20
177.9319673924225
 42
0.2679491924310272
 10
459.0055263792585
 20
178.3649803924226
 42
-1.30322304159999
 10
459.6885373792585
 20
179.0479943924225
 42
0.267948266465038
 10
460.1215493792587
 20
178.7979963924225
 10
461.6894203792585
 20
178.7979933924225
 42
0.2679491924309284
 10
462.1224323792584
 20
179.0479933924225
 42
-1.303223041599763
 10
462.8054463792587
 20
178.3649813924226
 42
0.2679482664650261
  0
LWPOLYLINE
  5
71
100
AcDbEntity
  8
0
  6
ByLayer
 62
    0
370
   -1
100
AcDbPolyline
 90
   16
 70
    1
 43
0
 10
462.1224533792587
 20
284.8980753924226
 42
-1.303223041599967
 10
462.8054673792586
 20
284.2150643924225
 42
0.267948266464988
 10
462.5554693792586
 20
283.7820523924224
 10
462.5554663792586
 20
279.3141023924225
 42
0.2679491924309739
 10
462.8054663792586
 20
278.8810883924225
 42
-1.303223041598571
 10
462.1224543792588
 20
278.1980743924225
 42
0.2679482664650892
 10
461.6894423792586
 20
278.4480733924224
 10
460.1215753792586
 20
278.4480763924225
 42
0.2679491924309841
 10
459.6885623792584
 20
278.1980763924225
 42
-1.30322304159992
 10
459.0055483792586
 20
278.8810883924227
 42
0.2679482664649078
 10
459.2555473792585
 20
279.3141003924225
 10
459.2555473792586
 20
283.7820503924224
 42
0.2679491924309747
 10
459.0055473792586
 20
284.2150623924225
 42
-1.303223041600068
 10
459.6885583792587
 20
284.8980763924226
 42
0.2679482664649909
 10
460.1215703792586
 20
284.6480783924225
 10
461.6894413792586
 20
284.6480753924226
 42
0.2679491924309884
  0
LWPOLYLINE
  5
72
100
AcDbEntity
  8
0
  6
ByLayer
 62
    0
370
   -1
100
AcDbPolyline
 90
   16
 70
    1
 43
0
 10
462.8054673792586
 20
305.4150633924224
 42
0.2679482664650139
 10
462.5554693792586
 20
304.9820513924226
 10
462.5554663792586
 20
300.5141013924225
 42
0.2679491924309704
 10
462.8054663792586
 20
300.0810883924225
 42
-1.303223041599247
 10
462.1224543792588
 20
299.3980743924226
 42
0.2679482664649598
 10
461.6894423792586
 20
299.6480733924226
 10
460.1215753792586
 20
299.6480763924226
 42
0.267949192431021
 10
459.6885623792584
 20
299.3980763924225
 42
-1.303223041599849
 10
459.0055483792586
 20
300.0810873924229
 42
0.2679482664649342
 10
459.2555473792585
 20
300.5140993924226
 10
459.2555473792586
 20
304.9820493924225
 42
0.2679491924309815
 10
459.0055473792586
 20
305.4150623924224
 42
-1.303223041600176
 10
459.6885583792587
 20
306.0980763924227
 42
0.2679482664650261
 10
460.1215703792586
 20
305.8480783924226
 10
461.6894413792586
 20
305.8480753924227
 42
0.2679491924309472
 10
462.1224533792586
 20
306.0980753924226
 42
-1.303223041600296
  0
LWPOLYLINE
  5
73
100
AcDbEntity
  8
0
  6
ByLayer
 62
    0
370
   -1
100
AcDbPolyline
 90
   16
 70
    1
 43
0
 10
397.2054193792586
 20
104.2320143924225
 10
397.2054223792586
 20
102.6641463924226
 42
-0.2679491924309667
 10
396.9554223792586
 20
102.2311333924225
 42
1.303223041600306
 10
397.6384343792587
 20
101.5481193924224
 42
-0.2679482664650444
 10
398.0714463792586
 20
101.7981183924225
 10
402.5393953792586
 20
101.7981183924225
 42
-0.267949192430986
 10
402.9724083792587
 20
101.5481183924225
 42
1.303223041600172
 10
403.6554223792585
 20
102.2311303924226
 42
-0.2679482664650212
 10
403.4054243792585
 20
102.6641423924225
 10
403.4054213792587
 20
104.2320123924225
 42
-0.26794919243096
 10
403.6554213792587
 20
104.6650243924226
 42
1.3032230415998
 10
402.9724093792587
 20
105.3480383924225
 42
-0.2679482664649352
 10
402.5393973792586
 20
105.0980403924225
 10
398.0714473792586
 20
105.0980373924225
 42
-0.2679491924309698
 10
397.6384343792588
 20
105.3480373924225
 42
1.303223041600077
 10
396.9554203792586
 20
104.6650263924226
 42
-0.267948266466041
  0
LWPOLYLINE
  5
74
100
AcDbEntity
  8
0
  6
ByLayer
 62
    0
370
   -1
100
AcDbPolyline
 90
   16
 70
    1
 43
0
 10
418.4054183792587
 20
104.2320143924225
 10
418.4054213792587
 20
102.6641463924226
 42
-0.2679491924309667
 10
418.1554213792587
 20
102.2311333924225
 42
1.303223041600172
 10
418.8384333792586
 20
101.5481193924224
 42
-0.2679482664649736
 10
419.2714453792587
 20
101.7981183924225
 10
423.7393953792587
 20
101.7981183924225
 42
-0.2679491924309741
 10
424.1724073792586
 20
101.5481183924225
 42
1.303223041600106
 10
424.8554213792586
 20
102.2311303924226
 42
-0.2679482617889701
 10
424.6054233792588
 20
102.6641423924225
 10
424.6054203792586
 20
104.2320123924225
 42
-0.26794919243096
 10
424.8554203792586
 20
104.6650243924226
 42
1.303223041600553
 10
424.1724093792586
 20
105.3480383924225
 42
-0.2679482664649799
 10
423.7393973792587
 20
105.0980403924225
 10
419.2714473792587
 20
105.0980373924225
 42
-0.2679491924310384
 10
418.8384333792585
 20
105.3480373924225
 42
1.303223041600486
 10
418.1554193792587
 20
104.6650263924225
 42
-0.267948266464875
  0
LWPOLYLINE
  5
75
100
AcDbEntity
  8
0
  6
ByLayer
 62
    0
370
   -1
100
AcDbPolyline
 90
   16
 70
    1
 43
0
 10
298.8384933792587
 20
105.3479943924225
 42
0.2679482664650145
 10
299.2715053792587
 20
105.0979963924225
 10
303.7394553792586
 20
105.0979963924225
 42
0.2679491924309136
 10
304.1724673792585
 20
105.3479963924225
 42
-1.303223041599658
 10
304.8554813792587
 20
104.6649853924225
 42
0.2679482664649657
 10
304.6054833792587
 20
104.2319733924224
 10
304.6054803792587
 20
102.6641023924226
 42
0.267949192430988
 10
304.8554803792587
 20
102.2310893924225
 42
-1.303223041599606
 10
304.1724693792586
 20
101.5480753924224
 42
0.2679482664650262
 10
303.7394573792586
 20
101.7980743924224
 10
299.2715073792585
 20
101.7980773924224
 42
0.2679491924310295
 10
298.8384933792588
 20
101.5480773924224
 42
-1.303223041599667
 10
298.1554793792586
 20
102.2310893924223
 42
0.2679482664661018
 10
298.4054783792587
 20
102.6641013924226
 10
298.4054813792586
 20
104.2319683924225
 42
0.2679491924309602
 10
298.1554813792586
 20
104.6649803924226
 42
-1.303223041600605
  0
LWPOLYLINE
  5
76
100
AcDbEntity
  8
0
  6
ByLayer
 62
    0
370
   -1
100
AcDbPolyline
 90
   16
 70
    1
 43
0
 10
282.9724683792586
 20
105.3479963924225
 42
-1.303223041599952
 10
283.6554823792586
 20
104.6649853924226
 42
0.2679482664650205
 10
283.4054843792586
 20
104.2319733924224
 10
283.4054813792586
 20
102.6641023924226
 42
0.2679491924309945
 10
283.6554813792586
 20
102.2310893924225
 42
-1.303223041599638
 10
282.9724693792586
 20
101.5480753924224
 42
0.2679482664650218
 10
282.5394573792587
 20
101.7980743924224
 10
278.0715073792586
 20
101.7980773924224
 42
0.2679491924310386
 10
277.6384943792586
 20
101.5480773924224
 42
-1.30322304159999
 10
276.9554803792587
 20
102.2310893924225
 42
0.2679482664660171
 10
277.2054793792588
 20
102.6641013924226
 10
277.2054823792587
 20
104.2319683924225
 42
0.2679491924309536
 10
276.9554823792587
 20
104.6649803924226
 42
-1.303223041599835
 10
277.6384943792586
 20
105.3479943924225
 42
0.2679482664650106
 10
278.0715063792586
 20
105.0979963924225
 10
282.5394553792586
 20
105.0979963924225
 42
0.267949192430997
  0
LWPOLYLINE
  5
77
100
AcDbEntity
  8
0
  6
ByLayer
 62
    0
370
   -1
100
AcDbPolyline
 90
   16
 70
    1
 43
0
 10
122.9724733792586
 20
101.5480753924224
 42
0.2679482664650205
 10
122.5394613792586
 20
101.7980743924224
 10
118.0715113792586
 20
101.7980773924224
 42
0.2679491924309872
 10
117.6384983792587
 20
101.5480773924224
 42
-1.303223041600053
 10
116.9554843792585
 20
102.2310893924225
 42
0.2679482664650335
 10
117.2054833792586
 20
102.6641013924226
 10
117.2054863792586
 20
104.2319683924225
 42
0.2679491924309766
 10
116.9554863792585
 20
104.6649803924226
 42
-1.303223041599964
 10
117.6384973792585
 20
105.3479943924225
 42
0.2679482664659688
 10
118.0715093792586
 20
105.0979963924225
 10
122.5394593792586
 20
105.0979963924225
 42
0.2679491924310125
 10
122.9724713792586
 20
105.3479963924225
 42
-1.303223041599903
 10
123.6554853792587
 20
104.6649853924226
 42
0.2679482664649921
 10
123.4054873792586
 20
104.2319733924224
 10
123.4054843792586
 20
102.6641023924226
 42
0.2679491924310144
 10
123.6554843792586
 20
102.2310893924225
 42
-1.303223041599964
  0
LWPOLYLINE
  5
78
100
AcDbEntity
  8
0
  6
ByLayer
 62
    0
370
   -1
100
AcDbPolyline
 90
   16
 70
    1
 43
0
 10
138.4054853792586
 20
104.2319683924225
 42
0.2679491924309569
 10
138.1554853792586
 20
104.6649803924226
 42
-1.303223041600229
 10
138.8384973792586
 20
105.3479943924225
 42
0.2679482664649976
 10
139.2715093792586
 20
105.0979963924225
 10
143.7394583792586
 20
105.0979963924225
 42
0.267949192430976
 10
144.1724713792587
 20
105.3479963924225
 42
-1.303223041599937
 10
144.8554853792587
 20
104.6649853924226
 42
0.2679482664650234
 10
144.6054873792586
 20
104.2319733924224
 10
144.6054843792586
 20
102.6641023924226
 42
0.2679491924309954
 10
144.8554843792586
 20
102.2310893924225
 42
-1.303223041599659
 10
144.1724723792587
 20
101.5480753924224
 42
0.2679482664650077
 10
143.7394603792586
 20
101.7980743924224
 10
139.2715103792586
 20
101.7980773924224
 42
0.2679491924310108
 10
138.8384973792587
 20
101.5480773924224
 42
-1.303223041600045
 10
138.1554833792585
 20
102.2310893924225
 42
0.2679482664660052
 10
138.4054823792587
 20
102.6641013924226
  0
LWPOLYLINE
  5
79
100
AcDbEntity
  8
0
  6
ByLayer
 62
    0
370
   -1
100
AcDbPolyline
 90
   16
 70
    1
 43
0
 10
116.9554843792586
 20
161.1243283924225
 42
0.2679482664650037
 10
117.2054833792586
 20
161.5573403924226
 10
117.2054863792586
 20
163.1252073924225
 42
0.2679491924310077
 10
116.9554863792586
 20
163.5582203924226
 42
-1.303223041599833
 10
117.6384973792584
 20
164.2412343924226
 42
0.2679482664649961
 10
118.0715093792586
 20
163.9912363924226
 10
122.5394593792586
 20
163.9912363924226
 42
0.2679491924310086
 10
122.9724713792586
 20
164.2412363924226
 42
-1.303223041599689
 10
123.6554853792586
 20
163.5582243924225
 42
0.2679482664649807
 10
123.4054873792586
 20
163.1252123924225
 10
123.4054843792586
 20
161.5573423924226
 42
0.2679491924309605
 10
123.6554843792587
 20
161.1243283924225
 42
-1.303223041599911
 10
122.9724733792587
 20
160.4413143924225
 42
0.2679482617889135
 10
122.5394613792586
 20
160.6913133924224
 10
118.0715113792586
 20
160.6913163924225
 42
0.2679491924309834
 10
117.6384983792587
 20
160.4413163924225
 42
-1.303223041599961
  0
LWPOLYLINE
  5
7A
100
AcDbEntity
  8
0
  6
ByLayer
 62
    0
370
   -1
100
AcDbPolyline
 90
   16
 70
    1
 43
0
 10
144.1724723792586
 20
160.4413143924225
 42
0.2679482664649652
 10
143.7394603792586
 20
160.6913133924224
 10
139.2715103792586
 20
160.6913163924225
 42
0.2679491924309132
 10
138.8384973792588
 20
160.4413163924226
 42
-1.303223041600128
 10
138.1554833792586
 20
161.1243283924223
 42
0.2679482664660757
 10
138.4054823792587
 20
161.5573403924226
 10
138.4054853792586
 20
163.1252073924225
 42
0.2679491924310377
 10
138.1554853792586
 20
163.5582203924226
 42
-1.30322304160001
 10
138.8384973792586
 20
164.2412343924226
 42
0.2679482664650218
 10
139.2715093792586
 20
163.9912363924226
 10
143.7394583792586
 20
163.9912363924226
 42
0.2679491924309881
 10
144.1724713792586
 20
164.2412363924226
 42
-1.303223041600144
 10
144.8554853792586
 20
163.5582243924225
 42
0.2679482664650305
 10
144.6054873792586
 20
163.1252123924225
 10
144.6054843792586
 20
161.5573423924226
 42
0.2679491924310493
 10
144.8554843792585
 20
161.1243283924223
 42
-1.303223041600027
  0
LWPOLYLINE
  5
7B
100
AcDbEntity
  8
0
  6
ByLayer
 62
    0
370
   -1
100
AcDbPolyline
 90
   16
 70
    1
 43
0
 10
117.6384983792587
 20
290.4730473924226
 42
-1.303223041599944
 10
116.9554843792585
 20
291.1560593924224
 42
0.2679482664649793
 10
117.2054833792586
 20
291.5890713924225
 10
117.2054863792586
 20
293.1569383924225
 42
0.2679491924310286
 10
116.9554863792586
 20
293.5899513924227
 42
-1.303223041599384
 10
117.6384973792585
 20
294.2729653924226
 42
0.2679482664649857
 10
118.0715093792586
 20
294.0229673924226
 10
122.5394593792586
 20
294.0229673924226
 42
0.2679491924310269
 10
122.9724713792588
 20
294.2729673924227
 42
-1.303223041600033
 10
123.6554853792586
 20
293.5899553924224
 42
0.2679482664650006
 10
123.4054873792586
 20
293.1569433924226
 10
123.4054843792586
 20
291.5890733924225
 42
0.2679491924309948
 10
123.6554843792586
 20
291.1560593924224
 42
-1.303223041600031
 10
122.9724733792587
 20
290.4730453924226
 42
0.2679482617890608
 10
122.5394613792586
 20
290.7230443924225
 10
118.0715113792586
 20
290.7230473924226
 42
0.2679491924309834
  0
LWPOLYLINE
  5
7C
100
AcDbEntity
  8
0
  6
ByLayer
 62
    0
370
   -1
100
AcDbPolyline
 90
   16
 70
    1
 43
0
 10
138.1554833792586
 20
291.1560593924224
 42
0.2679482664650009
 10
138.4054823792586
 20
291.5890713924225
 10
138.4054853792586
 20
293.1569383924225
 42
0.2679491924309829
 10
138.1554853792586
 20
293.5899513924228
 42
-1.30322304159973
 10
138.8384973792584
 20
294.2729653924227
 42
0.267948266465019
 10
139.2715093792586
 20
294.0229673924227
 10
143.7394583792586
 20
294.0229673924226
 42
0.2679491924309972
 10
144.1724713792586
 20
294.2729673924226
 42
-1.303223041600145
 10
144.8554853792586
 20
293.5899553924224
 42
0.2679482664650027
 10
144.6054873792586
 20
293.1569433924226
 10
144.6054843792586
 20
291.5890733924225
 42
0.2679491924309665
 10
144.8554843792586
 20
291.1560593924224
 42
-1.30322304159982
 10
144.1724723792586
 20
290.4730453924226
 42
0.2679482664649795
 10
143.7394603792586
 20
290.7230443924226
 10
139.2715103792586
 20
290.7230473924226
 42
0.2679491924309548
 10
138.8384973792588
 20
290.4730473924226
 42
-1.303223041600142
  0
LWPOLYLINE
  5
7D
100
AcDbEntity
  8
0
  6
ByLayer
 62
    0
370
   -1
100
AcDbPolyline
 90
   16
 70
    1
 43
0
 10
123.6554853792586
 20
355.0149853924225
 42
0.2679482664649845
 10
123.4054873792586
 20
354.5819733924225
 10
123.4054843792586
 20
353.0141033924225
 42
0.2679491924310385
 10
123.6554843792586
 20
352.5810903924224
 42
-1.303223041600094
 10
122.9724733792587
 20
351.8980763924225
 42
0.2679482664650122
 10
122.5394613792586
 20
352.1480753924225
 10
118.0715113792586
 20
352.1480783924225
 42
0.2679491924309917
 10
117.6384983792587
 20
351.8980783924225
 42
-1.303223041600182
 10
116.9554843792586
 20
352.5810893924225
 42
0.2679482664649704
 10
117.2054833792586
 20
353.0141013924225
 10
117.2054863792586
 20
354.5819693924225
 42
0.2679491924309859
 10
116.9554863792586
 20
355.0149813924223
 42
-1.303223041600123
 10
117.6384973792585
 20
355.6979953924224
 42
0.2679482664650042
 10
118.0715093792586
 20
355.4479973924226
 10
122.5394593792586
 20
355.4479973924225
 42
0.2679491924310262
 10
122.9724713792588
 20
355.6979973924226
 42
-1.303223041600018
  0
LWPOLYLINE
  5
7E
100
AcDbEntity
  8
0
  6
ByLayer
 62
    0
370
   -1
100
AcDbPolyline
 90
   16
 70
    1
 43
0
 10
138.8384973792587
 20
351.8980783924225
 42
-1.303223041599934
 10
138.1554833792586
 20
352.5810893924225
 42
0.2679482664650009
 10
138.4054823792586
 20
353.0141013924225
 10
138.4054853792586
 20
354.5819693924225
 42
0.2679491924309904
 10
138.1554853792586
 20
355.0149813924224
 42
-1.303223041600149
 10
138.8384973792584
 20
355.6979953924224
 42
0.2679482664650257
 10
139.2715093792586
 20
355.4479973924225
 10
143.7394583792586
 20
355.4479973924225
 42
0.2679491924309972
 10
144.1724713792586
 20
355.6979973924225
 42
-1.303223041600146
 10
144.8554853792586
 20
355.0149853924225
 42
0.2679482664650092
 10
144.6054873792586
 20
354.5819733924225
 10
144.6054843792586
 20
353.0141033924225
 42
0.2679491924309776
 10
144.8554843792586
 20
352.5810903924225
 42
-1.303223041599885
 10
144.1724723792587
 20
351.8980763924225
 42
0.2679482664650028
 10
143.7394603792586
 20
352.1480753924225
 10
139.2715103792586
 20
352.1480783924225
 42
0.2679491924309608
  0
LWPOLYLINE
  5
7F
100
AcDbEntity
  8
0
  6
ByLayer
 62
    0
370
   -1
100
AcDbPolyline
 90
   16
 70
    1
 43
0
 10
276.9554803792587
 20
352.5810893924225
 42
0.2679482664649976
 10
277.2054793792587
 20
353.0141013924225
 10
277.2054823792587
 20
354.5819693924225
 42
0.2679491924309923
 10
276.9554823792587
 20
355.0149813924224
 42
-1.30322304160011
 10
277.6384943792586
 20
355.6979953924225
 42
0.2679482664649833
 10
278.0715063792586
 20
355.4479973924225
 10
282.5394553792586
 20
355.4479973924225
 42
0.2679491924309798
 10
282.9724683792585
 20
355.6979973924225
 42
-1.303223041600132
 10
283.6554823792586
 20
355.0149853924224
 42
0.2679482664649961
 10
283.4054843792586
 20
354.5819733924225
 10
283.4054813792586
 20
353.0141033924225
 42
0.2679491924309759
 10
283.6554813792586
 20
352.5810903924225
 42
-1.303223041599934
 10
282.9724693792585
 20
351.8980763924225
 42
0.2679482664649972
 10
282.5394573792587
 20
352.1480753924225
 10
278.0715073792586
 20
352.1480783924225
 42
0.2679491924310215
 10
277.6384943792586
 20
351.8980783924225
 42
-1.303223041600081
  0
LWPOLYLINE
  5
80
100
AcDbEntity
  8
0
  6
ByLayer
 62
    0
370
   -1
100
AcDbPolyline
 90
   16
 70
    1
 43
0
 10
304.1724693792586
 20
351.8980763924225
 42
0.2679482664649978
 10
303.7394573792586
 20
352.1480753924225
 10
299.2715073792585
 20
352.1480783924225
 42
0.2679491924309941
 10
298.8384933792587
 20
351.8980783924225
 42
-1.303223041599848
 10
298.1554793792586
 20
352.5810893924225
 42
0.2679482664649997
 10
298.4054783792586
 20
353.0141013924225
 10
298.4054813792586
 20
354.5819693924225
 42
0.2679491924309954
 10
298.1554813792586
 20
355.0149813924224
 42
-1.303223041600195
 10
298.8384933792585
 20
355.6979953924224
 42
0.2679482664650223
 10
299.2715053792587
 20
355.4479973924225
 10
303.7394553792586
 20
355.4479973924226
 42
0.2679491924310153
 10
304.1724673792586
 20
355.6979973924225
 42
-1.30322304159991
 10
304.8554813792587
 20
355.0149853924225
 42
0.2679482664649654
 10
304.6054833792587
 20
354.5819733924225
 10
304.6054803792587
 20
353.0141033924225
 42
0.2679491924309973
 10
304.8554803792587
 20
352.5810903924224
 42
-1.303223041599988
  0
LWPOLYLINE
  5
81
100
AcDbEntity
  8
0
  6
ByLayer
 62
    0
370
   -1
100
AcDbPolyline
 90
   16
 70
    1
 43
0
 10
403.6554223792585
 20
352.5811293924225
 42
-0.2679482664650031
 10
403.4054243792586
 20
353.0141413924225
 10
403.4054213792587
 20
354.5820113924225
 42
-0.2679491924309828
 10
403.6554213792587
 20
355.0150243924228
 42
1.3032230415999
 10
402.9724093792587
 20
355.6980383924226
 42
-0.2679482664649595
 10
402.5393973792586
 20
355.4480403924225
 10
398.0714473792586
 20
355.4480373924226
 42
-0.2679491924309546
 10
397.6384343792588
 20
355.6980373924227
 42
1.303223041599954
 10
396.9554203792586
 20
355.0150253924224
 42
-0.2679482664650841
 10
397.2054193792587
 20
354.5820133924225
 10
397.2054223792586
 20
353.0141463924225
 42
-0.2679491924309624
 10
396.9554223792586
 20
352.5811323924226
 42
1.303223029820147
 10
397.6384343792586
 20
351.8981183924226
 42
-0.2679482664649943
 10
398.0714463792586
 20
352.1481173924225
 10
402.5393953792586
 20
352.1481173924225
 42
-0.2679491924310143
 10
402.9724083792587
 20
351.8981173924226
 42
1.303223041600035
  0
LWPOLYLINE
  5
82
100
AcDbEntity
  8
0
  6
ByLayer
 62
    0
370
   -1
100
AcDbPolyline
 90
   16
 70
    1
 43
0
 10
423.7393953792587
 20
352.1481173924225
 42
-0.2679491924309741
 10
424.1724073792586
 20
351.8981173924225
 42
1.303223041600148
 10
424.8554213792586
 20
352.5811293924224
 42
-0.2679482664649922
 10
424.6054233792588
 20
353.0141413924225
 10
424.6054203792586
 20
354.5820113924225
 42
-0.2679491924309442
 10
424.8554203792586
 20
355.0150243924226
 42
1.303223041600276
 10
424.1724093792586
 20
355.6980383924225
 42
-0.2679482664649226
 10
423.7393973792587
 20
355.4480403924226
 10
419.2714473792587
 20
355.4480373924225
 42
-0.267949192431012
 10
418.8384333792586
 20
355.6980373924225
 42
1.303223041600132
 10
418.1554193792587
 20
355.0150253924223
 42
-0.2679482664649427
 10
418.4054183792584
 20
354.5820133924225
 10
418.4054213792587
 20
353.0141463924225
 42
-0.2679491924309739
 10
418.1554213792587
 20
352.5811323924225
 42
1.303223041599735
 10
418.8384333792585
 20
351.8981183924226
 42
-0.2679482664650211
 10
419.2714453792587
 20
352.1481173924226
  0
LWPOLYLINE
  5
83
100
AcDbEntity
  8
0
  6
ByLayer
 62
    0
370
   -1
100
AcDbPolyline
 90
   16
 70
    1
 43
0
 10
473.7394623792586
 20
35.45299839242244
 42
0.2679491924309708
 10
474.1724753792587
 20
35.70299839242244
 42
-1.303223041600295
 10
474.8554893792585
 20
35.0199863924226
 42
0.2679482664650337
 10
474.6054913792585
 20
34.58697439242246
 10
474.6054883792585
 20
33.01910439242249
 42
0.2679491924310353
 10
474.8554883792585
 20
32.58609039242225
 42
-1.303223041599324
 10
474.1724763792586
 20
31.90307639242235
 42
0.2679482664650028
 10
473.7394643792586
 20
32.15307539242258
 10
469.2715143792586
 20
32.15307839242246
 42
0.2679491924309851
 10
468.8385013792588
 20
31.90307839242246
 42
-1.303223041600154
 10
468.1554873792586
 20
32.58609039242253
 42
0.2679482664660005
 10
468.4054863792587
 20
33.0191023924225
 10
468.4054893792586
 20
34.58696939242259
 42
0.2679491924310567
 10
468.1554893792586
 20
35.01998239242249
 42
-1.30322304159983
 10
468.8385013792588
 20
35.70299639242245
 42
0.2679482664650023
 10
469.2715133792585
 20
35.45299839242244
  0
LWPOLYLINE
  5
84
100
AcDbEntity
  8
0
  6
ByLayer
 62
    0
370
   -1
100
AcDbPolyline
 90
   63
 70
    0
 43
0
 10
485.9054893792586
 20
403.6230363924225
 10
485.9054893792586
 20
423.6230323924225
 42
0.4142137003890045
 10
480.9054893792586
 20
428.6230273924225
 10
429.5554893792587
 20
428.6230273924225
 42
-0.3419984508480001
 10
421.8095223792586
 20
422.6230333924225
 10
128.6514543792586
 20
422.6230313924225
 42
-0.3419983241319998
 10
120.9055043792586
 20
428.6230273924225
 10
105.9054883792586
 20
428.6230273924225
 10
105.9054883792586
 20
418.6230373924225
 10
108.1395083792586
 20
418.6230373924225
 42
0.2679491924309955
 10
108.5725213792586
 20
418.8730373924225
 42
-1.303223041599757
 10
109.2555353792586
 20
418.1900253924223
 42
0.2679482664650015
 10
109.0055373792586
 20
417.7570133924225
 10
109.0055343792586
 20
394.3980413924225
 10
112.0055053792586
 20
394.3980413924225
 10
112.0055053792586
 20
395.6730363924225
 10
116.0055343792586
 20
395.6730363924225
 10
116.0055343792586
 20
394.3980413924225
 10
119.0055343792586
 20
394.3980413924225
 10
119.0055343792586
 20
391.1980303924225
 10
116.0055343792586
 20
391.1980303924225
 10
116.0055343792586
 20
389.9230363924225
 10
112.0055053792586
 20
389.9230363924225
 10
112.0055053792586
 20
391.1980303924225
 10
109.0055343792586
 20
391.1980303924225
 10
109.0055343792586
 20
367.8390603924225
 42
0.2679491924310038
 10
109.2555343792586
 20
367.4060463924225
 42
-1.303223041599986
 10
108.5725223792587
 20
366.7230323924225
 42
0.2679482664650179
 10
108.1395103792586
 20
366.9730313924225
 10
105.9054883792586
 20
366.9730343924225
 10
105.9054883792586
 20
90.27303539242246
 10
108.1395083792586
 20
90.27303539242246
 42
0.267949192430946
 10
108.5725213792586
 20
90.52303539242246
 42
-1.303223041600031
 10
109.2555353792586
 20
89.84002339242249
 42
0.267948266464986
 10
109.0055373792586
 20
89.40701139242248
 10
109.0055343792586
 20
66.04803939242248
 10
112.0055053792586
 20
66.04803939242248
 10
112.0055053792586
 20
67.32303339242247
 10
116.0055343792586
 20
67.32303339242247
 10
116.0055343792586
 20
66.04803939242248
 10
119.0055343792586
 20
66.04803939242248
 10
119.0055343792586
 20
62.84802839242258
 10
116.0055343792586
 20
62.84802839242258
 10
116.0055343792586
 20
61.57303339242247
 10
112.0055053792586
 20
61.57303339242247
 10
112.0055053792586
 20
62.84802839242258
 10
109.0055343792586
 20
62.84802839242258
 10
109.0055343792586
 20
39.48905839242258
 42
0.2679491924310227
 10
109.2555343792585
 20
39.05604439242239
 42
-1.303223041599997
 10
108.5725223792586
 20
38.37303039242249
 42
0.2679482664650225
 10
108.1395103792586
 20
38.6230293924225
 10
105.9054883792586
 20
38.62303239242249
 10
105.9054883792586
 20
28.62304239242246
 10
120.9055033792585
 20
28.62304239242246
 42
-0.3419983241320019
 10
128.6514543792586
 20
34.62302239242246
 10
421.8095223792586
 20
34.62303939242258
 42
-0.3419984508480038
 10
429.5554893792587
 20
28.62304239242246
 10
480.9054893792586
 20
28.62304239242246
 42
0.4142137003890055
 10
485.9054893792586
 20
33.62303739242259
 10
485.9054893792586
 20
53.62303339242254
 10
483.9054893792586
 20
55.62303739242259
 10
483.9056283792586
 20
401.6231693924225
 10
485.9056283792586
 20
403.6231733924225
  0
LWPOLYLINE
  5
85
100
AcDbEntity
  8
0
  6
ByLayer
 62
    0
370
   -1
100
AcDbPolyline
 90
    2
 70
    0
 43
0
 10
105.9054883792586
 20
90.27303539242246
 10
105.9054883792586
 20
90.28194739242258
  0
LWPOLYLINE
  5
86
100
AcDbEntity
  8
0
  6
ByLayer
 62
    0
370
   -1
100
AcDbPolyline
 90
   16
 70
    1
 43
0
 10
467.9054883792586
 20
235.3489453924225
 42
0.2914636959410068
 10
466.7507893792587
 20
237.1615303924226
 10
453.9357423792586
 20
243.1378433924225
 42
-0.2914637668749934
 10
452.7810443792588
 20
244.9504303924225
 10
452.7810683792586
 20
340.6230373924225
 42
0.4135115436419985
 10
444.8002703792587
 20
348.6230373924225
 10
163.9054863792586
 20
348.6230373924225
 42
0.4142134452329966
 10
155.9054873792587
 20
340.6230353924225
 10
155.9055003792585
 20
116.6230343924226
 42
0.4142134449210034
 10
163.9054863792586
 20
108.6230463924225
 10
444.8002143792586
 20
108.6230343924226
 42
0.4135115436420043
 10
452.7810123792585
 20
116.6230343924226
 10
452.7810363792587
 20
212.3940723924225
 42
-0.2930389507939934
 10
453.9462713792586
 20
214.2115343924226
 10
466.7402523792587
 20
220.0878393924225
 42
0.2930390217879946
 10
467.9054883792584
 20
221.9053013924225
  0
CIRCLE
  5
87
100
AcDbEntity
  8
0
  6
ByLayer
 62
    0
370
   -1
100
AcDbCircle
 10
410.9054213792587
 20
103.4480793924226
 40
1.6
  0
CIRCLE
  5
88
100
AcDbEntity
  8
0
  6
ByLayer
 62
    0
370
   -1
100
AcDbCircle
 10
290.9054813792586
 20
103.4480353924226
 40
1.6
  0
CIRCLE
  5
89
100
AcDbEntity
  8
0
  6
ByLayer
 62
    0
370
   -1
100
AcDbCircle
 10
460.9054183792587
 20
374.4030773924225
 40
1.6
  0
CIRCLE
  5
8A
100
AcDbEntity
  8
0
  6
ByLayer
 62
    0
370
   -1
100
AcDbCircle
 10
460.9055083792587
 20
292.1480763924226
 40
1.6
  0
CIRCLE
  5
8B
100
AcDbEntity
  8
0
  6
ByLayer
 62
    0
370
   -1
100
AcDbCircle
 10
460.9054113792587
 20
423.4430773924225
 40
1.6
  0
CIRCLE
  5
8C
100
AcDbEntity
  8
0
  6
ByLayer
 62
    0
370
   -1
100
AcDbCircle
 10
460.9054893792586
 20
82.84303739242245
 40
1.6
  0
CIRCLE
  5
8D
100
AcDbEntity
  8
0
  6
ByLayer
 62
    0
370
   -1
100
AcDbCircle
 10
130.9054853792586
 20
249.8687313924225
 40
1.6
  0
CIRCLE
  5
8E
100
AcDbEntity
  8
0
  6
ByLayer
 62
    0
370
   -1
100
AcDbCircle
 10
434.2604813792585
 20
398.9230383924225
 40
1.6
  0
CIRCLE
  5
8F
100
AcDbEntity
  8
0
  6
ByLayer
 62
    0
370
   -1
100
AcDbCircle
 10
460.9054893792586
 20
33.80303639242248
 40
1.6
  0
CIRCLE
  5
90
100
AcDbEntity
  8
0
  6
ByLayer
 62
    0
370
   -1
100
AcDbCircle
 10
130.9054853792586
 20
353.7980363924225
 40
1.6
  0
CIRCLE
  5
91
100
AcDbEntity
  8
0
  6
ByLayer
 62
    0
370
   -1
100
AcDbCircle
 10
434.2604883792586
 20
58.32302939242248
 40
1.6
  0
CIRCLE
  5
92
100
AcDbEntity
  8
0
  6
ByLayer
 62
    0
370
   -1
100
AcDbCircle
 10
130.9054853792586
 20
103.4480353924226
 40
1.6
  0
CIRCLE
  5
93
100
AcDbEntity
  8
0
  6
ByLayer
 62
    0
370
   -1
100
AcDbCircle
 10
410.9054213792587
 20
353.7980783924225
 40
1.6
  0
CIRCLE
  5
94
100
AcDbEntity
  8
0
  6
ByLayer
 62
    0
370
   -1
100
AcDbCircle
 10
290.9054813792586
 20
353.7980363924225
 40
1.6
  0
CIRCLE
  5
95
100
AcDbEntity
  8
0
  6
ByLayer
 62
    0
370
   -1
100
AcDbCircle
 10
130.9054853792586
 20
162.3412743924225
 40
1.6
  0
CIRCLE
  5
96
100
AcDbEntity
  8
0
  6
ByLayer
 62
    0
370
   -1
100
AcDbCircle
 10
460.9054873792586
 20
165.0979943924226
 40
1.6
  0
CIRCLE
  5
97
100
AcDbEntity
  8
0
  6
ByLayer
 62
    0
370
   -1
100
AcDbCircle
 10
130.9054853792586
 20
292.3730053924224
 40
1.6
  0
CIRCLE
  5
98
100
AcDbEntity
  8
0
  6
ByLayer
 62
    0
370
   -1
100
AcDbCircle
 10
130.9054853792586
 20
207.3644563924225
 40
1.6
  0
ENDSEC
  0
SECTION
  2
OBJECTS
  0
DICTIONARY
  5
C
330
0
100
AcDbDictionary
281
    1
  3
ACAD_GROUP
350
D
  0
DICTIONARY
  5
D
330
C
100
AcDbDictionary
281
    1
  0
ENDSEC
  0
EOF
