999
dxfrw 0.6.3
  0
SECTION
  2
HEADER
  9
$ACADVER
  1
AC1021
  9
$DWGCODEPAGE
  3
ANSI_1252
  9
$INSBASE
 10
0
 20
0
 30
0
  9
$EXTMIN
 10
105.9054883792586
 20
28.62304239242111
 30
0
  9
$EXTMAX
 10
485.9056283792586
 20
428.6230273924239
 30
0
  9
$LIMMIN
 10
0
 20
0
  9
$LIMMAX
 10
420
 20
297
  9
$ORTHOMODE
 70
    0
  9
$REGENMODE
 70
    1
  9
$FILLMODE
 70
    1
  9
$QTEXTMODE
 70
    0
  9
$MIRRTEXT
 70
    0
  9
$LTSCALE
 40
1
  9
$ATTMODE
 70
    0
  9
$TEXTSIZE
 40
2.5
  9
$TRACEWID
 40
15.68
  9
$TEXTSTYLE
  7
STANDARD
  9
$CLAYER
  8
0
  9
$CELTYPE
  6
BYLAYER
  9
$CECOLOR
 62
  256
  9
$CELTSCALE
 40
1
  9
$DISPSILH
 70
    0
  9
$DIMSCALE
 40
2.5
  9
$DIMASZ
 40
2.5
  9
$DIMEXO
 40
0.625
  9
$DIMDLI
 40
3.75
  9
$DIMRND
 40
0
  9
$DIMDLE
 40
0
  9
$DIMEXE
 40
1.25
  9
$DIMTP
 40
0
  9
$DIMTM
 40
0
  9
$DIMTXT
 40
2.5
  9
$DIMCEN
 40
2.5
  9
$DIMTSZ
 40
0
  9
$DIMTOL
 70
    0
  9
$DIMLIM
 70
    0
  9
$DIMTIH
 70
    0
  9
$DIMTOH
 70
    0
  9
$DIMSE1
 70
    0
  9
$DIMSE2
 70
    0
  9
$DIMTAD
 70
    1
  9
$DIMZIN
 70
    8
  9
$DIMBLK
  1

  9
$DIMASO
 70
    1
  9
$DIMSHO
 70
    1
  9
$DIMPOST
  1

  9
$DIMAPOST
  1

  9
$DIMALT
 70
    0
  9
$DIMALTD
 70
    3
  9
$DIMALTF
 40
0.03937
  9
$DIMLFAC
 40
1
  9
$DIMTOFL
 70
    1
  9
$DIMTVP
 40
0
  9
$DIMTIX
 70
    0
  9
$DIMSOXD
 70
    0
  9
$DIMSAH
 70
    0
  9
$DIMBLK1
  1

  9
$DIMBLK2
  1

  9
$DIMSTYLE
  2
STANDARD
  9
$DIMCLRD
 70
    0
  9
$DIMCLRE
 70
    0
  9
$DIMCLRT
 70
    0
  9
$DIMTFAC
 40
1
  9
$DIMGAP
 40
0.625
  9
$DIMJUST
 70
    0
  9
$DIMSD1
 70
    0
  9
$DIMSD2
 70
    0
  9
$DIMTOLJ
 70
    0
  9
$DIMTZIN
 70
    8
  9
$DIMALTZ
 70
    0
  9
$DIMALTTZ
 70
    0
  9
$DIMUPT
 70
    0
  9
$DIMDEC
 70
    2
  9
$DIMTDEC
 70
    2
  9
$DIMALTU
 70
    2
  9
$DIMALTTD
 70
    3
  9
$DIMTXSTY
  7
standard
  9
$DIMAUNIT
 70
    0
  9
$DIMADEC
 70
    0
  9
$DIMALTRND
 40
0
  9
$DIMAZIN
 70
    0
  9
$DIMDSEP
 70
   44
  9
$DIMATFIT
 70
    3
  9
$DIMFRAC
 70
    0
  9
$DIMLDRBLK
  1
STANDARD
  9
$DIMLUNIT
 70
    2
  9
$DIMLWD
 70
   -2
  9
$DIMLWE
 70
   -2
  9
$DIMTMOVE
 70
    0
  9
$DIMFXL
 40
1
  9
$DIMFXLON
 70
    0
  9
$DIMJOGANG
 40
0.7854
  9
$DIMTFILL
 70
    0
  9
$DIMTFILLCLR
 70
    0
  9
$DIMARCSYM
 70
    0
  9
$DIMLTYPE
  6

  9
$DIMLTEX1
  6

  9
$DIMLTEX2
  6

  9
$LUNITS
 70
    2
  9
$LUPREC
 70
    4
  9
$SKETCHINC
 40
1
  9
$FILLETRAD
 40
0
  9
$AUNITS
 70
    0
  9
$AUPREC
 70
    2
  9
$MENU
  1
.
  9
$ELEVATION
 40
0
  9
$PELEVATION
 40
0
  9
$THICKNESS
 40
0
  9
$LIMCHECK
 70
    0
  9
$CHAMFERA
 40
0
  9
$CHAMFERB
 40
0
  9
$CHAMFERC
 40
0
  9
$CHAMFERD
 40
0
  9
$SKPOLY
 70
    0
  9
$USRTIMER
 70
    1
  9
$ANGBASE
 50
0
  9
$ANGDIR
 70
    0
  9
$PDMODE
 70
   34
  9
$PDSIZE
 40
0
  9
$PLINEWID
 40
0
  9
$SPLFRAME
 70
    0
  9
$SPLINETYPE
 70
    2
  9
$SPLINESEGS
 70
    8
  9
$HANDSEED
  5
20000
  9
$SURFTAB1
 70
    6
  9
$SURFTAB2
 70
    6
  9
$SURFTYPE
 70
    6
  9
$SURFU
 70
    6
  9
$SURFV
 70
    6
  9
$UCSBASE
  2

  9
$UCSNAME
  2

  9
$UCSORG
 10
0
 20
0
 30
0
  9
$UCSXDIR
 10
1
 20
0
 30
0
  9
$UCSYDIR
 10
0
 20
1
 30
0
  9
$UCSORTHOREF
  2

  9
$UCSORTHOVIEW
 70
    0
  9
$UCSORGTOP
 10
0
 20
0
 30
0
  9
$UCSORGBOTTOM
 10
0
 20
0
 30
0
  9
$UCSORGLEFT
 10
0
 20
0
 30
0
  9
$UCSORGRIGHT
 10
0
 20
0
 30
0
  9
$UCSORGFRONT
 10
0
 20
0
 30
0
  9
$UCSORGBACK
 10
0
 20
0
 30
0
  9
$PUCSBASE
  2

  9
$PUCSNAME
  2

  9
$PUCSORG
 10
0
 20
0
 30
0
  9
$PUCSXDIR
 10
1
 20
0
 30
0
  9
$PUCSYDIR
 10
0
 20
1
 30
0
  9
$PUCSORTHOREF
  2

  9
$PUCSORTHOVIEW
 70
    0
  9
$PUCSORGTOP
 10
0
 20
0
 30
0
  9
$PUCSORGBOTTOM
 10
0
 20
0
 30
0
  9
$PUCSORGLEFT
 10
0
 20
0
 30
0
  9
$PUCSORGRIGHT
 10
0
 20
0
 30
0
  9
$PUCSORGFRONT
 10
0
 20
0
 30
0
  9
$PUCSORGBACK
 10
0
 20
0
 30
0
  9
$USERI1
 70
    0
  9
$USERI2
 70
    0
  9
$USERI3
 70
    0
  9
$USERI4
 70
    0
  9
$USERI5
 70
    0
  9
$USERR1
 40
0
  9
$USERR2
 40
0
  9
$USERR3
 40
0
  9
$USERR4
 40
0
  9
$USERR5
 40
0
  9
$WORLDVIEW
 70
    1
  9
$SHADEDGE
 70
    3
  9
$SHADEDIF
 70
   70
  9
$TILEMODE
 70
    1
  9
$MAXACTVP
 70
   64
  9
$PINSBASE
 10
0
 20
0
 30
0
  9
$PLIMCHECK
 70
    0
  9
$PEXTMIN
 10
0
 20
0
 30
0
  9
$PEXTMAX
 10
0
 20
0
 30
0
  9
$GRIDMODE
 70
    1
  9
$SNAPSTYLE
 70
    0
  9
$GRIDUNIT
 10
0
 20
0
  9
$PLIMMIN
 10
0
 20
0
  9
$PLIMMAX
 10
1189
 20
841
  9
$UNITMODE
 70
    0
  9
$VISRETAIN
 70
    1
  9
$PLINEGEN
 70
    0
  9
$PSLTSCALE
 70
    1
  9
$TREEDEPTH
 70
 3020
  9
$CMLSTYLE
  2
Standard
  9
$CMLJUST
 70
    0
  9
$CMLSCALE
 40
20
  9
$PROXYGRAPHICS
 70
    1
  9
$MEASUREMENT
 70
    1
  9
$CELWEIGHT
370
   -1
  9
$ENDCAPS
280
    0
  9
$JOINSTYLE
280
    0
  9
$LWDISPLAY
290
    0
  9
$INSUNITS
 70
    0
  9
$HYPERLINKBASE
  1

  9
$STYLESHEET
  1

  9
$XEDIT
290
    1
  9
$CEPSNTYPE
380
    0
  9
$PSTYLEMODE
290
    1
  9
$EXTNAMES
290
    1
  9
$PSVPSCALE
 40
1
  9
$OLESTARTUP
290
    0
  9
$SORTENTS
280
  127
  9
$INDEXCTL
280
    0
  9
$HIDETEXT
280
    1
  9
$XCLIPFRAME
290
    0
  9
$HALOGAP
280
    0
  9
$OBSCOLOR
 70
  257
  9
$OBSLTYPE
280
    0
  9
$INTERSECTIONDISPLAY
280
    0
  9
$INTERSECTIONCOLOR
 70
  257
  9
$DIMASSOC
280
    1
  9
$PROJECTNAME
  1

  9
$CAMERADISPLAY
290
    0
  9
$LENSLENGTH
 40
50
  9
$CAMERAHEIGHT
 40
0
  9
$STEPSPERSEC
 40
2
  9
$STEPSIZE
 40
50
  9
$3DDWFPREC
 40
2
  9
$PSOLWIDTH
 40
5
  9
$PSOLHEIGHT
 40
80
  9
$LOFTANG1
 40
1.570796326794897
  9
$LOFTANG2
 40
1.570796326794897
  9
$LOFTMAG1
 40
0
  9
$LOFTMAG2
 40
0
  9
$LOFTPARAM
 70
    7
  9
$LOFTNORMALS
280
    1
  9
$LATITUDE
 40
1
  9
$LONGITUDE
 40
1
  9
$NORTHDIRECTION
 40
0
  9
$TIMEZONE
 70
-8000
  9
$LIGHTGLYPHDISPLAY
280
    1
  9
$TILEMODELIGHTSYNCH
280
    1
  9
$SOLIDHIST
280
    1
  9
$SHOWHIST
280
    1
  9
$DWFFRAME
280
    2
  9
$DGNFRAME
280
    0
  9
$REALWORLDSCALE
290
    1
  9
$INTERFERECOLOR
 62
    1
  9
$CSHADOW
280
    0
  9
$SHADOWPLANELOCATION
 40
0
  0
ENDSEC
  0
SECTION
  2
CLASSES
  0
ENDSEC
  0
SECTION
  2
TABLES
  0
TABLE
  2
VPORT
  5
8
330
0
100
AcDbSymbolTable
 70
    1
  0
VPORT
  5
31
330
2
100
AcDbSymbolTableRecord
100
AcDbViewportTableRecord
  2
*ACTIVE
 70
    0
 10
0
 20
0
 11
1
 21
1
 12
702.7374451903909
 22
339.4959895029377
 13
0
 23
0
 14
10
 24
10
 15
10
 25
10
 16
0
 26
0
 36
1
 17
0
 27
0
 37
0
 40
917.7301795637069
 41
1.853146853146853
 42
50
 43
0
 44
0
 50
0
 51
0
 71
    0
 72
  100
 73
    1
 74
    3
 75
    0
 76
    1
 77
    0
 78
    0
281
    0
 65
    1
110
0
120
0
130
0
111
1
121
0
131
0
112
0
122
1
132
0
 79
    0
146
0
348
10020
 60
    7
 61
    5
292
1
282
    1
141
0
142
0
 63
  250
421
3358443
  0
ENDTAB
  0
TABLE
  2
LTYPE
  5
5
330
0
100
AcDbSymbolTable
 70
    4
  0
LTYPE
  5
14
330
5
100
AcDbSymbolTableRecord
100
AcDbLinetypeTableRecord
  2
ByBlock
 70
    0
  3

 72
   65
 73
    0
 40
0
  0
LTYPE
  5
15
330
5
100
AcDbSymbolTableRecord
100
AcDbLinetypeTableRecord
  2
ByLayer
 70
    0
  3

 72
   65
 73
    0
 40
0
  0
LTYPE
  5
16
330
5
100
AcDbSymbolTableRecord
100
AcDbLinetypeTableRecord
  2
Continuous
 70
    0
  3
Solid line
 72
   65
 73
    0
 40
0
  0
LTYPE
  5
32
330
5
100
AcDbSymbolTableRecord
100
AcDbLinetypeTableRecord
  2
DOT
 70
    0
  3
Dot . . . . . . . . . . . . . . . . . . . . . .
 72
   65
 73
    2
 40
6.35
 49
0
 74
    0
 49
-6.35
 74
    0
  0
LTYPE
  5
33
330
5
100
AcDbSymbolTableRecord
100
AcDbLinetypeTableRecord
  2
DOTTINY
 70
    0
  3
Dot (.15x) .....................................
 72
   65
 73
    2
 40
0.9525
 49
0
 74
    0
 49
-0.9525
 74
    0
  0
LTYPE
  5
34
330
5
100
AcDbSymbolTableRecord
100
AcDbLinetypeTableRecord
  2
DOT2
 70
    0
  3
Dot (.5x) .....................................
 72
   65
 73
    2
 40
3.175
 49
0
 74
    0
 49
-3.175
 74
    0
  0
LTYPE
  5
35
330
5
100
AcDbSymbolTableRecord
100
AcDbLinetypeTableRecord
  2
DOTX2
 70
    0
  3
Dot (2x) .  .  .  .  .  .  .  .  .  .  .  .  .
 72
   65
 73
    2
 40
12.7
 49
0
 74
    0
 49
-12.7
 74
    0
  0
LTYPE
  5
36
330
5
100
AcDbSymbolTableRecord
100
AcDbLinetypeTableRecord
  2
DASHED
 70
    0
  3
Dashed _ _ _ _ _ _ _ _ _ _ _ _ _ _ _ _ _
 72
   65
 73
    2
 40
19.05
 49
12.7
 74
    0
 49
-6.35
 74
    0
  0
LTYPE
  5
37
330
5
100
AcDbSymbolTableRecord
100
AcDbLinetypeTableRecord
  2
DASHEDTINY
 70
    0
  3
Dashed (.15x) _ _ _ _ _ _ _ _ _ _ _ _ _ _ _ _ _
 72
   65
 73
    2
 40
2.8575
 49
1.905
 74
    0
 49
-0.9525
 74
    0
  0
LTYPE
  5
38
330
5
100
AcDbSymbolTableRecord
100
AcDbLinetypeTableRecord
  2
DASHED2
 70
    0
  3
Dashed (.5x) _ _ _ _ _ _ _ _ _ _ _ _ _ _ _ _ _
 72
   65
 73
    2
 40
9.524999999999999
 49
6.35
 74
    0
 49
-3.175
 74
    0
  0
LTYPE
  5
39
330
5
100
AcDbSymbolTableRecord
100
AcDbLinetypeTableRecord
  2
DASHEDX2
 70
    0
  3
Dashed (2x) ____  ____  ____  ____  ____  ___
 72
   65
 73
    2
 40
38.09999999999999
 49
25.4
 74
    0
 49
-12.7
 74
    0
  0
LTYPE
  5
3A
330
5
100
AcDbSymbolTableRecord
100
AcDbLinetypeTableRecord
  2
DASHDOT
 70
    0
  3
Dash dot __ . __ . __ . __ . __ . __ . __ . __
 72
   65
 73
    4
 40
25.4
 49
12.7
 74
    0
 49
-6.35
 74
    0
 49
0
 74
    0
 49
-6.35
 74
    0
  0
LTYPE
  5
3B
330
5
100
AcDbSymbolTableRecord
100
AcDbLinetypeTableRecord
  2
DASHDOTTINY
 70
    0
  3
Dash dot (.15x) _._._._._._._._._._._._._._._.
 72
   65
 73
    4
 40
3.81
 49
1.905
 74
    0
 49
-0.9525
 74
    0
 49
0
 74
    0
 49
-0.9525
 74
    0
  0
LTYPE
  5
3C
330
5
100
AcDbSymbolTableRecord
100
AcDbLinetypeTableRecord
  2
DASHDOT2
 70
    0
  3
Dash dot (.5x) _._._._._._._._._._._._._._._.
 72
   65
 73
    4
 40
12.7
 49
6.35
 74
    0
 49
-3.175
 74
    0
 49
0
 74
    0
 49
-3.175
 74
    0
  0
LTYPE
  5
3D
330
5
100
AcDbSymbolTableRecord
100
AcDbLinetypeTableRecord
  2
DASHDOTX2
 70
    0
  3
Dash dot (2x) ____  .  ____  .  ____  .  ___
 72
   65
 73
    4
 40
50.8
 49
25.4
 74
    0
 49
-12.7
 74
    0
 49
0
 74
    0
 49
-12.7
 74
    0
  0
LTYPE
  5
3E
330
5
100
AcDbSymbolTableRecord
100
AcDbLinetypeTableRecord
  2
DIVIDE
 70
    0
  3
Divide ____ . . ____ . . ____ . . ____ . . ____
 72
   65
 73
    6
 40
31.75
 49
12.7
 74
    0
 49
-6.35
 74
    0
 49
0
 74
    0
 49
-6.35
 74
    0
 49
0
 74
    0
 49
-6.35
 74
    0
  0
LTYPE
  5
3F
330
5
100
AcDbSymbolTableRecord
100
AcDbLinetypeTableRecord
  2
DIVIDETINY
 70
    0
  3
Divide (.15x) __..__..__..__..__..__..__..__.._
 72
   65
 73
    6
 40
4.7625
 49
1.905
 74
    0
 49
-0.9525
 74
    0
 49
0
 74
    0
 49
-0.9525
 74
    0
 49
0
 74
    0
 49
-0.9525
 74
    0
  0
LTYPE
  5
40
330
5
100
AcDbSymbolTableRecord
100
AcDbLinetypeTableRecord
  2
DIVIDE2
 70
    0
  3
Divide (.5x) __..__..__..__..__..__..__..__.._
 72
   65
 73
    6
 40
15.875
 49
6.35
 74
    0
 49
-3.175
 74
    0
 49
0
 74
    0
 49
-3.175
 74
    0
 49
0
 74
    0
 49
-3.175
 74
    0
  0
LTYPE
  5
41
330
5
100
AcDbSymbolTableRecord
100
AcDbLinetypeTableRecord
  2
DIVIDEX2
 70
    0
  3
Divide (2x) ________  .  .  ________  .  .  _
 72
   65
 73
    6
 40
63.5
 49
25.4
 74
    0
 49
-12.7
 74
    0
 49
0
 74
    0
 49
-12.7
 74
    0
 49
0
 74
    0
 49
-12.7
 74
    0
  0
LTYPE
  5
42
330
5
100
AcDbSymbolTableRecord
100
AcDbLinetypeTableRecord
  2
BORDER
 70
    0
  3
Border __ __ . __ __ . __ __ . __ __ . __ __ .
 72
   65
 73
    6
 40
44.45
 49
12.7
 74
    0
 49
-6.35
 74
    0
 49
12.7
 74
    0
 49
-6.35
 74
    0
 49
0
 74
    0
 49
-6.35
 74
    0
  0
LTYPE
  5
43
330
5
100
AcDbSymbolTableRecord
100
AcDbLinetypeTableRecord
  2
BORDERTINY
 70
    0
  3
Border (.15x) __.__.__.__.__.__.__.__.__.__.__.
 72
   65
 73
    6
 40
6.6675
 49
1.905
 74
    0
 49
-0.9525
 74
    0
 49
1.905
 74
    0
 49
-0.9525
 74
    0
 49
0
 74
    0
 49
-0.9525
 74
    0
  0
LTYPE
  5
44
330
5
100
AcDbSymbolTableRecord
100
AcDbLinetypeTableRecord
  2
BORDER2
 70
    0
  3
Border (.5x) __.__.__.__.__.__.__.__.__.__.__.
 72
   65
 73
    6
 40
22.225
 49
6.35
 74
    0
 49
-3.175
 74
    0
 49
6.35
 74
    0
 49
-3.175
 74
    0
 49
0
 74
    0
 49
-3.175
 74
    0
  0
LTYPE
  5
45
330
5
100
AcDbSymbolTableRecord
100
AcDbLinetypeTableRecord
  2
BORDERX2
 70
    0
  3
Border (2x) ____  ____  .  ____  ____  .  ___
 72
   65
 73
    6
 40
88.89999999999999
 49
25.4
 74
    0
 49
-12.7
 74
    0
 49
25.4
 74
    0
 49
-12.7
 74
    0
 49
0
 74
    0
 49
-12.7
 74
    0
  0
LTYPE
  5
46
330
5
100
AcDbSymbolTableRecord
100
AcDbLinetypeTableRecord
  2
CENTER
 70
    0
  3
Center ____ _ ____ _ ____ _ ____ _ ____ _ ____
 72
   65
 73
    4
 40
50.8
 49
31.75
 74
    0
 49
-6.35
 74
    0
 49
6.35
 74
    0
 49
-6.35
 74
    0
  0
LTYPE
  5
47
330
5
100
AcDbSymbolTableRecord
100
AcDbLinetypeTableRecord
  2
CENTERTINY
 70
    0
  3
Center (.15x) ___ _ ___ _ ___ _ ___ _ ___ _ ___
 72
   65
 73
    4
 40
7.619999999999999
 49
4.7625
 74
    0
 49
-0.9525
 74
    0
 49
0.9525
 74
    0
 49
-0.9525
 74
    0
  0
LTYPE
  5
48
330
5
100
AcDbSymbolTableRecord
100
AcDbLinetypeTableRecord
  2
CENTER2
 70
    0
  3
Center (.5x) ___ _ ___ _ ___ _ ___ _ ___ _ ___
 72
   65
 73
    4
 40
28.575
 49
19.05
 74
    0
 49
-3.175
 74
    0
 49
3.175
 74
    0
 49
-3.175
 74
    0
  0
LTYPE
  5
49
330
5
100
AcDbSymbolTableRecord
100
AcDbLinetypeTableRecord
  2
CENTERX2
 70
    0
  3
Center (2x) ________  __  ________  __  _____
 72
   65
 73
    4
 40
101.6
 49
63.5
 74
    0
 49
-12.7
 74
    0
 49
12.7
 74
    0
 49
-12.7
 74
    0
  0
ENDTAB
  0
TABLE
  2
LAYER
  5
2
330
0
100
AcDbSymbolTable
 70
    1
  0
LAYER
  5
10
330
2
100
AcDbSymbolTableRecord
100
AcDbLayerTableRecord
  2
0
 70
    0
 62
    7
  6
CONTINUOUS
370
   -3
390
F
  0
ENDTAB
  0
TABLE
  2
STYLE
  5
3
330
0
100
AcDbSymbolTable
 70
    3
  0
STYLE
  5
4A
330
2
100
AcDbSymbolTableRecord
100
AcDbTextStyleTableRecord
  2
Standard
 70
    0
 40
0
 41
1
 50
0
 71
    0
 42
1
  3
txt
  4

  0
ENDTAB
  0
TABLE
  2
VIEW
  5
6
330
0
100
AcDbSymbolTable
 70
    0
  0
ENDTAB
  0
TABLE
  2
UCS
  5
7
330
0
100
AcDbSymbolTable
 70
    0
  0
ENDTAB
  0
TABLE
  2
APPID
  5
9
330
0
100
AcDbSymbolTable
 70
    1
  0
APPID
  5
12
330
9
100
AcDbSymbolTableRecord
100
AcDbRegAppTableRecord
  2
ACAD
 70
    0
  0
APPID
  5
4B
330
9
100
AcDbSymbolTableRecord
100
AcDbRegAppTableRecord
  2
LibreCad
 70
    0
  0
ENDTAB
  0
TABLE
  2
DIMSTYLE
  5
A
330
0
100
AcDbSymbolTable
 70
    1
100
AcDbDimStyleTable
 71
    1
  0
DIMSTYLE
105
4C
330
A
100
AcDbSymbolTableRecord
100
AcDbDimStyleTableRecord
  2
Standard
 70
    0
 40
2.5
 41
2.5
 42
0.625
 43
0.38
 44
1.25
 45
0
 46
0
 47
0
 48
0
 49
1
140
2.5
141
0.09
142
0
143
25.4
144
1
145
0
146
1
147
0.625
148
0
 71
    0
 72
    0
 73
    0
 74
    1
 75
    0
 76
    0
 77
    0
 78
    8
 79
    0
170
    0
171
    2
172
    0
173
    0
174
    0
175
    0
176
    0
177
    0
178
    0
179
    0
271
    2
272
    4
273
    2
274
    2
275
    0
276
    0
277
    2
278
   44
279
    0
280
    0
281
    0
282
    0
283
    1
284
    0
285
    0
286
    0
288
    0
289
    3
340
standard
341

371
   -2
372
   -2
  0
ENDTAB
  0
TABLE
  2
BLOCK_RECORD
  5
1
330
0
100
AcDbSymbolTable
 70
    2
  0
BLOCK_RECORD
  5
1F
330
1
100
AcDbSymbolTableRecord
100
AcDbBlockTableRecord
  2
*Model_Space
 70
    0
280
    1
281
    0
  0
BLOCK_RECORD
  5
1E
330
1
100
AcDbSymbolTableRecord
100
AcDbBlockTableRecord
  2
*Paper_Space
 70
    0
280
    1
281
    0
  0
ENDTAB
  0
ENDSEC
  0
SECTION
  2
BLOCKS
  0
BLOCK
  5
20
330
1F
100
AcDbEntity
  8
0
100
AcDbBlockBegin
  2
*Model_Space
 70
    0
 10
0
 20
0
 30
0
  3
*Model_Space
  1

  0
ENDBLK
  5
21
330
1F
100
AcDbEntity
  8
0
100
AcDbBlockEnd
  0
BLOCK
  5
1C
330
1B
100
AcDbEntity
  8
0
100
AcDbBlockBegin
  2
*Paper_Space
 70
    0
 10
0
 20
0
 30
0
  3
*Paper_Space
  1

  0
ENDBLK
  5
1D
330
1F
100
AcDbEntity
  8
0
100
AcDbBlockEnd
  0
ENDSEC
  0
SECTION
  2
ENTITIES
  0
LWPOLYLINE
  5
4D
100
AcDbEntity
  8
0
  6
ByLayer
 62
    0
370
   -1
100
AcDbPolyline
 90
    6
 70
    1
 43
0
 10
368.5424163792586
 20
89.19471339242244
 42
0.5773502691899868
 10
365.9443403792586
 20
84.69471339242246
 10
382.6453513792586
 20
55.76771339242261
 42
0.5773502691899971
 10
387.8415043792586
 20
55.76771339242246
 10
404.5425153792586
 20
84.69471339242246
 42
0.5773502691899868
 10
401.9444393792586
 20
89.19471339242244
  0
LWPOLYLINE
  5
4E
100
AcDbEntity
  8
0
  6
ByLayer
 62
    0
370
   -1
100
AcDbPolyline
 90
    6
 70
    1
 43
0
 10
354.5434613792586
 20
58.76771339242259
 42
-0.5773502691899868
 10
351.9453853792586
 20
54.26771339242259
 10
318.5433623792586
 20
54.26771339242259
 42
-0.5773502691899974
 10
315.9452863792586
 20
58.7677133924226
 10
332.6462973792586
 20
87.69471339242257
 42
-0.5773502691899971
 10
337.8424503792586
 20
87.69471339242243
  0
LWPOLYLINE
  5
4F
100
AcDbEntity
  8
0
  6
ByLayer
 62
    0
370
   -1
100
AcDbPolyline
 90
    6
 70
    1
 43
0
 10
268.5424163792586
 20
89.19471339242244
 42
0.5773502691899868
 10
265.9443403792586
 20
84.69471339242246
 10
282.6453513792586
 20
55.76771339242261
 42
0.5773502691899971
 10
287.8415043792586
 20
55.76771339242246
 10
304.5425153792586
 20
84.69471339242246
 42
0.5773502691899868
 10
301.9444393792586
 20
89.19471339242244
  0
LWPOLYLINE
  5
50
100
AcDbEntity
  8
0
  6
ByLayer
 62
    0
370
   -1
100
AcDbPolyline
 90
    6
 70
    1
 43
0
 10
254.5434613792586
 20
58.76771339242259
 42
-0.57735026918999
 10
251.9453853792585
 20
54.26771339242259
 10
218.5433623792586
 20
54.26771339242259
 42
-0.5773502691899892
 10
215.9452863792586
 20
58.76771339242259
 10
232.6462973792586
 20
87.69471339242256
 42
-0.577350269189995
 10
237.8424503792585
 20
87.69471339242244
  0
LWPOLYLINE
  5
51
100
AcDbEntity
  8
0
  6
ByLayer
 62
    0
370
   -1
100
AcDbPolyline
 90
    6
 70
    1
 43
0
 10
182.6453513792586
 20
55.76771339242259
 42
0.577350269189995
 10
187.8415043792585
 20
55.76771339242249
 10
204.5425153792586
 20
84.69471339242244
 42
0.5773502691899903
 10
201.9444393792585
 20
89.19471339242244
 10
168.5424163792586
 20
89.19471339242244
 42
0.57735026918999
 10
165.9443403792586
 20
84.69471339242246
  0
LWPOLYLINE
  5
52
100
AcDbEntity
  8
0
  6
ByLayer
 62
    0
370
   -1
100
AcDbPolyline
 90
    6
 70
    1
 43
0
 10
138.2443733792586
 20
54.26771339242259
 42
-0.4142135580070034
 10
135.2443733792586
 20
57.26771339242259
 10
135.2443733792586
 20
80.99856139242246
 42
-0.7673269938990093
 10
140.8424493792585
 20
82.49856139242235
 10
154.5434613792586
 20
58.76771339242259
 42
-0.57735026918999
 10
151.9453853792585
 20
54.26771339242259
  0
LWPOLYLINE
  5
53
100
AcDbEntity
  8
0
  6
ByLayer
 62
    0
370
   -1
100
AcDbPolyline
 90
    6
 70
    1
 43
0
 10
140.7760993792586
 20
136.8143803924225
 42
0.5773502691899886
 10
140.7760993792586
 20
140.3217843924224
 10
121.2503743792586
 20
151.5949663924226
 42
0.5773502691900836
 10
118.2128743792586
 20
149.8412653924225
 10
118.2128743792586
 20
127.2948993924225
 42
0.5773502691900054
 10
121.2503743792586
 20
125.5411983924226
  0
LWPOLYLINE
  5
54
100
AcDbEntity
  8
0
  6
ByLayer
 62
    0
370
   -1
100
AcDbPolyline
 90
    6
 70
    1
 43
0
 10
119.2253743792586
 20
184.3607643924225
 42
-0.5773502691900074
 10
119.2253743792586
 20
187.8681683924225
 10
138.7510993792586
 20
199.1413503924225
 42
-0.5773502691899919
 10
141.7885993792585
 20
197.3876493924225
 10
141.7885993792586
 20
174.8412843924225
 42
-0.5773502691900056
 10
138.7510993792586
 20
173.0875823924225
  0
LWPOLYLINE
  5
55
100
AcDbEntity
  8
0
  6
ByLayer
 62
    0
370
   -1
100
AcDbPolyline
 90
    6
 70
    1
 43
0
 10
140.7760993792586
 20
226.8607453924225
 42
0.5773502691899897
 10
140.7760993792586
 20
230.3681493924225
 10
121.2503743792586
 20
241.6413313924225
 42
0.5773502691900785
 10
118.2128743792586
 20
239.8876303924225
 10
118.2128743792586
 20
217.3412653924225
 42
0.5773502691900687
 10
121.2503743792586
 20
215.5875633924225
  0
LWPOLYLINE
  5
56
100
AcDbEntity
  8
0
  6
ByLayer
 62
    0
370
   -1
100
AcDbPolyline
 90
    6
 70
    1
 43
0
 10
141.7885993792586
 20
259.8498333924225
 42
-0.5773502691900033
 10
138.7510993792586
 20
258.0961313924225
 10
119.2253743792586
 20
269.3693133924224
 42
-0.5773502691900003
 10
119.2253743792586
 20
272.8767173924226
 10
138.7510993792586
 20
284.1498993924226
 42
-0.5773502691899997
 10
141.7885993792585
 20
282.3961983924224
  0
LWPOLYLINE
  5
57
100
AcDbEntity
  8
0
  6
ByLayer
 62
    0
370
   -1
100
AcDbPolyline
 90
    6
 70
    1
 43
0
 10
118.2128743792586
 20
302.3498143924224
 42
0.5773502691900011
 10
121.2503743792586
 20
300.5961123924227
 10
140.7760993792586
 20
311.8692943924225
 42
0.5773502691899802
 10
140.7760993792586
 20
315.3766983924224
 10
121.2503743792586
 20
326.6498803924226
 42
0.5773502691900272
 10
118.2128743792586
 20
324.8961793924225
  0
LWPOLYLINE
  5
58
100
AcDbEntity
  8
0
  6
ByLayer
 62
    0
370
   -1
100
AcDbPolyline
 90
    6
 70
    1
 43
0
 10
138.2443733792586
 20
402.9783563924225
 42
0.4142135580070034
 10
135.2443733792586
 20
399.9783563924225
 10
135.2443733792586
 20
376.2475073924225
 42
0.7673269938989927
 10
140.8424493792586
 20
374.7475073924225
 10
154.5434613792586
 20
398.4783563924225
 42
0.5773502691899962
 10
151.9453853792586
 20
402.9783563924225
  0
LWPOLYLINE
  5
59
100
AcDbEntity
  8
0
  6
ByLayer
 62
    0
370
   -1
100
AcDbPolyline
 90
    6
 70
    1
 43
0
 10
182.6453513792586
 20
401.4783563924225
 42
-0.5773502691899971
 10
187.8415043792586
 20
401.4783563924225
 10
204.5425153792585
 20
372.5513563924225
 42
-0.5773502691899962
 10
201.9444393792585
 20
368.0513563924225
 10
168.5424163792586
 20
368.0513563924225
 42
-0.57735026918999
 10
165.9443403792586
 20
372.5513563924225
  0
LWPOLYLINE
  5
5A
100
AcDbEntity
  8
0
  6
ByLayer
 62
    0
370
   -1
100
AcDbPolyline
 90
    6
 70
    1
 43
0
 10
254.5435093792585
 20
398.4783563924225
 42
0.5773502691899719
 10
251.9454333792585
 20
402.9783563924225
 10
218.5434103792585
 20
402.9783563924225
 42
0.577350269189994
 10
215.9453343792586
 20
398.4783563924225
 10
232.6463453792585
 20
369.5513563924226
 42
0.5773502691899932
 10
237.8424983792585
 20
369.5513563924225
  0
LWPOLYLINE
  5
5B
100
AcDbEntity
  8
0
  6
ByLayer
 62
    0
370
   -1
100
AcDbPolyline
 90
    6
 70
    1
 43
0
 10
282.6453513792586
 20
401.4783563924225
 42
-0.5773502691899971
 10
287.8415043792586
 20
401.4783563924225
 10
304.5425153792586
 20
372.5513563924225
 42
-0.5773502691899868
 10
301.9444393792586
 20
368.0513563924225
 10
268.5424163792586
 20
368.0513563924225
 42
-0.5773502691899868
 10
265.9443403792586
 20
372.5513563924225
  0
LWPOLYLINE
  5
5C
100
AcDbEntity
  8
0
  6
ByLayer
 62
    0
370
   -1
100
AcDbPolyline
 90
    6
 70
    1
 43
0
 10
354.5434613792586
 20
398.4783563924225
 42
0.5773502691899868
 10
351.9453853792586
 20
402.9783563924225
 10
318.5433623792586
 20
402.9783563924225
 42
0.5773502691899963
 10
315.9452863792586
 20
398.4783563924225
 10
332.6462973792586
 20
369.5513563924225
 42
0.5773502691899968
 10
337.8424503792586
 20
369.5513563924225
  0
LWPOLYLINE
  5
5D
100
AcDbEntity
  8
0
  6
ByLayer
 62
    0
370
   -1
100
AcDbPolyline
 90
    6
 70
    1
 43
0
 10
404.5425153792586
 20
372.5513563924225
 42
-0.5773502691899868
 10
401.9444393792586
 20
368.0513563924225
 10
368.5424163792586
 20
368.0513563924225
 42
-0.5773502691899961
 10
365.9443403792586
 20
372.5513563924225
 10
382.6453513792586
 20
401.4783563924225
 42
-0.5773502691899971
 10
387.8415043792586
 20
401.4783563924225
  0
LWPOLYLINE
  5
5E
100
AcDbEntity
  8
0
  6
ByLayer
 62
    0
370
   -1
100
AcDbPolyline
 90
    4
 70
    1
 43
0
 10
477.9054893792586
 20
334.6230333924225
 10
477.9054893792586
 20
342.6230343924225
 42
1.000000051619133
 10
469.9054883792587
 20
342.6230343924225
 10
469.9054893792586
 20
334.6230333924225
 42
0.999999615446174
  0
LWPOLYLINE
  5
5F
100
AcDbEntity
  8
0
  6
ByLayer
 62
    0
370
   -1
100
AcDbPolyline
 90
    4
 70
    1
 43
0
 10
469.9054883792586
 20
402.6230343924225
 10
469.9054893792586
 20
394.6230333924225
 42
0.999999615446174
 10
477.9054893792586
 20
394.6230333924225
 10
477.9054893792586
 20
402.6230343924225
 42
1.000000051619133
  0
LWPOLYLINE
  5
60
100
AcDbEntity
  8
0
  6
ByLayer
 62
    0
370
   -1
100
AcDbPolyline
 90
    4
 70
    1
 43
0
 10
469.9054883792586
 20
122.6230363924226
 10
469.9054893792586
 20
114.6230353924226
 42
1.000000051619137
 10
477.9054893792586
 20
114.6230353924226
 10
477.9054893792586
 20
122.6230363924226
 42
0.9999996160240564
  0
LWPOLYLINE
  5
61
100
AcDbEntity
  8
0
  6
ByLayer
 62
    0
370
   -1
100
AcDbPolyline
 90
    4
 70
    1
 43
0
 10
469.9054883792586
 20
62.62303639242259
 10
469.9054893792586
 20
54.62303539242259
 42
1.000000051619139
 10
477.9054893792586
 20
54.62303539242259
 10
477.9054893792586
 20
62.62303639242259
 42
0.9999996160240582
  0
LWPOLYLINE
  5
62
100
AcDbEntity
  8
0
  6
ByLayer
 62
    0
370
   -1
100
AcDbPolyline
 90
   16
 70
    1
 43
0
 10
474.8554893792585
 20
104.6649853924226
 42
0.267948266464951
 10
474.6054913792586
 20
104.2319733924224
 10
474.6054883792585
 20
102.6641023924226
 42
0.2679491924309821
 10
474.8554883792585
 20
102.2310893924225
 42
-1.303223041599709
 10
474.1724763792587
 20
101.5480753924224
 42
0.2679482664649734
 10
473.7394643792586
 20
101.7980743924224
 10
448.0715153792586
 20
101.7980773924224
 42
0.2679491924310255
 10
447.6385023792585
 20
101.5480773924224
 42
-1.303223041600041
 10
446.9554883792587
 20
102.2310893924225
 42
0.2679482664660126
 10
447.2054873792587
 20
102.6641013924226
 10
447.2054903792587
 20
104.2319683924225
 42
0.2679491924309526
 10
446.9554903792587
 20
104.6649803924226
 42
-1.303223041600034
 10
447.6385013792589
 20
105.3479943924225
 42
0.2679482664649828
 10
448.0715133792586
 20
105.0979963924225
 10
473.7394623792586
 20
105.0979963924225
 42
0.2679491924309708
 10
474.1724753792587
 20
105.3479963924225
 42
-1.303223041600043
  0
LWPOLYLINE
  5
63
100
AcDbEntity
  8
0
  6
ByLayer
 62
    0
370
   -1
100
AcDbPolyline
 90
   16
 70
    1
 43
0
 10
447.6385023792585
 20
351.8980763924226
 42
-1.303223041600256
 10
446.9554883792587
 20
352.5810883924225
 42
0.2679482664649692
 10
447.2054873792587
 20
353.0141003924225
 10
447.2054903792587
 20
354.5819673924225
 42
0.2679491924309596
 10
446.9554903792587
 20
355.0149803924226
 42
-1.303223041599982
 10
447.6385013792589
 20
355.6979943924227
 42
0.2679482664650204
 10
448.0715133792586
 20
355.4479963924226
 10
473.7394623792586
 20
355.4479963924225
 42
0.2679491924309708
 10
474.1724753792586
 20
355.6979963924225
 42
-1.303223041600123
 10
474.8554893792585
 20
355.0149843924225
 42
0.2679482664650337
 10
474.6054913792585
 20
354.5819723924225
 10
474.6054883792585
 20
353.0141023924225
 42
0.2679491924309663
 10
474.8554883792585
 20
352.5810883924226
 42
-1.303223041599799
 10
474.1724763792588
 20
351.8980743924226
 42
0.2679482664650009
 10
473.7394643792586
 20
352.1480733924225
 10
448.0715153792586
 20
352.1480763924226
 42
0.2679491924310541
  0
LWPOLYLINE
  5
64
100
AcDbEntity
  8
0
  6
ByLayer
 62
    0
370
   -1
100
AcDbPolyline
 90
   16
 70
    1
 43
0
 10
448.0714453792585
 20
376.0530353924224
 42
-0.2679491924311552
 10
447.6384313792586
 20
376.3030353924224
 42
1.30322304159918
 10
446.9554173792587
 20
375.6200243924226
 42
-0.2679482664649289
 10
447.2054163792585
 20
375.1870123924225
 10
447.2054193792586
 20
373.6191443924225
 42
-0.2679491924309829
 10
446.9554193792586
 20
373.1861313924222
 42
1.303223041599924
 10
447.6384313792587
 20
372.5031173924223
 42
-0.2679482664650252
 10
448.0714433792585
 20
372.7531163924224
 10
452.5393933792586
 20
372.7531163924224
 42
-0.2679491924309213
 10
452.9724053792586
 20
372.5031163924223
 42
1.303223041600867
 10
453.6554193792587
 20
373.1861283924222
 42
-0.2679482617890391
 10
453.4054213792587
 20
373.6191403924225
 10
453.4054183792587
 20
375.1870103924225
 42
-0.2679491924309976
 10
453.6554183792587
 20
375.6200223924226
 42
1.303223041600172
 10
452.9724063792586
 20
376.3030363924225
 42
-0.2679482664650366
 10
452.5393943792586
 20
376.0530383924224
  0
LWPOLYLINE
  5
65
100
AcDbEntity
  8
0
  6
ByLayer
 62
    0
370
   -1
100
AcDbPolyline
 90
   16
 70
    1
 43
0
 10
474.6054203792586
 20
373.6191403924225
 10
474.6054173792586
 20
375.1870103924225
 42
-0.2679491924309671
 10
474.8554173792586
 20
375.6200223924225
 42
1.303223041599829
 10
474.1724063792586
 20
376.3030363924225
 42
-0.2679482664650023
 10
473.7393943792587
 20
376.0530383924225
 10
469.2714443792587
 20
376.0530353924225
 42
-0.2679491924309708
 10
468.8384313792586
 20
376.3030353924225
 42
1.303223041600133
 10
468.1554173792587
 20
375.6200243924225
 42
-0.2679482664648984
 10
468.4054163792584
 20
375.1870123924225
 10
468.4054193792587
 20
373.6191443924225
 42
-0.267949192430982
 10
468.1554193792587
 20
373.1861313924225
 42
1.303223041600399
 10
468.8384303792585
 20
372.5031173924226
 42
-0.267948266465004
 10
469.2714423792586
 20
372.7531163924225
 10
473.7393923792587
 20
372.7531163924225
 42
-0.2679491924309853
 10
474.1724043792585
 20
372.5031163924225
 42
1.303223041600248
 10
474.8554183792586
 20
373.1861283924226
 42
-0.2679482664649798
  0
LWPOLYLINE
  5
66
100
AcDbEntity
  8
0
  6
ByLayer
 62
    0
370
   -1
100
AcDbPolyline
 90
   16
 70
    1
 43
0
 10
435.9104443792586
 20
386.0890623924225
 10
435.9104413792586
 20
390.5570123924225
 42
-0.2679491924729564
 10
436.1604413792586
 20
390.9900243924224
 42
1.303223029820114
 10
435.4774293792585
 20
391.6730383924225
 42
-0.2679482664649952
 10
435.0444173792587
 20
391.4230403924226
 10
433.4765503792586
 20
391.4230373924225
 42
-0.2679491924310038
 10
433.0435363792586
 20
391.6730373924225
 42
1.303223041600266
 10
432.3605223792587
 20
390.9900253924225
 42
-0.267948266422965
 10
432.6105213792586
 20
390.5570133924225
 10
432.6105223792587
 20
386.0890643924225
 42
-0.2679491924739947
 10
432.3605223792587
 20
385.6560503924225
 42
1.303223041600057
 10
433.0435343792586
 20
384.9730363924225
 42
-0.2679482664649692
 10
433.4765463792586
 20
385.2230353924225
 10
435.0444163792587
 20
385.2230393924225
 42
-0.2679491924310265
 10
435.4774293792586
 20
384.9730393924225
 42
1.303223041599773
 10
436.1604423792586
 20
385.6560503924226
 42
-0.2679482664229978
  0
LWPOLYLINE
  5
67
100
AcDbEntity
  8
0
  6
ByLayer
 62
    0
370
   -1
100
AcDbPolyline
 90
   16
 70
    1
 43
0
 10
435.9104383792586
 20
411.7570123924225
 42
-0.2679491924730173
 10
436.1604383792586
 20
412.1900243924226
 42
1.303223041599753
 10
435.4774263792585
 20
412.8730383924225
 42
-0.2679482664650023
 10
435.0444143792587
 20
412.6230403924225
 10
433.4765473792586
 20
412.6230373924225
 42
-0.2679491924309665
 10
433.0435333792585
 20
412.8730363924226
 42
1.303223029819952
 10
432.3605193792587
 20
412.1900253924226
 42
-0.2679482664230635
 10
432.6105183792587
 20
411.7570133924225
 10
432.6105193792587
 20
407.2890633924225
 42
-0.267949192474048
 10
432.3605193792587
 20
406.8560503924226
 42
1.303223029820038
 10
433.0435313792585
 20
406.1730363924224
 42
-0.2679482664649692
 10
433.4765433792586
 20
406.4230353924225
 10
435.0444133792587
 20
406.4230383924224
 42
-0.2679491924309696
 10
435.4774263792585
 20
406.1730383924224
 42
1.303223029820049
 10
436.1604393792586
 20
406.8560503924227
 42
-0.267948266422945
 10
435.9104413792586
 20
407.2890623924225
  0
LWPOLYLINE
  5
68
100
AcDbEntity
  8
0
  6
ByLayer
 62
    0
370
   -1
100
AcDbPolyline
 90
   16
 70
    1
 43
0
 10
448.0714383792587
 20
425.0930353924225
 42
-0.2679491924309915
 10
447.6384243792588
 20
425.3430353924228
 42
1.303223041599479
 10
446.9554103792585
 20
424.6600243924225
 42
-0.2679482664651012
 10
447.2054093792586
 20
424.2270123924225
 10
447.2054123792586
 20
422.6591443924225
 42
-0.2679491924310234
 10
446.9554123792586
 20
422.2261313924224
 42
1.303223041599837
 10
447.6384243792584
 20
421.5431173924226
 42
-0.2679482664650161
 10
448.0714363792587
 20
421.7931163924225
 10
452.5393863792585
 20
421.7931163924225
 42
-0.2679491924310017
 10
452.9723983792586
 20
421.5431163924225
 42
1.303223041600029
 10
453.6554123792587
 20
422.2261283924224
 42
-0.2679482664650031
 10
453.4054143792587
 20
422.6591403924225
 10
453.4054113792587
 20
424.2270103924225
 42
-0.2679491924309723
 10
453.6554113792587
 20
424.6600223924229
 42
1.303223041598866
 10
452.9723993792586
 20
425.3430363924226
 42
-0.2679482664650366
 10
452.5393873792585
 20
425.0930383924224
  0
LWPOLYLINE
  5
69
100
AcDbEntity
  8
0
  6
ByLayer
 62
    0
370
   -1
100
AcDbPolyline
 90
   16
 70
    1
 43
0
 10
468.8384243792585
 20
425.3430353924225
 42
1.303223041599923
 10
468.1554103792587
 20
424.6600243924224
 42
-0.267948266465014
 10
468.4054093792588
 20
424.2270123924225
 10
468.4054123792587
 20
422.6591443924225
 42
-0.2679491924310234
 10
468.1554123792587
 20
422.2261313924224
 42
1.303223041599839
 10
468.838423379259
 20
421.5431173924225
 42
-0.2679482617889885
 10
469.2714353792586
 20
421.7931163924226
 10
473.7393853792587
 20
421.7931163924226
 42
-0.2679491924310503
 10
474.1723973792587
 20
421.5431163924226
 42
1.303223041600124
 10
474.8554113792586
 20
422.2261283924225
 42
-0.2679482664649727
 10
474.6054133792586
 20
422.6591403924225
 10
474.6054103792586
 20
424.2270103924225
 42
-0.2679491924310128
 10
474.8554103792586
 20
424.6600223924226
 42
1.303223041601306
 10
474.1723993792584
 20
425.3430363924226
 42
-0.2679482664649414
 10
473.7393873792587
 20
425.0930383924225
 10
469.2714373792586
 20
425.0930353924225
 42
-0.2679491924310388
  0
LWPOLYLINE
  5
6A
100
AcDbEntity
  8
0
  6
ByLayer
 62
    0
370
   -1
100
AcDbPolyline
 90
   16
 70
    1
 43
0
 10
447.2054903792587
 20
83.6269693924225
 42
0.2679491924309777
 10
446.9554903792587
 20
84.05998239242247
 42
-1.303223041599907
 10
447.6385013792586
 20
84.7429963924226
 42
0.2679482664649971
 10
448.0715133792586
 20
84.49299839242258
 10
452.5394633792587
 20
84.49299839242258
 42
0.2679491924309853
 10
452.9724753792585
 20
84.74299839242258
 42
-1.30322304160047
 10
453.6554893792586
 20
84.05998639242243
 42
0.2679482664649878
 10
453.4054913792586
 20
83.62697439242248
 10
453.4054883792586
 20
82.05910439242246
 42
0.267949192430981
 10
453.6554883792586
 20
81.62609039242255
 42
-1.303223041600658
 10
452.9724773792585
 20
80.94307639242258
 42
0.2679482617889282
 10
452.5394653792587
 20
81.19307539242254
 10
448.0715153792586
 20
81.19307839242259
 42
0.2679491924309729
 10
447.6385023792585
 20
80.94307839242265
 42
-1.303223041600871
 10
446.9554883792587
 20
81.62609039242277
 42
0.2679482664659957
 10
447.2054873792587
 20
82.05910239242246
  0
LWPOLYLINE
  5
6B
100
AcDbEntity
  8
0
  6
ByLayer
 62
    0
370
   -1
100
AcDbPolyline
 90
   16
 70
    1
 43
0
 10
473.7394643792586
 20
81.19307539242249
 10
469.2715143792586
 20
81.19307839242248
 42
0.2679491924309744
 10
468.8385013792588
 20
80.94307839242248
 42
-1.303223041600137
 10
468.1554873792586
 20
81.62609039242257
 42
0.267948266466
 10
468.4054863792587
 20
82.05910239242246
 10
468.4054893792586
 20
83.6269693924225
 42
0.2679491924309815
 10
468.1554893792586
 20
84.05998239242238
 42
-1.303223041600204
 10
468.8385013792583
 20
84.74299639242243
 42
0.2679482664650156
 10
469.2715133792585
 20
84.49299839242258
 10
473.7394623792586
 20
84.49299839242258
 42
0.2679491924309708
 10
474.1724753792587
 20
84.74299839242259
 42
-1.303223041600436
 10
474.8554893792585
 20
84.05998639242245
 42
0.2679482664650106
 10
474.6054913792585
 20
83.62697439242248
 10
474.6054883792585
 20
82.05910439242246
 42
0.2679491924309739
 10
474.8554883792585
 20
81.62609039242244
 42
-1.303223041600164
 10
474.1724763792587
 20
80.94307639242247
 42
0.2679482664649933
  0
LWPOLYLINE
  5
6C
100
AcDbEntity
  8
0
  6
ByLayer
 62
    0
370
   -1
100
AcDbPolyline
 90
   16
 70
    1
 43
0
 10
435.9104493792587
 20
71.15700439242249
 10
435.9104463792586
 20
66.68905439242246
 42
0.2679491924309704
 10
436.1604463792586
 20
66.25604139242246
 42
-1.303223041599807
 10
435.4774343792586
 20
65.57302739242247
 42
0.2679482664650115
 10
435.0444223792587
 20
65.82302639242249
 10
433.4765553792587
 20
65.82302939242248
 42
0.2679491924309905
 10
433.0435423792586
 20
65.57302939242248
 42
-1.303223041600032
 10
432.3605283792585
 20
66.25604039242258
 42
0.2679482664649581
 10
432.6105273792584
 20
66.68905239242258
 10
432.6105273792587
 20
71.1570023924225
 42
0.2679491924309705
 10
432.3605273792587
 20
71.59001539242259
 42
-1.303223041599752
 10
433.0435383792586
 20
72.2730293924226
 42
0.2679482664649971
 10
433.4765503792586
 20
72.02303139242258
 10
435.0444213792587
 20
72.02302839242248
 42
0.267949192430957
 10
435.4774333792586
 20
72.2730283924226
 42
-1.303223041600127
 10
436.1604473792586
 20
71.59001639242244
 42
0.2679482664649804
  0
LWPOLYLINE
  5
6D
100
AcDbEntity
  8
0
  6
ByLayer
 62
    0
370
   -1
100
AcDbPolyline
 90
   16
 70
    1
 43
0
 10
435.4774343792586
 20
44.37302739242244
 42
0.2679482664650148
 10
435.0444223792587
 20
44.62302639242245
 10
433.4765553792587
 20
44.6230293924225
 42
0.2679491924309708
 10
433.0435423792586
 20
44.37302939242252
 42
-1.303223041600099
 10
432.3605283792585
 20
45.05604139242261
 42
0.2679482664649426
 10
432.6105273792584
 20
45.48905339242248
 10
432.6105273792587
 20
49.95700339242245
 42
0.267949192430989
 10
432.3605273792587
 20
50.39001539242271
 42
-1.303223041599789
 10
433.0435383792586
 20
51.07302939242261
 42
0.2679482664649899
 10
433.4765503792586
 20
50.82303139242247
 10
435.0444213792587
 20
50.82302839242249
 42
0.2679491924309722
 10
435.4774333792586
 20
51.07302839242255
 42
-1.303223041600133
 10
436.1604473792586
 20
50.39001739242256
 42
0.2679482664649999
 10
435.9104493792587
 20
49.95700539242245
 10
435.9104463792586
 20
45.48905539242259
 42
0.2679491924309705
 10
436.1604463792586
 20
45.05604139242246
 42
-1.303223041599819
  0
LWPOLYLINE
  5
6E
100
AcDbEntity
  8
0
  6
ByLayer
 62
    0
370
   -1
100
AcDbPolyline
 90
   16
 70
    1
 43
0
 10
452.5394633792587
 20
35.45299839242244
 42
0.2679491924309853
 10
452.9724753792585
 20
35.70299839242245
 42
-1.303223041600222
 10
453.6554893792586
 20
35.0199863924226
 42
0.2679482664650394
 10
453.4054913792586
 20
34.58697439242246
 10
453.4054883792586
 20
33.01910439242249
 42
0.2679491924309813
 10
453.6554883792585
 20
32.58609039242259
 42
-1.303223041600597
 10
452.9724773792585
 20
31.90307639242246
 42
0.2679482617889537
 10
452.5394653792587
 20
32.15307539242258
 10
448.0715153792586
 20
32.15307839242246
 42
0.2679491924310036
 10
447.6385023792585
 20
31.90307839242268
 42
-1.303223041600326
 10
446.9554883792587
 20
32.58609039242258
 42
0.2679482664659495
 10
447.2054873792587
 20
33.0191023924225
 10
447.2054903792587
 20
34.58696939242259
 42
0.2679491924309777
 10
446.9554903792587
 20
35.01998239242257
 42
-1.303223041599805
 10
447.6385013792587
 20
35.70299639242258
 42
0.2679482664649659
 10
448.0715133792586
 20
35.45299839242244
  0
LWPOLYLINE
  5
6F
100
AcDbEntity
  8
0
  6
ByLayer
 62
    0
370
   -1
100
AcDbPolyline
 90
   16
 70
    1
 43
0
 10
397.2054193792586
 20
104.2320143924225
 10
397.2054223792586
 20
102.6641463924226
 42
-0.2679491924309705
 10
396.9554223792586
 20
102.2311333924225
 42
1.30322304160033
 10
397.6384343792587
 20
101.5481193924224
 42
-0.2679482664650359
 10
398.0714463792586
 20
101.7981183924225
 10
402.5393953792586
 20
101.7981183924225
 42
-0.2679491924309839
 10
402.9724083792586
 20
101.5481183924225
 42
1.303223041600076
 10
403.6554223792585
 20
102.2311303924226
 42
-0.2679482664650327
 10
403.4054243792585
 20
102.6641423924225
 10
403.4054213792587
 20
104.2320123924225
 42
-0.2679491924309751
 10
403.6554213792587
 20
104.6650243924226
 42
1.303223041599771
 10
402.9724093792587
 20
105.3480383924225
 42
-0.2679482664649352
 10
402.5393973792586
 20
105.0980403924225
 10
398.0714473792586
 20
105.0980373924225
 42
-0.2679491924309613
 10
397.6384343792588
 20
105.3480373924225
 42
1.303223041600103
 10
396.9554203792586
 20
104.6650263924226
 42
-0.2679482664660429
  0
LWPOLYLINE
  5
70
100
AcDbEntity
  8
0
  6
ByLayer
 62
    0
370
   -1
100
AcDbPolyline
 90
   16
 70
    1
 43
0
 10
418.4054183792587
 20
104.2320143924225
 10
418.4054213792587
 20
102.6641463924226
 42
-0.2679491924309705
 10
418.1554213792587
 20
102.2311333924225
 42
1.303223041600214
 10
418.8384333792586
 20
101.5481193924224
 42
-0.267948266464978
 10
419.2714453792587
 20
101.7981183924225
 10
423.7393953792587
 20
101.7981183924225
 42
-0.2679491924309722
 10
424.1724073792586
 20
101.5481183924225
 42
1.303223041600151
 10
424.8554213792586
 20
102.2311303924226
 42
-0.267948261788974
 10
424.6054233792588
 20
102.6641423924225
 10
424.6054203792586
 20
104.2320123924225
 42
-0.2679491924309751
 10
424.8554203792586
 20
104.6650243924226
 42
1.303223041600517
 10
424.1724093792586
 20
105.3480383924225
 42
-0.2679482664649733
 10
423.7393973792587
 20
105.0980403924225
 10
419.2714473792587
 20
105.0980373924225
 42
-0.2679491924310379
 10
418.8384333792585
 20
105.3480373924225
 42
1.303223041600442
 10
418.1554193792587
 20
104.6650263924225
 42
-0.267948266464875
  0
LWPOLYLINE
  5
71
100
AcDbEntity
  8
0
  6
ByLayer
 62
    0
370
   -1
100
AcDbPolyline
 90
   16
 70
    1
 43
0
 10
298.8384933792587
 20
105.3479943924225
 42
0.2679482664650145
 10
299.2715053792587
 20
105.0979963924225
 10
303.7394553792586
 20
105.0979963924225
 42
0.267949192430906
 10
304.1724673792585
 20
105.3479963924225
 42
-1.30322304159959
 10
304.8554813792587
 20
104.6649853924225
 42
0.2679482664649581
 10
304.6054833792587
 20
104.2319733924224
 10
304.6054803792587
 20
102.6641023924226
 42
0.2679491924309859
 10
304.8554803792587
 20
102.2310893924225
 42
-1.303223041599519
 10
304.1724693792586
 20
101.5480753924224
 42
0.2679482664650287
 10
303.7394573792586
 20
101.7980743924224
 10
299.2715073792585
 20
101.7980773924224
 42
0.2679491924310224
 10
298.8384933792588
 20
101.5480773924224
 42
-1.303223041599722
 10
298.1554793792586
 20
102.2310893924223
 42
0.2679482664661227
 10
298.4054783792587
 20
102.6641013924226
 10
298.4054813792586
 20
104.2319683924225
 42
0.2679491924309526
 10
298.1554813792586
 20
104.6649803924226
 42
-1.303223041600641
  0
LWPOLYLINE
  5
72
100
AcDbEntity
  8
0
  6
ByLayer
 62
    0
370
   -1
100
AcDbPolyline
 90
   16
 70
    1
 43
0
 10
282.9724683792586
 20
105.3479963924225
 42
-1.303223041599988
 10
283.6554823792586
 20
104.6649853924226
 42
0.2679482664650302
 10
283.4054843792586
 20
104.2319733924224
 10
283.4054813792586
 20
102.6641023924226
 42
0.2679491924309859
 10
283.6554813792586
 20
102.2310893924225
 42
-1.303223041599662
 10
282.9724693792586
 20
101.5480753924224
 42
0.2679482664650267
 10
282.5394573792587
 20
101.7980743924224
 10
278.0715073792586
 20
101.7980773924224
 42
0.2679491924310434
 10
277.6384943792586
 20
101.5480773924224
 42
-1.303223041599986
 10
276.9554803792587
 20
102.2310893924225
 42
0.2679482664660047
 10
277.2054793792588
 20
102.6641013924226
 10
277.2054823792587
 20
104.2319683924225
 42
0.2679491924309526
 10
276.9554823792587
 20
104.6649803924226
 42
-1.303223041599809
 10
277.6384943792586
 20
105.3479943924225
 42
0.2679482664649993
 10
278.0715063792586
 20
105.0979963924225
 10
282.5394553792586
 20
105.0979963924225
 42
0.2679491924310017
  0
LWPOLYLINE
  5
73
100
AcDbEntity
  8
0
  6
ByLayer
 62
    0
370
   -1
100
AcDbPolyline
 90
   16
 70
    1
 43
0
 10
122.9724733792586
 20
101.5480753924224
 42
0.2679482664650213
 10
122.5394613792586
 20
101.7980743924224
 10
118.0715113792586
 20
101.7980773924224
 42
0.2679491924309879
 10
117.6384983792587
 20
101.5480773924224
 42
-1.303223041600049
 10
116.9554843792585
 20
102.2310893924225
 42
0.2679482664650318
 10
117.2054833792586
 20
102.6641013924226
 10
117.2054863792586
 20
104.2319683924225
 42
0.2679491924309797
 10
116.9554863792585
 20
104.6649803924226
 42
-1.303223041599969
 10
117.6384973792585
 20
105.3479943924225
 42
0.2679482664659681
 10
118.0715093792586
 20
105.0979963924225
 10
122.5394593792586
 20
105.0979963924225
 42
0.2679491924310103
 10
122.9724713792586
 20
105.3479963924225
 42
-1.303223041599924
 10
123.6554853792587
 20
104.6649853924226
 42
0.2679482664649865
 10
123.4054873792586
 20
104.2319733924224
 10
123.4054843792586
 20
102.6641023924226
 42
0.2679491924310135
 10
123.6554843792586
 20
102.2310893924225
 42
-1.303223041599972
  0
LWPOLYLINE
  5
74
100
AcDbEntity
  8
0
  6
ByLayer
 62
    0
370
   -1
100
AcDbPolyline
 90
   16
 70
    1
 43
0
 10
138.4054853792586
 20
104.2319683924225
 42
0.2679491924309526
 10
138.1554853792586
 20
104.6649803924226
 42
-1.303223041600233
 10
138.8384973792586
 20
105.3479943924225
 42
0.2679482664649916
 10
139.2715093792586
 20
105.0979963924225
 10
143.7394583792586
 20
105.0979963924225
 42
0.2679491924309794
 10
144.1724713792587
 20
105.3479963924225
 42
-1.30322304159991
 10
144.8554853792587
 20
104.6649853924226
 42
0.2679482664650205
 10
144.6054873792586
 20
104.2319733924224
 10
144.6054843792586
 20
102.6641023924226
 42
0.2679491924309992
 10
144.8554843792586
 20
102.2310893924225
 42
-1.303223041599655
 10
144.1724723792587
 20
101.5480753924224
 42
0.2679482664650105
 10
143.7394603792586
 20
101.7980743924224
 10
139.2715103792586
 20
101.7980773924224
 42
0.2679491924310067
 10
138.8384973792587
 20
101.5480773924224
 42
-1.303223041600059
 10
138.1554833792585
 20
102.2310893924225
 42
0.2679482664660176
 10
138.4054823792587
 20
102.6641013924226
  0
LWPOLYLINE
  5
75
100
AcDbEntity
  8
0
  6
ByLayer
 62
    0
370
   -1
100
AcDbPolyline
 90
   16
 70
    1
 43
0
 10
116.9554843792586
 20
161.1243283924225
 42
0.2679482664649943
 10
117.2054833792586
 20
161.5573403924226
 10
117.2054863792586
 20
163.1252073924225
 42
0.2679491924310058
 10
116.9554863792586
 20
163.5582203924226
 42
-1.303223041599866
 10
117.6384973792584
 20
164.2412343924226
 42
0.2679482664649999
 10
118.0715093792586
 20
163.9912363924226
 10
122.5394593792586
 20
163.9912363924226
 42
0.2679491924310103
 10
122.9724713792586
 20
164.2412363924226
 42
-1.303223041599749
 10
123.6554853792586
 20
163.5582243924225
 42
0.2679482664649717
 10
123.4054873792586
 20
163.1252123924225
 10
123.4054843792586
 20
161.5573423924226
 42
0.2679491924309617
 10
123.6554843792587
 20
161.1243283924225
 42
-1.303223041599889
 10
122.9724733792587
 20
160.4413143924225
 42
0.2679482617889078
 10
122.5394613792586
 20
160.6913133924224
 10
118.0715113792586
 20
160.6913163924225
 42
0.2679491924309815
 10
117.6384983792587
 20
160.4413163924225
 42
-1.303223041599967
  0
LWPOLYLINE
  5
76
100
AcDbEntity
  8
0
  6
ByLayer
 62
    0
370
   -1
100
AcDbPolyline
 90
   16
 70
    1
 43
0
 10
144.1724723792586
 20
160.4413143924225
 42
0.2679482664649603
 10
143.7394603792586
 20
160.6913133924224
 10
139.2715103792586
 20
160.6913163924225
 42
0.2679491924309036
 10
138.8384973792588
 20
160.4413163924226
 42
-1.303223041600147
 10
138.1554833792586
 20
161.1243283924223
 42
0.267948266466079
 10
138.4054823792587
 20
161.5573403924226
 10
138.4054853792586
 20
163.1252073924225
 42
0.2679491924310329
 10
138.1554853792586
 20
163.5582203924226
 42
-1.303223041600081
 10
138.8384973792586
 20
164.2412343924226
 42
0.2679482664650123
 10
139.2715093792586
 20
163.9912363924226
 10
143.7394583792586
 20
163.9912363924226
 42
0.2679491924309874
 10
144.1724713792586
 20
164.2412363924226
 42
-1.303223041600211
 10
144.8554853792586
 20
163.5582243924225
 42
0.2679482664650255
 10
144.6054873792586
 20
163.1252123924225
 10
144.6054843792586
 20
161.5573423924226
 42
0.2679491924310602
 10
144.8554843792585
 20
161.1243283924223
 42
-1.303223041600013
  0
LWPOLYLINE
  5
77
100
AcDbEntity
  8
0
  6
ByLayer
 62
    0
370
   -1
100
AcDbPolyline
 90
   16
 70
    1
 43
0
 10
117.6384983792587
 20
290.4730473924226
 42
-1.303223041599996
 10
116.9554843792585
 20
291.1560593924224
 42
0.2679482664649885
 10
117.2054833792586
 20
291.5890713924225
 10
117.2054863792586
 20
293.1569383924225
 42
0.2679491924310315
 10
116.9554863792586
 20
293.5899513924227
 42
-1.303223041599404
 10
117.6384973792585
 20
294.2729653924226
 42
0.2679482664649961
 10
118.0715093792586
 20
294.0229673924226
 10
122.5394593792586
 20
294.0229673924226
 42
0.2679491924310317
 10
122.9724713792588
 20
294.2729673924227
 42
-1.303223041600079
 10
123.6554853792586
 20
293.5899553924224
 42
0.2679482664649955
 10
123.4054873792586
 20
293.1569433924226
 10
123.4054843792586
 20
291.5890733924225
 42
0.2679491924310008
 10
123.6554843792586
 20
291.1560593924223
 42
-1.30322304160014
 10
122.9724733792587
 20
290.4730453924226
 42
0.2679482617890701
 10
122.5394613792586
 20
290.7230443924225
 10
118.0715113792586
 20
290.7230473924226
 42
0.2679491924309815
  0
LWPOLYLINE
  5
78
100
AcDbEntity
  8
0
  6
ByLayer
 62
    0
370
   -1
100
AcDbPolyline
 90
   16
 70
    1
 43
0
 10
138.1554833792586
 20
291.1560593924223
 42
0.267948266465019
 10
138.4054823792586
 20
291.5890713924225
 10
138.4054853792586
 20
293.1569383924225
 42
0.2679491924309829
 10
138.1554853792586
 20
293.5899513924228
 42
-1.303223041599837
 10
138.8384973792584
 20
294.2729653924227
 42
0.2679482664650228
 10
139.2715093792586
 20
294.0229673924227
 10
143.7394583792586
 20
294.0229673924226
 42
0.2679491924310084
 10
144.1724713792586
 20
294.2729673924226
 42
-1.303223041600091
 10
144.8554853792586
 20
293.5899553924223
 42
0.267948266464987
 10
144.6054873792586
 20
293.1569433924226
 10
144.6054843792586
 20
291.5890733924225
 42
0.2679491924309744
 10
144.8554843792586
 20
291.1560593924224
 42
-1.303223041599823
 10
144.1724723792586
 20
290.4730453924226
 42
0.267948266464977
 10
143.7394603792586
 20
290.7230443924226
 10
139.2715103792586
 20
290.7230473924226
 42
0.2679491924309546
 10
138.8384973792588
 20
290.4730473924226
 42
-1.303223041600186
  0
LWPOLYLINE
  5
79
100
AcDbEntity
  8
0
  6
ByLayer
 62
    0
370
   -1
100
AcDbPolyline
 90
   16
 70
    1
 43
0
 10
123.6554853792586
 20
355.0149853924225
 42
0.2679482664649773
 10
123.4054873792586
 20
354.5819733924225
 10
123.4054843792586
 20
353.0141033924225
 42
0.2679491924310387
 10
123.6554843792586
 20
352.5810903924224
 42
-1.303223041600163
 10
122.9724733792587
 20
351.8980763924225
 42
0.2679482664650151
 10
122.5394613792586
 20
352.1480753924225
 10
118.0715113792586
 20
352.1480783924225
 42
0.2679491924309815
 10
117.6384983792587
 20
351.8980783924225
 42
-1.303223041600189
 10
116.9554843792586
 20
352.5810893924225
 42
0.2679482664649562
 10
117.2054833792586
 20
353.0141013924225
 10
117.2054863792586
 20
354.5819693924225
 42
0.2679491924309854
 10
116.9554863792586
 20
355.0149813924223
 42
-1.303223041600148
 10
117.6384973792585
 20
355.6979953924224
 42
0.2679482664650004
 10
118.0715093792586
 20
355.4479973924226
 10
122.5394593792586
 20
355.4479973924225
 42
0.2679491924310317
 10
122.9724713792588
 20
355.6979973924226
 42
-1.303223041599912
  0
LWPOLYLINE
  5
7A
100
AcDbEntity
  8
0
  6
ByLayer
 62
    0
370
   -1
100
AcDbPolyline
 90
   16
 70
    1
 43
0
 10
138.8384973792587
 20
351.8980783924225
 42
-1.303223041600005
 10
138.1554833792586
 20
352.5810893924225
 42
0.2679482664649976
 10
138.4054823792586
 20
353.0141013924225
 10
138.4054853792586
 20
354.5819693924225
 42
0.2679491924309895
 10
138.1554853792586
 20
355.0149813924224
 42
-1.303223041600228
 10
138.8384973792584
 20
355.6979953924224
 42
0.2679482664650266
 10
139.2715093792586
 20
355.4479973924225
 10
143.7394583792586
 20
355.4479973924225
 42
0.2679491924310084
 10
144.1724713792586
 20
355.6979973924225
 42
-1.303223041600133
 10
144.8554853792586
 20
355.0149853924225
 42
0.2679482664649971
 10
144.6054873792586
 20
354.5819733924225
 10
144.6054843792586
 20
353.0141033924225
 42
0.2679491924309819
 10
144.8554843792586
 20
352.5810903924225
 42
-1.3032230415999
 10
144.1724723792587
 20
351.8980763924225
 42
0.2679482664650075
 10
143.7394603792586
 20
352.1480753924225
 10
139.2715103792586
 20
352.1480783924225
 42
0.2679491924309663
  0
LWPOLYLINE
  5
7B
100
AcDbEntity
  8
0
  6
ByLayer
 62
    0
370
   -1
100
AcDbPolyline
 90
   16
 70
    1
 43
0
 10
276.9554803792587
 20
352.5810893924225
 42
0.2679482664649956
 10
277.2054793792587
 20
353.0141013924225
 10
277.2054823792587
 20
354.5819693924225
 42
0.2679491924309895
 10
276.9554823792587
 20
355.0149813924224
 42
-1.303223041600067
 10
277.6384943792586
 20
355.6979953924225
 42
0.2679482664649728
 10
278.0715063792586
 20
355.4479973924225
 10
282.5394553792586
 20
355.4479973924225
 42
0.2679491924309739
 10
282.9724683792584
 20
355.6979973924225
 42
-1.303223041600011
 10
283.6554823792586
 20
355.0149853924224
 42
0.267948266464991
 10
283.4054843792586
 20
354.5819733924225
 10
283.4054813792586
 20
353.0141033924225
 42
0.2679491924309819
 10
283.6554813792586
 20
352.5810903924225
 42
-1.303223041599792
 10
282.9724693792584
 20
351.8980763924225
 42
0.2679482664649946
 10
282.5394573792587
 20
352.1480753924225
 10
278.0715073792586
 20
352.1480783924225
 42
0.2679491924310236
 10
277.6384943792586
 20
351.8980783924225
 42
-1.303223041600028
  0
LWPOLYLINE
  5
7C
100
AcDbEntity
  8
0
  6
ByLayer
 62
    0
370
   -1
100
AcDbPolyline
 90
   16
 70
    1
 43
0
 10
304.1724693792586
 20
351.8980763924225
 42
0.2679482664649805
 10
303.7394573792586
 20
352.1480753924225
 10
299.2715073792585
 20
352.1480783924225
 42
0.2679491924309955
 10
298.8384933792587
 20
351.8980783924225
 42
-1.303223041599829
 10
298.1554793792586
 20
352.5810893924225
 42
0.2679482664649956
 10
298.4054783792586
 20
353.0141013924225
 10
298.4054813792586
 20
354.5819693924225
 42
0.2679491924309895
 10
298.1554813792586
 20
355.0149813924224
 42
-1.3032230416002
 10
298.8384933792585
 20
355.6979953924224
 42
0.2679482664650266
 10
299.2715053792587
 20
355.4479973924225
 10
303.7394553792586
 20
355.4479973924226
 42
0.2679491924310127
 10
304.1724673792586
 20
355.6979973924225
 42
-1.303223041600039
 10
304.8554813792587
 20
355.0149853924225
 42
0.2679482664649576
 10
304.6054833792587
 20
354.5819733924225
 10
304.6054803792587
 20
353.0141033924225
 42
0.2679491924309971
 10
304.8554803792587
 20
352.5810903924224
 42
-1.303223041600038
  0
LWPOLYLINE
  5
7D
100
AcDbEntity
  8
0
  6
ByLayer
 62
    0
370
   -1
100
AcDbPolyline
 90
   16
 70
    1
 43
0
 10
403.6554223792585
 20
352.5811293924225
 42
-0.2679482664650031
 10
403.4054243792586
 20
353.0141413924225
 10
403.4054213792587
 20
354.5820113924225
 42
-0.2679491924309828
 10
403.6554213792587
 20
355.0150243924228
 42
1.303223041599809
 10
402.9724093792587
 20
355.6980383924226
 42
-0.267948266464988
 10
402.5393973792586
 20
355.4480403924225
 10
398.0714473792586
 20
355.4480373924226
 42
-0.2679491924309503
 10
397.6384343792588
 20
355.6980373924227
 42
1.303223041599954
 10
396.9554203792586
 20
355.0150253924224
 42
-0.2679482664651124
 10
397.2054193792587
 20
354.5820133924225
 10
397.2054223792586
 20
353.0141463924225
 42
-0.2679491924309624
 10
396.9554223792586
 20
352.5811323924226
 42
1.303223029820248
 10
397.6384343792586
 20
351.8981183924226
 42
-0.2679482664649845
 10
398.0714463792586
 20
352.1481173924225
 10
402.5393953792586
 20
352.1481173924225
 42
-0.2679491924310012
 10
402.9724083792586
 20
351.8981173924226
 42
1.303223041599942
  0
LWPOLYLINE
  5
7E
100
AcDbEntity
  8
0
  6
ByLayer
 62
    0
370
   -1
100
AcDbPolyline
 90
   16
 70
    1
 43
0
 10
423.7393953792587
 20
352.1481173924225
 42
-0.2679491924309853
 10
424.1724073792586
 20
351.8981173924225
 42
1.3032230416002
 10
424.8554213792586
 20
352.5811293924223
 42
-0.2679482664650155
 10
424.6054233792588
 20
353.0141413924225
 10
424.6054203792586
 20
354.5820113924225
 42
-0.2679491924309178
 10
424.8554203792586
 20
355.0150243924226
 42
1.303223041600314
 10
424.1724093792586
 20
355.6980383924225
 42
-0.2679482664649159
 10
423.7393973792587
 20
355.4480403924226
 10
419.2714473792587
 20
355.4480373924225
 42
-0.267949192431012
 10
418.8384333792586
 20
355.6980373924225
 42
1.303223041600249
 10
418.1554193792587
 20
355.0150253924223
 42
-0.2679482664649277
 10
418.4054183792584
 20
354.5820133924225
 10
418.4054213792587
 20
353.0141463924225
 42
-0.2679491924309663
 10
418.1554213792587
 20
352.5811323924225
 42
1.303223041599627
 10
418.8384333792586
 20
351.8981183924226
 42
-0.2679482664650192
 10
419.2714453792587
 20
352.1481173924226
  0
LWPOLYLINE
  5
7F
100
AcDbEntity
  8
0
  6
ByLayer
 62
    0
370
   -1
100
AcDbPolyline
 90
   16
 70
    1
 43
0
 10
473.7394623792586
 20
35.45299839242244
 42
0.2679491924309708
 10
474.1724753792586
 20
35.70299839242246
 42
-1.303223041600195
 10
474.8554893792585
 20
35.0199863924226
 42
0.2679482664650095
 10
474.6054913792586
 20
34.58697439242246
 10
474.6054883792585
 20
33.01910439242249
 42
0.2679491924310277
 10
474.8554883792585
 20
32.58609039242224
 42
-1.303223041599291
 10
474.1724763792586
 20
31.90307639242233
 42
0.2679482664649963
 10
473.7394643792586
 20
32.15307539242258
 10
469.2715143792586
 20
32.15307839242246
 42
0.2679491924309727
 10
468.8385013792588
 20
31.90307839242245
 42
-1.303223041600172
 10
468.1554873792586
 20
32.58609039242253
 42
0.2679482664660042
 10
468.4054863792587
 20
33.0191023924225
 10
468.4054893792586
 20
34.58696939242259
 42
0.2679491924310548
 10
468.1554893792586
 20
35.01998239242249
 42
-1.30322304159983
 10
468.8385013792588
 20
35.70299639242246
 42
0.267948266464998
 10
469.2715133792585
 20
35.45299839242244
  0
LWPOLYLINE
  5
80
100
AcDbEntity
  8
0
  6
ByLayer
 62
    0
370
   -1
100
AcDbPolyline
 90
   63
 70
    0
 43
0
 10
485.9054893792586
 20
403.6230363924225
 10
485.9054893792586
 20
423.6230323924225
 42
0.4142137003890055
 10
480.9054893792586
 20
428.6230273924225
 10
429.5554893792587
 20
428.6230273924225
 42
-0.3419984508480003
 10
421.8095223792586
 20
422.6230333924225
 10
128.6514543792586
 20
422.6230313924225
 42
-0.3419983241320003
 10
120.9055043792586
 20
428.6230273924225
 10
105.9054883792586
 20
428.6230273924225
 10
105.9054883792586
 20
418.6230373924225
 10
108.1395083792586
 20
418.6230373924225
 42
0.267949192430997
 10
108.5725213792586
 20
418.8730373924225
 42
-1.303223041599806
 10
109.2555353792586
 20
418.1900253924223
 42
0.2679482664650022
 10
109.0055373792586
 20
417.7570133924225
 10
109.0055343792586
 20
394.3980413924225
 10
112.0055053792586
 20
394.3980413924225
 10
112.0055053792586
 20
395.6730363924225
 10
116.0055343792586
 20
395.6730363924225
 10
116.0055343792586
 20
394.3980413924225
 10
119.0055343792586
 20
394.3980413924225
 10
119.0055343792586
 20
391.1980303924225
 10
116.0055343792586
 20
391.1980303924225
 10
116.0055343792586
 20
389.9230363924225
 10
112.0055053792586
 20
389.9230363924225
 10
112.0055053792586
 20
391.1980303924225
 10
109.0055343792586
 20
391.1980303924225
 10
109.0055343792586
 20
367.8390603924225
 42
0.2679491924309972
 10
109.2555343792586
 20
367.4060463924225
 42
-1.303223041600027
 10
108.5725223792587
 20
366.7230323924225
 42
0.2679482664650227
 10
108.1395103792586
 20
366.9730313924225
 10
105.9054883792586
 20
366.9730343924225
 10
105.9054883792586
 20
90.27303539242246
 10
108.1395083792586
 20
90.27303539242246
 42
0.267949192430946
 10
108.5725213792586
 20
90.52303539242246
 42
-1.303223041600045
 10
109.2555353792586
 20
89.84002339242249
 42
0.267948266464987
 10
109.0055373792586
 20
89.40701139242248
 10
109.0055343792586
 20
66.04803939242248
 10
112.0055053792586
 20
66.04803939242248
 10
112.0055053792586
 20
67.32303339242247
 10
116.0055343792586
 20
67.32303339242247
 10
116.0055343792586
 20
66.04803939242248
 10
119.0055343792586
 20
66.04803939242248
 10
119.0055343792586
 20
62.84802839242258
 10
116.0055343792586
 20
62.84802839242258
 10
116.0055343792586
 20
61.57303339242247
 10
112.0055053792586
 20
61.57303339242247
 10
112.0055053792586
 20
62.84802839242258
 10
109.0055343792586
 20
62.84802839242258
 10
109.0055343792586
 20
39.48905839242258
 42
0.2679491924310172
 10
109.2555343792585
 20
39.0560443924224
 42
-1.303223041600011
 10
108.5725223792586
 20
38.37303039242249
 42
0.2679482664650203
 10
108.1395103792586
 20
38.6230293924225
 10
105.9054883792586
 20
38.62303239242249
 10
105.9054883792586
 20
28.62304239242246
 10
120.9055033792585
 20
28.62304239242246
 42
-0.3419983241320022
 10
128.6514543792586
 20
34.62302239242246
 10
421.8095223792586
 20
34.62303939242258
 42
-0.341998450848004
 10
429.5554893792587
 20
28.62304239242246
 10
480.9054893792586
 20
28.62304239242246
 42
0.4142137003890052
 10
485.9054893792586
 20
33.62303739242259
 10
485.9054893792586
 20
53.62303339242254
 10
483.9054893792586
 20
55.62303739242259
 10
483.9056283792586
 20
401.6231693924225
 10
485.9056283792586
 20
403.6231733924225
  0
LWPOLYLINE
  5
81
100
AcDbEntity
  8
0
  6
ByLayer
 62
    0
370
   -1
100
AcDbPolyline
 90
    2
 70
    0
 43
0
 10
105.9054883792586
 20
90.27303539242246
 10
105.9054883792586
 20
90.28194739242258
  0
LWPOLYLINE
  5
82
100
AcDbEntity
  8
0
  6
ByLayer
 62
    0
370
   -1
100
AcDbPolyline
 90
   16
 70
    1
 43
0
 10
467.9054883792586
 20
235.3489453924225
 42
0.2914636959410046
 10
466.7507893792587
 20
237.1615303924226
 10
453.9357423792586
 20
243.1378433924225
 42
-0.2914637668749934
 10
452.7810443792588
 20
244.9504303924225
 10
452.7810683792586
 20
340.6230373924225
 42
0.413511543641998
 10
444.8002703792587
 20
348.6230373924225
 10
163.9054863792586
 20
348.6230373924225
 42
0.4142134452329976
 10
155.9054873792587
 20
340.6230353924225
 10
155.9055003792585
 20
116.6230343924226
 42
0.4142134449210034
 10
163.9054863792586
 20
108.6230463924225
 10
444.8002143792586
 20
108.6230343924226
 42
0.4135115436420053
 10
452.7810123792585
 20
116.6230343924226
 10
452.7810363792587
 20
212.3940723924225
 42
-0.2930389507939908
 10
453.9462713792586
 20
214.2115343924226
 10
466.7402523792587
 20
220.0878393924225
 42
0.2930390217880013
 10
467.9054883792584
 20
221.9053013924225
  0
CIRCLE
  5
83
100
AcDbEntity
  8
0
  6
ByLayer
 62
    0
370
   -1
100
AcDbCircle
 10
410.9054213792587
 20
103.4480793924226
 40
1.6
  0
CIRCLE
  5
84
100
AcDbEntity
  8
0
  6
ByLayer
 62
    0
370
   -1
100
AcDbCircle
 10
290.9054813792586
 20
103.4480353924226
 40
1.6
  0
CIRCLE
  5
85
100
AcDbEntity
  8
0
  6
ByLayer
 62
    0
370
   -1
100
AcDbCircle
 10
460.9054183792587
 20
374.4030773924225
 40
1.6
  0
CIRCLE
  5
86
100
AcDbEntity
  8
0
  6
ByLayer
 62
    0
370
   -1
100
AcDbCircle
 10
460.9054113792587
 20
423.4430773924225
 40
1.6
  0
CIRCLE
  5
87
100
AcDbEntity
  8
0
  6
ByLayer
 62
    0
370
   -1
100
AcDbCircle
 10
460.9054893792586
 20
82.84303739242245
 40
1.6
  0
CIRCLE
  5
88
100
AcDbEntity
  8
0
  6
ByLayer
 62
    0
370
   -1
100
AcDbCircle
 10
130.9054853792586
 20
249.8687313924225
 40
1.6
  0
CIRCLE
  5
89
100
AcDbEntity
  8
0
  6
ByLayer
 62
    0
370
   -1
100
AcDbCircle
 10
434.2604813792585
 20
398.9230383924225
 40
1.6
  0
CIRCLE
  5
8A
100
AcDbEntity
  8
0
  6
ByLayer
 62
    0
370
   -1
100
AcDbCircle
 10
460.9054893792586
 20
33.80303639242248
 40
1.6
  0
CIRCLE
  5
8B
100
AcDbEntity
  8
0
  6
ByLayer
 62
    0
370
   -1
100
AcDbCircle
 10
130.9054853792586
 20
353.7980363924225
 40
1.6
  0
CIRCLE
  5
8C
100
AcDbEntity
  8
0
  6
ByLayer
 62
    0
370
   -1
100
AcDbCircle
 10
434.2604883792586
 20
58.32302939242248
 40
1.6
  0
CIRCLE
  5
8D
100
AcDbEntity
  8
0
  6
ByLayer
 62
    0
370
   -1
100
AcDbCircle
 10
130.9054853792586
 20
103.4480353924226
 40
1.6
  0
CIRCLE
  5
8E
100
AcDbEntity
  8
0
  6
ByLayer
 62
    0
370
   -1
100
AcDbCircle
 10
410.9054213792587
 20
353.7980783924225
 40
1.6
  0
CIRCLE
  5
8F
100
AcDbEntity
  8
0
  6
ByLayer
 62
    0
370
   -1
100
AcDbCircle
 10
290.9054813792586
 20
353.7980363924225
 40
1.6
  0
CIRCLE
  5
90
100
AcDbEntity
  8
0
  6
ByLayer
 62
    0
370
   -1
100
AcDbCircle
 10
130.9054853792586
 20
162.3412743924225
 40
1.6
  0
CIRCLE
  5
91
100
AcDbEntity
  8
0
  6
ByLayer
 62
    0
370
   -1
100
AcDbCircle
 10
130.9054853792586
 20
292.3730053924224
 40
1.6
  0
CIRCLE
  5
92
100
AcDbEntity
  8
0
  6
ByLayer
 62
    0
370
   -1
100
AcDbCircle
 10
130.9054853792586
 20
207.3644563924225
 40
1.6
  0
LWPOLYLINE
  5
93
100
AcDbEntity
  8
0
  6
ByLayer
 62
    0
370
   -1
100
AcDbPolyline
 90
   16
 70
    1
 43
0
 10
462.1224533792587
 20
284.4138753924234
 42
-1.3032230416
 10
462.8054673792586
 20
283.7308643924233
 42
0.2679482664649657
 10
462.5554693792587
 20
283.2978523924232
 10
462.5554663792586
 20
278.8299023924233
 42
0.2679491924309815
 10
462.8054663792586
 20
278.3968883924233
 42
-1.303223041598447
 10
462.1224543792588
 20
277.7138743924233
 42
0.2679482664651064
 10
461.6894423792586
 20
277.9638733924232
 10
460.1215753792586
 20
277.9638763924233
 42
0.2679491924309901
 10
459.6885623792584
 20
277.7138763924233
 42
-1.303223041599896
 10
459.0055483792586
 20
278.3968883924236
 42
0.2679482664649043
 10
459.2555473792585
 20
278.8299003924233
 10
459.2555473792586
 20
283.2978503924232
 42
0.2679491924309602
 10
459.0055473792586
 20
283.7308623924233
 42
-1.303223041600049
 10
459.6885583792587
 20
284.4138763924234
 42
0.2679482664649799
 10
460.1215703792586
 20
284.1638783924234
 10
461.6894413792586
 20
284.1638753924234
 42
0.2679491924309975
  0
LWPOLYLINE
  5
94
100
AcDbEntity
  8
0
  6
ByLayer
 62
    0
370
   -1
100
AcDbPolyline
 90
   16
 70
    1
 43
0
 10
462.8054673792586
 20
304.9308633924231
 42
0.2679482664649758
 10
462.5554693792587
 20
304.4978513924234
 10
462.5554663792586
 20
300.0299013924233
 42
0.2679491924309819
 10
462.8054663792586
 20
299.5968883924233
 42
-1.303223041599104
 10
462.1224543792588
 20
298.9138743924234
 42
0.2679482664649664
 10
461.6894423792586
 20
299.1638733924234
 10
460.1215753792586
 20
299.1638763924234
 42
0.2679491924310429
 10
459.6885623792584
 20
298.9138763924233
 42
-1.303223041599839
 10
459.0055483792586
 20
299.5968873924237
 42
0.2679482664649307
 10
459.2555473792585
 20
300.0298993924234
 10
459.2555473792586
 20
304.4978493924233
 42
0.2679491924309739
 10
459.0055473792586
 20
304.9308623924232
 42
-1.303223041600202
 10
459.6885583792587
 20
305.6138763924235
 42
0.267948266465048
 10
460.1215703792586
 20
305.3638783924234
 10
461.6894413792586
 20
305.3638753924235
 42
0.2679491924309294
 10
462.1224533792586
 20
305.6138753924234
 42
-1.303223041600182
  0
CIRCLE
  5
95
100
AcDbEntity
  8
0
  6
ByLayer
 62
    0
370
   -1
100
AcDbCircle
 10
460.9055083792587
 20
291.6638763924234
 40
1.6
  0
LWPOLYLINE
  5
96
100
AcDbEntity
  8
0
  6
ByLayer
 62
    0
370
   -1
100
AcDbPolyline
 90
   16
 70
    1
 43
0
 10
462.5554483792587
 20
157.2161703924216
 10
462.5554453792587
 20
152.7482203924217
 42
0.2679491924309439
 10
462.8054453792587
 20
152.3152063924216
 42
-1.303223041599788
 10
462.1224333792585
 20
151.6321923924215
 42
0.2679482664650769
 10
461.6894213792585
 20
151.8821913924216
 10
460.1215543792587
 20
151.8821943924215
 42
0.2679491924310012
 10
459.6885413792586
 20
151.6321943924215
 42
-1.303223041600186
 10
459.0055273792585
 20
152.3152063924214
 42
0.2679482664660923
 10
459.2555263792586
 20
152.7482183924216
 10
459.2555263792585
 20
157.2161683924216
 42
0.2679491924310163
 10
459.0055263792585
 20
157.6491803924216
 42
-1.303223041600057
 10
459.6885373792586
 20
158.3321943924216
 42
0.2679482664660009
 10
460.1215493792587
 20
158.0821963924216
 10
461.6894203792585
 20
158.0821933924217
 42
0.2679491924309682
 10
462.1224323792588
 20
158.3321933924217
 42
-1.303223041599995
 10
462.8054463792587
 20
157.6491823924217
 42
0.2679482664649692
  0
LWPOLYLINE
  5
97
100
AcDbEntity
  8
0
  6
ByLayer
 62
    0
370
   -1
100
AcDbPolyline
 90
   16
 70
    1
 43
0
 10
462.5554483792587
 20
178.4161693924216
 10
462.5554453792587
 20
173.9482193924216
 42
0.2679491924310199
 10
462.8054453792587
 20
173.5152063924215
 42
-1.303223041599797
 10
462.1224333792585
 20
172.8321923924215
 42
0.2679482664649958
 10
461.6894213792585
 20
173.0821913924216
 10
460.1215543792587
 20
173.0821943924217
 42
0.2679491924310012
 10
459.6885413792586
 20
172.8321943924217
 42
-1.303223041599771
 10
459.0055273792585
 20
173.5152053924216
 42
0.2679482664660613
 10
459.2555263792586
 20
173.9482173924216
 10
459.2555263792585
 20
178.4161673924216
 42
0.2679491924310196
 10
459.0055263792585
 20
178.8491803924217
 42
-1.303223041600028
 10
459.6885373792585
 20
179.5321943924216
 42
0.267948266465038
 10
460.1215493792587
 20
179.2821963924216
 10
461.6894203792585
 20
179.2821933924216
 42
0.2679491924309194
 10
462.1224323792583
 20
179.5321933924216
 42
-1.303223041599664
 10
462.8054463792587
 20
178.8491813924217
 42
0.2679482664650185
  0
CIRCLE
  5
98
100
AcDbEntity
  8
0
  6
ByLayer
 62
    0
370
   -1
100
AcDbCircle
 10
460.9054873792586
 20
165.5821943924217
 40
1.6
  0
ENDSEC
  0
SECTION
  2
OBJECTS
  0
DICTIONARY
  5
C
330
0
100
AcDbDictionary
281
    1
  3
ACAD_GROUP
350
D
  0
DICTIONARY
  5
D
330
C
100
AcDbDictionary
281
    1
  0
ENDSEC
  0
EOF
