999
dxfrw 0.6.3
  0
SECTION
  2
HEADER
  9
$ACADVER
  1
AC1021
  9
$DWGCODEPAGE
  3
ANSI_1252
  9
$INSBASE
 10
0
 20
0
 30
0
  9
$EXTMIN
 10
2.806152094116468
 20
3.229991937149418
 30
0
  9
$EXTMAX
 10
402.8061370941192
 20
383.2301319371495
 30
0
  9
$LIMMIN
 10
0
 20
0
  9
$LIMMAX
 10
420
 20
297
  9
$ORTHOMODE
 70
    0
  9
$REGENMODE
 70
    1
  9
$FILLMODE
 70
    1
  9
$QTEXTMODE
 70
    0
  9
$MIRRTEXT
 70
    0
  9
$LTSCALE
 40
1
  9
$ATTMODE
 70
    0
  9
$TEXTSIZE
 40
2.5
  9
$TRACEWID
 40
15.68
  9
$TEXTSTYLE
  7
STANDARD
  9
$CLAYER
  8
0
  9
$CELTYPE
  6
BYLAYER
  9
$CECOLOR
 62
  256
  9
$CELTSCALE
 40
1
  9
$DISPSILH
 70
    0
  9
$DIMSCALE
 40
2.5
  9
$DIMASZ
 40
2.5
  9
$DIMEXO
 40
0.625
  9
$DIMDLI
 40
3.75
  9
$DIMRND
 40
0
  9
$DIMDLE
 40
0
  9
$DIMEXE
 40
1.25
  9
$DIMTP
 40
0
  9
$DIMTM
 40
0
  9
$DIMTXT
 40
2.5
  9
$DIMCEN
 40
2.5
  9
$DIMTSZ
 40
0
  9
$DIMTOL
 70
    0
  9
$DIMLIM
 70
    0
  9
$DIMTIH
 70
    0
  9
$DIMTOH
 70
    0
  9
$DIMSE1
 70
    0
  9
$DIMSE2
 70
    0
  9
$DIMTAD
 70
    1
  9
$DIMZIN
 70
    8
  9
$DIMBLK
  1

  9
$DIMASO
 70
    1
  9
$DIMSHO
 70
    1
  9
$DIMPOST
  1

  9
$DIMAPOST
  1

  9
$DIMALT
 70
    0
  9
$DIMALTD
 70
    3
  9
$DIMALTF
 40
0.03937
  9
$DIMLFAC
 40
1
  9
$DIMTOFL
 70
    1
  9
$DIMTVP
 40
0
  9
$DIMTIX
 70
    0
  9
$DIMSOXD
 70
    0
  9
$DIMSAH
 70
    0
  9
$DIMBLK1
  1

  9
$DIMBLK2
  1

  9
$DIMSTYLE
  2
STANDARD
  9
$DIMCLRD
 70
    0
  9
$DIMCLRE
 70
    0
  9
$DIMCLRT
 70
    0
  9
$DIMTFAC
 40
1
  9
$DIMGAP
 40
0.625
  9
$DIMJUST
 70
    0
  9
$DIMSD1
 70
    0
  9
$DIMSD2
 70
    0
  9
$DIMTOLJ
 70
    0
  9
$DIMTZIN
 70
    8
  9
$DIMALTZ
 70
    0
  9
$DIMALTTZ
 70
    0
  9
$DIMUPT
 70
    0
  9
$DIMDEC
 70
    2
  9
$DIMTDEC
 70
    2
  9
$DIMALTU
 70
    2
  9
$DIMALTTD
 70
    3
  9
$DIMTXSTY
  7
standard
  9
$DIMAUNIT
 70
    0
  9
$DIMADEC
 70
    0
  9
$DIMALTRND
 40
0
  9
$DIMAZIN
 70
    0
  9
$DIMDSEP
 70
   44
  9
$DIMATFIT
 70
    3
  9
$DIMFRAC
 70
    0
  9
$DIMLDRBLK
  1
STANDARD
  9
$DIMLUNIT
 70
    2
  9
$DIMLWD
 70
   -2
  9
$DIMLWE
 70
   -2
  9
$DIMTMOVE
 70
    0
  9
$DIMFXL
 40
1
  9
$DIMFXLON
 70
    0
  9
$DIMJOGANG
 40
0.7854
  9
$DIMTFILL
 70
    0
  9
$DIMTFILLCLR
 70
    0
  9
$DIMARCSYM
 70
    0
  9
$DIMLTYPE
  6

  9
$DIMLTEX1
  6

  9
$DIMLTEX2
  6

  9
$LUNITS
 70
    2
  9
$LUPREC
 70
    4
  9
$SKETCHINC
 40
1
  9
$FILLETRAD
 40
0
  9
$AUNITS
 70
    0
  9
$AUPREC
 70
    2
  9
$MENU
  1
.
  9
$ELEVATION
 40
0
  9
$PELEVATION
 40
0
  9
$THICKNESS
 40
0
  9
$LIMCHECK
 70
    0
  9
$CHAMFERA
 40
0
  9
$CHAMFERB
 40
0
  9
$CHAMFERC
 40
0
  9
$CHAMFERD
 40
0
  9
$SKPOLY
 70
    0
  9
$USRTIMER
 70
    1
  9
$ANGBASE
 50
0
  9
$ANGDIR
 70
    0
  9
$PDMODE
 70
   34
  9
$PDSIZE
 40
0
  9
$PLINEWID
 40
0
  9
$SPLFRAME
 70
    0
  9
$SPLINETYPE
 70
    2
  9
$SPLINESEGS
 70
    8
  9
$HANDSEED
  5
20000
  9
$SURFTAB1
 70
    6
  9
$SURFTAB2
 70
    6
  9
$SURFTYPE
 70
    6
  9
$SURFU
 70
    6
  9
$SURFV
 70
    6
  9
$UCSBASE
  2

  9
$UCSNAME
  2

  9
$UCSORG
 10
0
 20
0
 30
0
  9
$UCSXDIR
 10
1
 20
0
 30
0
  9
$UCSYDIR
 10
0
 20
1
 30
0
  9
$UCSORTHOREF
  2

  9
$UCSORTHOVIEW
 70
    0
  9
$UCSORGTOP
 10
0
 20
0
 30
0
  9
$UCSORGBOTTOM
 10
0
 20
0
 30
0
  9
$UCSORGLEFT
 10
0
 20
0
 30
0
  9
$UCSORGRIGHT
 10
0
 20
0
 30
0
  9
$UCSORGFRONT
 10
0
 20
0
 30
0
  9
$UCSORGBACK
 10
0
 20
0
 30
0
  9
$PUCSBASE
  2

  9
$PUCSNAME
  2

  9
$PUCSORG
 10
0
 20
0
 30
0
  9
$PUCSXDIR
 10
1
 20
0
 30
0
  9
$PUCSYDIR
 10
0
 20
1
 30
0
  9
$PUCSORTHOREF
  2

  9
$PUCSORTHOVIEW
 70
    0
  9
$PUCSORGTOP
 10
0
 20
0
 30
0
  9
$PUCSORGBOTTOM
 10
0
 20
0
 30
0
  9
$PUCSORGLEFT
 10
0
 20
0
 30
0
  9
$PUCSORGRIGHT
 10
0
 20
0
 30
0
  9
$PUCSORGFRONT
 10
0
 20
0
 30
0
  9
$PUCSORGBACK
 10
0
 20
0
 30
0
  9
$USERI1
 70
    0
  9
$USERI2
 70
    0
  9
$USERI3
 70
    0
  9
$USERI4
 70
    0
  9
$USERI5
 70
    0
  9
$USERR1
 40
0
  9
$USERR2
 40
0
  9
$USERR3
 40
0
  9
$USERR4
 40
0
  9
$USERR5
 40
0
  9
$WORLDVIEW
 70
    1
  9
$SHADEDGE
 70
    3
  9
$SHADEDIF
 70
   70
  9
$TILEMODE
 70
    1
  9
$MAXACTVP
 70
   64
  9
$PINSBASE
 10
0
 20
0
 30
0
  9
$PLIMCHECK
 70
    0
  9
$PEXTMIN
 10
0
 20
0
 30
0
  9
$PEXTMAX
 10
0
 20
0
 30
0
  9
$GRIDMODE
 70
    1
  9
$SNAPSTYLE
 70
    0
  9
$GRIDUNIT
 10
0
 20
0
  9
$PLIMMIN
 10
0
 20
0
  9
$PLIMMAX
 10
1189
 20
841
  9
$UNITMODE
 70
    0
  9
$VISRETAIN
 70
    1
  9
$PLINEGEN
 70
    0
  9
$PSLTSCALE
 70
    1
  9
$TREEDEPTH
 70
 3020
  9
$CMLSTYLE
  2
Standard
  9
$CMLJUST
 70
    0
  9
$CMLSCALE
 40
20
  9
$PROXYGRAPHICS
 70
    1
  9
$MEASUREMENT
 70
    1
  9
$CELWEIGHT
370
   -1
  9
$ENDCAPS
280
    0
  9
$JOINSTYLE
280
    0
  9
$LWDISPLAY
290
    0
  9
$INSUNITS
 70
    0
  9
$HYPERLINKBASE
  1

  9
$STYLESHEET
  1

  9
$XEDIT
290
    1
  9
$CEPSNTYPE
380
    0
  9
$PSTYLEMODE
290
    1
  9
$EXTNAMES
290
    1
  9
$PSVPSCALE
 40
1
  9
$OLESTARTUP
290
    0
  9
$SORTENTS
280
  127
  9
$INDEXCTL
280
    0
  9
$HIDETEXT
280
    1
  9
$XCLIPFRAME
290
    0
  9
$HALOGAP
280
    0
  9
$OBSCOLOR
 70
  257
  9
$OBSLTYPE
280
    0
  9
$INTERSECTIONDISPLAY
280
    0
  9
$INTERSECTIONCOLOR
 70
  257
  9
$DIMASSOC
280
    1
  9
$PROJECTNAME
  1

  9
$CAMERADISPLAY
290
    0
  9
$LENSLENGTH
 40
50
  9
$CAMERAHEIGHT
 40
0
  9
$STEPSPERSEC
 40
2
  9
$STEPSIZE
 40
50
  9
$3DDWFPREC
 40
2
  9
$PSOLWIDTH
 40
5
  9
$PSOLHEIGHT
 40
80
  9
$LOFTANG1
 40
1.570796326794897
  9
$LOFTANG2
 40
1.570796326794897
  9
$LOFTMAG1
 40
0
  9
$LOFTMAG2
 40
0
  9
$LOFTPARAM
 70
    7
  9
$LOFTNORMALS
280
    1
  9
$LATITUDE
 40
1
  9
$LONGITUDE
 40
1
  9
$NORTHDIRECTION
 40
0
  9
$TIMEZONE
 70
-8000
  9
$LIGHTGLYPHDISPLAY
280
    1
  9
$TILEMODELIGHTSYNCH
280
    1
  9
$SOLIDHIST
280
    1
  9
$SHOWHIST
280
    1
  9
$DWFFRAME
280
    2
  9
$DGNFRAME
280
    0
  9
$REALWORLDSCALE
290
    1
  9
$INTERFERECOLOR
 62
    1
  9
$CSHADOW
280
    0
  9
$SHADOWPLANELOCATION
 40
0
  0
ENDSEC
  0
SECTION
  2
CLASSES
  0
ENDSEC
  0
SECTION
  2
TABLES
  0
TABLE
  2
VPORT
  5
8
330
0
100
AcDbSymbolTable
 70
    1
  0
VPORT
  5
31
330
2
100
AcDbSymbolTableRecord
100
AcDbViewportTableRecord
  2
*ACTIVE
 70
    0
 10
0
 20
0
 11
1
 21
1
 12
333.8541886368843
 22
153.6622347384558
 13
0
 23
0
 14
10
 24
10
 15
10
 25
10
 16
0
 26
0
 36
1
 17
0
 27
0
 37
0
 40
380.3468647885196
 41
1.831491712707182
 42
50
 43
0
 44
0
 50
0
 51
0
 71
    0
 72
  100
 73
    1
 74
    3
 75
    0
 76
    1
 77
    0
 78
    0
281
    0
 65
    1
110
0
120
0
130
0
111
1
121
0
131
0
112
0
122
1
132
0
 79
    0
146
0
348
10020
 60
    7
 61
    5
292
1
282
    1
141
0
142
0
 63
  250
421
3358443
  0
ENDTAB
  0
TABLE
  2
LTYPE
  5
5
330
0
100
AcDbSymbolTable
 70
    4
  0
LTYPE
  5
14
330
5
100
AcDbSymbolTableRecord
100
AcDbLinetypeTableRecord
  2
ByBlock
 70
    0
  3

 72
   65
 73
    0
 40
0
  0
LTYPE
  5
15
330
5
100
AcDbSymbolTableRecord
100
AcDbLinetypeTableRecord
  2
ByLayer
 70
    0
  3

 72
   65
 73
    0
 40
0
  0
LTYPE
  5
16
330
5
100
AcDbSymbolTableRecord
100
AcDbLinetypeTableRecord
  2
Continuous
 70
    0
  3
Solid line
 72
   65
 73
    0
 40
0
  0
LTYPE
  5
32
330
5
100
AcDbSymbolTableRecord
100
AcDbLinetypeTableRecord
  2
DOT
 70
    0
  3
Dot . . . . . . . . . . . . . . . . . . . . . .
 72
   65
 73
    2
 40
6.35
 49
0
 74
    0
 49
-6.35
 74
    0
  0
LTYPE
  5
33
330
5
100
AcDbSymbolTableRecord
100
AcDbLinetypeTableRecord
  2
DOTTINY
 70
    0
  3
Dot (.15x) .....................................
 72
   65
 73
    2
 40
0.9525
 49
0
 74
    0
 49
-0.9525
 74
    0
  0
LTYPE
  5
34
330
5
100
AcDbSymbolTableRecord
100
AcDbLinetypeTableRecord
  2
DOT2
 70
    0
  3
Dot (.5x) .....................................
 72
   65
 73
    2
 40
3.175
 49
0
 74
    0
 49
-3.175
 74
    0
  0
LTYPE
  5
35
330
5
100
AcDbSymbolTableRecord
100
AcDbLinetypeTableRecord
  2
DOTX2
 70
    0
  3
Dot (2x) .  .  .  .  .  .  .  .  .  .  .  .  .
 72
   65
 73
    2
 40
12.7
 49
0
 74
    0
 49
-12.7
 74
    0
  0
LTYPE
  5
36
330
5
100
AcDbSymbolTableRecord
100
AcDbLinetypeTableRecord
  2
DASHED
 70
    0
  3
Dashed _ _ _ _ _ _ _ _ _ _ _ _ _ _ _ _ _
 72
   65
 73
    2
 40
19.05
 49
12.7
 74
    0
 49
-6.35
 74
    0
  0
LTYPE
  5
37
330
5
100
AcDbSymbolTableRecord
100
AcDbLinetypeTableRecord
  2
DASHEDTINY
 70
    0
  3
Dashed (.15x) _ _ _ _ _ _ _ _ _ _ _ _ _ _ _ _ _
 72
   65
 73
    2
 40
2.8575
 49
1.905
 74
    0
 49
-0.9525
 74
    0
  0
LTYPE
  5
38
330
5
100
AcDbSymbolTableRecord
100
AcDbLinetypeTableRecord
  2
DASHED2
 70
    0
  3
Dashed (.5x) _ _ _ _ _ _ _ _ _ _ _ _ _ _ _ _ _
 72
   65
 73
    2
 40
9.524999999999999
 49
6.35
 74
    0
 49
-3.175
 74
    0
  0
LTYPE
  5
39
330
5
100
AcDbSymbolTableRecord
100
AcDbLinetypeTableRecord
  2
DASHEDX2
 70
    0
  3
Dashed (2x) ____  ____  ____  ____  ____  ___
 72
   65
 73
    2
 40
38.09999999999999
 49
25.4
 74
    0
 49
-12.7
 74
    0
  0
LTYPE
  5
3A
330
5
100
AcDbSymbolTableRecord
100
AcDbLinetypeTableRecord
  2
DASHDOT
 70
    0
  3
Dash dot __ . __ . __ . __ . __ . __ . __ . __
 72
   65
 73
    4
 40
25.4
 49
12.7
 74
    0
 49
-6.35
 74
    0
 49
0
 74
    0
 49
-6.35
 74
    0
  0
LTYPE
  5
3B
330
5
100
AcDbSymbolTableRecord
100
AcDbLinetypeTableRecord
  2
DASHDOTTINY
 70
    0
  3
Dash dot (.15x) _._._._._._._._._._._._._._._.
 72
   65
 73
    4
 40
3.81
 49
1.905
 74
    0
 49
-0.9525
 74
    0
 49
0
 74
    0
 49
-0.9525
 74
    0
  0
LTYPE
  5
3C
330
5
100
AcDbSymbolTableRecord
100
AcDbLinetypeTableRecord
  2
DASHDOT2
 70
    0
  3
Dash dot (.5x) _._._._._._._._._._._._._._._.
 72
   65
 73
    4
 40
12.7
 49
6.35
 74
    0
 49
-3.175
 74
    0
 49
0
 74
    0
 49
-3.175
 74
    0
  0
LTYPE
  5
3D
330
5
100
AcDbSymbolTableRecord
100
AcDbLinetypeTableRecord
  2
DASHDOTX2
 70
    0
  3
Dash dot (2x) ____  .  ____  .  ____  .  ___
 72
   65
 73
    4
 40
50.8
 49
25.4
 74
    0
 49
-12.7
 74
    0
 49
0
 74
    0
 49
-12.7
 74
    0
  0
LTYPE
  5
3E
330
5
100
AcDbSymbolTableRecord
100
AcDbLinetypeTableRecord
  2
DIVIDE
 70
    0
  3
Divide ____ . . ____ . . ____ . . ____ . . ____
 72
   65
 73
    6
 40
31.75
 49
12.7
 74
    0
 49
-6.35
 74
    0
 49
0
 74
    0
 49
-6.35
 74
    0
 49
0
 74
    0
 49
-6.35
 74
    0
  0
LTYPE
  5
3F
330
5
100
AcDbSymbolTableRecord
100
AcDbLinetypeTableRecord
  2
DIVIDETINY
 70
    0
  3
Divide (.15x) __..__..__..__..__..__..__..__.._
 72
   65
 73
    6
 40
4.7625
 49
1.905
 74
    0
 49
-0.9525
 74
    0
 49
0
 74
    0
 49
-0.9525
 74
    0
 49
0
 74
    0
 49
-0.9525
 74
    0
  0
LTYPE
  5
40
330
5
100
AcDbSymbolTableRecord
100
AcDbLinetypeTableRecord
  2
DIVIDE2
 70
    0
  3
Divide (.5x) __..__..__..__..__..__..__..__.._
 72
   65
 73
    6
 40
15.875
 49
6.35
 74
    0
 49
-3.175
 74
    0
 49
0
 74
    0
 49
-3.175
 74
    0
 49
0
 74
    0
 49
-3.175
 74
    0
  0
LTYPE
  5
41
330
5
100
AcDbSymbolTableRecord
100
AcDbLinetypeTableRecord
  2
DIVIDEX2
 70
    0
  3
Divide (2x) ________  .  .  ________  .  .  _
 72
   65
 73
    6
 40
63.5
 49
25.4
 74
    0
 49
-12.7
 74
    0
 49
0
 74
    0
 49
-12.7
 74
    0
 49
0
 74
    0
 49
-12.7
 74
    0
  0
LTYPE
  5
42
330
5
100
AcDbSymbolTableRecord
100
AcDbLinetypeTableRecord
  2
BORDER
 70
    0
  3
Border __ __ . __ __ . __ __ . __ __ . __ __ .
 72
   65
 73
    6
 40
44.45
 49
12.7
 74
    0
 49
-6.35
 74
    0
 49
12.7
 74
    0
 49
-6.35
 74
    0
 49
0
 74
    0
 49
-6.35
 74
    0
  0
LTYPE
  5
43
330
5
100
AcDbSymbolTableRecord
100
AcDbLinetypeTableRecord
  2
BORDERTINY
 70
    0
  3
Border (.15x) __.__.__.__.__.__.__.__.__.__.__.
 72
   65
 73
    6
 40
6.6675
 49
1.905
 74
    0
 49
-0.9525
 74
    0
 49
1.905
 74
    0
 49
-0.9525
 74
    0
 49
0
 74
    0
 49
-0.9525
 74
    0
  0
LTYPE
  5
44
330
5
100
AcDbSymbolTableRecord
100
AcDbLinetypeTableRecord
  2
BORDER2
 70
    0
  3
Border (.5x) __.__.__.__.__.__.__.__.__.__.__.
 72
   65
 73
    6
 40
22.225
 49
6.35
 74
    0
 49
-3.175
 74
    0
 49
6.35
 74
    0
 49
-3.175
 74
    0
 49
0
 74
    0
 49
-3.175
 74
    0
  0
LTYPE
  5
45
330
5
100
AcDbSymbolTableRecord
100
AcDbLinetypeTableRecord
  2
BORDERX2
 70
    0
  3
Border (2x) ____  ____  .  ____  ____  .  ___
 72
   65
 73
    6
 40
88.89999999999999
 49
25.4
 74
    0
 49
-12.7
 74
    0
 49
25.4
 74
    0
 49
-12.7
 74
    0
 49
0
 74
    0
 49
-12.7
 74
    0
  0
LTYPE
  5
46
330
5
100
AcDbSymbolTableRecord
100
AcDbLinetypeTableRecord
  2
CENTER
 70
    0
  3
Center ____ _ ____ _ ____ _ ____ _ ____ _ ____
 72
   65
 73
    4
 40
50.8
 49
31.75
 74
    0
 49
-6.35
 74
    0
 49
6.35
 74
    0
 49
-6.35
 74
    0
  0
LTYPE
  5
47
330
5
100
AcDbSymbolTableRecord
100
AcDbLinetypeTableRecord
  2
CENTERTINY
 70
    0
  3
Center (.15x) ___ _ ___ _ ___ _ ___ _ ___ _ ___
 72
   65
 73
    4
 40
7.619999999999999
 49
4.7625
 74
    0
 49
-0.9525
 74
    0
 49
0.9525
 74
    0
 49
-0.9525
 74
    0
  0
LTYPE
  5
48
330
5
100
AcDbSymbolTableRecord
100
AcDbLinetypeTableRecord
  2
CENTER2
 70
    0
  3
Center (.5x) ___ _ ___ _ ___ _ ___ _ ___ _ ___
 72
   65
 73
    4
 40
28.575
 49
19.05
 74
    0
 49
-3.175
 74
    0
 49
3.175
 74
    0
 49
-3.175
 74
    0
  0
LTYPE
  5
49
330
5
100
AcDbSymbolTableRecord
100
AcDbLinetypeTableRecord
  2
CENTERX2
 70
    0
  3
Center (2x) ________  __  ________  __  _____
 72
   65
 73
    4
 40
101.6
 49
63.5
 74
    0
 49
-12.7
 74
    0
 49
12.7
 74
    0
 49
-12.7
 74
    0
  0
ENDTAB
  0
TABLE
  2
LAYER
  5
2
330
0
100
AcDbSymbolTable
 70
    1
  0
LAYER
  5
10
330
2
100
AcDbSymbolTableRecord
100
AcDbLayerTableRecord
  2
0
 70
    0
 62
    7
  6
CONTINUOUS
370
   -3
390
F
  0
ENDTAB
  0
TABLE
  2
STYLE
  5
3
330
0
100
AcDbSymbolTable
 70
    3
  0
STYLE
  5
4A
330
2
100
AcDbSymbolTableRecord
100
AcDbTextStyleTableRecord
  2
Standard
 70
    0
 40
0
 41
1
 50
0
 71
    0
 42
1
  3
txt
  4

  0
ENDTAB
  0
TABLE
  2
VIEW
  5
6
330
0
100
AcDbSymbolTable
 70
    0
  0
ENDTAB
  0
TABLE
  2
UCS
  5
7
330
0
100
AcDbSymbolTable
 70
    0
  0
ENDTAB
  0
TABLE
  2
APPID
  5
9
330
0
100
AcDbSymbolTable
 70
    1
  0
APPID
  5
12
330
9
100
AcDbSymbolTableRecord
100
AcDbRegAppTableRecord
  2
ACAD
 70
    0
  0
APPID
  5
4B
330
9
100
AcDbSymbolTableRecord
100
AcDbRegAppTableRecord
  2
LibreCad
 70
    0
  0
ENDTAB
  0
TABLE
  2
DIMSTYLE
  5
A
330
0
100
AcDbSymbolTable
 70
    1
100
AcDbDimStyleTable
 71
    1
  0
DIMSTYLE
105
4C
330
A
100
AcDbSymbolTableRecord
100
AcDbDimStyleTableRecord
  2
Standard
 70
    0
 40
2.5
 41
2.5
 42
0.625
 43
0.38
 44
1.25
 45
0
 46
0
 47
0
 48
0
 49
1
140
2.5
141
0.09
142
0
143
25.4
144
1
145
0
146
1
147
0.625
148
0
 71
    0
 72
    0
 73
    0
 74
    1
 75
    0
 76
    0
 77
    0
 78
    8
 79
    0
170
    0
171
    2
172
    0
173
    0
174
    0
175
    0
176
    0
177
    0
178
    0
179
    0
271
    2
272
    4
273
    2
274
    2
275
    0
276
    0
277
    2
278
   44
279
    0
280
    0
281
    0
282
    0
283
    1
284
    0
285
    0
286
    0
288
    0
289
    3
340
standard
341

371
   -2
372
   -2
  0
ENDTAB
  0
TABLE
  2
BLOCK_RECORD
  5
1
330
0
100
AcDbSymbolTable
 70
    2
  0
BLOCK_RECORD
  5
1F
330
1
100
AcDbSymbolTableRecord
100
AcDbBlockTableRecord
  2
*Model_Space
 70
    0
280
    1
281
    0
  0
BLOCK_RECORD
  5
1E
330
1
100
AcDbSymbolTableRecord
100
AcDbBlockTableRecord
  2
*Paper_Space
 70
    0
280
    1
281
    0
  0
ENDTAB
  0
ENDSEC
  0
SECTION
  2
BLOCKS
  0
BLOCK
  5
20
330
1F
100
AcDbEntity
  8
0
100
AcDbBlockBegin
  2
*Model_Space
 70
    0
 10
0
 20
0
 30
0
  3
*Model_Space
  1

  0
ENDBLK
  5
21
330
1F
100
AcDbEntity
  8
0
100
AcDbBlockEnd
  0
BLOCK
  5
1C
330
1B
100
AcDbEntity
  8
0
100
AcDbBlockBegin
  2
*Paper_Space
 70
    0
 10
0
 20
0
 30
0
  3
*Paper_Space
  1

  0
ENDBLK
  5
1D
330
1F
100
AcDbEntity
  8
0
100
AcDbBlockEnd
  0
ENDSEC
  0
SECTION
  2
ENTITIES
  0
LWPOLYLINE
  5
4D
100
AcDbEntity
  8
0
  6
ByLayer
 62
    0
370
   -1
100
AcDbPolyline
 90
    6
 70
    1
 43
0
 10
63.37782309411782
 20
120.5932039371495
 42
0.5773502691899857
 10
58.87782309411782
 20
123.1912799371494
 10
29.95082309411795
 20
106.4902689371494
 42
0.5773502691899953
 10
29.95082309411784
 20
101.2941159371495
 10
58.87782309411782
 20
84.59310493714946
 42
0.5773502691899832
 10
63.37782309411783
 20
87.19118093714951
  0
LWPOLYLINE
  5
4E
100
AcDbEntity
  8
0
  6
ByLayer
 62
    0
370
   -1
100
AcDbPolyline
 90
    6
 70
    1
 43
0
 10
32.950823094118
 20
134.5921589371495
 42
-0.5773502691899793
 10
28.45082309411795
 20
137.1902349371495
 10
28.45082309411795
 20
170.5922579371495
 42
-0.5773502691899922
 10
32.950823094118
 20
173.1903339371494
 10
61.87782309411801
 20
156.4893229371495
 42
-0.5773502691899959
 10
61.87782309411782
 20
151.2931699371495
  0
LWPOLYLINE
  5
4F
100
AcDbEntity
  8
0
  6
ByLayer
 62
    0
370
   -1
100
AcDbPolyline
 90
    6
 70
    1
 43
0
 10
63.37782309411782
 20
220.5932039371495
 42
0.5773502691899814
 10
58.87782309411784
 20
223.1912799371494
 10
29.95082309411801
 20
206.4902689371495
 42
0.5773502691899958
 10
29.95082309411784
 20
201.2941159371495
 10
58.87782309411783
 20
184.5931049371495
 42
0.5773502691899823
 10
63.37782309411782
 20
187.1911809371495
  0
LWPOLYLINE
  5
50
100
AcDbEntity
  8
0
  6
ByLayer
 62
    0
370
   -1
100
AcDbPolyline
 90
    6
 70
    1
 43
0
 10
32.95082309411801
 20
234.5921589371495
 42
-0.5773502691899921
 10
28.45082309411801
 20
237.1902349371496
 10
28.45082309411801
 20
270.5922579371495
 42
-0.5773502691899857
 10
32.95082309411801
 20
273.1903339371494
 10
61.87782309411783
 20
256.4893229371495
 42
-0.5773502691899939
 10
61.8778230941178
 20
251.2931699371496
  0
LWPOLYLINE
  5
51
100
AcDbEntity
  8
0
  6
ByLayer
 62
    0
370
   -1
100
AcDbPolyline
 90
    6
 70
    1
 43
0
 10
29.95082309411803
 20
306.4902689371495
 42
0.5773502691899931
 10
29.95082309411787
 20
301.2941159371496
 10
58.87782309411782
 20
284.5931049371495
 42
0.5773502691899856
 10
63.37782309411782
 20
287.1911809371496
 10
63.37782309411782
 20
320.5932039371495
 42
0.5773502691899857
 10
58.87782309411782
 20
323.1912799371494
  0
LWPOLYLINE
  5
52
100
AcDbEntity
  8
0
  6
ByLayer
 62
    0
370
   -1
100
AcDbPolyline
 90
    6
 70
    1
 43
0
 10
28.45082309411801
 20
350.8912469371495
 42
-0.4142135580070034
 10
31.45082309411801
 20
353.8912469371495
 10
55.18167109411787
 20
353.8912469371495
 42
-0.7673269938990148
 10
56.68167109411775
 20
348.2931709371496
 10
32.95082309411799
 20
334.5921589371495
 42
-0.5773502691899838
 10
28.45082309411802
 20
337.1902349371496
  0
LWPOLYLINE
  5
53
100
AcDbEntity
  8
0
  6
ByLayer
 62
    0
370
   -1
100
AcDbPolyline
 90
    6
 70
    1
 43
0
 10
110.9974900941179
 20
348.3595209371495
 42
0.5773502691899897
 10
114.5048940941177
 20
348.3595209371495
 10
125.778076094118
 20
367.8852459371494
 42
0.5773502691900975
 10
124.0243750941179
 20
370.9227459371495
 10
101.4780090941178
 20
370.9227459371495
 42
0.5773502691899912
 10
99.72430809411804
 20
367.8852459371495
  0
LWPOLYLINE
  5
54
100
AcDbEntity
  8
0
  6
ByLayer
 62
    0
370
   -1
100
AcDbPolyline
 90
    6
 70
    1
 43
0
 10
158.543874094118
 20
369.9102459371494
 42
-0.5773502691900128
 10
162.0512780941179
 20
369.9102459371494
 10
173.324460094118
 20
350.3845209371494
 42
-0.5773502691899799
 10
171.5707590941179
 20
347.3470209371496
 10
149.0243940941178
 20
347.3470209371495
 42
-0.5773502691900166
 10
147.2706920941179
 20
350.3845209371495
  0
LWPOLYLINE
  5
55
100
AcDbEntity
  8
0
  6
ByLayer
 62
    0
370
   -1
100
AcDbPolyline
 90
    6
 70
    1
 43
0
 10
201.0438550941179
 20
348.3595209371494
 42
0.5773502691899897
 10
204.5512590941179
 20
348.3595209371494
 10
215.8244410941179
 20
367.8852459371494
 42
0.5773502691900927
 10
214.0707400941179
 20
370.9227459371496
 10
191.524375094118
 20
370.9227459371493
 42
0.5773502691900725
 10
189.7706730941179
 20
367.8852459371494
  0
LWPOLYLINE
  5
56
100
AcDbEntity
  8
0
  6
ByLayer
 62
    0
370
   -1
100
AcDbPolyline
 90
    6
 70
    1
 43
0
 10
377.1614660941178
 20
350.8912469371494
 42
0.4142135580070033
 10
374.1614660941178
 20
353.8912469371494
 10
350.4306170941179
 20
353.8912469371494
 42
0.7673269938989929
 10
348.9306170941179
 20
348.2931709371494
 10
372.6614660941178
 20
334.5921589371494
 42
0.5773502691899962
 10
377.1614660941178
 20
337.1902349371494
  0
LWPOLYLINE
  5
57
100
AcDbEntity
  8
0
  6
ByLayer
 62
    0
370
   -1
100
AcDbPolyline
 90
    6
 70
    1
 43
0
 10
375.6614660941178
 20
306.4902689371494
 42
-0.5773502691899968
 10
375.6614660941178
 20
301.2941159371494
 10
346.7344660941179
 20
284.5931049371495
 42
-0.5773502691899962
 10
342.2344660941179
 20
287.1911809371495
 10
342.2344660941178
 20
320.5932039371494
 42
-0.5773502691899922
 10
346.7344660941179
 20
323.1912799371494
  0
LWPOLYLINE
  5
58
100
AcDbEntity
  8
0
  6
ByLayer
 62
    0
370
   -1
100
AcDbPolyline
 90
    6
 70
    1
 43
0
 10
372.6614660941179
 20
234.5921109371495
 42
0.5773502691899666
 10
377.1614660941178
 20
237.1901869371495
 10
377.1614660941178
 20
270.5922099371495
 42
0.5773502691899985
 10
372.6614660941178
 20
273.1902859371494
 10
343.7344660941179
 20
256.4892749371496
 42
0.577350269189994
 10
343.7344660941179
 20
251.2931219371495
  0
LWPOLYLINE
  5
59
100
AcDbEntity
  8
0
  6
ByLayer
 62
    0
370
   -1
100
AcDbPolyline
 90
    6
 70
    1
 43
0
 10
375.6614660941178
 20
206.4902689371494
 42
-0.5773502691899985
 10
375.6614660941178
 20
201.2941159371494
 10
346.7344660941178
 20
184.5931049371494
 42
-0.5773502691899861
 10
342.2344660941179
 20
187.1911809371494
 10
342.2344660941178
 20
220.5932039371494
 42
-0.5773502691899874
 10
346.7344660941179
 20
223.1912799371494
  0
LWPOLYLINE
  5
5A
100
AcDbEntity
  8
0
  6
ByLayer
 62
    0
370
   -1
100
AcDbPolyline
 90
    6
 70
    1
 43
0
 10
372.6614660941179
 20
134.5921589371494
 42
0.5773502691899666
 10
377.1614660941178
 20
137.1902349371494
 10
377.1614660941178
 20
170.5922579371494
 42
0.5773502691899962
 10
372.6614660941178
 20
173.1903339371494
 10
343.7344660941179
 20
156.4893229371494
 42
0.5773502691899984
 10
343.7344660941179
 20
151.2931699371494
  0
LWPOLYLINE
  5
5B
100
AcDbEntity
  8
0
  6
ByLayer
 62
    0
370
   -1
100
AcDbPolyline
 90
    6
 70
    1
 43
0
 10
346.7344660941178
 20
84.59310493714943
 42
-0.5773502691899877
 10
342.2344660941179
 20
87.1911809371494
 10
342.2344660941179
 20
120.5932039371494
 42
-0.5773502691899954
 10
346.7344660941179
 20
123.1912799371494
 10
375.6614660941178
 20
106.4902689371494
 42
-0.5773502691899977
 10
375.6614660941178
 20
101.2941159371494
  0
LWPOLYLINE
  5
5C
100
AcDbEntity
  8
0
  6
ByLayer
 62
    0
370
   -1
100
AcDbPolyline
 90
    4
 70
    1
 43
0
 10
308.8061430941178
 20
11.23013093714942
 10
316.8061440941178
 20
11.23013093714942
 42
1.000000051619134
 10
316.8061440941178
 20
19.2301319371493
 10
308.8061430941179
 20
19.23013093714942
 42
0.999999615446174
  0
LWPOLYLINE
  5
5D
100
AcDbEntity
  8
0
  6
ByLayer
 62
    0
370
   -1
100
AcDbPolyline
 90
    4
 70
    1
 43
0
 10
96.80614609411792
 20
19.23013193714946
 10
88.80614509411792
 20
19.23013093714946
 42
1.000000051619137
 10
88.80614509411792
 20
11.23013093714946
 10
96.80614609411792
 20
11.23013093714946
 42
0.9999996160240564
  0
LWPOLYLINE
  5
5E
100
AcDbEntity
  8
0
  6
ByLayer
 62
    0
370
   -1
100
AcDbPolyline
 90
   16
 70
    1
 43
0
 10
78.84809509411792
 20
14.28013093714959
 42
0.2679482664649633
 10
78.41508309411782
 20
14.53012893714947
 10
76.84721209411792
 20
14.53013193714959
 42
0.2679491924309865
 10
76.41419909411793
 20
14.28013193714959
 42
-1.303223041599704
 10
75.73118509411772
 20
14.96314393714939
 42
0.2679482664649793
 10
75.98118409411782
 20
15.39615593714945
 10
75.98118709411781
 20
41.06410493714947
 42
0.2679491924310224
 10
75.73118709411781
 20
41.49711793714953
 42
-1.303223041600003
 10
76.41419909411799
 20
42.18013193714933
 42
0.2679482664660095
 10
76.84721109411792
 20
41.93013293714933
 10
78.41507809411782
 20
41.93012993714935
 42
0.2679491924309584
 10
78.84809009411804
 20
42.18012993714935
 42
-1.303223041600047
 10
79.53110409411782
 20
41.49711893714919
 42
0.2679482664649943
 10
79.28110609411782
 20
41.06410693714947
 10
79.28110609411792
 20
15.39615793714945
 42
0.2679491924309573
 10
79.53110609411782
 20
14.96314493714939
 42
-1.30322304160004
  0
LWPOLYLINE
  5
5F
100
AcDbEntity
  8
0
  6
ByLayer
 62
    0
370
   -1
100
AcDbPolyline
 90
   16
 70
    1
 43
0
 10
326.0811860941179
 20
41.49711793714949
 42
-1.303223041600107
 10
326.7641980941179
 20
42.18013193714935
 42
0.2679482664649447
 10
327.1972100941178
 20
41.93013293714928
 10
328.7650770941178
 20
41.93012993714927
 42
0.2679491924309841
 10
329.1980900941179
 20
42.1801299371493
 42
-1.303223041599974
 10
329.881104094118
 20
41.4971189371491
 42
0.2679482664650168
 10
329.631106094118
 20
41.06410693714943
 10
329.6311060941178
 20
15.39615793714941
 42
0.2679491924309699
 10
329.8811060941178
 20
14.9631449371494
 42
-1.303223041600086
 10
329.1980940941177
 20
14.28013093714952
 42
0.2679482664650426
 10
328.7650820941178
 20
14.53012893714949
 10
327.1972120941178
 20
14.53013193714957
 42
0.2679491924309446
 10
326.7641980941179
 20
14.28013193714944
 42
-1.303223041599772
 10
326.0811840941179
 20
14.96314393714918
 42
0.2679482664650204
 10
326.3311830941179
 20
15.39615593714941
 10
326.3311860941178
 20
41.06410493714943
 42
0.2679491924310652
  0
LWPOLYLINE
  5
60
100
AcDbEntity
  8
0
  6
ByLayer
 62
    0
370
   -1
100
AcDbPolyline
 90
   16
 70
    1
 43
0
 10
350.2361450941177
 20
41.06417493714953
 42
-0.2679491924311624
 10
350.4861450941178
 20
41.49718893714945
 42
1.30322304159923
 10
349.8031340941179
 20
42.18020293714934
 42
-0.26794826646492
 10
349.3701220941178
 20
41.93020393714949
 10
347.8022540941179
 20
41.93020093714939
 42
-0.2679491924309765
 10
347.3692410941176
 20
42.18020093714937
 42
1.303223041600121
 10
346.6862270941176
 20
41.49718893714925
 42
-0.2679482664649924
 10
346.9362260941177
 20
41.06417693714953
 10
346.9362260941177
 20
36.59622693714938
 42
-0.2679491924309387
 10
346.6862260941176
 20
36.16321493714936
 42
1.303223041600736
 10
347.3692380941175
 20
35.48020093714929
 42
-0.2679482617890577
 10
347.8022500941178
 20
35.73019893714928
 10
349.3701200941177
 20
35.73020193714929
 42
-0.2679491924310053
 10
349.803132094118
 20
35.48020193714932
 42
1.303223041600291
 10
350.4861460941178
 20
36.16321393714939
 42
-0.2679482664650746
 10
350.2361480941178
 20
36.59622593714939
  0
LWPOLYLINE
  5
61
100
AcDbEntity
  8
0
  6
ByLayer
 62
    0
370
   -1
100
AcDbPolyline
 90
   16
 70
    1
 43
0
 10
347.8022500941178
 20
14.53019993714942
 10
349.3701200941178
 20
14.53020293714943
 42
-0.2679491924309574
 10
349.8031320941179
 20
14.28020293714942
 42
1.303223041599825
 10
350.4861460941179
 20
14.96321393714949
 42
-0.2679482664649608
 10
350.2361480941179
 20
15.39622593714928
 10
350.2361450941179
 20
19.86417593714931
 42
-0.2679491924309991
 10
350.4861450941179
 20
20.29718893714944
 42
1.303223041600112
 10
349.8031340941179
 20
20.98020293714927
 42
-0.2679482664649114
 10
349.3701220941178
 20
20.73020393714963
 10
347.8022540941179
 20
20.73020093714931
 42
-0.2679491924310008
 10
347.369241094118
 20
20.9802009371493
 42
1.303223041600503
 10
346.6862270941181
 20
20.29718993714957
 42
-0.2679482664650162
 10
346.9362260941178
 20
19.86417793714942
 10
346.936226094118
 20
15.39622793714934
 42
-0.2679491924309994
 10
346.6862260941178
 20
14.96321593714947
 42
1.303223041600309
 10
347.3692380941179
 20
14.28020193714941
 42
-0.2679482664649633
  0
LWPOLYLINE
  5
62
100
AcDbEntity
  8
0
  6
ByLayer
 62
    0
370
   -1
100
AcDbPolyline
 90
   16
 70
    1
 43
0
 10
360.2721720941178
 20
53.22517593714942
 10
364.7401220941178
 20
53.22517893714942
 42
-0.2679491924729852
 10
365.1731340941179
 20
52.97517893714943
 42
1.303223029820034
 10
365.8561480941178
 20
53.65819093714951
 42
-0.2679482664649401
 10
365.6061500941179
 20
54.09120293714934
 10
365.6061470941179
 20
55.65906993714943
 42
-0.2679491924309189
 10
365.8561470941178
 20
56.09208393714934
 42
1.303223041600478
 10
365.1731350941178
 20
56.77509793714928
 42
-0.267948266422977
 10
364.7401230941178
 20
56.52509893714939
 10
360.2721740941178
 20
56.52509793714929
 42
-0.26794919247398
 10
359.839160094118
 20
56.77509793714934
 42
1.30322304159998
 10
359.1561460941177
 20
56.09208593714946
 42
-0.2679482664649881
 10
359.4061450941178
 20
55.65907393714942
 10
359.4061490941177
 20
54.09120393714934
 42
-0.2679491924309377
 10
359.1561490941178
 20
53.6581909371495
 42
1.303223041599744
 10
359.839160094118
 20
52.97517793714943
 42
-0.2679482664230043
  0
LWPOLYLINE
  5
63
100
AcDbEntity
  8
0
  6
ByLayer
 62
    0
370
   -1
100
AcDbPolyline
 90
   16
 70
    1
 43
0
 10
385.9401220941178
 20
53.22518193714939
 42
-0.2679491924729871
 10
386.373134094118
 20
52.97518193714935
 42
1.303223041599612
 10
387.0561480941177
 20
53.65819393714956
 42
-0.2679482664650175
 10
386.8061500941179
 20
54.09120593714932
 10
386.8061470941177
 20
55.65907293714941
 42
-0.2679491924309777
 10
387.0561460941179
 20
56.09208693714947
 42
1.303223029819976
 10
386.3731350941179
 20
56.77510093714935
 42
-0.2679482664230377
 10
385.9401230941179
 20
56.52510193714934
 10
381.4721730941179
 20
56.52510093714935
 42
-0.2679491924740228
 10
381.039160094118
 20
56.77510093714935
 42
1.303223029820022
 10
380.3561460941177
 20
56.09208893714945
 42
-0.2679482664649582
 10
380.6061450941177
 20
55.6590769371494
 10
380.6061480941177
 20
54.09120693714932
 42
-0.2679491924309929
 10
380.3561480941178
 20
53.65819393714946
 42
1.303223029820095
 10
381.0391600941181
 20
52.97518093714933
 42
-0.2679482664229348
 10
381.4721720941178
 20
53.22517893714939
  0
LWPOLYLINE
  5
64
100
AcDbEntity
  8
0
  6
ByLayer
 62
    0
370
   -1
100
AcDbPolyline
 90
   16
 70
    1
 43
0
 10
399.2761450941178
 20
41.06418193714928
 42
-0.2679491924309557
 10
399.5261450941181
 20
41.49719593714916
 42
1.303223041599439
 10
398.8431340941179
 20
42.18020993714949
 42
-0.2679482664651006
 10
398.4101220941178
 20
41.93021093714942
 10
396.8422540941178
 20
41.93020793714942
 42
-0.2679491924310353
 10
396.4092410941179
 20
42.18020793714945
 42
1.303223041599794
 10
395.7262270941179
 20
41.49719593714963
 42
-0.2679482664650543
 10
395.9762260941178
 20
41.06418393714927
 10
395.9762260941178
 20
36.59623393714953
 42
-0.2679491924309672
 10
395.7262260941178
 20
36.16322193714952
 42
1.30322304159993
 10
396.4092380941179
 20
35.4802079371493
 42
-0.2679482664649732
 10
396.8422500941178
 20
35.73020593714932
 10
398.4101200941178
 20
35.73020893714934
 42
-0.2679491924310008
 10
398.8431320941182
 20
35.48020893714934
 42
1.303223041598684
 10
399.526146094118
 20
36.16322093714933
 42
-0.2679482664650822
 10
399.2761480941177
 20
36.59623293714947
  0
LWPOLYLINE
  5
65
100
AcDbEntity
  8
0
  6
ByLayer
 62
    0
370
   -1
100
AcDbPolyline
 90
   16
 70
    1
 43
0
 10
399.5261450941178
 20
20.29719593714949
 42
1.303223041599975
 10
398.8431340941178
 20
20.98020993714935
 42
-0.2679482664649945
 10
398.4101220941178
 20
20.7302109371492
 10
396.8422540941178
 20
20.7302079371493
 42
-0.2679491924310526
 10
396.4092410941178
 20
20.98020793714932
 42
1.303223041599838
 10
395.7262270941179
 20
20.29719693714906
 42
-0.267948261788983
 10
395.9762260941179
 20
19.8641849371494
 10
395.9762260941179
 20
15.39623493714931
 42
-0.2679491924309941
 10
395.726226094118
 20
14.96322293714937
 42
1.303223041600133
 10
396.4092380941179
 20
14.28020893714939
 42
-0.2679482664649624
 10
396.8422500941178
 20
14.5302069371494
 10
398.4101200941179
 20
14.53020993714937
 42
-0.2679491924310367
 10
398.8431320941179
 20
14.28020993714943
 42
1.303223041601297
 10
399.526146094118
 20
14.96322093714958
 42
-0.2679482664649332
 10
399.2761480941178
 20
15.39623293714932
 10
399.2761450941178
 20
19.8641829371494
 42
-0.2679491924310472
  0
LWPOLYLINE
  5
66
100
AcDbEntity
  8
0
  6
ByLayer
 62
    0
370
   -1
100
AcDbPolyline
 90
   16
 70
    1
 43
0
 10
57.81007909411792
 20
41.93012993714934
 42
0.2679491924309696
 10
58.24309209411793
 20
42.18012993714937
 42
-1.303223041599852
 10
58.92610609411791
 20
41.49711893714946
 42
0.2679482664650123
 10
58.67610809411792
 20
41.06410693714948
 10
58.67610809411792
 20
36.59615693714938
 42
0.2679491924309894
 10
58.92610809411792
 20
36.16314493714953
 42
-1.30322304160046
 10
58.24309609411782
 20
35.48013093714947
 42
0.2679482664649864
 10
57.81008409411793
 20
35.73012893714947
 10
56.24221409411781
 20
35.73013193714948
 42
0.2679491924309872
 10
55.80920009411797
 20
35.48013193714945
 42
-1.303223041600657
 10
55.1261860941179
 20
36.16314293714954
 42
0.2679482617889323
 10
55.3761850941179
 20
36.59615493714939
 10
55.37618809411789
 20
41.06410493714948
 42
0.26794919243097
 10
55.12618809411801
 20
41.49711793714954
 42
-1.303223041600813
 10
55.80920009411808
 20
42.18013193714934
 42
0.267948266465995
 10
56.24221209411782
 20
41.93013293714934
  0
LWPOLYLINE
  5
67
100
AcDbEntity
  8
0
  6
ByLayer
 62
    0
370
   -1
100
AcDbPolyline
 90
   16
 70
    1
 43
0
 10
55.3761850941179
 20
15.39615593714946
 10
55.37618809411778
 20
19.86410593714949
 42
0.2679491924309624
 10
55.12618809411778
 20
20.29711893714926
 42
-1.303223041600097
 10
55.80920009411786
 20
20.98013293714946
 42
0.267948266466009
 10
56.24221209411782
 20
20.73013393714934
 10
57.81007909411792
 20
20.73013093714946
 42
0.2679491924309844
 10
58.24309209411771
 20
20.98013093714946
 42
-1.303223041600126
 10
58.92610609411781
 20
20.29711893714978
 42
0.267948266465009
 10
58.67610809411792
 20
19.86410693714954
 10
58.67610809411782
 20
15.39615793714945
 42
0.2679491924309759
 10
58.92610809411802
 20
14.96314493714938
 42
-1.303223041600393
 10
58.24309609411772
 20
14.28013093714959
 42
0.2679482664650045
 10
57.81008409411783
 20
14.53012893714954
 10
56.24221409411781
 20
14.53013193714959
 42
0.2679491924309772
 10
55.80920009411786
 20
14.28013193714959
 42
-1.303223041600185
 10
55.1261860941179
 20
14.96314393714939
 42
0.2679482664649976
  0
LWPOLYLINE
  5
68
100
AcDbEntity
  8
0
  6
ByLayer
 62
    0
370
   -1
100
AcDbPolyline
 90
   16
 70
    1
 43
0
 10
45.34011409411791
 20
53.22517093714938
 10
40.87216409411782
 20
53.22517393714948
 42
0.2679491924309689
 10
40.43915109411775
 20
52.97517393714948
 42
-1.303223041599836
 10
39.75613709411779
 20
53.65818593714949
 42
0.2679482664649921
 10
40.00613609411791
 20
54.09119793714935
 10
40.00613909411778
 20
55.65906493714939
 42
0.2679491924309853
 10
39.7561390941179
 20
56.09207793714948
 42
-1.30322304160003
 10
40.43915009411797
 20
56.77509193714959
 42
0.2679482664649642
 10
40.87216209411794
 20
56.5250929371497
 10
45.34011209411791
 20
56.52509293714936
 42
0.2679491924309655
 10
45.77312509411799
 20
56.77509293714936
 42
-1.303223041599745
 10
46.45613909411794
 20
56.09208193714944
 42
0.2679482664650042
 10
46.20614109411795
 20
55.65906993714949
 10
46.20613809411783
 20
54.09119893714935
 42
0.2679491924309605
 10
46.45613809411795
 20
53.65818693714943
 42
-1.303223041600108
 10
45.77312609411776
 20
52.97517293714949
 42
0.2679482664649847
  0
LWPOLYLINE
  5
69
100
AcDbEntity
  8
0
  6
ByLayer
 62
    0
370
   -1
100
AcDbPolyline
 90
   16
 70
    1
 43
0
 10
18.5561370941178
 20
53.65818593714945
 42
0.2679482664650152
 10
18.8061360941178
 20
54.09119793714935
 10
18.80613909411785
 20
55.65906493714939
 42
0.2679491924309648
 10
18.55613909411791
 20
56.09207793714948
 42
-1.303223041600142
 10
19.23915109411798
 20
56.7750919371496
 42
0.2679482664649329
 10
19.67216309411784
 20
56.52509293714968
 10
24.14011309411781
 20
56.52509293714935
 42
0.2679491924309979
 10
24.57312509411805
 20
56.77509293714936
 42
-1.303223041599785
 10
25.25613909411796
 20
56.09208193714945
 42
0.2679482664649939
 10
25.00614109411784
 20
55.65906993714949
 10
25.00613809411784
 20
54.09119893714935
 42
0.2679491924309624
 10
25.2561380941179
 20
53.65818693714946
 42
-1.303223041600107
 10
24.57312709411794
 20
52.97517293714949
 42
0.267948266464998
 10
24.1401150941178
 20
53.22517093714938
 10
19.672165094118
 20
53.22517393714948
 42
0.2679491924309755
 10
19.23915109411782
 20
52.97517393714948
 42
-1.303223041599853
  0
LWPOLYLINE
  5
6A
100
AcDbEntity
  8
0
  6
ByLayer
 62
    0
370
   -1
100
AcDbPolyline
 90
   16
 70
    1
 43
0
 10
9.636108094117802
 20
36.5961569371494
 42
0.2679491924309841
 10
9.886108094117802
 20
36.16314493714955
 42
-1.303223041600201
 10
9.203096094118013
 20
35.48013093714948
 42
0.2679482664650492
 10
8.77008409411782
 20
35.73012893714949
 10
7.202214094117849
 20
35.73013193714947
 42
0.2679491924309881
 10
6.769200094117946
 20
35.48013193714959
 42
-1.303223041600593
 10
6.086186094117819
 20
36.16314293714955
 42
0.2679482617889523
 10
6.336185094117937
 20
36.5961549371494
 10
6.336188094117824
 20
41.06410493714949
 42
0.2679491924310043
 10
6.086188094118047
 20
41.49711793714956
 42
-1.303223041600303
 10
6.769200094117894
 20
42.18013193714935
 42
0.2679482664659433
 10
7.202212094117847
 20
41.93013293714935
 10
8.770079094117946
 20
41.93012993714934
 42
0.267949192430987
 10
9.203092094117965
 20
42.18012993714935
 42
-1.303223041599814
 10
9.88610609411792
 20
41.49711893714943
 42
0.2679482664649838
 10
9.636108094117802
 20
41.06410693714948
  0
LWPOLYLINE
  5
6B
100
AcDbEntity
  8
0
  6
ByLayer
 62
    0
370
   -1
100
AcDbPolyline
 90
   16
 70
    1
 43
0
 10
78.41512409411791
 20
91.93020093714941
 10
76.84725609411792
 20
91.93019793714942
 42
-0.267949192430976
 10
76.41424309411794
 20
92.18019793714942
 42
1.303223041600333
 10
75.73122909411772
 20
91.4971859371494
 42
-0.2679482664650346
 10
75.98122809411792
 20
91.06417393714952
 10
75.98122809411784
 20
86.5962249371494
 42
-0.2679491924309739
 10
75.73122809411792
 20
86.1632119371495
 42
1.303223041600146
 10
76.414240094118
 20
85.48019793714954
 42
-0.2679482664650126
 10
76.84725209411782
 20
85.73019593714957
 10
78.41512209411782
 20
85.73019893714934
 42
-0.267949192430976
 10
78.84813409411792
 20
85.48019893714934
 42
1.303223041599767
 10
79.53114809411782
 20
86.16321093714942
 42
-0.2679482664649377
 10
79.28115009411782
 20
86.59622293714941
 10
79.28114709411793
 20
91.06417293714952
 42
-0.2679491924309583
 10
79.53114709411781
 20
91.49718593714931
 42
1.303223041600115
 10
78.84813609411792
 20
92.18019993714941
 42
-0.2679482664660442
  0
LWPOLYLINE
  5
6C
100
AcDbEntity
  8
0
  6
ByLayer
 62
    0
370
   -1
100
AcDbPolyline
 90
   16
 70
    1
 43
0
 10
78.41512409411791
 20
70.73020193714933
 10
76.84725609411792
 20
70.73019893714934
 42
-0.2679491924309924
 10
76.41424309411789
 20
70.98019893714934
 42
1.303223041600212
 10
75.73122909411782
 20
70.29718693714943
 42
-0.2679482664649732
 10
75.98122809411794
 20
69.86417493714936
 10
75.98122809411791
 20
65.39622493714933
 42
-0.2679491924309694
 10
75.73122809411782
 20
64.96321293714948
 42
1.303223041600129
 10
76.41424009411801
 20
64.28019893714946
 42
-0.2679482617889649
 10
76.84725209411782
 20
64.53019693714924
 10
78.41512209411782
 20
64.53019993714946
 42
-0.267949192430976
 10
78.84813409411792
 20
64.28019993714946
 42
1.303223041600493
 10
79.53114809411782
 20
64.96321093714946
 42
-0.2679482664649551
 10
79.28115009411782
 20
65.39622293714933
 10
79.28114709411793
 20
69.86417293714936
 42
-0.2679491924310382
 10
79.53114709411781
 20
70.29718693714955
 42
1.303223041600439
 10
78.84813609411802
 20
70.98020093714933
 42
-0.2679482664648762
  0
LWPOLYLINE
  5
6D
100
AcDbEntity
  8
0
  6
ByLayer
 62
    0
370
   -1
100
AcDbPolyline
 90
   16
 70
    1
 43
0
 10
79.53110409411782
 20
190.2971269371494
 42
0.2679482664650123
 10
79.28110609411782
 20
189.8641149371494
 10
79.28110609411793
 20
185.3961649371495
 42
0.2679491924308763
 10
79.53110609411783
 20
184.9631529371496
 42
-1.303223041599604
 10
78.84809509411792
 20
184.2801389371493
 42
0.2679482664649542
 10
78.41508309411782
 20
184.5301369371493
 10
76.84721209411792
 20
184.5301399371493
 42
0.267949192430976
 10
76.41419909411793
 20
184.2801399371493
 42
-1.303223041599502
 10
75.73118509411772
 20
184.9631509371495
 42
0.267948266465029
 10
75.98118409411781
 20
185.3961629371494
 10
75.98118709411783
 20
189.8641129371496
 42
0.2679491924309948
 10
75.73118709411776
 20
190.2971269371493
 42
-1.303223041599695
 10
76.41419909411758
 20
190.9801409371494
 42
0.2679482664661513
 10
76.84721109411792
 20
190.7301419371494
 10
78.41507809411782
 20
190.7301389371494
 42
0.2679491924309356
 10
78.84809009411798
 20
190.9801389371494
 42
-1.303223041600843
  0
LWPOLYLINE
  5
6E
100
AcDbEntity
  8
0
  6
ByLayer
 62
    0
370
   -1
100
AcDbPolyline
 90
   16
 70
    1
 43
0
 10
79.53110609411792
 20
206.1631519371495
 42
-1.303223041600082
 10
78.84809509411801
 20
205.4801379371494
 42
0.267948266465028
 10
78.41508309411782
 20
205.7301359371495
 10
76.84721209411792
 20
205.7301389371494
 42
0.2679491924309967
 10
76.41419909411799
 20
205.4801389371494
 42
-1.303223041599585
 10
75.73118509411782
 20
206.1631509371495
 42
0.2679482664650366
 10
75.98118409411784
 20
206.5961629371494
 10
75.98118709411781
 20
211.0641129371495
 42
0.2679491924310272
 10
75.73118709411783
 20
211.4971259371495
 42
-1.303223041600023
 10
76.41419909411806
 20
212.1801399371494
 42
0.267948266466
 10
76.84721109411792
 20
211.9301409371493
 10
78.41507809411782
 20
211.9301379371494
 42
0.2679491924309508
 10
78.84809009411802
 20
212.1801379371494
 42
-1.303223041599767
 10
79.53110409411785
 20
211.4971259371494
 42
0.2679482664649489
 10
79.28110609411793
 20
211.0641139371495
 10
79.2811060941178
 20
206.5961649371495
 42
0.2679491924310173
  0
LWPOLYLINE
  5
6F
100
AcDbEntity
  8
0
  6
ByLayer
 62
    0
370
   -1
100
AcDbPolyline
 90
   16
 70
    1
 43
0
 10
75.73118509411782
 20
366.1631469371494
 42
0.2679482664650347
 10
75.98118409411782
 20
366.5961589371495
 10
75.98118709411781
 20
371.0641089371495
 42
0.2679491924309605
 10
75.7311870941178
 20
371.4971219371494
 42
-1.303223041600019
 10
76.414199094118
 20
372.1801359371496
 42
0.2679482664650485
 10
76.84721109411802
 20
371.9301369371495
 10
78.41507809411792
 20
371.9301339371494
 42
0.2679491924310048
 10
78.84809009411806
 20
372.1801339371496
 42
-1.303223041600051
 10
79.53110409411782
 20
371.4971229371497
 42
0.2679482664659958
 10
79.2811060941179
 20
371.0641109371495
 10
79.28110609411792
 20
366.5961609371495
 42
0.2679491924310329
 10
79.53110609411792
 20
366.1631489371494
 42
-1.303223041599837
 10
78.84809509411804
 20
365.4801349371493
 42
0.2679482664649807
 10
78.41508309411782
 20
365.7301329371495
 10
76.84721209411792
 20
365.7301359371495
 42
0.2679491924310008
 10
76.41419909411792
 20
365.4801359371495
 42
-1.303223041600072
  0
LWPOLYLINE
  5
70
100
AcDbEntity
  8
0
  6
ByLayer
 62
    0
370
   -1
100
AcDbPolyline
 90
   16
 70
    1
 43
0
 10
78.41507809411782
 20
350.7301349371495
 42
0.2679491924309755
 10
78.84809009411804
 20
350.9801349371495
 42
-1.30322304160014
 10
79.53110409411779
 20
350.2971229371493
 42
0.2679482664650128
 10
79.28110609411792
 20
349.8641109371495
 10
79.28110609411783
 20
345.3961619371495
 42
0.2679491924309754
 10
79.53110609411786
 20
344.9631489371494
 42
-1.30322304160032
 10
78.84809509411792
 20
344.2801349371493
 42
0.2679482664649654
 10
78.41508309411782
 20
344.5301329371494
 10
76.84721209411792
 20
344.5301359371495
 42
0.2679491924310008
 10
76.41419909411792
 20
344.2801359371495
 42
-1.303223041599655
 10
75.73118509411782
 20
344.9631479371494
 42
0.2679482664650221
 10
75.98118409411782
 20
345.3961599371494
 10
75.98118709411783
 20
349.8641099371495
 42
0.2679491924309739
 10
75.7311870941178
 20
350.2971229371493
 42
-1.30322304160005
 10
76.41419909411796
 20
350.9801369371496
 42
0.2679482664660647
 10
76.84721109411802
 20
350.7301379371493
  0
LWPOLYLINE
  5
71
100
AcDbEntity
  8
0
  6
ByLayer
 62
    0
370
   -1
100
AcDbPolyline
 90
   16
 70
    1
 43
0
 10
135.3074380941179
 20
372.1801359371494
 42
0.2679482664650037
 10
135.740450094118
 20
371.9301369371495
 10
137.3083170941179
 20
371.9301339371495
 42
0.2679491924309872
 10
137.7413300941182
 20
372.1801339371494
 42
-1.303223041599912
 10
138.4243440941179
 20
371.4971229371497
 42
0.2679482664650398
 10
138.174346094118
 20
371.0641109371495
 10
138.174346094118
 20
366.5961609371495
 42
0.2679491924310201
 10
138.424346094118
 20
366.1631489371495
 42
-1.303223041600177
 10
137.7413340941179
 20
365.4801349371495
 42
0.2679482664649576
 10
137.3083220941179
 20
365.7301329371495
 10
135.740452094118
 20
365.7301359371495
 42
0.2679491924309891
 10
135.3074380941179
 20
365.4801359371494
 42
-1.303223041599906
 10
134.6244240941179
 20
366.1631469371495
 42
0.2679482617889166
 10
134.8744230941178
 20
366.5961589371495
 10
134.8744260941179
 20
371.0641089371494
 42
0.2679491924309605
 10
134.6244260941179
 20
371.4971219371493
 42
-1.303223041599948
  0
LWPOLYLINE
  5
72
100
AcDbEntity
  8
0
  6
ByLayer
 62
    0
370
   -1
100
AcDbPolyline
 90
   16
 70
    1
 43
0
 10
134.6244240941179
 20
344.9631479371495
 42
0.267948266464954
 10
134.8744230941178
 20
345.3961599371494
 10
134.8744260941179
 20
349.8641099371495
 42
0.2679491924309034
 10
134.624426094118
 20
350.2971229371493
 42
-1.303223041600051
 10
135.3074380941177
 20
350.9801369371494
 42
0.2679482664661227
 10
135.740450094118
 20
350.7301379371493
 10
137.3083170941179
 20
350.7301349371495
 42
0.2679491924310125
 10
137.741330094118
 20
350.9801349371495
 42
-1.303223041600548
 10
138.4243440941181
 20
350.2971229371497
 42
0.2679482664649921
 10
138.174346094118
 20
349.8641109371495
 10
138.1743460941179
 20
345.3961619371495
 42
0.2679491924309949
 10
138.424346094118
 20
344.9631489371494
 42
-1.303223041600257
 10
137.741334094118
 20
344.2801349371494
 42
0.2679482664650221
 10
137.3083220941179
 20
344.5301329371495
 10
135.740452094118
 20
344.5301359371496
 42
0.2679491924310922
 10
135.3074380941177
 20
344.2801359371496
 42
-1.303223041599661
  0
LWPOLYLINE
  5
73
100
AcDbEntity
  8
0
  6
ByLayer
 62
    0
370
   -1
100
AcDbPolyline
 90
   16
 70
    1
 43
0
 10
326.7641990941179
 20
212.1801399371493
 42
0.2679482664649623
 10
327.197211094118
 20
211.9301409371493
 10
328.7650790941178
 20
211.9301379371493
 42
0.2679491924309844
 10
329.1980910941179
 20
212.1801379371493
 42
-1.303223041599886
 10
329.8811050941179
 20
211.4971259371494
 42
0.2679482664649769
 10
329.631107094118
 20
211.0641139371494
 10
329.631107094118
 20
206.5961649371494
 42
0.2679491924309778
 10
329.8811070941178
 20
206.1631519371496
 42
-1.303223041600211
 10
329.1980950941179
 20
205.4801379371494
 42
0.2679482664649952
 10
328.7650830941179
 20
205.7301359371495
 10
327.1972130941178
 20
205.7301389371494
 42
0.2679491924309891
 10
326.7642000941179
 20
205.4801389371494
 42
-1.30322304159983
 10
326.0811860941179
 20
206.1631509371496
 42
0.2679482664649869
 10
326.3311850941179
 20
206.5961629371493
 10
326.3311880941178
 20
211.0641129371494
 42
0.267949192431012
 10
326.0811880941179
 20
211.4971259371494
 42
-1.303223041600028
  0
LWPOLYLINE
  5
74
100
AcDbEntity
  8
0
  6
ByLayer
 62
    0
370
   -1
100
AcDbPolyline
 90
   16
 70
    1
 43
0
 10
326.0811860941179
 20
184.9631509371494
 42
0.2679482664649692
 10
326.3311850941179
 20
185.3961629371494
 10
326.3311880941179
 20
189.8641129371495
 42
0.2679491924309957
 10
326.0811880941179
 20
190.2971269371493
 42
-1.303223041599743
 10
326.7641990941179
 20
190.9801409371494
 42
0.2679482664649623
 10
327.197211094118
 20
190.7301419371494
 10
328.7650790941178
 20
190.7301389371494
 42
0.2679491924309781
 10
329.1980910941178
 20
190.9801389371494
 42
-1.303223041600563
 10
329.8811050941179
 20
190.2971269371494
 42
0.2679482664649845
 10
329.631107094118
 20
189.8641149371493
 10
329.6311070941181
 20
185.3961649371494
 42
0.2679491924309491
 10
329.8811070941178
 20
184.9631529371494
 42
-1.303223041600467
 10
329.1980950941179
 20
184.2801389371493
 42
0.2679482664649707
 10
328.7650830941179
 20
184.5301369371493
 10
327.1972130941178
 20
184.5301399371493
 42
0.2679491924310022
 10
326.7642000941179
 20
184.2801399371493
 42
-1.303223041600005
  0
LWPOLYLINE
  5
75
100
AcDbEntity
  8
0
  6
ByLayer
 62
    0
370
   -1
100
AcDbPolyline
 90
   16
 70
    1
 43
0
 10
326.7642390941178
 20
85.48019793714951
 42
-0.2679482664650094
 10
327.1972510941179
 20
85.73019593714943
 10
328.7651210941178
 20
85.73019893714931
 42
-0.2679491924309724
 10
329.198134094118
 20
85.48019893714928
 42
1.303223041599634
 10
329.881148094118
 20
86.16321093714942
 42
-0.267948266464946
 10
329.6311500941179
 20
86.59622293714941
 10
329.631147094118
 20
91.06417293714941
 42
-0.2679491924309845
 10
329.8811470941181
 20
91.49718593714925
 42
1.303223041599936
 10
329.1981350941178
 20
92.18019993714941
 42
-0.2679482664651208
 10
328.7651230941178
 20
91.93020093714932
 10
327.1972560941178
 20
91.9301979371494
 42
-0.2679491924309384
 10
326.7642420941179
 20
92.18019793714946
 42
1.30322302982038
 10
326.0812280941179
 20
91.49718593714955
 42
-0.2679482664650077
 10
326.3312270941179
 20
91.06417393714941
 10
326.3312270941178
 20
86.5962249371494
 42
-0.267949192430921
 10
326.0812270941179
 20
86.16321193714946
 42
1.303223041599943
  0
LWPOLYLINE
  5
76
100
AcDbEntity
  8
0
  6
ByLayer
 62
    0
370
   -1
100
AcDbPolyline
 90
   16
 70
    1
 43
0
 10
326.3312270941178
 20
65.3962249371493
 42
-0.2679491924310046
 10
326.0812270941178
 20
64.96321293714942
 42
1.303223041600154
 10
326.7642390941177
 20
64.28019893714944
 42
-0.2679482664650175
 10
327.1972510941179
 20
64.53019693714921
 10
328.7651210941179
 20
64.53019993714943
 42
-0.2679491924309287
 10
329.1981340941181
 20
64.28019993714942
 42
1.303223041600209
 10
329.881148094118
 20
64.96321093714934
 42
-0.2679482664649613
 10
329.631150094118
 20
65.3962229371493
 10
329.6311470941179
 20
69.86417293714933
 42
-0.2679491924309891
 10
329.8811470941179
 20
70.29718693714938
 42
1.303223041600273
 10
329.1981350941176
 20
70.98020093714933
 42
-0.2679482664649057
 10
328.7651230941178
 20
70.73020193714964
 10
327.1972560941178
 20
70.7301989371493
 42
-0.2679491924309487
 10
326.7642420941177
 20
70.98019893714932
 42
1.303223041599763
 10
326.081228094118
 20
70.29718693714943
 42
-0.2679482664650229
 10
326.3312270941179
 20
69.86417493714933
  0
LWPOLYLINE
  5
77
100
AcDbEntity
  8
0
  6
ByLayer
 62
    0
370
   -1
100
AcDbPolyline
 90
   16
 70
    1
 43
0
 10
9.636108094117802
 20
15.39615793714946
 42
0.2679491924309793
 10
9.886108094117802
 20
14.96314493714948
 42
-1.303223041600244
 10
9.203096094117953
 20
14.2801309371496
 42
0.267948266465009
 10
8.77008409411782
 20
14.53012893714949
 10
7.202214094117849
 20
14.5301319371496
 42
0.2679491924310272
 10
6.769200094117608
 20
14.28013193714961
 42
-1.303223041599264
 10
6.08618609411765
 20
14.96314393714945
 42
0.2679482664649952
 10
6.336185094117936
 20
15.39615593714947
 10
6.336188094117823
 20
19.8641059371495
 42
0.2679491924309653
 10
6.086188094117819
 20
20.29711893714927
 42
-1.303223041600138
 10
6.769200094117889
 20
20.98013293714946
 42
0.2679482664660086
 10
7.202212094117847
 20
20.73013393714936
 10
8.770079094117946
 20
20.73013093714948
 42
0.2679491924310536
 10
9.203092094117848
 20
20.98013093714948
 42
-1.30322304159982
 10
9.88610609411781
 20
20.29711893714929
 42
0.267948266465001
 10
9.6361080941178
 20
19.86410693714955
  0
LWPOLYLINE
  5
78
100
AcDbEntity
  8
0
  6
ByLayer
 62
    0
370
   -1
100
AcDbPolyline
 90
   16
 70
    1
 43
0
 10
209.5320550941178
 20
21.23013193714946
 42
0.2914636959410014
 10
211.3446400941179
 20
22.38483093714931
 10
217.3209530941178
 20
35.19987793714942
 42
-0.2914637668750027
 10
219.1335400941178
 20
36.35457593714924
 10
314.8061470941178
 20
36.3545519371494
 42
0.4135115436419978
 10
322.8061470941178
 20
44.33534993714934
 10
322.8061470941179
 20
325.2301339371494
 42
0.4142134452329965
 10
314.8061450941178
 20
333.2301329371493
 10
90.80614409411801
 20
333.2301199371496
 42
0.4142134449210002
 10
82.80615609411791
 20
325.2301339371495
 10
82.80614409411795
 20
44.33540593714951
 42
0.4135115436420074
 10
90.80614409411793
 20
36.35460793714951
 10
186.5771820941179
 20
36.35458393714934
 42
-0.2930389507939918
 10
188.394644094118
 20
35.18934893714947
 10
194.2709490941179
 20
22.39536793714931
 42
0.2930390217880045
 10
196.0884110941179
 20
21.23013193714967
  0
CIRCLE
  5
79
100
AcDbEntity
  8
0
  6
ByLayer
 62
    0
370
   -1
100
AcDbCircle
 10
77.63118909411801
 20
78.23019893714934
 40
1.6
  0
CIRCLE
  5
7A
100
AcDbEntity
  8
0
  6
ByLayer
 62
    0
370
   -1
100
AcDbCircle
 10
77.63114509411803
 20
198.2301389371494
 40
1.6
  0
CIRCLE
  5
7B
100
AcDbEntity
  8
0
  6
ByLayer
 62
    0
370
   -1
100
AcDbCircle
 10
348.5861870941179
 20
28.23020193714929
 40
1.6
  0
CIRCLE
  5
7C
100
AcDbEntity
  8
0
  6
ByLayer
 62
    0
370
   -1
100
AcDbCircle
 10
397.6261870941179
 20
28.23020893714932
 40
1.6
  0
CIRCLE
  5
7D
100
AcDbEntity
  8
0
  6
ByLayer
 62
    0
370
   -1
100
AcDbCircle
 10
57.02614709411786
 20
28.23013093714946
 40
1.6
  0
CIRCLE
  5
7E
100
AcDbEntity
  8
0
  6
ByLayer
 62
    0
370
   -1
100
AcDbCircle
 10
224.0518410941179
 20
358.2301349371494
 40
1.6
  0
CIRCLE
  5
7F
100
AcDbEntity
  8
0
  6
ByLayer
 62
    0
370
   -1
100
AcDbCircle
 10
373.1061480941179
 20
54.87513893714948
 40
1.6
  0
CIRCLE
  5
80
100
AcDbEntity
  8
0
  6
ByLayer
 62
    0
370
   -1
100
AcDbCircle
 10
7.986146094117842
 20
28.23013093714948
 40
1.6
  0
CIRCLE
  5
81
100
AcDbEntity
  8
0
  6
ByLayer
 62
    0
370
   -1
100
AcDbCircle
 10
327.9811460941179
 20
358.2301349371494
 40
1.6
  0
CIRCLE
  5
82
100
AcDbEntity
  8
0
  6
ByLayer
 62
    0
370
   -1
100
AcDbCircle
 10
32.50613909411784
 20
54.87513193714945
 40
1.6
  0
CIRCLE
  5
83
100
AcDbEntity
  8
0
  6
ByLayer
 62
    0
370
   -1
100
AcDbCircle
 10
77.63114509411803
 20
358.2301349371495
 40
1.6
  0
CIRCLE
  5
84
100
AcDbEntity
  8
0
  6
ByLayer
 62
    0
370
   -1
100
AcDbCircle
 10
327.9811880941178
 20
78.23019893714931
 40
1.6
  0
CIRCLE
  5
85
100
AcDbEntity
  8
0
  6
ByLayer
 62
    0
370
   -1
100
AcDbCircle
 10
327.9811460941179
 20
198.2301389371494
 40
1.6
  0
CIRCLE
  5
86
100
AcDbEntity
  8
0
  6
ByLayer
 62
    0
370
   -1
100
AcDbCircle
 10
136.5243840941179
 20
358.2301349371495
 40
1.6
  0
CIRCLE
  5
87
100
AcDbEntity
  8
0
  6
ByLayer
 62
    0
370
   -1
100
AcDbCircle
 10
181.5475660941179
 20
358.2301349371494
 40
1.6
  0
LWPOLYLINE
  5
88
100
AcDbEntity
  8
0
  6
ByLayer
 62
    0
370
   -1
100
AcDbPolyline
 90
   16
 70
    1
 43
0
 10
260.2715850941155
 20
27.01316373293177
 42
-1.303223041600185
 10
259.5885740941156
 20
26.33014973293189
 42
0.2679482664649573
 10
259.1555620941155
 20
26.5801477329318
 10
254.6876120941156
 20
26.58015073293187
 42
0.2679491924309629
 10
254.2545980941156
 20
26.33015073293191
 42
-1.303223041598377
 10
253.5715840941155
 20
27.01316273293171
 42
0.2679482664651211
 10
253.8215830941155
 20
27.44617473293187
 10
253.8215860941155
 20
29.01404173293185
 42
0.2679491924310148
 10
253.5715860941156
 20
29.44705473293206
 42
-1.303223041599847
 10
254.2545980941157
 20
30.13006873293189
 42
0.2679482664648976
 10
254.6876100941155
 20
29.88006973293199
 10
259.1555600941154
 20
29.88006973293186
 42
0.267949192430941
 10
259.5885720941155
 20
30.13006973293187
 42
-1.303223041600245
 10
260.2715860941157
 20
29.44705873293168
 42
0.2679482664649627
 10
260.0215880941157
 20
29.01404673293184
 10
260.0215850941157
 20
27.44617573293187
 42
0.2679491924309844
  0
LWPOLYLINE
  5
89
100
AcDbEntity
  8
0
  6
ByLayer
 62
    0
370
   -1
100
AcDbPolyline
 90
   16
 70
    1
 43
0
 10
280.7885730941154
 20
26.33014973293193
 42
0.26794826646501
 10
280.3555610941157
 20
26.5801477329318
 10
275.8876110941156
 20
26.58015073293187
 42
0.2679491924309713
 10
275.4545980941156
 20
26.33015073293188
 42
-1.303223041598966
 10
274.7715840941158
 20
27.01316273293167
 42
0.267948266465008
 10
275.0215830941158
 20
27.44617473293187
 10
275.0215860941157
 20
29.01404173293185
 42
0.2679491924310148
 10
274.7715860941155
 20
29.44705473293201
 42
-1.303223041599975
 10
275.4545970941161
 20
30.13006873293191
 42
0.2679482664649043
 10
275.8876090941157
 20
29.88006973293198
 10
280.3555590941156
 20
29.88006973293186
 42
0.2679491924309739
 10
280.7885720941155
 20
30.13006973293189
 42
-1.303223041600251
 10
281.4715860941157
 20
29.44705873293184
 42
0.2679482664650776
 10
281.2215880941157
 20
29.01404673293183
 10
281.2215850941158
 20
27.44617573293186
 42
0.2679491924309239
 10
281.4715850941157
 20
27.01316373293187
 42
-1.303223041600261
  0
CIRCLE
  5
8A
100
AcDbEntity
  8
0
  6
ByLayer
 62
    0
370
   -1
100
AcDbCircle
 10
267.5215860941157
 20
28.23010873293174
 40
1.6
  0
LWPOLYLINE
  5
8B
100
AcDbEntity
  8
0
  6
ByLayer
 62
    0
370
   -1
100
AcDbPolyline
 90
   16
 70
    1
 43
0
 10
129.7246800941201
 20
26.58017514137511
 10
125.2567300941202
 20
26.58017814137512
 42
0.2679491924309408
 10
124.82371609412
 20
26.3301781413751
 42
-1.303223041599795
 10
124.1407020941199
 20
27.01319014137529
 42
0.2679482664650614
 10
124.3907010941201
 20
27.44620214137532
 10
124.3907040941198
 20
29.01406914137507
 42
0.267949192431011
 10
124.1407040941199
 20
29.4470821413752
 42
-1.303223041600195
 10
124.8237160941198
 20
30.13009614137528
 42
0.2679482664660994
 10
125.25672809412
 20
29.88009714137522
 10
129.7246780941199
 20
29.88009714137527
 42
0.2679491924309929
 10
130.15769009412
 20
30.13009714137527
 42
-1.303223041600006
 10
130.84070409412
 20
29.44708614137516
 42
0.267948266465995
 10
130.59070609412
 20
29.01407414137511
 10
130.5907030941201
 20
27.44620314137531
 42
0.2679491924309731
 10
130.8407030941201
 20
27.01319114137503
 42
-1.303223041600103
 10
130.1576920941201
 20
26.33017714137509
 42
0.2679482664649355
  0
LWPOLYLINE
  5
8C
100
AcDbEntity
  8
0
  6
ByLayer
 62
    0
370
   -1
100
AcDbPolyline
 90
   16
 70
    1
 43
0
 10
150.92467909412
 20
26.58017514137511
 10
146.45672909412
 20
26.58017814137511
 42
0.2679491924310267
 10
146.0237160941199
 20
26.3301781413751
 42
-1.303223041599781
 10
145.3407020941199
 20
27.01319014137529
 42
0.2679482664649719
 10
145.59070109412
 20
27.44620214137531
 10
145.5907040941201
 20
29.01406914137506
 42
0.267949192431011
 10
145.3407040941202
 20
29.44708214137518
 42
-1.30322304159972
 10
146.0237150941201
 20
30.13009614137526
 42
0.2679482664660794
 10
146.45672709412
 20
29.88009714137515
 10
150.9246770941201
 20
29.88009714137528
 42
0.2679491924309975
 10
151.3576900941201
 20
30.13009714137525
 42
-1.303223041600063
 10
152.0407040941199
 20
29.44708614137526
 42
0.2679482664650284
 10
151.79070609412
 20
29.01407414137511
 10
151.79070309412
 20
27.44620314137531
 42
0.2679491924309232
 10
152.04070309412
 20
27.01319114137545
 42
-1.303223041599634
 10
151.3576910941201
 20
26.33017714137508
 42
0.2679482664649976
  0
CIRCLE
  5
8D
100
AcDbEntity
  8
0
  6
ByLayer
 62
    0
370
   -1
100
AcDbCircle
 10
138.0907040941201
 20
28.23013614137518
 40
1.6
  0
LWPOLYLINE
  5
8E
100
AcDbEntity
  8
0
  6
ByLayer
 62
    0
370
   -1
100
AcDbPolyline
 90
    6
 70
    1
 43
0
 10
294.6147987868215
 20
348.3595303806689
 42
-0.5773502691899894
 10
291.1073947868219
 20
348.3595312005394
 10
279.8342173510424
 20
367.8852588356925
 42
-0.5773502691900969
 10
281.5879190610709
 20
370.9227584257575
 10
304.1342850610704
 20
370.9227531554495
 42
-0.5773502691899838
 10
305.8879853510417
 20
367.8852527455145
  0
LWPOLYLINE
  5
8F
100
AcDbEntity
  8
0
  6
ByLayer
 62
    0
370
   -1
100
AcDbPolyline
 90
    6
 70
    1
 43
0
 10
247.0684198243955
 20
369.9102664948359
 42
0.5773502691900383
 10
243.5610158243957
 20
369.9102673147063
 10
232.2878292601753
 20
350.3845449498606
 42
0.5773502691900214
 10
234.0415295501471
 20
347.3470445399257
 10
256.5878945501466
 20
347.3470392696181
 42
0.5773502691900276
 10
258.3415972601749
 20
350.3845388596827
  0
LWPOLYLINE
  5
90
100
AcDbEntity
  8
0
  6
ByLayer
 62
    0
370
   -1
100
AcDbPolyline
 90
   16
 70
    1
 43
0
 10
329.8811079484933
 20
366.163148137021
 42
-0.2679482664649999
 10
329.6311090497115
 20
366.5961601954593
 10
329.6311070941139
 20
371.0641101954599
 42
-0.2679491924309462
 10
329.8811071953324
 20
371.4971231370212
 42
1.303223041600228
 10
329.1980953549897
 20
372.1801372966783
 42
-0.2679482664650385
 10
328.7650832965513
 20
371.9301383978967
 10
327.1972162965508
 20
371.930135764392
 42
-0.2679491924309772
 10
326.7642043549893
 20
372.1801358656106
 42
1.303223041600025
 10
326.0811901953327
 20
371.497125025268
 42
-0.2679482664659286
 10
326.3311880941142
 20
371.0641129668299
 10
326.3311870497122
 20
366.59616296683
 42
-0.267949192431081
 10
326.0811869484937
 20
366.1631510252682
 42
1.303223041600015
 10
326.7641977888363
 20
365.4801368656117
 42
-0.2679482664649576
 10
327.1972098472745
 20
365.7301347643935
 10
328.7650808472752
 20
365.7301373978971
 42
-0.2679491924310215
 10
329.1980937888366
 20
365.4801372966783
 42
1.303223041599998
  0
LWPOLYLINE
  5
91
100
AcDbEntity
  8
0
  6
ByLayer
 62
    0
370
   -1
100
AcDbPolyline
 90
   16
 70
    1
 43
0
 10
327.1972113409618
 20
350.7301367643926
 42
-0.2679491924309632
 10
326.7641993994002
 20
350.9801368656111
 42
1.303223041599683
 10
326.0811852397435
 20
350.2971250252683
 42
-0.2679482664649647
 10
326.3311831385249
 20
349.8641129668304
 10
326.3311820941232
 20
345.3961639668306
 42
-0.2679491924309658
 10
326.0811819929044
 20
344.963151025269
 42
1.303223041599854
 10
326.7641928332469
 20
344.2801368656122
 42
-0.2679482664649961
 10
327.1972048916853
 20
344.530134764394
 10
328.7650758916858
 20
344.5301373978976
 42
-0.2679491924310215
 10
329.1980888332471
 20
344.280137296679
 42
1.303223041599551
 10
329.8811029929042
 20
344.9631491370216
 42
-0.2679482664649664
 10
329.6311040941226
 20
345.3961611954598
 10
329.6311021385247
 20
349.8641111954605
 42
-0.2679491924309826
 10
329.8811022397434
 20
350.2971241370217
 42
1.303223041600067
 10
329.1980903994006
 20
350.9801382966789
 42
-0.2679482664660309
 10
328.7650783409623
 20
350.7301393978969
  0
LWPOLYLINE
  5
92
100
AcDbEntity
  8
0
  6
ByLayer
 62
    0
370
   -1
100
AcDbPolyline
 90
   16
 70
    1
 43
0
 10
270.3048563549914
 20
372.1801510632209
 42
-0.2679482664649857
 10
269.8718442965529
 20
371.9301521644392
 10
268.3039772965524
 20
371.9301495309348
 42
-0.2679491924310001
 10
267.8709643549907
 20
372.1801496321534
 42
1.303223041599879
 10
267.1879501953343
 20
371.4971387918113
 42
-0.2679482664649999
 10
267.4379480941158
 20
371.0641267333729
 10
267.4379470497137
 20
366.596176733373
 42
-0.2679491924309277
 10
267.1879469484953
 20
366.1631647918118
 42
1.303223041599914
 10
267.8709587888379
 20
365.4801506321546
 42
-0.267948266464988
 10
268.3039708472761
 20
365.7301485309363
 10
269.8718408472766
 20
365.7301511644399
 42
-0.2679491924309582
 10
270.3048547888383
 20
365.4801510632211
 42
1.303223041599596
 10
270.9878689484948
 20
366.1631619035637
 42
-0.2679482617889126
 10
270.7378700497134
 20
366.5961739620021
 10
270.7378680941154
 20
371.0641239620026
 42
-0.2679491924309533
 10
270.987868195334
 20
371.4971369035639
 42
1.30322304159997
  0
LWPOLYLINE
  5
93
100
AcDbEntity
  8
0
  6
ByLayer
 62
    0
370
   -1
100
AcDbPolyline
 90
   16
 70
    1
 43
0
 10
270.9878639929057
 20
344.9631629035643
 42
-0.2679482664649248
 10
270.7378650941243
 20
345.3961749620025
 10
270.7378631385263
 20
349.8641249620033
 42
-0.2679491924309339
 10
270.9878632397448
 20
350.2971379035644
 42
1.303223041600026
 10
270.3048513994025
 20
350.9801520632215
 42
-0.2679482664660818
 10
269.8718393409639
 20
350.7301531644396
 10
268.3039723409633
 20
350.7301505309354
 42
-0.2679491924310181
 10
267.8709593994018
 20
350.9801506321541
 42
1.303223041600102
 10
267.1879452397449
 20
350.2971387918115
 42
-0.2679482664649876
 10
267.4379431385265
 20
349.8641267333734
 10
267.4379420941247
 20
345.3961777333736
 42
-0.267949192430992
 10
267.187941992906
 20
344.963164791812
 42
1.303223041600351
 10
267.8709538332486
 20
344.2801506321551
 42
-0.2679482664650478
 10
268.3039658916867
 20
344.5301485309368
 10
269.8718358916873
 20
344.5301511644407
 42
-0.2679491924311053
 10
270.304849833249
 20
344.2801510632218
 42
1.303223041599806
  0
CIRCLE
  5
94
100
AcDbEntity
  8
0
  6
ByLayer
 62
    0
370
   -1
100
AcDbCircle
 10
269.0879070941199
 20
358.2301503476877
 40
1.6
  0
LWPOLYLINE
  5
95
100
AcDbEntity
  8
0
  6
ByLayer
 62
  256
370
   -1
100
AcDbPolyline
 90
   63
 70
    0
 43
0
 10
377.8061460941178
 20
3.230130937149408
 10
397.8061420941178
 20
3.23013093714941
 42
0.4142137003890052
 10
402.8061370941178
 20
8.230130937149397
 10
402.8061370941178
 20
59.58013093714931
 42
-0.3419984508479998
 10
396.8061430941178
 20
67.32609793714937
 10
396.8061410941179
 20
360.4841659371494
 42
-0.3419983241320003
 10
402.8061370941178
 20
368.2301159371493
 10
402.8061370941178
 20
383.2301319371494
 10
392.8061470941178
 20
383.2301319371494
 10
392.8061470941178
 20
380.9961119371494
 42
0.2679491924310649
 10
393.0561470941178
 20
380.5630989371494
 42
-1.303223041599801
 10
392.3731350941177
 20
379.8800849371493
 42
0.2679482664650509
 10
391.9401230941179
 20
380.1300829371494
 10
368.5811510941179
 20
380.1300859371494
 10
368.5811510941179
 20
377.1301149371494
 10
369.8561460941179
 20
377.1301149371494
 10
369.8561460941179
 20
373.1300859371494
 10
368.5811510941179
 20
373.1300859371494
 10
368.5811510941179
 20
370.1300859371494
 10
365.3811400941179
 20
370.1300859371494
 10
365.3811400941179
 20
373.1300859371494
 10
364.1061460941179
 20
373.1300859371494
 10
364.1061460941179
 20
377.1301149371494
 10
365.3811400941179
 20
377.1301149371494
 10
365.3811400941179
 20
380.1300859371494
 10
342.0221700941178
 20
380.1300859371494
 42
0.2679491924309734
 10
341.5891560941179
 20
379.8800859371494
 42
-1.303223041599819
 10
340.9061420941178
 20
380.5630979371492
 42
0.2679482664649997
 10
341.156141094118
 20
380.9961099371494
 10
341.1561440941178
 20
383.2301319371494
 10
64.45614509411791
 20
383.2301319371495
 10
64.45614509411791
 20
380.9961119371495
 42
0.2679491924309509
 10
64.7061450941178
 20
380.5630989371495
 42
-1.303223041600053
 10
64.02313309411784
 20
379.8800849371494
 42
0.2679482664649947
 10
63.59012109411792
 20
380.1300829371495
 10
40.2311490941179
 20
380.1300859371494
 10
40.2311490941179
 20
377.1301149371495
 10
41.50614309411789
 20
377.1301149371495
 10
41.50614309411789
 20
373.1300859371494
 10
40.2311490941179
 20
373.1300859371494
 10
40.2311490941179
 20
370.1300859371494
 10
37.03113809411799
 20
370.1300859371494
 10
37.03113809411799
 20
373.1300859371494
 10
35.75614309411789
 20
373.1300859371494
 10
35.75614309411789
 20
377.1301149371495
 10
37.03113809411799
 20
377.1301149371495
 10
37.03113809411799
 20
380.1300859371494
 10
13.672168094118
 20
380.1300859371494
 42
0.2679491924310141
 10
13.23915409411786
 20
379.8800859371496
 42
-1.303223041600173
 10
12.55614009411797
 20
380.5630979371496
 42
0.2679482664650119
 10
12.80613909411792
 20
380.9961099371495
 10
12.8061420941179
 20
383.2301319371495
 10
2.806152094117877
 20
383.2301319371495
 10
2.80615209411787
 20
368.2301169371496
 42
-0.3419983241320017
 10
8.806132094117849
 20
360.4841659371495
 10
8.806149094117945
 20
67.32609793714946
 42
-0.3419984508480043
 10
2.806152094117822
 20
59.58013093714937
 10
2.806152094117821
 20
8.230130937149479
 42
0.4142137003890046
 10
7.806147094117944
 20
3.230130937149476
 10
27.8061430941179
 20
3.230130937149468
 10
29.80614709411795
 20
5.230130937149468
 10
375.8062790941178
 20
5.229991937149418
 10
377.8062830941178
 20
3.229991937149418
  0
LWPOLYLINE
  5
96
100
AcDbEntity
  8
0
  6
ByLayer
 62
  256
370
   -1
100
AcDbPolyline
 90
    4
 70
    1
 43
0
 10
379.3061437864138
 20
23.23013193714939
 10
366.3061444784989
 20
23.2301309371494
 42
0.9999999999999997
 10
366.306144632345
 20
11.23013093714941
 10
379.3061493350565
 20
11.23013093715182
 42
0.9999991393374391
  0
LWPOLYLINE
  5
97
100
AcDbEntity
  8
0
  6
ByLayer
 62
  256
370
   -1
100
AcDbPolyline
 90
    4
 70
    1
 43
0
 10
39.30614609411757
 20
23.23013093714948
 10
26.30614509411795
 20
23.23013093714948
 42
0.9999999999999999
 10
26.30614509411795
 20
11.23013093714947
 10
39.30614676846715
 20
11.23013093714951
 42
0.9999999438042033
  0
ENDSEC
  0
SECTION
  2
OBJECTS
  0
DICTIONARY
  5
C
330
0
100
AcDbDictionary
281
    1
  3
ACAD_GROUP
350
D
  0
DICTIONARY
  5
D
330
C
100
AcDbDictionary
281
    1
  0
ENDSEC
  0
EOF
