999
dxfrw 0.6.3
  0
SECTION
  2
HEADER
  9
$ACADVER
  1
AC1021
  9
$DWGCODEPAGE
  3
ANSI_1252
  9
$INSBASE
 10
0
 20
0
 30
0
  9
$EXTMIN
 10
73.67860956643
 20
51.26834358536101
 30
0
  9
$EXTMAX
 10
453.6786365664301
 20
401.2684505853611
 30
0
  9
$LIMMIN
 10
0
 20
0
  9
$LIMMAX
 10
420
 20
297
  9
$ORTHOMODE
 70
    0
  9
$REGENMODE
 70
    1
  9
$FILLMODE
 70
    1
  9
$QTEXTMODE
 70
    0
  9
$MIRRTEXT
 70
    0
  9
$LTSCALE
 40
1
  9
$ATTMODE
 70
    0
  9
$TEXTSIZE
 40
2.5
  9
$TRACEWID
 40
15.68
  9
$TEXTSTYLE
  7
STANDARD
  9
$CLAYER
  8
0
  9
$CELTYPE
  6
BYLAYER
  9
$CECOLOR
 62
  256
  9
$CELTSCALE
 40
1
  9
$DISPSILH
 70
    0
  9
$DIMSCALE
 40
2.5
  9
$DIMASZ
 40
2.5
  9
$DIMEXO
 40
0.625
  9
$DIMDLI
 40
3.75
  9
$DIMRND
 40
0
  9
$DIMDLE
 40
0
  9
$DIMEXE
 40
1.25
  9
$DIMTP
 40
0
  9
$DIMTM
 40
0
  9
$DIMTXT
 40
2.5
  9
$DIMCEN
 40
2.5
  9
$DIMTSZ
 40
0
  9
$DIMTOL
 70
    0
  9
$DIMLIM
 70
    0
  9
$DIMTIH
 70
    0
  9
$DIMTOH
 70
    0
  9
$DIMSE1
 70
    0
  9
$DIMSE2
 70
    0
  9
$DIMTAD
 70
    1
  9
$DIMZIN
 70
    8
  9
$DIMBLK
  1

  9
$DIMASO
 70
    1
  9
$DIMSHO
 70
    1
  9
$DIMPOST
  1

  9
$DIMAPOST
  1

  9
$DIMALT
 70
    0
  9
$DIMALTD
 70
    3
  9
$DIMALTF
 40
0.03937
  9
$DIMLFAC
 40
1
  9
$DIMTOFL
 70
    1
  9
$DIMTVP
 40
0
  9
$DIMTIX
 70
    0
  9
$DIMSOXD
 70
    0
  9
$DIMSAH
 70
    0
  9
$DIMBLK1
  1

  9
$DIMBLK2
  1

  9
$DIMSTYLE
  2
STANDARD
  9
$DIMCLRD
 70
    0
  9
$DIMCLRE
 70
    0
  9
$DIMCLRT
 70
    0
  9
$DIMTFAC
 40
1
  9
$DIMGAP
 40
0.625
  9
$DIMJUST
 70
    0
  9
$DIMSD1
 70
    0
  9
$DIMSD2
 70
    0
  9
$DIMTOLJ
 70
    0
  9
$DIMTZIN
 70
    8
  9
$DIMALTZ
 70
    0
  9
$DIMALTTZ
 70
    0
  9
$DIMUPT
 70
    0
  9
$DIMDEC
 70
    2
  9
$DIMTDEC
 70
    2
  9
$DIMALTU
 70
    2
  9
$DIMALTTD
 70
    3
  9
$DIMTXSTY
  7
standard
  9
$DIMAUNIT
 70
    0
  9
$DIMADEC
 70
    0
  9
$DIMALTRND
 40
0
  9
$DIMAZIN
 70
    0
  9
$DIMDSEP
 70
   44
  9
$DIMATFIT
 70
    3
  9
$DIMFRAC
 70
    0
  9
$DIMLDRBLK
  1
STANDARD
  9
$DIMLUNIT
 70
    2
  9
$DIMLWD
 70
   -2
  9
$DIMLWE
 70
   -2
  9
$DIMTMOVE
 70
    0
  9
$DIMFXL
 40
1
  9
$DIMFXLON
 70
    0
  9
$DIMJOGANG
 40
0.7854
  9
$DIMTFILL
 70
    0
  9
$DIMTFILLCLR
 70
    0
  9
$DIMARCSYM
 70
    0
  9
$DIMLTYPE
  6

  9
$DIMLTEX1
  6

  9
$DIMLTEX2
  6

  9
$LUNITS
 70
    2
  9
$LUPREC
 70
    4
  9
$SKETCHINC
 40
1
  9
$FILLETRAD
 40
0
  9
$AUNITS
 70
    0
  9
$AUPREC
 70
    2
  9
$MENU
  1
.
  9
$ELEVATION
 40
0
  9
$PELEVATION
 40
0
  9
$THICKNESS
 40
0
  9
$LIMCHECK
 70
    0
  9
$CHAMFERA
 40
0
  9
$CHAMFERB
 40
0
  9
$CHAMFERC
 40
0
  9
$CHAMFERD
 40
0
  9
$SKPOLY
 70
    0
  9
$USRTIMER
 70
    1
  9
$ANGBASE
 50
0
  9
$ANGDIR
 70
    0
  9
$PDMODE
 70
   34
  9
$PDSIZE
 40
0
  9
$PLINEWID
 40
0
  9
$SPLFRAME
 70
    0
  9
$SPLINETYPE
 70
    2
  9
$SPLINESEGS
 70
    8
  9
$HANDSEED
  5
20000
  9
$SURFTAB1
 70
    6
  9
$SURFTAB2
 70
    6
  9
$SURFTYPE
 70
    6
  9
$SURFU
 70
    6
  9
$SURFV
 70
    6
  9
$UCSBASE
  2

  9
$UCSNAME
  2

  9
$UCSORG
 10
0
 20
0
 30
0
  9
$UCSXDIR
 10
1
 20
0
 30
0
  9
$UCSYDIR
 10
0
 20
1
 30
0
  9
$UCSORTHOREF
  2

  9
$UCSORTHOVIEW
 70
    0
  9
$UCSORGTOP
 10
0
 20
0
 30
0
  9
$UCSORGBOTTOM
 10
0
 20
0
 30
0
  9
$UCSORGLEFT
 10
0
 20
0
 30
0
  9
$UCSORGRIGHT
 10
0
 20
0
 30
0
  9
$UCSORGFRONT
 10
0
 20
0
 30
0
  9
$UCSORGBACK
 10
0
 20
0
 30
0
  9
$PUCSBASE
  2

  9
$PUCSNAME
  2

  9
$PUCSORG
 10
0
 20
0
 30
0
  9
$PUCSXDIR
 10
1
 20
0
 30
0
  9
$PUCSYDIR
 10
0
 20
1
 30
0
  9
$PUCSORTHOREF
  2

  9
$PUCSORTHOVIEW
 70
    0
  9
$PUCSORGTOP
 10
0
 20
0
 30
0
  9
$PUCSORGBOTTOM
 10
0
 20
0
 30
0
  9
$PUCSORGLEFT
 10
0
 20
0
 30
0
  9
$PUCSORGRIGHT
 10
0
 20
0
 30
0
  9
$PUCSORGFRONT
 10
0
 20
0
 30
0
  9
$PUCSORGBACK
 10
0
 20
0
 30
0
  9
$USERI1
 70
    0
  9
$USERI2
 70
    0
  9
$USERI3
 70
    0
  9
$USERI4
 70
    0
  9
$USERI5
 70
    0
  9
$USERR1
 40
0
  9
$USERR2
 40
0
  9
$USERR3
 40
0
  9
$USERR4
 40
0
  9
$USERR5
 40
0
  9
$WORLDVIEW
 70
    1
  9
$SHADEDGE
 70
    3
  9
$SHADEDIF
 70
   70
  9
$TILEMODE
 70
    1
  9
$MAXACTVP
 70
   64
  9
$PINSBASE
 10
0
 20
0
 30
0
  9
$PLIMCHECK
 70
    0
  9
$PEXTMIN
 10
0
 20
0
 30
0
  9
$PEXTMAX
 10
0
 20
0
 30
0
  9
$GRIDMODE
 70
    1
  9
$SNAPSTYLE
 70
    0
  9
$GRIDUNIT
 10
0
 20
0
  9
$PLIMMIN
 10
0
 20
0
  9
$PLIMMAX
 10
1189
 20
841
  9
$UNITMODE
 70
    0
  9
$VISRETAIN
 70
    1
  9
$PLINEGEN
 70
    0
  9
$PSLTSCALE
 70
    1
  9
$TREEDEPTH
 70
 3020
  9
$CMLSTYLE
  2
Standard
  9
$CMLJUST
 70
    0
  9
$CMLSCALE
 40
20
  9
$PROXYGRAPHICS
 70
    1
  9
$MEASUREMENT
 70
    1
  9
$CELWEIGHT
370
   -1
  9
$ENDCAPS
280
    0
  9
$JOINSTYLE
280
    0
  9
$LWDISPLAY
290
    0
  9
$INSUNITS
 70
    0
  9
$HYPERLINKBASE
  1

  9
$STYLESHEET
  1

  9
$XEDIT
290
    1
  9
$CEPSNTYPE
380
    0
  9
$PSTYLEMODE
290
    1
  9
$EXTNAMES
290
    1
  9
$PSVPSCALE
 40
1
  9
$OLESTARTUP
290
    0
  9
$SORTENTS
280
  127
  9
$INDEXCTL
280
    0
  9
$HIDETEXT
280
    1
  9
$XCLIPFRAME
290
    0
  9
$HALOGAP
280
    0
  9
$OBSCOLOR
 70
  257
  9
$OBSLTYPE
280
    0
  9
$INTERSECTIONDISPLAY
280
    0
  9
$INTERSECTIONCOLOR
 70
  257
  9
$DIMASSOC
280
    1
  9
$PROJECTNAME
  1

  9
$CAMERADISPLAY
290
    0
  9
$LENSLENGTH
 40
50
  9
$CAMERAHEIGHT
 40
0
  9
$STEPSPERSEC
 40
2
  9
$STEPSIZE
 40
50
  9
$3DDWFPREC
 40
2
  9
$PSOLWIDTH
 40
5
  9
$PSOLHEIGHT
 40
80
  9
$LOFTANG1
 40
1.570796326794897
  9
$LOFTANG2
 40
1.570796326794897
  9
$LOFTMAG1
 40
0
  9
$LOFTMAG2
 40
0
  9
$LOFTPARAM
 70
    7
  9
$LOFTNORMALS
280
    1
  9
$LATITUDE
 40
1
  9
$LONGITUDE
 40
1
  9
$NORTHDIRECTION
 40
0
  9
$TIMEZONE
 70
-8000
  9
$LIGHTGLYPHDISPLAY
280
    1
  9
$TILEMODELIGHTSYNCH
280
    1
  9
$SOLIDHIST
280
    1
  9
$SHOWHIST
280
    1
  9
$DWFFRAME
280
    2
  9
$DGNFRAME
280
    0
  9
$REALWORLDSCALE
290
    1
  9
$INTERFERECOLOR
 62
    1
  9
$CSHADOW
280
    0
  9
$SHADOWPLANELOCATION
 40
0
  0
ENDSEC
  0
SECTION
  2
CLASSES
  0
ENDSEC
  0
SECTION
  2
TABLES
  0
TABLE
  2
VPORT
  5
8
330
0
100
AcDbSymbolTable
 70
    1
  0
VPORT
  5
31
330
2
100
AcDbSymbolTableRecord
100
AcDbViewportTableRecord
  2
*ACTIVE
 70
    0
 10
0
 20
0
 11
1
 21
1
 12
84.92291586168234
 22
99.84705105465767
 13
0
 23
0
 14
10
 24
10
 15
10
 25
10
 16
0
 26
0
 36
1
 17
0
 27
0
 37
0
 40
50.452750179562
 41
1.853146853146853
 42
50
 43
0
 44
0
 50
0
 51
0
 71
    0
 72
  100
 73
    1
 74
    3
 75
    0
 76
    1
 77
    0
 78
    0
281
    0
 65
    1
110
0
120
0
130
0
111
1
121
0
131
0
112
0
122
1
132
0
 79
    0
146
0
348
10020
 60
    7
 61
    5
292
1
282
    1
141
0
142
0
 63
  250
421
3358443
  0
ENDTAB
  0
TABLE
  2
LTYPE
  5
5
330
0
100
AcDbSymbolTable
 70
    4
  0
LTYPE
  5
14
330
5
100
AcDbSymbolTableRecord
100
AcDbLinetypeTableRecord
  2
ByBlock
 70
    0
  3

 72
   65
 73
    0
 40
0
  0
LTYPE
  5
15
330
5
100
AcDbSymbolTableRecord
100
AcDbLinetypeTableRecord
  2
ByLayer
 70
    0
  3

 72
   65
 73
    0
 40
0
  0
LTYPE
  5
16
330
5
100
AcDbSymbolTableRecord
100
AcDbLinetypeTableRecord
  2
Continuous
 70
    0
  3
Solid line
 72
   65
 73
    0
 40
0
  0
LTYPE
  5
32
330
5
100
AcDbSymbolTableRecord
100
AcDbLinetypeTableRecord
  2
DOT
 70
    0
  3
Dot . . . . . . . . . . . . . . . . . . . . . .
 72
   65
 73
    2
 40
6.35
 49
0
 74
    0
 49
-6.35
 74
    0
  0
LTYPE
  5
33
330
5
100
AcDbSymbolTableRecord
100
AcDbLinetypeTableRecord
  2
DOTTINY
 70
    0
  3
Dot (.15x) .....................................
 72
   65
 73
    2
 40
0.9525
 49
0
 74
    0
 49
-0.9525
 74
    0
  0
LTYPE
  5
34
330
5
100
AcDbSymbolTableRecord
100
AcDbLinetypeTableRecord
  2
DOT2
 70
    0
  3
Dot (.5x) .....................................
 72
   65
 73
    2
 40
3.175
 49
0
 74
    0
 49
-3.175
 74
    0
  0
LTYPE
  5
35
330
5
100
AcDbSymbolTableRecord
100
AcDbLinetypeTableRecord
  2
DOTX2
 70
    0
  3
Dot (2x) .  .  .  .  .  .  .  .  .  .  .  .  .
 72
   65
 73
    2
 40
12.7
 49
0
 74
    0
 49
-12.7
 74
    0
  0
LTYPE
  5
36
330
5
100
AcDbSymbolTableRecord
100
AcDbLinetypeTableRecord
  2
DASHED
 70
    0
  3
Dashed _ _ _ _ _ _ _ _ _ _ _ _ _ _ _ _ _
 72
   65
 73
    2
 40
19.05
 49
12.7
 74
    0
 49
-6.35
 74
    0
  0
LTYPE
  5
37
330
5
100
AcDbSymbolTableRecord
100
AcDbLinetypeTableRecord
  2
DASHEDTINY
 70
    0
  3
Dashed (.15x) _ _ _ _ _ _ _ _ _ _ _ _ _ _ _ _ _
 72
   65
 73
    2
 40
2.8575
 49
1.905
 74
    0
 49
-0.9525
 74
    0
  0
LTYPE
  5
38
330
5
100
AcDbSymbolTableRecord
100
AcDbLinetypeTableRecord
  2
DASHED2
 70
    0
  3
Dashed (.5x) _ _ _ _ _ _ _ _ _ _ _ _ _ _ _ _ _
 72
   65
 73
    2
 40
9.524999999999999
 49
6.35
 74
    0
 49
-3.175
 74
    0
  0
LTYPE
  5
39
330
5
100
AcDbSymbolTableRecord
100
AcDbLinetypeTableRecord
  2
DASHEDX2
 70
    0
  3
Dashed (2x) ____  ____  ____  ____  ____  ___
 72
   65
 73
    2
 40
38.09999999999999
 49
25.4
 74
    0
 49
-12.7
 74
    0
  0
LTYPE
  5
3A
330
5
100
AcDbSymbolTableRecord
100
AcDbLinetypeTableRecord
  2
DASHDOT
 70
    0
  3
Dash dot __ . __ . __ . __ . __ . __ . __ . __
 72
   65
 73
    4
 40
25.4
 49
12.7
 74
    0
 49
-6.35
 74
    0
 49
0
 74
    0
 49
-6.35
 74
    0
  0
LTYPE
  5
3B
330
5
100
AcDbSymbolTableRecord
100
AcDbLinetypeTableRecord
  2
DASHDOTTINY
 70
    0
  3
Dash dot (.15x) _._._._._._._._._._._._._._._.
 72
   65
 73
    4
 40
3.81
 49
1.905
 74
    0
 49
-0.9525
 74
    0
 49
0
 74
    0
 49
-0.9525
 74
    0
  0
LTYPE
  5
3C
330
5
100
AcDbSymbolTableRecord
100
AcDbLinetypeTableRecord
  2
DASHDOT2
 70
    0
  3
Dash dot (.5x) _._._._._._._._._._._._._._._.
 72
   65
 73
    4
 40
12.7
 49
6.35
 74
    0
 49
-3.175
 74
    0
 49
0
 74
    0
 49
-3.175
 74
    0
  0
LTYPE
  5
3D
330
5
100
AcDbSymbolTableRecord
100
AcDbLinetypeTableRecord
  2
DASHDOTX2
 70
    0
  3
Dash dot (2x) ____  .  ____  .  ____  .  ___
 72
   65
 73
    4
 40
50.8
 49
25.4
 74
    0
 49
-12.7
 74
    0
 49
0
 74
    0
 49
-12.7
 74
    0
  0
LTYPE
  5
3E
330
5
100
AcDbSymbolTableRecord
100
AcDbLinetypeTableRecord
  2
DIVIDE
 70
    0
  3
Divide ____ . . ____ . . ____ . . ____ . . ____
 72
   65
 73
    6
 40
31.75
 49
12.7
 74
    0
 49
-6.35
 74
    0
 49
0
 74
    0
 49
-6.35
 74
    0
 49
0
 74
    0
 49
-6.35
 74
    0
  0
LTYPE
  5
3F
330
5
100
AcDbSymbolTableRecord
100
AcDbLinetypeTableRecord
  2
DIVIDETINY
 70
    0
  3
Divide (.15x) __..__..__..__..__..__..__..__.._
 72
   65
 73
    6
 40
4.7625
 49
1.905
 74
    0
 49
-0.9525
 74
    0
 49
0
 74
    0
 49
-0.9525
 74
    0
 49
0
 74
    0
 49
-0.9525
 74
    0
  0
LTYPE
  5
40
330
5
100
AcDbSymbolTableRecord
100
AcDbLinetypeTableRecord
  2
DIVIDE2
 70
    0
  3
Divide (.5x) __..__..__..__..__..__..__..__.._
 72
   65
 73
    6
 40
15.875
 49
6.35
 74
    0
 49
-3.175
 74
    0
 49
0
 74
    0
 49
-3.175
 74
    0
 49
0
 74
    0
 49
-3.175
 74
    0
  0
LTYPE
  5
41
330
5
100
AcDbSymbolTableRecord
100
AcDbLinetypeTableRecord
  2
DIVIDEX2
 70
    0
  3
Divide (2x) ________  .  .  ________  .  .  _
 72
   65
 73
    6
 40
63.5
 49
25.4
 74
    0
 49
-12.7
 74
    0
 49
0
 74
    0
 49
-12.7
 74
    0
 49
0
 74
    0
 49
-12.7
 74
    0
  0
LTYPE
  5
42
330
5
100
AcDbSymbolTableRecord
100
AcDbLinetypeTableRecord
  2
BORDER
 70
    0
  3
Border __ __ . __ __ . __ __ . __ __ . __ __ .
 72
   65
 73
    6
 40
44.45
 49
12.7
 74
    0
 49
-6.35
 74
    0
 49
12.7
 74
    0
 49
-6.35
 74
    0
 49
0
 74
    0
 49
-6.35
 74
    0
  0
LTYPE
  5
43
330
5
100
AcDbSymbolTableRecord
100
AcDbLinetypeTableRecord
  2
BORDERTINY
 70
    0
  3
Border (.15x) __.__.__.__.__.__.__.__.__.__.__.
 72
   65
 73
    6
 40
6.6675
 49
1.905
 74
    0
 49
-0.9525
 74
    0
 49
1.905
 74
    0
 49
-0.9525
 74
    0
 49
0
 74
    0
 49
-0.9525
 74
    0
  0
LTYPE
  5
44
330
5
100
AcDbSymbolTableRecord
100
AcDbLinetypeTableRecord
  2
BORDER2
 70
    0
  3
Border (.5x) __.__.__.__.__.__.__.__.__.__.__.
 72
   65
 73
    6
 40
22.225
 49
6.35
 74
    0
 49
-3.175
 74
    0
 49
6.35
 74
    0
 49
-3.175
 74
    0
 49
0
 74
    0
 49
-3.175
 74
    0
  0
LTYPE
  5
45
330
5
100
AcDbSymbolTableRecord
100
AcDbLinetypeTableRecord
  2
BORDERX2
 70
    0
  3
Border (2x) ____  ____  .  ____  ____  .  ___
 72
   65
 73
    6
 40
88.89999999999999
 49
25.4
 74
    0
 49
-12.7
 74
    0
 49
25.4
 74
    0
 49
-12.7
 74
    0
 49
0
 74
    0
 49
-12.7
 74
    0
  0
LTYPE
  5
46
330
5
100
AcDbSymbolTableRecord
100
AcDbLinetypeTableRecord
  2
CENTER
 70
    0
  3
Center ____ _ ____ _ ____ _ ____ _ ____ _ ____
 72
   65
 73
    4
 40
50.8
 49
31.75
 74
    0
 49
-6.35
 74
    0
 49
6.35
 74
    0
 49
-6.35
 74
    0
  0
LTYPE
  5
47
330
5
100
AcDbSymbolTableRecord
100
AcDbLinetypeTableRecord
  2
CENTERTINY
 70
    0
  3
Center (.15x) ___ _ ___ _ ___ _ ___ _ ___ _ ___
 72
   65
 73
    4
 40
7.619999999999999
 49
4.7625
 74
    0
 49
-0.9525
 74
    0
 49
0.9525
 74
    0
 49
-0.9525
 74
    0
  0
LTYPE
  5
48
330
5
100
AcDbSymbolTableRecord
100
AcDbLinetypeTableRecord
  2
CENTER2
 70
    0
  3
Center (.5x) ___ _ ___ _ ___ _ ___ _ ___ _ ___
 72
   65
 73
    4
 40
28.575
 49
19.05
 74
    0
 49
-3.175
 74
    0
 49
3.175
 74
    0
 49
-3.175
 74
    0
  0
LTYPE
  5
49
330
5
100
AcDbSymbolTableRecord
100
AcDbLinetypeTableRecord
  2
CENTERX2
 70
    0
  3
Center (2x) ________  __  ________  __  _____
 72
   65
 73
    4
 40
101.6
 49
63.5
 74
    0
 49
-12.7
 74
    0
 49
12.7
 74
    0
 49
-12.7
 74
    0
  0
ENDTAB
  0
TABLE
  2
LAYER
  5
2
330
0
100
AcDbSymbolTable
 70
    1
  0
LAYER
  5
10
330
2
100
AcDbSymbolTableRecord
100
AcDbLayerTableRecord
  2
0
 70
    0
 62
    7
  6
CONTINUOUS
370
   -3
390
F
  0
ENDTAB
  0
TABLE
  2
STYLE
  5
3
330
0
100
AcDbSymbolTable
 70
    3
  0
STYLE
  5
4A
330
2
100
AcDbSymbolTableRecord
100
AcDbTextStyleTableRecord
  2
Standard
 70
    0
 40
0
 41
1
 50
0
 71
    0
 42
1
  3
txt
  4

  0
ENDTAB
  0
TABLE
  2
VIEW
  5
6
330
0
100
AcDbSymbolTable
 70
    0
  0
ENDTAB
  0
TABLE
  2
UCS
  5
7
330
0
100
AcDbSymbolTable
 70
    0
  0
ENDTAB
  0
TABLE
  2
APPID
  5
9
330
0
100
AcDbSymbolTable
 70
    1
  0
APPID
  5
12
330
9
100
AcDbSymbolTableRecord
100
AcDbRegAppTableRecord
  2
ACAD
 70
    0
  0
APPID
  5
4B
330
9
100
AcDbSymbolTableRecord
100
AcDbRegAppTableRecord
  2
LibreCad
 70
    0
  0
ENDTAB
  0
TABLE
  2
DIMSTYLE
  5
A
330
0
100
AcDbSymbolTable
 70
    1
100
AcDbDimStyleTable
 71
    1
  0
DIMSTYLE
105
4C
330
A
100
AcDbSymbolTableRecord
100
AcDbDimStyleTableRecord
  2
Standard
 70
    0
 40
2.5
 41
2.5
 42
0.625
 43
0.38
 44
1.25
 45
0
 46
0
 47
0
 48
0
 49
1
140
2.5
141
0.09
142
0
143
25.4
144
1
145
0
146
1
147
0.625
148
0
 71
    0
 72
    0
 73
    0
 74
    1
 75
    0
 76
    0
 77
    0
 78
    8
 79
    0
170
    0
171
    2
172
    0
173
    0
174
    0
175
    0
176
    0
177
    0
178
    0
179
    0
271
    2
272
    4
273
    2
274
    2
275
    0
276
    0
277
    2
278
   44
279
    0
280
    0
281
    0
282
    0
283
    1
284
    0
285
    0
286
    0
288
    0
289
    3
340
standard
341

371
   -2
372
   -2
  0
ENDTAB
  0
TABLE
  2
BLOCK_RECORD
  5
1
330
0
100
AcDbSymbolTable
 70
    2
  0
BLOCK_RECORD
  5
1F
330
1
100
AcDbSymbolTableRecord
100
AcDbBlockTableRecord
  2
*Model_Space
 70
    0
280
    1
281
    0
  0
BLOCK_RECORD
  5
1E
330
1
100
AcDbSymbolTableRecord
100
AcDbBlockTableRecord
  2
*Paper_Space
 70
    0
280
    1
281
    0
  0
ENDTAB
  0
ENDSEC
  0
SECTION
  2
BLOCKS
  0
BLOCK
  5
20
330
1F
100
AcDbEntity
  8
0
100
AcDbBlockBegin
  2
*Model_Space
 70
    0
 10
0
 20
0
 30
0
  3
*Model_Space
  1

  0
ENDBLK
  5
21
330
1F
100
AcDbEntity
  8
0
100
AcDbBlockEnd
  0
BLOCK
  5
1C
330
1B
100
AcDbEntity
  8
0
100
AcDbBlockBegin
  2
*Paper_Space
 70
    0
 10
0
 20
0
 30
0
  3
*Paper_Space
  1

  0
ENDBLK
  5
1D
330
1F
100
AcDbEntity
  8
0
100
AcDbBlockEnd
  0
ENDSEC
  0
SECTION
  2
ENTITIES
  0
LINE
  5
4D
100
AcDbEntity
  8
0
  6
ByLayer
 62
    0
370
   -1
100
AcDbLine
 10
85.07859356642999
 20
400.768450585361
 11
85.07859656642998
 21
400.768450585361
  0
LWPOLYLINE
  5
4E
100
AcDbEntity
  8
0
  6
ByLayer
 62
    0
370
   -1
100
AcDbPolyline
 90
    4
 70
    1
 43
0
 10
81.67860956643
 20
169.268368585361
 10
81.67860956643
 20
161.268367585361
 42
0.9999999999999999
 10
89.67860956643
 20
161.268367585361
 10
89.67860956643
 20
169.268367585361
 42
0.9999999131120526
  0
LWPOLYLINE
  5
4F
100
AcDbEntity
  8
0
  6
ByLayer
 62
    0
370
   -1
100
AcDbPolyline
 90
    4
 70
    1
 43
0
 10
89.67860956643
 20
129.268367585361
 42
0.9999999131120526
 10
81.67860956643
 20
129.268368585361
 10
81.67860956643
 20
121.268367585361
 42
0.9999999999999999
 10
89.67860956643
 20
121.268367585361
  0
LWPOLYLINE
  5
50
100
AcDbEntity
  8
0
  6
ByLayer
 62
    0
370
   -1
100
AcDbPolyline
 90
    4
 70
    1
 43
0
 10
81.67860956643
 20
89.26836858536099
 10
81.67860956643
 20
81.26836758536101
 42
0.9999999999999999
 10
89.67860956643
 20
81.26836758536101
 10
89.67860956643
 20
89.26836758536099
 42
0.9999999131120491
  0
LWPOLYLINE
  5
51
100
AcDbEntity
  8
0
  6
ByLayer
 62
    0
370
   -1
100
AcDbPolyline
 90
   16
 70
    1
 43
0
 10
112.78324956643
 20
135.264505585361
 10
112.78323756643
 20
120.235075585361
 42
0.1989123360590031
 10
114.54059656643
 20
115.992435585361
 10
131.02587856643
 20
99.507153585361
 42
0.1989123583080006
 10
135.26851956643
 20
97.74979358536099
 10
140.29795656643
 20
97.749793585361
 42
0.1989123583079996
 10
144.5405975664301
 20
99.50715258536101
 10
161.02587856643
 20
115.992435585361
 42
0.1989123360569981
 10
162.78323856643
 20
120.235026585361
 10
162.78324956643
 20
135.264464585361
 42
0.1989123175239983
 10
161.02589456643
 20
139.507105585361
 10
144.54062656643
 20
155.992396585361
 42
0.1989124853149995
 10
140.29798756643
 20
157.749761585361
 10
135.26855056643
 20
157.749765585361
 42
0.1989124853150036
 10
131.02590756643
 20
155.992408585361
 10
114.54061156643
 20
139.507143585361
 42
0.1989123174889998
  0
LWPOLYLINE
  5
52
100
AcDbEntity
  8
0
  6
ByLayer
 62
    0
370
   -1
100
AcDbPolyline
 90
    4
 70
    1
 43
0
 10
184.67860956643
 20
121.268367585361
 10
184.6786095664299
 20
129.268367585361
 42
0.9999999131120526
 10
176.67860956643
 20
129.268368585361
 10
176.67860956643
 20
121.268367585361
 42
0.9999999999999999
  0
LWPOLYLINE
  5
53
100
AcDbEntity
  8
0
  6
ByLayer
 62
    0
370
   -1
100
AcDbPolyline
 90
    4
 70
    1
 43
0
 10
184.67860956643
 20
161.268367585361
 10
184.6786095664299
 20
169.268367585361
 42
0.9999999131120526
 10
176.67860956643
 20
169.268368585361
 10
176.67860956643
 20
161.268367585361
 42
0.9999999999999999
  0
LWPOLYLINE
  5
54
100
AcDbEntity
  8
0
  6
ByLayer
 62
    0
370
   -1
100
AcDbPolyline
 90
    4
 70
    1
 43
0
 10
236.6786065664301
 20
160.268366585361
 10
244.6786065664301
 20
160.268366585361
 42
0.9999999789265744
 10
244.6786065664301
 20
168.268366585361
 10
236.6786055664301
 20
168.268366585361
 42
0.9999999131120526
  0
LWPOLYLINE
  5
55
100
AcDbEntity
  8
0
  6
ByLayer
 62
    0
370
   -1
100
AcDbPolyline
 90
    4
 70
    1
 43
0
 10
304.67860656643
 20
168.268366585361
 10
296.67860556643
 20
168.268366585361
 42
0.9999999131120526
 10
296.67860656643
 20
160.268366585361
 10
304.67860656643
 20
160.268366585361
 42
0.9999999789265815
  0
LWPOLYLINE
  5
56
100
AcDbEntity
  8
0
  6
ByLayer
 62
    0
370
   -1
100
AcDbPolyline
 90
    4
 70
    1
 43
0
 10
364.67860656643
 20
168.268366585361
 10
356.67860556643
 20
168.268366585361
 42
0.9999999131120526
 10
356.67860656643
 20
160.268366585361
 10
364.67860656643
 20
160.268366585361
 42
0.9999999789265815
  0
LWPOLYLINE
  5
57
100
AcDbEntity
  8
0
  6
ByLayer
 62
    0
370
   -1
100
AcDbPolyline
 90
    4
 70
    1
 43
0
 10
424.6786065664299
 20
168.268366585361
 10
416.67860556643
 20
168.268366585361
 42
0.9999999131120526
 10
416.6786065664299
 20
160.268366585361
 10
424.6786065664299
 20
160.268366585361
 42
0.9999999789265815
  0
LWPOLYLINE
  5
58
100
AcDbEntity
  8
0
  6
ByLayer
 62
    0
370
   -1
100
AcDbPolyline
 90
  212
 70
    0
 43
0
 10
118.12905756643
 20
54.767784585361
 10
118.12909856643
 20
54.26839558536102
 10
117.62905756643
 20
54.26839558536102
 10
113.14463556643
 20
54.26839558536102
 42
-0.2679491924310008
 10
112.71162256643
 20
54.51839558536102
 42
1.303223041599989
 10
112.02860856643
 20
53.835384585361
 42
-0.2679482664649996
 10
112.27860756643
 20
53.40237258536101
 10
112.27860756643
 20
51.76834358536101
 42
-0.4142135623729951
 10
111.77860756643
 20
51.26834358536101
 10
106.77861056643
 20
51.26834358536101
 42
-0.4142135623729951
 10
106.27861056643
 20
51.76834358536101
 10
106.27861356643
 20
53.40237058536101
 42
-0.267949192431004
 10
106.52861356643
 20
53.835382585361
 42
1.303223041600009
 10
105.84560156643
 20
54.51839658536101
 42
-0.2679482664650035
 10
105.41258956643
 20
54.26839858536101
 10
100.27862456643
 20
54.26839558536102
 10
100.27862456643
 20
57.26836758536101
 10
101.55361856643
 20
57.26836758536101
 10
101.55361856643
 20
61.26839558536101
 10
100.27862456643
 20
61.26839558536101
 10
100.27862456643
 20
64.26839558536101
 10
97.07861356642999
 20
64.26839558536101
 10
97.07861356642999
 20
61.26839558536101
 10
95.80361856643
 20
61.26839558536101
 10
95.80361856643
 20
57.26836758536101
 10
97.07861356642999
 20
57.26836758536101
 10
97.07861356642999
 20
54.26839558536102
 10
91.94461956642999
 20
54.26839558536102
 42
-0.2679491924309931
 10
91.51160656643
 20
54.51839558536102
 42
1.303223041600051
 10
90.82859256642999
 20
53.835384585361
 42
-0.2679482664650062
 10
91.07859156642999
 20
53.40237258536101
 10
91.07859156642999
 20
51.76834358536101
 42
-0.4142135623729951
 10
90.57859156642999
 20
51.26834358536101
 10
85.57859356642999
 20
51.26834358536101
 42
-0.4142135623729951
 10
85.07859356642999
 20
51.76834358536101
 10
85.07859656642998
 20
53.40237058536101
 42
-0.267949192431004
 10
85.32859656642998
 20
53.835382585361
 42
1.303223041599967
 10
84.64558556642999
 20
54.51839658536102
 42
-0.2679482804949971
 10
84.21257356643
 20
54.26839858536101
 10
73.67860956643
 20
54.26839758536101
 10
73.67860956643
 20
59.26839758536101
 10
73.67860956643
 20
80.26836558536101
 10
75.67860956643
 20
82.26836958536101
 10
75.67860956643
 20
184.268367585361
 10
84.21257356643
 20
184.268364585361
 42
-0.267948266465062
 10
84.64558456642996
 20
184.018365585361
 42
1.303223041599972
 10
85.32859656642998
 20
184.701380585361
 42
-0.2679491924310083
 10
85.07859656642998
 20
185.134393585361
 10
85.07859356642999
 20
400.768450585361
 42
-0.4142135623730284
 10
85.57859356642999
 20
401.268450585361
 10
90.57859156642999
 20
401.268450585361
 42
-0.4142135623730118
 10
91.07859156642996
 20
400.768450585361
 10
91.07859156642999
 20
399.134422585361
 42
-0.2679482664650133
 10
90.82859256643002
 20
398.701410585361
 42
1.303223029819818
 10
91.51160656643002
 20
398.018398585361
 42
-0.2679491924309818
 10
91.94461956642999
 20
398.268398585361
 10
97.07861356642999
 20
398.268398585361
 10
97.07861356642999
 20
395.268426585361
 10
95.80361856643
 20
395.268426585361
 10
95.80361856643
 20
391.268398585361
 10
97.07861356642999
 20
391.268398585361
 10
97.07861356642999
 20
388.268398585361
 10
100.27862456643
 20
388.268398585361
 10
100.27862456643
 20
391.268398585361
 10
101.55361856643
 20
391.268398585361
 10
101.55361856643
 20
395.268426585361
 10
100.27862456643
 20
395.268426585361
 10
100.27862456643
 20
398.268398585361
 10
105.41258956643
 20
398.268395585361
 42
-0.2679482664650227
 10
105.8456015664301
 20
398.018396585361
 42
1.303223041599922
 10
106.5286135664301
 20
398.7014115853611
 42
-0.267949192430998
 10
106.27861356643
 20
399.134424585361
 10
106.2786105664301
 20
400.768450585361
 42
-0.4142135623730367
 10
106.77861056643
 20
401.268450585361
 10
111.77860756643
 20
401.2684505853611
 42
-0.4142135623730284
 10
112.27860756643
 20
400.768442585361
 10
112.2786075664301
 20
185.134391585361
 42
-0.2679482664649862
 10
112.02860856643
 20
184.701379585361
 42
1.303223041600012
 10
112.71162256643
 20
184.018367585361
 42
-0.2679491924310122
 10
113.14463556643
 20
184.268367585361
 10
124.21257356643
 20
184.268364585361
 10
134.21257356643
 20
184.268364585361
 42
-0.2679482664650092
 10
134.64558456643
 20
184.018365585361
 42
1.303223041599972
 10
135.32859656643
 20
184.701380585361
 42
-0.2679491924310083
 10
135.07859656643
 20
185.134393585361
 10
135.07859356643
 20
186.768419585361
 42
-0.4142135623729951
 10
135.57859356643
 20
187.268419585361
 10
140.57859156643
 20
187.268419585361
 42
-0.4142135623729951
 10
141.07859156643
 20
186.768419585361
 10
141.07859156643
 20
185.134391585361
 42
-0.2679482664650033
 10
140.82859256643
 20
184.701379585361
 42
1.30322304160031
 10
141.51160656643
 20
184.018367585361
 42
-0.2679491924309931
 10
141.94461956643
 20
184.268367585361
 10
147.0786135664301
 20
184.268367585361
 10
147.0786135664301
 20
181.268395585361
 10
145.8036185664301
 20
181.268395585361
 10
145.8036185664301
 20
177.268367585361
 10
147.0786135664301
 20
177.268367585361
 10
147.0786135664301
 20
174.268367585361
 10
150.27862456643
 20
174.268367585361
 10
150.27862456643
 20
177.268367585361
 10
151.55361856643
 20
177.268367585361
 10
151.55361856643
 20
181.268395585361
 10
150.27862456643
 20
181.268395585361
 10
150.27862456643
 20
184.268367585361
 10
155.41258956643
 20
184.268364585361
 42
-0.2679482664650165
 10
155.84560156643
 20
184.018365585361
 42
1.303223041599872
 10
156.5286135664301
 20
184.701380585361
 42
-0.2679491924310083
 10
156.2786135664301
 20
185.134393585361
 10
156.27861056643
 20
186.768419585361
 42
-0.4142135623729951
 10
156.77861056643
 20
187.268419585361
 10
161.77860756643
 20
187.268419585361
 42
-0.4142135623729951
 10
162.27860756643
 20
186.768419585361
 10
162.27860756643
 20
185.134391585361
 42
-0.2679482664649352
 10
162.02860856643
 20
184.701379585361
 42
1.303223041599876
 10
162.7116225664301
 20
184.018367585361
 42
-0.2679491924310022
 10
163.14463556643
 20
184.268367585361
 10
254.21257756643
 20
184.268364585361
 42
-0.2679482664650904
 10
254.64558856643
 20
184.018365585361
 42
1.303223041599953
 10
255.32860056643
 20
184.701380585361
 42
-0.2679491924309987
 10
255.07860056643
 20
185.134393585361
 10
255.0785975664301
 20
186.768419585361
 42
-0.4142135623729951
 10
255.5785975664301
 20
187.268419585361
 10
260.5785955664301
 20
187.268419585361
 42
-0.4142135623730284
 10
261.0785955664301
 20
186.768419585361
 10
261.0785955664301
 20
185.134391585361
 42
-0.2679482664650033
 10
260.8285965664301
 20
184.701379585361
 42
1.303223041599971
 10
261.51161056643
 20
184.018367585361
 42
-0.2679491924309972
 10
261.9446235664301
 20
184.268367585361
 10
267.07861756643
 20
184.268367585361
 10
267.07861756643
 20
181.268395585361
 10
265.80362256643
 20
181.268395585361
 10
265.80362256643
 20
177.268367585361
 10
267.07861756643
 20
177.268367585361
 10
267.07861756643
 20
174.268367585361
 10
270.27862856643
 20
174.268367585361
 10
270.27862856643
 20
177.268367585361
 10
271.55362256643
 20
177.268367585361
 10
271.55362256643
 20
181.268395585361
 10
270.27862856643
 20
181.268395585361
 10
270.27862856643
 20
184.268367585361
 10
275.41259356643
 20
184.268364585361
 42
-0.2679482664650961
 10
275.8456045664299
 20
184.018365585361
 42
1.303223041599867
 10
276.52861656643
 20
184.7013805853609
 42
-0.2679491924310235
 10
276.27861656643
 20
185.134393585361
 10
276.27861356643
 20
186.768419585361
 42
-0.4142135623730284
 10
276.77861356643
 20
187.268419585361
 10
281.77861156643
 20
187.268419585361
 42
-0.4142135623729619
 10
282.27861156643
 20
186.768419585361
 10
282.27861156643
 20
185.134391585361
 42
-0.2679482664650033
 10
282.02861256643
 20
184.701379585361
 42
1.303223041600051
 10
282.7116265664298
 20
184.018367585361
 42
-0.2679491924309831
 10
283.1446395664301
 20
184.268367585361
 10
414.21257356643
 20
184.268364585361
 42
-0.2679482664650273
 10
414.6455855664303
 20
184.018365585361
 42
1.303223041600241
 10
415.3285975664299
 20
184.701380585361
 42
-0.2679491924310083
 10
415.0785975664299
 20
185.134393585361
 10
415.07859456643
 20
186.768419585361
 42
-0.4142135623730284
 10
415.57859456643
 20
187.268419585361
 10
420.57859156643
 20
187.268419585361
 42
-0.4142135623730284
 10
421.07859156643
 20
186.768419585361
 10
421.07859156643
 20
185.134391585361
 42
-0.2679482664650033
 10
420.82859256643
 20
184.701379585361
 42
1.303223041599999
 10
421.5116065664298
 20
184.018367585361
 42
-0.2679491924309831
 10
421.9446195664301
 20
184.268367585361
 10
427.07861356643
 20
184.268367585361
 10
427.07861356643
 20
181.268395585361
 10
425.80361956643
 20
181.268395585361
 10
425.80361956643
 20
177.268367585361
 10
427.07861356643
 20
177.268367585361
 10
427.07861356643
 20
174.268367585361
 10
430.2786245664301
 20
174.268367585361
 10
430.2786245664301
 20
177.268367585361
 10
431.55361956643
 20
177.268367585361
 10
431.55361956643
 20
181.268395585361
 10
430.2786245664301
 20
181.268395585361
 10
430.2786245664301
 20
184.268367585361
 10
435.41258956643
 20
184.268364585361
 42
-0.2679482664650273
 10
435.8456015664303
 20
184.018365585361
 42
1.303223041600304
 10
436.52861356643
 20
184.701380585361
 42
-0.2679491924310083
 10
436.27861356643
 20
185.134393585361
 10
436.27861056643
 20
186.768419585361
 42
-0.4142135623730284
 10
436.77861056643
 20
187.268419585361
 10
441.77860756643
 20
187.268419585361
 42
-0.4142135623730284
 10
442.27860756643
 20
186.768419585361
 10
442.27860756643
 20
185.134391585361
 42
-0.2679482664650033
 10
442.02860856643
 20
184.701379585361
 42
1.303223041599902
 10
442.7116235664303
 20
184.018367585361
 42
-0.2679491924310377
 10
443.1446365664301
 20
184.268367585361
 10
453.6786365664301
 20
184.268367585361
 10
453.6786365664301
 20
173.618368585361
 10
451.44458956643
 20
173.618368585361
 42
-0.2679491924309677
 10
451.0115765664302
 20
173.868368585361
 42
1.303223029819781
 10
450.3285625664301
 20
173.185356585361
 42
-0.2679482664650034
 10
450.5785615664301
 20
172.752344585361
 10
450.57856456643
 20
165.218373585361
 10
447.57859256643
 20
165.218373585361
 10
447.57859256643
 20
166.493368585361
 10
443.57856456643
 20
166.493368585361
 10
443.57856456643
 20
165.218373585361
 10
440.57856456643
 20
165.218373585361
 10
440.57856456643
 20
162.018362585361
 10
443.57856456643
 20
162.018362585361
 10
443.57856456643
 20
160.743368585361
 10
447.57859256643
 20
160.743368585361
 10
447.57859256643
 20
162.018362585361
 10
450.57856456643
 20
162.018362585361
 10
450.57856456643
 20
153.242732585361
 10
440.2075015664301
 20
150.477713585361
 10
118.48912056643
 20
56.68904358536102
 42
0.3333698242440065
 10
118.12905756643
 20
56.20902558536102
 10
118.12905756643
 20
54.76839558536102
  0
CIRCLE
  5
59
100
AcDbEntity
  8
0
  6
ByLayer
 62
    0
370
   -1
100
AcDbCircle
 10
112.49686156643
 20
90.76836758536099
 40
1.6
  0
CIRCLE
  5
5A
100
AcDbEntity
  8
0
  6
ByLayer
 62
    0
370
   -1
100
AcDbCircle
 10
112.51567256643
 20
165.268367585361
 40
1.6
  0
CIRCLE
  5
5B
100
AcDbEntity
  8
0
  6
ByLayer
 62
    0
370
   -1
100
AcDbCircle
 10
160.71267256643
 20
171.468367585361
 40
1.6
  0
CIRCLE
  5
5C
100
AcDbEntity
  8
0
  6
ByLayer
 62
    0
370
   -1
100
AcDbCircle
 10
160.69386156643
 20
88.26836758536099
 40
1.6
  0
LWPOLYLINE
  5
5D
100
AcDbEntity
  8
0
  6
ByLayer
 62
    0
370
   -1
100
AcDbPolyline
 90
   16
 70
    1
 43
0
 10
96.77865856642995
 20
324.5172635853618
 42
0.2679482664649885
 10
97.02865756643
 20
324.9502755853619
 10
97.02865756642998
 20
329.4182255853619
 42
0.2679491924310297
 10
96.77865756643
 20
329.8512375853622
 42
-1.303223041599699
 10
97.46166956642999
 20
330.5342515853619
 42
0.2679482664649728
 10
97.89468156642999
 20
330.2842535853619
 10
99.46255156642999
 20
330.2842505853619
 42
0.2679491924309474
 10
99.89556456642991
 20
330.5342505853619
 42
-1.303223041600603
 10
100.5785785664299
 20
329.8512395853618
 42
0.267948261789003
 10
100.3285805664301
 20
329.4182275853619
 10
100.3285775664301
 20
324.9502775853618
 42
0.2679491924309873
 10
100.57857756643
 20
324.5172645853621
 42
-1.303223041600508
 10
99.89556556642991
 20
323.8342505853619
 42
0.2679482664649918
 10
99.46255356642999
 20
324.0842495853619
 10
97.89468656642998
 20
324.0842525853619
 42
0.2679491924310077
 10
97.46167256643001
 20
323.8342525853619
 42
-1.30322304160023
  0
LWPOLYLINE
  5
5E
100
AcDbEntity
  8
0
  6
ByLayer
 62
    0
370
   -1
100
AcDbPolyline
 90
   16
 70
    1
 43
0
 10
100.5785775664301
 20
345.7172635853619
 42
-1.303223041600055
 10
99.89556556642992
 20
345.0342495853619
 42
0.2679482664649691
 10
99.46255356642999
 20
345.2842485853619
 10
97.89468656642998
 20
345.2842515853619
 42
0.2679491924310305
 10
97.46167256643
 20
345.0342515853619
 42
-1.303223041599786
 10
96.77865856642997
 20
345.7172635853618
 42
0.267948266464994
 10
97.02865756643013
 20
346.1502755853618
 10
97.02865756642998
 20
350.6182245853619
 42
0.2679491924310562
 10
96.77865756643021
 20
351.0512375853618
 42
-1.303223041600233
 10
97.46166956643009
 20
351.7342515853618
 42
0.2679482664650213
 10
97.89468156642999
 20
351.4842535853618
 10
99.46255156642999
 20
351.4842505853618
 42
0.2679491924309591
 10
99.89556456642997
 20
351.7342505853618
 42
-1.303223041600258
 10
100.57857856643
 20
351.0512385853623
 42
0.2679482664649821
 10
100.3285805664301
 20
350.6182265853619
 10
100.32857756643
 20
346.1502765853618
 42
0.2679491924309366
  0
CIRCLE
  5
5F
100
AcDbEntity
  8
0
  6
ByLayer
 62
    0
370
   -1
100
AcDbCircle
 10
98.67861956643
 20
337.7842515853619
 40
1.6
  0
LWPOLYLINE
  5
60
100
AcDbEntity
  8
0
  6
ByLayer
 62
    0
370
   -1
100
AcDbPolyline
 90
   16
 70
    1
 43
0
 10
99.46255249310298
 20
261.4526195853601
 42
0.2679491924310122
 10
99.89556549310301
 20
261.7026195853601
 42
-1.303223041599991
 10
100.5785794931031
 20
261.0196075853602
 42
0.2679482664649901
 10
100.328581493103
 20
260.5865955853601
 10
100.328578493103
 20
256.1186455853601
 42
0.2679491924310139
 10
100.578578493103
 20
255.6856325853601
 42
-1.303223041600015
 10
99.89556649310296
 20
255.0026185853601
 42
0.2679482664650165
 10
99.46255449310297
 20
255.2526175853601
 10
97.89468749310296
 20
255.2526205853601
 42
0.2679491924309886
 10
97.46167349310305
 20
255.0026205853601
 42
-1.303223041600012
 10
96.77865949310305
 20
255.6856325853601
 42
0.2679482664650128
 10
97.02865849310297
 20
256.1186445853601
 10
97.02865849310308
 20
260.5865935853601
 42
0.2679491924310062
 10
96.77865849310301
 20
261.0196065853601
 42
-1.303223041599905
 10
97.46167049310294
 20
261.7026205853601
 42
0.2679482664650183
 10
97.89468249310298
 20
261.4526225853601
  0
LWPOLYLINE
  5
61
100
AcDbEntity
  8
0
  6
ByLayer
 62
    0
370
   -1
100
AcDbPolyline
 90
   16
 70
    1
 43
0
 10
97.46167349310298
 20
233.8026215853601
 42
-1.303223041600117
 10
96.77865949310296
 20
234.4856325853601
 42
0.26794826646501
 10
97.02865849310297
 20
234.9186445853601
 10
97.02865849310308
 20
239.3865945853601
 42
0.2679491924309935
 10
96.77865849310308
 20
239.8196065853601
 42
-1.30322304160006
 10
97.46167049310301
 20
240.5026205853602
 42
0.2679482664650085
 10
97.89468249310298
 20
240.2526225853601
 10
99.46255249310298
 20
240.2526195853601
 42
0.2679491924310217
 10
99.89556549310298
 20
240.5026195853601
 42
-1.303223041599965
 10
100.5785794931031
 20
239.8196085853601
 42
0.2679482617889745
 10
100.3285814931031
 20
239.3865965853601
 10
100.3285784931031
 20
234.9186465853601
 42
0.267949192430983
 10
100.578578493103
 20
234.4856335853601
 42
-1.303223041600015
 10
99.89556649310296
 20
233.8026195853601
 42
0.2679482664650165
 10
99.46255449310297
 20
234.0526185853601
 10
97.89468749310296
 20
234.0526215853601
 42
0.2679491924309755
  0
CIRCLE
  5
62
100
AcDbEntity
  8
0
  6
ByLayer
 62
    0
370
   -1
100
AcDbCircle
 10
98.67862049310298
 20
247.7526205853601
 40
1.6
  0
ENDSEC
  0
SECTION
  2
OBJECTS
  0
DICTIONARY
  5
C
330
0
100
AcDbDictionary
281
    1
  3
ACAD_GROUP
350
D
  0
DICTIONARY
  5
D
330
C
100
AcDbDictionary
281
    1
  0
ENDSEC
  0
EOF
