999
dxfrw 0.6.3
  0
SECTION
  2
HEADER
  9
$ACADVER
  1
AC1021
  9
$DWGCODEPAGE
  3
ANSI_1252
  9
$INSBASE
 10
0
 20
0
 30
0
  9
$EXTMIN
 10
-157.2972001000327
 20
-293.2136005423179
 30
0
  9
$EXTMAX
 10
412.731384825354
 20
378.8006986940231
 30
0
  9
$LIMMIN
 10
0
 20
0
  9
$LIMMAX
 10
420
 20
297
  9
$ORTHOMODE
 70
    0
  9
$REGENMODE
 70
    1
  9
$FILLMODE
 70
    1
  9
$QTEXTMODE
 70
    0
  9
$MIRRTEXT
 70
    0
  9
$LTSCALE
 40
1
  9
$ATTMODE
 70
    0
  9
$TEXTSIZE
 40
2.5
  9
$TRACEWID
 40
15.68
  9
$TEXTSTYLE
  7
STANDARD
  9
$CLAYER
  8
0
  9
$CELTYPE
  6
BYLAYER
  9
$CECOLOR
 62
  256
  9
$CELTSCALE
 40
1
  9
$DISPSILH
 70
    0
  9
$DIMSCALE
 40
2.5
  9
$DIMASZ
 40
2.5
  9
$DIMEXO
 40
0.625
  9
$DIMDLI
 40
3.75
  9
$DIMRND
 40
0
  9
$DIMDLE
 40
0
  9
$DIMEXE
 40
1.25
  9
$DIMTP
 40
0
  9
$DIMTM
 40
0
  9
$DIMTXT
 40
2.5
  9
$DIMCEN
 40
2.5
  9
$DIMTSZ
 40
0
  9
$DIMTOL
 70
    0
  9
$DIMLIM
 70
    0
  9
$DIMTIH
 70
    0
  9
$DIMTOH
 70
    0
  9
$DIMSE1
 70
    0
  9
$DIMSE2
 70
    0
  9
$DIMTAD
 70
    1
  9
$DIMZIN
 70
    8
  9
$DIMBLK
  1

  9
$DIMASO
 70
    1
  9
$DIMSHO
 70
    1
  9
$DIMPOST
  1

  9
$DIMAPOST
  1

  9
$DIMALT
 70
    0
  9
$DIMALTD
 70
    3
  9
$DIMALTF
 40
0.03937
  9
$DIMLFAC
 40
1
  9
$DIMTOFL
 70
    1
  9
$DIMTVP
 40
0
  9
$DIMTIX
 70
    0
  9
$DIMSOXD
 70
    0
  9
$DIMSAH
 70
    0
  9
$DIMBLK1
  1

  9
$DIMBLK2
  1

  9
$DIMSTYLE
  2
STANDARD
  9
$DIMCLRD
 70
    0
  9
$DIMCLRE
 70
    0
  9
$DIMCLRT
 70
    0
  9
$DIMTFAC
 40
1
  9
$DIMGAP
 40
0.625
  9
$DIMJUST
 70
    0
  9
$DIMSD1
 70
    0
  9
$DIMSD2
 70
    0
  9
$DIMTOLJ
 70
    0
  9
$DIMTZIN
 70
    8
  9
$DIMALTZ
 70
    0
  9
$DIMALTTZ
 70
    0
  9
$DIMUPT
 70
    0
  9
$DIMDEC
 70
    2
  9
$DIMTDEC
 70
    2
  9
$DIMALTU
 70
    2
  9
$DIMALTTD
 70
    3
  9
$DIMTXSTY
  7
STANDARD
  9
$DIMAUNIT
 70
    0
  9
$DIMADEC
 70
    0
  9
$DIMALTRND
 40
0
  9
$DIMAZIN
 70
    0
  9
$DIMDSEP
 70
   44
  9
$DIMATFIT
 70
    3
  9
$DIMFRAC
 70
    0
  9
$DIMLDRBLK
  1
STANDARD
  9
$DIMLUNIT
 70
    2
  9
$DIMLWD
 70
   -2
  9
$DIMLWE
 70
   -2
  9
$DIMTMOVE
 70
    0
  9
$DIMFXL
 40
1
  9
$DIMFXLON
 70
    0
  9
$DIMJOGANG
 40
0.7854
  9
$DIMTFILL
 70
    0
  9
$DIMTFILLCLR
 70
    0
  9
$DIMARCSYM
 70
    0
  9
$DIMLTYPE
  6

  9
$DIMLTEX1
  6

  9
$DIMLTEX2
  6

  9
$LUNITS
 70
    2
  9
$LUPREC
 70
    4
  9
$SKETCHINC
 40
1
  9
$FILLETRAD
 40
0
  9
$AUNITS
 70
    0
  9
$AUPREC
 70
    2
  9
$MENU
  1
.
  9
$ELEVATION
 40
0
  9
$PELEVATION
 40
0
  9
$THICKNESS
 40
0
  9
$LIMCHECK
 70
    0
  9
$CHAMFERA
 40
0
  9
$CHAMFERB
 40
0
  9
$CHAMFERC
 40
0
  9
$CHAMFERD
 40
0
  9
$SKPOLY
 70
    0
  9
$USRTIMER
 70
    1
  9
$ANGBASE
 50
0
  9
$ANGDIR
 70
    0
  9
$PDMODE
 70
   34
  9
$PDSIZE
 40
0
  9
$PLINEWID
 40
0
  9
$SPLFRAME
 70
    0
  9
$SPLINETYPE
 70
    2
  9
$SPLINESEGS
 70
    8
  9
$HANDSEED
  5
20000
  9
$SURFTAB1
 70
    6
  9
$SURFTAB2
 70
    6
  9
$SURFTYPE
 70
    6
  9
$SURFU
 70
    6
  9
$SURFV
 70
    6
  9
$UCSBASE
  2

  9
$UCSNAME
  2

  9
$UCSORG
 10
0
 20
0
 30
0
  9
$UCSXDIR
 10
1
 20
0
 30
0
  9
$UCSYDIR
 10
0
 20
1
 30
0
  9
$UCSORTHOREF
  2

  9
$UCSORTHOVIEW
 70
    0
  9
$UCSORGTOP
 10
0
 20
0
 30
0
  9
$UCSORGBOTTOM
 10
0
 20
0
 30
0
  9
$UCSORGLEFT
 10
0
 20
0
 30
0
  9
$UCSORGRIGHT
 10
0
 20
0
 30
0
  9
$UCSORGFRONT
 10
0
 20
0
 30
0
  9
$UCSORGBACK
 10
0
 20
0
 30
0
  9
$PUCSBASE
  2

  9
$PUCSNAME
  2

  9
$PUCSORG
 10
0
 20
0
 30
0
  9
$PUCSXDIR
 10
1
 20
0
 30
0
  9
$PUCSYDIR
 10
0
 20
1
 30
0
  9
$PUCSORTHOREF
  2

  9
$PUCSORTHOVIEW
 70
    0
  9
$PUCSORGTOP
 10
0
 20
0
 30
0
  9
$PUCSORGBOTTOM
 10
0
 20
0
 30
0
  9
$PUCSORGLEFT
 10
0
 20
0
 30
0
  9
$PUCSORGRIGHT
 10
0
 20
0
 30
0
  9
$PUCSORGFRONT
 10
0
 20
0
 30
0
  9
$PUCSORGBACK
 10
0
 20
0
 30
0
  9
$USERI1
 70
    0
  9
$USERI2
 70
    0
  9
$USERI3
 70
    0
  9
$USERI4
 70
    0
  9
$USERI5
 70
    0
  9
$USERR1
 40
0
  9
$USERR2
 40
0
  9
$USERR3
 40
0
  9
$USERR4
 40
0
  9
$USERR5
 40
0
  9
$WORLDVIEW
 70
    1
  9
$SHADEDGE
 70
    3
  9
$SHADEDIF
 70
   70
  9
$TILEMODE
 70
    1
  9
$MAXACTVP
 70
   64
  9
$PINSBASE
 10
0
 20
0
 30
0
  9
$PLIMCHECK
 70
    0
  9
$PEXTMIN
 10
0
 20
0
 30
0
  9
$PEXTMAX
 10
0
 20
0
 30
0
  9
$GRIDMODE
 70
    1
  9
$SNAPSTYLE
 70
    0
  9
$PLIMMIN
 10
0
 20
0
  9
$PLIMMAX
 10
420
 20
297
  9
$UNITMODE
 70
    0
  9
$VISRETAIN
 70
    1
  9
$PLINEGEN
 70
    0
  9
$PSLTSCALE
 70
    1
  9
$TREEDEPTH
 70
 3020
  9
$CMLSTYLE
  2
Standard
  9
$CMLJUST
 70
    0
  9
$CMLSCALE
 40
20
  9
$PROXYGRAPHICS
 70
    1
  9
$MEASUREMENT
 70
    1
  9
$CELWEIGHT
370
   -1
  9
$ENDCAPS
280
    0
  9
$JOINSTYLE
280
    0
  9
$LWDISPLAY
290
    0
  9
$INSUNITS
 70
    0
  9
$HYPERLINKBASE
  1

  9
$STYLESHEET
  1

  9
$XEDIT
290
    1
  9
$CEPSNTYPE
380
    0
  9
$PSTYLEMODE
290
    1
  9
$EXTNAMES
290
    1
  9
$PSVPSCALE
 40
1
  9
$OLESTARTUP
290
    0
  9
$SORTENTS
280
  127
  9
$INDEXCTL
280
    0
  9
$HIDETEXT
280
    1
  9
$XCLIPFRAME
290
    0
  9
$HALOGAP
280
    0
  9
$OBSCOLOR
 70
  257
  9
$OBSLTYPE
280
    0
  9
$INTERSECTIONDISPLAY
280
    0
  9
$INTERSECTIONCOLOR
 70
  257
  9
$DIMASSOC
280
    1
  9
$PROJECTNAME
  1

  9
$CAMERADISPLAY
290
    0
  9
$LENSLENGTH
 40
50
  9
$CAMERAHEIGHT
 40
0
  9
$STEPSPERSEC
 40
2
  9
$STEPSIZE
 40
50
  9
$3DDWFPREC
 40
2
  9
$PSOLWIDTH
 40
5
  9
$PSOLHEIGHT
 40
80
  9
$LOFTANG1
 40
1.570796326794897
  9
$LOFTANG2
 40
1.570796326794897
  9
$LOFTMAG1
 40
0
  9
$LOFTMAG2
 40
0
  9
$LOFTPARAM
 70
    7
  9
$LOFTNORMALS
280
    1
  9
$LATITUDE
 40
1
  9
$LONGITUDE
 40
1
  9
$NORTHDIRECTION
 40
0
  9
$TIMEZONE
 70
-8000
  9
$LIGHTGLYPHDISPLAY
280
    1
  9
$TILEMODELIGHTSYNCH
280
    1
  9
$SOLIDHIST
280
    1
  9
$SHOWHIST
280
    1
  9
$DWFFRAME
280
    2
  9
$DGNFRAME
280
    0
  9
$REALWORLDSCALE
290
    1
  9
$INTERFERECOLOR
 62
    1
  9
$CSHADOW
280
    0
  9
$SHADOWPLANELOCATION
 40
0
  0
ENDSEC
  0
SECTION
  2
CLASSES
  0
ENDSEC
  0
SECTION
  2
TABLES
  0
TABLE
  2
VPORT
  5
8
330
0
100
AcDbSymbolTable
 70
    1
  0
VPORT
  5
31
330
2
100
AcDbSymbolTableRecord
100
AcDbViewportTableRecord
  2
*ACTIVE
 70
    0
 10
0
 20
0
 11
1
 21
1
 12
305.1741643259936
 22
216.045236117729
 13
0
 23
0
 14
10
 24
10
 15
10
 25
10
 16
0
 26
0
 36
1
 17
0
 27
0
 37
0
 40
587.3473149208221
 41
1.853146853146853
 42
50
 43
0
 44
0
 50
0
 51
0
 71
    0
 72
  100
 73
    1
 74
    3
 75
    0
 76
    1
 77
    0
 78
    0
281
    0
 65
    1
110
0
120
0
130
0
111
1
121
0
131
0
112
0
122
1
132
0
 79
    0
146
0
348
10020
 60
    7
 61
    5
292
1
282
    1
141
0
142
0
 63
  250
421
3358443
  0
ENDTAB
  0
TABLE
  2
LTYPE
  5
5
330
0
100
AcDbSymbolTable
 70
    4
  0
LTYPE
  5
14
330
5
100
AcDbSymbolTableRecord
100
AcDbLinetypeTableRecord
  2
ByBlock
 70
    0
  3

 72
   65
 73
    0
 40
0
  0
LTYPE
  5
15
330
5
100
AcDbSymbolTableRecord
100
AcDbLinetypeTableRecord
  2
ByLayer
 70
    0
  3

 72
   65
 73
    0
 40
0
  0
LTYPE
  5
16
330
5
100
AcDbSymbolTableRecord
100
AcDbLinetypeTableRecord
  2
Continuous
 70
    0
  3
Solid line
 72
   65
 73
    0
 40
0
  0
LTYPE
  5
32
330
5
100
AcDbSymbolTableRecord
100
AcDbLinetypeTableRecord
  2
DOT
 70
    0
  3
Dot . . . . . . . . . . . . . . . . . . . . . .
 72
   65
 73
    2
 40
6.35
 49
0
 74
    0
 49
-6.35
 74
    0
  0
LTYPE
  5
33
330
5
100
AcDbSymbolTableRecord
100
AcDbLinetypeTableRecord
  2
DOTTINY
 70
    0
  3
Dot (.15x) .....................................
 72
   65
 73
    2
 40
0.9525
 49
0
 74
    0
 49
-0.9525
 74
    0
  0
LTYPE
  5
34
330
5
100
AcDbSymbolTableRecord
100
AcDbLinetypeTableRecord
  2
DOT2
 70
    0
  3
Dot (.5x) .....................................
 72
   65
 73
    2
 40
3.175
 49
0
 74
    0
 49
-3.175
 74
    0
  0
LTYPE
  5
35
330
5
100
AcDbSymbolTableRecord
100
AcDbLinetypeTableRecord
  2
DOTX2
 70
    0
  3
Dot (2x) .  .  .  .  .  .  .  .  .  .  .  .  .
 72
   65
 73
    2
 40
12.7
 49
0
 74
    0
 49
-12.7
 74
    0
  0
LTYPE
  5
36
330
5
100
AcDbSymbolTableRecord
100
AcDbLinetypeTableRecord
  2
DASHED
 70
    0
  3
Dashed _ _ _ _ _ _ _ _ _ _ _ _ _ _ _ _ _
 72
   65
 73
    2
 40
19.05
 49
12.7
 74
    0
 49
-6.35
 74
    0
  0
LTYPE
  5
37
330
5
100
AcDbSymbolTableRecord
100
AcDbLinetypeTableRecord
  2
DASHEDTINY
 70
    0
  3
Dashed (.15x) _ _ _ _ _ _ _ _ _ _ _ _ _ _ _ _ _
 72
   65
 73
    2
 40
2.8575
 49
1.905
 74
    0
 49
-0.9525
 74
    0
  0
LTYPE
  5
38
330
5
100
AcDbSymbolTableRecord
100
AcDbLinetypeTableRecord
  2
DASHED2
 70
    0
  3
Dashed (.5x) _ _ _ _ _ _ _ _ _ _ _ _ _ _ _ _ _
 72
   65
 73
    2
 40
9.524999999999999
 49
6.35
 74
    0
 49
-3.175
 74
    0
  0
LTYPE
  5
39
330
5
100
AcDbSymbolTableRecord
100
AcDbLinetypeTableRecord
  2
DASHEDX2
 70
    0
  3
Dashed (2x) ____  ____  ____  ____  ____  ___
 72
   65
 73
    2
 40
38.09999999999999
 49
25.4
 74
    0
 49
-12.7
 74
    0
  0
LTYPE
  5
3A
330
5
100
AcDbSymbolTableRecord
100
AcDbLinetypeTableRecord
  2
DASHDOT
 70
    0
  3
Dash dot __ . __ . __ . __ . __ . __ . __ . __
 72
   65
 73
    4
 40
25.4
 49
12.7
 74
    0
 49
-6.35
 74
    0
 49
0
 74
    0
 49
-6.35
 74
    0
  0
LTYPE
  5
3B
330
5
100
AcDbSymbolTableRecord
100
AcDbLinetypeTableRecord
  2
DASHDOTTINY
 70
    0
  3
Dash dot (.15x) _._._._._._._._._._._._._._._.
 72
   65
 73
    4
 40
3.81
 49
1.905
 74
    0
 49
-0.9525
 74
    0
 49
0
 74
    0
 49
-0.9525
 74
    0
  0
LTYPE
  5
3C
330
5
100
AcDbSymbolTableRecord
100
AcDbLinetypeTableRecord
  2
DASHDOT2
 70
    0
  3
Dash dot (.5x) _._._._._._._._._._._._._._._.
 72
   65
 73
    4
 40
12.7
 49
6.35
 74
    0
 49
-3.175
 74
    0
 49
0
 74
    0
 49
-3.175
 74
    0
  0
LTYPE
  5
3D
330
5
100
AcDbSymbolTableRecord
100
AcDbLinetypeTableRecord
  2
DASHDOTX2
 70
    0
  3
Dash dot (2x) ____  .  ____  .  ____  .  ___
 72
   65
 73
    4
 40
50.8
 49
25.4
 74
    0
 49
-12.7
 74
    0
 49
0
 74
    0
 49
-12.7
 74
    0
  0
LTYPE
  5
3E
330
5
100
AcDbSymbolTableRecord
100
AcDbLinetypeTableRecord
  2
DIVIDE
 70
    0
  3
Divide ____ . . ____ . . ____ . . ____ . . ____
 72
   65
 73
    6
 40
31.75
 49
12.7
 74
    0
 49
-6.35
 74
    0
 49
0
 74
    0
 49
-6.35
 74
    0
 49
0
 74
    0
 49
-6.35
 74
    0
  0
LTYPE
  5
3F
330
5
100
AcDbSymbolTableRecord
100
AcDbLinetypeTableRecord
  2
DIVIDETINY
 70
    0
  3
Divide (.15x) __..__..__..__..__..__..__..__.._
 72
   65
 73
    6
 40
4.7625
 49
1.905
 74
    0
 49
-0.9525
 74
    0
 49
0
 74
    0
 49
-0.9525
 74
    0
 49
0
 74
    0
 49
-0.9525
 74
    0
  0
LTYPE
  5
40
330
5
100
AcDbSymbolTableRecord
100
AcDbLinetypeTableRecord
  2
DIVIDE2
 70
    0
  3
Divide (.5x) __..__..__..__..__..__..__..__.._
 72
   65
 73
    6
 40
15.875
 49
6.35
 74
    0
 49
-3.175
 74
    0
 49
0
 74
    0
 49
-3.175
 74
    0
 49
0
 74
    0
 49
-3.175
 74
    0
  0
LTYPE
  5
41
330
5
100
AcDbSymbolTableRecord
100
AcDbLinetypeTableRecord
  2
DIVIDEX2
 70
    0
  3
Divide (2x) ________  .  .  ________  .  .  _
 72
   65
 73
    6
 40
63.5
 49
25.4
 74
    0
 49
-12.7
 74
    0
 49
0
 74
    0
 49
-12.7
 74
    0
 49
0
 74
    0
 49
-12.7
 74
    0
  0
LTYPE
  5
42
330
5
100
AcDbSymbolTableRecord
100
AcDbLinetypeTableRecord
  2
BORDER
 70
    0
  3
Border __ __ . __ __ . __ __ . __ __ . __ __ .
 72
   65
 73
    6
 40
44.45
 49
12.7
 74
    0
 49
-6.35
 74
    0
 49
12.7
 74
    0
 49
-6.35
 74
    0
 49
0
 74
    0
 49
-6.35
 74
    0
  0
LTYPE
  5
43
330
5
100
AcDbSymbolTableRecord
100
AcDbLinetypeTableRecord
  2
BORDERTINY
 70
    0
  3
Border (.15x) __.__.__.__.__.__.__.__.__.__.__.
 72
   65
 73
    6
 40
6.6675
 49
1.905
 74
    0
 49
-0.9525
 74
    0
 49
1.905
 74
    0
 49
-0.9525
 74
    0
 49
0
 74
    0
 49
-0.9525
 74
    0
  0
LTYPE
  5
44
330
5
100
AcDbSymbolTableRecord
100
AcDbLinetypeTableRecord
  2
BORDER2
 70
    0
  3
Border (.5x) __.__.__.__.__.__.__.__.__.__.__.
 72
   65
 73
    6
 40
22.225
 49
6.35
 74
    0
 49
-3.175
 74
    0
 49
6.35
 74
    0
 49
-3.175
 74
    0
 49
0
 74
    0
 49
-3.175
 74
    0
  0
LTYPE
  5
45
330
5
100
AcDbSymbolTableRecord
100
AcDbLinetypeTableRecord
  2
BORDERX2
 70
    0
  3
Border (2x) ____  ____  .  ____  ____  .  ___
 72
   65
 73
    6
 40
88.89999999999999
 49
25.4
 74
    0
 49
-12.7
 74
    0
 49
25.4
 74
    0
 49
-12.7
 74
    0
 49
0
 74
    0
 49
-12.7
 74
    0
  0
LTYPE
  5
46
330
5
100
AcDbSymbolTableRecord
100
AcDbLinetypeTableRecord
  2
CENTER
 70
    0
  3
Center ____ _ ____ _ ____ _ ____ _ ____ _ ____
 72
   65
 73
    4
 40
50.8
 49
31.75
 74
    0
 49
-6.35
 74
    0
 49
6.35
 74
    0
 49
-6.35
 74
    0
  0
LTYPE
  5
47
330
5
100
AcDbSymbolTableRecord
100
AcDbLinetypeTableRecord
  2
CENTERTINY
 70
    0
  3
Center (.15x) ___ _ ___ _ ___ _ ___ _ ___ _ ___
 72
   65
 73
    4
 40
7.619999999999999
 49
4.7625
 74
    0
 49
-0.9525
 74
    0
 49
0.9525
 74
    0
 49
-0.9525
 74
    0
  0
LTYPE
  5
48
330
5
100
AcDbSymbolTableRecord
100
AcDbLinetypeTableRecord
  2
CENTER2
 70
    0
  3
Center (.5x) ___ _ ___ _ ___ _ ___ _ ___ _ ___
 72
   65
 73
    4
 40
28.575
 49
19.05
 74
    0
 49
-3.175
 74
    0
 49
3.175
 74
    0
 49
-3.175
 74
    0
  0
LTYPE
  5
49
330
5
100
AcDbSymbolTableRecord
100
AcDbLinetypeTableRecord
  2
CENTERX2
 70
    0
  3
Center (2x) ________  __  ________  __  _____
 72
   65
 73
    4
 40
101.6
 49
63.5
 74
    0
 49
-12.7
 74
    0
 49
12.7
 74
    0
 49
-12.7
 74
    0
  0
ENDTAB
  0
TABLE
  2
LAYER
  5
2
330
0
100
AcDbSymbolTable
 70
    1
  0
LAYER
  5
10
330
2
100
AcDbSymbolTableRecord
100
AcDbLayerTableRecord
  2
0
 70
    0
 62
    7
  6
CONTINUOUS
370
   -3
390
F
  0
ENDTAB
  0
TABLE
  2
STYLE
  5
3
330
0
100
AcDbSymbolTable
 70
    3
  0
STYLE
  5
4A
330
2
100
AcDbSymbolTableRecord
100
AcDbTextStyleTableRecord
  2
Standard
 70
    0
 40
0
 41
1
 50
0
 71
    0
 42
1
  3
txt
  4

  0
ENDTAB
  0
TABLE
  2
VIEW
  5
6
330
0
100
AcDbSymbolTable
 70
    0
  0
ENDTAB
  0
TABLE
  2
UCS
  5
7
330
0
100
AcDbSymbolTable
 70
    0
  0
ENDTAB
  0
TABLE
  2
APPID
  5
9
330
0
100
AcDbSymbolTable
 70
    1
  0
APPID
  5
12
330
9
100
AcDbSymbolTableRecord
100
AcDbRegAppTableRecord
  2
ACAD
 70
    0
  0
APPID
  5
4B
330
9
100
AcDbSymbolTableRecord
100
AcDbRegAppTableRecord
  2
LibreCad
 70
    0
  0
ENDTAB
  0
TABLE
  2
DIMSTYLE
  5
A
330
0
100
AcDbSymbolTable
 70
    1
100
AcDbDimStyleTable
 71
    1
  0
DIMSTYLE
105
4C
330
A
100
AcDbSymbolTableRecord
100
AcDbDimStyleTableRecord
  2
Standard
 70
    0
 40
2.5
 41
2.5
 42
0.625
 43
0.38
 44
1.25
 45
0
 46
0
 47
0
 48
0
 49
1
140
2.5
141
0.09
142
0
143
25.4
144
1
145
0
146
1
147
0.625
148
0
 71
    0
 72
    0
 73
    0
 74
    1
 75
    0
 76
    0
 77
    0
 78
    8
 79
    0
170
    0
171
    2
172
    0
173
    0
174
    0
175
    0
176
    0
177
    0
178
    0
179
    0
271
    2
272
    4
273
    2
274
    2
275
    0
276
    0
277
    2
278
   44
279
    0
280
    0
281
    0
282
    0
283
    1
284
    0
285
    0
286
    0
288
    0
289
    3
340
STANDARD
341

371
   -2
372
   -2
  0
ENDTAB
  0
TABLE
  2
BLOCK_RECORD
  5
1
330
0
100
AcDbSymbolTable
 70
    2
  0
BLOCK_RECORD
  5
1F
330
1
100
AcDbSymbolTableRecord
100
AcDbBlockTableRecord
  2
*Model_Space
 70
    0
280
    1
281
    0
  0
BLOCK_RECORD
  5
1E
330
1
100
AcDbSymbolTableRecord
100
AcDbBlockTableRecord
  2
*Paper_Space
 70
    0
280
    1
281
    0
  0
ENDTAB
  0
ENDSEC
  0
SECTION
  2
BLOCKS
  0
BLOCK
  5
20
330
1F
100
AcDbEntity
  8
0
100
AcDbBlockBegin
  2
*Model_Space
 70
    0
 10
0
 20
0
 30
0
  3
*Model_Space
  1

  0
ENDBLK
  5
21
330
1F
100
AcDbEntity
  8
0
100
AcDbBlockEnd
  0
BLOCK
  5
1C
330
1B
100
AcDbEntity
  8
0
100
AcDbBlockBegin
  2
*Paper_Space
 70
    0
 10
0
 20
0
 30
0
  3
*Paper_Space
  1

  0
ENDBLK
  5
1D
330
1F
100
AcDbEntity
  8
0
100
AcDbBlockEnd
  0
ENDSEC
  0
SECTION
  2
ENTITIES
  0
LWPOLYLINE
  5
4D
100
AcDbEntity
  8
0
  6
ByLayer
 62
    0
370
   -1
100
AcDbPolyline
 90
    4
 70
    1
 43
0
 10
404.731384825354
 20
340.8006736940231
 10
404.731384825354
 20
348.8006746940231
 42
0.9999999999999999
 10
396.731384825354
 20
348.8006746940231
 10
396.731384825354
 20
340.8006736940231
 42
0.9999999131120499
  0
LWPOLYLINE
  5
4E
100
AcDbEntity
  8
0
  6
ByLayer
 62
    0
370
   -1
100
AcDbPolyline
 90
    4
 70
    1
 43
0
 10
404.731384825354
 20
300.8006736940231
 10
404.731384825354
 20
308.8006746940231
 42
0.9999999999999999
 10
396.731384825354
 20
308.8006746940231
 10
396.731384825354
 20
300.8006736940231
 42
0.9999999131120499
  0
LWPOLYLINE
  5
4F
100
AcDbEntity
  8
0
  6
ByLayer
 62
    0
370
   -1
100
AcDbPolyline
 90
    4
 70
    1
 43
0
 10
396.731384825354
 20
268.8006746940231
 10
396.731384825354
 20
260.8006736940231
 42
0.9999999131120491
 10
404.731384825354
 20
260.8006736940231
 10
404.731384825354
 20
268.8006746940231
 42
0.9999999999999999
  0
LWPOLYLINE
  5
50
100
AcDbEntity
  8
0
  6
ByLayer
 62
    0
370
   -1
100
AcDbPolyline
 90
    4
 70
    1
 43
0
 10
309.731384825354
 20
300.8006736940231
 10
309.731384825354
 20
308.8006746940231
 42
0.9999999999999999
 10
301.731384825354
 20
308.8006746940231
 10
301.731384825354
 20
300.8006736940231
 42
0.9999999131120499
  0
LWPOLYLINE
  5
51
100
AcDbEntity
  8
0
  6
ByLayer
 62
    0
370
   -1
100
AcDbPolyline
 90
    4
 70
    1
 43
0
 10
309.731384825354
 20
260.8006736940231
 10
309.731384825354
 20
268.8006746940231
 42
0.9999999999999999
 10
301.731384825354
 20
268.8006746940231
 10
301.731384825354
 20
260.8006736940231
 42
0.9999999131120491
  0
LWPOLYLINE
  5
52
100
AcDbEntity
  8
0
  6
ByLayer
 62
    0
370
   -1
100
AcDbPolyline
 90
    4
 70
    1
 43
0
 10
249.7313878253538
 20
269.8006756940231
 10
241.7313878253538
 20
269.8006756940231
 42
0.9999999789265762
 10
241.7313878253538
 20
261.8006756940231
 10
249.7313878253538
 20
261.8006756940231
 42
0.9999999131120491
  0
LWPOLYLINE
  5
53
100
AcDbEntity
  8
0
  6
ByLayer
 62
    0
370
   -1
100
AcDbPolyline
 90
    4
 70
    1
 43
0
 10
189.7313878253538
 20
269.8006756940231
 10
181.7313878253538
 20
269.8006756940231
 42
0.999999978926576
 10
181.7313878253538
 20
261.8006756940231
 10
189.7313878253538
 20
261.8006756940231
 42
0.9999999131120495
  0
LWPOLYLINE
  5
54
100
AcDbEntity
  8
0
  6
ByLayer
 62
    0
370
   -1
100
AcDbPolyline
 90
    4
 70
    1
 43
0
 10
129.7313878253538
 20
269.8006756940231
 10
121.7313878253538
 20
269.8006756940231
 42
0.9999999789265744
 10
121.7313878253538
 20
261.8006756940231
 10
129.7313878253538
 20
261.8006756940231
 42
0.9999999131120491
  0
LWPOLYLINE
  5
55
100
AcDbEntity
  8
0
  6
ByLayer
 62
    0
370
   -1
100
AcDbPolyline
 90
    4
 70
    1
 43
0
 10
69.73138782535385
 20
269.8006756940231
 10
61.73138782535386
 20
269.8006756940231
 42
0.9999999789265744
 10
61.73138782535386
 20
261.8006756940231
 10
69.73138782535385
 20
261.8006756940231
 42
0.9999999131120491
  0
LWPOLYLINE
  5
56
100
AcDbEntity
  8
0
  6
ByLayer
 62
    0
370
   -1
100
AcDbPolyline
 90
   16
 70
    1
 43
0
 10
323.6267558253539
 20
309.8340166940231
 10
323.6267448253539
 20
294.8045786940231
 42
0.1989123175249986
 10
325.3840998253539
 20
290.5619366940231
 10
341.8693668253538
 20
274.0766456940232
 42
0.1989124853150002
 10
346.1120068253539
 20
272.3192806940231
 10
351.1414438253539
 20
272.3192776940231
 42
0.1989124853149981
 10
355.3840868253537
 20
274.076634694023
 10
371.869382825354
 20
290.5618976940231
 42
0.198912317491008
 10
373.6267448253539
 20
294.8045366940232
 10
373.6267568253539
 20
309.8339656940232
 42
0.1989123360569859
 10
371.8693978253539
 20
314.0766066940231
 10
355.3841148253539
 20
330.5618886940231
 42
0.1989123583080026
 10
351.1414748253538
 20
332.3192486940233
 10
346.1120378253539
 20
332.319248694023
 42
0.1989123583080027
 10
341.8693968253538
 20
330.5618896940231
 10
325.3841148253539
 20
314.0766066940232
 42
0.1989123360590036
  0
LWPOLYLINE
  5
57
100
AcDbEntity
  8
0
  6
ByLayer
 62
    0
370
   -1
100
AcDbPolyline
 90
  210
 70
    0
 43
0
 10
368.2809368253539
 20
375.3012586940231
 10
368.2808958253539
 20
375.8006466940232
 10
368.7809368253539
 20
375.8006466940232
 10
373.2653588253539
 20
375.8006466940232
 42
-0.2679491924309741
 10
373.6983708253539
 20
375.5506466940232
 42
1.303223041599939
 10
374.3813848253538
 20
376.2336576940231
 42
-0.2679482664649727
 10
374.1313868253538
 20
376.6666696940231
 10
374.1313868253538
 20
378.3006986940231
 42
-0.4142135623730284
 10
374.6313868253538
 20
378.8006986940231
 10
379.6313838253539
 20
378.8006986940231
 42
-0.4142135623730284
 10
380.1313838253539
 20
378.3006986940231
 10
380.1313808253539
 20
376.6666716940231
 42
-0.2679491924310519
 10
379.8813808253539
 20
376.2336586940231
 42
1.303223041599873
 10
380.564392825354
 20
375.5506446940232
 42
-0.2679482664649911
 10
380.9974048253538
 20
375.8006436940232
 10
386.1313698253539
 20
375.8006466940232
 10
386.1313698253539
 20
372.8006746940231
 10
384.8563758253538
 20
372.8006746940231
 10
384.8563758253538
 20
368.8006466940232
 10
386.1313698253539
 20
368.8006466940232
 10
386.1313698253539
 20
365.8006466940232
 10
389.3313808253538
 20
365.8006466940232
 10
389.3313808253538
 20
368.8006466940232
 10
390.6063758253538
 20
368.8006466940232
 10
390.6063758253538
 20
372.8006746940231
 10
389.3313808253538
 20
372.8006746940231
 10
389.3313808253538
 20
375.8006466940232
 10
394.4653748253539
 20
375.8006466940232
 42
-0.2679491924309698
 10
394.8983868253538
 20
375.5506466940232
 42
1.303223041600078
 10
395.5814008253539
 20
376.2336576940231
 42
-0.2679482664649632
 10
395.3314028253538
 20
376.6666696940231
 10
395.3314028253538
 20
378.3006986940231
 42
-0.4142135623730284
 10
395.8314028253538
 20
378.8006986940231
 10
400.8314008253539
 20
378.8006986940231
 42
-0.4142135623730284
 10
401.3314008253539
 20
378.3006986940231
 10
401.3313978253539
 20
376.6666716940231
 42
-0.2679491924310353
 10
401.0813978253539
 20
376.233658694023
 42
1.303223041601045
 10
401.7644088253539
 20
375.5506446940232
 42
-0.2679482804950102
 10
402.1974208253538
 20
375.8006436940232
 10
412.731384825354
 20
375.8006446940232
 10
412.731384825354
 20
370.8006446940232
 10
412.731384825354
 20
349.8006766940231
 10
410.731384825354
 20
347.8006726940231
 10
410.731384825354
 20
245.8006746940231
 10
402.1974208253538
 20
245.8006776940231
 42
-0.2679482664649933
 10
401.7644098253539
 20
246.0506756940231
 42
1.303223041599856
 10
401.0813978253537
 20
245.3676606940231
 42
-0.2679491924309684
 10
401.3313978253539
 20
244.9346486940232
 10
401.3314008253539
 20
29.30059169402313
 42
-0.4142135623730284
 10
400.8314008253539
 20
28.80059169402324
 10
395.8314028253538
 20
28.80059169402313
 42
-0.4142135623730284
 10
395.3314028253538
 20
29.30059169402313
 10
395.3314028253538
 20
30.93461969402313
 42
-0.2679482664649728
 10
395.5814008253539
 20
31.36763169402315
 42
1.303223029819919
 10
394.8983868253538
 20
32.05064369402322
 42
-0.2679491924309624
 10
394.4653748253539
 20
31.80064369402311
 10
389.3313808253538
 20
31.80064369402311
 10
389.3313808253538
 20
34.80061569402312
 10
390.6063758253538
 20
34.80061569402312
 10
390.6063758253538
 20
38.80064369402311
 10
389.3313808253538
 20
38.80064369402311
 10
389.3313808253538
 20
41.80064369402311
 10
386.1313698253539
 20
41.80064369402311
 10
386.1313698253539
 20
38.80064369402311
 10
384.8563758253538
 20
38.80064369402311
 10
384.8563758253538
 20
34.80061569402312
 10
386.1313698253539
 20
34.80061569402312
 10
386.1313698253539
 20
31.80064369402311
 10
380.9974048253538
 20
31.8006466940231
 42
-0.267948266465048
 10
380.564392825354
 20
32.05064469402311
 42
1.303223041599501
 10
379.8813808253539
 20
31.36762969402321
 42
-0.2679491924310128
 10
380.1313808253539
 20
30.93461769402313
 10
380.1313838253539
 20
29.30059169402313
 42
-0.4142135623730284
 10
379.6313838253539
 20
28.80059169402324
 10
374.6313868253538
 20
28.80059169402324
 42
-0.4142135623730451
 10
374.1313868253538
 20
29.3005806940231
 10
374.1313868253538
 20
244.9346506940232
 42
-0.2679482664649822
 10
374.3813848253538
 20
245.3676626940232
 42
1.303223041599705
 10
373.6983708253539
 20
246.0506746940233
 42
-0.2679491924310108
 10
373.2653588253539
 20
245.8006746940231
 10
352.1974208253538
 20
245.8006776940231
 42
-0.2679482664649933
 10
351.7644098253539
 20
246.0506756940231
 42
1.303223041599856
 10
351.0813978253537
 20
245.3676606940231
 42
-0.2679491924309684
 10
351.3313978253539
 20
244.9346486940232
 10
351.3314008253539
 20
243.3006226940232
 42
-0.4142135623730284
 10
350.8314008253539
 20
242.8006226940232
 10
345.8314028253538
 20
242.8006226940232
 42
-0.4142135623730284
 10
345.3314028253538
 20
243.3006226940232
 10
345.3314028253538
 20
244.9346506940232
 42
-0.2679482664649878
 10
345.5814008253539
 20
245.3676626940231
 42
1.303223041599741
 10
344.8983868253538
 20
246.0506746940233
 42
-0.2679491924310108
 10
344.4653748253539
 20
245.8006746940231
 10
339.3313808253538
 20
245.8006746940231
 10
339.3313808253538
 20
248.8006466940232
 10
340.6063758253538
 20
248.8006466940232
 10
340.6063758253538
 20
252.8006746940231
 10
339.3313808253538
 20
252.8006746940231
 10
339.3313808253538
 20
255.8006746940231
 10
336.1313698253539
 20
255.8006746940231
 10
336.1313698253539
 20
252.8006746940231
 10
334.8563758253538
 20
252.8006746940231
 10
334.8563758253538
 20
248.8006466940232
 10
336.1313698253539
 20
248.8006466940232
 10
336.1313698253539
 20
245.8006746940231
 10
330.9974048253538
 20
245.8006776940231
 42
-0.2679482664650137
 10
330.5643928253539
 20
246.0506756940231
 42
1.303223041599699
 10
329.8813808253537
 20
245.3676606940231
 42
-0.2679491924309722
 10
330.1313808253539
 20
244.9346486940232
 10
330.1313838253539
 20
243.3006226940232
 42
-0.4142135623730284
 10
329.6313838253539
 20
242.8006226940232
 10
324.6313868253538
 20
242.8006226940232
 42
-0.4142135623730284
 10
324.1313868253538
 20
243.3006226940232
 10
324.1313868253538
 20
244.9346506940232
 42
-0.2679482664649822
 10
324.3813848253538
 20
245.3676626940232
 42
1.303223041599705
 10
323.6983708253539
 20
246.0506746940233
 42
-0.2679491924310108
 10
323.2653588253539
 20
245.8006746940231
 10
232.1974168253538
 20
245.8006776940231
 42
-0.2679482664649961
 10
231.7644058253539
 20
246.0506756940231
 42
1.303223041599878
 10
231.081393825354
 20
245.3676606940231
 42
-0.2679491924309752
 10
231.331393825354
 20
244.9346486940232
 10
231.3313968253538
 20
243.3006226940232
 42
-0.4142135623730284
 10
230.8313968253538
 20
242.8006226940232
 10
225.8313988253538
 20
242.8006226940232
 42
-0.4142135623730284
 10
225.3313988253538
 20
243.3006226940232
 10
225.3313988253538
 20
244.9346506940232
 42
-0.2679482664649776
 10
225.5813968253538
 20
245.3676626940231
 42
1.303223041599872
 10
224.8983828253538
 20
246.0506746940233
 42
-0.2679491924310269
 10
224.4653708253539
 20
245.8006746940231
 10
219.3313768253538
 20
245.8006746940231
 10
219.3313768253538
 20
248.8006466940232
 10
220.6063718253538
 20
248.8006466940232
 10
220.6063718253538
 20
252.8006746940231
 10
219.3313768253538
 20
252.8006746940231
 10
219.3313768253538
 20
255.8006746940231
 10
216.1313658253539
 20
255.8006746940231
 10
216.1313658253539
 20
252.8006746940231
 10
214.8563718253538
 20
252.8006746940231
 10
214.8563718253538
 20
248.8006466940232
 10
216.1313658253539
 20
248.8006466940232
 10
216.1313658253539
 20
245.8006746940231
 10
210.9974008253538
 20
245.8006776940231
 42
-0.2679482664650009
 10
210.564389825354
 20
246.0506756940231
 42
1.303223041599818
 10
209.8813778253537
 20
245.367660694023
 42
-0.2679491924308504
 10
210.1313778253541
 20
244.9346486940232
 10
210.1313808253538
 20
243.3006226940232
 42
-0.4142135623730284
 10
209.6313808253538
 20
242.8006226940232
 10
204.6313828253538
 20
242.8006226940232
 42
-0.4142135623730284
 10
204.1313828253538
 20
243.3006226940232
 10
204.1313828253538
 20
244.9346506940232
 42
-0.2679482664649788
 10
204.3813808253538
 20
245.3676626940231
 42
1.303223041599866
 10
203.6983668253538
 20
246.0506746940233
 42
-0.2679491924310241
 10
203.265354825354
 20
245.8006746940231
 10
72.19742082535394
 20
245.8006776940231
 42
-0.2679482664650119
 10
71.76440882535384
 20
246.0506756940231
 42
1.303223041600046
 10
71.08139682535385
 20
245.3676606940231
 42
-0.2679491924309612
 10
71.33139682535385
 20
244.9346486940232
 10
71.33139982535386
 20
243.3006226940232
 42
-0.4142135623730284
 10
70.83139982535386
 20
242.8006226940232
 10
65.83140282535385
 20
242.8006226940232
 42
-0.4142135623730284
 10
65.33140282535385
 20
243.3006226940232
 10
65.33140282535385
 20
244.9346506940232
 42
-0.2679482664650009
 10
65.58140082535385
 20
245.3676626940231
 42
1.30322304160032
 10
64.89838682535385
 20
246.0506746940231
 42
-0.2679491924310091
 10
64.46537482535395
 20
245.8006746940231
 10
59.33138082535385
 20
245.8006746940231
 10
59.33138082535385
 20
248.8006466940232
 10
60.60637482535395
 20
248.8006466940232
 10
60.60637482535395
 20
252.8006746940231
 10
59.33138082535385
 20
252.8006746940231
 10
59.33138082535385
 20
255.8006746940231
 10
56.13136982535386
 20
255.8006746940231
 10
56.13136982535386
 20
252.8006746940231
 10
54.85637482535395
 20
252.8006746940231
 10
54.85637482535395
 20
248.8006466940232
 10
56.13136982535386
 20
248.8006466940232
 10
56.13136982535386
 20
245.8006746940231
 10
50.99740482535395
 20
245.8006776940231
 42
-0.26794826646502
 10
50.56439282535393
 20
246.0506756940231
 42
1.303223041599742
 10
49.88138082535386
 20
245.3676606940231
 42
-0.2679491924309707
 10
50.13138082535386
 20
244.9346486940232
 10
50.13138382535396
 20
243.3006226940232
 42
-0.4142135623730284
 10
49.63138382535396
 20
242.8006226940232
 10
44.63138682535384
 20
242.8006226940232
 42
-0.4142135623730284
 10
44.13138682535396
 20
243.3006226940232
 10
44.13138682535384
 20
244.9346506940232
 42
-0.2679482664650009
 10
44.38138482535385
 20
245.3676626940231
 42
1.303223041600621
 10
43.69836982535395
 20
246.0506746940231
 42
-0.2679491924309996
 10
43.26535782535385
 20
245.8006746940231
 10
32.73135782535394
 20
245.8006746940231
 10
32.73135782535394
 20
256.4506736940231
 10
34.96540482535386
 20
256.4506736940231
 42
-0.2679491924310203
 10
35.39841682535396
 20
256.2006736940231
 42
1.303223029819944
 10
36.08143082535386
 20
256.8836856940234
 42
-0.2679482664649848
 10
35.83143282535386
 20
257.3166976940232
 10
35.83142982535395
 20
264.8506686940232
 10
38.83140182535396
 20
264.8506686940232
 10
38.83140182535396
 20
263.5756736940231
 10
42.83142982535395
 20
263.5756736940231
 10
42.83142982535395
 20
264.8506686940232
 10
45.83142982535395
 20
264.8506686940232
 10
45.83142982535395
 20
268.0506796940231
 10
42.83142982535395
 20
268.0506796940231
 10
42.83142982535395
 20
269.3256736940231
 10
38.83140182535396
 20
269.3256736940231
 10
38.83140182535396
 20
268.0506796940231
 10
35.83142982535395
 20
268.0506796940231
 10
35.83142982535395
 20
276.7988366940231
 10
367.9208738253539
 20
373.3799976940231
 42
0.333369824243934
 10
368.2809368253539
 20
373.8600166940232
 10
368.2809368253539
 20
375.3006466940232
  0
CIRCLE
  5
58
100
AcDbEntity
  8
0
  6
ByLayer
 62
    0
370
   -1
100
AcDbCircle
 10
371.5783148253539
 20
346.2217646940231
 40
1.6
  0
CIRCLE
  5
59
100
AcDbEntity
  8
0
  6
ByLayer
 62
    0
370
   -1
100
AcDbCircle
 10
371.5595038253539
 20
263.0217646940231
 40
1.6
  0
CIRCLE
  5
5A
100
AcDbEntity
  8
0
  6
ByLayer
 62
    0
370
   -1
100
AcDbCircle
 10
323.3813148253539
 20
340.0217646940231
 40
1.6
  0
CIRCLE
  5
5B
100
AcDbEntity
  8
0
  6
ByLayer
 62
    0
370
   -1
100
AcDbCircle
 10
323.3625038253539
 20
265.5217646940231
 40
1.6
  0
LWPOLYLINE
  5
5C
100
AcDbEntity
  8
0
  6
ByLayer
 62
    0
370
   -1
100
AcDbPolyline
 90
   16
 70
    1
 43
0
 10
386.0814138253539
 20
98.97621469402529
 10
386.0814168253539
 20
103.4441646940253
 42
0.2679491924310068
 10
385.8314168253539
 20
103.8771766940253
 42
-1.303223041600176
 10
386.5144288253539
 20
104.5601906940252
 42
0.2679482664650413
 10
386.9474408253539
 20
104.3101926940254
 10
388.5153078253539
 20
104.3101896940253
 42
0.2679491924309698
 10
388.9483208253538
 20
104.5601896940253
 42
-1.303223041599658
 10
389.6313348253539
 20
103.8771786940253
 42
0.2679482664649916
 10
389.3813368253539
 20
103.4441666940253
 10
389.3813368253539
 20
98.97621669402528
 42
0.2679491924310006
 10
389.6313368253539
 20
98.54320369402529
 42
-1.303223041599806
 10
388.9483248253538
 20
97.86018969402528
 42
0.26794826646488
 10
388.5153128253539
 20
98.11018869402528
 10
386.9474428253538
 20
98.1101916940253
 42
0.2679491924310232
 10
386.5144288253539
 20
97.86019169402539
 42
-1.3032230416001
 10
385.8314148253539
 20
98.54320269402538
 42
0.2679482617889916
  0
LWPOLYLINE
  5
5D
100
AcDbEntity
  8
0
  6
ByLayer
 62
    0
370
   -1
100
AcDbPolyline
 90
   16
 70
    1
 43
0
 10
386.9474428253538
 20
76.91019169402529
 42
0.267949192430981
 10
386.5144288253539
 20
76.66019169402529
 42
-1.303223041600238
 10
385.8314148253539
 20
77.34320369402528
 42
0.2679482664649976
 10
386.0814138253539
 20
77.7762156940253
 10
386.0814168253539
 20
82.2441656940253
 42
0.2679491924309935
 10
385.8314168253539
 20
82.67717769402529
 42
-1.303223041600153
 10
386.5144288253539
 20
83.3601916940253
 42
0.2679482664650085
 10
386.9474408253539
 20
83.1101936940253
 10
388.5153078253539
 20
83.11019069402528
 42
0.2679491924309684
 10
388.9483208253538
 20
83.36019069402528
 42
-1.303223041599943
 10
389.6313348253539
 20
82.67717869402529
 42
0.2679482664650123
 10
389.3813368253539
 20
82.2441666940253
 10
389.3813368253539
 20
77.77621769402529
 42
0.2679491924309948
 10
389.6313368253539
 20
77.34320369402528
 42
-1.303223041600048
 10
388.9483248253538
 20
76.66018969402529
 42
0.267948266464948
 10
388.5153128253539
 20
76.91018869402529
  0
CIRCLE
  5
5E
100
AcDbEntity
  8
0
  6
ByLayer
 62
    0
370
   -1
100
AcDbCircle
 10
387.7313748253538
 20
90.61019069402528
 40
1.6
  0
LWPOLYLINE
  5
5F
100
AcDbEntity
  8
0
  6
ByLayer
 62
    0
370
   -1
100
AcDbPolyline
 90
   16
 70
    1
 43
0
 10
388.9483208253538
 20
176.741022694021
 42
-1.303223041600177
 10
389.6313348253539
 20
176.0580106940209
 42
0.2679482664649874
 10
389.3813368253539
 20
175.6249986940209
 10
389.3813368253539
 20
171.1570496940209
 42
0.2679491924310058
 10
389.6313368253539
 20
170.724035694021
 42
-1.303223041600015
 10
388.9483248253538
 20
170.0410216940209
 42
0.267948266464948
 10
388.5153128253539
 20
170.2910206940209
 10
386.9474428253538
 20
170.2910236940209
 42
0.267949192430981
 10
386.5144288253539
 20
170.0410236940209
 42
-1.303223041600258
 10
385.8314148253539
 20
170.724035694021
 42
0.2679482664649956
 10
386.0814138253539
 20
171.1570476940209
 10
386.0814168253539
 20
175.6249976940209
 42
0.2679491924310011
 10
385.8314168253539
 20
176.0580096940209
 42
-1.303223041600385
 10
386.5144288253539
 20
176.7410236940208
 42
0.267948266465058
 10
386.9474408253539
 20
176.4910256940209
 10
388.5153078253539
 20
176.491022694021
 42
0.2679491924309684
  0
LWPOLYLINE
  5
60
100
AcDbEntity
  8
0
  6
ByLayer
 62
    0
370
   -1
100
AcDbPolyline
 90
   16
 70
    1
 43
0
 10
385.8314168253539
 20
197.2580086940209
 42
-1.303223041600216
 10
386.5144288253538
 20
197.9410226940209
 42
0.2679482664650618
 10
386.9474408253539
 20
197.6910246940209
 10
388.5153078253539
 20
197.6910216940209
 42
0.2679491924309698
 10
388.9483208253538
 20
197.9410216940209
 42
-1.30322304159992
 10
389.6313348253539
 20
197.2580106940209
 42
0.2679482664650069
 10
389.3813368253539
 20
196.824998694021
 10
389.3813368253539
 20
192.357048694021
 42
0.2679491924309949
 10
389.6313368253539
 20
191.9240356940209
 42
-1.303223041600048
 10
388.9483248253538
 20
191.241021694021
 42
0.267948266464948
 10
388.5153128253539
 20
191.491020694021
 10
386.9474428253538
 20
191.491023694021
 42
0.267949192430981
 10
386.5144288253539
 20
191.241023694021
 42
-1.303223041600209
 10
385.8314148253539
 20
191.9240346940209
 42
0.2679482617889956
 10
386.0814138253539
 20
192.3570466940209
 10
386.0814168253539
 20
196.824996694021
 42
0.2679491924310106
  0
CIRCLE
  5
61
100
AcDbEntity
  8
0
  6
ByLayer
 62
    0
370
   -1
100
AcDbCircle
 10
387.7313748253538
 20
183.991022694021
 40
1.6
  0
ENDSEC
  0
SECTION
  2
OBJECTS
  0
DICTIONARY
  5
C
330
0
100
AcDbDictionary
281
    1
  3
ACAD_GROUP
350
D
  0
DICTIONARY
  5
D
330
C
100
AcDbDictionary
281
    1
  0
ENDSEC
  0
EOF
