999
dxfrw 0.6.3
  0
SECTION
  2
HEADER
  9
$ACADVER
  1
AC1021
  9
$DWGCODEPAGE
  3
ANSI_1252
  9
$INSBASE
 10
0
 20
0
 30
0
  9
$EXTMIN
 10
-157.2972001000327
 20
-293.2136005423179
 30
0
  9
$EXTMAX
 10
222.7028268999673
 20
56.78650645771222
 30
0
  9
$LIMMIN
 10
0
 20
0
  9
$LIMMAX
 10
420
 20
297
  9
$ORTHOMODE
 70
    0
  9
$REGENMODE
 70
    1
  9
$FILLMODE
 70
    1
  9
$QTEXTMODE
 70
    0
  9
$MIRRTEXT
 70
    0
  9
$LTSCALE
 40
1
  9
$ATTMODE
 70
    0
  9
$TEXTSIZE
 40
2.5
  9
$TRACEWID
 40
15.68
  9
$TEXTSTYLE
  7
STANDARD
  9
$CLAYER
  8
0
  9
$CELTYPE
  6
BYLAYER
  9
$CECOLOR
 62
  256
  9
$CELTSCALE
 40
1
  9
$DISPSILH
 70
    0
  9
$DIMSCALE
 40
2.5
  9
$DIMASZ
 40
2.5
  9
$DIMEXO
 40
0.625
  9
$DIMDLI
 40
3.75
  9
$DIMRND
 40
0
  9
$DIMDLE
 40
0
  9
$DIMEXE
 40
1.25
  9
$DIMTP
 40
0
  9
$DIMTM
 40
0
  9
$DIMTXT
 40
2.5
  9
$DIMCEN
 40
2.5
  9
$DIMTSZ
 40
0
  9
$DIMTOL
 70
    0
  9
$DIMLIM
 70
    0
  9
$DIMTIH
 70
    0
  9
$DIMTOH
 70
    0
  9
$DIMSE1
 70
    0
  9
$DIMSE2
 70
    0
  9
$DIMTAD
 70
    1
  9
$DIMZIN
 70
    8
  9
$DIMBLK
  1

  9
$DIMASO
 70
    1
  9
$DIMSHO
 70
    1
  9
$DIMPOST
  1

  9
$DIMAPOST
  1

  9
$DIMALT
 70
    0
  9
$DIMALTD
 70
    3
  9
$DIMALTF
 40
0.03937
  9
$DIMLFAC
 40
1
  9
$DIMTOFL
 70
    1
  9
$DIMTVP
 40
0
  9
$DIMTIX
 70
    0
  9
$DIMSOXD
 70
    0
  9
$DIMSAH
 70
    0
  9
$DIMBLK1
  1

  9
$DIMBLK2
  1

  9
$DIMSTYLE
  2
STANDARD
  9
$DIMCLRD
 70
    0
  9
$DIMCLRE
 70
    0
  9
$DIMCLRT
 70
    0
  9
$DIMTFAC
 40
1
  9
$DIMGAP
 40
0.625
  9
$DIMJUST
 70
    0
  9
$DIMSD1
 70
    0
  9
$DIMSD2
 70
    0
  9
$DIMTOLJ
 70
    0
  9
$DIMTZIN
 70
    8
  9
$DIMALTZ
 70
    0
  9
$DIMALTTZ
 70
    0
  9
$DIMUPT
 70
    0
  9
$DIMDEC
 70
    2
  9
$DIMTDEC
 70
    2
  9
$DIMALTU
 70
    2
  9
$DIMALTTD
 70
    3
  9
$DIMTXSTY
  7
STANDARD
  9
$DIMAUNIT
 70
    0
  9
$DIMADEC
 70
    0
  9
$DIMALTRND
 40
0
  9
$DIMAZIN
 70
    0
  9
$DIMDSEP
 70
   44
  9
$DIMATFIT
 70
    3
  9
$DIMFRAC
 70
    0
  9
$DIMLDRBLK
  1
STANDARD
  9
$DIMLUNIT
 70
    2
  9
$DIMLWD
 70
   -2
  9
$DIMLWE
 70
   -2
  9
$DIMTMOVE
 70
    0
  9
$DIMFXL
 40
1
  9
$DIMFXLON
 70
    0
  9
$DIMJOGANG
 40
0.7854
  9
$DIMTFILL
 70
    0
  9
$DIMTFILLCLR
 70
    0
  9
$DIMARCSYM
 70
    0
  9
$DIMLTYPE
  6

  9
$DIMLTEX1
  6

  9
$DIMLTEX2
  6

  9
$LUNITS
 70
    2
  9
$LUPREC
 70
    4
  9
$SKETCHINC
 40
1
  9
$FILLETRAD
 40
0
  9
$AUNITS
 70
    0
  9
$AUPREC
 70
    2
  9
$MENU
  1
.
  9
$ELEVATION
 40
0
  9
$PELEVATION
 40
0
  9
$THICKNESS
 40
0
  9
$LIMCHECK
 70
    0
  9
$CHAMFERA
 40
0
  9
$CHAMFERB
 40
0
  9
$CHAMFERC
 40
0
  9
$CHAMFERD
 40
0
  9
$SKPOLY
 70
    0
  9
$USRTIMER
 70
    1
  9
$ANGBASE
 50
0
  9
$ANGDIR
 70
    0
  9
$PDMODE
 70
   34
  9
$PDSIZE
 40
0
  9
$PLINEWID
 40
0
  9
$SPLFRAME
 70
    0
  9
$SPLINETYPE
 70
    2
  9
$SPLINESEGS
 70
    8
  9
$HANDSEED
  5
20000
  9
$SURFTAB1
 70
    6
  9
$SURFTAB2
 70
    6
  9
$SURFTYPE
 70
    6
  9
$SURFU
 70
    6
  9
$SURFV
 70
    6
  9
$UCSBASE
  2

  9
$UCSNAME
  2

  9
$UCSORG
 10
0
 20
0
 30
0
  9
$UCSXDIR
 10
1
 20
0
 30
0
  9
$UCSYDIR
 10
0
 20
1
 30
0
  9
$UCSORTHOREF
  2

  9
$UCSORTHOVIEW
 70
    0
  9
$UCSORGTOP
 10
0
 20
0
 30
0
  9
$UCSORGBOTTOM
 10
0
 20
0
 30
0
  9
$UCSORGLEFT
 10
0
 20
0
 30
0
  9
$UCSORGRIGHT
 10
0
 20
0
 30
0
  9
$UCSORGFRONT
 10
0
 20
0
 30
0
  9
$UCSORGBACK
 10
0
 20
0
 30
0
  9
$PUCSBASE
  2

  9
$PUCSNAME
  2

  9
$PUCSORG
 10
0
 20
0
 30
0
  9
$PUCSXDIR
 10
1
 20
0
 30
0
  9
$PUCSYDIR
 10
0
 20
1
 30
0
  9
$PUCSORTHOREF
  2

  9
$PUCSORTHOVIEW
 70
    0
  9
$PUCSORGTOP
 10
0
 20
0
 30
0
  9
$PUCSORGBOTTOM
 10
0
 20
0
 30
0
  9
$PUCSORGLEFT
 10
0
 20
0
 30
0
  9
$PUCSORGRIGHT
 10
0
 20
0
 30
0
  9
$PUCSORGFRONT
 10
0
 20
0
 30
0
  9
$PUCSORGBACK
 10
0
 20
0
 30
0
  9
$USERI1
 70
    0
  9
$USERI2
 70
    0
  9
$USERI3
 70
    0
  9
$USERI4
 70
    0
  9
$USERI5
 70
    0
  9
$USERR1
 40
0
  9
$USERR2
 40
0
  9
$USERR3
 40
0
  9
$USERR4
 40
0
  9
$USERR5
 40
0
  9
$WORLDVIEW
 70
    1
  9
$SHADEDGE
 70
    3
  9
$SHADEDIF
 70
   70
  9
$TILEMODE
 70
    1
  9
$MAXACTVP
 70
   64
  9
$PINSBASE
 10
0
 20
0
 30
0
  9
$PLIMCHECK
 70
    0
  9
$PEXTMIN
 10
0
 20
0
 30
0
  9
$PEXTMAX
 10
0
 20
0
 30
0
  9
$GRIDMODE
 70
    1
  9
$SNAPSTYLE
 70
    0
  9
$PLIMMIN
 10
0
 20
0
  9
$PLIMMAX
 10
420
 20
297
  9
$UNITMODE
 70
    0
  9
$VISRETAIN
 70
    1
  9
$PLINEGEN
 70
    0
  9
$PSLTSCALE
 70
    1
  9
$TREEDEPTH
 70
 3020
  9
$CMLSTYLE
  2
Standard
  9
$CMLJUST
 70
    0
  9
$CMLSCALE
 40
20
  9
$PROXYGRAPHICS
 70
    1
  9
$MEASUREMENT
 70
    1
  9
$CELWEIGHT
370
   -1
  9
$ENDCAPS
280
    0
  9
$JOINSTYLE
280
    0
  9
$LWDISPLAY
290
    0
  9
$INSUNITS
 70
    0
  9
$HYPERLINKBASE
  1

  9
$STYLESHEET
  1

  9
$XEDIT
290
    1
  9
$CEPSNTYPE
380
    0
  9
$PSTYLEMODE
290
    1
  9
$EXTNAMES
290
    1
  9
$PSVPSCALE
 40
1
  9
$OLESTARTUP
290
    0
  9
$SORTENTS
280
  127
  9
$INDEXCTL
280
    0
  9
$HIDETEXT
280
    1
  9
$XCLIPFRAME
290
    0
  9
$HALOGAP
280
    0
  9
$OBSCOLOR
 70
  257
  9
$OBSLTYPE
280
    0
  9
$INTERSECTIONDISPLAY
280
    0
  9
$INTERSECTIONCOLOR
 70
  257
  9
$DIMASSOC
280
    1
  9
$PROJECTNAME
  1

  9
$CAMERADISPLAY
290
    0
  9
$LENSLENGTH
 40
50
  9
$CAMERAHEIGHT
 40
0
  9
$STEPSPERSEC
 40
2
  9
$STEPSIZE
 40
50
  9
$3DDWFPREC
 40
2
  9
$PSOLWIDTH
 40
5
  9
$PSOLHEIGHT
 40
80
  9
$LOFTANG1
 40
1.570796326794897
  9
$LOFTANG2
 40
1.570796326794897
  9
$LOFTMAG1
 40
0
  9
$LOFTMAG2
 40
0
  9
$LOFTPARAM
 70
    7
  9
$LOFTNORMALS
280
    1
  9
$LATITUDE
 40
1
  9
$LONGITUDE
 40
1
  9
$NORTHDIRECTION
 40
0
  9
$TIMEZONE
 70
-8000
  9
$LIGHTGLYPHDISPLAY
280
    1
  9
$TILEMODELIGHTSYNCH
280
    1
  9
$SOLIDHIST
280
    1
  9
$SHOWHIST
280
    1
  9
$DWFFRAME
280
    2
  9
$DGNFRAME
280
    0
  9
$REALWORLDSCALE
290
    1
  9
$INTERFERECOLOR
 62
    1
  9
$CSHADOW
280
    0
  9
$SHADOWPLANELOCATION
 40
0
  0
ENDSEC
  0
SECTION
  2
CLASSES
  0
ENDSEC
  0
SECTION
  2
TABLES
  0
TABLE
  2
VPORT
  5
8
330
0
100
AcDbSymbolTable
 70
    1
  0
VPORT
  5
31
330
2
100
AcDbSymbolTableRecord
100
AcDbViewportTableRecord
  2
*ACTIVE
 70
    0
 10
0
 20
0
 11
1
 21
1
 12
247.7537764756861
 22
14.78636597003432
 13
0
 23
0
 14
10
 24
10
 15
10
 25
10
 16
0
 26
0
 36
1
 17
0
 27
0
 37
0
 40
469.8778519366461
 41
1.853146853146853
 42
50
 43
0
 44
0
 50
0
 51
0
 71
    0
 72
  100
 73
    1
 74
    3
 75
    0
 76
    1
 77
    0
 78
    0
281
    0
 65
    1
110
0
120
0
130
0
111
1
121
0
131
0
112
0
122
1
132
0
 79
    0
146
0
348
10020
 60
    7
 61
    5
292
1
282
    1
141
0
142
0
 63
  250
421
3358443
  0
ENDTAB
  0
TABLE
  2
LTYPE
  5
5
330
0
100
AcDbSymbolTable
 70
    4
  0
LTYPE
  5
14
330
5
100
AcDbSymbolTableRecord
100
AcDbLinetypeTableRecord
  2
ByBlock
 70
    0
  3

 72
   65
 73
    0
 40
0
  0
LTYPE
  5
15
330
5
100
AcDbSymbolTableRecord
100
AcDbLinetypeTableRecord
  2
ByLayer
 70
    0
  3

 72
   65
 73
    0
 40
0
  0
LTYPE
  5
16
330
5
100
AcDbSymbolTableRecord
100
AcDbLinetypeTableRecord
  2
Continuous
 70
    0
  3
Solid line
 72
   65
 73
    0
 40
0
  0
LTYPE
  5
32
330
5
100
AcDbSymbolTableRecord
100
AcDbLinetypeTableRecord
  2
DOT
 70
    0
  3
Dot . . . . . . . . . . . . . . . . . . . . . .
 72
   65
 73
    2
 40
6.35
 49
0
 74
    0
 49
-6.35
 74
    0
  0
LTYPE
  5
33
330
5
100
AcDbSymbolTableRecord
100
AcDbLinetypeTableRecord
  2
DOTTINY
 70
    0
  3
Dot (.15x) .....................................
 72
   65
 73
    2
 40
0.9525
 49
0
 74
    0
 49
-0.9525
 74
    0
  0
LTYPE
  5
34
330
5
100
AcDbSymbolTableRecord
100
AcDbLinetypeTableRecord
  2
DOT2
 70
    0
  3
Dot (.5x) .....................................
 72
   65
 73
    2
 40
3.175
 49
0
 74
    0
 49
-3.175
 74
    0
  0
LTYPE
  5
35
330
5
100
AcDbSymbolTableRecord
100
AcDbLinetypeTableRecord
  2
DOTX2
 70
    0
  3
Dot (2x) .  .  .  .  .  .  .  .  .  .  .  .  .
 72
   65
 73
    2
 40
12.7
 49
0
 74
    0
 49
-12.7
 74
    0
  0
LTYPE
  5
36
330
5
100
AcDbSymbolTableRecord
100
AcDbLinetypeTableRecord
  2
DASHED
 70
    0
  3
Dashed _ _ _ _ _ _ _ _ _ _ _ _ _ _ _ _ _
 72
   65
 73
    2
 40
19.05
 49
12.7
 74
    0
 49
-6.35
 74
    0
  0
LTYPE
  5
37
330
5
100
AcDbSymbolTableRecord
100
AcDbLinetypeTableRecord
  2
DASHEDTINY
 70
    0
  3
Dashed (.15x) _ _ _ _ _ _ _ _ _ _ _ _ _ _ _ _ _
 72
   65
 73
    2
 40
2.8575
 49
1.905
 74
    0
 49
-0.9525
 74
    0
  0
LTYPE
  5
38
330
5
100
AcDbSymbolTableRecord
100
AcDbLinetypeTableRecord
  2
DASHED2
 70
    0
  3
Dashed (.5x) _ _ _ _ _ _ _ _ _ _ _ _ _ _ _ _ _
 72
   65
 73
    2
 40
9.524999999999999
 49
6.35
 74
    0
 49
-3.175
 74
    0
  0
LTYPE
  5
39
330
5
100
AcDbSymbolTableRecord
100
AcDbLinetypeTableRecord
  2
DASHEDX2
 70
    0
  3
Dashed (2x) ____  ____  ____  ____  ____  ___
 72
   65
 73
    2
 40
38.09999999999999
 49
25.4
 74
    0
 49
-12.7
 74
    0
  0
LTYPE
  5
3A
330
5
100
AcDbSymbolTableRecord
100
AcDbLinetypeTableRecord
  2
DASHDOT
 70
    0
  3
Dash dot __ . __ . __ . __ . __ . __ . __ . __
 72
   65
 73
    4
 40
25.4
 49
12.7
 74
    0
 49
-6.35
 74
    0
 49
0
 74
    0
 49
-6.35
 74
    0
  0
LTYPE
  5
3B
330
5
100
AcDbSymbolTableRecord
100
AcDbLinetypeTableRecord
  2
DASHDOTTINY
 70
    0
  3
Dash dot (.15x) _._._._._._._._._._._._._._._.
 72
   65
 73
    4
 40
3.81
 49
1.905
 74
    0
 49
-0.9525
 74
    0
 49
0
 74
    0
 49
-0.9525
 74
    0
  0
LTYPE
  5
3C
330
5
100
AcDbSymbolTableRecord
100
AcDbLinetypeTableRecord
  2
DASHDOT2
 70
    0
  3
Dash dot (.5x) _._._._._._._._._._._._._._._.
 72
   65
 73
    4
 40
12.7
 49
6.35
 74
    0
 49
-3.175
 74
    0
 49
0
 74
    0
 49
-3.175
 74
    0
  0
LTYPE
  5
3D
330
5
100
AcDbSymbolTableRecord
100
AcDbLinetypeTableRecord
  2
DASHDOTX2
 70
    0
  3
Dash dot (2x) ____  .  ____  .  ____  .  ___
 72
   65
 73
    4
 40
50.8
 49
25.4
 74
    0
 49
-12.7
 74
    0
 49
0
 74
    0
 49
-12.7
 74
    0
  0
LTYPE
  5
3E
330
5
100
AcDbSymbolTableRecord
100
AcDbLinetypeTableRecord
  2
DIVIDE
 70
    0
  3
Divide ____ . . ____ . . ____ . . ____ . . ____
 72
   65
 73
    6
 40
31.75
 49
12.7
 74
    0
 49
-6.35
 74
    0
 49
0
 74
    0
 49
-6.35
 74
    0
 49
0
 74
    0
 49
-6.35
 74
    0
  0
LTYPE
  5
3F
330
5
100
AcDbSymbolTableRecord
100
AcDbLinetypeTableRecord
  2
DIVIDETINY
 70
    0
  3
Divide (.15x) __..__..__..__..__..__..__..__.._
 72
   65
 73
    6
 40
4.7625
 49
1.905
 74
    0
 49
-0.9525
 74
    0
 49
0
 74
    0
 49
-0.9525
 74
    0
 49
0
 74
    0
 49
-0.9525
 74
    0
  0
LTYPE
  5
40
330
5
100
AcDbSymbolTableRecord
100
AcDbLinetypeTableRecord
  2
DIVIDE2
 70
    0
  3
Divide (.5x) __..__..__..__..__..__..__..__.._
 72
   65
 73
    6
 40
15.875
 49
6.35
 74
    0
 49
-3.175
 74
    0
 49
0
 74
    0
 49
-3.175
 74
    0
 49
0
 74
    0
 49
-3.175
 74
    0
  0
LTYPE
  5
41
330
5
100
AcDbSymbolTableRecord
100
AcDbLinetypeTableRecord
  2
DIVIDEX2
 70
    0
  3
Divide (2x) ________  .  .  ________  .  .  _
 72
   65
 73
    6
 40
63.5
 49
25.4
 74
    0
 49
-12.7
 74
    0
 49
0
 74
    0
 49
-12.7
 74
    0
 49
0
 74
    0
 49
-12.7
 74
    0
  0
LTYPE
  5
42
330
5
100
AcDbSymbolTableRecord
100
AcDbLinetypeTableRecord
  2
BORDER
 70
    0
  3
Border __ __ . __ __ . __ __ . __ __ . __ __ .
 72
   65
 73
    6
 40
44.45
 49
12.7
 74
    0
 49
-6.35
 74
    0
 49
12.7
 74
    0
 49
-6.35
 74
    0
 49
0
 74
    0
 49
-6.35
 74
    0
  0
LTYPE
  5
43
330
5
100
AcDbSymbolTableRecord
100
AcDbLinetypeTableRecord
  2
BORDERTINY
 70
    0
  3
Border (.15x) __.__.__.__.__.__.__.__.__.__.__.
 72
   65
 73
    6
 40
6.6675
 49
1.905
 74
    0
 49
-0.9525
 74
    0
 49
1.905
 74
    0
 49
-0.9525
 74
    0
 49
0
 74
    0
 49
-0.9525
 74
    0
  0
LTYPE
  5
44
330
5
100
AcDbSymbolTableRecord
100
AcDbLinetypeTableRecord
  2
BORDER2
 70
    0
  3
Border (.5x) __.__.__.__.__.__.__.__.__.__.__.
 72
   65
 73
    6
 40
22.225
 49
6.35
 74
    0
 49
-3.175
 74
    0
 49
6.35
 74
    0
 49
-3.175
 74
    0
 49
0
 74
    0
 49
-3.175
 74
    0
  0
LTYPE
  5
45
330
5
100
AcDbSymbolTableRecord
100
AcDbLinetypeTableRecord
  2
BORDERX2
 70
    0
  3
Border (2x) ____  ____  .  ____  ____  .  ___
 72
   65
 73
    6
 40
88.89999999999999
 49
25.4
 74
    0
 49
-12.7
 74
    0
 49
25.4
 74
    0
 49
-12.7
 74
    0
 49
0
 74
    0
 49
-12.7
 74
    0
  0
LTYPE
  5
46
330
5
100
AcDbSymbolTableRecord
100
AcDbLinetypeTableRecord
  2
CENTER
 70
    0
  3
Center ____ _ ____ _ ____ _ ____ _ ____ _ ____
 72
   65
 73
    4
 40
50.8
 49
31.75
 74
    0
 49
-6.35
 74
    0
 49
6.35
 74
    0
 49
-6.35
 74
    0
  0
LTYPE
  5
47
330
5
100
AcDbSymbolTableRecord
100
AcDbLinetypeTableRecord
  2
CENTERTINY
 70
    0
  3
Center (.15x) ___ _ ___ _ ___ _ ___ _ ___ _ ___
 72
   65
 73
    4
 40
7.619999999999999
 49
4.7625
 74
    0
 49
-0.9525
 74
    0
 49
0.9525
 74
    0
 49
-0.9525
 74
    0
  0
LTYPE
  5
48
330
5
100
AcDbSymbolTableRecord
100
AcDbLinetypeTableRecord
  2
CENTER2
 70
    0
  3
Center (.5x) ___ _ ___ _ ___ _ ___ _ ___ _ ___
 72
   65
 73
    4
 40
28.575
 49
19.05
 74
    0
 49
-3.175
 74
    0
 49
3.175
 74
    0
 49
-3.175
 74
    0
  0
LTYPE
  5
49
330
5
100
AcDbSymbolTableRecord
100
AcDbLinetypeTableRecord
  2
CENTERX2
 70
    0
  3
Center (2x) ________  __  ________  __  _____
 72
   65
 73
    4
 40
101.6
 49
63.5
 74
    0
 49
-12.7
 74
    0
 49
12.7
 74
    0
 49
-12.7
 74
    0
  0
ENDTAB
  0
TABLE
  2
LAYER
  5
2
330
0
100
AcDbSymbolTable
 70
    1
  0
LAYER
  5
10
330
2
100
AcDbSymbolTableRecord
100
AcDbLayerTableRecord
  2
0
 70
    0
 62
    7
  6
CONTINUOUS
370
   -3
390
F
  0
ENDTAB
  0
TABLE
  2
STYLE
  5
3
330
0
100
AcDbSymbolTable
 70
    3
  0
STYLE
  5
4A
330
2
100
AcDbSymbolTableRecord
100
AcDbTextStyleTableRecord
  2
Standard
 70
    0
 40
0
 41
1
 50
0
 71
    0
 42
1
  3
txt
  4

  0
ENDTAB
  0
TABLE
  2
VIEW
  5
6
330
0
100
AcDbSymbolTable
 70
    0
  0
ENDTAB
  0
TABLE
  2
UCS
  5
7
330
0
100
AcDbSymbolTable
 70
    0
  0
ENDTAB
  0
TABLE
  2
APPID
  5
9
330
0
100
AcDbSymbolTable
 70
    1
  0
APPID
  5
12
330
9
100
AcDbSymbolTableRecord
100
AcDbRegAppTableRecord
  2
ACAD
 70
    0
  0
APPID
  5
4B
330
9
100
AcDbSymbolTableRecord
100
AcDbRegAppTableRecord
  2
LibreCad
 70
    0
  0
ENDTAB
  0
TABLE
  2
DIMSTYLE
  5
A
330
0
100
AcDbSymbolTable
 70
    1
100
AcDbDimStyleTable
 71
    1
  0
DIMSTYLE
105
4C
330
A
100
AcDbSymbolTableRecord
100
AcDbDimStyleTableRecord
  2
Standard
 70
    0
 40
2.5
 41
2.5
 42
0.625
 43
0.38
 44
1.25
 45
0
 46
0
 47
0
 48
0
 49
1
140
2.5
141
0.09
142
0
143
25.4
144
1
145
0
146
1
147
0.625
148
0
 71
    0
 72
    0
 73
    0
 74
    1
 75
    0
 76
    0
 77
    0
 78
    8
 79
    0
170
    0
171
    2
172
    0
173
    0
174
    0
175
    0
176
    0
177
    0
178
    0
179
    0
271
    2
272
    4
273
    2
274
    2
275
    0
276
    0
277
    2
278
   44
279
    0
280
    0
281
    0
282
    0
283
    1
284
    0
285
    0
286
    0
288
    0
289
    3
340
STANDARD
341

371
   -2
372
   -2
  0
ENDTAB
  0
TABLE
  2
BLOCK_RECORD
  5
1
330
0
100
AcDbSymbolTable
 70
    2
  0
BLOCK_RECORD
  5
1F
330
1
100
AcDbSymbolTableRecord
100
AcDbBlockTableRecord
  2
*Model_Space
 70
    0
280
    1
281
    0
  0
BLOCK_RECORD
  5
1E
330
1
100
AcDbSymbolTableRecord
100
AcDbBlockTableRecord
  2
*Paper_Space
 70
    0
280
    1
281
    0
  0
ENDTAB
  0
ENDSEC
  0
SECTION
  2
BLOCKS
  0
BLOCK
  5
20
330
1F
100
AcDbEntity
  8
0
100
AcDbBlockBegin
  2
*Model_Space
 70
    0
 10
0
 20
0
 30
0
  3
*Model_Space
  1

  0
ENDBLK
  5
21
330
1F
100
AcDbEntity
  8
0
100
AcDbBlockEnd
  0
BLOCK
  5
1C
330
1B
100
AcDbEntity
  8
0
100
AcDbBlockBegin
  2
*Paper_Space
 70
    0
 10
0
 20
0
 30
0
  3
*Paper_Space
  1

  0
ENDBLK
  5
1D
330
1F
100
AcDbEntity
  8
0
100
AcDbBlockEnd
  0
ENDSEC
  0
SECTION
  2
ENTITIES
  0
LWPOLYLINE
  5
4D
100
AcDbEntity
  8
0
  6
ByLayer
 62
    0
370
   -1
100
AcDbPolyline
 90
    4
 70
    1
 43
0
 10
214.7028268999673
 20
18.78648145771223
 10
214.7028268999673
 20
26.78648245771222
 42
0.9999999999999999
 10
206.7028268999673
 20
26.78648245771222
 10
206.7028268999673
 20
18.78648145771223
 42
0.9999999131120499
  0
LWPOLYLINE
  5
4E
100
AcDbEntity
  8
0
  6
ByLayer
 62
    0
370
   -1
100
AcDbPolyline
 90
    4
 70
    1
 43
0
 10
214.7028268999673
 20
-21.21351854228777
 10
214.7028268999673
 20
-13.21351754228778
 42
0.9999999999999999
 10
206.7028268999673
 20
-13.21351754228778
 10
206.7028268999673
 20
-21.21351854228777
 42
0.9999999131120499
  0
LWPOLYLINE
  5
4F
100
AcDbEntity
  8
0
  6
ByLayer
 62
    0
370
   -1
100
AcDbPolyline
 90
    4
 70
    1
 43
0
 10
206.7028268999673
 20
-53.21351754228778
 10
206.7028268999673
 20
-61.21351854228777
 42
0.9999999131120491
 10
214.7028268999673
 20
-61.21351854228777
 10
214.7028268999673
 20
-53.21351754228778
 42
0.9999999999999999
  0
LWPOLYLINE
  5
50
100
AcDbEntity
  8
0
  6
ByLayer
 62
    0
370
   -1
100
AcDbPolyline
 90
    4
 70
    1
 43
0
 10
119.7028268999673
 20
-21.21351854228777
 10
119.7028268999673
 20
-13.21351754228778
 42
0.9999999999999999
 10
111.7028268999673
 20
-13.21351754228778
 10
111.7028268999673
 20
-21.21351854228777
 42
0.9999999131120499
  0
LWPOLYLINE
  5
51
100
AcDbEntity
  8
0
  6
ByLayer
 62
    0
370
   -1
100
AcDbPolyline
 90
    4
 70
    1
 43
0
 10
119.7028268999673
 20
-61.21351854228777
 10
119.7028268999673
 20
-53.21351754228778
 42
0.9999999999999999
 10
111.7028268999673
 20
-53.21351754228778
 10
111.7028268999673
 20
-61.21351854228777
 42
0.9999999131120491
  0
LWPOLYLINE
  5
52
100
AcDbEntity
  8
0
  6
ByLayer
 62
    0
370
   -1
100
AcDbPolyline
 90
    4
 70
    1
 43
0
 10
59.70282989996718
 20
-52.21351654228778
 10
51.70282989996718
 20
-52.21351654228778
 42
0.9999999789265762
 10
51.70282989996718
 20
-60.21351654228778
 10
59.70282989996718
 20
-60.21351654228778
 42
0.9999999131120491
  0
LWPOLYLINE
  5
53
100
AcDbEntity
  8
0
  6
ByLayer
 62
    0
370
   -1
100
AcDbPolyline
 90
    4
 70
    1
 43
0
 10
-0.2971701000328153
 20
-52.21351654228778
 10
-8.297170100032815
 20
-52.21351654228778
 42
0.999999978926576
 10
-8.297170100032814
 20
-60.21351654228778
 10
-0.2971701000328195
 20
-60.21351654228778
 42
0.9999999131120495
  0
LWPOLYLINE
  5
54
100
AcDbEntity
  8
0
  6
ByLayer
 62
    0
370
   -1
100
AcDbPolyline
 90
    4
 70
    1
 43
0
 10
-60.29717010003282
 20
-52.21351654228778
 10
-68.29717010003282
 20
-52.21351654228778
 42
0.9999999789265744
 10
-68.29717010003282
 20
-60.21351654228778
 10
-60.29717010003282
 20
-60.21351654228778
 42
0.9999999131120491
  0
LWPOLYLINE
  5
55
100
AcDbEntity
  8
0
  6
ByLayer
 62
    0
370
   -1
100
AcDbPolyline
 90
    4
 70
    1
 43
0
 10
-120.2971701000328
 20
-52.21351654228778
 10
-128.2971701000328
 20
-52.21351654228778
 42
0.9999999789265744
 10
-128.2971701000328
 20
-60.21351654228778
 10
-120.2971701000328
 20
-60.21351654228778
 42
0.9999999131120491
  0
LWPOLYLINE
  5
56
100
AcDbEntity
  8
0
  6
ByLayer
 62
    0
370
   -1
100
AcDbPolyline
 90
   16
 70
    1
 43
0
 10
133.5981978999673
 20
-12.18017554228777
 10
133.5981868999672
 20
-27.2096135422878
 42
0.1989123175249989
 10
135.3555418999673
 20
-31.45225554228777
 10
151.8408088999672
 20
-47.93754654228775
 42
0.1989124853150002
 10
156.0834488999673
 20
-49.6949115422878
 10
161.1128858999672
 20
-49.69491454228779
 42
0.1989124853149981
 10
165.3555288999671
 20
-47.93755754228786
 10
181.8408248999674
 20
-31.45229454228778
 42
0.1989123174910076
 10
183.5981868999672
 20
-27.20965554228775
 10
183.5981988999673
 20
-12.18022654228776
 42
0.1989123360569859
 10
181.8408398999672
 20
-7.937585542287835
 10
165.3555568999672
 20
8.547696457712217
 42
0.1989123583080026
 10
161.1129168999672
 20
10.30505645771234
 10
156.0834798999673
 20
10.30505645771211
 42
0.1989123583080031
 10
151.8408388999671
 20
8.547697457712188
 10
135.3555568999672
 20
-7.93758554228773
 42
0.1989123360590032
  0
LWPOLYLINE
  5
57
100
AcDbEntity
  8
0
  6
ByLayer
 62
    0
370
   -1
100
AcDbPolyline
 90
  210
 70
    0
 43
0
 10
178.2523788999673
 20
53.28706645771223
 10
178.2523378999673
 20
53.78645445771224
 10
178.7523788999673
 20
53.78645445771224
 10
183.2368008999673
 20
53.78645445771224
 42
-0.2679491924309708
 10
183.6698128999672
 20
53.5364544577122
 42
1.303223041599943
 10
184.3528268999672
 20
54.21946545771219
 42
-0.267948266464967
 10
184.1028288999672
 20
54.65247745771222
 10
184.1028288999672
 20
56.28650645771222
 42
-0.4142135623730284
 10
184.6028288999672
 20
56.78650645771222
 10
189.6028258999672
 20
56.78650645771222
 42
-0.4142135623730284
 10
190.1028258999672
 20
56.28650645771222
 10
190.1028228999672
 20
54.65247945771222
 42
-0.2679491924310519
 10
189.8528228999672
 20
54.21946645771212
 42
1.303223041599868
 10
190.5358348999674
 20
53.53645245771224
 42
-0.2679482664649911
 10
190.9688468999672
 20
53.78645145771225
 10
196.1028118999673
 20
53.78645445771224
 10
196.1028118999673
 20
50.78648245771222
 10
194.8278178999672
 20
50.78648245771222
 10
194.8278178999672
 20
46.78645445771224
 10
196.1028118999673
 20
46.78645445771224
 10
196.1028118999673
 20
43.78645445771224
 10
199.3028228999672
 20
43.78645445771224
 10
199.3028228999672
 20
46.78645445771224
 10
200.5778178999672
 20
46.78645445771224
 10
200.5778178999672
 20
50.78648245771222
 10
199.3028228999672
 20
50.78648245771222
 10
199.3028228999672
 20
53.78645445771224
 10
204.4368168999673
 20
53.78645445771224
 42
-0.2679491924309698
 10
204.8698288999672
 20
53.53645445771223
 42
1.303223041600078
 10
205.5528428999672
 20
54.2194654577122
 42
-0.2679482664649632
 10
205.3028448999672
 20
54.65247745771222
 10
205.3028448999672
 20
56.28650645771222
 42
-0.4142135623730284
 10
205.8028448999672
 20
56.78650645771222
 10
210.8028428999672
 20
56.78650645771222
 42
-0.4142135623730284
 10
211.3028428999672
 20
56.28650645771222
 10
211.3028398999672
 20
54.65247945771222
 42
-0.2679491924310353
 10
211.0528398999672
 20
54.21946645771209
 42
1.303223041601045
 10
211.7358508999673
 20
53.53645245771223
 42
-0.2679482804950102
 10
212.1688628999672
 20
53.78645145771226
 10
222.7028268999673
 20
53.78645245771224
 10
222.7028268999673
 20
48.78645245771224
 10
222.7028268999673
 20
27.78648445771222
 10
220.7028268999673
 20
25.78648045771223
 10
220.7028268999673
 20
-76.21351754228778
 10
212.1688628999672
 20
-76.21351454228778
 42
-0.2679482664649933
 10
211.7358518999673
 20
-75.96351654228778
 42
1.303223041599856
 10
211.0528398999671
 20
-76.64653154228785
 42
-0.2679491924309684
 10
211.3028398999672
 20
-77.07954354228775
 10
211.3028428999672
 20
-292.7136005422878
 42
-0.4142135623730284
 10
210.8028428999672
 20
-293.2136005422877
 10
205.8028448999672
 20
-293.2136005422878
 42
-0.4142135623730284
 10
205.3028448999672
 20
-292.7136005422878
 10
205.3028448999672
 20
-291.0795725422878
 42
-0.2679482664649728
 10
205.5528428999672
 20
-290.6465605422878
 42
1.303223029819919
 10
204.8698288999672
 20
-289.9635485422877
 42
-0.2679491924309624
 10
204.4368168999673
 20
-290.2135485422878
 10
199.3028228999672
 20
-290.2135485422878
 10
199.3028228999672
 20
-287.2135765422878
 10
200.5778178999672
 20
-287.2135765422878
 10
200.5778178999672
 20
-283.2135485422878
 10
199.3028228999672
 20
-283.2135485422878
 10
199.3028228999672
 20
-280.2135485422878
 10
196.1028118999673
 20
-280.2135485422878
 10
196.1028118999673
 20
-283.2135485422878
 10
194.8278178999672
 20
-283.2135485422878
 10
194.8278178999672
 20
-287.2135765422878
 10
196.1028118999673
 20
-287.2135765422878
 10
196.1028118999673
 20
-290.2135485422878
 10
190.9688468999672
 20
-290.2135455422878
 42
-0.267948266465048
 10
190.5358348999673
 20
-289.9635475422878
 42
1.303223041599553
 10
189.8528228999672
 20
-290.6465625422877
 42
-0.2679491924310128
 10
190.1028228999672
 20
-291.0795745422878
 10
190.1028258999672
 20
-292.7136005422878
 42
-0.4142135623730284
 10
189.6028258999672
 20
-293.2136005422877
 10
184.6028288999672
 20
-293.2136005422877
 42
-0.4142135623730451
 10
184.1028288999672
 20
-292.7136115422878
 10
184.1028288999672
 20
-77.07954154228776
 42
-0.2679482664649822
 10
184.3528268999672
 20
-76.64652954228777
 42
1.303223041599705
 10
183.6698128999672
 20
-75.96351754228763
 42
-0.2679491924310108
 10
183.2368008999673
 20
-76.2135175422878
 10
162.1688628999672
 20
-76.21351454228778
 42
-0.2679482664649933
 10
161.7358518999673
 20
-75.96351654228778
 42
1.303223041599856
 10
161.0528398999671
 20
-76.64653154228785
 42
-0.2679491924309684
 10
161.3028398999672
 20
-77.07954354228775
 10
161.3028428999672
 20
-78.71356954228776
 42
-0.4142135623730284
 10
160.8028428999672
 20
-79.21356954228776
 10
155.8028448999672
 20
-79.21356954228776
 42
-0.4142135623730284
 10
155.3028448999672
 20
-78.71356954228776
 10
155.3028448999672
 20
-77.07954154228776
 42
-0.2679482664649878
 10
155.5528428999672
 20
-76.64652954228778
 42
1.303223041599741
 10
154.8698288999672
 20
-75.96351754228766
 42
-0.2679491924310108
 10
154.4368168999673
 20
-76.21351754228778
 10
149.3028228999672
 20
-76.21351754228778
 10
149.3028228999672
 20
-73.21354554228776
 10
150.5778178999672
 20
-73.21354554228776
 10
150.5778178999672
 20
-69.21351754228778
 10
149.3028228999672
 20
-69.21351754228778
 10
149.3028228999672
 20
-66.21351754228778
 10
146.1028118999673
 20
-66.21351754228778
 10
146.1028118999673
 20
-69.21351754228778
 10
144.8278178999672
 20
-69.21351754228778
 10
144.8278178999672
 20
-73.21354554228776
 10
146.1028118999673
 20
-73.21354554228776
 10
146.1028118999673
 20
-76.21351754228778
 10
140.9688468999672
 20
-76.21351454228778
 42
-0.2679482664650137
 10
140.5358348999673
 20
-75.96351654228779
 42
1.303223041599725
 10
139.8528228999671
 20
-76.64653154228783
 42
-0.2679491924309722
 10
140.1028228999672
 20
-77.07954354228775
 10
140.1028258999672
 20
-78.71356954228776
 42
-0.4142135623730284
 10
139.6028258999672
 20
-79.21356954228776
 10
134.6028288999672
 20
-79.21356954228776
 42
-0.4142135623730284
 10
134.1028288999672
 20
-78.71356954228776
 10
134.1028288999672
 20
-77.07954154228776
 42
-0.2679482664649822
 10
134.3528268999672
 20
-76.64652954228777
 42
1.303223041599705
 10
133.6698128999672
 20
-75.96351754228763
 42
-0.2679491924310108
 10
133.2368008999673
 20
-76.2135175422878
 10
42.16885889996718
 20
-76.21351454228778
 42
-0.2679482664649952
 10
41.73584789996728
 20
-75.96351654228778
 42
1.303223041599887
 10
41.05283589996731
 20
-76.64653154228785
 42
-0.2679491924309752
 10
41.30283589996731
 20
-77.07954354228775
 10
41.30283889996718
 20
-78.71356954228776
 42
-0.4142135623730284
 10
40.80283889996718
 20
-79.21356954228776
 10
35.80284089996718
 20
-79.21356954228776
 42
-0.4142135623730284
 10
35.30284089996718
 20
-78.71356954228776
 10
35.30284089996719
 20
-77.07954154228776
 42
-0.2679482664649776
 10
35.55283889996718
 20
-76.64652954228785
 42
1.303223041599872
 10
34.86982489996718
 20
-75.96351754228766
 42
-0.2679491924310269
 10
34.43681289996726
 20
-76.21351754228778
 10
29.30281889996718
 20
-76.21351754228778
 10
29.30281889996718
 20
-73.21354554228776
 10
30.57781389996717
 20
-73.21354554228776
 10
30.57781389996717
 20
-69.21351754228778
 10
29.30281889996718
 20
-69.21351754228778
 10
29.30281889996718
 20
-66.21351754228778
 10
26.10280789996722
 20
-66.21351754228778
 10
26.10280789996722
 20
-69.21351754228778
 10
24.82781389996717
 20
-69.21351754228778
 10
24.82781389996717
 20
-73.21354554228776
 10
26.10280789996722
 20
-73.21354554228776
 10
26.10280789996722
 20
-76.21351754228778
 10
20.96884289996717
 20
-76.21351454228778
 42
-0.2679482664650009
 10
20.53583189996732
 20
-75.96351654228778
 42
1.303223041599818
 10
19.85281989996702
 20
-76.6465315422879
 42
-0.2679491924308504
 10
20.10281989996741
 20
-77.07954354228775
 10
20.10282289996718
 20
-78.71356954228776
 42
-0.4142135623730284
 10
19.60282289996718
 20
-79.21356954228776
 10
14.60282489996717
 20
-79.21356954228776
 42
-0.4142135623730284
 10
14.10282489996717
 20
-78.71356954228776
 10
14.10282489996717
 20
-77.07954154228776
 42
-0.2679482664649788
 10
14.35282289996718
 20
-76.64652954228785
 42
1.303223041599866
 10
13.66980889996717
 20
-75.96351754228766
 42
-0.2679491924310241
 10
13.23679689996732
 20
-76.21351754228778
 10
-117.8311371000327
 20
-76.21351454228778
 42
-0.2679482664650119
 10
-118.2641491000328
 20
-75.96351654228778
 42
1.303223041600029
 10
-118.9471611000328
 20
-76.64653154228785
 42
-0.2679491924309583
 10
-118.6971611000328
 20
-77.07954354228775
 10
-118.6971581000328
 20
-78.71356954228776
 42
-0.4142135623730284
 10
-119.1971581000328
 20
-79.21356954228776
 10
-124.1971551000328
 20
-79.21356954228776
 42
-0.4142135623730284
 10
-124.6971551000328
 20
-78.71356954228776
 10
-124.6971551000328
 20
-77.07954154228776
 42
-0.2679482664650009
 10
-124.4471571000328
 20
-76.64652954228779
 42
1.30322304160032
 10
-125.1301711000328
 20
-75.96351754228778
 42
-0.2679491924310091
 10
-125.5631831000327
 20
-76.21351754228778
 10
-130.6971771000328
 20
-76.21351754228778
 10
-130.6971771000328
 20
-73.21354554228776
 10
-129.4221831000327
 20
-73.21354554228776
 10
-129.4221831000327
 20
-69.21351754228778
 10
-130.6971771000328
 20
-69.21351754228778
 10
-130.6971771000328
 20
-66.21351754228778
 10
-133.8971881000328
 20
-66.21351754228778
 10
-133.8971881000328
 20
-69.21351754228778
 10
-135.1721831000327
 20
-69.21351754228778
 10
-135.1721831000327
 20
-73.21354554228776
 10
-133.8971881000328
 20
-73.21354554228776
 10
-133.8971881000328
 20
-76.21351754228778
 10
-139.0311531000327
 20
-76.21351454228778
 42
-0.2679482664650133
 10
-139.4641651000327
 20
-75.96351654228778
 42
1.303223041599727
 10
-140.1471771000328
 20
-76.6465315422878
 42
-0.267949192430963
 10
-139.8971771000328
 20
-77.07954354228775
 10
-139.8971741000327
 20
-78.71356954228776
 42
-0.4142135623730284
 10
-140.3971741000327
 20
-79.21356954228776
 10
-145.3971711000328
 20
-79.21356954228776
 42
-0.4142135623730284
 10
-145.8971711000327
 20
-78.71356954228776
 10
-145.8971711000328
 20
-77.07954154228776
 42
-0.2679482664650009
 10
-145.6471731000328
 20
-76.64652954228779
 42
1.303223041600621
 10
-146.3301881000327
 20
-75.96351754228778
 42
-0.2679491924309996
 10
-146.7632001000328
 20
-76.21351754228778
 10
-157.2972001000327
 20
-76.21351754228778
 10
-157.2972001000327
 20
-65.5635185422878
 10
-155.0631531000328
 20
-65.5635185422878
 42
-0.2679491924310203
 10
-154.6301411000327
 20
-65.8135185422878
 42
1.303223029819944
 10
-153.9471271000328
 20
-65.13050654228749
 42
-0.2679482664649848
 10
-154.1971251000328
 20
-64.69749454228776
 10
-154.1971281000327
 20
-57.16352354228775
 10
-151.1971561000327
 20
-57.16352354228775
 10
-151.1971561000327
 20
-58.4385185422878
 10
-147.1971281000327
 20
-58.4385185422878
 10
-147.1971281000327
 20
-57.16352354228775
 10
-144.1971281000327
 20
-57.16352354228775
 10
-144.1971281000327
 20
-53.96351254228779
 10
-147.1971281000327
 20
-53.96351254228779
 10
-147.1971281000327
 20
-52.6885185422878
 10
-151.1971561000327
 20
-52.6885185422878
 10
-151.1971561000327
 20
-53.96351254228779
 10
-154.1971281000327
 20
-53.96351254228779
 10
-154.1971281000327
 20
-45.2153555422878
 10
177.8923158999672
 20
51.36580545771216
 42
0.333369824243931
 10
178.2523788999673
 20
51.84582445771224
 10
178.2523788999673
 20
53.28645445771224
  0
CIRCLE
  5
58
100
AcDbEntity
  8
0
  6
ByLayer
 62
    0
370
   -1
100
AcDbCircle
 10
181.5497568999672
 20
24.20757245771222
 40
1.6
  0
CIRCLE
  5
59
100
AcDbEntity
  8
0
  6
ByLayer
 62
    0
370
   -1
100
AcDbCircle
 10
181.5309458999673
 20
-58.99242754228777
 40
1.6
  0
CIRCLE
  5
5A
100
AcDbEntity
  8
0
  6
ByLayer
 62
    0
370
   -1
100
AcDbCircle
 10
133.3527568999672
 20
18.00757245771223
 40
1.6
  0
CIRCLE
  5
5B
100
AcDbEntity
  8
0
  6
ByLayer
 62
    0
370
   -1
100
AcDbCircle
 10
133.3339458999673
 20
-56.49242754228777
 40
1.6
  0
LWPOLYLINE
  5
5C
100
AcDbEntity
  8
0
  6
ByLayer
 62
    0
370
   -1
100
AcDbPolyline
 90
   16
 70
    1
 43
0
 10
196.0528558999673
 20
-221.3633775422887
 10
196.0528588999673
 20
-216.8954275422887
 42
0.2679491924310068
 10
195.8028588999673
 20
-216.4624155422887
 42
-1.303223041600176
 10
196.4858708999672
 20
-215.7794015422888
 42
0.2679482664650413
 10
196.9188828999672
 20
-216.0293995422886
 10
198.4867498999673
 20
-216.0294025422887
 42
0.2679491924309698
 10
198.9197628999671
 20
-215.7794025422887
 42
-1.30322304159971
 10
199.6027768999672
 20
-216.4624135422887
 42
0.2679482664649936
 10
199.3527788999672
 20
-216.8954255422887
 10
199.3527788999672
 20
-221.3633755422887
 42
0.2679491924310006
 10
199.6027788999672
 20
-221.7963885422887
 42
-1.303223041599838
 10
198.9197668999672
 20
-222.4794025422887
 42
0.26794826646488
 10
198.4867548999673
 20
-222.2294035422887
 10
196.9188848999672
 20
-222.2294005422887
 42
0.2679491924310232
 10
196.4858708999672
 20
-222.4794005422886
 42
-1.3032230416001
 10
195.8028568999673
 20
-221.7963895422886
 42
0.2679482617889916
  0
LWPOLYLINE
  5
5D
100
AcDbEntity
  8
0
  6
ByLayer
 62
    0
370
   -1
100
AcDbPolyline
 90
   16
 70
    1
 43
0
 10
196.9188848999672
 20
-243.4294005422887
 42
0.267949192430981
 10
196.4858708999673
 20
-243.6794005422887
 42
-1.303223041600186
 10
195.8028568999673
 20
-242.9963885422887
 42
0.2679482664649976
 10
196.0528558999673
 20
-242.5633765422887
 10
196.0528588999673
 20
-238.0954265422887
 42
0.2679491924309935
 10
195.8028588999673
 20
-237.6624145422887
 42
-1.303223041600153
 10
196.4858708999673
 20
-236.9794005422887
 42
0.2679482664650085
 10
196.9188828999672
 20
-237.2293985422887
 10
198.4867498999673
 20
-237.2294015422887
 42
0.2679491924309684
 10
198.9197628999672
 20
-236.9794015422887
 42
-1.303223041599943
 10
199.6027768999672
 20
-237.6624135422887
 42
0.2679482664650123
 10
199.3527788999672
 20
-238.0954255422887
 10
199.3527788999672
 20
-242.5633745422887
 42
0.2679491924309948
 10
199.6027788999672
 20
-242.9963885422887
 42
-1.303223041600048
 10
198.9197668999672
 20
-243.6794025422887
 42
0.267948266464948
 10
198.4867548999673
 20
-243.4294035422887
  0
CIRCLE
  5
5E
100
AcDbEntity
  8
0
  6
ByLayer
 62
    0
370
   -1
100
AcDbCircle
 10
197.7028168999672
 20
-229.7294015422887
 40
1.6
  0
LWPOLYLINE
  5
5F
100
AcDbEntity
  8
0
  6
ByLayer
 62
    0
370
   -1
100
AcDbPolyline
 90
   16
 70
    1
 43
0
 10
198.9197628999672
 20
-146.9477695422869
 42
-1.303223041600158
 10
199.6027768999672
 20
-147.630781542287
 42
0.2679482664649874
 10
199.3527788999672
 20
-148.0637935422869
 10
199.3527788999672
 20
-152.5317425422869
 42
0.2679491924310079
 10
199.6027788999672
 20
-152.9647565422869
 42
-1.303223041599996
 10
198.9197668999672
 20
-153.6477705422869
 42
0.267948266464948
 10
198.4867548999673
 20
-153.3977715422869
 10
196.9188848999672
 20
-153.3977685422869
 42
0.267949192430981
 10
196.4858708999673
 20
-153.6477685422869
 42
-1.303223041600238
 10
195.8028568999673
 20
-152.9647565422869
 42
0.2679482664649956
 10
196.0528558999673
 20
-152.5317445422869
 10
196.0528588999673
 20
-148.0637945422869
 42
0.2679491924310011
 10
195.8028588999673
 20
-147.6307825422869
 42
-1.303223041600385
 10
196.4858708999672
 20
-146.947768542287
 42
0.267948266465058
 10
196.9188828999672
 20
-147.1977665422869
 10
198.4867498999673
 20
-147.1977695422869
 42
0.2679491924309684
  0
LWPOLYLINE
  5
60
100
AcDbEntity
  8
0
  6
ByLayer
 62
    0
370
   -1
100
AcDbPolyline
 90
   16
 70
    1
 43
0
 10
195.8028588999673
 20
-126.4307835422869
 42
-1.303223041600216
 10
196.4858708999672
 20
-125.7477695422869
 42
0.2679482664650542
 10
196.9188828999672
 20
-125.9977675422869
 10
198.4867498999673
 20
-125.9977705422869
 42
0.2679491924309698
 10
198.9197628999671
 20
-125.7477705422869
 42
-1.303223041599946
 10
199.6027768999672
 20
-126.4307815422869
 42
0.2679482664650145
 10
199.3527788999672
 20
-126.8637935422869
 10
199.3527788999672
 20
-131.3317435422869
 42
0.267949192430993
 10
199.6027788999672
 20
-131.7647565422869
 42
-1.303223041600015
 10
198.9197668999672
 20
-132.4477705422869
 42
0.267948266464948
 10
198.4867548999673
 20
-132.1977715422869
 10
196.9188848999672
 20
-132.1977685422869
 42
0.267949192430981
 10
196.4858708999673
 20
-132.4477685422869
 42
-1.303223041600176
 10
195.8028568999673
 20
-131.7647575422869
 42
0.2679482617889956
 10
196.0528558999673
 20
-131.3317455422869
 10
196.0528588999673
 20
-126.8637955422869
 42
0.267949192431005
  0
CIRCLE
  5
61
100
AcDbEntity
  8
0
  6
ByLayer
 62
    0
370
   -1
100
AcDbCircle
 10
197.7028168999672
 20
-139.6977695422869
 40
1.6
  0
ENDSEC
  0
SECTION
  2
OBJECTS
  0
DICTIONARY
  5
C
330
0
100
AcDbDictionary
281
    1
  3
ACAD_GROUP
350
D
  0
DICTIONARY
  5
D
330
C
100
AcDbDictionary
281
    1
  0
ENDSEC
  0
EOF
