999
dxfrw 0.6.3
  0
SECTION
  2
HEADER
  9
$ACADVER
  1
AC1021
  9
$DWGCODEPAGE
  3
ANSI_1252
  9
$INSBASE
 10
0
 20
0
 30
0
  9
$EXTMIN
 10
18.29167255046799
 20
11.56834910595408
 30
0
  9
$EXTMAX
 10
418.2916575504707
 20
391.5684891059542
 30
0
  9
$LIMMIN
 10
0
 20
0
  9
$LIMMAX
 10
420
 20
297
  9
$ORTHOMODE
 70
    0
  9
$REGENMODE
 70
    1
  9
$FILLMODE
 70
    1
  9
$QTEXTMODE
 70
    0
  9
$MIRRTEXT
 70
    0
  9
$LTSCALE
 40
1
  9
$ATTMODE
 70
    0
  9
$TEXTSIZE
 40
2.5
  9
$TRACEWID
 40
15.68
  9
$TEXTSTYLE
  7
STANDARD
  9
$CLAYER
  8
0
  9
$CELTYPE
  6
BYLAYER
  9
$CECOLOR
 62
  256
  9
$CELTSCALE
 40
1
  9
$DISPSILH
 70
    0
  9
$DIMSCALE
 40
2.5
  9
$DIMASZ
 40
2.5
  9
$DIMEXO
 40
0.625
  9
$DIMDLI
 40
3.75
  9
$DIMRND
 40
0
  9
$DIMDLE
 40
0
  9
$DIMEXE
 40
1.25
  9
$DIMTP
 40
0
  9
$DIMTM
 40
0
  9
$DIMTXT
 40
2.5
  9
$DIMCEN
 40
2.5
  9
$DIMTSZ
 40
0
  9
$DIMTOL
 70
    0
  9
$DIMLIM
 70
    0
  9
$DIMTIH
 70
    0
  9
$DIMTOH
 70
    0
  9
$DIMSE1
 70
    0
  9
$DIMSE2
 70
    0
  9
$DIMTAD
 70
    1
  9
$DIMZIN
 70
    8
  9
$DIMBLK
  1

  9
$DIMASO
 70
    1
  9
$DIMSHO
 70
    1
  9
$DIMPOST
  1

  9
$DIMAPOST
  1

  9
$DIMALT
 70
    0
  9
$DIMALTD
 70
    3
  9
$DIMALTF
 40
0.03937
  9
$DIMLFAC
 40
1
  9
$DIMTOFL
 70
    1
  9
$DIMTVP
 40
0
  9
$DIMTIX
 70
    0
  9
$DIMSOXD
 70
    0
  9
$DIMSAH
 70
    0
  9
$DIMBLK1
  1

  9
$DIMBLK2
  1

  9
$DIMSTYLE
  2
STANDARD
  9
$DIMCLRD
 70
    0
  9
$DIMCLRE
 70
    0
  9
$DIMCLRT
 70
    0
  9
$DIMTFAC
 40
1
  9
$DIMGAP
 40
0.625
  9
$DIMJUST
 70
    0
  9
$DIMSD1
 70
    0
  9
$DIMSD2
 70
    0
  9
$DIMTOLJ
 70
    0
  9
$DIMTZIN
 70
    8
  9
$DIMALTZ
 70
    0
  9
$DIMALTTZ
 70
    0
  9
$DIMUPT
 70
    0
  9
$DIMDEC
 70
    2
  9
$DIMTDEC
 70
    2
  9
$DIMALTU
 70
    2
  9
$DIMALTTD
 70
    3
  9
$DIMTXSTY
  7
STANDARD
  9
$DIMAUNIT
 70
    0
  9
$DIMADEC
 70
    0
  9
$DIMALTRND
 40
0
  9
$DIMAZIN
 70
    0
  9
$DIMDSEP
 70
   44
  9
$DIMATFIT
 70
    3
  9
$DIMFRAC
 70
    0
  9
$DIMLDRBLK
  1
STANDARD
  9
$DIMLUNIT
 70
    2
  9
$DIMLWD
 70
   -2
  9
$DIMLWE
 70
   -2
  9
$DIMTMOVE
 70
    0
  9
$DIMFXL
 40
1
  9
$DIMFXLON
 70
    0
  9
$DIMJOGANG
 40
0.7854
  9
$DIMTFILL
 70
    0
  9
$DIMTFILLCLR
 70
    0
  9
$DIMARCSYM
 70
    0
  9
$DIMLTYPE
  6

  9
$DIMLTEX1
  6

  9
$DIMLTEX2
  6

  9
$LUNITS
 70
    2
  9
$LUPREC
 70
    4
  9
$SKETCHINC
 40
1
  9
$FILLETRAD
 40
0
  9
$AUNITS
 70
    0
  9
$AUPREC
 70
    2
  9
$MENU
  1
.
  9
$ELEVATION
 40
0
  9
$PELEVATION
 40
0
  9
$THICKNESS
 40
0
  9
$LIMCHECK
 70
    0
  9
$CHAMFERA
 40
0
  9
$CHAMFERB
 40
0
  9
$CHAMFERC
 40
0
  9
$CHAMFERD
 40
0
  9
$SKPOLY
 70
    0
  9
$USRTIMER
 70
    1
  9
$ANGBASE
 50
0
  9
$ANGDIR
 70
    0
  9
$PDMODE
 70
   34
  9
$PDSIZE
 40
0
  9
$PLINEWID
 40
0
  9
$SPLFRAME
 70
    0
  9
$SPLINETYPE
 70
    2
  9
$SPLINESEGS
 70
    8
  9
$HANDSEED
  5
20000
  9
$SURFTAB1
 70
    6
  9
$SURFTAB2
 70
    6
  9
$SURFTYPE
 70
    6
  9
$SURFU
 70
    6
  9
$SURFV
 70
    6
  9
$UCSBASE
  2

  9
$UCSNAME
  2

  9
$UCSORG
 10
0
 20
0
 30
0
  9
$UCSXDIR
 10
1
 20
0
 30
0
  9
$UCSYDIR
 10
0
 20
1
 30
0
  9
$UCSORTHOREF
  2

  9
$UCSORTHOVIEW
 70
    0
  9
$UCSORGTOP
 10
0
 20
0
 30
0
  9
$UCSORGBOTTOM
 10
0
 20
0
 30
0
  9
$UCSORGLEFT
 10
0
 20
0
 30
0
  9
$UCSORGRIGHT
 10
0
 20
0
 30
0
  9
$UCSORGFRONT
 10
0
 20
0
 30
0
  9
$UCSORGBACK
 10
0
 20
0
 30
0
  9
$PUCSBASE
  2

  9
$PUCSNAME
  2

  9
$PUCSORG
 10
0
 20
0
 30
0
  9
$PUCSXDIR
 10
1
 20
0
 30
0
  9
$PUCSYDIR
 10
0
 20
1
 30
0
  9
$PUCSORTHOREF
  2

  9
$PUCSORTHOVIEW
 70
    0
  9
$PUCSORGTOP
 10
0
 20
0
 30
0
  9
$PUCSORGBOTTOM
 10
0
 20
0
 30
0
  9
$PUCSORGLEFT
 10
0
 20
0
 30
0
  9
$PUCSORGRIGHT
 10
0
 20
0
 30
0
  9
$PUCSORGFRONT
 10
0
 20
0
 30
0
  9
$PUCSORGBACK
 10
0
 20
0
 30
0
  9
$USERI1
 70
    0
  9
$USERI2
 70
    0
  9
$USERI3
 70
    0
  9
$USERI4
 70
    0
  9
$USERI5
 70
    0
  9
$USERR1
 40
0
  9
$USERR2
 40
0
  9
$USERR3
 40
0
  9
$USERR4
 40
0
  9
$USERR5
 40
0
  9
$WORLDVIEW
 70
    1
  9
$SHADEDGE
 70
    3
  9
$SHADEDIF
 70
   70
  9
$TILEMODE
 70
    1
  9
$MAXACTVP
 70
   64
  9
$PINSBASE
 10
0
 20
0
 30
0
  9
$PLIMCHECK
 70
    0
  9
$PEXTMIN
 10
0
 20
0
 30
0
  9
$PEXTMAX
 10
0
 20
0
 30
0
  9
$GRIDMODE
 70
    1
  9
$SNAPSTYLE
 70
    0
  9
$PLIMMIN
 10
0
 20
0
  9
$PLIMMAX
 10
0.0001124639341072551
 20
7.954766071000971e-05
  9
$UNITMODE
 70
    0
  9
$VISRETAIN
 70
    1
  9
$PLINEGEN
 70
    0
  9
$PSLTSCALE
 70
    1
  9
$TREEDEPTH
 70
 3020
  9
$CMLSTYLE
  2
Standard
  9
$CMLJUST
 70
    0
  9
$CMLSCALE
 40
20
  9
$PROXYGRAPHICS
 70
    1
  9
$MEASUREMENT
 70
    1
  9
$CELWEIGHT
370
   -1
  9
$ENDCAPS
280
    0
  9
$JOINSTYLE
280
    0
  9
$LWDISPLAY
290
    0
  9
$INSUNITS
 70
    0
  9
$HYPERLINKBASE
  1

  9
$STYLESHEET
  1

  9
$XEDIT
290
    1
  9
$CEPSNTYPE
380
    0
  9
$PSTYLEMODE
290
    1
  9
$EXTNAMES
290
    1
  9
$PSVPSCALE
 40
1
  9
$OLESTARTUP
290
    0
  9
$SORTENTS
280
  127
  9
$INDEXCTL
280
    0
  9
$HIDETEXT
280
    1
  9
$XCLIPFRAME
290
    0
  9
$HALOGAP
280
    0
  9
$OBSCOLOR
 70
  257
  9
$OBSLTYPE
280
    0
  9
$INTERSECTIONDISPLAY
280
    0
  9
$INTERSECTIONCOLOR
 70
  257
  9
$DIMASSOC
280
    1
  9
$PROJECTNAME
  1

  9
$CAMERADISPLAY
290
    0
  9
$LENSLENGTH
 40
50
  9
$CAMERAHEIGHT
 40
0
  9
$STEPSPERSEC
 40
2
  9
$STEPSIZE
 40
50
  9
$3DDWFPREC
 40
2
  9
$PSOLWIDTH
 40
5
  9
$PSOLHEIGHT
 40
80
  9
$LOFTANG1
 40
1.570796326794897
  9
$LOFTANG2
 40
1.570796326794897
  9
$LOFTMAG1
 40
0
  9
$LOFTMAG2
 40
0
  9
$LOFTPARAM
 70
    7
  9
$LOFTNORMALS
280
    1
  9
$LATITUDE
 40
1
  9
$LONGITUDE
 40
1
  9
$NORTHDIRECTION
 40
0
  9
$TIMEZONE
 70
-8000
  9
$LIGHTGLYPHDISPLAY
280
    1
  9
$TILEMODELIGHTSYNCH
280
    1
  9
$SOLIDHIST
280
    1
  9
$SHOWHIST
280
    1
  9
$DWFFRAME
280
    2
  9
$DGNFRAME
280
    0
  9
$REALWORLDSCALE
290
    1
  9
$INTERFERECOLOR
 62
    1
  9
$CSHADOW
280
    0
  9
$SHADOWPLANELOCATION
 40
0
  0
ENDSEC
  0
SECTION
  2
CLASSES
  0
ENDSEC
  0
SECTION
  2
TABLES
  0
TABLE
  2
VPORT
  5
8
330
0
100
AcDbSymbolTable
 70
    1
  0
VPORT
  5
31
330
2
100
AcDbSymbolTableRecord
100
AcDbViewportTableRecord
  2
*ACTIVE
 70
    0
 10
0
 20
0
 11
1
 21
1
 12
534.8460526847563
 22
312.092796889546
 13
0
 23
0
 14
10
 24
10
 15
10
 25
10
 16
0
 26
0
 36
1
 17
0
 27
0
 37
0
 40
862.4243700306538
 41
1.831491712707182
 42
50
 43
0
 44
0
 50
0
 51
0
 71
    0
 72
  100
 73
    1
 74
    3
 75
    0
 76
    1
 77
    0
 78
    2
281
    0
 65
    1
110
0
120
0
130
0
111
1
121
0
131
0
112
0
122
1
132
0
 79
    0
146
0
348
10020
 60
    7
 61
    5
292
1
282
    1
141
0
142
0
 63
  250
421
3358443
  0
ENDTAB
  0
TABLE
  2
LTYPE
  5
5
330
0
100
AcDbSymbolTable
 70
    4
  0
LTYPE
  5
14
330
5
100
AcDbSymbolTableRecord
100
AcDbLinetypeTableRecord
  2
ByBlock
 70
    0
  3

 72
   65
 73
    0
 40
0
  0
LTYPE
  5
15
330
5
100
AcDbSymbolTableRecord
100
AcDbLinetypeTableRecord
  2
ByLayer
 70
    0
  3

 72
   65
 73
    0
 40
0
  0
LTYPE
  5
16
330
5
100
AcDbSymbolTableRecord
100
AcDbLinetypeTableRecord
  2
Continuous
 70
    0
  3
Solid line
 72
   65
 73
    0
 40
0
  0
LTYPE
  5
32
330
5
100
AcDbSymbolTableRecord
100
AcDbLinetypeTableRecord
  2
DOT
 70
    0
  3
Dot . . . . . . . . . . . . . . . . . . . . . .
 72
   65
 73
    2
 40
6.35
 49
0
 74
    0
 49
-6.35
 74
    0
  0
LTYPE
  5
33
330
5
100
AcDbSymbolTableRecord
100
AcDbLinetypeTableRecord
  2
DOTTINY
 70
    0
  3
Dot (.15x) .....................................
 72
   65
 73
    2
 40
0.9525
 49
0
 74
    0
 49
-0.9525
 74
    0
  0
LTYPE
  5
34
330
5
100
AcDbSymbolTableRecord
100
AcDbLinetypeTableRecord
  2
DOT2
 70
    0
  3
Dot (.5x) .....................................
 72
   65
 73
    2
 40
3.175
 49
0
 74
    0
 49
-3.175
 74
    0
  0
LTYPE
  5
35
330
5
100
AcDbSymbolTableRecord
100
AcDbLinetypeTableRecord
  2
DOTX2
 70
    0
  3
Dot (2x) .  .  .  .  .  .  .  .  .  .  .  .  .
 72
   65
 73
    2
 40
12.7
 49
0
 74
    0
 49
-12.7
 74
    0
  0
LTYPE
  5
36
330
5
100
AcDbSymbolTableRecord
100
AcDbLinetypeTableRecord
  2
DASHED
 70
    0
  3
Dashed _ _ _ _ _ _ _ _ _ _ _ _ _ _ _ _ _
 72
   65
 73
    2
 40
19.05
 49
12.7
 74
    0
 49
-6.35
 74
    0
  0
LTYPE
  5
37
330
5
100
AcDbSymbolTableRecord
100
AcDbLinetypeTableRecord
  2
DASHEDTINY
 70
    0
  3
Dashed (.15x) _ _ _ _ _ _ _ _ _ _ _ _ _ _ _ _ _
 72
   65
 73
    2
 40
2.8575
 49
1.905
 74
    0
 49
-0.9525
 74
    0
  0
LTYPE
  5
38
330
5
100
AcDbSymbolTableRecord
100
AcDbLinetypeTableRecord
  2
DASHED2
 70
    0
  3
Dashed (.5x) _ _ _ _ _ _ _ _ _ _ _ _ _ _ _ _ _
 72
   65
 73
    2
 40
9.524999999999999
 49
6.35
 74
    0
 49
-3.175
 74
    0
  0
LTYPE
  5
39
330
5
100
AcDbSymbolTableRecord
100
AcDbLinetypeTableRecord
  2
DASHEDX2
 70
    0
  3
Dashed (2x) ____  ____  ____  ____  ____  ___
 72
   65
 73
    2
 40
38.09999999999999
 49
25.4
 74
    0
 49
-12.7
 74
    0
  0
LTYPE
  5
3A
330
5
100
AcDbSymbolTableRecord
100
AcDbLinetypeTableRecord
  2
DASHDOT
 70
    0
  3
Dash dot __ . __ . __ . __ . __ . __ . __ . __
 72
   65
 73
    4
 40
25.4
 49
12.7
 74
    0
 49
-6.35
 74
    0
 49
0
 74
    0
 49
-6.35
 74
    0
  0
LTYPE
  5
3B
330
5
100
AcDbSymbolTableRecord
100
AcDbLinetypeTableRecord
  2
DASHDOTTINY
 70
    0
  3
Dash dot (.15x) _._._._._._._._._._._._._._._.
 72
   65
 73
    4
 40
3.81
 49
1.905
 74
    0
 49
-0.9525
 74
    0
 49
0
 74
    0
 49
-0.9525
 74
    0
  0
LTYPE
  5
3C
330
5
100
AcDbSymbolTableRecord
100
AcDbLinetypeTableRecord
  2
DASHDOT2
 70
    0
  3
Dash dot (.5x) _._._._._._._._._._._._._._._.
 72
   65
 73
    4
 40
12.7
 49
6.35
 74
    0
 49
-3.175
 74
    0
 49
0
 74
    0
 49
-3.175
 74
    0
  0
LTYPE
  5
3D
330
5
100
AcDbSymbolTableRecord
100
AcDbLinetypeTableRecord
  2
DASHDOTX2
 70
    0
  3
Dash dot (2x) ____  .  ____  .  ____  .  ___
 72
   65
 73
    4
 40
50.8
 49
25.4
 74
    0
 49
-12.7
 74
    0
 49
0
 74
    0
 49
-12.7
 74
    0
  0
LTYPE
  5
3E
330
5
100
AcDbSymbolTableRecord
100
AcDbLinetypeTableRecord
  2
DIVIDE
 70
    0
  3
Divide ____ . . ____ . . ____ . . ____ . . ____
 72
   65
 73
    6
 40
31.75
 49
12.7
 74
    0
 49
-6.35
 74
    0
 49
0
 74
    0
 49
-6.35
 74
    0
 49
0
 74
    0
 49
-6.35
 74
    0
  0
LTYPE
  5
3F
330
5
100
AcDbSymbolTableRecord
100
AcDbLinetypeTableRecord
  2
DIVIDETINY
 70
    0
  3
Divide (.15x) __..__..__..__..__..__..__..__.._
 72
   65
 73
    6
 40
4.7625
 49
1.905
 74
    0
 49
-0.9525
 74
    0
 49
0
 74
    0
 49
-0.9525
 74
    0
 49
0
 74
    0
 49
-0.9525
 74
    0
  0
LTYPE
  5
40
330
5
100
AcDbSymbolTableRecord
100
AcDbLinetypeTableRecord
  2
DIVIDE2
 70
    0
  3
Divide (.5x) __..__..__..__..__..__..__..__.._
 72
   65
 73
    6
 40
15.875
 49
6.35
 74
    0
 49
-3.175
 74
    0
 49
0
 74
    0
 49
-3.175
 74
    0
 49
0
 74
    0
 49
-3.175
 74
    0
  0
LTYPE
  5
41
330
5
100
AcDbSymbolTableRecord
100
AcDbLinetypeTableRecord
  2
DIVIDEX2
 70
    0
  3
Divide (2x) ________  .  .  ________  .  .  _
 72
   65
 73
    6
 40
63.5
 49
25.4
 74
    0
 49
-12.7
 74
    0
 49
0
 74
    0
 49
-12.7
 74
    0
 49
0
 74
    0
 49
-12.7
 74
    0
  0
LTYPE
  5
42
330
5
100
AcDbSymbolTableRecord
100
AcDbLinetypeTableRecord
  2
BORDER
 70
    0
  3
Border __ __ . __ __ . __ __ . __ __ . __ __ .
 72
   65
 73
    6
 40
44.45
 49
12.7
 74
    0
 49
-6.35
 74
    0
 49
12.7
 74
    0
 49
-6.35
 74
    0
 49
0
 74
    0
 49
-6.35
 74
    0
  0
LTYPE
  5
43
330
5
100
AcDbSymbolTableRecord
100
AcDbLinetypeTableRecord
  2
BORDERTINY
 70
    0
  3
Border (.15x) __.__.__.__.__.__.__.__.__.__.__.
 72
   65
 73
    6
 40
6.6675
 49
1.905
 74
    0
 49
-0.9525
 74
    0
 49
1.905
 74
    0
 49
-0.9525
 74
    0
 49
0
 74
    0
 49
-0.9525
 74
    0
  0
LTYPE
  5
44
330
5
100
AcDbSymbolTableRecord
100
AcDbLinetypeTableRecord
  2
BORDER2
 70
    0
  3
Border (.5x) __.__.__.__.__.__.__.__.__.__.__.
 72
   65
 73
    6
 40
22.225
 49
6.35
 74
    0
 49
-3.175
 74
    0
 49
6.35
 74
    0
 49
-3.175
 74
    0
 49
0
 74
    0
 49
-3.175
 74
    0
  0
LTYPE
  5
45
330
5
100
AcDbSymbolTableRecord
100
AcDbLinetypeTableRecord
  2
BORDERX2
 70
    0
  3
Border (2x) ____  ____  .  ____  ____  .  ___
 72
   65
 73
    6
 40
88.89999999999999
 49
25.4
 74
    0
 49
-12.7
 74
    0
 49
25.4
 74
    0
 49
-12.7
 74
    0
 49
0
 74
    0
 49
-12.7
 74
    0
  0
LTYPE
  5
46
330
5
100
AcDbSymbolTableRecord
100
AcDbLinetypeTableRecord
  2
CENTER
 70
    0
  3
Center ____ _ ____ _ ____ _ ____ _ ____ _ ____
 72
   65
 73
    4
 40
50.8
 49
31.75
 74
    0
 49
-6.35
 74
    0
 49
6.35
 74
    0
 49
-6.35
 74
    0
  0
LTYPE
  5
47
330
5
100
AcDbSymbolTableRecord
100
AcDbLinetypeTableRecord
  2
CENTERTINY
 70
    0
  3
Center (.15x) ___ _ ___ _ ___ _ ___ _ ___ _ ___
 72
   65
 73
    4
 40
7.619999999999999
 49
4.7625
 74
    0
 49
-0.9525
 74
    0
 49
0.9525
 74
    0
 49
-0.9525
 74
    0
  0
LTYPE
  5
48
330
5
100
AcDbSymbolTableRecord
100
AcDbLinetypeTableRecord
  2
CENTER2
 70
    0
  3
Center (.5x) ___ _ ___ _ ___ _ ___ _ ___ _ ___
 72
   65
 73
    4
 40
28.575
 49
19.05
 74
    0
 49
-3.175
 74
    0
 49
3.175
 74
    0
 49
-3.175
 74
    0
  0
LTYPE
  5
49
330
5
100
AcDbSymbolTableRecord
100
AcDbLinetypeTableRecord
  2
CENTERX2
 70
    0
  3
Center (2x) ________  __  ________  __  _____
 72
   65
 73
    4
 40
101.6
 49
63.5
 74
    0
 49
-12.7
 74
    0
 49
12.7
 74
    0
 49
-12.7
 74
    0
  0
ENDTAB
  0
TABLE
  2
LAYER
  5
2
330
0
100
AcDbSymbolTable
 70
    1
  0
LAYER
  5
10
330
2
100
AcDbSymbolTableRecord
100
AcDbLayerTableRecord
  2
0
 70
    0
 62
    7
  6
CONTINUOUS
370
    0
390
F
  0
ENDTAB
  0
TABLE
  2
STYLE
  5
3
330
0
100
AcDbSymbolTable
 70
    3
  0
STYLE
  5
4A
330
2
100
AcDbSymbolTableRecord
100
AcDbTextStyleTableRecord
  2
Standard
 70
    0
 40
0
 41
1
 50
0
 71
    0
 42
1
  3
txt
  4

  0
ENDTAB
  0
TABLE
  2
VIEW
  5
6
330
0
100
AcDbSymbolTable
 70
    0
  0
ENDTAB
  0
TABLE
  2
UCS
  5
7
330
0
100
AcDbSymbolTable
 70
    0
  0
ENDTAB
  0
TABLE
  2
APPID
  5
9
330
0
100
AcDbSymbolTable
 70
    1
  0
APPID
  5
12
330
9
100
AcDbSymbolTableRecord
100
AcDbRegAppTableRecord
  2
ACAD
 70
    0
  0
APPID
  5
4B
330
9
100
AcDbSymbolTableRecord
100
AcDbRegAppTableRecord
  2
LibreCad
 70
    0
  0
ENDTAB
  0
TABLE
  2
DIMSTYLE
  5
A
330
0
100
AcDbSymbolTable
 70
    1
100
AcDbDimStyleTable
 71
    1
  0
DIMSTYLE
105
4C
330
A
100
AcDbSymbolTableRecord
100
AcDbDimStyleTableRecord
  2
Standard
 70
    0
 40
2.5
 41
2.5
 42
0.625
 43
0.38
 44
1.25
 45
0
 46
0
 47
0
 48
0
 49
1
140
2.5
141
0.09
142
0
143
25.4
144
1
145
0
146
1
147
0.625
148
0
 71
    0
 72
    0
 73
    0
 74
    1
 75
    0
 76
    0
 77
    0
 78
    8
 79
    0
170
    0
171
    2
172
    0
173
    0
174
    0
175
    0
176
    0
177
    0
178
    0
179
    0
271
    2
272
    4
273
    2
274
    2
275
    0
276
    0
277
    2
278
   44
279
    0
280
    0
281
    0
282
    0
283
    1
284
    0
285
    0
286
    0
288
    0
289
    3
340
STANDARD
341

371
   -2
372
   -2
  0
ENDTAB
  0
TABLE
  2
BLOCK_RECORD
  5
1
330
0
100
AcDbSymbolTable
 70
    2
  0
BLOCK_RECORD
  5
1F
330
1
100
AcDbSymbolTableRecord
100
AcDbBlockTableRecord
  2
*Model_Space
 70
    0
280
    1
281
    0
  0
BLOCK_RECORD
  5
1E
330
1
100
AcDbSymbolTableRecord
100
AcDbBlockTableRecord
  2
*Paper_Space
 70
    0
280
    1
281
    0
  0
BLOCK_RECORD
  5
4D
330
1
100
AcDbSymbolTableRecord
100
AcDbBlockTableRecord
  2
left_frame
 70
    0
280
    1
281
    0
  0
BLOCK_RECORD
  5
50
330
1
100
AcDbSymbolTableRecord
100
AcDbBlockTableRecord
  2
right_frame
 70
    0
280
    1
281
    0
  0
BLOCK_RECORD
  5
53
330
1
100
AcDbSymbolTableRecord
100
AcDbBlockTableRecord
  2
base_frame_reinforcement
 70
    0
280
    1
281
    0
  0
BLOCK_RECORD
  5
56
330
1
100
AcDbSymbolTableRecord
100
AcDbBlockTableRecord
  2
spool_holder_bracket
 70
    0
280
    1
281
    0
  0
BLOCK_RECORD
  5
59
330
1
100
AcDbSymbolTableRecord
100
AcDbBlockTableRecord
  2
print_bed_bearing_clamp
 70
    0
280
    1
281
    0
  0
BLOCK_RECORD
  5
5C
330
1
100
AcDbSymbolTableRecord
100
AcDbBlockTableRecord
  2
NEMA17_fixing_plate_Y_axis
 70
    0
280
    1
281
    0
  0
BLOCK_RECORD
  5
5F
330
1
100
AcDbSymbolTableRecord
100
AcDbBlockTableRecord
  2
Y_axis_idler
 70
    0
280
    1
281
    0
  0
BLOCK_RECORD
  5
62
330
1
100
AcDbSymbolTableRecord
100
AcDbBlockTableRecord
  2
Y_axis_rod_end
 70
    0
280
    1
281
    0
  0
BLOCK_RECORD
  5
65
330
1
100
AcDbSymbolTableRecord
100
AcDbBlockTableRecord
  2
NEMA17_fixing_plate_Z_axis
 70
    0
280
    1
281
    0
  0
BLOCK_RECORD
  5
68
330
1
100
AcDbSymbolTableRecord
100
AcDbBlockTableRecord
  2
Z_axis_top
 70
    0
280
    1
281
    0
  0
BLOCK_RECORD
  5
6B
330
1
100
AcDbSymbolTableRecord
100
AcDbBlockTableRecord
  2
Z_axis_top_rod_end
 70
    0
280
    1
281
    0
  0
BLOCK_RECORD
  5
6E
330
1
100
AcDbSymbolTableRecord
100
AcDbBlockTableRecord
  2
NEMA17_fixing_plate_support
 70
    0
280
    1
281
    0
  0
BLOCK_RECORD
  5
71
330
1
100
AcDbSymbolTableRecord
100
AcDbBlockTableRecord
  2
NEMA17_fixing_plate_support-1
 70
    0
280
    1
281
    0
  0
BLOCK_RECORD
  5
74
330
1
100
AcDbSymbolTableRecord
100
AcDbBlockTableRecord
  2
print_bed
 70
    0
280
    1
281
    0
  0
BLOCK_RECORD
  5
77
330
1
100
AcDbSymbolTableRecord
100
AcDbBlockTableRecord
  2
Y_axis_base_front
 70
    0
280
    1
281
    0
  0
BLOCK_RECORD
  5
7A
330
1
100
AcDbSymbolTableRecord
100
AcDbBlockTableRecord
  2
Y_axis_base_rear
 70
    0
280
    1
281
    0
  0
BLOCK_RECORD
  5
7D
330
1
100
AcDbSymbolTableRecord
100
AcDbBlockTableRecord
  2
front_frame
 70
    0
280
    1
281
    0
  0
ENDTAB
  0
ENDSEC
  0
SECTION
  2
BLOCKS
  0
BLOCK
  5
20
330
1F
100
AcDbEntity
  8
0
100
AcDbBlockBegin
  2
*Model_Space
 70
    0
 10
0
 20
0
 30
0
  3
*Model_Space
  1

  0
ENDBLK
  5
21
330
1F
100
AcDbEntity
  8
0
100
AcDbBlockEnd
  0
BLOCK
  5
1C
330
1B
100
AcDbEntity
  8
0
100
AcDbBlockBegin
  2
*Paper_Space
 70
    0
 10
0
 20
0
 30
0
  3
*Paper_Space
  1

  0
ENDBLK
  5
1D
330
1F
100
AcDbEntity
  8
0
100
AcDbBlockEnd
  0
BLOCK
  5
4E
330
4D
100
AcDbEntity
  8
0
100
AcDbBlockBegin
  2
left_frame
 70
    0
 10
0
 20
0
  3
left_frame
  1

  0
LWPOLYLINE
  5
80
100
AcDbEntity
  8
0
  6
ByLayer
 62
    0
370
   -1
100
AcDbPolyline
 90
    4
 70
    1
 43
0
 10
124.1495360340447
 20
15.31965202723578
 10
116.1495350340447
 20
15.31965202723578
 42
-0.9999999999999999
 10
116.1495350340447
 20
23.31965202723578
 10
124.1495350340447
 20
23.31965202723578
 42
-0.9999999131120491
  0
LWPOLYLINE
  5
81
100
AcDbEntity
  8
0
  6
ByLayer
 62
    0
370
   -1
100
AcDbPolyline
 90
    4
 70
    1
 43
0
 10
84.14953503404467
 20
23.31965202723578
 42
-0.9999999131120491
 10
84.14953603404467
 20
15.31965202723578
 10
76.14953503404467
 20
15.31965202723578
 42
-0.9999999999999999
 10
76.14953503404467
 20
23.31965202723578
  0
LWPOLYLINE
  5
82
100
AcDbEntity
  8
0
  6
ByLayer
 62
    0
370
   -1
100
AcDbPolyline
 90
    4
 70
    1
 43
0
 10
44.14953603404467
 20
15.31965202723578
 10
36.14953503404467
 20
15.31965202723578
 42
-0.9999999999999999
 10
36.14953503404467
 20
23.31965202723578
 10
44.14953503404467
 20
23.31965202723578
 42
-0.9999999131120499
  0
LWPOLYLINE
  5
83
100
AcDbEntity
  8
0
  6
ByLayer
 62
    0
370
   -1
100
AcDbPolyline
 90
    4
 70
    1
 43
0
 10
76.14953503404467
 20
118.3196520272358
 10
84.14953503404467
 20
118.3196520272357
 42
-0.9999999131120491
 10
84.14953603404467
 20
110.3196520272358
 10
76.14953503404467
 20
110.3196520272358
 42
-0.9999999999999999
  0
LWPOLYLINE
  5
84
100
AcDbEntity
  8
0
  6
ByLayer
 62
    0
370
   -1
100
AcDbPolyline
 90
    4
 70
    1
 43
0
 10
116.1495350340447
 20
118.3196520272358
 10
124.1495350340447
 20
118.3196520272357
 42
-0.9999999131120491
 10
124.1495360340447
 20
110.3196520272358
 10
116.1495350340447
 20
110.3196520272358
 42
-0.9999999999999999
  0
LWPOLYLINE
  5
85
100
AcDbEntity
  8
0
  6
ByLayer
 62
    0
370
   -1
100
AcDbPolyline
 90
    4
 70
    1
 43
0
 10
115.1495340340447
 20
170.3196490272359
 10
115.1495340340447
 20
178.3196490272359
 42
-0.9999999789265744
 10
123.1495340340447
 20
178.3196490272359
 10
123.1495340340447
 20
170.3196480272359
 42
-0.9999999131120526
  0
LWPOLYLINE
  5
86
100
AcDbEntity
  8
0
  6
ByLayer
 62
    0
370
   -1
100
AcDbPolyline
 90
    4
 70
    1
 43
0
 10
123.1495340340447
 20
238.3196490272358
 10
123.1495340340447
 20
230.3196480272359
 42
-0.9999999131120491
 10
115.1495340340447
 20
230.3196490272358
 10
115.1495340340447
 20
238.3196490272359
 42
-0.999999978926578
  0
LWPOLYLINE
  5
87
100
AcDbEntity
  8
0
  6
ByLayer
 62
    0
370
   -1
100
AcDbPolyline
 90
    4
 70
    1
 43
0
 10
123.1495340340447
 20
298.3196490272358
 10
123.1495340340447
 20
290.319648027236
 42
-0.9999999131120455
 10
115.1495340340447
 20
290.3196490272358
 10
115.1495340340447
 20
298.3196490272358
 42
-0.9999999789265815
  0
LWPOLYLINE
  5
88
100
AcDbEntity
  8
0
  6
ByLayer
 62
    0
370
   -1
100
AcDbPolyline
 90
    4
 70
    1
 43
0
 10
123.1495340340447
 20
358.3196490272356
 10
123.1495340340447
 20
350.3196480272358
 42
-0.9999999131120526
 10
115.1495340340447
 20
350.3196490272358
 10
115.1495340340447
 20
358.3196490272356
 42
-0.9999999789265815
  0
LWPOLYLINE
  5
89
100
AcDbEntity
  8
0
  6
ByLayer
 62
    0
370
   -1
100
AcDbPolyline
 90
   16
 70
    1
 43
0
 10
281.0730310340424
 20
30.41970423145553
 42
-0.2679482664649816
 10
281.5060430340425
 20
30.66970323145554
 10
285.9739930340425
 20
30.66970323145546
 42
-0.2679491924310486
 10
286.4070050340428
 20
30.41970323145551
 42
1.303223041599626
 10
287.0900190340425
 20
31.10271523145547
 42
-0.2679482664650022
 10
286.8400210340425
 20
31.53572723145553
 10
286.8400180340424
 20
33.10359723145553
 42
-0.2679491924309796
 10
287.0900180340424
 20
33.53661023145551
 42
1.30322304160027
 10
286.4070070340426
 20
34.21962423145532
 42
-0.2679482617890568
 10
285.9739950340425
 20
33.9696262314556
 10
281.5060450340424
 20
33.9696232314557
 42
-0.2679491924309751
 10
281.0730320340427
 20
34.2196232314555
 42
1.303223041600655
 10
280.3900180340425
 20
33.5366112314553
 42
-0.2679482664649404
 10
280.6400170340425
 20
33.10359923145549
 10
280.6400200340426
 20
31.53573223145553
 42
-0.2679491924309582
 10
280.3900200340426
 20
31.10271823145569
 42
1.303223041600472
  0
LWPOLYLINE
  5
8A
100
AcDbEntity
  8
0
  6
ByLayer
 62
    0
370
   -1
100
AcDbPolyline
 90
   16
 70
    1
 43
0
 10
302.2730310340424
 20
34.21962323145559
 42
1.303223041600148
 10
301.5900170340424
 20
33.53661123145545
 42
-0.2679482664649839
 10
301.8400160340426
 20
33.10359923145549
 10
301.8400190340424
 20
31.53573223145553
 42
-0.2679491924310029
 10
301.5900190340424
 20
31.10271823145559
 42
1.303223041599787
 10
302.2730310340423
 20
30.41970423145553
 42
-0.2679482664650064
 10
302.7060430340424
 20
30.66970323145567
 10
307.1739920340425
 20
30.66970323145549
 42
-0.267949192431001
 10
307.6070050340422
 20
30.4197032314557
 42
1.303223041600464
 10
308.2900190340424
 20
31.10271523145563
 42
-0.267948266465026
 10
308.0400210340424
 20
31.53572723145553
 10
308.0400180340424
 20
33.10359723145553
 42
-0.2679491924309284
 10
308.2900180340424
 20
33.53661023145546
 42
1.303223041600228
 10
307.6070060340429
 20
34.21962423145547
 42
-0.2679482664649833
 10
307.1739940340426
 20
33.96962623145559
 10
302.7060440340424
 20
33.96962323145549
 42
-0.2679491924309713
  0
CIRCLE
  5
8B
100
AcDbEntity
  8
0
  6
ByLayer
 62
    0
370
   -1
100
AcDbCircle
 10
294.3400190340425
 20
32.31966523145552
 40
1.6
  0
LWPOLYLINE
  5
8C
100
AcDbEntity
  8
0
  6
ByLayer
 62
    0
370
   -1
100
AcDbPolyline
 90
   16
 70
    1
 43
0
 10
214.6591870340468
 20
33.10359174968291
 42
-0.2679491924310133
 10
214.9091870340469
 20
33.53660474968287
 42
1.303223041600154
 10
214.2261750340468
 20
34.21961874968293
 42
-0.2679482664649733
 10
213.7931630340469
 20
33.9696207496829
 10
209.3252130340469
 20
33.96961774968293
 42
-0.2679491924309965
 10
208.8922000340469
 20
34.21961774968293
 42
1.303223041600063
 10
208.2091860340468
 20
33.53660574968293
 42
-0.2679482664650315
 10
208.4591850340469
 20
33.10359374968292
 10
208.4591880340469
 20
31.53572674968289
 42
-0.2679491924309877
 10
208.2091880340469
 20
31.10271274968298
 42
1.303223041600012
 10
208.8922000340469
 20
30.41969874968294
 42
-0.2679482664650026
 10
209.3252120340468
 20
30.66969774968291
 10
213.7931610340469
 20
30.669697749683
 42
-0.2679491924310091
 10
214.2261740340468
 20
30.4196977496829
 42
1.303223041599967
 10
214.9091880340469
 20
31.10270974968288
 42
-0.267948266465017
 10
214.6591900340468
 20
31.53572174968291
  0
LWPOLYLINE
  5
8D
100
AcDbEntity
  8
0
  6
ByLayer
 62
    0
370
   -1
100
AcDbPolyline
 90
   16
 70
    1
 43
0
 10
187.0091890340469
 20
31.1027127496829
 42
1.303223041600092
 10
187.6922000340468
 20
30.41969874968283
 42
-0.2679482664650014
 10
188.1252120340469
 20
30.66969774968291
 10
192.5931620340469
 20
30.669697749683
 42
-0.2679491924310193
 10
193.0261740340469
 20
30.419697749683
 42
1.303223041599901
 10
193.709188034047
 20
31.10270974968293
 42
-0.2679482664649846
 10
193.4591900340469
 20
31.53572174968291
 10
193.4591870340468
 20
33.10359174968291
 42
-0.2679491924310061
 10
193.7091870340469
 20
33.53660474968294
 42
1.303223041599852
 10
193.0261760340469
 20
34.21961874968299
 42
-0.2679482617889911
 10
192.5931640340469
 20
33.96962074968296
 10
188.1252140340469
 20
33.96961774968296
 42
-0.2679491924309853
 10
187.6922010340469
 20
34.21961774968293
 42
1.303223041599985
 10
187.0091870340469
 20
33.53660574968295
 42
-0.2679482664650186
 10
187.2591860340469
 20
33.10359374968292
 10
187.2591890340469
 20
31.53572674968285
 42
-0.2679491924309915
  0
CIRCLE
  5
8E
100
AcDbEntity
  8
0
  6
ByLayer
 62
    0
370
   -1
100
AcDbCircle
 10
200.9591880340469
 20
32.31965974968287
 40
1.6
  0
LWPOLYLINE
  5
8F
100
AcDbEntity
  8
0
  6
ByLayer
 62
  256
370
   -1
100
AcDbPolyline
 90
  211
 70
    0
 43
0
 10
9.649563034044718
 20
51.77010002723578
 10
11.09019303404466
 20
51.77010002723578
 42
0.3333698242440117
 10
11.57021103404469
 20
52.1301630272358
 10
108.1239000340447
 20
384.2196070272357
 10
116.8995300340446
 20
384.2196070272357
 10
116.8995300340446
 20
381.2196350272358
 10
115.6245360340446
 20
381.2196350272358
 10
115.6245360340446
 20
377.2196070272358
 10
116.8995300340446
 20
377.2196070272358
 10
116.8995300340446
 20
374.2196070272357
 10
120.0995410340447
 20
374.2196070272357
 10
120.0995410340447
 20
377.2196070272358
 10
121.3745360340446
 20
377.2196070272358
 10
121.3745360340446
 20
381.2196350272358
 10
120.0995410340447
 20
381.2196350272358
 10
120.0995410340447
 20
384.2196070272357
 10
127.6335120340447
 20
384.219604027236
 42
-0.2679482664650028
 10
128.0665240340447
 20
383.9696050272358
 42
1.303223029819995
 10
128.7495360340446
 20
384.6526190272361
 42
-0.2679491924310173
 10
128.4995360340447
 20
385.085632027236
 10
128.4995360340446
 20
387.3196790272359
 10
139.1495350340447
 20
387.3196790272359
 10
139.1495350340447
 20
376.7856790272359
 42
-0.267949192431051
 10
138.8995350340447
 20
376.3526660272361
 42
1.303223041599862
 10
139.5825470340446
 20
375.6696510272361
 42
-0.2679482664649964
 10
140.0155590340446
 20
375.9196500272359
 10
141.6495870340447
 20
375.9196500272357
 42
-0.4142135623730118
 10
142.1495870340446
 20
375.4196500272361
 10
142.1495870340447
 20
370.4196530272357
 42
-0.4142135623730617
 10
141.6495870340446
 20
369.9196530272361
 10
140.0155610340447
 20
369.9196560272358
 42
-0.2679491924310084
 10
139.5825480340447
 20
370.1696560272358
 42
1.303223041600042
 10
138.8995330340447
 20
369.4866440272361
 42
-0.2679482664650343
 10
139.1495320340447
 20
369.0536320272359
 10
139.1495350340447
 20
363.9196670272358
 10
136.1495630340446
 20
363.9196670272358
 10
136.1495630340446
 20
365.1946620272357
 10
132.1495350340447
 20
365.1946620272357
 10
132.1495350340447
 20
363.9196670272358
 10
129.1495350340447
 20
363.9196670272358
 10
129.1495350340447
 20
360.7196560272359
 10
132.1495350340447
 20
360.7196560272359
 10
132.1495350340447
 20
359.4446620272358
 10
136.1495630340446
 20
359.4446620272358
 10
136.1495630340446
 20
360.7196560272359
 10
139.1495350340447
 20
360.7196560272359
 10
139.1495350340447
 20
355.585662027236
 42
-0.2679491924309696
 10
138.8995350340447
 20
355.1526490272357
 42
1.303223041599734
 10
139.5825470340448
 20
354.4696350272358
 42
-0.2679482664649916
 10
140.0155590340447
 20
354.7196340272358
 10
141.6495870340447
 20
354.7196340272358
 42
-0.4142135623730284
 10
142.1495870340446
 20
354.2196340272358
 10
142.1495870340447
 20
349.2196370272358
 42
-0.4142135623730284
 10
141.6495870340446
 20
348.7196370272358
 10
140.0155610340447
 20
348.7196400272356
 42
-0.2679491924310393
 10
139.5825480340445
 20
348.9696400272356
 42
1.303223041600202
 10
138.8995330340447
 20
348.2866280272362
 42
-0.2679482664650273
 10
139.1495320340447
 20
347.8536160272359
 10
139.1495350340447
 20
216.7856820272359
 42
-0.2679491924309829
 10
138.8995350340447
 20
216.3526690272356
 42
1.303223041599856
 10
139.5825470340446
 20
215.6696550272358
 42
-0.2679482664650073
 10
140.0155590340447
 20
215.9196540272358
 10
141.6495870340447
 20
215.9196540272358
 42
-0.4142135623729619
 10
142.1495870340447
 20
215.4196540272358
 10
142.1495870340447
 20
210.4196560272358
 42
-0.4142135623730284
 10
141.6495870340447
 20
209.9196560272358
 10
140.0155610340447
 20
209.9196590272358
 42
-0.2679491924309994
 10
139.5825480340446
 20
210.1696590272358
 42
1.303223041599867
 10
138.8995330340447
 20
209.4866470272357
 42
-0.2679482664650786
 10
139.1495320340447
 20
209.0536360272358
 10
139.1495350340447
 20
203.9196710272358
 10
136.1495630340447
 20
203.9196710272358
 10
136.1495630340447
 20
205.1946650272359
 10
132.1495350340447
 20
205.1946650272359
 10
132.1495350340447
 20
203.9196710272358
 10
129.1495350340447
 20
203.9196710272358
 10
129.1495350340447
 20
200.7196600272358
 10
132.1495350340447
 20
200.7196600272358
 10
132.1495350340447
 20
199.4446650272358
 10
136.1495630340447
 20
199.4446650272358
 10
136.1495630340447
 20
200.7196600272358
 10
139.1495350340447
 20
200.7196600272358
 10
139.1495350340447
 20
195.5856660272359
 42
-0.2679491924309991
 10
138.8995350340447
 20
195.1526530272358
 42
1.303223041599919
 10
139.5825470340447
 20
194.4696390272359
 42
-0.267948266465009
 10
140.0155590340447
 20
194.719638027236
 10
141.6495870340447
 20
194.7196380272359
 42
-0.4142135623730284
 10
142.1495870340447
 20
194.2196380272359
 10
142.1495870340447
 20
189.2196400272359
 42
-0.4142135623729951
 10
141.6495870340446
 20
188.7196400272359
 10
140.0155610340447
 20
188.7196430272358
 42
-0.2679491924309951
 10
139.5825480340447
 20
188.9696430272358
 42
1.303223041599953
 10
138.8995330340447
 20
188.2866310272358
 42
-0.2679482664650946
 10
139.1495320340447
 20
187.8536200272358
 10
139.1495350340447
 20
96.78567802723582
 42
-0.2679491924310134
 10
138.8995350340447
 20
96.35266502723589
 42
1.303223041599729
 10
139.5825470340446
 20
95.66965102723572
 42
-0.2679482664649307
 10
140.0155590340447
 20
95.91965002723582
 10
141.6495870340447
 20
95.9196500272358
 42
-0.4142135623729868
 10
142.1495870340446
 20
95.41965002723582
 10
142.1495870340447
 20
90.41965302723582
 42
-0.4142135623729951
 10
141.6495870340446
 20
89.91965302723582
 10
140.0155610340447
 20
89.9196560272359
 42
-0.2679491924310155
 10
139.5825480340446
 20
90.16965602723582
 42
1.303223041599712
 10
138.8995330340447
 20
89.48664402723583
 42
-0.2679482664650227
 10
139.1495320340447
 20
89.05363202723572
 10
139.1495350340447
 20
83.91966702723577
 10
136.1495630340447
 20
83.91966702723577
 10
136.1495630340447
 20
85.19466102723577
 10
132.1495350340447
 20
85.19466102723577
 10
132.1495350340447
 20
83.91966702723577
 10
129.1495350340447
 20
83.91966702723577
 10
129.1495350340447
 20
80.71965602723587
 10
132.1495350340447
 20
80.71965602723587
 10
132.1495350340447
 20
79.44466102723588
 10
136.1495630340447
 20
79.44466102723588
 10
136.1495630340447
 20
80.71965602723587
 10
139.1495350340447
 20
80.71965602723587
 10
139.1495350340447
 20
75.58566202723578
 42
-0.2679491924309872
 10
138.8995350340447
 20
75.15264902723584
 42
1.303223041600282
 10
139.5825470340449
 20
74.46963502723575
 42
-0.2679482664649988
 10
140.0155590340447
 20
74.71963402723581
 10
141.6495870340447
 20
74.71963402723581
 42
-0.4142135623729785
 10
142.1495870340446
 20
74.21963402723578
 10
142.1495870340447
 20
69.21963602723581
 42
-0.4142135623729785
 10
141.6495870340446
 20
68.71963602723578
 10
140.0155610340447
 20
68.7196390272358
 42
-0.2679491924309917
 10
139.5825480340446
 20
68.96963902723583
 42
1.303223041600012
 10
138.8995330340447
 20
68.28662702723578
 42
-0.2679482664650072
 10
139.1495320340447
 20
67.85361602723582
 10
139.1495320340447
 20
57.85361602723575
 10
139.1495350340447
 20
46.78567802723578
 42
-0.2679491924310215
 10
138.8995350340447
 20
46.35266502723581
 42
1.303223041600013
 10
139.5825470340446
 20
45.66965102723578
 42
-0.2679482664649971
 10
140.0155590340446
 20
45.91965002723585
 10
355.6496100340447
 20
45.91965002723581
 42
-0.4142135623730284
 10
356.1496180340448
 20
45.41965002723581
 10
356.1496180340446
 20
40.4196530272358
 42
-0.4142135623730326
 10
355.6496180340446
 20
39.91965302723592
 10
354.0155920340447
 20
39.9196560272358
 42
-0.2679491924310255
 10
353.5825790340447
 20
40.16965602723592
 42
1.303223041599645
 10
352.8995640340447
 20
39.48664402723599
 42
-0.2679482664650324
 10
353.1495630340447
 20
39.05363202723581
 10
353.1495660340447
 20
33.91966702723576
 10
350.1495940340447
 20
33.91966702723576
 10
350.1495940340447
 20
35.19466102723576
 10
346.1495660340447
 20
35.19466102723576
 10
346.1495660340447
 20
33.91966702723576
 10
343.1495660340447
 20
33.91966702723576
 10
343.1495660340447
 20
30.71965602723575
 10
346.1495660340447
 20
30.71965602723575
 10
346.1495660340447
 20
29.44466102723576
 10
350.1495940340447
 20
29.44466102723576
 10
350.1495940340447
 20
30.71965602723575
 10
353.1495660340447
 20
30.71965602723575
 10
353.1495660340447
 20
25.58566202723577
 42
-0.2679491924309753
 10
352.8995660340447
 20
25.15264902723575
 42
1.303223029819624
 10
353.5825780340446
 20
24.46963502723579
 42
-0.2679482664650133
 10
354.0155900340447
 20
24.71963402723577
 10
355.6496180340446
 20
24.71963402723576
 42
-0.414213562373018
 10
356.1496180340446
 20
24.21963402723577
 10
356.1496180340446
 20
19.2196360272358
 42
-0.414213562373018
 10
355.6496180340446
 20
18.71963602723581
 10
355.6496180340446
 20
18.71963602723574
 10
140.0155610340447
 20
18.71963902723579
 42
-0.267949192431002
 10
139.5825480340446
 20
18.96963902723577
 42
1.303223041599925
 10
138.8995330340447
 20
18.28662702723578
 42
-0.2679482664650565
 10
139.1495320340447
 20
17.85361602723579
 10
139.1495350340447
 20
9.319652027235785
 10
37.14953703404467
 20
9.319652027235785
 10
35.14953303404468
 20
7.319652027235785
 10
9.149565034044713
 20
7.319652027235785
 10
9.14956603404471
 20
17.85361602723575
 42
-0.2679482804949955
 10
9.399564034044715
 20
18.28662802723577
 42
1.30322304159997
 10
8.716550034044644
 20
18.96963902723576
 42
-0.2679491924310053
 10
8.283538034044625
 20
18.71963902723576
 10
6.649511034044622
 20
18.7196360272358
 42
-0.4142135623729931
 10
6.149511034044679
 20
19.21963602723577
 10
6.149511034044622
 20
24.21963402723581
 42
-0.4142135623730008
 10
6.649511034044679
 20
24.71963402723577
 10
8.283540034044677
 20
24.71963402723581
 42
-0.2679482664650092
 10
8.716552034044696
 20
24.46963502723577
 42
1.303223041600054
 10
9.399563034044775
 20
25.1526490272358
 42
-0.2679491924309959
 10
9.149563034044661
 20
25.58566202723581
 10
9.149563034044718
 20
30.71965602723575
 10
12.14953503404467
 20
30.71965602723575
 10
12.14953503404467
 20
29.44466102723576
 10
16.14956303404472
 20
29.44466102723576
 10
16.14956303404472
 20
30.71965602723575
 10
19.14956303404472
 20
30.71965602723575
 10
19.14956303404472
 20
33.91966702723576
 10
16.14956303404472
 20
33.91966702723576
 10
16.14956303404472
 20
35.19466102723576
 10
12.14953503404467
 20
35.19466102723576
 10
12.14953503404467
 20
33.91966702723576
 10
9.149563034044718
 20
33.91966702723576
 10
9.14956603404471
 20
39.05363202723575
 42
-0.2679482664650084
 10
9.399564034044658
 20
39.4866440272358
 42
1.303223041600023
 10
8.716550034044644
 20
40.16965602723576
 42
-0.2679491924310048
 10
8.283538034044625
 20
39.91965602723576
 10
6.649511034044622
 20
39.9196530272358
 42
-0.4142135623729993
 10
6.149511034044679
 20
40.41965302723577
 10
6.149511034044622
 20
45.41965002723581
 42
-0.4142135623729951
 10
6.649511034044679
 20
45.91965002723578
 10
8.283540034044677
 20
45.91965002723581
 42
-0.267948266465001
 10
8.716552034044698
 20
45.66965102723575
 42
1.303223041599981
 10
9.399563034044663
 20
46.35266502723578
 42
-0.2679491924310023
 10
9.149563034044659
 20
46.78567802723578
 10
9.149563034044718
 20
51.27010002723578
 10
9.149563034044718
 20
51.77014102723579
 10
9.648952034044669
 20
51.77010002723578
  0
CIRCLE
  5
90
100
AcDbEntity
  8
0
  6
ByLayer
 62
    0
370
   -1
100
AcDbCircle
 10
35.64957530600003
 20
91.69617213279565
 40
1.6
  0
CIRCLE
  5
91
100
AcDbEntity
  8
0
  6
ByLayer
 62
    0
370
   -1
100
AcDbCircle
 10
110.1495350340447
 20
91.61645780877512
 40
1.6
  0
CIRCLE
  5
92
100
AcDbEntity
  8
0
  6
ByLayer
 62
    0
370
   -1
100
AcDbCircle
 10
116.3101321863401
 20
43.4144054486616
 40
1.6
  0
CIRCLE
  5
93
100
AcDbEntity
  8
0
  6
ByLayer
 62
    0
370
   -1
100
AcDbCircle
 10
33.11017536538805
 20
43.50123197367068
 40
1.6
  0
LWPOLYLINE
  5
94
100
AcDbEntity
  8
0
  6
ByLayer
 62
  256
370
   -1
100
AcDbPolyline
 90
   16
 70
    1
 43
0
 10
62.92819620696116
 20
44.99153554435669
 42
-0.198912336059004
 10
58.68412099355078
 20
46.74542562283843
 10
42.18536787691868
 20
63.21722548913935
 42
-0.1989123583080017
 10
40.42454012902136
 20
67.45842843956692
 10
40.4204285926071
 20
72.48786375898761
 42
-0.1989123583079996
 10
42.1743186702713
 20
76.73193997239791
 10
58.6461195373895
 20
93.23069208984765
 42
-0.1989123360569981
 10
62.8872724878338
 20
94.99151979687014
 10
77.91670545677607
 20
95.0038172777637
 42
-0.1989123175239974
 10
82.16078166691608
 20
93.24993120009792
 10
98.65954377210028
 20
76.77814534114978
 42
-0.1989124853149996
 10
100.420376518361
 20
72.53694439480903
 10
100.424492054774
 20
67.5075090786582
 42
-0.1989124853150059
 10
98.67060397874394
 20
63.26343086688373
 10
82.19882112388223
 20
46.76466376415377
 42
-0.1989123174889991
 10
77.95762117508855
 20
45.0038340187098
  0
ENDBLK
  5
4F
330
4D
100
AcDbEntity
  8
0
100
AcDbBlockEnd
  0
BLOCK
  5
51
330
50
100
AcDbEntity
  8
0
100
AcDbBlockBegin
  2
right_frame
 70
    0
 10
0
 20
0
  3
right_frame
  1

  0
LWPOLYLINE
  5
95
100
AcDbEntity
  8
0
  6
ByLayer
 62
    0
370
   -1
100
AcDbPolyline
 90
    4
 70
    1
 43
0
 10
124.1495360340447
 20
15.31965202723578
 10
116.1495350340447
 20
15.31965202723578
 42
-0.9999999999999999
 10
116.1495350340447
 20
23.31965202723578
 10
124.1495350340447
 20
23.31965202723578
 42
-0.9999999131120491
  0
LWPOLYLINE
  5
96
100
AcDbEntity
  8
0
  6
ByLayer
 62
    0
370
   -1
100
AcDbPolyline
 90
    4
 70
    1
 43
0
 10
84.14953503404467
 20
23.31965202723578
 42
-0.9999999131120491
 10
84.14953603404467
 20
15.31965202723578
 10
76.14953503404467
 20
15.31965202723578
 42
-0.9999999999999999
 10
76.14953503404467
 20
23.31965202723578
  0
LWPOLYLINE
  5
97
100
AcDbEntity
  8
0
  6
ByLayer
 62
    0
370
   -1
100
AcDbPolyline
 90
    4
 70
    1
 43
0
 10
44.14953603404467
 20
15.31965202723578
 10
36.14953503404467
 20
15.31965202723578
 42
-0.9999999999999999
 10
36.14953503404467
 20
23.31965202723578
 10
44.14953503404467
 20
23.31965202723578
 42
-0.9999999131120499
  0
LWPOLYLINE
  5
98
100
AcDbEntity
  8
0
  6
ByLayer
 62
    0
370
   -1
100
AcDbPolyline
 90
    4
 70
    1
 43
0
 10
76.14953503404467
 20
118.3196520272358
 10
84.14953503404467
 20
118.3196520272357
 42
-0.9999999131120491
 10
84.14953603404467
 20
110.3196520272358
 10
76.14953503404467
 20
110.3196520272358
 42
-0.9999999999999999
  0
LWPOLYLINE
  5
99
100
AcDbEntity
  8
0
  6
ByLayer
 62
    0
370
   -1
100
AcDbPolyline
 90
    4
 70
    1
 43
0
 10
116.1495350340447
 20
118.3196520272358
 10
124.1495350340447
 20
118.3196520272357
 42
-0.9999999131120491
 10
124.1495360340447
 20
110.3196520272358
 10
116.1495350340447
 20
110.3196520272358
 42
-0.9999999999999999
  0
LWPOLYLINE
  5
9A
100
AcDbEntity
  8
0
  6
ByLayer
 62
    0
370
   -1
100
AcDbPolyline
 90
    4
 70
    1
 43
0
 10
115.1495340340447
 20
170.3196490272359
 10
115.1495340340447
 20
178.3196490272359
 42
-0.9999999789265744
 10
123.1495340340447
 20
178.3196490272359
 10
123.1495340340447
 20
170.3196480272359
 42
-0.9999999131120526
  0
LWPOLYLINE
  5
9B
100
AcDbEntity
  8
0
  6
ByLayer
 62
    0
370
   -1
100
AcDbPolyline
 90
    4
 70
    1
 43
0
 10
123.1495340340447
 20
238.3196490272358
 10
123.1495340340447
 20
230.3196480272359
 42
-0.9999999131120491
 10
115.1495340340447
 20
230.3196490272358
 10
115.1495340340447
 20
238.3196490272359
 42
-0.999999978926578
  0
LWPOLYLINE
  5
9C
100
AcDbEntity
  8
0
  6
ByLayer
 62
    0
370
   -1
100
AcDbPolyline
 90
    4
 70
    1
 43
0
 10
123.1495340340447
 20
298.3196490272358
 10
123.1495340340447
 20
290.319648027236
 42
-0.9999999131120455
 10
115.1495340340447
 20
290.3196490272358
 10
115.1495340340447
 20
298.3196490272358
 42
-0.9999999789265815
  0
LWPOLYLINE
  5
9D
100
AcDbEntity
  8
0
  6
ByLayer
 62
    0
370
   -1
100
AcDbPolyline
 90
    4
 70
    1
 43
0
 10
123.1495340340447
 20
358.3196490272356
 10
123.1495340340447
 20
350.3196480272358
 42
-0.9999999131120526
 10
115.1495340340447
 20
350.3196490272358
 10
115.1495340340447
 20
358.3196490272356
 42
-0.9999999789265815
  0
LWPOLYLINE
  5
9E
100
AcDbEntity
  8
0
  6
ByLayer
 62
    0
370
   -1
100
AcDbPolyline
 90
   16
 70
    1
 43
0
 10
281.0730310340424
 20
30.41970423145553
 42
-0.2679482664649816
 10
281.5060430340425
 20
30.66970323145554
 10
285.9739930340425
 20
30.66970323145546
 42
-0.2679491924310486
 10
286.4070050340428
 20
30.41970323145551
 42
1.303223041599624
 10
287.0900190340425
 20
31.10271523145547
 42
-0.2679482664650013
 10
286.8400210340425
 20
31.53572723145553
 10
286.8400180340424
 20
33.10359723145553
 42
-0.26794919243097
 10
287.0900180340424
 20
33.53661023145548
 42
1.30322304160042
 10
286.4070070340426
 20
34.21962423145531
 42
-0.2679482617890465
 10
285.9739950340424
 20
33.9696262314556
 10
281.5060450340425
 20
33.96962323145571
 42
-0.2679491924310129
 10
281.0730320340426
 20
34.21962323145548
 42
1.303223041600423
 10
280.3900180340424
 20
33.53661123145543
 42
-0.2679482664650064
 10
280.6400170340426
 20
33.10359923145549
 10
280.6400200340427
 20
31.53573223145553
 42
-0.2679491924310224
 10
280.3900200340427
 20
31.10271823145549
 42
1.303223041599958
  0
LWPOLYLINE
  5
9F
100
AcDbEntity
  8
0
  6
ByLayer
 62
    0
370
   -1
100
AcDbPolyline
 90
   16
 70
    1
 43
0
 10
302.2730310340423
 20
34.21962323145561
 42
1.303223041599965
 10
301.5900170340424
 20
33.53661123145549
 42
-0.267948266465001
 10
301.8400160340426
 20
33.10359923145549
 10
301.8400190340424
 20
31.53573223145553
 42
-0.2679491924310029
 10
301.5900190340424
 20
31.10271823145559
 42
1.303223041599787
 10
302.2730310340423
 20
30.41970423145553
 42
-0.2679482664650064
 10
302.7060430340424
 20
30.66970323145567
 10
307.1739920340425
 20
30.66970323145549
 42
-0.2679491924310043
 10
307.6070050340422
 20
30.4197032314557
 42
1.303223041600459
 10
308.2900190340424
 20
31.10271523145562
 42
-0.2679482664650327
 10
308.0400210340424
 20
31.53572723145553
 10
308.0400180340424
 20
33.10359723145553
 42
-0.2679491924309284
 10
308.2900180340424
 20
33.53661023145546
 42
1.303223041600228
 10
307.6070060340429
 20
34.21962423145547
 42
-0.2679482664649833
 10
307.1739940340426
 20
33.96962623145559
 10
302.7060440340424
 20
33.96962323145549
 42
-0.267949192430936
  0
CIRCLE
  5
A0
100
AcDbEntity
  8
0
  6
ByLayer
 62
    0
370
   -1
100
AcDbCircle
 10
294.3400190340425
 20
32.31966523145552
 40
1.6
  0
LWPOLYLINE
  5
A1
100
AcDbEntity
  8
0
  6
ByLayer
 62
    0
370
   -1
100
AcDbPolyline
 90
   16
 70
    1
 43
0
 10
214.6591870340468
 20
33.10359174968291
 42
-0.2679491924310133
 10
214.9091870340469
 20
33.53660474968287
 42
1.303223041600154
 10
214.2261750340468
 20
34.21961874968293
 42
-0.2679482664649733
 10
213.7931630340469
 20
33.9696207496829
 10
209.3252130340469
 20
33.96961774968293
 42
-0.2679491924309965
 10
208.8922000340469
 20
34.21961774968293
 42
1.303223041600063
 10
208.2091860340468
 20
33.53660574968293
 42
-0.2679482664650315
 10
208.4591850340469
 20
33.10359374968292
 10
208.4591880340469
 20
31.53572674968289
 42
-0.2679491924309877
 10
208.2091880340469
 20
31.10271274968298
 42
1.303223041600012
 10
208.8922000340469
 20
30.41969874968294
 42
-0.2679482664650026
 10
209.3252120340468
 20
30.66969774968291
 10
213.7931610340469
 20
30.669697749683
 42
-0.2679491924310091
 10
214.2261740340468
 20
30.4196977496829
 42
1.303223041599967
 10
214.9091880340469
 20
31.10270974968288
 42
-0.267948266465017
 10
214.6591900340468
 20
31.53572174968291
  0
LWPOLYLINE
  5
A2
100
AcDbEntity
  8
0
  6
ByLayer
 62
    0
370
   -1
100
AcDbPolyline
 90
   16
 70
    1
 43
0
 10
187.0091890340469
 20
31.1027127496829
 42
1.303223041600092
 10
187.6922000340468
 20
30.41969874968283
 42
-0.2679482664650014
 10
188.1252120340469
 20
30.66969774968291
 10
192.5931620340469
 20
30.669697749683
 42
-0.2679491924310193
 10
193.0261740340469
 20
30.41969774968299
 42
1.303223041599848
 10
193.709188034047
 20
31.10270974968289
 42
-0.2679482664650086
 10
193.459190034047
 20
31.53572174968291
 10
193.4591870340469
 20
33.10359174968291
 42
-0.2679491924310311
 10
193.7091870340469
 20
33.53660474968302
 42
1.303223041599691
 10
193.0261760340469
 20
34.21961874968301
 42
-0.2679482617890011
 10
192.5931640340469
 20
33.96962074968297
 10
188.1252140340468
 20
33.96961774968296
 42
-0.2679491924309824
 10
187.6922010340469
 20
34.21961774968293
 42
1.303223041599985
 10
187.0091870340469
 20
33.53660574968295
 42
-0.2679482664650186
 10
187.2591860340469
 20
33.10359374968292
 10
187.2591890340469
 20
31.53572674968285
 42
-0.2679491924309915
  0
CIRCLE
  5
A3
100
AcDbEntity
  8
0
  6
ByLayer
 62
    0
370
   -1
100
AcDbCircle
 10
200.9591880340469
 20
32.31965974968287
 40
1.6
  0
LWPOLYLINE
  5
A4
100
AcDbEntity
  8
0
  6
ByLayer
 62
  256
370
   -1
100
AcDbPolyline
 90
  211
 70
    0
 43
0
 10
9.649563034044718
 20
51.77010002723578
 10
11.09019303404466
 20
51.77010002723578
 42
0.3333698242440146
 10
11.57021103404475
 20
52.1301630272358
 10
108.1239000340447
 20
384.2196070272357
 10
116.8995300340446
 20
384.2196070272357
 10
116.8995300340446
 20
381.2196350272358
 10
115.6245360340446
 20
381.2196350272358
 10
115.6245360340446
 20
377.2196070272358
 10
116.8995300340446
 20
377.2196070272358
 10
116.8995300340446
 20
374.2196070272357
 10
120.0995410340447
 20
374.2196070272357
 10
120.0995410340447
 20
377.2196070272358
 10
121.3745360340446
 20
377.2196070272358
 10
121.3745360340446
 20
381.2196350272358
 10
120.0995410340447
 20
381.2196350272358
 10
120.0995410340447
 20
384.2196070272357
 10
127.6335120340447
 20
384.219604027236
 42
-0.2679482664650028
 10
128.0665240340447
 20
383.9696050272358
 42
1.303223029819995
 10
128.7495360340446
 20
384.6526190272361
 42
-0.2679491924310173
 10
128.4995360340447
 20
385.085632027236
 10
128.4995360340446
 20
387.3196790272359
 10
139.1495350340447
 20
387.3196790272359
 10
139.1495350340447
 20
376.7856790272359
 42
-0.267949192431051
 10
138.8995350340447
 20
376.3526660272361
 42
1.303223041599862
 10
139.5825470340446
 20
375.6696510272361
 42
-0.2679482664649964
 10
140.0155590340446
 20
375.9196500272359
 10
141.6495870340448
 20
375.9196500272357
 42
-0.4142135623730284
 10
142.1495870340445
 20
375.4196500272361
 10
142.1495870340448
 20
370.4196530272357
 42
-0.4142135623731117
 10
141.6495870340445
 20
369.9196530272361
 10
140.0155610340447
 20
369.9196560272358
 42
-0.2679491924310084
 10
139.5825480340447
 20
370.1696560272358
 42
1.303223041600042
 10
138.8995330340447
 20
369.4866440272361
 42
-0.2679482664650343
 10
139.1495320340447
 20
369.0536320272359
 10
139.1495350340447
 20
363.9196670272358
 10
136.1495630340446
 20
363.9196670272358
 10
136.1495630340446
 20
365.1946620272357
 10
132.1495350340447
 20
365.1946620272357
 10
132.1495350340447
 20
363.9196670272358
 10
129.1495350340447
 20
363.9196670272358
 10
129.1495350340447
 20
360.7196560272359
 10
132.1495350340447
 20
360.7196560272359
 10
132.1495350340447
 20
359.4446620272358
 10
136.1495630340446
 20
359.4446620272358
 10
136.1495630340446
 20
360.7196560272359
 10
139.1495350340447
 20
360.7196560272359
 10
139.1495350340447
 20
355.585662027236
 42
-0.2679491924309696
 10
138.8995350340447
 20
355.1526490272357
 42
1.303223041599896
 10
139.5825470340449
 20
354.4696350272358
 42
-0.267948266465014
 10
140.0155590340447
 20
354.7196340272358
 10
141.6495870340448
 20
354.7196340272358
 42
-0.4142135623730451
 10
142.1495870340445
 20
354.2196340272358
 10
142.1495870340448
 20
349.2196370272358
 42
-0.4142135623730284
 10
141.6495870340445
 20
348.7196370272358
 10
140.0155610340447
 20
348.7196400272356
 42
-0.2679491924310393
 10
139.5825480340445
 20
348.9696400272356
 42
1.303223041600202
 10
138.8995330340447
 20
348.2866280272362
 42
-0.2679482664650273
 10
139.1495320340447
 20
347.8536160272359
 10
139.1495350340447
 20
216.7856820272359
 42
-0.2679491924309829
 10
138.8995350340447
 20
216.3526690272356
 42
1.303223041599856
 10
139.5825470340446
 20
215.6696550272358
 42
-0.2679482664650073
 10
140.0155590340447
 20
215.9196540272358
 10
141.6495870340448
 20
215.9196540272358
 42
-0.4142135623729619
 10
142.1495870340448
 20
215.4196540272358
 10
142.1495870340448
 20
210.4196560272358
 42
-0.4142135623730284
 10
141.6495870340448
 20
209.9196560272358
 10
140.0155610340447
 20
209.9196590272358
 42
-0.2679491924309994
 10
139.5825480340446
 20
210.1696590272358
 42
1.303223041599867
 10
138.8995330340447
 20
209.4866470272357
 42
-0.2679482664650786
 10
139.1495320340447
 20
209.0536360272358
 10
139.1495350340447
 20
203.9196710272358
 10
136.1495630340447
 20
203.9196710272358
 10
136.1495630340447
 20
205.1946650272359
 10
132.1495350340447
 20
205.1946650272359
 10
132.1495350340447
 20
203.9196710272358
 10
129.1495350340447
 20
203.9196710272358
 10
129.1495350340447
 20
200.7196600272358
 10
132.1495350340447
 20
200.7196600272358
 10
132.1495350340447
 20
199.4446650272358
 10
136.1495630340447
 20
199.4446650272358
 10
136.1495630340447
 20
200.7196600272358
 10
139.1495350340447
 20
200.7196600272358
 10
139.1495350340447
 20
195.5856660272359
 42
-0.2679491924309991
 10
138.8995350340447
 20
195.1526530272358
 42
1.303223041599966
 10
139.5825470340446
 20
194.4696390272359
 42
-0.267948266464945
 10
140.0155590340447
 20
194.719638027236
 10
141.6495870340448
 20
194.7196380272359
 42
-0.4142135623730284
 10
142.1495870340448
 20
194.2196380272359
 10
142.1495870340448
 20
189.2196400272359
 42
-0.4142135623729951
 10
141.6495870340445
 20
188.7196400272359
 10
140.0155610340447
 20
188.7196430272358
 42
-0.2679491924309951
 10
139.5825480340447
 20
188.9696430272358
 42
1.303223041599953
 10
138.8995330340447
 20
188.2866310272358
 42
-0.2679482664650946
 10
139.1495320340447
 20
187.8536200272358
 10
139.1495350340447
 20
96.78567802723582
 42
-0.2679491924310134
 10
138.8995350340447
 20
96.35266502723589
 42
1.303223041599729
 10
139.5825470340446
 20
95.66965102723572
 42
-0.2679482664649307
 10
140.0155590340447
 20
95.91965002723582
 10
141.6495870340448
 20
95.9196500272358
 42
-0.4142135623729951
 10
142.1495870340445
 20
95.41965002723582
 10
142.1495870340448
 20
90.41965302723582
 42
-0.4142135623730034
 10
141.6495870340445
 20
89.91965302723582
 10
140.0155610340447
 20
89.9196560272359
 42
-0.2679491924310155
 10
139.5825480340446
 20
90.16965602723582
 42
1.303223041599712
 10
138.8995330340447
 20
89.48664402723583
 42
-0.2679482664650227
 10
139.1495320340447
 20
89.05363202723572
 10
139.1495350340447
 20
83.91966702723577
 10
136.1495630340447
 20
83.91966702723577
 10
136.1495630340447
 20
85.19466102723577
 10
132.1495350340447
 20
85.19466102723577
 10
132.1495350340447
 20
83.91966702723577
 10
129.1495350340447
 20
83.91966702723577
 10
129.1495350340447
 20
80.71965602723587
 10
132.1495350340447
 20
80.71965602723587
 10
132.1495350340447
 20
79.44466102723588
 10
136.1495630340447
 20
79.44466102723588
 10
136.1495630340447
 20
80.71965602723587
 10
139.1495350340447
 20
80.71965602723587
 10
139.1495350340447
 20
75.58566202723578
 42
-0.2679491924309872
 10
138.8995350340447
 20
75.15264902723584
 42
1.303223041600282
 10
139.5825470340449
 20
74.46963502723575
 42
-0.2679482664649988
 10
140.0155590340447
 20
74.71963402723581
 10
141.6495870340448
 20
74.71963402723581
 42
-0.4142135623729951
 10
142.1495870340445
 20
74.21963402723578
 10
142.1495870340448
 20
69.21963602723581
 42
-0.4142135623729868
 10
141.6495870340445
 20
68.71963602723579
 10
140.0155610340447
 20
68.7196390272358
 42
-0.2679491924309917
 10
139.5825480340446
 20
68.96963902723583
 42
1.303223041600012
 10
138.8995330340447
 20
68.28662702723578
 42
-0.2679482664650072
 10
139.1495320340447
 20
67.85361602723582
 10
139.1495320340447
 20
57.85361602723575
 10
139.1495350340447
 20
46.78567802723578
 42
-0.2679491924310215
 10
138.8995350340447
 20
46.35266502723581
 42
1.303223041600013
 10
139.5825470340446
 20
45.66965102723578
 42
-0.2679482664649971
 10
140.0155590340446
 20
45.91965002723585
 10
355.6496100340447
 20
45.91965002723581
 42
-0.4142135623730284
 10
356.1496180340448
 20
45.41965002723581
 10
356.1496180340446
 20
40.4196530272358
 42
-0.4142135623730326
 10
355.6496180340446
 20
39.91965302723592
 10
354.0155920340447
 20
39.9196560272358
 42
-0.2679491924310222
 10
353.5825790340447
 20
40.16965602723592
 42
1.303223041599658
 10
352.8995640340447
 20
39.48664402723599
 42
-0.2679482664650343
 10
353.1495630340447
 20
39.05363202723581
 10
353.1495660340447
 20
33.91966702723576
 10
350.1495940340447
 20
33.91966702723576
 10
350.1495940340447
 20
35.19466102723576
 10
346.1495660340447
 20
35.19466102723576
 10
346.1495660340447
 20
33.91966702723576
 10
343.1495660340447
 20
33.91966702723576
 10
343.1495660340447
 20
30.71965602723575
 10
346.1495660340447
 20
30.71965602723575
 10
346.1495660340447
 20
29.44466102723576
 10
350.1495940340447
 20
29.44466102723576
 10
350.1495940340447
 20
30.71965602723575
 10
353.1495660340447
 20
30.71965602723575
 10
353.1495660340447
 20
25.58566202723577
 42
-0.2679491924309753
 10
352.8995660340447
 20
25.15264902723575
 42
1.303223029819624
 10
353.5825780340446
 20
24.46963502723579
 42
-0.2679482664650133
 10
354.0155900340447
 20
24.71963402723577
 10
355.6496180340446
 20
24.71963402723576
 42
-0.414213562373018
 10
356.1496180340446
 20
24.21963402723577
 10
356.1496180340446
 20
19.2196360272358
 42
-0.414213562373018
 10
355.6496180340446
 20
18.71963602723581
 10
355.6496180340446
 20
18.71963602723574
 10
140.0155610340447
 20
18.71963902723579
 42
-0.267949192431002
 10
139.5825480340446
 20
18.96963902723577
 42
1.303223041599925
 10
138.8995330340447
 20
18.28662702723578
 42
-0.2679482664650565
 10
139.1495320340447
 20
17.85361602723579
 10
139.1495350340447
 20
9.319652027235785
 10
37.14953703404467
 20
9.319652027235785
 10
35.14953303404468
 20
7.319652027235785
 10
9.149565034044713
 20
7.319652027235785
 10
9.14956603404471
 20
17.85361602723575
 42
-0.2679482804949955
 10
9.399564034044715
 20
18.28662802723577
 42
1.30322304159997
 10
8.716550034044644
 20
18.96963902723576
 42
-0.2679491924310055
 10
8.283538034044682
 20
18.71963902723576
 10
6.649511034044622
 20
18.7196360272358
 42
-0.4142135623729931
 10
6.149511034044622
 20
19.21963602723577
 10
6.149511034044622
 20
24.21963402723581
 42
-0.4142135623730008
 10
6.649511034044622
 20
24.71963402723577
 10
8.283540034044677
 20
24.71963402723581
 42
-0.2679482664650095
 10
8.716552034044639
 20
24.46963502723577
 42
1.303223041600054
 10
9.399563034044718
 20
25.1526490272358
 42
-0.2679491924309949
 10
9.149563034044718
 20
25.58566202723581
 10
9.149563034044718
 20
30.71965602723575
 10
12.14953503404467
 20
30.71965602723575
 10
12.14953503404467
 20
29.44466102723576
 10
16.14956303404472
 20
29.44466102723576
 10
16.14956303404472
 20
30.71965602723575
 10
19.14956303404472
 20
30.71965602723575
 10
19.14956303404472
 20
33.91966702723576
 10
16.14956303404472
 20
33.91966702723576
 10
16.14956303404472
 20
35.19466102723576
 10
12.14953503404467
 20
35.19466102723576
 10
12.14953503404467
 20
33.91966702723576
 10
9.149563034044718
 20
33.91966702723576
 10
9.149566034044712
 20
39.05363202723575
 42
-0.2679482664650077
 10
9.3995640340446
 20
39.4866440272358
 42
1.303223041600025
 10
8.716550034044644
 20
40.16965602723576
 42
-0.2679491924310055
 10
8.283538034044682
 20
39.91965602723576
 10
6.649511034044622
 20
39.9196530272358
 42
-0.4142135623729993
 10
6.149511034044622
 20
40.41965302723577
 10
6.149511034044622
 20
45.41965002723581
 42
-0.4142135623729951
 10
6.649511034044622
 20
45.91965002723578
 10
8.283540034044677
 20
45.91965002723581
 42
-0.2679482664650022
 10
8.716552034044756
 20
45.66965102723575
 42
1.303223041599983
 10
9.399563034044613
 20
46.35266502723578
 42
-0.2679491924310006
 10
9.149563034044716
 20
46.78567802723578
 10
9.149563034044718
 20
51.27010002723578
 10
9.149563034044718
 20
51.77014102723579
 10
9.648952034044669
 20
51.77010002723578
  0
CIRCLE
  5
A5
100
AcDbEntity
  8
0
  6
ByLayer
 62
    0
370
   -1
100
AcDbCircle
 10
35.64957530600009
 20
46.07700070321525
 40
1.6
  0
CIRCLE
  5
A6
100
AcDbEntity
  8
0
  6
ByLayer
 62
    0
370
   -1
100
AcDbCircle
 10
110.1495350340447
 20
46.15671502723578
 40
1.6
  0
CIRCLE
  5
A7
100
AcDbEntity
  8
0
  6
ByLayer
 62
    0
370
   -1
100
AcDbCircle
 10
116.3101321863401
 20
94.3587673873493
 40
1.6
  0
CIRCLE
  5
A8
100
AcDbEntity
  8
0
  6
ByLayer
 62
    0
370
   -1
100
AcDbCircle
 10
33.11017536538805
 20
94.27194086234022
 40
1.6
  0
LWPOLYLINE
  5
A9
100
AcDbEntity
  8
0
  6
ByLayer
 62
  256
370
   -1
100
AcDbPolyline
 90
   16
 70
    1
 43
0
 10
62.92819620696116
 20
92.78163729165419
 42
0.1989123360590045
 10
58.68412099355078
 20
91.02774721317246
 10
42.18536787691869
 20
74.55594734687156
 42
0.1989123583080025
 10
40.42454012902135
 20
70.31474439644398
 10
40.42042859260712
 20
65.28530907702329
 42
0.198912358308
 10
42.1743186702713
 20
61.04123286361299
 10
58.64611953738951
 20
44.54248074616325
 42
0.1989123360569965
 10
62.88727248783379
 20
42.78165303914078
 10
77.91670545677607
 20
42.76935555824717
 42
0.1989123175239978
 10
82.16078166691614
 20
44.52324163591296
 10
98.65954377210028
 20
60.99502749486111
 42
0.1989124853149999
 10
100.420376518361
 20
65.23622844120187
 10
100.424492054774
 20
70.26566375735271
 42
0.1989124853150059
 10
98.67060397874388
 20
74.50974196912716
 10
82.19882112388223
 20
91.00850907185711
 42
0.198912317489
 10
77.95762117508855
 20
92.7693388173011
  0
ENDBLK
  5
52
330
50
100
AcDbEntity
  8
0
100
AcDbBlockEnd
  0
BLOCK
  5
54
330
53
100
AcDbEntity
  8
0
100
AcDbBlockBegin
  2
base_frame_reinforcement
 70
    0
 10
0
 20
0
  3
base_frame_reinforcement
  1

  0
LWPOLYLINE
  5
AA
100
AcDbEntity
  8
0
  6
ByLayer
 62
  256
370
   -1
100
AcDbPolyline
 90
   81
 70
    0
 43
0
 10
38.04966886497141
 20
85.25515158443588
 10
31.6425783191205
 20
91.66225284547571
 42
0.2679491924311191
 10
31.15961443998435
 20
91.7916632965449
 42
-1.303223041601631
 10
31.15961434212136
 20
92.75758929654575
 42
0.2679482664659926
 10
31.64257546298495
 20
92.88699884547862
 10
32.79800854211339
 20
94.04243076635038
 42
0.4142135623730037
 10
32.79800920252342
 20
94.74953776635002
 10
29.26248150457241
 20
98.28507306839521
 42
0.4142135623729802
 10
28.55537350457166
 20
98.2850727288062
 10
27.39994442544435
 20
97.12964180793091
 42
0.2679491924309836
 10
27.2705349743751
 20
96.64667792879402
 42
-1.303223041599962
 10
26.30460697437456
 20
96.64667783093279
 42
0.2679482664649785
 10
26.17519679387124
 20
97.12963958336843
 10
22.54493881596909
 20
100.7599093423164
 10
20.42363583475935
 20
98.63861132352903
 10
21.3251919927402
 20
97.73705348151049
 10
18.49674235108341
 20
94.9086091231697
 10
17.59518619310256
 20
95.81016696518819
 10
15.47386421187434
 20
93.68884894641832
 10
13.21111632519455
 20
95.95160105973673
 10
15.332438306423
 20
98.07291907850652
 10
14.43088214844192
 20
98.97447692052481
 10
17.25933179009871
 20
101.8029212788656
 10
18.16088794807979
 20
100.9013634368472
 10
20.28219092929044
 20
103.0226624556347
 10
16.65192831981629
 20
106.6529308461586
 42
0.2679491924309922
 10
16.16896544068049
 20
106.782341297227
 42
-1.303223041600037
 10
16.16896434281716
 20
107.7482672972283
 42
0.2679482664649978
 10
16.65192546368075
 20
107.8776768461616
 10
17.80735954280931
 20
109.0331087670324
 42
0.4142135623729244
 10
17.80735920321831
 20
109.7402147670331
 10
14.27183150526844
 20
113.275751069078
 42
0.4142135623730037
 10
13.5647245052678
 20
113.2757507294882
 10
12.40929442614038
 20
112.1203198086138
 42
0.2679491924309428
 10
12.27988497507113
 20
111.6373559294769
 42
-1.303223041599994
 10
11.31395797507048
 20
111.6373558316147
 42
0.2679482664649876
 10
11.1845484261371
 20
112.1203169524782
 10
4.845196406959753
 20
118.45967957346
 42
0.1974006790192639
 10
2.533002599883268
 20
112.836600513432
 10
2.533002599883273
 20
7.776499685343481
 42
0.1974006790192638
 10
4.845196406959753
 20
2.153420625315475
 10
11.1845484261371
 20
8.492783246297307
 42
0.2679482664649838
 10
11.31395797507048
 20
8.9757443671609
 42
-1.303223041600012
 10
12.27988497507113
 20
8.975744269298559
 42
0.2679491924309396
 10
12.40929442614038
 20
8.49278039016184
 10
13.5647245052678
 20
7.33734946928746
 42
0.4142135623729936
 10
14.27183150526844
 20
7.337349129697429
 10
17.80735920321831
 20
10.87288543174247
 42
0.4142135623729304
 10
17.80735954280931
 20
11.57999143174314
 10
16.65192546368098
 20
12.73542335261379
 42
0.2679482664649995
 10
16.16896434281716
 20
12.86483290154723
 42
-1.303223041600052
 10
16.16896544068049
 20
13.83075890154845
 42
0.267949192431012
 10
16.65192831981631
 20
13.96016935261693
 10
20.28219092929044
 20
17.59043774314082
 10
18.16088794807979
 20
19.71173676192831
 10
17.25933179009871
 20
18.81017891990993
 10
14.43088214844192
 20
21.63862327825075
 10
15.332438306423
 20
22.54018112026904
 10
13.21111632519455
 20
24.66149913903882
 10
15.47386421187434
 20
26.92425125235724
 10
17.59518619310256
 20
24.80293323358734
 10
18.49674235108364
 20
25.70449107560583
 10
21.3251919927402
 20
22.87604671726504
 10
20.42363583475935
 20
21.97448887524652
 10
22.54493881596909
 20
19.85319085645912
 10
26.17519742544118
 20
23.48346124697906
 42
0.267948266464978
 10
26.30460697437456
 20
23.96642236784282
 42
-1.303223041599981
 10
27.27053497437509
 20
23.96642226998145
 42
0.2679491924309768
 10
27.39994442544435
 20
23.48345839084456
 10
28.55537350457166
 20
22.32802746996933
 42
0.4142135623729816
 10
29.26248150457241
 20
22.32802713038032
 10
32.79800920252342
 20
25.86356243242545
 42
0.4142135623730037
 10
32.79800854211339
 20
26.57066943242503
 10
31.64257546298495
 20
27.7261013532968
 42
0.2679482664659964
 10
31.15961434212136
 20
27.8555109022299
 42
-1.303223041601677
 10
31.15961443998458
 20
28.8214369022306
 42
0.2679491924311203
 10
31.64257883170967
 20
28.95084786588907
 10
37.98189312313866
 20
35.2901727591597
 42
0.2051929011789911
 10
38.30920261234701
 20
36.00655062282959
 10
38.30920261234701
 20
84.60654957594596
 42
0.2051929011789917
 10
37.98189312313843
 20
85.32292743961585
 42
0.2051929011789917
  0
ENDBLK
  5
55
330
53
100
AcDbEntity
  8
0
100
AcDbBlockEnd
  0
BLOCK
  5
57
330
56
100
AcDbEntity
  8
0
100
AcDbBlockBegin
  2
spool_holder_bracket
 70
    0
 10
0
 20
0
  3
spool_holder_bracket
  1

  0
LWPOLYLINE
  5
AB
100
AcDbEntity
  8
0
  6
ByLayer
 62
  256
370
   -1
100
AcDbPolyline
 90
   52
 70
    1
 43
0
 10
13.43352840678244
 20
16.76704976472568
 42
-0.2679491924309334
 10
13.46099584092758
 20
16.26780371822214
 42
1.303223041600126
 10
14.40633307895473
 20
16.06943473009871
 42
-0.2679482664649359
 10
14.63216922642505
 20
16.51552496012052
 10
18.93058791751241
 20
19.32288347230784
 10
20.57103110387311
 20
16.8111554894271
 10
19.50354146366954
 20
16.11396333075774
 10
21.6908345259435
 20
12.76493851821629
 10
22.75832512764896
 20
13.46213040208708
 10
24.3987835591779
 20
10.95037934140654
 10
27.0779941780911
 20
12.70020769315844
 10
25.43753574656216
 20
15.21195875383905
 10
26.50502538676574
 20
15.90915091250843
 10
24.31773136298989
 20
19.25817599984828
 10
23.25024199758491
 20
18.56098480268092
 10
21.60979881122398
 20
21.07271278556168
 10
25.90821763941813
 20
23.88006813844527
 42
-0.2679491924310294
 10
26.40746244962133
 20
23.9075348858867
 42
1.303223041600279
 10
26.60583239924654
 20
24.85287184911548
 42
-0.2679482664660033
 10
26.15974093292471
 20
25.07870730988245
 10
25.26622342026712
 20
26.44679843711904
 42
-0.4142135623729864
 10
25.41143782820882
 20
27.13883278023429
 10
29.59768927550954
 20
29.8729302577153
 42
-0.4142135623729911
 10
30.2897240305299
 20
29.72771365197145
 10
31.1832389334802
 20
28.35962431063191
 42
-0.2679491924309834
 10
31.21070636762533
 20
27.86037826412825
 42
1.303223041600631
 10
32.15604360565248
 20
27.66200927600487
 42
-0.2679482664650015
 10
32.38187851682255
 20
28.10809881932305
 10
39.52697189682772
 20
32.77466035765143
 10
42.05546499524417
 20
28.90321377384578
 42
0.2046132015303104
 10
44.66897162049759
 20
27.15869320137845
 10
187.2503176199293
 20
13.93799633550837
 42
0.1456556773480024
 10
189.4375692042604
 20
14.58899536342591
 10
194.8223745330433
 20
18.10588416472425
 42
-0.2043018789770001
 10
201.6196196356182
 20
19.31122553125455
 42
-0.6607131774120018
 10
201.9408438097726
 20
17.49975439125019
 10
197.228380653743
 20
14.42198117131817
 42
1.000000000000003
 10
202.0403922084379
 20
7.054176420806227
 10
206.7528566007678
 20
10.1319503274417
 42
-0.6607131836799629
 10
208.2824049392026
 20
9.109650261723575
 42
-0.3606908932380081
 10
199.634445283403
 20
1.938078560406321
 10
6.890945992619891
 20
1.936794790039742
 42
-0.2532770339399988
 10
3.54191747550703
 20
3.749515812589411
 10
1.013433217781994
 20
7.620949169624083
 10
8.158508349020622
 20
12.28749427924247
 42
-0.267949192431026
 10
8.65775315922383
 20
12.31496102668438
 42
1.303223041600263
 10
8.856122147347378
 20
13.26029826471127
 42
-0.2679482664649973
 10
8.410030681025319
 20
13.48613372547802
 10
7.516513168367966
 20
14.85422485271459
 42
-0.4142135623730068
 10
7.661728537811539
 20
15.54625892103149
 10
11.84797874881178
 20
18.28035571180912
 42
-0.4142135623729884
 10
12.54001377863051
 20
18.13514006756711
  0
ENDBLK
  5
58
330
56
100
AcDbEntity
  8
0
100
AcDbBlockEnd
  0
BLOCK
  5
5A
330
59
100
AcDbEntity
  8
0
100
AcDbBlockBegin
  2
print_bed_bearing_clamp
 70
    0
 10
0
 20
0
  3
print_bed_bearing_clamp
  1

  0
LWPOLYLINE
  5
AC
100
AcDbEntity
  8
0
  6
ByLayer
 62
    0
370
   -1
100
AcDbPolyline
 90
   34
 70
    1
 43
0
 10
8.466420387798962
 20
-20.72534848665686
 10
8.466420387798962
 20
-17.52533648665684
 10
11.46642038779896
 20
-17.52533648665684
 10
11.46642038779896
 20
-16.25034248665685
 10
15.46644838779912
 20
-16.25034248665685
 10
15.46644838779912
 20
-17.52533648665684
 10
18.46642038779896
 20
-17.52533648665684
 10
18.46642038779896
 20
-11.62534248665685
 10
13.36740138779896
 20
-11.62534248665685
 42
-0.9999999999999999
 10
13.36740138779896
 20
3.374657513343152
 10
18.46642038779896
 20
3.374657513343152
 10
18.46642038779896
 20
9.274651513343144
 10
15.46644838779912
 20
9.274651513343144
 10
15.46644838779912
 20
7.999657513343152
 10
11.46642038779896
 20
7.999657513343152
 10
11.46642038779896
 20
9.274651513343144
 10
8.466420387798962
 20
9.274651513343144
 10
8.466420387798962
 20
12.47466351334316
 10
11.46642038779896
 20
12.47466351334316
 10
11.46642038779896
 20
13.74965751334315
 10
15.46644838779912
 20
13.74965751334315
 10
15.46644838779912
 20
12.47466351334316
 10
18.46642038779896
 20
12.47466351334316
 10
18.46642038779896
 20
15.47466351334316
 10
6.457674387798988
 20
15.47466351334305
 42
0.4142135623729953
 10
3.457674387798988
 20
12.47466351334316
 10
3.457674387798988
 20
-20.72534848665686
 42
0.4142135623730063
 10
6.45767438779898
 20
-23.72534848665686
 10
18.46642038779896
 20
-23.72534848665686
 10
18.46642038779896
 20
-20.72534848665686
 10
15.46644838779912
 20
-20.72534848665686
 10
15.46644838779912
 20
-22.00034248665685
 10
11.46642038779896
 20
-22.00034248665685
 10
11.46642038779896
 20
-20.72534848665686
  0
ENDBLK
  5
5B
330
59
100
AcDbEntity
  8
0
100
AcDbBlockEnd
  0
BLOCK
  5
5D
330
5C
100
AcDbEntity
  8
0
100
AcDbBlockBegin
  2
NEMA17_fixing_plate_Y_axis
 70
    0
 10
0
 20
0
  3
NEMA17_fixing_plate_Y_axis
  1

  0
LWPOLYLINE
  5
AD
100
AcDbEntity
  8
0
  6
ByLayer
 62
    0
370
   -1
100
AcDbPolyline
 90
   51
 70
    0
 43
0
 10
48.96551919463309
 20
3.92871055083181
 42
0.162747713518001
 10
49.56698419463282
 20
4.129811550831792
 10
55.94115519463298
 20
8.928708550831807
 10
55.94115819463309
 20
13.46267755083181
 42
0.2679491924309986
 10
55.69115819463309
 20
13.8956905508318
 42
-1.303223041600149
 10
56.37416919463294
 20
14.57870455083176
 42
0.2679482664649966
 10
56.8071811946329
 20
14.32870655083181
 10
58.44121019463296
 20
14.32870655083181
 42
0.4142135623730284
 10
58.94121019463296
 20
14.82870655083181
 10
58.94121019463296
 20
19.8287035508318
 42
0.4142135623730409
 10
58.44121019463296
 20
20.32870355083182
 10
56.8071831946329
 20
20.32870055083181
 42
0.2679491924309936
 10
56.37417019463306
 20
20.07870055083187
 42
-1.303223041600406
 10
55.69115619463309
 20
20.76171255083187
 42
0.2679482664649669
 10
55.94115519463298
 20
21.19472455083181
 10
55.94115819463309
 20
26.32869655083181
 10
52.94118619463302
 20
26.32869655083181
 10
52.94118619463302
 20
25.0537025508318
 10
48.94115819463309
 20
25.0537025508318
 10
48.94115819463309
 20
26.32869655083181
 10
45.94115819463309
 20
26.32869655083181
 10
45.94115819463309
 20
29.52870855083181
 10
48.94115819463309
 20
29.52870855083181
 10
48.94115819463309
 20
30.8037025508318
 10
52.94118619463302
 20
30.8037025508318
 10
52.94118619463302
 20
29.52870855083181
 10
55.94115819463309
 20
29.52870855083181
 10
55.94115819463309
 20
34.66267955083181
 42
0.2679491924309584
 10
55.69115819463309
 20
35.09569155083175
 42
-1.303223041600066
 10
56.37416919463293
 20
35.77870555083176
 42
0.2679482664650087
 10
56.8071811946329
 20
35.52870755083181
 10
58.44121019463296
 20
35.52870755083184
 42
0.4142135623730201
 10
58.94121019463296
 20
36.02870755083181
 10
58.94121019463296
 20
41.0287045508318
 42
0.4142135623730284
 10
58.44121019463296
 20
41.5287045508318
 10
56.8071831946329
 20
41.52870155083181
 42
0.2679491924309931
 10
56.37417019463305
 20
41.2787015508319
 42
-1.303223041600541
 10
55.69115619463309
 20
41.96171355083193
 42
0.2679482664649507
 10
55.94115519463298
 20
42.39472555083181
 10
55.94115819463309
 20
46.92869455083181
 10
50.73986319463302
 20
46.92869455083181
 42
0.1627477224759994
 10
50.13839819463283
 20
46.72759455083181
 10
44.03133819463301
 20
42.12979455083179
 42
-0.1627477314340016
 10
43.42987419463293
 20
41.92869455083181
 10
9.941192194633004
 20
41.9286955508318
 42
0.4142135725969949
 10
7.941192194633003
 20
39.9286955508318
 10
7.941192194633008
 20
5.928711550831815
 42
0.4142135521489942
 10
9.941192194632992
 20
3.928711550831803
 10
48.81745719463288
 20
3.928710550831809
 10
48.96060719463298
 20
3.928710550831809
 10
48.96592719463297
 20
3.928710550831809
  0
CIRCLE
  5
AE
100
AcDbEntity
  8
0
  6
ByLayer
 62
    0
370
   -1
100
AcDbCircle
 10
43.65745919463279
 20
7.428706550831812
 40
1.6
  0
CIRCLE
  5
AF
100
AcDbEntity
  8
0
  6
ByLayer
 62
    0
370
   -1
100
AcDbCircle
 10
12.65745919463302
 20
7.428706550831812
 40
1.6
  0
CIRCLE
  5
B0
100
AcDbEntity
  8
0
  6
ByLayer
 62
    0
370
   -1
100
AcDbCircle
 10
28.15745919463302
 20
22.92870655083181
 40
11.1
  0
CIRCLE
  5
B1
100
AcDbEntity
  8
0
  6
ByLayer
 62
    0
370
   -1
100
AcDbCircle
 10
43.65745919463279
 20
38.42870655083181
 40
1.6
  0
CIRCLE
  5
B2
100
AcDbEntity
  8
0
  6
ByLayer
 62
    0
370
   -1
100
AcDbCircle
 10
12.65745919463302
 20
38.42870655083181
 40
1.6
  0
ENDBLK
  5
5E
330
5C
100
AcDbEntity
  8
0
100
AcDbBlockEnd
  0
BLOCK
  5
60
330
5F
100
AcDbEntity
  8
0
100
AcDbBlockBegin
  2
Y_axis_idler
 70
    0
 10
0
 20
0
  3
Y_axis_idler
  1

  0
CIRCLE
  5
B3
100
AcDbEntity
  8
0
  6
ByLayer
 62
  256
370
   -1
100
AcDbCircle
 10
35.46986613850822
 20
36.62592319271772
 40
1.6
  0
LWPOLYLINE
  5
B4
100
AcDbEntity
  8
0
  6
ByLayer
 62
  256
370
   -1
100
AcDbPolyline
 90
   42
 70
    1
 43
0
 10
21.46983813850829
 20
30.02591769271771
 10
18.46986613850822
 20
30.02591769271771
 10
18.46986613850822
 20
24.89194669271771
 42
0.2679491924310006
 10
18.71986613850822
 20
24.45893369271772
 42
-1.303223041600155
 10
18.03685413850826
 20
23.77591969271771
 42
0.2679482664649716
 10
17.6038421385083
 20
24.02591869271771
 10
15.96981413850835
 20
24.02591869271771
 42
0.4142135623730284
 10
15.46981413850835
 20
23.52591869271771
 10
15.46981413850835
 20
18.5259206927177
 42
0.4142135623729619
 10
15.96981413850835
 20
18.0259206927177
 10
17.60384113850819
 20
18.02592369271773
 42
0.2679491924309679
 10
18.03685313850792
 20
18.27592369271775
 42
-1.303223041599871
 10
18.71986713850811
 20
17.59291269271768
 42
0.2679482664650181
 10
18.4698691385081
 20
17.15990069271771
 10
18.46986613850822
 20
12.6259316927177
 10
34.88031713850819
 20
12.62593169271761
 42
0.3489883788229921
 10
36.82869213850836
 20
14.1744506927177
 10
43.28754913850798
 20
42.0477796927177
 42
0.4825924606890054
 10
36.46986613850822
 20
50.62591449271774
 10
18.46986613850822
 20
50.62591569271771
 10
18.46986613850822
 20
46.09194769271772
 42
0.2679491924310076
 10
18.71986613850822
 20
45.65893469271774
 42
-1.303223041600162
 10
18.03685413850826
 20
44.97592069271772
 42
0.2679482664649947
 10
17.6038421385083
 20
45.22591969271772
 10
15.96981413850835
 20
45.2259196927177
 42
0.4142135623730118
 10
15.46981413850835
 20
44.72591969271772
 10
15.46981413850835
 20
39.72592269271772
 42
0.4142135623729785
 10
15.96981413850835
 20
39.22592269271769
 10
17.60384113850819
 20
39.22592569271771
 42
0.2679491924309901
 10
18.03685313850815
 20
39.47592569271771
 42
-1.303223041600175
 10
18.71986713850811
 20
38.79291369271766
 42
0.2679482664649648
 10
18.4698691385081
 20
38.3599016927177
 10
18.46986613850822
 20
33.2259286927177
 10
21.46983813850829
 20
33.2259286927177
 10
21.46983813850829
 20
34.50092369271772
 10
25.46986613850822
 20
34.50092369271772
 10
25.46986613850822
 20
33.2259286927177
 10
28.46986613850822
 20
33.2259286927177
 10
28.46986613850822
 20
30.02591769271771
 10
25.46986613850822
 20
30.02591769271771
 10
25.46986613850822
 20
28.75092369271772
 10
21.46983813850829
 20
28.75092369271772
  0
ENDBLK
  5
61
330
5F
100
AcDbEntity
  8
0
100
AcDbBlockEnd
  0
BLOCK
  5
63
330
62
100
AcDbEntity
  8
0
100
AcDbBlockBegin
  2
Y_axis_rod_end
 70
    0
 10
0
 20
0
  3
Y_axis_rod_end
  1

  0
LWPOLYLINE
  5
B5
100
AcDbEntity
  8
0
  6
ByLayer
 62
    0
370
   -1
100
AcDbPolyline
 90
    6
 70
    1
 43
0
 10
27.74045277564346
 20
7.677147938375413
 10
27.74045277564346
 20
22.17516793837541
 42
0.4142135623729951
 10
25.74045277564346
 20
24.17516793837541
 10
9.740452775643462
 20
24.17516793837541
 42
0.4142135623729951
 10
7.740452775643462
 20
22.17516793837541
 10
7.740452775643462
 20
7.677144938375363
  0
CIRCLE
  5
B6
100
AcDbEntity
  8
0
  6
ByLayer
 62
    0
370
   -1
100
AcDbCircle
 10
22.7401217756435
 20
12.4532399383753
 40
1.6
  0
CIRCLE
  5
B7
100
AcDbEntity
  8
0
  6
ByLayer
 62
    0
370
   -1
100
AcDbCircle
 10
12.74012177564327
 20
12.4532399383753
 40
1.6
  0
ENDBLK
  5
64
330
62
100
AcDbEntity
  8
0
100
AcDbBlockEnd
  0
BLOCK
  5
66
330
65
100
AcDbEntity
  8
0
100
AcDbBlockBegin
  2
NEMA17_fixing_plate_Z_axis
 70
    0
 10
0
 20
0
  3
NEMA17_fixing_plate_Z_axis
  1

  0
LWPOLYLINE
  5
B8
100
AcDbEntity
  8
0
  6
ByLayer
 62
    0
370
   -1
100
AcDbPolyline
 90
   16
 70
    1
 43
0
 10
16.4656601020647
 20
42.27660085758157
 42
0.2679482664649602
 10
16.03264810206474
 20
42.5265998575816
 10
14.46478010206465
 20
42.52660285758157
 42
0.2679491924309981
 10
14.03176710206458
 20
42.27660285758157
 42
-1.303223041599919
 10
13.34875310206462
 20
42.95961485758158
 42
0.2679482664650109
 10
13.59875210206474
 20
43.3926268575816
 10
13.59875210206474
 20
47.86057685758158
 42
0.2679491924310035
 10
13.34875210206474
 20
48.29358885758155
 42
-1.303223041600101
 10
14.03176410206447
 20
48.97660285758155
 42
0.2679482664649956
 10
14.46477610206466
 20
48.72660485758161
 10
16.03264610206452
 20
48.72660185758156
 42
0.2679491924309834
 10
16.46565810206448
 20
48.97660185758156
 42
-1.303223041599557
 10
17.14867210206467
 20
48.29358985758149
 42
0.2679482664649847
 10
16.89867410206466
 20
47.86057785758157
 10
16.89867110206455
 20
43.39262885758157
 42
0.2679491924310062
 10
17.14867110206455
 20
42.95961485758153
 42
-1.303223041599388
  0
LWPOLYLINE
  5
B9
100
AcDbEntity
  8
0
  6
ByLayer
 62
    0
370
   -1
100
AcDbPolyline
 90
   16
 70
    1
 43
0
 10
63.50477310206452
 20
48.72660485758161
 10
65.07264310206483
 20
48.72660185758156
 42
0.2679491924309922
 10
65.50565610206468
 20
48.97660185758156
 42
-1.30322304159993
 10
66.18867010206463
 20
48.29358985758159
 42
0.2679482664651203
 10
65.93867210206463
 20
47.86057785758157
 10
65.93866910206452
 20
43.39262885758157
 42
0.267949192431006
 10
66.18866910206452
 20
42.95961485758156
 42
-1.303223041600025
 10
65.50565710206479
 20
42.27660085758168
 42
0.2679482664649978
 10
65.07264510206483
 20
42.52659985758158
 10
63.50477810206462
 20
42.52660285758157
 42
0.2679491924309665
 10
63.07176410206489
 20
42.27660285758157
 42
-1.30322304159984
 10
62.38875010206471
 20
42.95961485758158
 42
0.2679482664649659
 10
62.63874910206459
 20
43.3926268575816
 10
62.63874910206459
 20
47.86057685758158
 42
0.2679491924310005
 10
62.38874910206459
 20
48.29358885758154
 42
-1.303223041599483
 10
63.07176110206456
 20
48.97660285758155
 42
0.2679482664649586
  0
LWPOLYLINE
  5
BA
100
AcDbEntity
  8
0
  6
ByLayer
 62
    0
370
   -1
100
AcDbPolyline
 90
   16
 70
    1
 43
0
 10
65.93866910206452
 20
22.19262885758158
 42
0.2679491924310073
 10
66.18866910206452
 20
21.75961585758157
 42
-1.303223041600031
 10
65.50565710206456
 20
21.07660185758158
 42
0.2679482664648894
 10
65.07264510206483
 20
21.32660085758159
 10
63.50477810206462
 20
21.32660385758157
 42
0.2679491924309927
 10
63.07176410206466
 20
21.07660385758157
 42
-1.303223041599948
 10
62.38875010206471
 20
21.75961485758157
 42
0.2679482664650059
 10
62.63874910206459
 20
22.19262685758156
 10
62.63874910206459
 20
26.66057685758156
 42
0.2679491924310058
 10
62.38874910206459
 20
27.09358985758158
 42
-1.303223041599968
 10
63.07176110206478
 20
27.77660385758148
 42
0.2679482664649657
 10
63.50477310206452
 20
27.52660585758156
 10
65.07264310206483
 20
27.52660285758157
 42
0.2679491924309889
 10
65.50565610206468
 20
27.77660285758157
 42
-1.303223041599916
 10
66.18867010206463
 20
27.09359085758157
 42
0.2679482617890813
 10
65.93867210206463
 20
26.66057885758158
  0
LWPOLYLINE
  5
BB
100
AcDbEntity
  8
0
  6
ByLayer
 62
    0
370
   -1
100
AcDbPolyline
 90
   16
 70
    1
 43
0
 10
13.34875310206462
 20
21.7596148575816
 42
0.2679482664650023
 10
13.59875210206474
 20
22.19262685758156
 10
13.59875210206474
 20
26.66057685758156
 42
0.2679491924310081
 10
13.34875210206474
 20
27.09358985758155
 42
-1.303223029819867
 10
14.03176410206493
 20
27.77660385758159
 42
0.2679482664649828
 10
14.46477610206466
 20
27.52660585758156
 10
16.03264610206452
 20
27.52660285758159
 42
0.2679491924309765
 10
16.46565810206448
 20
27.77660285758168
 42
-1.303223041599654
 10
17.14867210206467
 20
27.09359085758166
 42
0.2679482617890154
 10
16.89867410206466
 20
26.66057885758158
 10
16.89867110206455
 20
22.19262885758158
 42
0.2679491924310002
 10
17.14867110206455
 20
21.75961585758162
 42
-1.303223029819952
 10
16.46566010206448
 20
21.07660185758158
 42
0.267948266464935
 10
16.03264810206474
 20
21.32660085758158
 10
14.46478010206465
 20
21.32660385758157
 42
0.2679491924309729
 10
14.03176710206458
 20
21.07660385758163
 42
-1.303223041600143
  0
LWPOLYLINE
  5
BC
100
AcDbEntity
  8
0
  6
ByLayer
 62
    0
370
   -1
100
AcDbPolyline
 90
   42
 70
    1
 43
0
 10
47.61871810206458
 20
60.45961485758158
 42
-0.2679491924310054
 10
47.36871810206458
 20
60.89262785758157
 10
47.3687151020647
 20
62.5266548575816
 42
-0.4142135623730284
 10
47.8687151020647
 20
63.0266548575816
 10
52.8687131020647
 20
63.0266548575816
 42
-0.4142135623730284
 10
53.3687131020647
 20
62.5266548575816
 10
53.3687131020647
 20
60.89262585758161
 42
-0.2679482664649885
 10
53.11871410206459
 20
60.45961485758161
 42
1.303223041599912
 10
53.80172810206477
 20
59.77660285758151
 42
-0.2679491924310481
 10
54.23474110206462
 20
60.02660285758157
 10
69.76870510206459
 20
60.02660285758157
 10
69.76870510206459
 20
15.02660085758157
 42
-0.4142136288129962
 10
64.76871010206469
 20
10.02660285758157
 10
14.76871210206468
 20
10.02660285758159
 42
-0.4142135265739996
 10
9.768718102064668
 20
15.0266008575816
 10
9.768718102064668
 20
60.02660285758157
 10
25.30269310206472
 20
60.02659985758157
 42
-0.2679482664650019
 10
25.73570510206446
 20
59.77660085758157
 42
1.303223041599849
 10
26.41871710206465
 20
60.4596148575815
 42
-0.2679491924310116
 10
26.16871710206465
 20
60.89262785758157
 10
26.16871410206454
 20
62.5266548575816
 42
-0.4142135623730284
 10
26.66871410206454
 20
63.0266548575816
 10
31.66871110206466
 20
63.0266548575816
 42
-0.4142135623730305
 10
32.16871110206466
 20
62.5266548575816
 10
32.16871110206466
 20
60.89262585758161
 42
-0.267948266464989
 10
31.91871210206455
 20
60.45961485758158
 42
1.303223041599493
 10
32.60172710206484
 20
59.77660285758148
 42
-0.2679491924309398
 10
33.03474010206469
 20
60.02660285758157
 10
38.16871110206466
 20
60.02660285758157
 10
38.16871110206466
 20
57.02663085758158
 10
36.89371610206467
 20
57.02663085758158
 10
36.89371610206467
 20
53.02660285758157
 10
38.16871110206466
 20
53.02660285758157
 10
38.16871110206466
 20
50.02660285758157
 10
41.36872210206457
 20
50.02660285758157
 10
41.36872210206457
 20
53.02660285758157
 10
42.64371610206467
 20
53.02660285758157
 10
42.64371610206467
 20
57.02663085758158
 10
41.36872210206457
 20
57.02663085758158
 10
41.36872210206457
 20
60.02660285758157
 10
46.50269510206454
 20
60.02659985758157
 42
-0.2679482664649873
 10
46.9357061020646
 20
59.77660085758158
 42
1.30322304159978
  0
CIRCLE
  5
BD
100
AcDbEntity
  8
0
  6
ByLayer
 62
    0
370
   -1
100
AcDbCircle
 10
55.26871210206468
 20
46.22660285758155
 40
1.6
  0
CIRCLE
  5
BE
100
AcDbEntity
  8
0
  6
ByLayer
 62
    0
370
   -1
100
AcDbCircle
 10
24.26871210206468
 20
15.22660285758158
 40
1.6
  0
CIRCLE
  5
BF
100
AcDbEntity
  8
0
  6
ByLayer
 62
    0
370
   -1
100
AcDbCircle
 10
64.28871010206467
 20
35.02660285758157
 40
1.6
  0
CIRCLE
  5
C0
100
AcDbEntity
  8
0
  6
ByLayer
 62
    0
370
   -1
100
AcDbCircle
 10
56.76871210206468
 20
30.72660285758158
 40
4
  0
CIRCLE
  5
C1
100
AcDbEntity
  8
0
  6
ByLayer
 62
    0
370
   -1
100
AcDbCircle
 10
55.26871210206468
 20
15.22660285758158
 40
1.6
  0
CIRCLE
  5
C2
100
AcDbEntity
  8
0
  6
ByLayer
 62
    0
370
   -1
100
AcDbCircle
 10
24.26871210206468
 20
46.22660285758155
 40
1.6
  0
CIRCLE
  5
C3
100
AcDbEntity
  8
0
  6
ByLayer
 62
    0
370
   -1
100
AcDbCircle
 10
15.24871310206458
 20
35.02660285758157
 40
1.6
  0
CIRCLE
  5
C4
100
AcDbEntity
  8
0
  6
ByLayer
 62
    0
370
   -1
100
AcDbCircle
 10
39.76871210206468
 20
30.72660285758158
 40
11.1
  0
ENDBLK
  5
67
330
65
100
AcDbEntity
  8
0
100
AcDbBlockEnd
  0
BLOCK
  5
69
330
68
100
AcDbEntity
  8
0
100
AcDbBlockBegin
  2
Z_axis_top
 70
    0
 10
0
 20
0
  3
Z_axis_top
  1

  0
LWPOLYLINE
  5
C5
100
AcDbEntity
  8
0
  6
ByLayer
 62
    0
370
   -1
100
AcDbPolyline
 90
   36
 70
    1
 43
0
 10
-12.38033698859772
 20
-23.31375918525407
 10
-12.38069898859794
 20
-53.83899918525407
 42
0.4142136339399985
 10
-0.3808469885980227
 20
-65.83914318525404
 10
21.22695401140209
 20
-65.83940018525414
 42
0.283289592608001
 10
31.94442401140235
 20
-59.23743318525408
 10
49.26852001140219
 20
-23.32675218525407
 10
49.26914701140231
 20
-20.83545418525404
 42
0.2679482664649642
 10
49.01925201140216
 20
-20.40238318525394
 42
-1.303223041600145
 10
49.70243101140227
 20
-19.71953518525407
 42
0.2679491924310243
 10
50.13538401140227
 20
-19.96963918525404
 10
60.79480201140223
 20
-19.96968018525416
 10
60.79491801140215
 20
-10.18684618525407
 42
0.2679482664649681
 10
60.54502301140224
 20
-9.753775185254314
 42
-1.303223041599787
 10
61.22820301140223
 20
-9.070927185254165
 42
0.2679491924310562
 10
61.66115501140212
 20
-9.321031185254128
 10
63.22902301140221
 20
-9.32140518525398
 42
0.2679482664649909
 10
63.66209401140236
 20
-9.071511185254165
 42
-1.303223041599963
 10
64.34494201140228
 20
-9.754690185254164
 42
0.267949192431011
 10
64.09483801140232
 20
-10.18764218525416
 10
64.09472201140215
 20
-19.96971918525406
 10
75.61935601140226
 20
-19.97246418525407
 10
75.61980701140214
 20
-10.50425318525408
 42
0.109673439738
 10
74.49243901140221
 20
-5.426132185254176
 10
64.09512701140216
 20
11.03024881474602
 10
61.00226301140219
 20
11.03023981474593
 10
-3.815888988597634
 20
-5.279909185253928
 42
0.3315058143340027
 10
-12.38025898859769
 20
-16.77743918525408
 10
-12.3802979885977
 20
-20.01384018525408
 10
-3.245952988597764
 20
-20.01394818525398
 42
0.26794826646501
 10
-2.812881988597837
 20
-19.76405418525417
 42
-1.303223041599928
 10
-2.130033988597916
 20
-20.44723318525416
 42
0.2679491924310072
 10
-2.380137988597653
 20
-20.88018518525416
 10
-2.380511988597846
 20
-22.44805218525403
 42
0.2679482617889906
 10
-2.130617988597805
 20
-22.88112518525406
 42
-1.303223041599951
 10
-2.813796988597915
 20
-23.56397218525404
 42
0.2679491924309831
 10
-3.24674798859769
 20
-23.31386818525408
  0
CIRCLE
  5
C6
100
AcDbEntity
  8
0
  6
ByLayer
 62
    0
370
   -1
100
AcDbCircle
 10
62.44460301140225
 20
0.6803028147459713
 40
1.6
  0
CIRCLE
  5
C7
100
AcDbEntity
  8
0
  6
ByLayer
 62
    0
370
   -1
100
AcDbCircle
 10
17.31969101140226
 20
-52.46885218525426
 40
5
  0
CIRCLE
  5
C8
100
AcDbEntity
  8
0
  6
ByLayer
 62
    0
370
   -1
100
AcDbCircle
 10
0.3196930114022507
 20
-52.46475118525404
 40
4
  0
CIRCLE
  5
C9
100
AcDbEntity
  8
0
  6
ByLayer
 62
    0
370
   -1
100
AcDbCircle
 10
23.44467601140241
 20
-21.66442618525417
 40
1.6
  0
CIRCLE
  5
CA
100
AcDbEntity
  8
0
  6
ByLayer
 62
    0
370
   -1
100
AcDbCircle
 10
5.119122011402396
 20
-61.16911418525405
 40
1.6
  0
CIRCLE
  5
CB
100
AcDbEntity
  8
0
  6
ByLayer
 62
    0
370
   -1
100
AcDbCircle
 10
-6.030877988597695
 20
-43.22541418525407
 40
1.6
  0
ENDBLK
  5
6A
330
68
100
AcDbEntity
  8
0
100
AcDbBlockEnd
  0
BLOCK
  5
6C
330
6B
100
AcDbEntity
  8
0
100
AcDbBlockBegin
  2
Z_axis_top_rod_end
 70
    0
 10
0
 20
0
  3
Z_axis_top_rod_end
  1

  0
LWPOLYLINE
  5
CC
100
AcDbEntity
  8
0
  6
ByLayer
 62
    0
370
   -1
100
AcDbPolyline
 90
    5
 70
    1
 43
0
 10
4.77802907620071
 20
3.661313452403277
 10
4.777697076200639
 20
-24.33868654759675
 10
27.77769707620041
 20
-24.33895954759674
 10
27.77788807620072
 20
-8.338961547596767
 42
0.4142136339389971
 10
15.77803607620058
 20
3.661182452403231
  0
CIRCLE
  5
CD
100
AcDbEntity
  8
0
  6
ByLayer
 62
    0
370
   -1
100
AcDbCircle
 10
10.2780660762005
 20
-1.008846547596733
 40
1.6
  0
CIRCLE
  5
CE
100
AcDbEntity
  8
0
  6
ByLayer
 62
    0
370
   -1
100
AcDbCircle
 10
21.42806607620059
 20
-18.95254654759674
 40
1.6
  0
ENDBLK
  5
6D
330
6B
100
AcDbEntity
  8
0
100
AcDbBlockEnd
  0
BLOCK
  5
6F
330
6E
100
AcDbEntity
  8
0
100
AcDbBlockBegin
  2
NEMA17_fixing_plate_support
 70
    0
 10
0
 20
0
  3
NEMA17_fixing_plate_support
  1

  0
LWPOLYLINE
  5
CF
100
AcDbEntity
  8
0
  6
ByLayer
 62
    0
370
   -1
100
AcDbPolyline
 90
   79
 70
    1
 43
0
 10
10.29810168766869
 20
54.26441955217916
 10
18.83207768766863
 20
54.26441655217917
 42
-0.2679482664650578
 10
19.2650896876687
 20
54.01441755217928
 42
1.30322304159996
 10
19.94810168766867
 20
54.69743255217929
 42
-0.2679491924309882
 10
19.69810168766867
 20
55.1304455521792
 10
19.69809868766868
 20
56.76447155217915
 42
-0.4142135623729619
 10
20.19809868766868
 20
57.26447155217915
 10
25.19809568766868
 20
57.26447155217915
 42
-0.4142135623729619
 10
25.69809568766868
 20
56.76447155217915
 10
25.69809568766857
 20
55.13044355217914
 42
-0.2679482664649181
 10
25.44809668766868
 20
54.69743155217935
 42
1.303223041600048
 10
26.13111068766864
 20
54.01441955217916
 42
-0.2679491924309986
 10
26.56412368766871
 20
54.26441955217916
 10
31.69809568766868
 20
54.26441955217916
 10
31.69809568766868
 20
51.26444755217915
 10
30.42310168766869
 20
51.26444755217915
 10
30.42310168766869
 20
47.26441955217916
 10
31.69809568766868
 20
47.26441955217916
 10
31.69809568766868
 20
44.26441955217916
 10
34.8981076876687
 20
44.26441955217916
 10
34.8981076876687
 20
47.26441955217916
 10
36.17310168766869
 20
47.26441955217916
 10
36.17310168766869
 20
51.26444755217915
 10
34.8981076876687
 20
51.26444755217915
 10
34.8981076876687
 20
54.26441955217916
 10
40.03207768766868
 20
54.26441655217917
 42
-0.2679482664650408
 10
40.46508968766886
 20
54.01441755217928
 42
1.303223041600205
 10
41.14810168766871
 20
54.69743255217924
 42
-0.2679491924310052
 10
40.89810168766871
 20
55.1304455521792
 10
40.89809868766872
 20
56.76447155217915
 42
-0.4142135623729619
 10
41.39809868766872
 20
57.26447155217915
 10
46.39809568766873
 20
57.26447155217915
 42
-0.4142135623729619
 10
46.89809568766873
 20
56.76447155217915
 10
46.89809568766862
 20
55.13044355217914
 42
-0.2679482664649407
 10
46.64809668766873
 20
54.69743155217947
 42
1.303223041600232
 10
47.3311116876687
 20
54.01441955217916
 42
-0.2679491924309972
 10
47.76412468766864
 20
54.26441955217916
 10
58.29810168766869
 20
54.26441955217916
 10
58.29809868766858
 20
43.73044055217918
 42
-0.2679482664649819
 10
58.0480996876687
 20
43.2974295521791
 42
1.30322304159917
 10
58.73111468766844
 20
42.61441755217925
 42
-0.2679491924311733
 10
59.16412768766872
 20
42.86441755217925
 10
60.79815368766867
 20
42.86442055217918
 42
-0.4142135623729619
 10
61.29815368766867
 20
42.36442055217918
 10
61.29815368766867
 20
37.36442255217918
 42
-0.4142135623729619
 10
60.79815368766867
 20
36.86442255217918
 10
59.16412568766873
 20
36.86442255217918
 42
-0.2679482664649557
 10
58.73111368766865
 20
37.1144205521793
 42
1.303223041599795
 10
58.04810168766869
 20
36.43140655217918
 42
-0.2679491924309823
 10
58.29810168766869
 20
35.99839455217915
 10
58.29810168766869
 20
30.86442455217917
 10
55.29812968766873
 20
30.86442455217917
 10
55.29812968766873
 20
32.13941855217917
 10
51.29810168766869
 20
32.13941855217917
 10
51.29810168766869
 20
30.86442455217917
 10
48.29810168766869
 20
30.86442455217917
 10
48.29810168766869
 20
27.66441355217916
 10
51.29810168766869
 20
27.66441355217916
 10
51.29810168766869
 20
26.38941855217917
 10
55.29812968766873
 20
26.38941855217917
 10
55.29812968766873
 20
27.66441355217916
 10
58.29810168766869
 20
27.66441355217916
 10
58.29809868766858
 20
22.53044155217918
 42
-0.2679482664649802
 10
58.0480996876687
 20
22.09742955217922
 42
1.303223041599743
 10
58.73111468766843
 20
21.4144175521792
 42
-0.2679491924311121
 10
59.16412768766872
 20
21.66441755217915
 10
60.79815368766867
 20
21.66442055217919
 42
-0.4142135623729619
 10
61.29815368766867
 20
21.16442055217919
 10
61.29815368766867
 20
16.16442355217919
 42
-0.4142135623729619
 10
60.79815368766867
 20
15.66442355217919
 10
59.16412568766873
 20
15.66442355217913
 42
-0.2679482664649583
 10
58.73111368766865
 20
15.91442155217925
 42
1.303223041599945
 10
58.04810168766869
 20
15.23140755217935
 42
-0.2679491924309211
 10
58.29810168766869
 20
14.79839555217916
 10
58.29810168766869
 20
6.264419552179163
 10
57.61180968766871
 20
6.264419552179175
 42
-0.1989123174839975
 10
51.95495668766875
 20
8.607563552179176
 10
12.64124668766874
 20
47.92127455217917
 42
-0.1989123537719998
 10
10.29810168766869
 20
53.57812855217918
  0
ENDBLK
  5
70
330
6E
100
AcDbEntity
  8
0
100
AcDbBlockEnd
  0
BLOCK
  5
72
330
71
100
AcDbEntity
  8
0
100
AcDbBlockBegin
  2
NEMA17_fixing_plate_support-1
 70
    0
 10
0
 20
0
  3
NEMA17_fixing_plate_support-1
  1

  0
INSERT
  5
D0
100
AcDbEntity
  8
0
  6
ByLayer
 62
  256
370
   -1
100
AcDbBlockReference
  2
NEMA17_fixing_plate_support
 10
78.05828991997987
 20
70.65988756204024
 30
0
 41
1
 42
1
 43
0
 50
180
 70
    1
 71
    1
 44
1
 45
1
  0
ENDBLK
  5
73
330
71
100
AcDbEntity
  8
0
100
AcDbBlockEnd
  0
BLOCK
  5
75
330
74
100
AcDbEntity
  8
0
100
AcDbBlockBegin
  2
print_bed
 70
    0
 10
0
 20
0
  3
print_bed
  1

  0
LWPOLYLINE
  5
D1
100
AcDbEntity
  8
0
  6
ByLayer
 62
    0
370
   -1
100
AcDbPolyline
 90
   16
 70
    1
 43
0
 10
164.3447462420463
 20
192.4649804180408
 42
-1.303223041600052
 10
165.0277602420463
 20
193.1479944180408
 42
0.2679482664649704
 10
165.4607712420461
 20
192.8979954180408
 10
187.8287242420463
 20
192.8979764180408
 42
0.2679482664650078
 10
188.2617352420464
 20
193.1479754180408
 42
-1.303223041599866
 10
188.9447472420461
 20
192.4649594180407
 42
0.2679491924499929
 10
188.6947472420461
 20
192.0319474180408
 10
188.6947442420462
 20
184.7639854180408
 42
0.2679482664460147
 10
188.9447422420462
 20
184.3309744180408
 42
-1.303223041600024
 10
188.2617282420463
 20
183.6479624180408
 42
0.2679491924309989
 10
187.8287152420462
 20
183.8979634180408
 10
165.4607662420462
 20
183.8979824180408
 42
0.2679491924309779
 10
165.0277522420461
 20
183.6479824180408
 42
-1.303223041600519
 10
164.3447392420462
 20
184.3309944180408
 42
0.2679482664831036
 10
164.5947382420463
 20
184.7640064180408
 10
164.5947472420462
 20
192.0319664180408
 42
0.2679491924140258
  0
LWPOLYLINE
  5
D2
100
AcDbEntity
  8
0
  6
ByLayer
 62
    0
370
   -1
100
AcDbPolyline
 90
   16
 70
    1
 43
0
 10
94.59471424204617
 20
184.7640864180408
 10
94.59472324204626
 20
192.0320464180408
 42
0.2679491924140578
 10
94.34472224204639
 20
192.465060418041
 42
-1.303223041600089
 10
95.02773624204612
 20
193.1480744180407
 42
0.2679482664650302
 10
95.46074724204618
 20
192.8980754180407
 10
117.8287002420461
 20
192.8980574180408
 42
0.2679482664649771
 10
118.2617112420462
 20
193.1480554180408
 42
-1.303223041600103
 10
118.9447232420462
 20
192.4650404180408
 42
0.2679491924499766
 10
118.6947232420462
 20
192.0320274180408
 10
118.6947202420463
 20
184.7640664180408
 42
0.2679482664469581
 10
118.9447182420463
 20
184.3310544180408
 42
-1.303223041600388
 10
118.2617042420461
 20
183.6480434180408
 42
0.267949192430941
 10
117.8286912420463
 20
183.8980444180408
 10
95.46074224204631
 20
183.8980624180408
 42
0.2679491924310131
 10
95.02772824204638
 20
183.6480624180408
 42
-1.303223041600381
 10
94.34471524204628
 20
184.3310744180408
 42
0.2679482664829189
  0
LWPOLYLINE
  5
D3
100
AcDbEntity
  8
0
  6
ByLayer
 62
    0
370
   -1
100
AcDbPolyline
 90
   16
 70
    1
 43
0
 10
118.6946852420463
 20
14.76404841804083
 10
118.6946882420464
 20
22.03200941804081
 42
-0.2679482664650245
 10
118.9446862420464
 20
22.46502041804069
 42
1.303223041600234
 10
118.2616722420462
 20
23.14803241804082
 42
-0.2679491924309846
 10
117.8286602420462
 20
22.89803241804083
 10
95.46071124204627
 20
22.89803241804083
 42
-0.2679491924310072
 10
95.02769724204609
 20
23.14803241804083
 42
1.303223041599999
 10
94.34468324204636
 20
22.46502141804068
 42
-0.2679482664649158
 10
94.59468224204602
 20
22.03200941804081
 10
94.59468524204613
 20
14.76404841804083
 42
-0.2679491924309777
 10
94.34468524204613
 20
14.33103441804079
 42
1.303223041599928
 10
95.02769724204609
 20
13.6480204180408
 42
-0.2679482664650609
 10
95.46070924204605
 20
13.89801941804083
 10
117.8286622420462
 20
13.89801941804083
 42
-0.2679482664650411
 10
118.2616732420463
 20
13.64802041804086
 42
1.303223041599986
 10
118.9446852420463
 20
14.33103541804079
 42
-0.2679491924309773
  0
LWPOLYLINE
  5
D4
100
AcDbEntity
  8
0
  6
ByLayer
 62
    0
370
   -1
100
AcDbPolyline
 90
   16
 70
    1
 43
0
 10
188.6947092420462
 20
14.76407141804083
 10
188.6947122420461
 20
22.03203241804081
 42
-0.2679482664649894
 10
188.9447102420463
 20
22.46504341804079
 42
1.30322304160017
 10
188.2616962420461
 20
23.1480554180408
 42
-0.2679491924309199
 10
187.8286842420462
 20
22.89805541804083
 10
165.4607352420462
 20
22.89805541804083
 42
-0.267949192430991
 10
165.0277212420463
 20
23.14805541804084
 42
1.303223041600157
 10
164.3447072420463
 20
22.46504441804081
 42
-0.2679482664649687
 10
164.5947062420462
 20
22.03203241804081
 10
164.5947092420463
 20
14.76407141804083
 42
-0.2679491924309339
 10
164.3447092420463
 20
14.33105741804077
 42
1.303223041599649
 10
165.0277212420463
 20
13.64804341804085
 42
-0.2679482664650544
 10
165.4607332420462
 20
13.89804241804083
 10
187.8286862420464
 20
13.89804241804083
 42
-0.2679482664650111
 10
188.2616972420462
 20
13.6480434180409
 42
1.30322304160006
 10
188.9447092420462
 20
14.3310584180408
 42
-0.2679491924309847
  0
LWPOLYLINE
  5
D5
100
AcDbEntity
  8
0
  6
ByLayer
 62
    0
370
   -1
100
AcDbPolyline
 90
    8
 70
    1
 43
0
 10
216.6447172420462
 20
162.2642834180408
 10
216.6447162420461
 20
44.53190141804083
 42
-0.6681785116629841
 10
205.3778112420462
 20
39.86499841804073
 10
174.5778102420463
 20
70.6649964180409
 42
-0.1989124670709964
 10
172.6447132420462
 20
75.33190241804081
 10
172.6447132420462
 20
131.4642814180408
 42
-0.1989124674019992
 10
174.5778102420463
 20
136.1311894180408
 10
205.3778112420462
 20
166.9311864180409
 42
-0.6681785116630079
  0
LWPOLYLINE
  5
D6
100
AcDbEntity
  8
0
  6
ByLayer
 62
    0
370
   -1
100
AcDbPolyline
 90
   16
 70
    1
 43
0
 10
139.1299892420461
 20
83.39809341804082
 10
144.1594262420463
 20
83.39809341804083
 42
-0.1989123583079982
 10
148.4020672420461
 20
81.64073441804079
 10
164.8873482420463
 20
65.15545141804088
 42
-0.1989123360570023
 10
166.6447082420461
 20
60.91281141804083
 10
166.6447072420463
 20
45.88337341804083
 42
-0.1989123175149998
 10
164.8873482420461
 20
41.6407334180408
 10
148.4020672420461
 20
25.15545541804082
 42
-0.1989124853149958
 10
144.1594262420463
 20
23.39809441804081
 10
139.1299892420461
 20
23.39809541804081
 42
-0.1989124853149988
 10
134.8873482420463
 20
25.15545541804087
 10
118.4020652420463
 20
41.64073241804084
 42
-0.1989123175159985
 10
116.6447072420463
 20
45.88337341804083
 10
116.6447072420463
 20
60.91281041804083
 42
-0.1989123360590009
 10
118.4020662420462
 20
65.15545141804083
 10
134.8873482420463
 20
81.64073441804081
 42
-0.1989123583079999
  0
LWPOLYLINE
  5
D7
100
AcDbEntity
  8
0
  6
ByLayer
 62
    0
370
   -1
100
AcDbPolyline
 90
   16
 70
    1
 43
0
 10
148.4020672420461
 20
125.1554514180408
 10
164.8873482420463
 20
141.6407344180408
 42
0.1989123360570023
 10
166.6447082420461
 20
145.8833254180408
 10
166.6447192420462
 20
160.9127634180408
 42
0.1989123175239974
 10
164.8873632420461
 20
165.1554044180408
 10
148.4020962420461
 20
181.6406954180408
 42
0.1989124853149998
 10
144.1594572420463
 20
183.3980604180408
 10
139.1300202420464
 20
183.3980634180408
 42
0.1989124853149992
 10
134.8873772420461
 20
181.6407074180408
 10
118.4020812420463
 20
165.1554424180408
 42
0.1989123174890006
 10
116.6447192420462
 20
160.9128044180408
 10
116.6447072420463
 20
145.8833744180408
 42
0.1989123360589999
 10
118.4020662420462
 20
141.6407344180408
 10
134.8873482420463
 20
125.1554524180407
 42
0.1989123583080015
 10
139.1299892420461
 20
123.3980924180407
 10
144.1594262420463
 20
123.3980924180409
 42
0.1989123583079966
  0
LWPOLYLINE
  5
D8
100
AcDbEntity
  8
0
  6
ByLayer
 62
    0
370
   -1
100
AcDbPolyline
 90
    8
 70
    1
 43
0
 10
66.64469724204628
 20
44.53190241804083
 10
66.64469724204628
 20
162.2642834180408
 42
-0.6681785116599904
 10
77.91160224204623
 20
166.9311874180409
 10
108.7116022420462
 20
136.1311884180406
 42
-0.1989124670719964
 10
110.6447002420462
 20
131.4642834180408
 10
110.6447002420464
 20
75.33190341804081
 42
-0.1989124674019984
 10
108.7116032420463
 20
70.66499741804083
 10
77.91160224204623
 20
39.86499841804081
 42
-0.6681785116599978
  0
CIRCLE
  5
D9
100
AcDbEntity
  8
0
  6
ByLayer
 62
    0
370
   -1
100
AcDbCircle
 10
246.1447072420463
 20
207.8980934180408
 40
1.6
  0
CIRCLE
  5
DA
100
AcDbEntity
  8
0
  6
ByLayer
 62
    0
370
   -1
100
AcDbCircle
 10
124.1447072420463
 20
103.3980934180408
 40
1.6
  0
CIRCLE
  5
DB
100
AcDbEntity
  8
0
  6
ByLayer
 62
    0
370
   -1
100
AcDbCircle
 10
176.6447072420463
 20
3.398093418040816
 40
1.6
  0
CIRCLE
  5
DC
100
AcDbEntity
  8
0
  6
ByLayer
 62
    0
370
   -1
100
AcDbCircle
 10
37.14470724204625
 20
-1.101906581959184
 40
1.6
  0
CIRCLE
  5
DD
100
AcDbEntity
  8
0
  6
ByLayer
 62
    0
370
   -1
100
AcDbCircle
 10
37.14470724204625
 20
207.8980934180408
 40
1.6
  0
CIRCLE
  5
DE
100
AcDbEntity
  8
0
  6
ByLayer
 62
    0
370
   -1
100
AcDbCircle
 10
106.6447542420462
 20
203.3980924180408
 40
1.6
  0
CIRCLE
  5
DF
100
AcDbEntity
  8
0
  6
ByLayer
 62
    0
370
   -1
100
AcDbCircle
 10
106.6447292420462
 20
173.3980924180408
 40
1.6
  0
CIRCLE
  5
E0
100
AcDbEntity
  8
0
  6
ByLayer
 62
    0
370
   -1
100
AcDbCircle
 10
176.6447292420462
 20
173.3980344180408
 40
1.6
  0
CIRCLE
  5
E1
100
AcDbEntity
  8
0
  6
ByLayer
 62
    0
370
   -1
100
AcDbCircle
 10
176.6447072420463
 20
33.39809341804082
 40
1.6
  0
CIRCLE
  5
E2
100
AcDbEntity
  8
0
  6
ByLayer
 62
    0
370
   -1
100
AcDbCircle
 10
159.1447072420463
 20
115.3980934180408
 40
1.6
  0
CIRCLE
  5
E3
100
AcDbEntity
  8
0
  6
ByLayer
 62
    0
370
   -1
100
AcDbCircle
 10
141.6447072420463
 20
115.3980934180408
 40
1.6
  0
CIRCLE
  5
E4
100
AcDbEntity
  8
0
  6
ByLayer
 62
    0
370
   -1
100
AcDbCircle
 10
176.6447542420462
 20
203.3980344180408
 40
1.6
  0
CIRCLE
  5
E5
100
AcDbEntity
  8
0
  6
ByLayer
 62
    0
370
   -1
100
AcDbCircle
 10
246.1447072420463
 20
-1.101906581959184
 40
1.6
  0
CIRCLE
  5
E6
100
AcDbEntity
  8
0
  6
ByLayer
 62
    0
370
   -1
100
AcDbCircle
 10
106.6447072420463
 20
33.39809341804082
 40
1.6
  0
CIRCLE
  5
E7
100
AcDbEntity
  8
0
  6
ByLayer
 62
    0
370
   -1
100
AcDbCircle
 10
159.1447072420463
 20
91.39809341804082
 40
1.6
  0
CIRCLE
  5
E8
100
AcDbEntity
  8
0
  6
ByLayer
 62
    0
370
   -1
100
AcDbCircle
 10
141.6447072420463
 20
91.39809341804082
 40
1.6
  0
CIRCLE
  5
E9
100
AcDbEntity
  8
0
  6
ByLayer
 62
    0
370
   -1
100
AcDbCircle
 10
106.6447072420463
 20
3.398093418040816
 40
1.6
  0
LWPOLYLINE
  5
EA
100
AcDbEntity
  8
0
  6
ByLayer
 62
  256
370
   -1
100
AcDbPolyline
 90
   56
 70
    1
 43
0
 10
184.1594262420463
 20
-4.601907581959183
 42
0.1989123084119995
 10
188.4020662420462
 20
-2.84454858195916
 10
202.8873522420463
 20
11.64073141804083
 42
-0.1989124263469996
 10
207.1299912420461
 20
13.39808941804083
 10
222.1594292420464
 20
13.39809441804081
 42
-0.1989121269739992
 10
226.4020652420463
 20
11.64073541804078
 10
242.6447102420461
 20
-4.601909581959136
 42
0.9999990924489507
 10
249.6447102420461
 20
2.398089418040829
 10
228.4020702420462
 20
23.64073141804086
 42
-0.1989125348560011
 10
226.6447082420464
 20
27.88337441804083
 10
226.6447062420464
 20
178.9128114180408
 42
-0.1989125348570021
 10
228.4020692420463
 20
183.1554554180408
 10
249.6447102420461
 20
204.3980964180406
 42
0.999999092448889
 10
242.6447112420462
 20
211.3980954180407
 10
226.4019872420463
 20
195.1553724180408
 42
-0.1989123628440003
 10
222.1593472420461
 20
193.3980134180408
 10
207.1300302420461
 20
193.3980134180408
 42
-0.1989124263469995
 10
202.8873872420463
 20
195.1553714180408
 10
188.4021192420462
 20
209.6406664180406
 42
0.1989123084119946
 10
184.1594802420461
 20
211.3980314180408
 10
167.1300422420461
 20
211.3980454180406
 42
0.198912303875993
 10
162.8874002420462
 20
209.6406884180406
 10
148.4021072420462
 20
195.1554144180408
 42
-0.1989123084120018
 10
144.1594652420463
 20
193.3980654180408
 10
139.1300282420464
 20
193.3980694180408
 42
-0.1989123084120118
 10
134.8873882420462
 20
195.1554274180408
 10
120.4021192420462
 20
209.6407224180408
 42
0.1989123038759941
 10
116.1594802420461
 20
211.3980874180408
 10
99.13004224204633
 20
211.3981014180408
 42
0.1989123084119943
 10
94.88740024204618
 20
209.6407444180408
 10
80.40210824204632
 20
195.1554704180408
 42
-0.198912426347002
 10
76.15946224204617
 20
193.3981154180407
 10
61.12996524204618
 20
193.3981154180408
 42
-0.1989123673799985
 10
56.88732424204636
 20
195.1554754180409
 10
40.64470324204626
 20
211.3980964180408
 42
0.9999990925288418
 10
33.64470424204637
 20
204.3980964180407
 10
54.88734424204632
 20
183.1554544180408
 42
-0.1989125348550009
 10
56.64470624204614
 20
178.9128114180408
 10
56.64470824204636
 20
27.88337341804083
 42
-0.1989125348550007
 10
54.88734524204619
 20
23.64073041804082
 10
33.64470424204615
 20
2.398089418040828
 42
0.99999909244895
 10
40.64470424204637
 20
-4.601909581959201
 10
56.88735324204617
 20
11.64073241804081
 42
-0.1989121269740013
 10
61.12998624204624
 20
13.39808941804083
 10
76.15942324204616
 20
13.39809541804081
 42
-0.1989124263469997
 10
80.40206724204609
 20
11.6407354180408
 10
94.88734724204619
 20
-2.844550581959166
 42
0.1989123084119995
 10
99.12998824204624
 20
-4.60190958195918
 10
116.1594262420463
 20
-4.601907581959181
 42
0.1989123038760017
 10
120.4020662420462
 20
-2.844548581959176
 10
134.8873522420463
 20
11.64073241804081
 42
-0.1989123084120006
 10
139.1299892420461
 20
13.39808941804083
 10
144.1594262420463
 20
13.39809541804081
 42
-0.1989123084119962
 10
148.4020672420461
 20
11.64073541804077
 10
162.8873472420462
 20
-2.844550581959105
 42
0.1989123038760001
 10
167.1299882420462
 20
-4.601909581959179
  0
ENDBLK
  5
76
330
74
100
AcDbEntity
  8
0
100
AcDbBlockEnd
  0
BLOCK
  5
78
330
77
100
AcDbEntity
  8
0
100
AcDbBlockBegin
  2
Y_axis_base_front
 70
    0
 10
0
 20
0
  3
Y_axis_base_front
  1

  0
LWPOLYLINE
  5
EB
100
AcDbEntity
  8
0
  6
ByLayer
 62
  256
370
   -1
100
AcDbPolyline
 90
   16
 70
    1
 43
0
 10
305.6032171216082
 20
37.50703806787396
 42
-0.2679491924310148
 10
306.0362301216082
 20
37.25703806787406
 42
1.303223041600072
 10
306.719244121608
 20
37.94004906787399
 42
-0.2679482664650378
 10
306.4692451216083
 20
38.373061067874
 10
306.4692421216082
 20
42.84101106787398
 42
-0.2679491924309874
 10
306.7192421216082
 20
43.27402406787402
 42
1.303223041599838
 10
306.0362311216081
 20
43.95703806787399
 42
-0.2679482664649947
 10
305.6032191216082
 20
43.707039067874
 10
304.0353511216081
 20
43.70703606787396
 42
-0.2679491924310012
 10
303.6023391216081
 20
43.95703606787397
 42
1.30322304159976
 10
302.9193251216082
 20
43.27402506787404
 42
-0.267948266465039
 10
303.1693231216082
 20
42.84101306787397
 10
303.1693231216082
 20
38.373063067874
 42
-0.2679491924310105
 10
302.9193231216082
 20
37.94005106787407
 42
1.303223041599887
 10
303.6023351216081
 20
37.25703706787402
 42
-0.2679482617889516
 10
304.0353471216081
 20
37.50703506787395
  0
LWPOLYLINE
  5
EC
100
AcDbEntity
  8
0
  6
ByLayer
 62
  256
370
   -1
100
AcDbPolyline
 90
   16
 70
    1
 43
0
 10
305.6032191216082
 20
64.907039067874
 10
304.0353511216081
 20
64.90703606787399
 42
-0.2679491924309912
 10
303.6023391216081
 20
65.157036067874
 42
1.303223041600186
 10
302.9193251216082
 20
64.47402406787393
 42
-0.2679482617889768
 10
303.1693231216082
 20
64.04101206787402
 10
303.1693231216082
 20
59.57306206787399
 42
-0.2679491924310105
 10
302.9193231216082
 20
59.14005006787406
 42
1.303223041600056
 10
303.6023351216081
 20
58.45703606787396
 42
-0.2679482617889462
 10
304.0353471216081
 20
58.70703406787396
 10
305.6032171216082
 20
58.70703706787398
 42
-0.2679491924309765
 10
306.0362301216082
 20
58.45703706787406
 42
1.303223041600385
 10
306.7192441216082
 20
59.14004906787405
 42
-0.2679482664649919
 10
306.4692451216083
 20
59.57306106787399
 10
306.4692421216082
 20
64.04101006787397
 42
-0.2679491924310117
 10
306.7192421216082
 20
64.474024067874
 42
1.303223041599808
 10
306.0362311216081
 20
65.15703806787404
 42
-0.2679482664649764
  0
LWPOLYLINE
  5
ED
100
AcDbEntity
  8
0
  6
ByLayer
 62
  256
370
   -1
100
AcDbPolyline
 90
   16
 70
    1
 43
0
 10
53.68534512160818
 20
43.70703906787404
 10
55.25321212160816
 20
43.70703606787404
 42
0.267949192431012
 10
55.68622612160812
 20
43.95703606787404
 42
-1.303223041599311
 10
56.3692401216083
 20
43.27402506787402
 42
0.2679482664650126
 10
56.11924112160818
 20
42.841013067874
 10
56.11924112160818
 20
38.37306306787404
 42
0.2679491924310215
 10
56.36924112160818
 20
37.94005106787407
 42
-1.303223041599591
 10
55.68622912160799
 20
37.25703706787402
 42
0.2679482664650297
 10
55.25321712160826
 20
37.507035067874
 10
53.68534712160817
 20
37.50703806787398
 42
0.2679491924309687
 10
53.2523341216081
 20
37.25703806787409
 42
-1.303223041599862
 10
52.56932012160814
 20
37.94004906787414
 42
0.2679482664649852
 10
52.81931812160815
 20
38.37306106787398
 10
52.81932112160825
 20
42.84101106787402
 42
0.2679491924310291
 10
52.56932112160825
 20
43.27402406787401
 42
-1.303223041599807
 10
53.25233312160822
 20
43.95703806787402
 42
0.2679482664649919
  0
LWPOLYLINE
  5
EE
100
AcDbEntity
  8
0
  6
ByLayer
 62
  256
370
   -1
100
AcDbPolyline
 90
   16
 70
    1
 43
0
 10
55.25321712160826
 20
58.70703406787405
 10
53.68534712160817
 20
58.70703706787398
 42
0.2679491924309515
 10
53.2523341216081
 20
58.45703706787398
 42
-1.303223041599999
 10
52.56932012160814
 20
59.14004906787423
 42
0.2679482664649538
 10
52.81931812160815
 20
59.57306106787402
 10
52.81932112160825
 20
64.041010067874
 42
0.2679491924310081
 10
52.56932112160825
 20
64.47402406787401
 42
-1.303223041599931
 10
53.252333121608
 20
65.157038067874
 42
0.2679482664650145
 10
53.68534512160818
 20
64.90703906787402
 10
55.25321212160816
 20
64.90703606787402
 42
0.2679491924309857
 10
55.68622612160788
 20
65.15703606787405
 42
-1.303223041599989
 10
56.36924012160829
 20
64.47402406787405
 42
0.2679482617889799
 10
56.11924112160818
 20
64.04101206787405
 10
56.11924112160818
 20
59.57306206787402
 42
0.267949192431026
 10
56.36924112160818
 20
59.14005006787397
 42
-1.303223041599924
 10
55.68622912160799
 20
58.45703606787397
 42
0.267948266465013
  0
LWPOLYLINE
  5
EF
100
AcDbEntity
  8
0
  6
ByLayer
 62
  256
370
   -1
100
AcDbPolyline
 90
   42
 70
    1
 43
0
 10
84.64178312160834
 20
76.59265206787401
 10
84.64178312160834
 20
71.09462906787402
 42
-0.4142135623730284
 10
84.14178312160834
 20
70.59462906787402
 10
49.46928012160834
 20
70.59463206787402
 42
0.4142135623730027
 10
44.4692801216081
 20
65.59463206787402
 10
44.4692821216081
 20
31.20703706787404
 42
0.4142137003959984
 10
49.4692821216081
 20
26.20703706787404
 10
68.73451212160808
 20
26.20703706787403
 42
0.3278856907169933
 10
69.68882712160826
 20
26.908235067874
 10
71.2497321216083
 20
31.89345006787407
 42
-0.3278856907170196
 10
72.20404712160826
 20
32.59464706787405
 10
72.20973712160821
 20
32.59463506787407
 10
287.0845161216084
 20
32.5946470678739
 42
-0.3278856907159945
 10
288.0388311216082
 20
31.89345006787402
 10
289.5997361216082
 20
26.90823506787399
 42
0.3278856907160003
 10
290.5540511216082
 20
26.207037067874
 10
309.8192821216082
 20
26.20703706787401
 42
0.4142137003959991
 10
314.8192841216082
 20
31.20703706787401
 10
314.8192841216082
 20
65.59463206787397
 42
0.4142135623729968
 10
309.8192841216082
 20
70.594632067874
 10
304.8192841216082
 20
70.59463206787399
 10
275.1467801216081
 20
70.59463206787399
 42
-0.4142135623729286
 10
274.6467801216083
 20
71.09463206787399
 10
274.6467801216083
 20
76.59265206787398
 42
0.4142135623729972
 10
272.6467801216083
 20
78.59265206787398
 10
268.3306271216084
 20
78.592652067874
 42
0.6015939385919651
 10
267.9167121216083
 20
77.81216306787401
 42
-1.885623985129991
 10
261.376848121608
 20
77.81216306787404
 42
0.601593938591913
 10
260.9629321216082
 20
78.592652067874
 10
256.6467801216083
 20
78.59265206787404
 42
0.4142135623730034
 10
254.6467801216083
 20
76.59265206787398
 10
254.6467801216083
 20
71.09462906787394
 42
-0.4142135623729951
 10
254.1467801216083
 20
70.594629067874
 10
105.1417831216081
 20
70.59463206787402
 42
-0.4142135623730284
 10
104.6417831216083
 20
71.09463206787402
 10
104.6417831216083
 20
76.59265206787401
 42
0.4142135623729951
 10
102.6417831216083
 20
78.59265206787401
 10
98.32563012160836
 20
78.59265206787403
 42
0.6015939385920474
 10
97.91171512160849
 20
77.81216306787401
 42
-1.885623985129962
 10
91.37185112160819
 20
77.81216306787411
 42
0.6015939385919276
 10
90.95793512160844
 20
78.59265206787407
 10
86.64178312160811
 20
78.59265206787401
 42
0.4142135623729951
  0
CIRCLE
  5
F0
100
AcDbEntity
  8
0
  6
ByLayer
 62
  256
370
   -1
100
AcDbCircle
 10
214.6442821216083
 20
61.20703706787397
 40
1.6
  0
CIRCLE
  5
F1
100
AcDbEntity
  8
0
  6
ByLayer
 62
  256
370
   -1
100
AcDbCircle
 10
54.46928012160834
 20
51.20703706787398
 40
1.6
  0
CIRCLE
  5
F2
100
AcDbEntity
  8
0
  6
ByLayer
 62
  256
370
   -1
100
AcDbCircle
 10
144.6442821216083
 20
41.20703706787403
 40
1.6
  0
CIRCLE
  5
F3
100
AcDbEntity
  8
0
  6
ByLayer
 62
  256
370
   -1
100
AcDbCircle
 10
144.6442821216083
 20
61.20703706787398
 40
1.6
  0
CIRCLE
  5
F4
100
AcDbEntity
  8
0
  6
ByLayer
 62
  256
370
   -1
100
AcDbCircle
 10
214.6442821216083
 20
41.20703706787403
 40
1.6
  0
CIRCLE
  5
F5
100
AcDbEntity
  8
0
  6
ByLayer
 62
  256
370
   -1
100
AcDbCircle
 10
304.8192841216082
 20
51.20703706787396
 40
1.6
  0
CIRCLE
  5
F6
100
AcDbEntity
  8
0
  6
ByLayer
 62
  256
370
   -1
100
AcDbCircle
 10
269.6464611216081
 20
66.87072406787399
 40
1.6
  0
CIRCLE
  5
F7
100
AcDbEntity
  8
0
  6
ByLayer
 62
  256
370
   -1
100
AcDbCircle
 10
259.6464611216081
 20
66.87072406787399
 40
1.6
  0
CIRCLE
  5
F8
100
AcDbEntity
  8
0
  6
ByLayer
 62
  256
370
   -1
100
AcDbCircle
 10
99.6414771216082
 20
66.87072406787402
 40
1.6
  0
CIRCLE
  5
F9
100
AcDbEntity
  8
0
  6
ByLayer
 62
  256
370
   -1
100
AcDbCircle
 10
89.6414771216082
 20
66.87072406787402
 40
1.6
  0
LWPOLYLINE
  5
FA
100
AcDbEntity
  8
0
  6
ByLayer
 62
  256
370
   -1
100
AcDbPolyline
 90
   16
 70
    1
 43
0
 10
186.7282211216082
 20
37.894637067874
 10
185.1603511216081
 20
37.89464006787399
 42
0.2679491924309848
 10
184.7273381216082
 20
37.64464006787398
 42
-1.303223029819977
 10
184.0443241216083
 20
38.32765106787402
 42
0.2679482664649799
 10
184.2943221216083
 20
38.76066306787398
 10
184.2943251216084
 20
43.22861306787401
 42
0.26794919243104
 10
184.0443251216082
 20
43.66162606787407
 42
-1.303223041600013
 10
184.7273371216081
 20
44.34464006787397
 42
0.2679482664650042
 10
185.1603491216083
 20
44.09464106787405
 10
186.7282161216083
 20
44.09463806787399
 42
0.2679491924309898
 10
187.1612301216082
 20
44.34463806787403
 42
-1.303223041599969
 10
187.8442441216082
 20
43.66162706787397
 42
0.2679482664649846
 10
187.5942451216083
 20
43.228615067874
 10
187.5942451216083
 20
38.76066506787404
 42
0.2679491924309977
 10
187.8442451216083
 20
38.32765306787401
 42
-1.303223041599946
 10
187.1612331216081
 20
37.64463906787397
 42
0.267948266464983
  0
LWPOLYLINE
  5
FB
100
AcDbEntity
  8
0
  6
ByLayer
 62
  256
370
   -1
100
AcDbPolyline
 90
   16
 70
    1
 43
0
 10
187.1612301216082
 20
65.54463806787399
 42
-1.303223041599998
 10
187.8442441216082
 20
64.86162606787393
 42
0.2679482664649694
 10
187.5942451216083
 20
64.42861406787399
 10
187.5942451216083
 20
59.96066406787401
 42
0.2679491924309977
 10
187.8442451216083
 20
59.52765206787399
 42
-1.303223041600063
 10
187.1612331216081
 20
58.84463806787402
 42
0.26794826646488
 10
186.7282211216082
 20
59.09463606787398
 10
185.1603511216081
 20
59.09463906787405
 42
0.2679491924310067
 10
184.7273381216082
 20
58.84463906787398
 42
-1.303223041599912
 10
184.0443241216083
 20
59.527651067874
 42
0.2679482664650085
 10
184.2943221216083
 20
59.96066306787397
 10
184.2943251216082
 20
64.42861206787398
 42
0.2679491924310234
 10
184.0443251216082
 20
64.86162606787403
 42
-1.303223041599783
 10
184.7273371216081
 20
65.54464006787396
 42
0.2679482664650176
 10
185.1603491216083
 20
65.29464106787402
 10
186.7282161216083
 20
65.29463806787398
 42
0.2679491924309801
  0
CIRCLE
  5
FC
100
AcDbEntity
  8
0
  6
ByLayer
 62
  256
370
   -1
100
AcDbCircle
 10
185.9442831216081
 20
51.59463906787404
 40
1.6
  0
LWPOLYLINE
  5
FD
100
AcDbEntity
  8
0
  6
ByLayer
 62
  256
370
   -1
100
AcDbPolyline
 90
   16
 70
    1
 43
0
 10
171.6943221216081
 20
38.76066306787398
 10
171.6943251216082
 20
43.22861306787401
 42
0.2679491924309986
 10
171.4443251216082
 20
43.66162606787394
 42
-1.303223041599987
 10
172.1273371216082
 20
44.34464006787401
 42
0.2679482664649943
 10
172.5603491216082
 20
44.09464106787406
 10
174.1282161216081
 20
44.09463806787404
 42
0.2679491924310012
 10
174.5612301216081
 20
44.34463806787404
 42
-1.303223041600072
 10
175.2442441216083
 20
43.66162706787406
 42
0.2679482664650034
 10
174.9942451216082
 20
43.228615067874
 10
174.9942451216082
 20
38.76066506787404
 42
0.2679491924310164
 10
175.2442451216082
 20
38.327653067874
 42
-1.303223041599995
 10
174.5612331216082
 20
37.64463906787401
 42
0.2679482664649978
 10
174.1282211216082
 20
37.894637067874
 10
172.5603511216082
 20
37.89464006787399
 42
0.2679491924309989
 10
172.1273381216083
 20
37.644640067874
 42
-1.303223029819998
 10
171.4443241216081
 20
38.32765106787402
 42
0.267948266464999
  0
LWPOLYLINE
  5
FE
100
AcDbEntity
  8
0
  6
ByLayer
 62
  256
370
   -1
100
AcDbPolyline
 90
   16
 70
    1
 43
0
 10
174.5612331216082
 20
58.84463806787398
 42
0.2679482664649464
 10
174.1282211216082
 20
59.09463606787398
 10
172.5603511216082
 20
59.09463906787397
 42
0.2679491924309879
 10
172.1273381216083
 20
58.84463906787396
 42
-1.303223041599584
 10
171.4443241216081
 20
59.52765106787399
 42
0.2679482664650104
 10
171.6943221216081
 20
59.96066306787397
 10
171.6943251216082
 20
64.42861206787398
 42
0.2679491924310081
 10
171.4443251216082
 20
64.861626067874
 42
-1.303223041599612
 10
172.1273371216082
 20
65.544640067874
 42
0.2679482664649899
 10
172.5603491216082
 20
65.29464106787402
 10
174.1282161216081
 20
65.29463806787403
 42
0.2679491924310088
 10
174.5612301216081
 20
65.544638067874
 42
-1.303223041599606
 10
175.2442441216083
 20
64.861626067874
 42
0.267948266465003
 10
174.9942451216082
 20
64.42861406787399
 10
174.9942451216082
 20
59.96066406787401
 42
0.2679491924310184
 10
175.2442451216082
 20
59.52765206787397
 42
-1.303223041599571
  0
CIRCLE
  5
FF
100
AcDbEntity
  8
0
  6
ByLayer
 62
  256
370
   -1
100
AcDbCircle
 10
173.3442831216082
 20
51.59463906787404
 40
1.6
  0
LWPOLYLINE
  5
100
100
AcDbEntity
  8
0
  6
ByLayer
 62
  256
370
   -1
100
AcDbPolyline
 90
   16
 70
    1
 43
0
 10
122.8618931216097
 20
53.10699556736773
 42
0.2679482664650228
 10
123.2949051216101
 20
52.85699656736775
 10
127.7628551216101
 20
52.85699356736778
 42
0.2679491924309818
 10
128.19586712161
 20
53.10699356736778
 42
-1.303223041600273
 10
128.87888112161
 20
52.42398156736779
 42
0.2679482664649728
 10
128.62888312161
 20
51.99096956736778
 10
128.6288801216099
 20
50.42310256736779
 42
0.267949192431007
 10
128.8788801216099
 20
49.99009056736777
 42
-1.303223041599958
 10
128.1958691216098
 20
49.30707656736773
 42
0.2679482664649583
 10
127.7628571216101
 20
49.55707456736776
 10
123.2949071216101
 20
49.55707456736776
 42
0.2679491924309406
 10
122.86189412161
 20
49.30707456736776
 42
-1.303223041600005
 10
122.1788801216098
 20
49.99008556736776
 42
0.2679482664649971
 10
122.42887912161
 20
50.42309756736776
 10
122.4288821216098
 20
51.99096856736777
 42
0.2679491924310053
 10
122.1788821216098
 20
52.42398156736783
 42
-1.303223041600116
  0
CIRCLE
  5
101
100
AcDbEntity
  8
0
  6
ByLayer
 62
  256
370
   -1
100
AcDbCircle
 10
114.9288811216099
 20
51.20703556736773
 40
1.6
  0
LWPOLYLINE
  5
102
100
AcDbEntity
  8
0
  6
ByLayer
 62
  256
370
   -1
100
AcDbPolyline
 90
   16
 70
    1
 43
0
 10
100.97888212161
 20
52.4239815673678
 42
-1.303223041600248
 10
101.6618941216097
 20
53.10699556736779
 42
0.2679482664650594
 10
102.0949061216102
 20
52.85699656736774
 10
106.5628561216099
 20
52.85699356736768
 42
0.2679491924310279
 10
106.9958681216096
 20
53.10699356736782
 42
-1.303223041599856
 10
107.6788821216098
 20
52.42398156736779
 42
0.2679482664649943
 10
107.4288841216101
 20
51.99096956736778
 10
107.4288811216099
 20
50.42310256736781
 42
0.2679491924309691
 10
107.6788811216099
 20
49.9900905673678
 42
-1.303223041599768
 10
106.99586912161
 20
49.30707656736779
 42
0.2679482664649835
 10
106.5628571216098
 20
49.55707456736779
 10
102.0949081216099
 20
49.55707456736777
 42
0.267949192431041
 10
101.66189412161
 20
49.30707456736783
 42
-1.303223041600037
 10
100.9788801216102
 20
49.99008556736776
 42
0.2679482664649671
 10
101.2288791216099
 20
50.42309766303887
 10
101.22888212161
 20
51.99096856736779
 42
0.2679491924310062
  0
LWPOLYLINE
  5
103
100
AcDbEntity
  8
0
  6
ByLayer
 62
  256
370
   -1
100
AcDbPolyline
 90
   16
 70
    1
 43
0
 10
252.2926961216065
 20
53.1069975683839
 42
0.2679482664650797
 10
252.7257081216064
 20
52.85699956838389
 10
257.1936581216064
 20
52.85699656838392
 42
0.2679491924309894
 10
257.6266701216064
 20
53.10699656838393
 42
-1.30322304160003
 10
258.3096841216066
 20
52.42398456838389
 42
0.2679482664650022
 10
258.0596861216063
 20
51.99097256838392
 10
258.0596831216064
 20
50.42310556838396
 42
0.2679491924310241
 10
258.3096831216064
 20
49.99009356838391
 42
-1.303223041599873
 10
257.6266721216064
 20
49.30707856838388
 42
0.2679482664649868
 10
257.1936601216066
 20
49.55707756838392
 10
252.7257101216064
 20
49.55707756838392
 42
0.2679491924310005
 10
252.2926971216066
 20
49.30707756838396
 42
-1.303223041600158
 10
251.6096831216064
 20
49.99008856838388
 42
0.2679482664650052
 10
251.8596821216065
 20
50.42310056838392
 10
251.8596851216066
 20
51.99097156838393
 42
0.2679491924310033
 10
251.6096851216066
 20
52.42398356838397
 42
-1.303223041600061
  0
LWPOLYLINE
  5
104
100
AcDbEntity
  8
0
  6
ByLayer
 62
  256
370
   -1
100
AcDbPolyline
 90
   16
 70
    1
 43
0
 10
236.8596841216063
 20
50.42310556838396
 42
0.2679491924310262
 10
237.1096841216063
 20
49.99009356838388
 42
-1.303223041599872
 10
236.4266721216063
 20
49.30707856838389
 42
0.2679482664649744
 10
235.9936601216064
 20
49.55707756838394
 10
231.5257111216065
 20
49.55707756838393
 42
0.2679491924310105
 10
231.0926971216063
 20
49.30707756838392
 42
-1.303223041600078
 10
230.4096831216063
 20
49.99008856838389
 42
0.2679482664650276
 10
230.6596821216065
 20
50.42310056838392
 10
230.6596851216063
 20
51.99097156838394
 42
0.2679491924309971
 10
230.4096851216063
 20
52.42398356838387
 42
-1.303223041600025
 10
231.0926971216063
 20
53.10699756838392
 42
0.2679482664650771
 10
231.5257091216065
 20
52.85699956838398
 10
235.9936591216065
 20
52.85699656838391
 42
0.2679491924309927
 10
236.4266711216064
 20
53.10699656838389
 42
-1.303223041600144
 10
237.1096851216064
 20
52.42398456838388
 42
0.267948266465016
 10
236.8596871216064
 20
51.99097256838392
  0
CIRCLE
  5
105
100
AcDbEntity
  8
0
  6
ByLayer
 62
  256
370
   -1
100
AcDbCircle
 10
244.3596841216065
 20
51.20703856838388
 40
1.6
  0
ENDBLK
  5
79
330
77
100
AcDbEntity
  8
0
100
AcDbBlockEnd
  0
BLOCK
  5
7B
330
7A
100
AcDbEntity
  8
0
100
AcDbBlockBegin
  2
Y_axis_base_rear
 70
    0
 10
0
 20
0
  3
Y_axis_base_rear
  1

  0
LWPOLYLINE
  5
106
100
AcDbEntity
  8
0
  6
ByLayer
 62
  256
370
   -1
100
AcDbPolyline
 90
   16
 70
    1
 43
0
 10
305.6032171216082
 20
37.50703806787396
 42
-0.2679491924310084
 10
306.0362301216082
 20
37.25703806787407
 42
1.30322304160015
 10
306.7192441216082
 20
37.94004906787408
 42
-0.2679482664649704
 10
306.4692451216081
 20
38.373061067874
 10
306.4692421216082
 20
42.84101106787399
 42
-0.267949192430976
 10
306.7192421216082
 20
43.27402406787402
 42
1.303223041599843
 10
306.0362311216081
 20
43.95703806787399
 42
-0.2679482664649947
 10
305.6032191216082
 20
43.707039067874
 10
304.0353511216083
 20
43.70703606787394
 42
-0.2679491924310001
 10
303.6023391216083
 20
43.957036067874
 42
1.303223041599675
 10
302.9193251216082
 20
43.27402506787404
 42
-0.2679482664650237
 10
303.1693231216084
 20
42.84101306787398
 10
303.1693231216083
 20
38.373063067874
 42
-0.2679491924310236
 10
302.9193231216082
 20
37.94005106787405
 42
1.303223041599895
 10
303.6023351216081
 20
37.25703706787402
 42
-0.2679482617889506
 10
304.0353471216083
 20
37.50703506787395
  0
LWPOLYLINE
  5
107
100
AcDbEntity
  8
0
  6
ByLayer
 62
  256
370
   -1
100
AcDbPolyline
 90
   16
 70
    1
 43
0
 10
305.6032191216082
 20
64.907039067874
 10
304.0353511216083
 20
64.90703606787399
 42
-0.2679491924309803
 10
303.6023391216083
 20
65.15703606787402
 42
1.303223041600099
 10
302.9193251216082
 20
64.47402406787398
 42
-0.2679482617890301
 10
303.1693231216082
 20
64.04101206787402
 10
303.1693231216084
 20
59.573062067874
 42
-0.2679491924310295
 10
302.9193231216084
 20
59.14005006787399
 42
1.303223041599775
 10
303.6023351216083
 20
58.45703606787391
 42
-0.2679482617889508
 10
304.0353471216083
 20
58.70703406787398
 10
305.6032171216082
 20
58.70703706787396
 42
-0.26794919243097
 10
306.0362301216082
 20
58.45703706787405
 42
1.30322304160039
 10
306.7192441216082
 20
59.14004906787407
 42
-0.2679482664649673
 10
306.4692451216083
 20
59.57306106787399
 10
306.4692421216084
 20
64.04101006787397
 42
-0.2679491924309627
 10
306.7192421216082
 20
64.47402406787393
 42
1.303223041599787
 10
306.0362311216081
 20
65.15703806787404
 42
-0.2679482664649764
  0
LWPOLYLINE
  5
108
100
AcDbEntity
  8
0
  6
ByLayer
 62
  256
370
   -1
100
AcDbPolyline
 90
   16
 70
    1
 43
0
 10
53.68534512160818
 20
43.70703906787404
 10
55.25321212160816
 20
43.70703606787405
 42
0.267949192431012
 10
55.68622612160812
 20
43.95703606787405
 42
-1.303223041599311
 10
56.3692401216083
 20
43.27402506787403
 42
0.2679482664650126
 10
56.11924112160818
 20
42.84101306787401
 10
56.11924112160818
 20
38.37306306787404
 42
0.2679491924310215
 10
56.36924112160818
 20
37.94005106787407
 42
-1.303223041599591
 10
55.68622912160799
 20
37.25703706787402
 42
0.2679482664650297
 10
55.25321712160826
 20
37.507035067874
 10
53.68534712160817
 20
37.50703806787398
 42
0.2679491924309687
 10
53.2523341216081
 20
37.25703806787409
 42
-1.303223041599866
 10
52.56932012160837
 20
37.94004906787414
 42
0.2679482664649857
 10
52.81931812160815
 20
38.37306106787398
 10
52.81932112160825
 20
42.84101106787401
 42
0.2679491924310272
 10
52.56932112160825
 20
43.274024067874
 42
-1.303223041599798
 10
53.25233312160822
 20
43.95703806787402
 42
0.2679482664649919
  0
LWPOLYLINE
  5
109
100
AcDbEntity
  8
0
  6
ByLayer
 62
  256
370
   -1
100
AcDbPolyline
 90
   16
 70
    1
 43
0
 10
55.25321712160826
 20
58.70703406787405
 10
53.68534712160817
 20
58.70703706787399
 42
0.2679491924309515
 10
53.2523341216081
 20
58.45703706787399
 42
-1.303223041600003
 10
52.56932012160837
 20
59.14004906787424
 42
0.2679482664649523
 10
52.81931812160815
 20
59.57306106787403
 10
52.81932112160825
 20
64.041010067874
 42
0.2679491924310081
 10
52.56932112160825
 20
64.47402406787401
 42
-1.303223041599931
 10
53.252333121608
 20
65.157038067874
 42
0.2679482664650145
 10
53.68534512160818
 20
64.90703906787402
 10
55.25321212160816
 20
64.907036067874
 42
0.2679491924309877
 10
55.68622612160789
 20
65.15703606787403
 42
-1.303223041599976
 10
56.3692401216083
 20
64.47402406787404
 42
0.2679482617889788
 10
56.11924112160818
 20
64.04101206787405
 10
56.11924112160818
 20
59.57306206787403
 42
0.2679491924310265
 10
56.36924112160818
 20
59.14005006787397
 42
-1.30322304159994
 10
55.68622912160823
 20
58.45703606787396
 42
0.2679482664650087
  0
LWPOLYLINE
  5
10A
100
AcDbEntity
  8
0
  6
ByLayer
 62
  256
370
   -1
100
AcDbPolyline
 90
   42
 70
    1
 43
0
 10
84.64178312160834
 20
76.59265206787401
 10
84.64178312160834
 20
71.09462906787402
 42
-0.4142135623730284
 10
84.14178312160834
 20
70.59462906787402
 10
49.46928012160811
 20
70.59463206787402
 42
0.4142135623730018
 10
44.46928012160811
 20
65.59463206787402
 10
44.4692821216081
 20
31.20703706787404
 42
0.4142137003959986
 10
49.46928212160833
 20
26.20703706787404
 10
68.73451212160808
 20
26.20703706787403
 42
0.3278856907169933
 10
69.68882712160826
 20
26.908235067874
 10
71.2497321216083
 20
31.89345006787407
 42
-0.3278856907170196
 10
72.20404712160826
 20
32.59464706787405
 10
72.20973712160821
 20
32.59463506787407
 10
287.0845161216082
 20
32.5946470678739
 42
-0.327885690715984
 10
288.0388311216082
 20
31.89345006787401
 10
289.5997361216079
 20
26.90823506787397
 42
0.3278856907160101
 10
290.5540511216082
 20
26.207037067874
 10
309.8192821216082
 20
26.207037067874
 42
0.4142137003959991
 10
314.8192841216082
 20
31.207037067874
 10
314.8192841216082
 20
65.59463206787396
 42
0.4142135623729968
 10
309.8192841216082
 20
70.59463206787399
 10
304.8192841216082
 20
70.59463206787399
 10
275.1467801216081
 20
70.59463206787399
 42
-0.4142135623729286
 10
274.6467801216083
 20
71.09463206787399
 10
274.6467801216083
 20
76.59265206787398
 42
0.4142135623729972
 10
272.6467801216083
 20
78.59265206787398
 10
268.3306271216084
 20
78.59265206787398
 42
0.6015939385919729
 10
267.9167121216083
 20
77.81216306787397
 42
-1.885623985129997
 10
261.3768481216082
 20
77.81216306787404
 42
0.601593938591953
 10
260.9629321216082
 20
78.592652067874
 10
256.6467801216083
 20
78.59265206787404
 42
0.4142135623730034
 10
254.6467801216083
 20
76.59265206787398
 10
254.6467801216083
 20
71.09462906787394
 42
-0.4142135623729951
 10
254.1467801216083
 20
70.594629067874
 10
105.1417831216081
 20
70.59463206787402
 42
-0.4142135623730284
 10
104.6417831216083
 20
71.09463206787402
 10
104.6417831216083
 20
76.59265206787401
 42
0.4142135623729951
 10
102.6417831216083
 20
78.59265206787401
 10
98.32563012160836
 20
78.59265206787401
 42
0.6015939385920474
 10
97.91171512160849
 20
77.812163067874
 42
-1.88562398512996
 10
91.37185112160819
 20
77.81216306787411
 42
0.60159393859193
 10
90.95793512160822
 20
78.59265206787407
 10
86.64178312160834
 20
78.59265206787401
 42
0.4142135623729951
  0
CIRCLE
  5
10B
100
AcDbEntity
  8
0
  6
ByLayer
 62
  256
370
   -1
100
AcDbCircle
 10
54.46928012160811
 20
51.20703706787399
 40
1.6
  0
CIRCLE
  5
10C
100
AcDbEntity
  8
0
  6
ByLayer
 62
  256
370
   -1
100
AcDbCircle
 10
304.8192841216082
 20
51.20703706787396
 40
1.6
  0
CIRCLE
  5
10D
100
AcDbEntity
  8
0
  6
ByLayer
 62
  256
370
   -1
100
AcDbCircle
 10
269.6464611216081
 20
66.87072406787399
 40
1.6
  0
CIRCLE
  5
10E
100
AcDbEntity
  8
0
  6
ByLayer
 62
  256
370
   -1
100
AcDbCircle
 10
259.6464611216081
 20
66.87072406787399
 40
1.6
  0
CIRCLE
  5
10F
100
AcDbEntity
  8
0
  6
ByLayer
 62
  256
370
   -1
100
AcDbCircle
 10
99.6414771216082
 20
66.87072406787402
 40
1.6
  0
CIRCLE
  5
110
100
AcDbEntity
  8
0
  6
ByLayer
 62
  256
370
   -1
100
AcDbCircle
 10
89.6414771216082
 20
66.87072406787402
 40
1.6
  0
LWPOLYLINE
  5
111
100
AcDbEntity
  8
0
  6
ByLayer
 62
  256
370
   -1
100
AcDbPolyline
 90
   16
 70
    1
 43
0
 10
186.7282211216082
 20
37.894637067874
 10
185.1603511216083
 20
37.89464006787399
 42
0.2679491924309784
 10
184.7273381216082
 20
37.64464006787398
 42
-1.303223029820079
 10
184.0443241216083
 20
38.32765106787404
 42
0.2679482664649876
 10
184.2943221216083
 20
38.76066306787398
 10
184.2943251216084
 20
43.228613067874
 42
0.2679491924310248
 10
184.0443251216082
 20
43.66162606787405
 42
-1.303223041600078
 10
184.7273371216081
 20
44.34464006787396
 42
0.2679482664650052
 10
185.1603491216081
 20
44.09464106787405
 10
186.7282161216083
 20
44.09463806787399
 42
0.2679491924309898
 10
187.1612301216082
 20
44.34463806787403
 42
-1.303223041599969
 10
187.8442441216082
 20
43.66162706787397
 42
0.2679482664649846
 10
187.5942451216083
 20
43.228615067874
 10
187.5942451216081
 20
38.76066506787404
 42
0.2679491924310255
 10
187.8442451216083
 20
38.327653067874
 42
-1.303223041599949
 10
187.1612331216081
 20
37.64463906787397
 42
0.267948266464983
  0
LWPOLYLINE
  5
112
100
AcDbEntity
  8
0
  6
ByLayer
 62
  256
370
   -1
100
AcDbPolyline
 90
   16
 70
    1
 43
0
 10
187.1612301216082
 20
65.54463806787399
 42
-1.303223041599937
 10
187.8442441216082
 20
64.86162606787394
 42
0.2679482664649808
 10
187.5942451216083
 20
64.42861406787398
 10
187.5942451216081
 20
59.96066406787401
 42
0.2679491924310198
 10
187.8442451216083
 20
59.52765206787398
 42
-1.303223041600067
 10
187.1612331216081
 20
58.84463806787401
 42
0.2679482664648788
 10
186.7282211216082
 20
59.094636067874
 10
185.1603511216083
 20
59.09463906787406
 42
0.2679491924309962
 10
184.7273381216082
 20
58.84463906787396
 42
-1.303223041599922
 10
184.0443241216083
 20
59.52765106787399
 42
0.2679482664650104
 10
184.2943221216083
 20
59.96066306787397
 10
184.2943251216082
 20
64.42861206787398
 42
0.2679491924310234
 10
184.0443251216082
 20
64.86162606787403
 42
-1.303223041599783
 10
184.7273371216081
 20
65.54464006787396
 42
0.2679482664650195
 10
185.1603491216081
 20
65.29464106787401
 10
186.7282161216083
 20
65.29463806787396
 42
0.2679491924310008
  0
CIRCLE
  5
113
100
AcDbEntity
  8
0
  6
ByLayer
 62
  256
370
   -1
100
AcDbCircle
 10
185.9442831216081
 20
51.59463906787403
 40
1.6
  0
LWPOLYLINE
  5
114
100
AcDbEntity
  8
0
  6
ByLayer
 62
  256
370
   -1
100
AcDbPolyline
 90
   16
 70
    1
 43
0
 10
171.6943221216081
 20
38.76066306787398
 10
171.6943251216082
 20
43.228613067874
 42
0.2679491924310062
 10
171.4443251216082
 20
43.66162606787395
 42
-1.303223041599991
 10
172.1273371216082
 20
44.344640067874
 42
0.2679482664649943
 10
172.5603491216082
 20
44.09464106787406
 10
174.1282161216081
 20
44.09463806787404
 42
0.2679491924310012
 10
174.5612301216081
 20
44.34463806787404
 42
-1.303223041600072
 10
175.2442441216083
 20
43.66162706787406
 42
0.2679482664650034
 10
174.9942451216082
 20
43.228615067874
 10
174.9942451216082
 20
38.76066506787404
 42
0.2679491924310164
 10
175.2442451216082
 20
38.327653067874
 42
-1.303223041599995
 10
174.5612331216082
 20
37.64463906787401
 42
0.2679482664649978
 10
174.1282211216082
 20
37.894637067874
 10
172.5603511216082
 20
37.89464006787399
 42
0.2679491924310036
 10
172.1273381216081
 20
37.644640067874
 42
-1.303223029819942
 10
171.4443241216081
 20
38.32765106787402
 42
0.267948266464999
  0
LWPOLYLINE
  5
115
100
AcDbEntity
  8
0
  6
ByLayer
 62
  256
370
   -1
100
AcDbPolyline
 90
   16
 70
    1
 43
0
 10
174.5612331216082
 20
58.84463806787397
 42
0.2679482664649455
 10
174.1282211216082
 20
59.094636067874
 10
172.5603511216082
 20
59.09463906787398
 42
0.2679491924310036
 10
172.1273381216081
 20
58.84463906787399
 42
-1.303223041599549
 10
171.4443241216081
 20
59.52765106787399
 42
0.2679482664650104
 10
171.6943221216081
 20
59.96066306787397
 10
171.6943251216082
 20
64.42861206787398
 42
0.2679491924310081
 10
171.4443251216082
 20
64.861626067874
 42
-1.303223041599603
 10
172.1273371216082
 20
65.54464006787398
 42
0.2679482664649899
 10
172.5603491216082
 20
65.29464106787401
 10
174.1282161216081
 20
65.29463806787402
 42
0.2679491924310088
 10
174.5612301216081
 20
65.54463806787399
 42
-1.303223041599606
 10
175.2442441216083
 20
64.86162606787398
 42
0.267948266465003
 10
174.9942451216082
 20
64.42861406787398
 10
174.9942451216082
 20
59.96066406787401
 42
0.2679491924310148
 10
175.2442451216082
 20
59.52765206787396
 42
-1.303223041599571
  0
CIRCLE
  5
116
100
AcDbEntity
  8
0
  6
ByLayer
 62
  256
370
   -1
100
AcDbCircle
 10
173.3442831216082
 20
51.59463906787403
 40
1.6
  0
CIRCLE
  5
117
100
AcDbEntity
  8
0
  6
ByLayer
 62
  256
370
   -1
100
AcDbCircle
 10
245.6442821216083
 20
41.20703706787403
 40
1.6
  0
CIRCLE
  5
118
100
AcDbEntity
  8
0
  6
ByLayer
 62
  256
370
   -1
100
AcDbCircle
 10
245.6442821216083
 20
61.20703706787396
 40
1.6
  0
CIRCLE
  5
119
100
AcDbEntity
  8
0
  6
ByLayer
 62
  256
370
   -1
100
AcDbCircle
 10
113.6442821216083
 20
41.20703706787405
 40
1.6
  0
CIRCLE
  5
11A
100
AcDbEntity
  8
0
  6
ByLayer
 62
  256
370
   -1
100
AcDbCircle
 10
113.6442821216083
 20
61.20703706787399
 40
1.6
  0
ENDBLK
  5
7C
330
7A
100
AcDbEntity
  8
0
100
AcDbBlockEnd
  0
BLOCK
  5
7E
330
7D
100
AcDbEntity
  8
0
100
AcDbBlockBegin
  2
front_frame
 70
    0
 10
0
 20
0
  3
front_frame
  1

  0
LWPOLYLINE
  5
11B
100
AcDbEntity
  8
0
  6
ByLayer
 62
    0
370
   -1
100
AcDbPolyline
 90
    6
 70
    1
 43
0
 10
63.37782309411782
 20
120.5932039371495
 42
0.5773502691899857
 10
58.87782309411782
 20
123.1912799371494
 10
29.95082309411795
 20
106.4902689371494
 42
0.5773502691899953
 10
29.95082309411784
 20
101.2941159371495
 10
58.87782309411782
 20
84.59310493714946
 42
0.5773502691899832
 10
63.37782309411783
 20
87.19118093714951
  0
LWPOLYLINE
  5
11C
100
AcDbEntity
  8
0
  6
ByLayer
 62
    0
370
   -1
100
AcDbPolyline
 90
    6
 70
    1
 43
0
 10
32.95082309411799
 20
134.5921589371495
 42
-0.5773502691899749
 10
28.45082309411795
 20
137.1902349371495
 10
28.45082309411795
 20
170.5922579371495
 42
-0.5773502691899922
 10
32.950823094118
 20
173.1903339371494
 10
61.87782309411801
 20
156.4893229371495
 42
-0.5773502691899959
 10
61.87782309411782
 20
151.2931699371495
  0
LWPOLYLINE
  5
11D
100
AcDbEntity
  8
0
  6
ByLayer
 62
    0
370
   -1
100
AcDbPolyline
 90
    6
 70
    1
 43
0
 10
63.37782309411782
 20
220.5932039371495
 42
0.5773502691899807
 10
58.87782309411784
 20
223.1912799371494
 10
29.95082309411801
 20
206.4902689371495
 42
0.5773502691899958
 10
29.95082309411784
 20
201.2941159371495
 10
58.87782309411783
 20
184.5931049371495
 42
0.5773502691899823
 10
63.37782309411782
 20
187.1911809371495
  0
LWPOLYLINE
  5
11E
100
AcDbEntity
  8
0
  6
ByLayer
 62
    0
370
   -1
100
AcDbPolyline
 90
    6
 70
    1
 43
0
 10
32.95082309411801
 20
234.5921589371495
 42
-0.5773502691899921
 10
28.45082309411801
 20
237.1902349371496
 10
28.45082309411801
 20
270.5922579371495
 42
-0.5773502691899857
 10
32.95082309411801
 20
273.1903339371494
 10
61.87782309411783
 20
256.4893229371495
 42
-0.5773502691899939
 10
61.8778230941178
 20
251.2931699371496
  0
LWPOLYLINE
  5
11F
100
AcDbEntity
  8
0
  6
ByLayer
 62
    0
370
   -1
100
AcDbPolyline
 90
    6
 70
    1
 43
0
 10
29.95082309411803
 20
306.4902689371495
 42
0.5773502691899923
 10
29.95082309411787
 20
301.2941159371496
 10
58.87782309411782
 20
284.5931049371495
 42
0.5773502691899856
 10
63.37782309411782
 20
287.1911809371496
 10
63.37782309411782
 20
320.5932039371495
 42
0.5773502691899857
 10
58.87782309411782
 20
323.1912799371494
  0
LWPOLYLINE
  5
120
100
AcDbEntity
  8
0
  6
ByLayer
 62
    0
370
   -1
100
AcDbPolyline
 90
    6
 70
    1
 43
0
 10
28.45082309411801
 20
350.8912469371495
 42
-0.4142135580070034
 10
31.45082309411801
 20
353.8912469371495
 10
55.18167109411787
 20
353.8912469371495
 42
-0.7673269938990166
 10
56.68167109411775
 20
348.2931709371496
 10
32.95082309411799
 20
334.5921589371495
 42
-0.5773502691899838
 10
28.45082309411802
 20
337.1902349371496
  0
LWPOLYLINE
  5
121
100
AcDbEntity
  8
0
  6
ByLayer
 62
    0
370
   -1
100
AcDbPolyline
 90
    6
 70
    1
 43
0
 10
110.9974900941179
 20
348.3595209371496
 42
0.5773502691899897
 10
114.5048940941177
 20
348.3595209371496
 10
125.778076094118
 20
367.8852459371494
 42
0.577350269190101
 10
124.0243750941179
 20
370.9227459371496
 10
101.4780090941178
 20
370.9227459371496
 42
0.5773502691899912
 10
99.72430809411804
 20
367.8852459371495
  0
LWPOLYLINE
  5
122
100
AcDbEntity
  8
0
  6
ByLayer
 62
    0
370
   -1
100
AcDbPolyline
 90
    6
 70
    1
 43
0
 10
158.543874094118
 20
369.9102459371494
 42
-0.5773502691900128
 10
162.0512780941179
 20
369.9102459371494
 10
173.324460094118
 20
350.3845209371494
 42
-0.5773502691899799
 10
171.5707590941179
 20
347.3470209371496
 10
149.0243940941178
 20
347.3470209371495
 42
-0.5773502691900166
 10
147.2706920941179
 20
350.3845209371495
  0
LWPOLYLINE
  5
123
100
AcDbEntity
  8
0
  6
ByLayer
 62
    0
370
   -1
100
AcDbPolyline
 90
    6
 70
    1
 43
0
 10
201.0438550941179
 20
348.3595209371495
 42
0.5773502691899897
 10
204.5512590941179
 20
348.3595209371495
 10
215.8244410941179
 20
367.8852459371494
 42
0.5773502691900927
 10
214.0707400941179
 20
370.9227459371497
 10
191.524375094118
 20
370.9227459371493
 42
0.5773502691900725
 10
189.7706730941179
 20
367.8852459371494
  0
LWPOLYLINE
  5
124
100
AcDbEntity
  8
0
  6
ByLayer
 62
    0
370
   -1
100
AcDbPolyline
 90
    6
 70
    1
 43
0
 10
377.1614660941178
 20
350.8912469371494
 42
0.4142135580070033
 10
374.1614660941178
 20
353.8912469371494
 10
350.4306170941179
 20
353.8912469371494
 42
0.7673269938989929
 10
348.9306170941179
 20
348.2931709371494
 10
372.6614660941178
 20
334.5921589371494
 42
0.5773502691899962
 10
377.1614660941178
 20
337.1902349371494
  0
LWPOLYLINE
  5
125
100
AcDbEntity
  8
0
  6
ByLayer
 62
    0
370
   -1
100
AcDbPolyline
 90
    6
 70
    1
 43
0
 10
375.6614660941178
 20
306.4902689371494
 42
-0.5773502691899968
 10
375.6614660941178
 20
301.2941159371494
 10
346.7344660941179
 20
284.5931049371495
 42
-0.5773502691899962
 10
342.2344660941179
 20
287.1911809371495
 10
342.2344660941178
 20
320.5932039371494
 42
-0.5773502691899922
 10
346.7344660941179
 20
323.1912799371494
  0
LWPOLYLINE
  5
126
100
AcDbEntity
  8
0
  6
ByLayer
 62
    0
370
   -1
100
AcDbPolyline
 90
    6
 70
    1
 43
0
 10
372.6614660941179
 20
234.5921109371495
 42
0.5773502691899666
 10
377.1614660941178
 20
237.1901869371495
 10
377.1614660941178
 20
270.5922099371495
 42
0.5773502691899985
 10
372.6614660941178
 20
273.1902859371494
 10
343.7344660941179
 20
256.4892749371496
 42
0.577350269189994
 10
343.7344660941179
 20
251.2931219371495
  0
LWPOLYLINE
  5
127
100
AcDbEntity
  8
0
  6
ByLayer
 62
    0
370
   -1
100
AcDbPolyline
 90
    6
 70
    1
 43
0
 10
375.6614660941178
 20
206.4902689371494
 42
-0.5773502691899985
 10
375.6614660941178
 20
201.2941159371494
 10
346.7344660941178
 20
184.5931049371494
 42
-0.5773502691899861
 10
342.2344660941179
 20
187.1911809371494
 10
342.2344660941178
 20
220.5932039371494
 42
-0.5773502691899874
 10
346.7344660941179
 20
223.1912799371494
  0
LWPOLYLINE
  5
128
100
AcDbEntity
  8
0
  6
ByLayer
 62
    0
370
   -1
100
AcDbPolyline
 90
    6
 70
    1
 43
0
 10
372.6614660941179
 20
134.5921589371494
 42
0.5773502691899666
 10
377.1614660941178
 20
137.1902349371494
 10
377.1614660941178
 20
170.5922579371494
 42
0.5773502691899962
 10
372.6614660941178
 20
173.1903339371494
 10
343.7344660941179
 20
156.4893229371494
 42
0.5773502691899984
 10
343.7344660941179
 20
151.2931699371494
  0
LWPOLYLINE
  5
129
100
AcDbEntity
  8
0
  6
ByLayer
 62
    0
370
   -1
100
AcDbPolyline
 90
    6
 70
    1
 43
0
 10
346.7344660941178
 20
84.59310493714943
 42
-0.5773502691899877
 10
342.2344660941179
 20
87.1911809371494
 10
342.2344660941179
 20
120.5932039371494
 42
-0.5773502691899954
 10
346.7344660941179
 20
123.1912799371494
 10
375.6614660941178
 20
106.4902689371494
 42
-0.5773502691899977
 10
375.6614660941178
 20
101.2941159371494
  0
LWPOLYLINE
  5
12A
100
AcDbEntity
  8
0
  6
ByLayer
 62
    0
370
   -1
100
AcDbPolyline
 90
    4
 70
    1
 43
0
 10
308.8061430941178
 20
11.23013093714942
 10
316.8061440941178
 20
11.23013093714942
 42
1.000000051619134
 10
316.8061440941178
 20
19.2301319371493
 10
308.8061430941179
 20
19.23013093714942
 42
0.999999615446174
  0
LWPOLYLINE
  5
12B
100
AcDbEntity
  8
0
  6
ByLayer
 62
    0
370
   -1
100
AcDbPolyline
 90
    4
 70
    1
 43
0
 10
96.80614609411792
 20
19.23013193714946
 10
88.80614509411792
 20
19.23013093714946
 42
1.000000051619137
 10
88.80614509411792
 20
11.23013093714946
 10
96.80614609411792
 20
11.23013093714946
 42
0.9999996160240564
  0
LWPOLYLINE
  5
12C
100
AcDbEntity
  8
0
  6
ByLayer
 62
    0
370
   -1
100
AcDbPolyline
 90
   16
 70
    1
 43
0
 10
78.84809509411792
 20
14.28013093714959
 42
0.2679482664649633
 10
78.41508309411782
 20
14.53012893714947
 10
76.84721209411792
 20
14.53013193714959
 42
0.2679491924309874
 10
76.41419909411793
 20
14.28013193714959
 42
-1.303223041599704
 10
75.73118509411772
 20
14.9631439371494
 42
0.2679482664649726
 10
75.98118409411781
 20
15.39615593714945
 10
75.98118709411781
 20
41.06410493714947
 42
0.2679491924310224
 10
75.73118709411781
 20
41.49711793714953
 42
-1.303223041600003
 10
76.41419909411799
 20
42.18013193714933
 42
0.2679482664660095
 10
76.84721109411792
 20
41.93013293714933
 10
78.41507809411782
 20
41.93012993714935
 42
0.2679491924309584
 10
78.84809009411804
 20
42.18012993714935
 42
-1.303223041600047
 10
79.53110409411782
 20
41.49711893714919
 42
0.2679482664649943
 10
79.28110609411782
 20
41.06410693714947
 10
79.28110609411792
 20
15.39615793714945
 42
0.2679491924309573
 10
79.53110609411782
 20
14.96314493714939
 42
-1.303223041600044
  0
LWPOLYLINE
  5
12D
100
AcDbEntity
  8
0
  6
ByLayer
 62
    0
370
   -1
100
AcDbPolyline
 90
   16
 70
    1
 43
0
 10
326.0811860941179
 20
41.49711793714949
 42
-1.303223041600107
 10
326.7641980941179
 20
42.18013193714935
 42
0.2679482664649447
 10
327.1972100941178
 20
41.93013293714928
 10
328.7650770941178
 20
41.93012993714927
 42
0.2679491924309874
 10
329.1980900941179
 20
42.1801299371493
 42
-1.303223041599961
 10
329.881104094118
 20
41.49711893714911
 42
0.2679482664650394
 10
329.631106094118
 20
41.06410693714943
 10
329.6311060941178
 20
15.39615793714941
 42
0.2679491924309699
 10
329.8811060941178
 20
14.9631449371494
 42
-1.303223041600086
 10
329.1980940941177
 20
14.28013093714952
 42
0.2679482664650433
 10
328.7650820941178
 20
14.53012893714949
 10
327.1972120941178
 20
14.53013193714957
 42
0.2679491924309446
 10
326.7641980941179
 20
14.28013193714943
 42
-1.303223041599751
 10
326.0811840941179
 20
14.96314393714917
 42
0.2679482664650233
 10
326.3311830941179
 20
15.39615593714941
 10
326.3311860941178
 20
41.06410493714943
 42
0.2679491924310672
  0
LWPOLYLINE
  5
12E
100
AcDbEntity
  8
0
  6
ByLayer
 62
    0
370
   -1
100
AcDbPolyline
 90
   16
 70
    1
 43
0
 10
350.2361450941177
 20
41.06417493714953
 42
-0.2679491924311567
 10
350.4861450941178
 20
41.49718893714945
 42
1.303223041599235
 10
349.8031340941179
 20
42.18020293714934
 42
-0.26794826646492
 10
349.3701220941178
 20
41.93020393714949
 10
347.8022540941179
 20
41.93020093714939
 42
-0.2679491924309731
 10
347.3692410941176
 20
42.18020093714937
 42
1.303223041600144
 10
346.6862270941176
 20
41.49718893714924
 42
-0.2679482664649886
 10
346.9362260941177
 20
41.06417693714953
 10
346.9362260941177
 20
36.59622693714938
 42
-0.2679491924309387
 10
346.6862260941176
 20
36.16321493714936
 42
1.303223041600736
 10
347.3692380941175
 20
35.48020093714929
 42
-0.2679482617890577
 10
347.8022500941178
 20
35.73019893714928
 10
349.3701200941177
 20
35.73020193714929
 42
-0.2679491924310053
 10
349.803132094118
 20
35.48020193714932
 42
1.303223041600291
 10
350.4861460941178
 20
36.16321393714939
 42
-0.2679482664650746
 10
350.2361480941178
 20
36.59622593714939
  0
LWPOLYLINE
  5
12F
100
AcDbEntity
  8
0
  6
ByLayer
 62
    0
370
   -1
100
AcDbPolyline
 90
   16
 70
    1
 43
0
 10
347.8022500941178
 20
14.53019993714942
 10
349.3701200941178
 20
14.53020293714943
 42
-0.2679491924309567
 10
349.8031320941179
 20
14.28020293714942
 42
1.303223041599825
 10
350.4861460941179
 20
14.96321393714949
 42
-0.2679482664649608
 10
350.2361480941179
 20
15.39622593714928
 10
350.2361450941179
 20
19.86417593714931
 42
-0.2679491924309991
 10
350.4861450941179
 20
20.29718893714944
 42
1.303223041600112
 10
349.8031340941179
 20
20.98020293714927
 42
-0.2679482664649114
 10
349.3701220941178
 20
20.73020393714963
 10
347.8022540941179
 20
20.73020093714931
 42
-0.2679491924310141
 10
347.369241094118
 20
20.98020093714928
 42
1.303223041600457
 10
346.6862270941181
 20
20.29718993714958
 42
-0.2679482664650181
 10
346.9362260941178
 20
19.86417793714942
 10
346.936226094118
 20
15.39622793714934
 42
-0.2679491924309994
 10
346.6862260941178
 20
14.96321593714947
 42
1.303223041600309
 10
347.3692380941179
 20
14.28020193714941
 42
-0.2679482664649633
  0
LWPOLYLINE
  5
130
100
AcDbEntity
  8
0
  6
ByLayer
 62
    0
370
   -1
100
AcDbPolyline
 90
   16
 70
    1
 43
0
 10
360.2721720941178
 20
53.22517593714942
 10
364.7401220941178
 20
53.22517893714942
 42
-0.2679491924729819
 10
365.173134094118
 20
52.97517893714944
 42
1.30322302982014
 10
365.8561480941178
 20
53.65819093714955
 42
-0.267948266464923
 10
365.6061500941179
 20
54.09120293714934
 10
365.6061470941179
 20
55.65906993714943
 42
-0.267949192430917
 10
365.8561470941178
 20
56.09208393714934
 42
1.303223041600478
 10
365.1731350941178
 20
56.77509793714928
 42
-0.267948266422977
 10
364.7401230941178
 20
56.52509893714939
 10
360.2721740941178
 20
56.52509793714929
 42
-0.26794919247398
 10
359.839160094118
 20
56.77509793714934
 42
1.30322304159998
 10
359.1561460941177
 20
56.09208593714946
 42
-0.2679482664649881
 10
359.4061450941178
 20
55.65907393714942
 10
359.4061490941177
 20
54.09120393714934
 42
-0.267949192430932
 10
359.1561490941178
 20
53.65819093714951
 42
1.303223041599731
 10
359.839160094118
 20
52.97517793714943
 42
-0.2679482664230011
  0
LWPOLYLINE
  5
131
100
AcDbEntity
  8
0
  6
ByLayer
 62
    0
370
   -1
100
AcDbPolyline
 90
   16
 70
    1
 43
0
 10
385.9401220941178
 20
53.22518193714939
 42
-0.2679491924729871
 10
386.373134094118
 20
52.97518193714935
 42
1.303223041599612
 10
387.0561480941177
 20
53.65819393714956
 42
-0.2679482664650175
 10
386.8061500941179
 20
54.09120593714932
 10
386.8061470941177
 20
55.65907293714941
 42
-0.2679491924309777
 10
387.0561460941179
 20
56.09208693714947
 42
1.303223029819976
 10
386.3731350941179
 20
56.77510093714935
 42
-0.2679482664230343
 10
385.9401230941179
 20
56.52510193714934
 10
381.4721730941179
 20
56.52510093714935
 42
-0.2679491924740228
 10
381.039160094118
 20
56.77510093714935
 42
1.303223029820017
 10
380.3561460941177
 20
56.09208893714945
 42
-0.2679482664649582
 10
380.6061450941177
 20
55.6590769371494
 10
380.6061480941177
 20
54.09120693714932
 42
-0.2679491924309948
 10
380.3561480941178
 20
53.65819393714946
 42
1.303223029820087
 10
381.0391600941181
 20
52.97518093714933
 42
-0.2679482664229348
 10
381.4721720941178
 20
53.22517893714939
  0
LWPOLYLINE
  5
132
100
AcDbEntity
  8
0
  6
ByLayer
 62
    0
370
   -1
100
AcDbPolyline
 90
   16
 70
    1
 43
0
 10
399.2761450941178
 20
41.06418193714928
 42
-0.2679491924309557
 10
399.5261450941181
 20
41.49719593714916
 42
1.303223041599439
 10
398.8431340941179
 20
42.18020993714949
 42
-0.2679482664651006
 10
398.4101220941178
 20
41.93021093714942
 10
396.8422540941178
 20
41.93020793714942
 42
-0.2679491924310505
 10
396.4092410941178
 20
42.18020793714943
 42
1.303223041599737
 10
395.7262270941179
 20
41.49719593714963
 42
-0.2679482664650581
 10
395.9762260941178
 20
41.06418393714927
 10
395.9762260941178
 20
36.59623393714953
 42
-0.2679491924309672
 10
395.7262260941178
 20
36.16322193714952
 42
1.30322304159993
 10
396.4092380941179
 20
35.4802079371493
 42
-0.2679482664649732
 10
396.8422500941178
 20
35.73020593714932
 10
398.4101200941178
 20
35.73020893714934
 42
-0.2679491924310008
 10
398.8431320941182
 20
35.48020893714934
 42
1.303223041598676
 10
399.526146094118
 20
36.16322093714933
 42
-0.2679482664650822
 10
399.2761480941177
 20
36.59623293714947
  0
LWPOLYLINE
  5
133
100
AcDbEntity
  8
0
  6
ByLayer
 62
    0
370
   -1
100
AcDbPolyline
 90
   16
 70
    1
 43
0
 10
399.5261450941178
 20
20.29719593714949
 42
1.303223041599981
 10
398.8431340941178
 20
20.98020993714935
 42
-0.2679482664649911
 10
398.4101220941178
 20
20.7302109371492
 10
396.8422540941178
 20
20.7302079371493
 42
-0.2679491924310541
 10
396.4092410941178
 20
20.98020793714932
 42
1.303223041599838
 10
395.7262270941179
 20
20.29719693714906
 42
-0.267948261788983
 10
395.9762260941179
 20
19.8641849371494
 10
395.9762260941179
 20
15.39623493714931
 42
-0.2679491924309874
 10
395.726226094118
 20
14.96322293714938
 42
1.303223041600136
 10
396.4092380941179
 20
14.28020893714939
 42
-0.2679482664649624
 10
396.8422500941178
 20
14.5302069371494
 10
398.4101200941179
 20
14.53020993714937
 42
-0.2679491924310467
 10
398.8431320941179
 20
14.28020993714945
 42
1.303223041601332
 10
399.526146094118
 20
14.96322093714959
 42
-0.2679482664649308
 10
399.2761480941178
 20
15.39623293714932
 10
399.2761450941178
 20
19.8641829371494
 42
-0.2679491924310472
  0
LWPOLYLINE
  5
134
100
AcDbEntity
  8
0
  6
ByLayer
 62
    0
370
   -1
100
AcDbPolyline
 90
   16
 70
    1
 43
0
 10
57.81007909411792
 20
41.93012993714934
 42
0.2679491924309696
 10
58.24309209411793
 20
42.18012993714937
 42
-1.303223041599852
 10
58.92610609411791
 20
41.49711893714946
 42
0.2679482664650123
 10
58.67610809411792
 20
41.06410693714948
 10
58.67610809411792
 20
36.59615693714938
 42
0.2679491924309894
 10
58.92610809411792
 20
36.16314493714953
 42
-1.30322304160046
 10
58.24309609411782
 20
35.48013093714947
 42
0.2679482664649864
 10
57.81008409411793
 20
35.73012893714947
 10
56.24221409411781
 20
35.73013193714948
 42
0.2679491924309872
 10
55.80920009411797
 20
35.48013193714945
 42
-1.303223041600657
 10
55.1261860941179
 20
36.16314293714954
 42
0.2679482617889323
 10
55.3761850941179
 20
36.59615493714939
 10
55.37618809411789
 20
41.06410493714948
 42
0.26794919243097
 10
55.12618809411801
 20
41.49711793714954
 42
-1.303223041600813
 10
55.80920009411808
 20
42.18013193714934
 42
0.267948266465995
 10
56.24221209411782
 20
41.93013293714934
  0
LWPOLYLINE
  5
135
100
AcDbEntity
  8
0
  6
ByLayer
 62
    0
370
   -1
100
AcDbPolyline
 90
   16
 70
    1
 43
0
 10
55.3761850941179
 20
15.39615593714946
 10
55.37618809411778
 20
19.86410593714949
 42
0.2679491924309624
 10
55.12618809411778
 20
20.29711893714926
 42
-1.303223041600097
 10
55.80920009411786
 20
20.98013293714946
 42
0.2679482664660104
 10
56.24221209411782
 20
20.73013393714934
 10
57.81007909411792
 20
20.73013093714946
 42
0.2679491924309844
 10
58.24309209411771
 20
20.98013093714946
 42
-1.303223041600126
 10
58.92610609411781
 20
20.29711893714978
 42
0.267948266465009
 10
58.67610809411792
 20
19.86410693714954
 10
58.67610809411782
 20
15.39615793714945
 42
0.2679491924309759
 10
58.92610809411802
 20
14.96314493714938
 42
-1.303223041600393
 10
58.24309609411772
 20
14.28013093714959
 42
0.2679482664650045
 10
57.81008409411783
 20
14.53012893714954
 10
56.24221409411781
 20
14.53013193714959
 42
0.2679491924309779
 10
55.80920009411786
 20
14.28013193714959
 42
-1.303223041600201
 10
55.1261860941179
 20
14.96314393714939
 42
0.2679482664649966
  0
LWPOLYLINE
  5
136
100
AcDbEntity
  8
0
  6
ByLayer
 62
    0
370
   -1
100
AcDbPolyline
 90
   16
 70
    1
 43
0
 10
45.34011409411791
 20
53.22517093714938
 10
40.87216409411782
 20
53.22517393714948
 42
0.2679491924309689
 10
40.43915109411775
 20
52.97517393714948
 42
-1.303223041599828
 10
39.75613709411779
 20
53.65818593714949
 42
0.2679482664649902
 10
40.00613609411791
 20
54.09119793714935
 10
40.00613909411778
 20
55.65906493714939
 42
0.2679491924309853
 10
39.7561390941179
 20
56.09207793714948
 42
-1.303223041600017
 10
40.43915009411797
 20
56.77509193714959
 42
0.2679482664649642
 10
40.87216209411794
 20
56.5250929371497
 10
45.34011209411791
 20
56.52509293714936
 42
0.2679491924309655
 10
45.77312509411799
 20
56.77509293714936
 42
-1.303223041599745
 10
46.45613909411794
 20
56.09208193714944
 42
0.2679482664650042
 10
46.20614109411795
 20
55.65906993714949
 10
46.20613809411783
 20
54.09119893714935
 42
0.2679491924309605
 10
46.45613809411795
 20
53.65818693714943
 42
-1.303223041600108
 10
45.77312609411776
 20
52.97517293714949
 42
0.2679482664649847
  0
LWPOLYLINE
  5
137
100
AcDbEntity
  8
0
  6
ByLayer
 62
    0
370
   -1
100
AcDbPolyline
 90
   16
 70
    1
 43
0
 10
18.5561370941178
 20
53.65818593714945
 42
0.2679482664650152
 10
18.8061360941178
 20
54.09119793714935
 10
18.80613909411785
 20
55.65906493714939
 42
0.2679491924309648
 10
18.55613909411791
 20
56.09207793714948
 42
-1.303223041600141
 10
19.23915109411798
 20
56.7750919371496
 42
0.2679482664649314
 10
19.67216309411784
 20
56.52509293714968
 10
24.14011309411781
 20
56.52509293714935
 42
0.2679491924309979
 10
24.57312509411805
 20
56.77509293714936
 42
-1.303223041599785
 10
25.25613909411796
 20
56.09208193714945
 42
0.2679482664649939
 10
25.00614109411784
 20
55.65906993714949
 10
25.00613809411784
 20
54.09119893714935
 42
0.2679491924309624
 10
25.2561380941179
 20
53.65818693714946
 42
-1.303223041600107
 10
24.57312709411794
 20
52.97517293714949
 42
0.267948266464998
 10
24.1401150941178
 20
53.22517093714938
 10
19.672165094118
 20
53.22517393714948
 42
0.2679491924309755
 10
19.23915109411782
 20
52.97517393714948
 42
-1.303223041599866
  0
LWPOLYLINE
  5
138
100
AcDbEntity
  8
0
  6
ByLayer
 62
    0
370
   -1
100
AcDbPolyline
 90
   16
 70
    1
 43
0
 10
9.636108094117802
 20
36.5961569371494
 42
0.2679491924309841
 10
9.886108094117802
 20
36.16314493714955
 42
-1.303223041600202
 10
9.203096094118013
 20
35.48013093714948
 42
0.2679482664650497
 10
8.77008409411782
 20
35.73012893714949
 10
7.202214094117849
 20
35.73013193714947
 42
0.2679491924309886
 10
6.769200094117945
 20
35.48013193714959
 42
-1.303223041600593
 10
6.086186094117819
 20
36.16314293714955
 42
0.2679482617889523
 10
6.336185094117937
 20
36.5961549371494
 10
6.336188094117825
 20
41.06410493714949
 42
0.2679491924310043
 10
6.086188094118047
 20
41.49711793714956
 42
-1.303223041600303
 10
6.769200094117897
 20
42.18013193714935
 42
0.26794826646594
 10
7.202212094117847
 20
41.93013293714936
 10
8.770079094117946
 20
41.93012993714934
 42
0.2679491924309874
 10
9.203092094117963
 20
42.18012993714935
 42
-1.303223041599811
 10
9.88610609411792
 20
41.49711893714943
 42
0.2679482664649838
 10
9.636108094117802
 20
41.06410693714948
  0
LWPOLYLINE
  5
139
100
AcDbEntity
  8
0
  6
ByLayer
 62
    0
370
   -1
100
AcDbPolyline
 90
   16
 70
    1
 43
0
 10
78.41512409411791
 20
91.93020093714941
 10
76.84725609411792
 20
91.93019793714942
 42
-0.267949192430976
 10
76.41424309411794
 20
92.18019793714942
 42
1.303223041600333
 10
75.73122909411772
 20
91.4971859371494
 42
-0.2679482664650346
 10
75.98122809411792
 20
91.06417393714952
 10
75.98122809411784
 20
86.5962249371494
 42
-0.2679491924309739
 10
75.73122809411792
 20
86.1632119371495
 42
1.303223041600146
 10
76.414240094118
 20
85.48019793714954
 42
-0.2679482664650126
 10
76.84725209411782
 20
85.73019593714957
 10
78.41512209411782
 20
85.73019893714934
 42
-0.267949192430976
 10
78.84813409411792
 20
85.48019893714934
 42
1.303223041599767
 10
79.53114809411782
 20
86.16321093714942
 42
-0.2679482664649377
 10
79.28115009411782
 20
86.59622293714941
 10
79.28114709411793
 20
91.06417293714952
 42
-0.2679491924309583
 10
79.53114709411781
 20
91.49718593714931
 42
1.303223041600115
 10
78.84813609411792
 20
92.18019993714941
 42
-0.2679482664660442
  0
LWPOLYLINE
  5
13A
100
AcDbEntity
  8
0
  6
ByLayer
 62
    0
370
   -1
100
AcDbPolyline
 90
   16
 70
    1
 43
0
 10
78.41512409411791
 20
70.73020193714933
 10
76.84725609411792
 20
70.73019893714934
 42
-0.2679491924309924
 10
76.41424309411789
 20
70.98019893714934
 42
1.303223041600212
 10
75.73122909411782
 20
70.29718693714943
 42
-0.2679482664649732
 10
75.98122809411794
 20
69.86417493714936
 10
75.98122809411791
 20
65.39622493714933
 42
-0.2679491924309694
 10
75.73122809411782
 20
64.96321293714948
 42
1.303223041600129
 10
76.41424009411801
 20
64.28019893714946
 42
-0.2679482617889649
 10
76.84725209411782
 20
64.53019693714924
 10
78.41512209411782
 20
64.53019993714946
 42
-0.267949192430976
 10
78.84813409411792
 20
64.28019993714946
 42
1.303223041600493
 10
79.53114809411782
 20
64.96321093714946
 42
-0.2679482664649551
 10
79.28115009411782
 20
65.39622293714933
 10
79.28114709411793
 20
69.86417293714936
 42
-0.2679491924310382
 10
79.53114709411781
 20
70.29718693714955
 42
1.303223041600439
 10
78.84813609411802
 20
70.98020093714933
 42
-0.2679482664648762
  0
LWPOLYLINE
  5
13B
100
AcDbEntity
  8
0
  6
ByLayer
 62
    0
370
   -1
100
AcDbPolyline
 90
   16
 70
    1
 43
0
 10
79.53110409411782
 20
190.2971269371494
 42
0.2679482664650123
 10
79.28110609411782
 20
189.8641149371494
 10
79.28110609411793
 20
185.3961649371495
 42
0.2679491924308763
 10
79.53110609411783
 20
184.9631529371496
 42
-1.303223041599604
 10
78.84809509411792
 20
184.2801389371493
 42
0.2679482664649542
 10
78.41508309411782
 20
184.5301369371493
 10
76.84721209411792
 20
184.5301399371493
 42
0.267949192430976
 10
76.41419909411793
 20
184.2801399371493
 42
-1.303223041599502
 10
75.73118509411772
 20
184.9631509371495
 42
0.267948266465029
 10
75.98118409411781
 20
185.3961629371494
 10
75.98118709411781
 20
189.8641129371496
 42
0.267949192430981
 10
75.73118709411774
 20
190.2971269371493
 42
-1.303223041599705
 10
76.41419909411758
 20
190.9801409371494
 42
0.2679482664661458
 10
76.84721109411792
 20
190.7301419371494
 10
78.41507809411782
 20
190.7301389371494
 42
0.267949192430928
 10
78.84809009411796
 20
190.9801389371494
 42
-1.303223041600827
  0
LWPOLYLINE
  5
13C
100
AcDbEntity
  8
0
  6
ByLayer
 62
    0
370
   -1
100
AcDbPolyline
 90
   16
 70
    1
 43
0
 10
79.53110609411792
 20
206.1631519371495
 42
-1.303223041600072
 10
78.84809509411801
 20
205.4801379371494
 42
0.267948266465028
 10
78.41508309411782
 20
205.7301359371495
 10
76.84721209411792
 20
205.7301389371494
 42
0.2679491924309967
 10
76.41419909411799
 20
205.4801389371494
 42
-1.303223041599576
 10
75.73118509411783
 20
206.1631509371495
 42
0.2679482664650378
 10
75.98118409411782
 20
206.5961629371494
 10
75.98118709411781
 20
211.0641129371495
 42
0.2679491924310205
 10
75.73118709411781
 20
211.4971259371495
 42
-1.303223041600032
 10
76.41419909411806
 20
212.1801399371494
 42
0.2679482664659962
 10
76.84721109411792
 20
211.9301409371493
 10
78.41507809411782
 20
211.9301379371494
 42
0.2679491924309508
 10
78.84809009411802
 20
212.1801379371494
 42
-1.303223041599767
 10
79.53110409411785
 20
211.4971259371494
 42
0.2679482664649489
 10
79.28110609411793
 20
211.0641139371495
 10
79.2811060941178
 20
206.5961649371495
 42
0.267949192431024
  0
LWPOLYLINE
  5
13D
100
AcDbEntity
  8
0
  6
ByLayer
 62
    0
370
   -1
100
AcDbPolyline
 90
   16
 70
    1
 43
0
 10
75.73118509411782
 20
366.1631469371495
 42
0.2679482664650347
 10
75.98118409411782
 20
366.5961589371495
 10
75.98118709411781
 20
371.0641089371495
 42
0.2679491924309605
 10
75.7311870941178
 20
371.4971219371495
 42
-1.303223041600019
 10
76.414199094118
 20
372.1801359371497
 42
0.2679482664650485
 10
76.84721109411802
 20
371.9301369371495
 10
78.41507809411792
 20
371.9301339371494
 42
0.2679491924310048
 10
78.84809009411806
 20
372.1801339371497
 42
-1.303223041600051
 10
79.53110409411782
 20
371.4971229371497
 42
0.2679482664659958
 10
79.2811060941179
 20
371.0641109371495
 10
79.28110609411792
 20
366.5961609371495
 42
0.2679491924310329
 10
79.53110609411792
 20
366.1631489371495
 42
-1.303223041599837
 10
78.84809509411804
 20
365.4801349371493
 42
0.2679482664649807
 10
78.41508309411782
 20
365.7301329371495
 10
76.84721209411792
 20
365.7301359371495
 42
0.2679491924310008
 10
76.41419909411792
 20
365.4801359371495
 42
-1.303223041600072
  0
LWPOLYLINE
  5
13E
100
AcDbEntity
  8
0
  6
ByLayer
 62
    0
370
   -1
100
AcDbPolyline
 90
   16
 70
    1
 43
0
 10
78.41507809411782
 20
350.7301349371495
 42
0.2679491924309755
 10
78.84809009411804
 20
350.9801349371495
 42
-1.30322304160014
 10
79.53110409411779
 20
350.2971229371493
 42
0.2679482664650128
 10
79.28110609411792
 20
349.8641109371496
 10
79.28110609411783
 20
345.3961619371495
 42
0.267949192430984
 10
79.53110609411783
 20
344.9631489371494
 42
-1.303223041600363
 10
78.84809509411792
 20
344.2801349371493
 42
0.2679482664649766
 10
78.41508309411782
 20
344.5301329371495
 10
76.84721209411792
 20
344.5301359371496
 42
0.2679491924310008
 10
76.41419909411792
 20
344.2801359371496
 42
-1.303223041599655
 10
75.73118509411782
 20
344.9631479371494
 42
0.2679482664650221
 10
75.98118409411782
 20
345.3961599371494
 10
75.98118709411783
 20
349.8641099371496
 42
0.2679491924309739
 10
75.7311870941178
 20
350.2971229371493
 42
-1.303223041600041
 10
76.41419909411795
 20
350.9801369371496
 42
0.2679482664660723
 10
76.84721109411802
 20
350.7301379371494
  0
LWPOLYLINE
  5
13F
100
AcDbEntity
  8
0
  6
ByLayer
 62
    0
370
   -1
100
AcDbPolyline
 90
   16
 70
    1
 43
0
 10
135.3074380941179
 20
372.1801359371494
 42
0.2679482664650037
 10
135.740450094118
 20
371.9301369371495
 10
137.3083170941179
 20
371.9301339371495
 42
0.2679491924309872
 10
137.7413300941182
 20
372.1801339371494
 42
-1.303223041599912
 10
138.4243440941179
 20
371.4971229371497
 42
0.2679482664650398
 10
138.174346094118
 20
371.0641109371495
 10
138.174346094118
 20
366.5961609371495
 42
0.2679491924310201
 10
138.424346094118
 20
366.1631489371496
 42
-1.303223041600177
 10
137.7413340941179
 20
365.4801349371495
 42
0.2679482664649576
 10
137.3083220941179
 20
365.7301329371495
 10
135.740452094118
 20
365.7301359371495
 42
0.2679491924309891
 10
135.3074380941179
 20
365.4801359371494
 42
-1.303223041599906
 10
134.6244240941179
 20
366.1631469371496
 42
0.2679482617889166
 10
134.8744230941178
 20
366.5961589371495
 10
134.8744260941179
 20
371.0641089371494
 42
0.2679491924309605
 10
134.6244260941179
 20
371.4971219371494
 42
-1.303223041599948
  0
LWPOLYLINE
  5
140
100
AcDbEntity
  8
0
  6
ByLayer
 62
    0
370
   -1
100
AcDbPolyline
 90
   16
 70
    1
 43
0
 10
134.6244240941179
 20
344.9631479371495
 42
0.267948266464954
 10
134.8744230941178
 20
345.3961599371494
 10
134.8744260941179
 20
349.8641099371496
 42
0.2679491924309034
 10
134.624426094118
 20
350.2971229371493
 42
-1.303223041600051
 10
135.3074380941177
 20
350.9801369371494
 42
0.2679482664661489
 10
135.740450094118
 20
350.7301379371493
 10
137.3083170941179
 20
350.7301349371495
 42
0.2679491924310125
 10
137.741330094118
 20
350.9801349371495
 42
-1.303223041600652
 10
138.4243440941181
 20
350.2971229371498
 42
0.2679482664649941
 10
138.174346094118
 20
349.8641109371496
 10
138.1743460941179
 20
345.3961619371495
 42
0.2679491924309949
 10
138.424346094118
 20
344.9631489371494
 42
-1.303223041600257
 10
137.741334094118
 20
344.2801349371495
 42
0.2679482664650221
 10
137.3083220941179
 20
344.5301329371496
 10
135.740452094118
 20
344.5301359371497
 42
0.2679491924310922
 10
135.3074380941177
 20
344.2801359371497
 42
-1.303223041599661
  0
LWPOLYLINE
  5
141
100
AcDbEntity
  8
0
  6
ByLayer
 62
    0
370
   -1
100
AcDbPolyline
 90
   16
 70
    1
 43
0
 10
326.7641990941179
 20
212.1801399371493
 42
0.2679482664649623
 10
327.197211094118
 20
211.9301409371493
 10
328.7650790941178
 20
211.9301379371493
 42
0.2679491924309844
 10
329.1980910941179
 20
212.1801379371493
 42
-1.303223041599886
 10
329.8811050941179
 20
211.4971259371494
 42
0.2679482664649769
 10
329.631107094118
 20
211.0641139371494
 10
329.631107094118
 20
206.5961649371494
 42
0.2679491924309778
 10
329.8811070941178
 20
206.1631519371496
 42
-1.303223041600211
 10
329.1980950941179
 20
205.4801379371494
 42
0.2679482664649952
 10
328.7650830941179
 20
205.7301359371495
 10
327.1972130941178
 20
205.7301389371494
 42
0.2679491924309891
 10
326.7642000941179
 20
205.4801389371494
 42
-1.30322304159983
 10
326.0811860941179
 20
206.1631509371496
 42
0.2679482664649869
 10
326.3311850941179
 20
206.5961629371493
 10
326.3311880941178
 20
211.0641129371494
 42
0.267949192431012
 10
326.0811880941179
 20
211.4971259371494
 42
-1.303223041600028
  0
LWPOLYLINE
  5
142
100
AcDbEntity
  8
0
  6
ByLayer
 62
    0
370
   -1
100
AcDbPolyline
 90
   16
 70
    1
 43
0
 10
326.0811860941179
 20
184.9631509371494
 42
0.2679482664649692
 10
326.3311850941179
 20
185.3961629371494
 10
326.3311880941179
 20
189.8641129371495
 42
0.2679491924309957
 10
326.0811880941179
 20
190.2971269371493
 42
-1.303223041599743
 10
326.7641990941179
 20
190.9801409371494
 42
0.2679482664649623
 10
327.197211094118
 20
190.7301419371494
 10
328.7650790941178
 20
190.7301389371494
 42
0.2679491924309781
 10
329.1980910941178
 20
190.9801389371494
 42
-1.303223041600615
 10
329.8811050941179
 20
190.2971269371494
 42
0.2679482664649733
 10
329.631107094118
 20
189.8641149371493
 10
329.6311070941181
 20
185.3961649371494
 42
0.2679491924309491
 10
329.8811070941178
 20
184.9631529371494
 42
-1.303223041600467
 10
329.1980950941179
 20
184.2801389371493
 42
0.2679482664649707
 10
328.7650830941179
 20
184.5301369371493
 10
327.1972130941178
 20
184.5301399371493
 42
0.2679491924310022
 10
326.7642000941179
 20
184.2801399371493
 42
-1.303223041600005
  0
LWPOLYLINE
  5
143
100
AcDbEntity
  8
0
  6
ByLayer
 62
    0
370
   -1
100
AcDbPolyline
 90
   16
 70
    1
 43
0
 10
326.7642390941178
 20
85.48019793714951
 42
-0.2679482664650094
 10
327.1972510941179
 20
85.73019593714943
 10
328.7651210941178
 20
85.73019893714931
 42
-0.2679491924309724
 10
329.198134094118
 20
85.48019893714928
 42
1.303223041599634
 10
329.881148094118
 20
86.16321093714942
 42
-0.267948266464946
 10
329.6311500941179
 20
86.59622293714941
 10
329.631147094118
 20
91.06417293714941
 42
-0.2679491924309882
 10
329.8811470941181
 20
91.49718593714925
 42
1.303223041599936
 10
329.1981350941178
 20
92.18019993714941
 42
-0.2679482664651208
 10
328.7651230941178
 20
91.93020093714932
 10
327.1972560941178
 20
91.9301979371494
 42
-0.2679491924309384
 10
326.7642420941179
 20
92.18019793714946
 42
1.303223029820354
 10
326.0812280941179
 20
91.49718593714955
 42
-0.2679482664650077
 10
326.3312270941179
 20
91.06417393714941
 10
326.3312270941178
 20
86.5962249371494
 42
-0.267949192430921
 10
326.0812270941179
 20
86.16321193714946
 42
1.303223041599943
  0
LWPOLYLINE
  5
144
100
AcDbEntity
  8
0
  6
ByLayer
 62
    0
370
   -1
100
AcDbPolyline
 90
   16
 70
    1
 43
0
 10
326.3312270941178
 20
65.3962249371493
 42
-0.2679491924310046
 10
326.0812270941178
 20
64.96321293714942
 42
1.303223041600154
 10
326.7642390941177
 20
64.28019893714944
 42
-0.2679482664650175
 10
327.1972510941179
 20
64.53019693714921
 10
328.7651210941179
 20
64.53019993714943
 42
-0.2679491924309287
 10
329.198134094118
 20
64.28019993714939
 42
1.303223041600104
 10
329.881148094118
 20
64.9632109371493
 42
-0.2679482664649765
 10
329.631150094118
 20
65.3962229371493
 10
329.6311470941179
 20
69.86417293714933
 42
-0.2679491924309891
 10
329.8811470941179
 20
70.29718693714938
 42
1.303223041600273
 10
329.1981350941176
 20
70.98020093714933
 42
-0.2679482664649057
 10
328.7651230941178
 20
70.73020193714964
 10
327.1972560941178
 20
70.7301989371493
 42
-0.2679491924309487
 10
326.7642420941177
 20
70.98019893714932
 42
1.303223041599763
 10
326.081228094118
 20
70.29718693714943
 42
-0.2679482664650229
 10
326.3312270941179
 20
69.86417493714933
  0
LWPOLYLINE
  5
145
100
AcDbEntity
  8
0
  6
ByLayer
 62
    0
370
   -1
100
AcDbPolyline
 90
   16
 70
    1
 43
0
 10
9.636108094117802
 20
15.39615793714946
 42
0.2679491924309793
 10
9.886108094117802
 20
14.96314493714948
 42
-1.303223041600244
 10
9.203096094117953
 20
14.2801309371496
 42
0.267948266465009
 10
8.77008409411782
 20
14.53012893714949
 10
7.202214094117849
 20
14.5301319371496
 42
0.2679491924310272
 10
6.769200094117608
 20
14.28013193714961
 42
-1.303223041599264
 10
6.08618609411765
 20
14.96314393714945
 42
0.2679482664649952
 10
6.336185094117935
 20
15.39615593714947
 10
6.336188094117823
 20
19.8641059371495
 42
0.2679491924309644
 10
6.086188094117817
 20
20.29711893714927
 42
-1.303223041600139
 10
6.76920009411789
 20
20.98013293714946
 42
0.2679482664660081
 10
7.202212094117847
 20
20.73013393714936
 10
8.770079094117946
 20
20.73013093714948
 42
0.2679491924310531
 10
9.203092094117848
 20
20.98013093714948
 42
-1.30322304159982
 10
9.88610609411781
 20
20.29711893714929
 42
0.267948266465001
 10
9.6361080941178
 20
19.86410693714955
  0
LWPOLYLINE
  5
146
100
AcDbEntity
  8
0
  6
ByLayer
 62
    0
370
   -1
100
AcDbPolyline
 90
   16
 70
    1
 43
0
 10
209.5320550941178
 20
21.23013193714946
 42
0.2914636959410014
 10
211.3446400941179
 20
22.38483093714931
 10
217.3209530941178
 20
35.19987793714942
 42
-0.2914637668750037
 10
219.1335400941178
 20
36.35457593714924
 10
314.8061470941178
 20
36.3545519371494
 42
0.4135115436419978
 10
322.8061470941178
 20
44.33534993714934
 10
322.8061470941179
 20
325.2301339371494
 42
0.4142134452329965
 10
314.8061450941178
 20
333.2301329371493
 10
90.80614409411801
 20
333.2301199371497
 42
0.4142134449210002
 10
82.80615609411791
 20
325.2301339371495
 10
82.80614409411795
 20
44.33540593714952
 42
0.4135115436420079
 10
90.80614409411793
 20
36.3546079371495
 10
186.5771820941179
 20
36.35458393714934
 42
-0.2930389507939918
 10
188.394644094118
 20
35.18934893714947
 10
194.2709490941179
 20
22.39536793714931
 42
0.2930390217880045
 10
196.0884110941179
 20
21.23013193714967
  0
CIRCLE
  5
147
100
AcDbEntity
  8
0
  6
ByLayer
 62
    0
370
   -1
100
AcDbCircle
 10
77.63118909411801
 20
78.23019893714934
 40
1.6
  0
CIRCLE
  5
148
100
AcDbEntity
  8
0
  6
ByLayer
 62
    0
370
   -1
100
AcDbCircle
 10
77.63114509411803
 20
198.2301389371494
 40
1.6
  0
CIRCLE
  5
149
100
AcDbEntity
  8
0
  6
ByLayer
 62
    0
370
   -1
100
AcDbCircle
 10
348.5861870941179
 20
28.23020193714929
 40
1.6
  0
CIRCLE
  5
14A
100
AcDbEntity
  8
0
  6
ByLayer
 62
    0
370
   -1
100
AcDbCircle
 10
397.6261870941179
 20
28.23020893714932
 40
1.6
  0
CIRCLE
  5
14B
100
AcDbEntity
  8
0
  6
ByLayer
 62
    0
370
   -1
100
AcDbCircle
 10
57.02614709411786
 20
28.23013093714946
 40
1.6
  0
CIRCLE
  5
14C
100
AcDbEntity
  8
0
  6
ByLayer
 62
    0
370
   -1
100
AcDbCircle
 10
224.0518410941179
 20
358.2301349371494
 40
1.6
  0
CIRCLE
  5
14D
100
AcDbEntity
  8
0
  6
ByLayer
 62
    0
370
   -1
100
AcDbCircle
 10
373.1061480941179
 20
54.87513893714948
 40
1.6
  0
CIRCLE
  5
14E
100
AcDbEntity
  8
0
  6
ByLayer
 62
    0
370
   -1
100
AcDbCircle
 10
7.986146094117842
 20
28.23013093714948
 40
1.6
  0
CIRCLE
  5
14F
100
AcDbEntity
  8
0
  6
ByLayer
 62
    0
370
   -1
100
AcDbCircle
 10
327.9811460941179
 20
358.2301349371494
 40
1.6
  0
CIRCLE
  5
150
100
AcDbEntity
  8
0
  6
ByLayer
 62
    0
370
   -1
100
AcDbCircle
 10
32.50613909411784
 20
54.87513193714945
 40
1.6
  0
CIRCLE
  5
151
100
AcDbEntity
  8
0
  6
ByLayer
 62
    0
370
   -1
100
AcDbCircle
 10
77.63114509411803
 20
358.2301349371495
 40
1.6
  0
CIRCLE
  5
152
100
AcDbEntity
  8
0
  6
ByLayer
 62
    0
370
   -1
100
AcDbCircle
 10
327.9811880941178
 20
78.23019893714931
 40
1.6
  0
CIRCLE
  5
153
100
AcDbEntity
  8
0
  6
ByLayer
 62
    0
370
   -1
100
AcDbCircle
 10
327.9811460941179
 20
198.2301389371494
 40
1.6
  0
CIRCLE
  5
154
100
AcDbEntity
  8
0
  6
ByLayer
 62
    0
370
   -1
100
AcDbCircle
 10
136.5243840941179
 20
358.2301349371495
 40
1.6
  0
CIRCLE
  5
155
100
AcDbEntity
  8
0
  6
ByLayer
 62
    0
370
   -1
100
AcDbCircle
 10
181.5475660941179
 20
358.2301349371494
 40
1.6
  0
LWPOLYLINE
  5
156
100
AcDbEntity
  8
0
  6
ByLayer
 62
    0
370
   -1
100
AcDbPolyline
 90
   16
 70
    1
 43
0
 10
260.2715850941155
 20
27.01316373293177
 42
-1.303223041600185
 10
259.5885740941156
 20
26.33014973293189
 42
0.2679482664649573
 10
259.1555620941155
 20
26.5801477329318
 10
254.6876120941156
 20
26.58015073293187
 42
0.2679491924309613
 10
254.2545980941156
 20
26.33015073293191
 42
-1.303223041598383
 10
253.5715840941155
 20
27.01316273293171
 42
0.267948266465122
 10
253.8215830941155
 20
27.44617473293187
 10
253.8215860941155
 20
29.01404173293185
 42
0.2679491924310148
 10
253.5715860941156
 20
29.44705473293207
 42
-1.303223041599797
 10
254.2545980941157
 20
30.1300687329319
 42
0.2679482664648952
 10
254.6876100941155
 20
29.88006973293199
 10
259.1555600941154
 20
29.88006973293186
 42
0.267949192430936
 10
259.5885720941155
 20
30.13006973293187
 42
-1.303223041600264
 10
260.2715860941157
 20
29.44705873293167
 42
0.2679482664649532
 10
260.0215880941157
 20
29.01404673293184
 10
260.0215850941157
 20
27.44617573293187
 42
0.2679491924309844
  0
LWPOLYLINE
  5
157
100
AcDbEntity
  8
0
  6
ByLayer
 62
    0
370
   -1
100
AcDbPolyline
 90
   16
 70
    1
 43
0
 10
280.7885730941154
 20
26.33014973293193
 42
0.26794826646501
 10
280.3555610941157
 20
26.5801477329318
 10
275.8876110941156
 20
26.58015073293187
 42
0.2679491924309713
 10
275.4545980941156
 20
26.33015073293188
 42
-1.303223041598971
 10
274.7715840941158
 20
27.01316273293167
 42
0.2679482664650052
 10
275.0215830941158
 20
27.44617473293187
 10
275.0215860941157
 20
29.01404173293185
 42
0.2679491924310148
 10
274.7715860941155
 20
29.44705473293198
 42
-1.303223041600076
 10
275.4545970941161
 20
30.13006873293191
 42
0.2679482664648914
 10
275.8876090941157
 20
29.88006973293198
 10
280.3555590941156
 20
29.88006973293186
 42
0.2679491924309739
 10
280.7885720941155
 20
30.13006973293189
 42
-1.303223041600251
 10
281.4715860941157
 20
29.44705873293184
 42
0.2679482664650776
 10
281.2215880941157
 20
29.01404673293183
 10
281.2215850941158
 20
27.44617573293186
 42
0.2679491924309239
 10
281.4715850941157
 20
27.01316373293187
 42
-1.303223041600261
  0
CIRCLE
  5
158
100
AcDbEntity
  8
0
  6
ByLayer
 62
    0
370
   -1
100
AcDbCircle
 10
267.5215860941157
 20
28.23010873293174
 40
1.6
  0
LWPOLYLINE
  5
159
100
AcDbEntity
  8
0
  6
ByLayer
 62
    0
370
   -1
100
AcDbPolyline
 90
   16
 70
    1
 43
0
 10
129.7246800941201
 20
26.58017514137511
 10
125.2567300941202
 20
26.58017814137512
 42
0.267949192430937
 10
124.82371609412
 20
26.3301781413751
 42
-1.303223041599822
 10
124.1407020941199
 20
27.01319014137529
 42
0.2679482664650614
 10
124.3907010941201
 20
27.44620214137532
 10
124.3907040941198
 20
29.01406914137507
 42
0.2679491924310129
 10
124.1407040941199
 20
29.4470821413752
 42
-1.303223041600195
 10
124.8237160941198
 20
30.13009614137528
 42
0.2679482664660994
 10
125.25672809412
 20
29.88009714137522
 10
129.7246780941199
 20
29.88009714137527
 42
0.2679491924309929
 10
130.15769009412
 20
30.13009714137527
 42
-1.303223041600006
 10
130.84070409412
 20
29.44708614137516
 42
0.267948266465995
 10
130.59070609412
 20
29.01407414137511
 10
130.5907030941201
 20
27.44620314137531
 42
0.2679491924309731
 10
130.8407030941201
 20
27.01319114137503
 42
-1.303223041600103
 10
130.1576920941201
 20
26.33017714137509
 42
0.2679482664649355
  0
LWPOLYLINE
  5
15A
100
AcDbEntity
  8
0
  6
ByLayer
 62
    0
370
   -1
100
AcDbPolyline
 90
   16
 70
    1
 43
0
 10
150.92467909412
 20
26.58017514137511
 10
146.45672909412
 20
26.58017814137511
 42
0.2679491924310284
 10
146.0237160941199
 20
26.3301781413751
 42
-1.303223041599781
 10
145.3407020941199
 20
27.01319014137529
 42
0.2679482664649709
 10
145.59070109412
 20
27.44620214137531
 10
145.5907040941201
 20
29.01406914137506
 42
0.267949192431011
 10
145.3407040941202
 20
29.44708214137518
 42
-1.30322304159972
 10
146.0237150941201
 20
30.13009614137526
 42
0.2679482664660794
 10
146.45672709412
 20
29.88009714137515
 10
150.9246770941201
 20
29.88009714137528
 42
0.2679491924309957
 10
151.3576900941201
 20
30.13009714137525
 42
-1.303223041600069
 10
152.0407040941199
 20
29.44708614137526
 42
0.2679482664650293
 10
151.79070609412
 20
29.01407414137511
 10
151.79070309412
 20
27.44620314137531
 42
0.2679491924309232
 10
152.04070309412
 20
27.01319114137545
 42
-1.303223041599634
 10
151.3576910941201
 20
26.33017714137508
 42
0.2679482664649976
  0
CIRCLE
  5
15B
100
AcDbEntity
  8
0
  6
ByLayer
 62
    0
370
   -1
100
AcDbCircle
 10
138.0907040941201
 20
28.23013614137518
 40
1.6
  0
LWPOLYLINE
  5
15C
100
AcDbEntity
  8
0
  6
ByLayer
 62
    0
370
   -1
100
AcDbPolyline
 90
    6
 70
    1
 43
0
 10
294.6147987868215
 20
348.359530380669
 42
-0.5773502691899894
 10
291.1073947868219
 20
348.3595312005394
 10
279.8342173510424
 20
367.8852588356925
 42
-0.5773502691900969
 10
281.5879190610709
 20
370.9227584257575
 10
304.1342850610704
 20
370.9227531554495
 42
-0.5773502691899838
 10
305.8879853510417
 20
367.8852527455145
  0
LWPOLYLINE
  5
15D
100
AcDbEntity
  8
0
  6
ByLayer
 62
    0
370
   -1
100
AcDbPolyline
 90
    6
 70
    1
 43
0
 10
247.0684198243955
 20
369.9102664948359
 42
0.5773502691900383
 10
243.5610158243957
 20
369.9102673147063
 10
232.2878292601753
 20
350.3845449498606
 42
0.5773502691900214
 10
234.0415295501471
 20
347.3470445399257
 10
256.5878945501466
 20
347.3470392696181
 42
0.5773502691900196
 10
258.3415972601749
 20
350.3845388596827
  0
LWPOLYLINE
  5
15E
100
AcDbEntity
  8
0
  6
ByLayer
 62
    0
370
   -1
100
AcDbPolyline
 90
   16
 70
    1
 43
0
 10
329.8811079484933
 20
366.163148137021
 42
-0.2679482664649999
 10
329.6311090497115
 20
366.5961601954593
 10
329.6311070941139
 20
371.0641101954599
 42
-0.2679491924309462
 10
329.8811071953324
 20
371.4971231370213
 42
1.303223041600228
 10
329.1980953549897
 20
372.1801372966784
 42
-0.2679482664650647
 10
328.7650832965513
 20
371.9301383978967
 10
327.1972162965508
 20
371.930135764392
 42
-0.2679491924309772
 10
326.7642043549893
 20
372.1801358656106
 42
1.303223041600025
 10
326.0811901953327
 20
371.497125025268
 42
-0.2679482664659286
 10
326.3311880941142
 20
371.06411296683
 10
326.3311870497122
 20
366.59616296683
 42
-0.267949192431081
 10
326.0811869484937
 20
366.1631510252682
 42
1.303223041600015
 10
326.7641977888363
 20
365.4801368656117
 42
-0.2679482664649576
 10
327.1972098472745
 20
365.7301347643935
 10
328.7650808472752
 20
365.7301373978971
 42
-0.2679491924310215
 10
329.1980937888366
 20
365.4801372966783
 42
1.303223041599998
  0
LWPOLYLINE
  5
15F
100
AcDbEntity
  8
0
  6
ByLayer
 62
    0
370
   -1
100
AcDbPolyline
 90
   16
 70
    1
 43
0
 10
327.1972113409618
 20
350.7301367643927
 42
-0.2679491924309632
 10
326.7641993994002
 20
350.9801368656111
 42
1.303223041599579
 10
326.0811852397435
 20
350.2971250252683
 42
-0.2679482664649647
 10
326.3311831385249
 20
349.8641129668305
 10
326.3311820941232
 20
345.3961639668306
 42
-0.2679491924309658
 10
326.0811819929044
 20
344.963151025269
 42
1.303223041599854
 10
326.7641928332469
 20
344.2801368656122
 42
-0.2679482664649961
 10
327.1972048916853
 20
344.530134764394
 10
328.7650758916858
 20
344.5301373978976
 42
-0.2679491924310215
 10
329.1980888332471
 20
344.2801372966791
 42
1.303223041599523
 10
329.8811029929042
 20
344.9631491370217
 42
-0.2679482664649471
 10
329.6311040941226
 20
345.3961611954599
 10
329.6311021385247
 20
349.8641111954605
 42
-0.2679491924309826
 10
329.8811022397434
 20
350.2971241370217
 42
1.303223041600067
 10
329.1980903994006
 20
350.9801382966789
 42
-0.2679482664660309
 10
328.7650783409623
 20
350.7301393978969
  0
LWPOLYLINE
  5
160
100
AcDbEntity
  8
0
  6
ByLayer
 62
    0
370
   -1
100
AcDbPolyline
 90
   16
 70
    1
 43
0
 10
270.3048563549914
 20
372.1801510632209
 42
-0.2679482664649857
 10
269.8718442965529
 20
371.9301521644393
 10
268.3039772965524
 20
371.9301495309348
 42
-0.2679491924309736
 10
267.8709643549907
 20
372.1801496321534
 42
1.303223041599879
 10
267.1879501953343
 20
371.4971387918113
 42
-0.2679482664649999
 10
267.4379480941158
 20
371.064126733373
 10
267.4379470497137
 20
366.596176733373
 42
-0.2679491924309125
 10
267.1879469484953
 20
366.1631647918118
 42
1.303223041599914
 10
267.8709587888379
 20
365.4801506321546
 42
-0.267948266464988
 10
268.3039708472761
 20
365.7301485309363
 10
269.8718408472766
 20
365.7301511644399
 42
-0.2679491924309582
 10
270.3048547888383
 20
365.4801510632211
 42
1.303223041599596
 10
270.9878689484948
 20
366.1631619035637
 42
-0.2679482617889126
 10
270.7378700497134
 20
366.5961739620021
 10
270.7378680941154
 20
371.0641239620027
 42
-0.2679491924309533
 10
270.987868195334
 20
371.497136903564
 42
1.30322304159997
  0
LWPOLYLINE
  5
161
100
AcDbEntity
  8
0
  6
ByLayer
 62
    0
370
   -1
100
AcDbPolyline
 90
   16
 70
    1
 43
0
 10
270.9878639929057
 20
344.9631629035644
 42
-0.2679482664649248
 10
270.7378650941243
 20
345.3961749620025
 10
270.7378631385262
 20
349.8641249620033
 42
-0.2679491924309603
 10
270.9878632397448
 20
350.2971379035645
 42
1.303223041600026
 10
270.3048513994025
 20
350.9801520632216
 42
-0.2679482664660818
 10
269.8718393409639
 20
350.7301531644397
 10
268.3039723409633
 20
350.7301505309355
 42
-0.2679491924310181
 10
267.8709593994018
 20
350.9801506321542
 42
1.303223041600102
 10
267.1879452397449
 20
350.2971387918116
 42
-0.2679482664649876
 10
267.4379431385265
 20
349.8641267333734
 10
267.4379420941247
 20
345.3961777333736
 42
-0.267949192430992
 10
267.187941992906
 20
344.963164791812
 42
1.303223041600351
 10
267.8709538332486
 20
344.2801506321551
 42
-0.2679482664650478
 10
268.3039658916867
 20
344.5301485309368
 10
269.8718358916873
 20
344.5301511644408
 42
-0.2679491924311053
 10
270.304849833249
 20
344.2801510632219
 42
1.303223041599806
  0
CIRCLE
  5
162
100
AcDbEntity
  8
0
  6
ByLayer
 62
    0
370
   -1
100
AcDbCircle
 10
269.0879070941199
 20
358.2301503476878
 40
1.6
  0
LWPOLYLINE
  5
163
100
AcDbEntity
  8
0
  6
ByLayer
 62
  256
370
   -1
100
AcDbPolyline
 90
   63
 70
    0
 43
0
 10
377.8061460941178
 20
3.230130937149408
 10
397.8061420941178
 20
3.23013093714941
 42
0.4142137003890052
 10
402.8061370941178
 20
8.230130937149395
 10
402.8061370941178
 20
59.58013093714931
 42
-0.3419984508480001
 10
396.8061430941178
 20
67.32609793714937
 10
396.8061410941179
 20
360.4841659371494
 42
-0.3419983241320003
 10
402.8061370941178
 20
368.2301159371493
 10
402.8061370941178
 20
383.2301319371494
 10
392.8061470941178
 20
383.2301319371494
 10
392.8061470941178
 20
380.9961119371494
 42
0.2679491924310763
 10
393.0561470941178
 20
380.5630989371494
 42
-1.303223041599763
 10
392.3731350941176
 20
379.8800849371494
 42
0.2679482664650509
 10
391.9401230941179
 20
380.1300829371494
 10
368.5811510941179
 20
380.1300859371494
 10
368.5811510941179
 20
377.1301149371494
 10
369.8561460941179
 20
377.1301149371494
 10
369.8561460941179
 20
373.1300859371494
 10
368.5811510941179
 20
373.1300859371494
 10
368.5811510941179
 20
370.1300859371494
 10
365.3811400941179
 20
370.1300859371494
 10
365.3811400941179
 20
373.1300859371494
 10
364.1061460941179
 20
373.1300859371494
 10
364.1061460941179
 20
377.1301149371494
 10
365.3811400941179
 20
377.1301149371494
 10
365.3811400941179
 20
380.1300859371494
 10
342.0221700941178
 20
380.1300859371494
 42
0.2679491924309734
 10
341.5891560941179
 20
379.8800859371494
 42
-1.303223041599819
 10
340.9061420941178
 20
380.5630979371492
 42
0.2679482664649997
 10
341.156141094118
 20
380.9961099371494
 10
341.1561440941178
 20
383.2301319371494
 10
64.45614509411791
 20
383.2301319371495
 10
64.45614509411791
 20
380.9961119371495
 42
0.2679491924309509
 10
64.7061450941178
 20
380.5630989371496
 42
-1.303223041600053
 10
64.02313309411784
 20
379.8800849371494
 42
0.2679482664649947
 10
63.59012109411792
 20
380.1300829371495
 10
40.2311490941179
 20
380.1300859371494
 10
40.2311490941179
 20
377.1301149371495
 10
41.50614309411789
 20
377.1301149371495
 10
41.50614309411789
 20
373.1300859371494
 10
40.2311490941179
 20
373.1300859371494
 10
40.2311490941179
 20
370.1300859371494
 10
37.03113809411799
 20
370.1300859371494
 10
37.03113809411799
 20
373.1300859371494
 10
35.75614309411789
 20
373.1300859371494
 10
35.75614309411789
 20
377.1301149371495
 10
37.03113809411799
 20
377.1301149371495
 10
37.03113809411799
 20
380.1300859371494
 10
13.672168094118
 20
380.1300859371494
 42
0.2679491924310079
 10
13.23915409411787
 20
379.8800859371496
 42
-1.303223041600177
 10
12.55614009411797
 20
380.5630979371497
 42
0.2679482664650126
 10
12.80613909411792
 20
380.9961099371495
 10
12.8061420941179
 20
383.2301319371495
 10
2.806152094117877
 20
383.2301319371495
 10
2.80615209411787
 20
368.2301169371497
 42
-0.3419983241320017
 10
8.806132094117849
 20
360.4841659371496
 10
8.806149094117945
 20
67.32609793714946
 42
-0.3419984508480043
 10
2.806152094117822
 20
59.58013093714937
 10
2.806152094117822
 20
8.230130937149479
 42
0.4142137003890046
 10
7.806147094117944
 20
3.230130937149476
 10
27.8061430941179
 20
3.230130937149468
 10
29.80614709411795
 20
5.230130937149468
 10
375.8062790941178
 20
5.229991937149418
 10
377.8062830941178
 20
3.229991937149418
  0
LWPOLYLINE
  5
164
100
AcDbEntity
  8
0
  6
ByLayer
 62
  256
370
   -1
100
AcDbPolyline
 90
    4
 70
    1
 43
0
 10
379.3061437864138
 20
23.23013193714939
 10
366.3061444784989
 20
23.2301309371494
 42
0.9999999999999997
 10
366.306144632345
 20
11.23013093714941
 10
379.3061493350565
 20
11.23013093715182
 42
0.9999991393374391
  0
LWPOLYLINE
  5
165
100
AcDbEntity
  8
0
  6
ByLayer
 62
  256
370
   -1
100
AcDbPolyline
 90
    4
 70
    1
 43
0
 10
39.30614609411757
 20
23.23013093714948
 10
26.30614509411795
 20
23.23013093714948
 42
0.9999999999999999
 10
26.30614509411795
 20
11.23013093714947
 10
39.30614676846715
 20
11.23013093714951
 42
0.9999999438042033
  0
ENDBLK
  5
7F
330
7D
100
AcDbEntity
  8
0
100
AcDbBlockEnd
  0
ENDSEC
  0
SECTION
  2
ENTITIES
  0
INSERT
  5
166
100
AcDbEntity
  8
0
  6
ByLayer
 62
  256
370
   -1
100
AcDbBlockReference
  2
left_frame
 10
434.87548828125
 20
6.67572021484375
 30
0
 41
1
 42
1
 43
0
 50
0
 70
    1
 71
    1
 44
0
 45
0
  0
INSERT
  5
167
100
AcDbEntity
  8
0
  6
ByLayer
 62
  256
370
   -1
100
AcDbBlockReference
  2
right_frame
 10
818.2525634765625
 20
6.67572021484375
 30
0
 41
1
 42
1
 43
0
 50
0
 70
    1
 71
    1
 44
0
 45
0
  0
INSERT
  5
168
100
AcDbEntity
  8
0
  6
ByLayer
 62
  256
370
   -1
100
AcDbBlockReference
  2
spool_holder_bracket
 10
1217.424869537354
 20
7.450580596923828
 30
0
 41
1
 42
1
 43
0
 50
0
 70
    1
 71
    1
 44
0
 45
0
  0
INSERT
  5
169
100
AcDbEntity
  8
0
  6
ByLayer
 62
  256
370
   -1
100
AcDbBlockReference
  2
base_frame_reinforcement
 10
1206.99405670166
 20
281.6319465637207
 30
0
 41
1
 42
1
 43
0
 50
0
 70
    1
 71
    1
 44
0
 45
0
  0
INSERT
  5
16A
100
AcDbEntity
  8
0
  6
ByLayer
 62
  256
370
   -1
100
AcDbBlockReference
  2
base_frame_reinforcement
 10
1205.318827003983
 20
134.7387318334221
 30
0
 41
1
 42
1
 43
0
 50
0
 70
    1
 71
    1
 44
0
 45
0
  0
INSERT
  5
16B
100
AcDbEntity
  8
0
  6
ByLayer
 62
  256
370
   -1
100
AcDbBlockReference
  2
base_frame_reinforcement
 10
1296.026175815941
 20
133.4471462386982
 30
0
 41
1
 42
1
 43
0
 50
0
 70
    1
 71
    1
 44
0
 45
0
  0
INSERT
  5
16C
100
AcDbEntity
  8
0
  6
ByLayer
 62
  256
370
   -1
100
AcDbBlockReference
  2
base_frame_reinforcement
 10
1293.045943577171
 20
279.4785259384053
 30
0
 41
1
 42
1
 43
0
 50
0
 70
    1
 71
    1
 44
0
 45
0
  0
INSERT
  5
16D
100
AcDbEntity
  8
0
  6
ByLayer
 62
  256
370
   -1
100
AcDbBlockReference
  2
spool_holder_bracket
 10
1215.934753417969
 20
67.05522537231445
 30
0
 41
1
 42
1
 43
0
 50
0
 70
    1
 71
    1
 44
0
 45
0
  0
INSERT
  5
16E
100
AcDbEntity
  8
0
  6
ByLayer
 62
  256
370
   -1
100
AcDbBlockReference
  2
print_bed_bearing_clamp
 10
1488.626003265381
 20
87.91685104370117
 30
0
 41
1
 42
1
 43
0
 50
0
 70
    1
 71
    1
 44
0
 45
0
  0
INSERT
  5
16F
100
AcDbEntity
  8
0
  6
ByLayer
 62
  256
370
   -1
100
AcDbBlockReference
  2
print_bed_bearing_clamp
 10
1487.135887145996
 20
29.80232238769531
 30
0
 41
1
 42
1
 43
0
 50
0
 70
    1
 71
    1
 44
0
 45
0
  0
INSERT
  5
170
100
AcDbEntity
  8
0
  6
ByLayer
 62
  256
370
   -1
100
AcDbBlockReference
  2
print_bed_bearing_clamp
 10
1534.819602966309
 20
31.29243850708008
 30
0
 41
1
 42
1
 43
0
 50
0
 70
    1
 71
    1
 44
0
 45
0
  0
INSERT
  5
171
100
AcDbEntity
  8
0
  6
ByLayer
 62
  256
370
   -1
100
AcDbBlockReference
  2
print_bed_bearing_clamp
 10
1537.799835205078
 20
86.42673492431641
 30
0
 41
1
 42
1
 43
0
 50
0
 70
    1
 71
    1
 44
0
 45
0
  0
INSERT
  5
172
100
AcDbEntity
  8
0
  6
ByLayer
 62
  256
370
   -1
100
AcDbBlockReference
  2
NEMA17_fixing_plate_Y_axis
 10
1589.953899383545
 20
2.980232238769531
 30
0
 41
1
 42
1
 43
0
 50
0
 70
    1
 71
    1
 44
0
 45
0
  0
INSERT
  5
173
100
AcDbEntity
  8
0
  6
ByLayer
 62
  256
370
   -1
100
AcDbBlockReference
  2
NEMA17_fixing_plate_Y_axis
 10
1586.973667144775
 20
62.58487701416016
 30
0
 41
1
 42
1
 43
0
 50
0
 70
    1
 71
    1
 44
0
 45
0
  0
INSERT
  5
174
100
AcDbEntity
  8
0
  6
ByLayer
 62
  256
370
   -1
100
AcDbBlockReference
  2
Y_axis_idler
 10
1738.965511322021
 20
156.4621925354004
 30
0
 41
1
 42
1
 43
0
 50
0
 70
    1
 71
    1
 44
0
 45
0
  0
INSERT
  5
175
100
AcDbEntity
  8
0
  6
ByLayer
 62
  256
370
   -1
100
AcDbBlockReference
  2
Y_axis_idler
 10
1795.589923858643
 20
157.9523086547852
 30
0
 41
1
 42
1
 43
0
 50
0
 70
    1
 71
    1
 44
0
 45
0
  0
INSERT
  5
176
100
AcDbEntity
  8
0
  6
ByLayer
 62
  256
370
   -1
100
AcDbBlockReference
  2
Y_axis_rod_end
 10
1874.566078186035
 20
160.9325408935547
 30
0
 41
1
 42
1
 43
0
 50
0
 70
    1
 71
    1
 44
0
 45
0
  0
INSERT
  5
177
100
AcDbEntity
  8
0
  6
ByLayer
 62
  256
370
   -1
100
AcDbBlockReference
  2
Y_axis_rod_end
 10
1934.170722961426
 20
159.4424247741699
 30
0
 41
1
 42
1
 43
0
 50
0
 70
    1
 71
    1
 44
0
 45
0
  0
INSERT
  5
178
100
AcDbEntity
  8
0
  6
ByLayer
 62
  256
370
   -1
100
AcDbBlockReference
  2
Y_axis_rod_end
 10
1934.170722961426
 20
204.1459083557129
 30
0
 41
1
 42
1
 43
0
 50
0
 70
    1
 71
    1
 44
0
 45
0
  0
INSERT
  5
179
100
AcDbEntity
  8
0
  6
ByLayer
 62
  256
370
   -1
100
AcDbBlockReference
  2
Y_axis_rod_end
 10
1874.566078186035
 20
205.6360244750977
 30
0
 41
1
 42
1
 43
0
 50
0
 70
    1
 71
    1
 44
0
 45
0
  0
INSERT
  5
17A
100
AcDbEntity
  8
0
  6
ByLayer
 62
  256
370
   -1
100
AcDbBlockReference
  2
NEMA17_fixing_plate_Z_axis
 10
1747.90620803833
 20
217.5569534301758
 30
0
 41
1
 42
1
 43
0
 50
0
 70
    1
 71
    1
 44
0
 45
0
  0
INSERT
  5
17B
100
AcDbEntity
  8
0
  6
ByLayer
 62
  256
370
   -1
100
AcDbBlockReference
  2
NEMA17_fixing_plate_Z_axis
 10
1743.435859680176
 20
293.5528755187988
 30
0
 41
1
 42
1
 43
0
 50
0
 70
    1
 71
    1
 44
0
 45
0
  0
INSERT
  5
17C
100
AcDbEntity
  8
0
  6
ByLayer
 62
  256
370
   -1
100
AcDbBlockReference
  2
Z_axis_top
 10
2054.870128631592
 20
342.7267074584961
 30
0
 41
1
 42
1
 43
0
 50
0
 70
    1
 71
    1
 44
0
 45
0
  0
INSERT
  5
17D
100
AcDbEntity
  8
0
  6
ByLayer
 62
  256
370
   -1
100
AcDbBlockReference
  2
Z_axis_top
 10
2056.360244750977
 20
225.0075340270996
 30
0
 41
1
 42
1
 43
0
 50
0
 70
    1
 71
    1
 44
0
 45
0
  0
INSERT
  5
17E
100
AcDbEntity
  8
0
  6
ByLayer
 62
  256
370
   -1
100
AcDbBlockReference
  2
Z_axis_top_rod_end
 10
2044.439315795898
 20
111.7587089538574
 30
0
 41
1
 42
1
 43
0
 50
0
 70
    1
 71
    1
 44
0
 45
0
  0
INSERT
  5
17F
100
AcDbEntity
  8
0
  6
ByLayer
 62
  256
370
   -1
100
AcDbBlockReference
  2
Z_axis_top_rod_end
 10
2044.439315795898
 20
58.11452865600586
 30
0
 41
1
 42
1
 43
0
 50
0
 70
    1
 71
    1
 44
0
 45
0
  0
INSERT
  5
180
100
AcDbEntity
  8
0
  6
ByLayer
 62
  256
370
   -1
100
AcDbBlockReference
  2
NEMA17_fixing_plate_support-1
 10
1864.135265350341
 20
229.4778823852538
 30
0
 41
1
 42
1
 43
0
 50
0
 70
    1
 71
    1
 44
0
 45
0
  0
INSERT
  5
181
100
AcDbEntity
  8
0
  6
ByLayer
 62
  256
370
   -1
100
AcDbBlockReference
  2
NEMA17_fixing_plate_support-1
 10
1862.645149230956
 20
293.5528755187987
 30
0
 41
1
 42
1
 43
0
 50
0
 70
    1
 71
    1
 44
0
 45
0
  0
INSERT
  5
182
100
AcDbEntity
  8
0
  6
ByLayer
 62
  256
370
   -1
100
AcDbBlockReference
  2
NEMA17_fixing_plate_support-1
 10
1932.68060684204
 20
292.0627593994139
 30
0
 41
1
 42
1
 43
0
 50
0
 70
    1
 71
    1
 44
0
 45
0
  0
INSERT
  5
183
100
AcDbEntity
  8
0
  6
ByLayer
 62
  256
370
   -1
100
AcDbBlockReference
  2
NEMA17_fixing_plate_support-1
 10
1938.641071319579
 20
227.987766265869
 30
0
 41
1
 42
1
 43
0
 50
0
 70
    1
 71
    1
 44
0
 45
0
  0
INSERT
  5
184
100
AcDbEntity
  8
0
  6
ByLayer
 62
  256
370
   -1
100
AcDbBlockReference
  2
print_bed
 10
1412.630081176757
 20
171.363353729248
 30
0
 41
1
 42
1
 43
0
 50
0
 70
    1
 71
    1
 44
0
 45
0
  0
INSERT
  5
185
100
AcDbEntity
  8
0
  6
ByLayer
 62
  256
370
   -1
100
AcDbBlockReference
  2
Y_axis_base_front
 10
1648.887360235442
 20
44.09662538876719
 30
0
 41
1
 42
1
 43
0
 50
0
 70
    1
 71
    1
 44
0
 45
0
  0
INSERT
  5
186
100
AcDbEntity
  8
0
  6
ByLayer
 62
  256
370
   -1
100
AcDbBlockReference
  2
Y_axis_base_rear
 10
1649.53631693062
 20
-23.02949424962295
 30
0
 41
1
 42
1
 43
0
 50
0
 70
    1
 71
    1
 44
0
 45
0
  0
INSERT
  5
187
100
AcDbEntity
  8
0
  6
ByLayer
 62
  256
370
   -1
100
AcDbBlockReference
  2
front_frame
 10
15.48552045635152
 20
8.338357168804663
 30
0
 41
1
 42
1
 43
0
 50
0
 70
    1
 71
    1
 44
0
 45
0
  0
ENDSEC
  0
SECTION
  2
OBJECTS
  0
DICTIONARY
  5
C
330
0
100
AcDbDictionary
281
    1
  3
ACAD_GROUP
350
D
  0
DICTIONARY
  5
D
330
C
100
AcDbDictionary
281
    1
  0
ENDSEC
  0
EOF
