999
dxfrw 0.6.3
  0
SECTION
  2
HEADER
  9
$ACADVER
  1
AC1021
  9
$DWGCODEPAGE
  3
ANSI_1252
  9
$INSBASE
 10
0
 20
0
 30
0
  9
$EXTMIN
 10
25.00784878934147
 20
10.52395009024343
 30
0
  9
$EXTMAX
 10
295.3578527893416
 20
62.90956509024399
 30
0
  9
$LIMMIN
 10
0
 20
0
  9
$LIMMAX
 10
420
 20
297
  9
$ORTHOMODE
 70
    0
  9
$REGENMODE
 70
    1
  9
$FILLMODE
 70
    1
  9
$QTEXTMODE
 70
    0
  9
$MIRRTEXT
 70
    0
  9
$LTSCALE
 40
1
  9
$ATTMODE
 70
    0
  9
$TEXTSIZE
 40
2.5
  9
$TRACEWID
 40
15.68
  9
$TEXTSTYLE
  7
STANDARD
  9
$CLAYER
  8
0
  9
$CELTYPE
  6
BYLAYER
  9
$CECOLOR
 62
  256
  9
$CELTSCALE
 40
1
  9
$DISPSILH
 70
    0
  9
$DIMSCALE
 40
2.5
  9
$DIMASZ
 40
2.5
  9
$DIMEXO
 40
0.625
  9
$DIMDLI
 40
3.75
  9
$DIMRND
 40
0
  9
$DIMDLE
 40
0
  9
$DIMEXE
 40
1.25
  9
$DIMTP
 40
0
  9
$DIMTM
 40
0
  9
$DIMTXT
 40
2.5
  9
$DIMCEN
 40
2.5
  9
$DIMTSZ
 40
0
  9
$DIMTOL
 70
    0
  9
$DIMLIM
 70
    0
  9
$DIMTIH
 70
    0
  9
$DIMTOH
 70
    0
  9
$DIMSE1
 70
    0
  9
$DIMSE2
 70
    0
  9
$DIMTAD
 70
    1
  9
$DIMZIN
 70
    8
  9
$DIMBLK
  1

  9
$DIMASO
 70
    1
  9
$DIMSHO
 70
    1
  9
$DIMPOST
  1

  9
$DIMAPOST
  1

  9
$DIMALT
 70
    0
  9
$DIMALTD
 70
    3
  9
$DIMALTF
 40
0.03937
  9
$DIMLFAC
 40
1
  9
$DIMTOFL
 70
    1
  9
$DIMTVP
 40
0
  9
$DIMTIX
 70
    0
  9
$DIMSOXD
 70
    0
  9
$DIMSAH
 70
    0
  9
$DIMBLK1
  1

  9
$DIMBLK2
  1

  9
$DIMSTYLE
  2
STANDARD
  9
$DIMCLRD
 70
    0
  9
$DIMCLRE
 70
    0
  9
$DIMCLRT
 70
    0
  9
$DIMTFAC
 40
1
  9
$DIMGAP
 40
0.625
  9
$DIMJUST
 70
    0
  9
$DIMSD1
 70
    0
  9
$DIMSD2
 70
    0
  9
$DIMTOLJ
 70
    0
  9
$DIMTZIN
 70
    8
  9
$DIMALTZ
 70
    0
  9
$DIMALTTZ
 70
    0
  9
$DIMUPT
 70
    0
  9
$DIMDEC
 70
    2
  9
$DIMTDEC
 70
    2
  9
$DIMALTU
 70
    2
  9
$DIMALTTD
 70
    3
  9
$DIMTXSTY
  7
STANDARD
  9
$DIMAUNIT
 70
    0
  9
$DIMADEC
 70
    0
  9
$DIMALTRND
 40
0
  9
$DIMAZIN
 70
    0
  9
$DIMDSEP
 70
   44
  9
$DIMATFIT
 70
    3
  9
$DIMFRAC
 70
    0
  9
$DIMLDRBLK
  1
STANDARD
  9
$DIMLUNIT
 70
    2
  9
$DIMLWD
 70
   -2
  9
$DIMLWE
 70
   -2
  9
$DIMTMOVE
 70
    0
  9
$DIMFXL
 40
1
  9
$DIMFXLON
 70
    0
  9
$DIMJOGANG
 40
0.7854
  9
$DIMTFILL
 70
    0
  9
$DIMTFILLCLR
 70
    0
  9
$DIMARCSYM
 70
    0
  9
$DIMLTYPE
  6

  9
$DIMLTEX1
  6

  9
$DIMLTEX2
  6

  9
$LUNITS
 70
    2
  9
$LUPREC
 70
    4
  9
$SKETCHINC
 40
1
  9
$FILLETRAD
 40
0
  9
$AUNITS
 70
    0
  9
$AUPREC
 70
    2
  9
$MENU
  1
.
  9
$ELEVATION
 40
0
  9
$PELEVATION
 40
0
  9
$THICKNESS
 40
0
  9
$LIMCHECK
 70
    0
  9
$CHAMFERA
 40
0
  9
$CHAMFERB
 40
0
  9
$CHAMFERC
 40
0
  9
$CHAMFERD
 40
0
  9
$SKPOLY
 70
    0
  9
$USRTIMER
 70
    1
  9
$ANGBASE
 50
0
  9
$ANGDIR
 70
    0
  9
$PDMODE
 70
   34
  9
$PDSIZE
 40
0
  9
$PLINEWID
 40
0
  9
$SPLFRAME
 70
    0
  9
$SPLINETYPE
 70
    2
  9
$SPLINESEGS
 70
    8
  9
$HANDSEED
  5
20000
  9
$SURFTAB1
 70
    6
  9
$SURFTAB2
 70
    6
  9
$SURFTYPE
 70
    6
  9
$SURFU
 70
    6
  9
$SURFV
 70
    6
  9
$UCSBASE
  2

  9
$UCSNAME
  2

  9
$UCSORG
 10
0
 20
0
 30
0
  9
$UCSXDIR
 10
1
 20
0
 30
0
  9
$UCSYDIR
 10
0
 20
1
 30
0
  9
$UCSORTHOREF
  2

  9
$UCSORTHOVIEW
 70
    0
  9
$UCSORGTOP
 10
0
 20
0
 30
0
  9
$UCSORGBOTTOM
 10
0
 20
0
 30
0
  9
$UCSORGLEFT
 10
0
 20
0
 30
0
  9
$UCSORGRIGHT
 10
0
 20
0
 30
0
  9
$UCSORGFRONT
 10
0
 20
0
 30
0
  9
$UCSORGBACK
 10
0
 20
0
 30
0
  9
$PUCSBASE
  2

  9
$PUCSNAME
  2

  9
$PUCSORG
 10
0
 20
0
 30
0
  9
$PUCSXDIR
 10
1
 20
0
 30
0
  9
$PUCSYDIR
 10
0
 20
1
 30
0
  9
$PUCSORTHOREF
  2

  9
$PUCSORTHOVIEW
 70
    0
  9
$PUCSORGTOP
 10
0
 20
0
 30
0
  9
$PUCSORGBOTTOM
 10
0
 20
0
 30
0
  9
$PUCSORGLEFT
 10
0
 20
0
 30
0
  9
$PUCSORGRIGHT
 10
0
 20
0
 30
0
  9
$PUCSORGFRONT
 10
0
 20
0
 30
0
  9
$PUCSORGBACK
 10
0
 20
0
 30
0
  9
$USERI1
 70
    0
  9
$USERI2
 70
    0
  9
$USERI3
 70
    0
  9
$USERI4
 70
    0
  9
$USERI5
 70
    0
  9
$USERR1
 40
0
  9
$USERR2
 40
0
  9
$USERR3
 40
0
  9
$USERR4
 40
0
  9
$USERR5
 40
0
  9
$WORLDVIEW
 70
    1
  9
$SHADEDGE
 70
    3
  9
$SHADEDIF
 70
   70
  9
$TILEMODE
 70
    1
  9
$MAXACTVP
 70
   64
  9
$PINSBASE
 10
0
 20
0
 30
0
  9
$PLIMCHECK
 70
    0
  9
$PEXTMIN
 10
0
 20
0
 30
0
  9
$PEXTMAX
 10
0
 20
0
 30
0
  9
$GRIDMODE
 70
    1
  9
$SNAPSTYLE
 70
    0
  9
$PLIMMIN
 10
0
 20
0
  9
$PLIMMAX
 10
420
 20
297
  9
$UNITMODE
 70
    0
  9
$VISRETAIN
 70
    1
  9
$PLINEGEN
 70
    0
  9
$PSLTSCALE
 70
    1
  9
$TREEDEPTH
 70
 3020
  9
$CMLSTYLE
  2
Standard
  9
$CMLJUST
 70
    0
  9
$CMLSCALE
 40
20
  9
$PROXYGRAPHICS
 70
    1
  9
$MEASUREMENT
 70
    1
  9
$CELWEIGHT
370
   -1
  9
$ENDCAPS
280
    0
  9
$JOINSTYLE
280
    0
  9
$LWDISPLAY
290
    0
  9
$INSUNITS
 70
    0
  9
$HYPERLINKBASE
  1

  9
$STYLESHEET
  1

  9
$XEDIT
290
    1
  9
$CEPSNTYPE
380
    0
  9
$PSTYLEMODE
290
    1
  9
$EXTNAMES
290
    1
  9
$PSVPSCALE
 40
1
  9
$OLESTARTUP
290
    0
  9
$SORTENTS
280
  127
  9
$INDEXCTL
280
    0
  9
$HIDETEXT
280
    1
  9
$XCLIPFRAME
290
    0
  9
$HALOGAP
280
    0
  9
$OBSCOLOR
 70
  257
  9
$OBSLTYPE
280
    0
  9
$INTERSECTIONDISPLAY
280
    0
  9
$INTERSECTIONCOLOR
 70
  257
  9
$DIMASSOC
280
    1
  9
$PROJECTNAME
  1

  9
$CAMERADISPLAY
290
    0
  9
$LENSLENGTH
 40
50
  9
$CAMERAHEIGHT
 40
0
  9
$STEPSPERSEC
 40
2
  9
$STEPSIZE
 40
50
  9
$3DDWFPREC
 40
2
  9
$PSOLWIDTH
 40
5
  9
$PSOLHEIGHT
 40
80
  9
$LOFTANG1
 40
1.570796326794897
  9
$LOFTANG2
 40
1.570796326794897
  9
$LOFTMAG1
 40
0
  9
$LOFTMAG2
 40
0
  9
$LOFTPARAM
 70
    7
  9
$LOFTNORMALS
280
    1
  9
$LATITUDE
 40
1
  9
$LONGITUDE
 40
1
  9
$NORTHDIRECTION
 40
0
  9
$TIMEZONE
 70
-8000
  9
$LIGHTGLYPHDISPLAY
280
    1
  9
$TILEMODELIGHTSYNCH
280
    1
  9
$SOLIDHIST
280
    1
  9
$SHOWHIST
280
    1
  9
$DWFFRAME
280
    2
  9
$DGNFRAME
280
    0
  9
$REALWORLDSCALE
290
    1
  9
$INTERFERECOLOR
 62
    1
  9
$CSHADOW
280
    0
  9
$SHADOWPLANELOCATION
 40
0
  0
ENDSEC
  0
SECTION
  2
CLASSES
  0
ENDSEC
  0
SECTION
  2
TABLES
  0
TABLE
  2
VPORT
  5
8
330
0
100
AcDbSymbolTable
 70
    1
  0
VPORT
  5
31
330
2
100
AcDbSymbolTableRecord
100
AcDbViewportTableRecord
  2
*ACTIVE
 70
    0
 10
0
 20
0
 11
1
 21
1
 12
60.25443175946403
 22
34.78549537074272
 13
0
 23
0
 14
10
 24
10
 15
10
 25
10
 16
0
 26
0
 36
1
 17
0
 27
0
 37
0
 40
78.83242215556592
 41
1.853146853146853
 42
50
 43
0
 44
0
 50
0
 51
0
 71
    0
 72
  100
 73
    1
 74
    3
 75
    0
 76
    1
 77
    0
 78
    0
281
    0
 65
    1
110
0
120
0
130
0
111
1
121
0
131
0
112
0
122
1
132
0
 79
    0
146
0
348
10020
 60
    7
 61
    5
292
1
282
    1
141
0
142
0
 63
  250
421
3358443
  0
ENDTAB
  0
TABLE
  2
LTYPE
  5
5
330
0
100
AcDbSymbolTable
 70
    4
  0
LTYPE
  5
14
330
5
100
AcDbSymbolTableRecord
100
AcDbLinetypeTableRecord
  2
ByBlock
 70
    0
  3

 72
   65
 73
    0
 40
0
  0
LTYPE
  5
15
330
5
100
AcDbSymbolTableRecord
100
AcDbLinetypeTableRecord
  2
ByLayer
 70
    0
  3

 72
   65
 73
    0
 40
0
  0
LTYPE
  5
16
330
5
100
AcDbSymbolTableRecord
100
AcDbLinetypeTableRecord
  2
Continuous
 70
    0
  3
Solid line
 72
   65
 73
    0
 40
0
  0
LTYPE
  5
32
330
5
100
AcDbSymbolTableRecord
100
AcDbLinetypeTableRecord
  2
DOT
 70
    0
  3
Dot . . . . . . . . . . . . . . . . . . . . . .
 72
   65
 73
    2
 40
6.35
 49
0
 74
    0
 49
-6.35
 74
    0
  0
LTYPE
  5
33
330
5
100
AcDbSymbolTableRecord
100
AcDbLinetypeTableRecord
  2
DOTTINY
 70
    0
  3
Dot (.15x) .....................................
 72
   65
 73
    2
 40
0.9525
 49
0
 74
    0
 49
-0.9525
 74
    0
  0
LTYPE
  5
34
330
5
100
AcDbSymbolTableRecord
100
AcDbLinetypeTableRecord
  2
DOT2
 70
    0
  3
Dot (.5x) .....................................
 72
   65
 73
    2
 40
3.175
 49
0
 74
    0
 49
-3.175
 74
    0
  0
LTYPE
  5
35
330
5
100
AcDbSymbolTableRecord
100
AcDbLinetypeTableRecord
  2
DOTX2
 70
    0
  3
Dot (2x) .  .  .  .  .  .  .  .  .  .  .  .  .
 72
   65
 73
    2
 40
12.7
 49
0
 74
    0
 49
-12.7
 74
    0
  0
LTYPE
  5
36
330
5
100
AcDbSymbolTableRecord
100
AcDbLinetypeTableRecord
  2
DASHED
 70
    0
  3
Dashed _ _ _ _ _ _ _ _ _ _ _ _ _ _ _ _ _
 72
   65
 73
    2
 40
19.05
 49
12.7
 74
    0
 49
-6.35
 74
    0
  0
LTYPE
  5
37
330
5
100
AcDbSymbolTableRecord
100
AcDbLinetypeTableRecord
  2
DASHEDTINY
 70
    0
  3
Dashed (.15x) _ _ _ _ _ _ _ _ _ _ _ _ _ _ _ _ _
 72
   65
 73
    2
 40
2.8575
 49
1.905
 74
    0
 49
-0.9525
 74
    0
  0
LTYPE
  5
38
330
5
100
AcDbSymbolTableRecord
100
AcDbLinetypeTableRecord
  2
DASHED2
 70
    0
  3
Dashed (.5x) _ _ _ _ _ _ _ _ _ _ _ _ _ _ _ _ _
 72
   65
 73
    2
 40
9.524999999999999
 49
6.35
 74
    0
 49
-3.175
 74
    0
  0
LTYPE
  5
39
330
5
100
AcDbSymbolTableRecord
100
AcDbLinetypeTableRecord
  2
DASHEDX2
 70
    0
  3
Dashed (2x) ____  ____  ____  ____  ____  ___
 72
   65
 73
    2
 40
38.09999999999999
 49
25.4
 74
    0
 49
-12.7
 74
    0
  0
LTYPE
  5
3A
330
5
100
AcDbSymbolTableRecord
100
AcDbLinetypeTableRecord
  2
DASHDOT
 70
    0
  3
Dash dot __ . __ . __ . __ . __ . __ . __ . __
 72
   65
 73
    4
 40
25.4
 49
12.7
 74
    0
 49
-6.35
 74
    0
 49
0
 74
    0
 49
-6.35
 74
    0
  0
LTYPE
  5
3B
330
5
100
AcDbSymbolTableRecord
100
AcDbLinetypeTableRecord
  2
DASHDOTTINY
 70
    0
  3
Dash dot (.15x) _._._._._._._._._._._._._._._.
 72
   65
 73
    4
 40
3.81
 49
1.905
 74
    0
 49
-0.9525
 74
    0
 49
0
 74
    0
 49
-0.9525
 74
    0
  0
LTYPE
  5
3C
330
5
100
AcDbSymbolTableRecord
100
AcDbLinetypeTableRecord
  2
DASHDOT2
 70
    0
  3
Dash dot (.5x) _._._._._._._._._._._._._._._.
 72
   65
 73
    4
 40
12.7
 49
6.35
 74
    0
 49
-3.175
 74
    0
 49
0
 74
    0
 49
-3.175
 74
    0
  0
LTYPE
  5
3D
330
5
100
AcDbSymbolTableRecord
100
AcDbLinetypeTableRecord
  2
DASHDOTX2
 70
    0
  3
Dash dot (2x) ____  .  ____  .  ____  .  ___
 72
   65
 73
    4
 40
50.8
 49
25.4
 74
    0
 49
-12.7
 74
    0
 49
0
 74
    0
 49
-12.7
 74
    0
  0
LTYPE
  5
3E
330
5
100
AcDbSymbolTableRecord
100
AcDbLinetypeTableRecord
  2
DIVIDE
 70
    0
  3
Divide ____ . . ____ . . ____ . . ____ . . ____
 72
   65
 73
    6
 40
31.75
 49
12.7
 74
    0
 49
-6.35
 74
    0
 49
0
 74
    0
 49
-6.35
 74
    0
 49
0
 74
    0
 49
-6.35
 74
    0
  0
LTYPE
  5
3F
330
5
100
AcDbSymbolTableRecord
100
AcDbLinetypeTableRecord
  2
DIVIDETINY
 70
    0
  3
Divide (.15x) __..__..__..__..__..__..__..__.._
 72
   65
 73
    6
 40
4.7625
 49
1.905
 74
    0
 49
-0.9525
 74
    0
 49
0
 74
    0
 49
-0.9525
 74
    0
 49
0
 74
    0
 49
-0.9525
 74
    0
  0
LTYPE
  5
40
330
5
100
AcDbSymbolTableRecord
100
AcDbLinetypeTableRecord
  2
DIVIDE2
 70
    0
  3
Divide (.5x) __..__..__..__..__..__..__..__.._
 72
   65
 73
    6
 40
15.875
 49
6.35
 74
    0
 49
-3.175
 74
    0
 49
0
 74
    0
 49
-3.175
 74
    0
 49
0
 74
    0
 49
-3.175
 74
    0
  0
LTYPE
  5
41
330
5
100
AcDbSymbolTableRecord
100
AcDbLinetypeTableRecord
  2
DIVIDEX2
 70
    0
  3
Divide (2x) ________  .  .  ________  .  .  _
 72
   65
 73
    6
 40
63.5
 49
25.4
 74
    0
 49
-12.7
 74
    0
 49
0
 74
    0
 49
-12.7
 74
    0
 49
0
 74
    0
 49
-12.7
 74
    0
  0
LTYPE
  5
42
330
5
100
AcDbSymbolTableRecord
100
AcDbLinetypeTableRecord
  2
BORDER
 70
    0
  3
Border __ __ . __ __ . __ __ . __ __ . __ __ .
 72
   65
 73
    6
 40
44.45
 49
12.7
 74
    0
 49
-6.35
 74
    0
 49
12.7
 74
    0
 49
-6.35
 74
    0
 49
0
 74
    0
 49
-6.35
 74
    0
  0
LTYPE
  5
43
330
5
100
AcDbSymbolTableRecord
100
AcDbLinetypeTableRecord
  2
BORDERTINY
 70
    0
  3
Border (.15x) __.__.__.__.__.__.__.__.__.__.__.
 72
   65
 73
    6
 40
6.6675
 49
1.905
 74
    0
 49
-0.9525
 74
    0
 49
1.905
 74
    0
 49
-0.9525
 74
    0
 49
0
 74
    0
 49
-0.9525
 74
    0
  0
LTYPE
  5
44
330
5
100
AcDbSymbolTableRecord
100
AcDbLinetypeTableRecord
  2
BORDER2
 70
    0
  3
Border (.5x) __.__.__.__.__.__.__.__.__.__.__.
 72
   65
 73
    6
 40
22.225
 49
6.35
 74
    0
 49
-3.175
 74
    0
 49
6.35
 74
    0
 49
-3.175
 74
    0
 49
0
 74
    0
 49
-3.175
 74
    0
  0
LTYPE
  5
45
330
5
100
AcDbSymbolTableRecord
100
AcDbLinetypeTableRecord
  2
BORDERX2
 70
    0
  3
Border (2x) ____  ____  .  ____  ____  .  ___
 72
   65
 73
    6
 40
88.89999999999999
 49
25.4
 74
    0
 49
-12.7
 74
    0
 49
25.4
 74
    0
 49
-12.7
 74
    0
 49
0
 74
    0
 49
-12.7
 74
    0
  0
LTYPE
  5
46
330
5
100
AcDbSymbolTableRecord
100
AcDbLinetypeTableRecord
  2
CENTER
 70
    0
  3
Center ____ _ ____ _ ____ _ ____ _ ____ _ ____
 72
   65
 73
    4
 40
50.8
 49
31.75
 74
    0
 49
-6.35
 74
    0
 49
6.35
 74
    0
 49
-6.35
 74
    0
  0
LTYPE
  5
47
330
5
100
AcDbSymbolTableRecord
100
AcDbLinetypeTableRecord
  2
CENTERTINY
 70
    0
  3
Center (.15x) ___ _ ___ _ ___ _ ___ _ ___ _ ___
 72
   65
 73
    4
 40
7.619999999999999
 49
4.7625
 74
    0
 49
-0.9525
 74
    0
 49
0.9525
 74
    0
 49
-0.9525
 74
    0
  0
LTYPE
  5
48
330
5
100
AcDbSymbolTableRecord
100
AcDbLinetypeTableRecord
  2
CENTER2
 70
    0
  3
Center (.5x) ___ _ ___ _ ___ _ ___ _ ___ _ ___
 72
   65
 73
    4
 40
28.575
 49
19.05
 74
    0
 49
-3.175
 74
    0
 49
3.175
 74
    0
 49
-3.175
 74
    0
  0
LTYPE
  5
49
330
5
100
AcDbSymbolTableRecord
100
AcDbLinetypeTableRecord
  2
CENTERX2
 70
    0
  3
Center (2x) ________  __  ________  __  _____
 72
   65
 73
    4
 40
101.6
 49
63.5
 74
    0
 49
-12.7
 74
    0
 49
12.7
 74
    0
 49
-12.7
 74
    0
  0
ENDTAB
  0
TABLE
  2
LAYER
  5
2
330
0
100
AcDbSymbolTable
 70
    1
  0
LAYER
  5
10
330
2
100
AcDbSymbolTableRecord
100
AcDbLayerTableRecord
  2
0
 70
    0
 62
    7
  6
CONTINUOUS
370
   -3
390
F
  0
ENDTAB
  0
TABLE
  2
STYLE
  5
3
330
0
100
AcDbSymbolTable
 70
    3
  0
STYLE
  5
4A
330
2
100
AcDbSymbolTableRecord
100
AcDbTextStyleTableRecord
  2
Standard
 70
    0
 40
0
 41
1
 50
0
 71
    0
 42
1
  3
txt
  4

  0
ENDTAB
  0
TABLE
  2
VIEW
  5
6
330
0
100
AcDbSymbolTable
 70
    0
  0
ENDTAB
  0
TABLE
  2
UCS
  5
7
330
0
100
AcDbSymbolTable
 70
    0
  0
ENDTAB
  0
TABLE
  2
APPID
  5
9
330
0
100
AcDbSymbolTable
 70
    1
  0
APPID
  5
12
330
9
100
AcDbSymbolTableRecord
100
AcDbRegAppTableRecord
  2
ACAD
 70
    0
  0
APPID
  5
4B
330
9
100
AcDbSymbolTableRecord
100
AcDbRegAppTableRecord
  2
LibreCad
 70
    0
  0
ENDTAB
  0
TABLE
  2
DIMSTYLE
  5
A
330
0
100
AcDbSymbolTable
 70
    1
100
AcDbDimStyleTable
 71
    1
  0
DIMSTYLE
105
4C
330
A
100
AcDbSymbolTableRecord
100
AcDbDimStyleTableRecord
  2
Standard
 70
    0
 40
2.5
 41
2.5
 42
0.625
 43
0.38
 44
1.25
 45
0
 46
0
 47
0
 48
0
 49
1
140
2.5
141
0.09
142
0
143
25.4
144
1
145
0
146
1
147
0.625
148
0
 71
    0
 72
    0
 73
    0
 74
    1
 75
    0
 76
    0
 77
    0
 78
    8
 79
    0
170
    0
171
    2
172
    0
173
    0
174
    0
175
    0
176
    0
177
    0
178
    0
179
    0
271
    2
272
    4
273
    2
274
    2
275
    0
276
    0
277
    2
278
   44
279
    0
280
    0
281
    0
282
    0
283
    1
284
    0
285
    0
286
    0
288
    0
289
    3
340
STANDARD
341

371
   -2
372
   -2
  0
ENDTAB
  0
TABLE
  2
BLOCK_RECORD
  5
1
330
0
100
AcDbSymbolTable
 70
    2
  0
BLOCK_RECORD
  5
1F
330
1
100
AcDbSymbolTableRecord
100
AcDbBlockTableRecord
  2
*Model_Space
 70
    0
280
    1
281
    0
  0
BLOCK_RECORD
  5
1E
330
1
100
AcDbSymbolTableRecord
100
AcDbBlockTableRecord
  2
*Paper_Space
 70
    0
280
    1
281
    0
  0
ENDTAB
  0
ENDSEC
  0
SECTION
  2
BLOCKS
  0
BLOCK
  5
20
330
1F
100
AcDbEntity
  8
0
100
AcDbBlockBegin
  2
*Model_Space
 70
    0
 10
0
 20
0
 30
0
  3
*Model_Space
  1

  0
ENDBLK
  5
21
330
1F
100
AcDbEntity
  8
0
100
AcDbBlockEnd
  0
BLOCK
  5
1C
330
1B
100
AcDbEntity
  8
0
100
AcDbBlockBegin
  2
*Paper_Space
 70
    0
 10
0
 20
0
 30
0
  3
*Paper_Space
  1

  0
ENDBLK
  5
1D
330
1F
100
AcDbEntity
  8
0
100
AcDbBlockEnd
  0
ENDSEC
  0
SECTION
  2
ENTITIES
  0
LWPOLYLINE
  5
4D
100
AcDbEntity
  8
0
  6
ByLayer
 62
  256
370
   -1
100
AcDbPolyline
 90
   16
 70
    1
 43
0
 10
34.22391578934148
 20
51.60956409024357
 42
-0.2679491924310022
 10
33.79090278934152
 20
51.85956409024351
 42
1.303223041600037
 10
33.10788878934156
 20
51.17655309024354
 42
-0.2679482664650177
 10
33.3578877893415
 20
50.74354109024353
 10
33.3578907893415
 20
46.27559109024355
 42
-0.2679491924310067
 10
33.1078907893415
 20
45.84257809024353
 42
1.303223041599952
 10
33.79090178934146
 20
45.15956409024358
 42
-0.2679482664650011
 10
34.22391378934148
 20
45.40956309024352
 10
35.79178178934151
 20
45.40956609024357
 42
-0.2679491924310027
 10
36.22479378934148
 20
45.15956609024352
 42
1.30322304159968
 10
36.9078077893415
 20
45.84257709024348
 42
-0.2679482664650279
 10
36.65780978934148
 20
46.27558909024356
 10
36.65780978934148
 20
50.74353909024353
 42
-0.2679491924309952
 10
36.90780978934154
 20
51.17655109024349
 42
1.303223041599721
 10
36.22479778934147
 20
51.85956509024351
 42
-0.2679482617889801
 10
35.7917857893415
 20
51.60956709024356
  0
LWPOLYLINE
  5
4E
100
AcDbEntity
  8
0
  6
ByLayer
 62
  256
370
   -1
100
AcDbPolyline
 90
   16
 70
    1
 43
0
 10
34.22391378934148
 20
24.20956309024354
 10
35.79178178934151
 20
24.20956609024353
 42
-0.267949192431006
 10
36.22479378934148
 20
23.95956609024353
 42
1.303223041600011
 10
36.90780778934149
 20
24.64257809024355
 42
-0.2679482617890144
 10
36.65780978934148
 20
25.07559009024351
 10
36.65780978934148
 20
29.54354009024354
 42
-0.2679491924309962
 10
36.90780978934148
 20
29.9765520902435
 42
1.30322304160004
 10
36.22479778934147
 20
30.65956609024352
 42
-0.267948261788977
 10
35.7917857893415
 20
30.40956809024357
 10
34.22391578934148
 20
30.40956509024358
 42
-0.2679491924310003
 10
33.79090278934152
 20
30.65956509024352
 42
1.303223041600047
 10
33.1078887893415
 20
29.97655309024356
 42
-0.2679482664649978
 10
33.3578877893415
 20
29.54354109024354
 10
33.35789078934143
 20
25.07559209024356
 42
-0.2679491924310067
 10
33.1078907893415
 20
24.64257809024355
 42
1.303223041600026
 10
33.79090178934146
 20
23.95956409024354
 42
-0.2679482664650011
  0
LWPOLYLINE
  5
4F
100
AcDbEntity
  8
0
  6
ByLayer
 62
  256
370
   -1
100
AcDbPolyline
 90
   16
 70
    1
 43
0
 10
286.1417877893415
 20
45.40956309024352
 10
284.5739207893416
 20
45.40956609024352
 42
0.2679491924310177
 10
284.1409067893416
 20
45.15956609024352
 42
-1.30322304159933
 10
283.4578927893415
 20
45.84257709024354
 42
0.2679482664650128
 10
283.7078917893415
 20
46.27558909024356
 10
283.7078917893415
 20
50.74353909024353
 42
0.2679491924310199
 10
283.4578917893415
 20
51.17655109024351
 42
-1.303223041599598
 10
284.1409037893417
 20
51.85956509024355
 42
0.2679482664650294
 10
284.5739157893415
 20
51.60956709024356
 10
286.1417857893415
 20
51.60956409024357
 42
0.267949192430977
 10
286.5747987893416
 20
51.85956409024345
 42
-1.303223041599924
 10
287.2578127893415
 20
51.1765530902434
 42
0.2679482664649779
 10
287.0078147893416
 20
50.74354109024358
 10
287.0078117893415
 20
46.27559109024355
 42
0.2679491924310192
 10
287.2578117893415
 20
45.84257809024356
 42
-1.303223041599824
 10
286.5747997893415
 20
45.15956409024354
 42
0.2679482664649913
  0
LWPOLYLINE
  5
50
100
AcDbEntity
  8
0
  6
ByLayer
 62
  256
370
   -1
100
AcDbPolyline
 90
   16
 70
    1
 43
0
 10
284.5739157893415
 20
30.40956809024351
 10
286.1417857893415
 20
30.40956509024358
 42
0.2679491924309565
 10
286.5747987893416
 20
30.65956509024358
 42
-1.303223041600012
 10
287.2578127893415
 20
29.97655309024336
 42
0.2679482664649674
 10
287.0078147893415
 20
29.54354109024354
 10
287.0078117893415
 20
25.07559209024356
 42
0.267949192431007
 10
287.2578117893415
 20
24.64257809024355
 42
-1.303223041600019
 10
286.5747997893417
 20
23.95956409024357
 42
0.2679482664650092
 10
286.1417877893415
 20
24.20956309024354
 10
284.5739207893416
 20
24.20956609024353
 42
0.2679491924309813
 10
284.1409067893418
 20
23.95956609024352
 42
-1.303223041599936
 10
283.4578927893415
 20
24.64257809024353
 42
0.2679482617889777
 10
283.7078917893415
 20
25.07559009024351
 10
283.7078917893415
 20
29.54354009024354
 42
0.2679491924310173
 10
283.4578917893415
 20
29.97655209024359
 42
-1.303223041599937
 10
284.1409037893416
 20
30.65956609024358
 42
0.267948266465008
  0
LWPOLYLINE
  5
51
100
AcDbEntity
  8
0
  6
ByLayer
 62
  256
370
   -1
100
AcDbPolyline
 90
   42
 70
    1
 43
0
 10
255.1853497893414
 20
12.52395009024355
 10
255.1853497893414
 20
18.02197309024354
 42
-0.4142135623730284
 10
255.6853497893414
 20
18.52197309024354
 10
290.3578527893415
 20
18.52197009024355
 42
0.4142135623730014
 10
295.3578527893416
 20
23.52197009024355
 10
295.3578507893416
 20
57.90956509024352
 42
0.4142137003959991
 10
290.3578507893415
 20
62.90956509024352
 10
271.0926207893416
 20
62.90956509024352
 42
0.3278856907169944
 10
270.1383057893415
 20
62.20836709024356
 10
268.5774007893415
 20
57.2231520902435
 42
-0.3278856907170137
 10
267.6230857893415
 20
56.52195509024352
 10
267.6173957893416
 20
56.52196709024349
 10
52.74261678934144
 20
56.52195509024364
 42
-0.3278856907159993
 10
51.78830178934149
 20
57.2231520902435
 10
50.2273967893415
 20
62.20836709024354
 42
0.3278856907159976
 10
49.27308178934149
 20
62.90956509024352
 10
30.00785078934152
 20
62.90956509024352
 42
0.4142137003959996
 10
25.00784878934152
 20
57.90956509024352
 10
25.00784878934147
 20
23.52197009024355
 42
0.4142135623729962
 10
30.00784878934152
 20
18.52197009024355
 10
35.00784878934152
 20
18.52197009024355
 10
64.68035278934153
 20
18.52197009024355
 42
-0.4142135623729951
 10
65.18035278934147
 20
18.02197009024355
 10
65.18035278934147
 20
12.52395009024355
 42
0.4142135623730034
 10
67.18035278934147
 20
10.52395009024355
 10
71.49650578934146
 20
10.52395009024355
 42
0.6015939385919802
 10
71.91042078934154
 20
11.30443909024354
 42
-1.885623985129991
 10
78.45028478934151
 20
11.30443909024354
 42
0.6015939385919798
 10
78.86420078934148
 20
10.52395009024355
 10
83.18035278934147
 20
10.52395009024349
 42
0.4142135623730037
 10
85.18035278934147
 20
12.52395009024355
 10
85.18035278934147
 20
18.02197309024359
 42
-0.4142135623729993
 10
85.68035278934147
 20
18.52197309024354
 10
234.6853497893415
 20
18.52197009024355
 42
-0.4142135623730284
 10
235.1853497893414
 20
18.02197009024355
 10
235.1853497893414
 20
12.52395009024355
 42
0.4142135623729962
 10
237.1853497893414
 20
10.52395009024355
 10
241.5015027893414
 20
10.52395009024355
 42
0.6015939385920074
 10
241.9154177893413
 20
11.30443909024354
 42
-1.885623985129958
 10
248.4552817893415
 20
11.30443909024343
 42
0.6015939385919289
 10
248.8691977893414
 20
10.52395009024349
 10
253.1853497893415
 20
10.52395009024355
 42
0.4142135623729951
  0
CIRCLE
  5
52
100
AcDbEntity
  8
0
  6
ByLayer
 62
  256
370
   -1
100
AcDbCircle
 10
125.1828507893415
 20
27.90956509024358
 40
1.6
  0
CIRCLE
  5
53
100
AcDbEntity
  8
0
  6
ByLayer
 62
  256
370
   -1
100
AcDbCircle
 10
285.3578527893415
 20
37.90956509024358
 40
1.6
  0
CIRCLE
  5
54
100
AcDbEntity
  8
0
  6
ByLayer
 62
  256
370
   -1
100
AcDbCircle
 10
195.1828507893415
 20
47.90956509024352
 40
1.6
  0
CIRCLE
  5
55
100
AcDbEntity
  8
0
  6
ByLayer
 62
  256
370
   -1
100
AcDbCircle
 10
195.1828507893415
 20
27.90956509024358
 40
1.6
  0
CIRCLE
  5
56
100
AcDbEntity
  8
0
  6
ByLayer
 62
  256
370
   -1
100
AcDbCircle
 10
125.1828507893415
 20
47.90956509024352
 40
1.6
  0
CIRCLE
  5
57
100
AcDbEntity
  8
0
  6
ByLayer
 62
  256
370
   -1
100
AcDbCircle
 10
35.00784878934152
 20
37.90956509024358
 40
1.6
  0
CIRCLE
  5
58
100
AcDbEntity
  8
0
  6
ByLayer
 62
  256
370
   -1
100
AcDbCircle
 10
70.18067178934152
 20
22.24587809024354
 40
1.6
  0
CIRCLE
  5
59
100
AcDbEntity
  8
0
  6
ByLayer
 62
  256
370
   -1
100
AcDbCircle
 10
80.18067178934152
 20
22.24587809024354
 40
1.6
  0
CIRCLE
  5
5A
100
AcDbEntity
  8
0
  6
ByLayer
 62
  256
370
   -1
100
AcDbCircle
 10
240.1856557893416
 20
22.24587809024354
 40
1.6
  0
CIRCLE
  5
5B
100
AcDbEntity
  8
0
  6
ByLayer
 62
  256
370
   -1
100
AcDbCircle
 10
250.1856557893416
 20
22.24587809024354
 40
1.6
  0
LWPOLYLINE
  5
5C
100
AcDbEntity
  8
0
  6
ByLayer
 62
  256
370
   -1
100
AcDbPolyline
 90
   16
 70
    1
 43
0
 10
153.0989117893415
 20
51.22196509024354
 10
154.6667817893415
 20
51.22196209024355
 42
0.2679491924310041
 10
155.0997947893415
 20
51.47196209024354
 42
-1.303223029819985
 10
155.7828087893415
 20
50.78895109024352
 42
0.2679482664649822
 10
155.5328107893415
 20
50.35593909024357
 10
155.5328077893415
 20
45.88798909024354
 42
0.2679491924309987
 10
155.7828077893415
 20
45.45497609024351
 42
-1.303223041599995
 10
155.0997957893415
 20
44.77196209024357
 42
0.2679482664650087
 10
154.6667837893415
 20
45.0219610902435
 10
153.0989167893415
 20
45.02196409024356
 42
0.2679491924310058
 10
152.6659027893415
 20
44.77196409024349
 42
-1.303223041599888
 10
151.9828887893415
 20
45.45497509024356
 42
0.2679482664649714
 10
152.2328877893414
 20
45.88798709024354
 10
152.2328877893415
 20
50.35593709024351
 42
0.2679491924309935
 10
151.9828877893414
 20
50.78894909024353
 42
-1.303223041599969
 10
152.6658997893415
 20
51.47196309024356
 42
0.2679482664649938
  0
LWPOLYLINE
  5
5D
100
AcDbEntity
  8
0
  6
ByLayer
 62
  256
370
   -1
100
AcDbPolyline
 90
   16
 70
    1
 43
0
 10
152.6659027893415
 20
23.57196409024351
 42
-1.30322304159984
 10
151.9828887893415
 20
24.25497609024359
 42
0.2679482664649666
 10
152.2328877893414
 20
24.68798809024355
 10
152.2328877893415
 20
29.15593809024353
 42
0.2679491924310142
 10
151.9828877893414
 20
29.58895009024358
 42
-1.303223041599958
 10
152.6658997893415
 20
30.27196409024352
 42
0.2679482664649
 10
153.0989117893415
 20
30.02196609024356
 10
154.6667817893415
 20
30.02196309024351
 42
0.267949192431002
 10
155.0997947893415
 20
30.27196309024356
 42
-1.303223041599868
 10
155.7828087893415
 20
29.58895109024354
 42
0.2679482664650104
 10
155.5328107893415
 20
29.15593909024358
 10
155.5328077893415
 20
24.68799009024355
 42
0.2679491924310146
 10
155.7828077893415
 20
24.25497609024351
 42
-1.303223041599708
 10
155.0997957893415
 20
23.57196209024358
 42
0.2679482664650136
 10
154.6667837893415
 20
23.82196109024352
 10
153.0989167893415
 20
23.82196409024357
 42
0.267949192431001
  0
CIRCLE
  5
5E
100
AcDbEntity
  8
0
  6
ByLayer
 62
  256
370
   -1
100
AcDbCircle
 10
153.8828497893415
 20
37.5219630902435
 40
1.6
  0
LWPOLYLINE
  5
5F
100
AcDbEntity
  8
0
  6
ByLayer
 62
  256
370
   -1
100
AcDbPolyline
 90
   16
 70
    1
 43
0
 10
168.1328107893415
 20
50.35593909024357
 10
168.1328077893415
 20
45.88798909024354
 42
0.2679491924309969
 10
168.3828077893415
 20
45.45497609024358
 42
-1.303223041599988
 10
167.6997957893415
 20
44.77196209024351
 42
0.2679482664649891
 10
167.2667837893415
 20
45.02196109024351
 10
165.6989167893415
 20
45.0219640902435
 42
0.2679491924310101
 10
165.2659027893415
 20
44.77196409024351
 42
-1.30322304160006
 10
164.5828887893415
 20
45.45497509024352
 42
0.2679482664649956
 10
164.8328877893415
 20
45.88798709024354
 10
164.8328877893415
 20
50.35593709024351
 42
0.2679491924310087
 10
164.5828877893415
 20
50.78894909024353
 42
-1.303223041600053
 10
165.2658997893415
 20
51.47196309024354
 42
0.267948266464998
 10
165.6989117893415
 20
51.22196509024355
 10
167.2667817893415
 20
51.22196209024355
 42
0.2679491924309931
 10
167.6997947893415
 20
51.47196209024355
 42
-1.303223029819988
 10
168.3828087893415
 20
50.78895109024353
 42
0.2679482664650009
  0
LWPOLYLINE
  5
60
100
AcDbEntity
  8
0
  6
ByLayer
 62
  256
370
   -1
100
AcDbPolyline
 90
   16
 70
    1
 43
0
 10
165.2658997893415
 20
30.27196409024356
 42
0.2679482664649547
 10
165.6989117893415
 20
30.02196609024356
 10
167.2667817893415
 20
30.02196309024356
 42
0.2679491924309931
 10
167.6997947893415
 20
30.27196309024356
 42
-1.303223041599598
 10
168.3828087893415
 20
29.58895109024355
 42
0.2679482664650037
 10
168.1328107893415
 20
29.15593909024358
 10
168.1328077893415
 20
24.68799009024355
 42
0.2679491924310108
 10
168.3828077893415
 20
24.25497609024353
 42
-1.303223041599607
 10
167.6997957893415
 20
23.57196209024352
 42
0.2679482664649874
 10
167.2667837893415
 20
23.82196109024352
 10
165.6989167893415
 20
23.82196409024352
 42
0.2679491924310193
 10
165.2659027893415
 20
23.57196409024355
 42
-1.303223041599629
 10
164.5828887893415
 20
24.25497609024354
 42
0.2679482664649928
 10
164.8328877893415
 20
24.68798809024355
 10
164.8328877893415
 20
29.15593809024353
 42
0.2679491924310097
 10
164.5828877893415
 20
29.58895009024355
 42
-1.303223041599644
  0
CIRCLE
  5
61
100
AcDbEntity
  8
0
  6
ByLayer
 62
  256
370
   -1
100
AcDbCircle
 10
166.4828497893415
 20
37.5219630902435
 40
1.6
  0
LWPOLYLINE
  5
62
100
AcDbEntity
  8
0
  6
ByLayer
 62
  256
370
   -1
100
AcDbPolyline
 90
   16
 70
    1
 43
0
 10
215.2906397893431
 20
36.00960659074978
 42
0.267948266465008
 10
214.8576277893428
 20
36.25960559074981
 10
210.3896777893428
 20
36.25960859074979
 42
0.2679491924309844
 10
209.9566657893428
 20
36.00960859074976
 42
-1.303223041600254
 10
209.2736517893429
 20
36.69262059074975
 42
0.2679482664649595
 10
209.5236497893428
 20
37.12563259074977
 10
209.5236527893429
 20
38.69349959074975
 42
0.2679491924310013
 10
209.2736527893429
 20
39.12651159074978
 42
-1.30322304159998
 10
209.9566637893429
 20
39.80952559074979
 42
0.2679482664649785
 10
210.3896757893428
 20
39.55952759074977
 10
214.8576257893428
 20
39.55952759074978
 42
0.2679491924309511
 10
215.2906387893429
 20
39.80952759074979
 42
-1.303223041600005
 10
215.9736527893429
 20
39.12651659074981
 42
0.267948266464994
 10
215.7236537893428
 20
38.6935045907498
 10
215.7236507893429
 20
37.12563359074977
 42
0.2679491924309969
 10
215.9736507893429
 20
36.69262059074973
 42
-1.303223041600157
  0
CIRCLE
  5
63
100
AcDbEntity
  8
0
  6
ByLayer
 62
  256
370
   -1
100
AcDbCircle
 10
223.2236517893429
 20
37.90956659074983
 40
1.6
  0
LWPOLYLINE
  5
64
100
AcDbEntity
  8
0
  6
ByLayer
 62
  256
370
   -1
100
AcDbPolyline
 90
   16
 70
    1
 43
0
 10
237.1736507893428
 20
36.69262059074977
 42
-1.303223041600285
 10
236.4906387893431
 20
36.00960659074979
 42
0.2679482664650654
 10
236.0576267893427
 20
36.25960559074981
 10
231.5896767893429
 20
36.25960859074986
 42
0.2679491924310258
 10
231.1566647893432
 20
36.00960859074974
 42
-1.303223041599822
 10
230.4736507893429
 20
36.69262059074975
 42
0.2679482664649823
 10
230.7236487893429
 20
37.12563259074977
 10
230.7236517893429
 20
38.69349959074975
 42
0.2679491924309747
 10
230.4736517893429
 20
39.12651159074977
 42
-1.303223041599773
 10
231.1566637893428
 20
39.80952559074979
 42
0.2679482664649776
 10
231.5896757893431
 20
39.55952759074977
 10
236.0576247893428
 20
39.55952759074978
 42
0.2679491924310382
 10
236.4906387893429
 20
39.80952759074973
 42
-1.303223041600067
 10
237.1736527893426
 20
39.12651659074981
 42
0.2679482664649944
 10
236.9236537893429
 20
38.69350449507868
 10
236.9236507893428
 20
37.12563359074977
 42
0.2679491924309987
  0
LWPOLYLINE
  5
65
100
AcDbEntity
  8
0
  6
ByLayer
 62
  256
370
   -1
100
AcDbPolyline
 90
   16
 70
    1
 43
0
 10
89.20903678934016
 20
36.00960458973363
 42
0.2679482664650825
 10
88.7760247893402
 20
36.25960258973364
 10
84.30807478934017
 20
36.25960558973362
 42
0.2679491924309951
 10
83.87506278934015
 20
36.00960558973362
 42
-1.303223041600014
 10
83.19204878934013
 20
36.69261758973364
 42
0.2679482664649923
 10
83.4420467893402
 20
37.12562958973361
 10
83.44204978934019
 20
38.69349658973358
 42
0.2679491924310022
 10
83.19204978934019
 20
39.1265085897336
 42
-1.303223041599923
 10
83.87506078934021
 20
39.80952358973362
 42
0.267948266464998
 10
84.30807278934017
 20
39.55952458973361
 10
88.77602278934015
 20
39.55952458973361
 42
0.2679491924310031
 10
89.20903578934016
 20
39.80952458973356
 42
-1.303223041600167
 10
89.89204978934018
 20
39.12651358973365
 42
0.2679482664649978
 10
89.64205078934017
 20
38.69350158973363
 10
89.64204778934018
 20
37.1256305897336
 42
0.267949192430992
 10
89.89204778934013
 20
36.69261858973358
 42
-1.303223041600054
  0
LWPOLYLINE
  5
66
100
AcDbEntity
  8
0
  6
ByLayer
 62
  256
370
   -1
100
AcDbPolyline
 90
   16
 70
    1
 43
0
 10
104.6420487893402
 20
38.69349658973358
 42
0.2679491924310022
 10
104.3920487893402
 20
39.1265085897336
 42
-1.303223041599859
 10
105.0750607893402
 20
39.80952358973362
 42
0.2679482664649895
 10
105.5080727893402
 20
39.55952458973361
 10
109.9760217893402
 20
39.55952458973361
 42
0.2679491924310036
 10
110.4090357893402
 20
39.80952458973362
 42
-1.30322304160007
 10
111.0920497893402
 20
39.12651358973365
 42
0.2679482664650129
 10
110.8420507893402
 20
38.69350158973363
 10
110.8420477893402
 20
37.1256305897336
 42
0.2679491924309934
 10
111.0920477893402
 20
36.69261858973365
 42
-1.303223041600049
 10
110.4090357893402
 20
36.00960458973361
 42
0.2679482664650797
 10
109.9760237893402
 20
36.25960258973357
 10
105.5080737893402
 20
36.25960558973363
 42
0.2679491924309967
 10
105.0750617893402
 20
36.00960558973362
 42
-1.303223041599992
 10
104.3920477893402
 20
36.69261758973364
 42
0.2679482664649809
 10
104.6420457893402
 20
37.12562958973361
  0
CIRCLE
  5
67
100
AcDbEntity
  8
0
  6
ByLayer
 62
  256
370
   -1
100
AcDbCircle
 10
97.14204878934012
 20
37.90956358973366
 40
1.6
  0
ENDSEC
  0
SECTION
  2
OBJECTS
  0
DICTIONARY
  5
C
330
0
100
AcDbDictionary
281
    1
  3
ACAD_GROUP
350
D
  0
DICTIONARY
  5
D
330
C
100
AcDbDictionary
281
    1
  0
ENDSEC
  0
EOF
