999
dxfrw 0.6.3
  0
SECTION
  2
HEADER
  9
$ACADVER
  1
AC1021
  9
$DWGCODEPAGE
  3
ANSI_1252
  9
$INSBASE
 10
0
 20
0
 30
0
  9
$EXTMIN
 10
-235.3421593815536
 20
10.52395009024343
 30
0
  9
$EXTMAX
 10
314.8192841216082
 20
115.2951800902436
 30
0
  9
$LIMMIN
 10
0
 20
0
  9
$LIMMAX
 10
420
 20
297
  9
$ORTHOMODE
 70
    0
  9
$REGENMODE
 70
    1
  9
$FILLMODE
 70
    1
  9
$QTEXTMODE
 70
    0
  9
$MIRRTEXT
 70
    0
  9
$LTSCALE
 40
1
  9
$ATTMODE
 70
    0
  9
$TEXTSIZE
 40
2.5
  9
$TRACEWID
 40
15.68
  9
$TEXTSTYLE
  7
STANDARD
  9
$CLAYER
  8
0
  9
$CELTYPE
  6
BYLAYER
  9
$CECOLOR
 62
  256
  9
$CELTSCALE
 40
1
  9
$DISPSILH
 70
    0
  9
$DIMSCALE
 40
2.5
  9
$DIMASZ
 40
2.5
  9
$DIMEXO
 40
0.625
  9
$DIMDLI
 40
3.75
  9
$DIMRND
 40
0
  9
$DIMDLE
 40
0
  9
$DIMEXE
 40
1.25
  9
$DIMTP
 40
0
  9
$DIMTM
 40
0
  9
$DIMTXT
 40
2.5
  9
$DIMCEN
 40
2.5
  9
$DIMTSZ
 40
0
  9
$DIMTOL
 70
    0
  9
$DIMLIM
 70
    0
  9
$DIMTIH
 70
    0
  9
$DIMTOH
 70
    0
  9
$DIMSE1
 70
    0
  9
$DIMSE2
 70
    0
  9
$DIMTAD
 70
    1
  9
$DIMZIN
 70
    8
  9
$DIMBLK
  1

  9
$DIMASO
 70
    1
  9
$DIMSHO
 70
    1
  9
$DIMPOST
  1

  9
$DIMAPOST
  1

  9
$DIMALT
 70
    0
  9
$DIMALTD
 70
    3
  9
$DIMALTF
 40
0.03937
  9
$DIMLFAC
 40
1
  9
$DIMTOFL
 70
    1
  9
$DIMTVP
 40
0
  9
$DIMTIX
 70
    0
  9
$DIMSOXD
 70
    0
  9
$DIMSAH
 70
    0
  9
$DIMBLK1
  1

  9
$DIMBLK2
  1

  9
$DIMSTYLE
  2
STANDARD
  9
$DIMCLRD
 70
    0
  9
$DIMCLRE
 70
    0
  9
$DIMCLRT
 70
    0
  9
$DIMTFAC
 40
1
  9
$DIMGAP
 40
0.625
  9
$DIMJUST
 70
    0
  9
$DIMSD1
 70
    0
  9
$DIMSD2
 70
    0
  9
$DIMTOLJ
 70
    0
  9
$DIMTZIN
 70
    8
  9
$DIMALTZ
 70
    0
  9
$DIMALTTZ
 70
    0
  9
$DIMUPT
 70
    0
  9
$DIMDEC
 70
    2
  9
$DIMTDEC
 70
    2
  9
$DIMALTU
 70
    2
  9
$DIMALTTD
 70
    3
  9
$DIMTXSTY
  7
STANDARD
  9
$DIMAUNIT
 70
    0
  9
$DIMADEC
 70
    0
  9
$DIMALTRND
 40
0
  9
$DIMAZIN
 70
    0
  9
$DIMDSEP
 70
   44
  9
$DIMATFIT
 70
    3
  9
$DIMFRAC
 70
    0
  9
$DIMLDRBLK
  1
STANDARD
  9
$DIMLUNIT
 70
    2
  9
$DIMLWD
 70
   -2
  9
$DIMLWE
 70
   -2
  9
$DIMTMOVE
 70
    0
  9
$DIMFXL
 40
1
  9
$DIMFXLON
 70
    0
  9
$DIMJOGANG
 40
0.7854
  9
$DIMTFILL
 70
    0
  9
$DIMTFILLCLR
 70
    0
  9
$DIMARCSYM
 70
    0
  9
$DIMLTYPE
  6

  9
$DIMLTEX1
  6

  9
$DIMLTEX2
  6

  9
$LUNITS
 70
    2
  9
$LUPREC
 70
    4
  9
$SKETCHINC
 40
1
  9
$FILLETRAD
 40
0
  9
$AUNITS
 70
    0
  9
$AUPREC
 70
    2
  9
$MENU
  1
.
  9
$ELEVATION
 40
0
  9
$PELEVATION
 40
0
  9
$THICKNESS
 40
0
  9
$LIMCHECK
 70
    0
  9
$CHAMFERA
 40
0
  9
$CHAMFERB
 40
0
  9
$CHAMFERC
 40
0
  9
$CHAMFERD
 40
0
  9
$SKPOLY
 70
    0
  9
$USRTIMER
 70
    1
  9
$ANGBASE
 50
0
  9
$ANGDIR
 70
    0
  9
$PDMODE
 70
   34
  9
$PDSIZE
 40
0
  9
$PLINEWID
 40
0
  9
$SPLFRAME
 70
    0
  9
$SPLINETYPE
 70
    2
  9
$SPLINESEGS
 70
    8
  9
$HANDSEED
  5
20000
  9
$SURFTAB1
 70
    6
  9
$SURFTAB2
 70
    6
  9
$SURFTYPE
 70
    6
  9
$SURFU
 70
    6
  9
$SURFV
 70
    6
  9
$UCSBASE
  2

  9
$UCSNAME
  2

  9
$UCSORG
 10
0
 20
0
 30
0
  9
$UCSXDIR
 10
1
 20
0
 30
0
  9
$UCSYDIR
 10
0
 20
1
 30
0
  9
$UCSORTHOREF
  2

  9
$UCSORTHOVIEW
 70
    0
  9
$UCSORGTOP
 10
0
 20
0
 30
0
  9
$UCSORGBOTTOM
 10
0
 20
0
 30
0
  9
$UCSORGLEFT
 10
0
 20
0
 30
0
  9
$UCSORGRIGHT
 10
0
 20
0
 30
0
  9
$UCSORGFRONT
 10
0
 20
0
 30
0
  9
$UCSORGBACK
 10
0
 20
0
 30
0
  9
$PUCSBASE
  2

  9
$PUCSNAME
  2

  9
$PUCSORG
 10
0
 20
0
 30
0
  9
$PUCSXDIR
 10
1
 20
0
 30
0
  9
$PUCSYDIR
 10
0
 20
1
 30
0
  9
$PUCSORTHOREF
  2

  9
$PUCSORTHOVIEW
 70
    0
  9
$PUCSORGTOP
 10
0
 20
0
 30
0
  9
$PUCSORGBOTTOM
 10
0
 20
0
 30
0
  9
$PUCSORGLEFT
 10
0
 20
0
 30
0
  9
$PUCSORGRIGHT
 10
0
 20
0
 30
0
  9
$PUCSORGFRONT
 10
0
 20
0
 30
0
  9
$PUCSORGBACK
 10
0
 20
0
 30
0
  9
$USERI1
 70
    0
  9
$USERI2
 70
    0
  9
$USERI3
 70
    0
  9
$USERI4
 70
    0
  9
$USERI5
 70
    0
  9
$USERR1
 40
0
  9
$USERR2
 40
0
  9
$USERR3
 40
0
  9
$USERR4
 40
0
  9
$USERR5
 40
0
  9
$WORLDVIEW
 70
    1
  9
$SHADEDGE
 70
    3
  9
$SHADEDIF
 70
   70
  9
$TILEMODE
 70
    1
  9
$MAXACTVP
 70
   64
  9
$PINSBASE
 10
0
 20
0
 30
0
  9
$PLIMCHECK
 70
    0
  9
$PEXTMIN
 10
0
 20
0
 30
0
  9
$PEXTMAX
 10
0
 20
0
 30
0
  9
$GRIDMODE
 70
    1
  9
$SNAPSTYLE
 70
    0
  9
$PLIMMIN
 10
0
 20
0
  9
$PLIMMAX
 10
420
 20
297
  9
$UNITMODE
 70
    0
  9
$VISRETAIN
 70
    1
  9
$PLINEGEN
 70
    0
  9
$PSLTSCALE
 70
    1
  9
$TREEDEPTH
 70
 3020
  9
$CMLSTYLE
  2
Standard
  9
$CMLJUST
 70
    0
  9
$CMLSCALE
 40
20
  9
$PROXYGRAPHICS
 70
    1
  9
$MEASUREMENT
 70
    1
  9
$CELWEIGHT
370
   -1
  9
$ENDCAPS
280
    0
  9
$JOINSTYLE
280
    0
  9
$LWDISPLAY
290
    0
  9
$INSUNITS
 70
    0
  9
$HYPERLINKBASE
  1

  9
$STYLESHEET
  1

  9
$XEDIT
290
    1
  9
$CEPSNTYPE
380
    0
  9
$PSTYLEMODE
290
    1
  9
$EXTNAMES
290
    1
  9
$PSVPSCALE
 40
1
  9
$OLESTARTUP
290
    0
  9
$SORTENTS
280
  127
  9
$INDEXCTL
280
    0
  9
$HIDETEXT
280
    1
  9
$XCLIPFRAME
290
    0
  9
$HALOGAP
280
    0
  9
$OBSCOLOR
 70
  257
  9
$OBSLTYPE
280
    0
  9
$INTERSECTIONDISPLAY
280
    0
  9
$INTERSECTIONCOLOR
 70
  257
  9
$DIMASSOC
280
    1
  9
$PROJECTNAME
  1

  9
$CAMERADISPLAY
290
    0
  9
$LENSLENGTH
 40
50
  9
$CAMERAHEIGHT
 40
0
  9
$STEPSPERSEC
 40
2
  9
$STEPSIZE
 40
50
  9
$3DDWFPREC
 40
2
  9
$PSOLWIDTH
 40
5
  9
$PSOLHEIGHT
 40
80
  9
$LOFTANG1
 40
1.570796326794897
  9
$LOFTANG2
 40
1.570796326794897
  9
$LOFTMAG1
 40
0
  9
$LOFTMAG2
 40
0
  9
$LOFTPARAM
 70
    7
  9
$LOFTNORMALS
280
    1
  9
$LATITUDE
 40
1
  9
$LONGITUDE
 40
1
  9
$NORTHDIRECTION
 40
0
  9
$TIMEZONE
 70
-8000
  9
$LIGHTGLYPHDISPLAY
280
    1
  9
$TILEMODELIGHTSYNCH
280
    1
  9
$SOLIDHIST
280
    1
  9
$SHOWHIST
280
    1
  9
$DWFFRAME
280
    2
  9
$DGNFRAME
280
    0
  9
$REALWORLDSCALE
290
    1
  9
$INTERFERECOLOR
 62
    1
  9
$CSHADOW
280
    0
  9
$SHADOWPLANELOCATION
 40
0
  0
ENDSEC
  0
SECTION
  2
CLASSES
  0
ENDSEC
  0
SECTION
  2
TABLES
  0
TABLE
  2
VPORT
  5
8
330
0
100
AcDbSymbolTable
 70
    1
  0
VPORT
  5
31
330
2
100
AcDbSymbolTableRecord
100
AcDbViewportTableRecord
  2
*ACTIVE
 70
    0
 10
0
 20
0
 11
1
 21
1
 12
481.9687866100298
 22
277.8861312944646
 13
0
 23
0
 14
10
 24
10
 15
10
 25
10
 16
0
 26
0
 36
1
 17
0
 27
0
 37
0
 40
917.7301795637053
 41
1.853146853146853
 42
50
 43
0
 44
0
 50
0
 51
0
 71
    0
 72
  100
 73
    1
 74
    3
 75
    0
 76
    1
 77
    0
 78
    0
281
    0
 65
    1
110
0
120
0
130
0
111
1
121
0
131
0
112
0
122
1
132
0
 79
    0
146
0
348
10020
 60
    7
 61
    5
292
1
282
    1
141
0
142
0
 63
  250
421
3358443
  0
ENDTAB
  0
TABLE
  2
LTYPE
  5
5
330
0
100
AcDbSymbolTable
 70
    4
  0
LTYPE
  5
14
330
5
100
AcDbSymbolTableRecord
100
AcDbLinetypeTableRecord
  2
ByBlock
 70
    0
  3

 72
   65
 73
    0
 40
0
  0
LTYPE
  5
15
330
5
100
AcDbSymbolTableRecord
100
AcDbLinetypeTableRecord
  2
ByLayer
 70
    0
  3

 72
   65
 73
    0
 40
0
  0
LTYPE
  5
16
330
5
100
AcDbSymbolTableRecord
100
AcDbLinetypeTableRecord
  2
Continuous
 70
    0
  3
Solid line
 72
   65
 73
    0
 40
0
  0
LTYPE
  5
32
330
5
100
AcDbSymbolTableRecord
100
AcDbLinetypeTableRecord
  2
DOT
 70
    0
  3
Dot . . . . . . . . . . . . . . . . . . . . . .
 72
   65
 73
    2
 40
6.35
 49
0
 74
    0
 49
-6.35
 74
    0
  0
LTYPE
  5
33
330
5
100
AcDbSymbolTableRecord
100
AcDbLinetypeTableRecord
  2
DOTTINY
 70
    0
  3
Dot (.15x) .....................................
 72
   65
 73
    2
 40
0.9525
 49
0
 74
    0
 49
-0.9525
 74
    0
  0
LTYPE
  5
34
330
5
100
AcDbSymbolTableRecord
100
AcDbLinetypeTableRecord
  2
DOT2
 70
    0
  3
Dot (.5x) .....................................
 72
   65
 73
    2
 40
3.175
 49
0
 74
    0
 49
-3.175
 74
    0
  0
LTYPE
  5
35
330
5
100
AcDbSymbolTableRecord
100
AcDbLinetypeTableRecord
  2
DOTX2
 70
    0
  3
Dot (2x) .  .  .  .  .  .  .  .  .  .  .  .  .
 72
   65
 73
    2
 40
12.7
 49
0
 74
    0
 49
-12.7
 74
    0
  0
LTYPE
  5
36
330
5
100
AcDbSymbolTableRecord
100
AcDbLinetypeTableRecord
  2
DASHED
 70
    0
  3
Dashed _ _ _ _ _ _ _ _ _ _ _ _ _ _ _ _ _
 72
   65
 73
    2
 40
19.05
 49
12.7
 74
    0
 49
-6.35
 74
    0
  0
LTYPE
  5
37
330
5
100
AcDbSymbolTableRecord
100
AcDbLinetypeTableRecord
  2
DASHEDTINY
 70
    0
  3
Dashed (.15x) _ _ _ _ _ _ _ _ _ _ _ _ _ _ _ _ _
 72
   65
 73
    2
 40
2.8575
 49
1.905
 74
    0
 49
-0.9525
 74
    0
  0
LTYPE
  5
38
330
5
100
AcDbSymbolTableRecord
100
AcDbLinetypeTableRecord
  2
DASHED2
 70
    0
  3
Dashed (.5x) _ _ _ _ _ _ _ _ _ _ _ _ _ _ _ _ _
 72
   65
 73
    2
 40
9.524999999999999
 49
6.35
 74
    0
 49
-3.175
 74
    0
  0
LTYPE
  5
39
330
5
100
AcDbSymbolTableRecord
100
AcDbLinetypeTableRecord
  2
DASHEDX2
 70
    0
  3
Dashed (2x) ____  ____  ____  ____  ____  ___
 72
   65
 73
    2
 40
38.09999999999999
 49
25.4
 74
    0
 49
-12.7
 74
    0
  0
LTYPE
  5
3A
330
5
100
AcDbSymbolTableRecord
100
AcDbLinetypeTableRecord
  2
DASHDOT
 70
    0
  3
Dash dot __ . __ . __ . __ . __ . __ . __ . __
 72
   65
 73
    4
 40
25.4
 49
12.7
 74
    0
 49
-6.35
 74
    0
 49
0
 74
    0
 49
-6.35
 74
    0
  0
LTYPE
  5
3B
330
5
100
AcDbSymbolTableRecord
100
AcDbLinetypeTableRecord
  2
DASHDOTTINY
 70
    0
  3
Dash dot (.15x) _._._._._._._._._._._._._._._.
 72
   65
 73
    4
 40
3.81
 49
1.905
 74
    0
 49
-0.9525
 74
    0
 49
0
 74
    0
 49
-0.9525
 74
    0
  0
LTYPE
  5
3C
330
5
100
AcDbSymbolTableRecord
100
AcDbLinetypeTableRecord
  2
DASHDOT2
 70
    0
  3
Dash dot (.5x) _._._._._._._._._._._._._._._.
 72
   65
 73
    4
 40
12.7
 49
6.35
 74
    0
 49
-3.175
 74
    0
 49
0
 74
    0
 49
-3.175
 74
    0
  0
LTYPE
  5
3D
330
5
100
AcDbSymbolTableRecord
100
AcDbLinetypeTableRecord
  2
DASHDOTX2
 70
    0
  3
Dash dot (2x) ____  .  ____  .  ____  .  ___
 72
   65
 73
    4
 40
50.8
 49
25.4
 74
    0
 49
-12.7
 74
    0
 49
0
 74
    0
 49
-12.7
 74
    0
  0
LTYPE
  5
3E
330
5
100
AcDbSymbolTableRecord
100
AcDbLinetypeTableRecord
  2
DIVIDE
 70
    0
  3
Divide ____ . . ____ . . ____ . . ____ . . ____
 72
   65
 73
    6
 40
31.75
 49
12.7
 74
    0
 49
-6.35
 74
    0
 49
0
 74
    0
 49
-6.35
 74
    0
 49
0
 74
    0
 49
-6.35
 74
    0
  0
LTYPE
  5
3F
330
5
100
AcDbSymbolTableRecord
100
AcDbLinetypeTableRecord
  2
DIVIDETINY
 70
    0
  3
Divide (.15x) __..__..__..__..__..__..__..__.._
 72
   65
 73
    6
 40
4.7625
 49
1.905
 74
    0
 49
-0.9525
 74
    0
 49
0
 74
    0
 49
-0.9525
 74
    0
 49
0
 74
    0
 49
-0.9525
 74
    0
  0
LTYPE
  5
40
330
5
100
AcDbSymbolTableRecord
100
AcDbLinetypeTableRecord
  2
DIVIDE2
 70
    0
  3
Divide (.5x) __..__..__..__..__..__..__..__.._
 72
   65
 73
    6
 40
15.875
 49
6.35
 74
    0
 49
-3.175
 74
    0
 49
0
 74
    0
 49
-3.175
 74
    0
 49
0
 74
    0
 49
-3.175
 74
    0
  0
LTYPE
  5
41
330
5
100
AcDbSymbolTableRecord
100
AcDbLinetypeTableRecord
  2
DIVIDEX2
 70
    0
  3
Divide (2x) ________  .  .  ________  .  .  _
 72
   65
 73
    6
 40
63.5
 49
25.4
 74
    0
 49
-12.7
 74
    0
 49
0
 74
    0
 49
-12.7
 74
    0
 49
0
 74
    0
 49
-12.7
 74
    0
  0
LTYPE
  5
42
330
5
100
AcDbSymbolTableRecord
100
AcDbLinetypeTableRecord
  2
BORDER
 70
    0
  3
Border __ __ . __ __ . __ __ . __ __ . __ __ .
 72
   65
 73
    6
 40
44.45
 49
12.7
 74
    0
 49
-6.35
 74
    0
 49
12.7
 74
    0
 49
-6.35
 74
    0
 49
0
 74
    0
 49
-6.35
 74
    0
  0
LTYPE
  5
43
330
5
100
AcDbSymbolTableRecord
100
AcDbLinetypeTableRecord
  2
BORDERTINY
 70
    0
  3
Border (.15x) __.__.__.__.__.__.__.__.__.__.__.
 72
   65
 73
    6
 40
6.6675
 49
1.905
 74
    0
 49
-0.9525
 74
    0
 49
1.905
 74
    0
 49
-0.9525
 74
    0
 49
0
 74
    0
 49
-0.9525
 74
    0
  0
LTYPE
  5
44
330
5
100
AcDbSymbolTableRecord
100
AcDbLinetypeTableRecord
  2
BORDER2
 70
    0
  3
Border (.5x) __.__.__.__.__.__.__.__.__.__.__.
 72
   65
 73
    6
 40
22.225
 49
6.35
 74
    0
 49
-3.175
 74
    0
 49
6.35
 74
    0
 49
-3.175
 74
    0
 49
0
 74
    0
 49
-3.175
 74
    0
  0
LTYPE
  5
45
330
5
100
AcDbSymbolTableRecord
100
AcDbLinetypeTableRecord
  2
BORDERX2
 70
    0
  3
Border (2x) ____  ____  .  ____  ____  .  ___
 72
   65
 73
    6
 40
88.89999999999999
 49
25.4
 74
    0
 49
-12.7
 74
    0
 49
25.4
 74
    0
 49
-12.7
 74
    0
 49
0
 74
    0
 49
-12.7
 74
    0
  0
LTYPE
  5
46
330
5
100
AcDbSymbolTableRecord
100
AcDbLinetypeTableRecord
  2
CENTER
 70
    0
  3
Center ____ _ ____ _ ____ _ ____ _ ____ _ ____
 72
   65
 73
    4
 40
50.8
 49
31.75
 74
    0
 49
-6.35
 74
    0
 49
6.35
 74
    0
 49
-6.35
 74
    0
  0
LTYPE
  5
47
330
5
100
AcDbSymbolTableRecord
100
AcDbLinetypeTableRecord
  2
CENTERTINY
 70
    0
  3
Center (.15x) ___ _ ___ _ ___ _ ___ _ ___ _ ___
 72
   65
 73
    4
 40
7.619999999999999
 49
4.7625
 74
    0
 49
-0.9525
 74
    0
 49
0.9525
 74
    0
 49
-0.9525
 74
    0
  0
LTYPE
  5
48
330
5
100
AcDbSymbolTableRecord
100
AcDbLinetypeTableRecord
  2
CENTER2
 70
    0
  3
Center (.5x) ___ _ ___ _ ___ _ ___ _ ___ _ ___
 72
   65
 73
    4
 40
28.575
 49
19.05
 74
    0
 49
-3.175
 74
    0
 49
3.175
 74
    0
 49
-3.175
 74
    0
  0
LTYPE
  5
49
330
5
100
AcDbSymbolTableRecord
100
AcDbLinetypeTableRecord
  2
CENTERX2
 70
    0
  3
Center (2x) ________  __  ________  __  _____
 72
   65
 73
    4
 40
101.6
 49
63.5
 74
    0
 49
-12.7
 74
    0
 49
12.7
 74
    0
 49
-12.7
 74
    0
  0
ENDTAB
  0
TABLE
  2
LAYER
  5
2
330
0
100
AcDbSymbolTable
 70
    1
  0
LAYER
  5
10
330
2
100
AcDbSymbolTableRecord
100
AcDbLayerTableRecord
  2
0
 70
    0
 62
    7
  6
CONTINUOUS
370
   -3
390
F
  0
ENDTAB
  0
TABLE
  2
STYLE
  5
3
330
0
100
AcDbSymbolTable
 70
    3
  0
STYLE
  5
4A
330
2
100
AcDbSymbolTableRecord
100
AcDbTextStyleTableRecord
  2
Standard
 70
    0
 40
0
 41
1
 50
0
 71
    0
 42
1
  3
txt
  4

  0
ENDTAB
  0
TABLE
  2
VIEW
  5
6
330
0
100
AcDbSymbolTable
 70
    0
  0
ENDTAB
  0
TABLE
  2
UCS
  5
7
330
0
100
AcDbSymbolTable
 70
    0
  0
ENDTAB
  0
TABLE
  2
APPID
  5
9
330
0
100
AcDbSymbolTable
 70
    1
  0
APPID
  5
12
330
9
100
AcDbSymbolTableRecord
100
AcDbRegAppTableRecord
  2
ACAD
 70
    0
  0
APPID
  5
4B
330
9
100
AcDbSymbolTableRecord
100
AcDbRegAppTableRecord
  2
LibreCad
 70
    0
  0
ENDTAB
  0
TABLE
  2
DIMSTYLE
  5
A
330
0
100
AcDbSymbolTable
 70
    1
100
AcDbDimStyleTable
 71
    1
  0
DIMSTYLE
105
4C
330
A
100
AcDbSymbolTableRecord
100
AcDbDimStyleTableRecord
  2
Standard
 70
    0
 40
2.5
 41
2.5
 42
0.625
 43
0.38
 44
1.25
 45
0
 46
0
 47
0
 48
0
 49
1
140
2.5
141
0.09
142
0
143
25.4
144
1
145
0
146
1
147
0.625
148
0
 71
    0
 72
    0
 73
    0
 74
    1
 75
    0
 76
    0
 77
    0
 78
    8
 79
    0
170
    0
171
    2
172
    0
173
    0
174
    0
175
    0
176
    0
177
    0
178
    0
179
    0
271
    2
272
    4
273
    2
274
    2
275
    0
276
    0
277
    2
278
   44
279
    0
280
    0
281
    0
282
    0
283
    1
284
    0
285
    0
286
    0
288
    0
289
    3
340
STANDARD
341

371
   -2
372
   -2
  0
ENDTAB
  0
TABLE
  2
BLOCK_RECORD
  5
1
330
0
100
AcDbSymbolTable
 70
    2
  0
BLOCK_RECORD
  5
1F
330
1
100
AcDbSymbolTableRecord
100
AcDbBlockTableRecord
  2
*Model_Space
 70
    0
280
    1
281
    0
  0
BLOCK_RECORD
  5
1E
330
1
100
AcDbSymbolTableRecord
100
AcDbBlockTableRecord
  2
*Paper_Space
 70
    0
280
    1
281
    0
  0
ENDTAB
  0
ENDSEC
  0
SECTION
  2
BLOCKS
  0
BLOCK
  5
20
330
1F
100
AcDbEntity
  8
0
100
AcDbBlockBegin
  2
*Model_Space
 70
    0
 10
0
 20
0
 30
0
  3
*Model_Space
  1

  0
ENDBLK
  5
21
330
1F
100
AcDbEntity
  8
0
100
AcDbBlockEnd
  0
BLOCK
  5
1C
330
1B
100
AcDbEntity
  8
0
100
AcDbBlockBegin
  2
*Paper_Space
 70
    0
 10
0
 20
0
 30
0
  3
*Paper_Space
  1

  0
ENDBLK
  5
1D
330
1F
100
AcDbEntity
  8
0
100
AcDbBlockEnd
  0
ENDSEC
  0
SECTION
  2
ENTITIES
  0
LWPOLYLINE
  5
4D
100
AcDbEntity
  8
0
  6
ByLayer
 62
  256
370
   -1
100
AcDbPolyline
 90
   16
 70
    1
 43
0
 10
305.6032171216082
 20
37.50703806787395
 42
-0.2679491924310022
 10
306.0362301216082
 20
37.25703806787402
 42
1.303223041600063
 10
306.7192441216081
 20
37.94004906787399
 42
-0.267948266465021
 10
306.4692451216082
 20
38.373061067874
 10
306.4692421216082
 20
42.84101106787398
 42
-0.2679491924310068
 10
306.7192421216082
 20
43.27402406787401
 42
1.303223041599952
 10
306.0362311216082
 20
43.95703806787395
 42
-0.2679482664650011
 10
305.6032191216082
 20
43.70703906787401
 10
304.0353511216082
 20
43.70703606787396
 42
-0.2679491924309975
 10
303.6023391216082
 20
43.95703606787401
 42
1.303223041599668
 10
302.9193251216082
 20
43.27402506787405
 42
-0.2679482664650261
 10
303.1693231216083
 20
42.84101306787397
 10
303.1693231216083
 20
38.373063067874
 42
-0.2679491924309953
 10
302.9193231216082
 20
37.94005106787404
 42
1.303223041599722
 10
303.6023351216082
 20
37.25703706787402
 42
-0.2679482617889801
 10
304.0353471216082
 20
37.50703506787397
  0
LWPOLYLINE
  5
4E
100
AcDbEntity
  8
0
  6
ByLayer
 62
  256
370
   -1
100
AcDbPolyline
 90
   16
 70
    1
 43
0
 10
305.6032191216082
 20
64.907039067874
 10
304.0353511216082
 20
64.907036067874
 42
-0.2679491924310036
 10
303.6023391216082
 20
65.15703606787402
 42
1.303223041600005
 10
302.9193251216082
 20
64.47402406787397
 42
-0.2679482617890101
 10
303.1693231216082
 20
64.04101206787402
 10
303.1693231216083
 20
59.57306206787399
 42
-0.2679491924309962
 10
302.9193231216083
 20
59.14005006787404
 42
1.30322304160004
 10
303.6023351216082
 20
58.457036067874
 42
-0.2679482617889773
 10
304.0353471216082
 20
58.70703406787396
 10
305.6032171216082
 20
58.70703706787396
 42
-0.2679491924310003
 10
306.0362301216082
 20
58.45703706787401
 42
1.303223041600047
 10
306.7192441216082
 20
59.14004906787397
 42
-0.2679482664649977
 10
306.4692451216083
 20
59.57306106787399
 10
306.4692421216083
 20
64.04101006787397
 42
-0.2679491924310067
 10
306.7192421216082
 20
64.47402406787397
 42
1.303223041600025
 10
306.0362311216082
 20
65.15703806787398
 42
-0.2679482664650009
  0
LWPOLYLINE
  5
4F
100
AcDbEntity
  8
0
  6
ByLayer
 62
  256
370
   -1
100
AcDbPolyline
 90
   16
 70
    1
 43
0
 10
53.68534512160824
 20
43.70703906787404
 10
55.2532121216081
 20
43.70703606787404
 42
0.2679491924310112
 10
55.68622612160812
 20
43.95703606787404
 42
-1.30322304159933
 10
56.36924012160824
 20
43.27402506787402
 42
0.2679482664650128
 10
56.11924112160824
 20
42.841013067874
 10
56.11924112160824
 20
38.37306306787404
 42
0.2679491924310218
 10
56.36924112160824
 20
37.94005106787407
 42
-1.303223041599586
 10
55.68622912160805
 20
37.25703706787402
 42
0.2679482664650294
 10
55.2532171216082
 20
37.507035067874
 10
53.68534712160823
 20
37.50703806787398
 42
0.2679491924309703
 10
53.2523341216081
 20
37.25703806787409
 42
-1.303223041599856
 10
52.56932012160826
 20
37.94004906787414
 42
0.2679482664649838
 10
52.81931812160815
 20
38.37306106787398
 10
52.81932112160825
 20
42.84101106787402
 42
0.2679491924310286
 10
52.56932112160825
 20
43.274024067874
 42
-1.303223041599811
 10
53.25233312160822
 20
43.95703806787402
 42
0.2679482664649911
  0
LWPOLYLINE
  5
50
100
AcDbEntity
  8
0
  6
ByLayer
 62
  256
370
   -1
100
AcDbPolyline
 90
   16
 70
    1
 43
0
 10
55.2532171216082
 20
58.70703406787405
 10
53.68534712160823
 20
58.70703706787398
 42
0.2679491924309513
 10
53.2523341216081
 20
58.45703706787398
 42
-1.30322304160001
 10
52.56932012160826
 20
59.14004906787422
 42
0.2679482664649571
 10
52.81931812160821
 20
59.57306106787402
 10
52.81932112160825
 20
64.041010067874
 42
0.267949192431011
 10
52.56932112160825
 20
64.47402406787403
 42
-1.303223041599959
 10
53.25233312160805
 20
65.157038067874
 42
0.2679482664650128
 10
53.68534512160824
 20
64.90703906787402
 10
55.2532121216081
 20
64.90703606787402
 42
0.2679491924309846
 10
55.68622612160794
 20
65.15703606787405
 42
-1.303223041599913
 10
56.36924012160824
 20
64.47402406787404
 42
0.2679482617889825
 10
56.11924112160824
 20
64.04101206787405
 10
56.11924112160824
 20
59.57306206787402
 42
0.2679491924310259
 10
56.36924112160824
 20
59.14005006787397
 42
-1.303223041599931
 10
55.68622912160811
 20
58.45703606787397
 42
0.2679482664650114
  0
LWPOLYLINE
  5
51
100
AcDbEntity
  8
0
  6
ByLayer
 62
  256
370
   -1
100
AcDbPolyline
 90
   42
 70
    1
 43
0
 10
84.64178312160834
 20
76.59265206787401
 10
84.64178312160834
 20
71.09462906787402
 42
-0.4142135623730284
 10
84.14178312160834
 20
70.59462906787402
 10
49.46928012160822
 20
70.59463206787402
 42
0.4142135623730019
 10
44.46928012160811
 20
65.59463206787402
 10
44.4692821216081
 20
31.20703706787404
 42
0.4142137003959986
 10
49.46928212160822
 20
26.20703706787404
 10
68.73451212160813
 20
26.20703706787403
 42
0.3278856907169962
 10
69.68882712160826
 20
26.908235067874
 10
71.24973212160825
 20
31.89345006787407
 42
-0.3278856907170177
 10
72.20404712160826
 20
32.59464706787404
 10
72.20973712160816
 20
32.59463506787407
 10
287.0845161216083
 20
32.59464706787391
 42
-0.3278856907159993
 10
288.0388311216082
 20
31.89345006787403
 10
289.5997361216082
 20
26.90823506787399
 42
0.3278856907159976
 10
290.5540511216082
 20
26.20703706787401
 10
309.8192821216082
 20
26.20703706787401
 42
0.4142137003959997
 10
314.8192841216082
 20
31.20703706787401
 10
314.8192841216082
 20
65.59463206787397
 42
0.4142135623729962
 10
309.8192841216082
 20
70.59463206787399
 10
304.8192841216082
 20
70.59463206787399
 10
275.1467801216082
 20
70.59463206787399
 42
-0.4142135623729951
 10
274.6467801216083
 20
71.09463206787399
 10
274.6467801216083
 20
76.59265206787398
 42
0.4142135623730034
 10
272.6467801216083
 20
78.59265206787398
 10
268.3306271216083
 20
78.59265206787398
 42
0.60159393859198
 10
267.9167121216082
 20
77.81216306787398
 42
-1.88562398512999
 10
261.3768481216082
 20
77.812163067874
 42
0.6015939385919798
 10
260.9629321216083
 20
78.59265206787398
 10
256.6467801216083
 20
78.59265206787404
 42
0.4142135623730034
 10
254.6467801216083
 20
76.59265206787398
 10
254.6467801216083
 20
71.09462906787394
 42
-0.4142135623729993
 10
254.1467801216083
 20
70.594629067874
 10
105.1417831216082
 20
70.59463206787402
 42
-0.4142135623730284
 10
104.6417831216083
 20
71.09463206787402
 10
104.6417831216083
 20
76.59265206787401
 42
0.4142135623729954
 10
102.6417831216083
 20
78.59265206787401
 10
98.32563012160833
 20
78.59265206787401
 42
0.6015939385920458
 10
97.91171512160841
 20
77.81216306787401
 42
-1.885623985129958
 10
91.37185112160822
 20
77.81216306787411
 42
0.601593938591933
 10
90.95793512160833
 20
78.59265206787407
 10
86.64178312160823
 20
78.59265206787401
 42
0.4142135623729951
  0
CIRCLE
  5
52
100
AcDbEntity
  8
0
  6
ByLayer
 62
  256
370
   -1
100
AcDbCircle
 10
214.6442821216082
 20
61.20703706787397
 40
1.6
  0
CIRCLE
  5
53
100
AcDbEntity
  8
0
  6
ByLayer
 62
  256
370
   -1
100
AcDbCircle
 10
54.46928012160822
 20
51.20703706787398
 40
1.6
  0
CIRCLE
  5
54
100
AcDbEntity
  8
0
  6
ByLayer
 62
  256
370
   -1
100
AcDbCircle
 10
144.6442821216082
 20
41.20703706787403
 40
1.6
  0
CIRCLE
  5
55
100
AcDbEntity
  8
0
  6
ByLayer
 62
  256
370
   -1
100
AcDbCircle
 10
144.6442821216082
 20
61.20703706787398
 40
1.6
  0
CIRCLE
  5
56
100
AcDbEntity
  8
0
  6
ByLayer
 62
  256
370
   -1
100
AcDbCircle
 10
214.6442821216082
 20
41.20703706787403
 40
1.6
  0
CIRCLE
  5
57
100
AcDbEntity
  8
0
  6
ByLayer
 62
  256
370
   -1
100
AcDbCircle
 10
304.8192841216082
 20
51.20703706787396
 40
1.6
  0
CIRCLE
  5
58
100
AcDbEntity
  8
0
  6
ByLayer
 62
  256
370
   -1
100
AcDbCircle
 10
269.6464611216082
 20
66.87072406787399
 40
1.6
  0
CIRCLE
  5
59
100
AcDbEntity
  8
0
  6
ByLayer
 62
  256
370
   -1
100
AcDbCircle
 10
259.6464611216082
 20
66.87072406787399
 40
1.6
  0
CIRCLE
  5
5A
100
AcDbEntity
  8
0
  6
ByLayer
 62
  256
370
   -1
100
AcDbCircle
 10
99.64147712160812
 20
66.87072406787402
 40
1.6
  0
CIRCLE
  5
5B
100
AcDbEntity
  8
0
  6
ByLayer
 62
  256
370
   -1
100
AcDbCircle
 10
89.64147712160812
 20
66.87072406787402
 40
1.6
  0
LWPOLYLINE
  5
5C
100
AcDbEntity
  8
0
  6
ByLayer
 62
  256
370
   -1
100
AcDbPolyline
 90
   16
 70
    1
 43
0
 10
186.7282211216082
 20
37.894637067874
 10
185.1603511216082
 20
37.89464006787399
 42
0.2679491924310041
 10
184.7273381216082
 20
37.64464006787401
 42
-1.303223029819951
 10
184.0443241216082
 20
38.32765106787403
 42
0.2679482664649728
 10
184.2943221216082
 20
38.76066306787398
 10
184.2943251216083
 20
43.22861306787401
 42
0.2679491924310043
 10
184.0443251216082
 20
43.66162606787405
 42
-1.303223041599925
 10
184.7273371216082
 20
44.34464006787398
 42
0.2679482664650152
 10
185.1603491216082
 20
44.09464106787405
 10
186.7282161216082
 20
44.09463806787399
 42
0.2679491924310058
 10
187.1612301216082
 20
44.34463806787406
 42
-1.303223041599822
 10
187.8442441216082
 20
43.66162706787401
 42
0.2679482664649809
 10
187.5942451216083
 20
43.228615067874
 10
187.5942451216082
 20
38.76066506787404
 42
0.2679491924309935
 10
187.8442451216083
 20
38.32765306787401
 42
-1.303223041599903
 10
187.1612331216082
 20
37.64463906787397
 42
0.2679482664649873
  0
LWPOLYLINE
  5
5D
100
AcDbEntity
  8
0
  6
ByLayer
 62
  256
370
   -1
100
AcDbPolyline
 90
   16
 70
    1
 43
0
 10
187.1612301216082
 20
65.54463806787403
 42
-1.303223041599832
 10
187.8442441216082
 20
64.86162606787397
 42
0.2679482664649657
 10
187.5942451216083
 20
64.42861406787399
 10
187.5942451216082
 20
59.96066406787401
 42
0.2679491924310078
 10
187.8442451216083
 20
59.52765206787397
 42
-1.303223041599911
 10
187.1612331216082
 20
58.844638067874
 42
0.2679482664648959
 10
186.7282211216082
 20
59.09463606787398
 10
185.1603511216082
 20
59.09463906787404
 42
0.2679491924310036
 10
184.7273381216082
 20
58.84463906787398
 42
-1.303223041599858
 10
184.0443241216082
 20
59.527651067874
 42
0.2679482664650076
 10
184.2943221216082
 20
59.96066306787397
 10
184.2943251216082
 20
64.42861206787398
 42
0.2679491924310205
 10
184.0443251216082
 20
64.86162606787403
 42
-1.303223041599696
 10
184.7273371216082
 20
65.54464006787397
 42
0.2679482664650168
 10
185.1603491216082
 20
65.29464106787402
 10
186.7282161216082
 20
65.29463806787398
 42
0.267949192431001
  0
CIRCLE
  5
5E
100
AcDbEntity
  8
0
  6
ByLayer
 62
  256
370
   -1
100
AcDbCircle
 10
185.9442831216082
 20
51.59463906787404
 40
1.6
  0
LWPOLYLINE
  5
5F
100
AcDbEntity
  8
0
  6
ByLayer
 62
  256
370
   -1
100
AcDbPolyline
 90
   16
 70
    1
 43
0
 10
171.6943221216082
 20
38.76066306787398
 10
171.6943251216082
 20
43.22861306787401
 42
0.2679491924309967
 10
171.4443251216082
 20
43.66162606787395
 42
-1.303223041599988
 10
172.1273371216082
 20
44.34464006787404
 42
0.2679482664649824
 10
172.5603491216082
 20
44.09464106787405
 10
174.1282161216082
 20
44.09463806787404
 42
0.2679491924310101
 10
174.5612301216082
 20
44.34463806787404
 42
-1.303223041600072
 10
175.2442441216082
 20
43.66162706787404
 42
0.2679482664649976
 10
174.9942451216082
 20
43.228615067874
 10
174.9942451216082
 20
38.76066506787404
 42
0.2679491924310087
 10
175.2442451216082
 20
38.32765306787402
 42
-1.303223041600061
 10
174.5612331216082
 20
37.64463906787401
 42
0.267948266464998
 10
174.1282211216082
 20
37.894637067874
 10
172.5603511216082
 20
37.89464006787399
 42
0.2679491924309931
 10
172.1273381216082
 20
37.64464006787401
 42
-1.303223029819988
 10
171.4443241216082
 20
38.32765106787402
 42
0.2679482664650009
  0
LWPOLYLINE
  5
60
100
AcDbEntity
  8
0
  6
ByLayer
 62
  256
370
   -1
100
AcDbPolyline
 90
   16
 70
    1
 43
0
 10
174.5612331216082
 20
58.84463806787399
 42
0.2679482664649514
 10
174.1282211216082
 20
59.09463606787398
 10
172.5603511216082
 20
59.09463906787398
 42
0.2679491924309931
 10
172.1273381216082
 20
58.84463906787397
 42
-1.303223041599602
 10
171.4443241216082
 20
59.52765106787399
 42
0.2679482664650047
 10
171.6943221216082
 20
59.96066306787397
 10
171.6943251216082
 20
64.42861206787398
 42
0.267949192431011
 10
171.4443251216082
 20
64.86162606787401
 42
-1.303223041599607
 10
172.1273371216082
 20
65.54464006787401
 42
0.2679482664649841
 10
172.5603491216082
 20
65.29464106787402
 10
174.1282161216082
 20
65.29463806787402
 42
0.2679491924310196
 10
174.5612301216082
 20
65.544638067874
 42
-1.30322304159961
 10
175.2442441216082
 20
64.861626067874
 42
0.2679482664649899
 10
174.9942451216082
 20
64.42861406787399
 10
174.9942451216082
 20
59.96066406787401
 42
0.2679491924310097
 10
175.2442451216082
 20
59.527652067874
 42
-1.303223041599659
  0
CIRCLE
  5
61
100
AcDbEntity
  8
0
  6
ByLayer
 62
  256
370
   -1
100
AcDbCircle
 10
173.3442831216082
 20
51.59463906787404
 40
1.6
  0
LWPOLYLINE
  5
62
100
AcDbEntity
  8
0
  6
ByLayer
 62
  256
370
   -1
100
AcDbPolyline
 90
   16
 70
    1
 43
0
 10
122.8618931216097
 20
53.10699556736775
 42
0.267948266465013
 10
123.29490512161
 20
52.85699656736776
 10
127.76285512161
 20
52.85699356736777
 42
0.2679491924309836
 10
128.19586712161
 20
53.10699356736779
 42
-1.30322304160025
 10
128.8788811216099
 20
52.42398156736782
 42
0.2679482664649694
 10
128.6288831216099
 20
51.99096956736778
 10
128.6288801216099
 20
50.42310256736779
 42
0.2679491924310011
 10
128.8788801216099
 20
49.9900905673678
 42
-1.303223041600019
 10
128.1958691216099
 20
49.30707656736776
 42
0.2679482664649681
 10
127.76285712161
 20
49.55707456736778
 10
123.29490712161
 20
49.55707456736776
 42
0.2679491924309474
 10
122.86189412161
 20
49.30707456736776
 42
-1.303223041600011
 10
122.1788801216099
 20
49.99008556736774
 42
0.2679482664649954
 10
122.42887912161
 20
50.42309756736776
 10
122.4288821216099
 20
51.99096856736777
 42
0.2679491924310081
 10
122.1788821216099
 20
52.42398156736782
 42
-1.303223041600178
  0
CIRCLE
  5
63
100
AcDbEntity
  8
0
  6
ByLayer
 62
  256
370
   -1
100
AcDbCircle
 10
114.9288811216099
 20
51.20703556736773
 40
1.6
  0
LWPOLYLINE
  5
64
100
AcDbEntity
  8
0
  6
ByLayer
 62
  256
370
   -1
100
AcDbPolyline
 90
   16
 70
    1
 43
0
 10
100.97888212161
 20
52.4239815673678
 42
-1.303223041600259
 10
101.6618941216097
 20
53.10699556736778
 42
0.267948266465063
 10
102.0949061216101
 20
52.85699656736774
 10
106.5628561216099
 20
52.85699356736768
 42
0.2679491924310269
 10
106.9958681216096
 20
53.10699356736782
 42
-1.303223041599818
 10
107.6788821216099
 20
52.42398156736779
 42
0.267948266464975
 10
107.42888412161
 20
51.99096956736778
 10
107.4288811216099
 20
50.42310256736781
 42
0.267949192430969
 10
107.6788811216099
 20
49.9900905673678
 42
-1.303223041599783
 10
106.99586912161
 20
49.30707656736779
 42
0.2679482664649859
 10
106.5628571216097
 20
49.55707456736779
 10
102.09490812161
 20
49.55707456736778
 42
0.2679491924310458
 10
101.6618941216099
 20
49.30707456736785
 42
-1.303223041600085
 10
100.9788801216102
 20
49.99008556736776
 42
0.2679482664649926
 10
101.2288791216099
 20
50.42309766303887
 10
101.22888212161
 20
51.99096856736779
 42
0.2679491924310043
  0
LWPOLYLINE
  5
65
100
AcDbEntity
  8
0
  6
ByLayer
 62
  256
370
   -1
100
AcDbPolyline
 90
   16
 70
    1
 43
0
 10
252.2926961216065
 20
53.1069975683839
 42
0.2679482664650826
 10
252.7257081216065
 20
52.8569995683839
 10
257.1936581216065
 20
52.85699656838392
 42
0.2679491924309951
 10
257.6266701216065
 20
53.10699656838392
 42
-1.303223041599993
 10
258.3096841216066
 20
52.42398456838389
 42
0.2679482664649922
 10
258.0596861216064
 20
51.99097256838392
 10
258.0596831216064
 20
50.42310556838396
 42
0.2679491924310023
 10
258.3096831216064
 20
49.99009356838394
 42
-1.303223041599919
 10
257.6266721216064
 20
49.30707856838391
 42
0.2679482664649976
 10
257.1936601216065
 20
49.55707756838393
 10
252.7257101216065
 20
49.55707756838393
 42
0.2679491924310065
 10
252.2926971216065
 20
49.30707756838397
 42
-1.30322304160015
 10
251.6096831216065
 20
49.9900885683839
 42
0.2679482664649938
 10
251.8596821216065
 20
50.42310056838392
 10
251.8596851216065
 20
51.99097156838393
 42
0.2679491924309939
 10
251.6096851216065
 20
52.42398356838396
 42
-1.303223041600049
  0
LWPOLYLINE
  5
66
100
AcDbEntity
  8
0
  6
ByLayer
 62
  256
370
   -1
100
AcDbPolyline
 90
   16
 70
    1
 43
0
 10
236.8596841216064
 20
50.42310556838396
 42
0.2679491924310023
 10
237.1096841216064
 20
49.99009356838394
 42
-1.303223041599886
 10
236.4266721216064
 20
49.30707856838391
 42
0.2679482664649895
 10
235.9936601216064
 20
49.55707756838393
 10
231.5257111216064
 20
49.55707756838393
 42
0.267949192431011
 10
231.0926971216064
 20
49.30707756838393
 42
-1.303223041600073
 10
230.4096831216064
 20
49.9900885683839
 42
0.2679482664650185
 10
230.6596821216064
 20
50.42310056838392
 10
230.6596851216064
 20
51.99097156838394
 42
0.2679491924309934
 10
230.4096851216064
 20
52.42398356838389
 42
-1.303223041600007
 10
231.0926971216064
 20
53.10699756838393
 42
0.2679482664650786
 10
231.5257091216064
 20
52.85699956838398
 10
235.9936591216064
 20
52.85699656838391
 42
0.2679491924309975
 10
236.4266711216064
 20
53.10699656838392
 42
-1.303223041600014
 10
237.1096851216064
 20
52.42398456838387
 42
0.2679482664649779
 10
236.8596871216064
 20
51.99097256838392
  0
CIRCLE
  5
67
100
AcDbEntity
  8
0
  6
ByLayer
 62
  256
370
   -1
100
AcDbCircle
 10
244.3596841216065
 20
51.20703856838388
 40
1.6
  0
ENDSEC
  0
SECTION
  2
OBJECTS
  0
DICTIONARY
  5
C
330
0
100
AcDbDictionary
281
    1
  3
ACAD_GROUP
350
D
  0
DICTIONARY
  5
D
330
C
100
AcDbDictionary
281
    1
  0
ENDSEC
  0
EOF
